<?xml version="1.0" encoding="utf-8"?>
<!-- Generator: Adobe Illustrator 24.2.1, SVG Export Plug-In . SVG Version: 6.00 Build 0)  -->
<svg version="1.1" id="Calque_1" xmlns="http://www.w3.org/2000/svg" xmlns:xlink="http://www.w3.org/1999/xlink" x="0px" y="0px"
	 viewBox="0 0 239.03 100.26" style="enable-background:new 0 0 239.03 100.26;" xml:space="preserve">
<style type="text/css">
	.st0{fill:#FEFEFE;}
	.st1{fill:#F5CDAC;}
	.st2{fill:#F5CEAD;}
	.st3{fill:#F4CAA7;}
	.st4{fill:#F5CCAA;}
	.st5{fill:#73C59F;}
	.st6{fill:#40916C;}
	.st7{fill:#469470;}
	.st8{fill:#EEAA71;}
	.st9{fill:#489572;}
	.st10{fill:#EEA96E;}
	.st11{fill:#74C5A0;}
	.st12{fill:#EEAB73;}
	.st13{fill:#FDFAF9;}
	.st14{fill:#4B9875;}
	.st15{fill:#F6D3B6;}
	.st16{fill:#68C097;}
	.st17{fill:#5DA282;}
	.st18{fill:#77C7A2;}
	.st19{fill:#6BC299;}
	.st20{fill:#EFAF79;}
	.st21{fill:#6AC198;}
	.st22{fill:#65BF95;}
	.st23{fill:#6EC39B;}
	.st24{fill:#76C6A1;}
	.st25{fill:#7BC8A4;}
	.st26{fill:#F5CFAF;}
	.st27{fill:#FDF5EF;}
	.st28{fill:#EFB17C;}
	.st29{fill:#FAE8D8;}
	.st30{fill:#EFAE77;}
	.st31{fill:#F3C6A0;}
	.st32{fill:#F3C39B;}
	.st33{fill:#F3C59E;}
	.st34{fill:#F4CAA6;}
	.st35{fill:#F9E3D1;}
	.st36{fill:#F7DAC0;}
	.st37{fill:#F7D6BA;}
	.st38{fill:#F9E3CF;}
	.st39{fill:#F4C8A3;}
	.st40{fill:#F3C29A;}
	.st41{fill:#6DC29A;}
	.st42{fill:#F4C7A1;}
	.st43{fill:#81CBA8;}
	.st44{fill:#85CCAB;}
	.st45{fill:#F3C49D;}
	.st46{fill:#FEFDFC;}
	.st47{fill:#FEFCFB;}
	.st48{fill:#EDA66A;}
	.st49{fill:#F3C298;}
	.st50{fill:#FDF3EC;}
	.st51{fill:#EDA76B;}
	.st52{fill:#F2C197;}
	.st53{fill:#F2BE92;}
	.st54{fill:#F0B583;}
	.st55{fill:#F4C9A4;}
	.st56{fill:#FDFBFA;}
	.st57{fill:#79C7A3;}
	.st58{fill:#FBE9DA;}
	.st59{fill:#F0B380;}
	.st60{fill:#EEAD76;}
	.st61{fill:#F2C095;}
	.st62{fill:#EEAA70;}
	.st63{fill:#EFB07A;}
	.st64{fill:#EDA86D;}
	.st65{fill:#F0B27F;}
	.st66{fill:#EEAC74;}
	.st67{fill:#FDF6F0;}
</style>
<g>
	<path class="st0" d="M119.23,98.83c-38.11,0-76.21-0.03-114.32,0.07c-2.56,0.01-3.07-0.5-3.06-3.05c0.11-30.1,0.1-60.2,0.01-90.29
		C1.86,3.35,2.31,2.9,4.54,2.9C81,2.98,157.46,2.98,233.92,2.9c2.23,0,2.68,0.44,2.68,2.66c-0.09,30.22-0.09,60.44,0,90.66
		c0.01,2.22-0.45,2.67-2.68,2.66C195.69,98.81,157.46,98.83,119.23,98.83z"/>
	<path class="st1" d="M222.81,72.65c-1.48-0.88-3.05-0.14-4.31,0.25c-7.71,2.39-15.8,2.28-23.59,3.85
		c-4.68,0.94-8.95,3.71-13.71,4.84c-2.74-1.04-3.09-3.42-2.9-5.78c0.2-2.52,2.46-2.57,4.39-3.1c2.22-0.61,4.68-0.06,6.73-1.42
		c3.1-0.71,6.18-1.53,9.41-1.42c7.43,0.26,14.83,0,22.1-1.74c1.56-0.79,2.92-0.6,3.49,1.15C224.89,70.73,224.75,72.2,222.81,72.65z"
		/>
	<path class="st1" d="M64,72.64c4.51-1.94,9.31-2.38,14.13-2.68c9.16-0.58,18.16-2.09,27-4.52c1.27-1.1,2.77-2.15,3.99-0.29
		c0.91,1.4,0.77,3.07-1.27,3.82c-4.74,0.26-8.85,2.59-13.23,4.02c-1.5,0.49-2.93,1.28-4.58,1.22c-1.4-0.53-2.81-0.21-3.68-0.23
		c0.21-0.05,0.95-0.24,1.59,0.39c-7.15,0.29-12.79,4.94-19.44,6.64C65.64,78.95,64.58,75.93,64,72.64z"/>
	<path class="st2" d="M221.37,30.41c-2.95,0.08-5.93-0.15-8.85,0.52c-3.67-0.17-7.34-0.23-11.01,0.03
		c-7.03-1.72-13.53,0.74-20.12,2.51c-1.49-2.71-2.49-5.67-4.24-8.26c0.03-0.42,0.22-0.75,0.56-1c3.2-0.77,6.41-1.42,9.56,0.18
		c8.03-0.02,15.97,1.13,23.95,1.71c0.97,0.07,1.92,0.4,2.87,0.61c1.49,0.65,2.98,0.65,4.48,0l-0.07-0.06
		c1.29-0.8,2.6-0.88,3.53,0.41C222.92,28.29,222.88,29.55,221.37,30.41z"/>
	<path class="st1" d="M74.43,35.69c-0.43,0.48-0.95,0.68-1.59,0.54c-0.96-0.13-1.96-0.67-2.83,0.25c-1.84,1.17-3.88,0.49-5.84,0.6
		c-2.38-2.7-2.72-5.65-1.05-8.83c2.67-0.82,5.34-0.98,8.07-0.19c4.49,1.31,9.31,1.17,13.68,3c3.69,1.34,7.59-0.19,11.31,0.84
		c2.5,0.01,5,0.03,7.51,0.04c1.33-1.02,2.61-0.84,3.57,0.43c0.88,1.16,0.75,2.31-0.71,3.05c-3.82,0.18-7.7-0.95-11.47,0.54
		c-3.68-0.04-7.37,0.4-11.03-0.25l0.05,0.04c-1.13-1.06-2.69,0.03-3.87-0.78c-0.98,0.15-1.95,0.31-2.93,0.46
		C76.33,35.36,75.32,34.9,74.43,35.69z"/>
	<path class="st1" d="M177.51,24.56c-0.01,0.26-0.01,0.52-0.02,0.77c-2.25,1.59-4.77,0.85-7.2,0.85c-2.89-0.4-3.74-2.97-5.22-4.89
		c-0.91-1.17-1.43-2.61-2.54-3.62c-0.29-0.11-0.56-0.25-0.82-0.4c-0.45-0.41-0.73-0.94-1.02-1.46c-0.15-0.25-0.27-0.52-0.39-0.78
		c-0.29-0.66-0.54-1.33-0.75-2.03c-0.14-0.41-0.19-0.83-0.21-1.26c1.12-3.79,3.51-4.11,6.85-2.76c5.42,2.19,10.16,5.81,15.86,7.4
		c4.1,1.29,4.54,2.34,2.1,5.03c-1.93,0.53-3.5-0.55-5.22-1.08c-1.4-0.44-2.79-1.9-4.41-0.48c0.3,1.1,1.04,1.88,1.78,2.67
		C176.83,23.13,177.43,23.69,177.51,24.56z"/>
	<path class="st1" d="M144.22,63.87c4.39-3.94,9.96-3.84,15.33-4.45c0.17-0.02,0.34-0.04,0.5-0.06c1.37-0.06,2.74-0.16,4,0.54
		c0.57,0.53,0.67,1.2,0.6,1.93c-0.06,0.35-0.18,0.67-0.34,0.99c-0.66,1.01-1.29,2.03-1.86,3.09c-1.15,1.81-2.82,3.16-4.22,4.75
		c-1.37,1.3-2.46,2.67-2.36,4.75c0.13,2.7-0.77,4.92-3.81,5.4c-2.49,0.4-4.64-1.7-5.33-5.02c-0.17-0.84-0.31-1.68-0.37-2.54
		c0.03-0.55,0.21-1.03,0.6-1.42c0.95-0.63,1.77-1.4,2.28-2.45c0.19-0.28,0.42-0.53,0.68-0.75c2.37-1.33,4.38-3.14,6.44-4.82
		c-1.51-1.08-3.11-0.38-4.65-0.29c-0.25,0.17-0.49,0.34-0.72,0.54c-0.61,0.9-1.22,1.78-2.27,2.22c-0.23,0.18-0.46,0.36-0.67,0.56
		c-0.49,0.54-0.62,1.36-1.35,1.71c-1.05-0.07-1.63-0.85-2.31-1.49c-0.55-0.84-0.84-1.76-0.84-2.77
		C143.63,63.91,143.85,63.78,144.22,63.87z"/>
	<path class="st1" d="M150.64,37.06c-5.65-1.03-10.94,0.35-16.25,2.1c-2.39,0.79-3.76-0.56-3.9-3.07c-0.16-2.67,0.85-5.09,1.57-7.57
		c0.38-1.31,0.84-2.59,0.7-3.98c0.44-1.36,1.54-1.5,2.74-1.45c1.32,0.23,2.45,0.83,3.43,1.73c0.48,0.56,0.85,1.15,0.64,1.93
		c-0.37,0.37-0.83,0.5-1.34,0.49c-0.76-0.13-1.41,0.01-1.77,0.8c-0.74,1.01-0.55,2.49-1.69,3.28c-0.22,0.21-0.73-0.25-0.75,0.17
		c-0.02,0.46,0.21,0.95,0.79,1.09c2.6,1.66,3.45-1.03,4.99-1.99c1.85-1.09,3.83-1.14,5.88-0.75
		C150.45,32.33,151.34,33.62,150.64,37.06z"/>
	<path class="st1" d="M189.43,71.3c0.37,1.38-0.91,1.17-1.51,1.36c-0.78,0.25-1.69,0.09-2.54,0.17c-6.9,0.61-8.03,2.99-4.17,8.76
		c-0.44,0.23-0.87,0.46-1.31,0.69c-1.39-0.64-1.71-1.98-2.11-3.26c-1.44-4.68-1.44-4.69-6.17-4.17c-0.35-0.02-0.7-0.1-1.03-0.24
		c-2.97-2.84-6.6-5.09-8.26-9.11c0.58-1.03,1-2.15,1.73-3.1l-0.01,0.01c0.43-2.42,1.53-3.1,3.56-1.35c0.25,0.18,0.47,0.4,0.68,0.63
		c0.47,0.62,1.15,0.84,1.88,0.96c0.3,0.09,0.55,0.24,0.78,0.45c0.14,0.31,0.07,0.56-0.19,0.77c2.98,2.5,6.33,4.54,8.76,7.71
		c1.22,1.58,3.3,0.53,4.82,0.28C186.05,71.58,187.71,71.33,189.43,71.3z"/>
	<path class="st2" d="M41.64,28.92c4.63-2,9.42,0.41,14.08-0.52c1.9,3.8,1,7.17-1.55,10.31c-1.03-0.02-2.12,0.16-2.94-0.73
		c-2.94-1.07-5.99-0.18-8.98-0.47c-3.21-0.22-2.2-2.72-2.48-4.53C39.87,31.38,40.06,29.83,41.64,28.92z"/>
	<path class="st1" d="M162.46,17.31c1.79,0.07,1.95,1.77,2.84,2.77c1.5,1.69,2.05,4.12,4.21,5.28c0.23,0.68,0.12,1.38,0.12,2.08
		c0.27,2.11,1.81,3.79,2.02,5.9c0.12,1.28,0.95,2.62-0.21,3.84c-4.44-1.46-8.91-0.42-13.37-0.12c-1.24-1.38-0.92-3.06-0.92-4.68
		c0.09-1.2,0.49-2.32,1.02-3.39c0.54-0.99,1.1-1.97,2.09-2.61c1.78-0.92,3.64-0.17,5.74-0.23
		C165.81,22.74,161.85,20.86,162.46,17.31z"/>
	<path class="st1" d="M55.82,83.79c-0.29-0.12-0.58-0.24-0.87-0.35c-1.1-1.09-2.4-0.51-3.64-0.42c-1.29,0.02-2.58,0.03-3.87,0.05
		c-1.28-0.63-2.85,0.34-4.04-0.76c-1.12-3.24-0.96-6.22,1.86-8.61c4.25-0.6,8.49,0.09,12.73,0.11
		C59.23,77.55,58.66,80.92,55.82,83.79z"/>
	<path class="st3" d="M160.33,12.62c0.25,0.74,0.5,1.49,0.75,2.23c-1.78,1.6-4.09,0.63-6.06,1.26c-0.83,0.23-1.68,0.39-2.48,0.69
		c-0.43,0.18-0.86,0.38-1.24,0.66c-0.82,0.7-0.93,2.03-2.09,2.43c-2.2,0.42-1.91,1.96-1.58,3.51c0.03,0.46,0,0.92-0.02,1.38
		c0.87,1.53,1.34-0.06,1.98-0.26c0.66-0.42,1.32-0.56,1.99-0.02c0.45,3.01-1.77,3.88-3.89,4.85c-0.39,0.06-0.77,0.04-1.16-0.06
		c-5.96-0.77-6.88-5.48-7.95-10.07c-0.71-2.43,0.27-4.07,2.44-5.15c1.41-0.19,2.02,0.96,2.56,1.81c0.57,0.89,0.99,0.85,1.7,0.4
		C150.08,14.26,154.82,11.89,160.33,12.62z"/>
	<path class="st4" d="M29.62,38.61c-2.88,1.36-3.71-0.71-4.6-2.7c-0.29-1.14-1.21-1.89-1.79-2.86c-0.33-0.56-0.64-1.13-0.99-1.68
		c-0.37-0.55-0.67-1.14-0.86-1.78c-0.38-2.37-3.95-0.94-4.19-3.48c-0.04-1.34,0.64-2.38,1.43-3.37c0.76-0.76,1.51-1.53,2.73-1.42
		c1.13,0.73,2.28,1.43,3.29,2.34c0.63,0.99,0.68,2.19,1.19,3.22c0.35,0.73,0.84,1.37,1.32,2.02c1.46,2.61,4.81,0.86,6.56,2.81
		c0.71,0.65,1.12,1.47,1.41,2.37c0.62,2.15,0.49,3.93-2.21,4.45C31.8,38.55,30.69,37.81,29.62,38.61z"/>
	<path class="st1" d="M167.8,62.42c0-0.25,0-0.5,0-0.74c-1.26-0.95-2.44-2.09-4.23-1.87c-1.28-0.11-2.58,0.26-3.83-0.27
		c0,0-0.19-0.12-0.19-0.12c0.36-3.6,1.82-4.66,5.29-3.78c4.77,1.21,9.01,3.92,13.88,4.88c1.22,0.24,2.37,0.63,3.59,0.09
		c3.17,0.9,3.58,2.45,1.29,4.83c-2.53-0.45-5.07-0.91-7.6-1.36c-1.55-1.36-3.59,0.11-5.2-0.91l-0.04-0.03
		C169.91,62.35,168.61,63.35,167.8,62.42z"/>
	<path class="st5" d="M147.67,28.89c1.38-1.33,3.53-2.02,3.72-4.37c1.24-2.55,3.57-2.42,5.88-2.37c2.4,0.54,3.59,1.93,3.14,4.45
		c-0.52,0.79-1.03,1.58-1.55,2.38c-1.44,1.09-1.61,2.65-1.53,4.27c0.08,1.54-0.23,2.91-1.5,3.93c-1.13,0.61-2.35,0.65-3.59,0.55
		C151.44,34.42,148.9,31.99,147.67,28.89z"/>
	<path class="st6" d="M168.68,26.89c-0.15-0.74,0.44-1.08,0.83-1.52c2.66-0.01,5.32-0.02,7.98-0.03c3.15,1.84,3.74,4.89,3.9,8.15
		c-1.42,2.39-3.57,3.65-6.3,4c-1.63,0.1-2.59-0.76-2.83-2.26C171.78,32.13,170.16,29.54,168.68,26.89z"/>
	<path class="st5" d="M146.92,72.82c0.39,1.52,0.63,3.1,1.19,4.56c0.73,1.87,2.23,3.06,4.31,2.6c2.11-0.47,3.19-2.31,2.6-4.2
		c-1.03-3.34,1.04-4.6,3.24-5.98c2.72-0.16,3.2,1.93,3.9,3.81c0.01,0.37-0.07,0.72-0.23,1.05c-2.33,2.39-2.21,5.87-3.85,8.56
		c-3.59,0.04-7.3,0.92-10.56-1.46c-0.36-0.39-0.89-0.55-1.29-0.89c-0.66-0.69-0.88-1.56-0.99-2.47c-0.09-1.3-0.11-2.6,0-3.91
		c0.07-0.58,0.26-1.12,0.62-1.6C146.2,72.58,146.55,72.56,146.92,72.82z"/>
	<path class="st1" d="M32.62,83.94c-4.11,0.71-3.95-3.51-6.02-5.16c-0.48-0.46-1.35-0.15-1.69-0.86c0.05-1.13,0.45-2.24,0.14-3.38
		c-0.09-0.79-0.25-1.56-0.82-2.19c-0.7-0.8-1.4-1.6-0.82-2.77c0.73-0.99,1.73-1.28,2.9-1.12c2.42,0.69,1.71,3.59,3.41,4.78
		c0.26,0.2,0.49,0.42,0.72,0.64c0.22,0.22,0.43,0.46,0.62,0.71c0.7,1.04,1.82,1.06,2.91,1.14c2,0.26,3.36,1.4,4.32,3.1
		c0.37,0.95,0.41,1.91,0.18,2.89c-0.32,1.01-0.94,1.72-1.99,2C35.2,83.84,33.87,83.14,32.62,83.94z"/>
	<path class="st4" d="M161.66,74.35c0.07-0.2,0.12-0.39,0.17-0.59c3-1.03,5.89,0.02,8.81,0.45l0.24,0.19
		c2.32,3.28,2.28,6.04-0.13,9.53c-0.81,0.12-1.61,0.16-2.23-0.52c-2.62-1.37-5.48-0.04-8.15-0.72
		C158.4,79.54,159.92,76.93,161.66,74.35z"/>
	<path class="st7" d="M54.17,38.71c1.06-3.35,1.64-6.78,1.55-10.31c2.47-0.05,4.94-0.1,7.4-0.15c-0.42,3.03,0.58,5.9,1.05,8.83
		C60.95,38.3,57.84,40.21,54.17,38.71z"/>
	<path class="st6" d="M64,72.64c1.51,2.79,3.01,5.58,4.52,8.37c-3.1,2.46-6.45,4.07-10.56,2.97c-0.71-3.57,0.71-6.85,1.44-10.22
		C60.93,73.39,62.46,73.01,64,72.64z"/>
	<path class="st6" d="M170.76,83.93c0.7-3.17,0.98-6.34,0.13-9.53c1.2-0.27,2.4-0.53,3.6-0.8c2.3-0.54,3.34,0.38,3.71,2.69
		c0.33,2.04,1.11,4,1.7,6C177.12,84.32,174.19,85.49,170.76,83.93z"/>
	<path class="st8" d="M25.84,74.3c0.24,1.3,1.25,2.73-0.68,3.63c-2.71,1.21-4.37-0.48-6.05-2.14c-0.26-0.48-0.51-0.96-0.77-1.45
		c-0.94-2.79-1.27-5.59-0.05-8.4c0.86-0.84,0.79-2.42,2.21-2.82c2.08-0.7,3.97-2.91,6.39-0.77c0.47,0.69,0.59,1.47,0.63,2.27
		c-0.02,1.19-0.06,2.37-1.05,3.25c-0.48,0.31-1.01,0.42-1.57,0.41c-1.28-0.31-2.27,0.06-2.92,1.23c-0.52,0.89-0.57,1.8-0.1,2.72
		c0.27,0.36,0.59,0.65,0.99,0.86C23.84,73.56,25.06,73.4,25.84,74.3z"/>
	<path class="st9" d="M183.53,20.97c2.1-1.02,2.65-2.12,0.06-3.18c-0.74-0.3-1.18-0.78-1.55-1.41c1.97-1.45,3.12-3.43,3.79-5.75
		c0.26-0.89,0.38-2.22,1.65-2.08c0.99,0.11,1.46,1.15,1.84,2.12c0.85,2.19,0.39,4.33,0.06,6.52c-0.2,1.32-0.02,2.7-0.01,4.06
		c-0.76,2.09-2.52,2.06-4.24,1.84C184.03,22.95,182.89,22.54,183.53,20.97z"/>
	<path class="st9" d="M107.86,68.96c0.87-0.95,1.54-2.04,0.85-3.3c-1-1.84-2.41,0.38-3.57-0.23c-0.42-1.25,0.23-2.18,1.05-2.95
		c1.74-1.64,2.95-3.58,3.73-5.84c0.39-1.15,0.92-2.48,2.64-1.47c0.69,3.94,0.47,7.94,0.95,11.89c0.18,1.47-0.69,1.91-1.87,2.16
		C110.37,69.14,109.11,69.05,107.86,68.96z"/>
	<path class="st10" d="M19.19,23c-0.53,1-1.06,2.01-1.59,3.01c-0.12,0.22-0.14,0.45-0.18,0.68c-0.29,1.73-1.07,3.45,0.01,5.17
		c-0.19,0.55-0.54,0.95-1.13,1.08c-3.02-1.76-5.29-3.96-4.72-7.85c-0.43-2.2,1-3.59,2.23-5.06c0.98-0.7,2.17-1.01,3.18-1.68
		c0.88,0.1,1.07,0.68,0.99,1.44c-0.08,0.4-0.47,0.57-0.66,0.89c0.31,0.12,0.55-0.2,0.86-0.12C19.24,21.08,19.86,21.78,19.19,23z"/>
	<path class="st11" d="M36.91,72.21c4.19-2.56,5.76-2.3,7.69,1.3c-1.87,2.92-1.76,6.4-2.74,9.57c-0.75,0.68-1.36,0.19-1.99-0.22
		c-1.1-1.08-1.18-2.56-1.58-3.92c-0.51-1.57-1.75-2.41-3.14-3.1c-0.31-0.17-0.57-0.38-0.81-0.64c-0.4-0.59-0.73-1.2-0.25-1.91
		C34.81,72.39,35.99,72.64,36.91,72.21z"/>
	<path class="st12" d="M141,14.07c-0.65,1.46-2.63,2.44-1.63,4.49c-0.21,0.23-0.43,0.44-0.66,0.63c-1.83,1.43,1.63,0.29,0.66,1.32
		c0.76,1.13,0.9,2.46,1.03,3.72c0.13,1.26-0.59,1.7-1.79,1.08c-0.98-0.52-1.96-1.04-2.94-1.57c-3.88-0.59-3.55-3.27-3.03-6.04
		C134.09,13.47,137.69,14.11,141,14.07z"/>
	<path class="st13" d="M183.53,20.97c1.82,2.5,3.81,1.66,5.83,0.28c0.41,1.77-1.2,2.23-2.08,3.15c-3.25,0.05-6.51,0.11-9.76,0.16
		c-0.52-0.52-1.03-1.03-1.55-1.55c-0.58-1.11-1.57-1.92-2.17-3.01c-0.36-0.6-1.15-1.38-0.99-1.75c0.43-1.01,1.45-0.49,2.2-0.24
		C177.85,18.96,180.69,19.98,183.53,20.97z"/>
	<path class="st7" d="M106.54,34.92c1.62-3.42-1.41-2.45-2.85-2.97c-0.24-2.14,1.7-2.58,2.93-3.32c1.2-0.72,2.08-1.67,3.07-2.56
		c0.89-0.19,0.89-1.05,1.25-1.64c0.54-1.12,1.45-0.6,2.26-0.51c0.23,3.97-1.31,7.59-2.43,11.27c-0.67,2.18-2.63,1.74-4.36,1.29
		c-0.34-0.12-0.68-0.25-1.01-0.37C105.53,35.48,106.13,35.29,106.54,34.92z"/>
	<path class="st7" d="M222.81,72.65c2.09-2.62,1.36-4.08-1.88-4.51c1.33-2.88,3.16-5.58,3.25-8.91c0.83-0.21,1.43,0.2,1.9,0.78
		c1.98,2.43,2.07,9.92,0.18,12.67C225.12,72.67,223.97,72.66,222.81,72.65z"/>
	<path class="st4" d="M26.63,64.64c0.01-0.73,0.01-1.46,0.02-2.19c0.09-0.35,0.3-0.56,0.66-0.63c3.01,1.51,5.42,3.53,6.06,7.06
		c1.19,3.39-0.97,3.74-3.47,3.8c-2.77-0.93-2.33-3.55-2.92-5.6C26.76,66.3,27.16,65.4,26.63,64.64z"/>
	<path class="st11" d="M34.73,26.06c2.93-1.41,5.27-1.07,6.59,2.24c-1.36,1.71-1.14,4.41-3.5,5.49c-1.49-0.22-2.32-1.42-3.41-2.23
		c-0.99-1.25-3.24-1.55-2.97-3.79c0.26-0.68,0.84-1.01,1.44-1.32C33.45,26.13,34.16,26.39,34.73,26.06z"/>
	<path class="st14" d="M221.37,30.41c1.49-3.09-0.14-3.84-2.86-3.76c0.81-2.98,1.61-5.97,2.42-8.95c2.34,0.17,2.37,2.19,2.73,3.69
		c0.46,1.98,0.76,3.99,1.41,5.93c0.43,1.32,0.04,2.34-1.16,3.05C223.06,30.96,222.22,31.19,221.37,30.41z"/>
	<path class="st9" d="M183.6,65.44c1.63-2.16,0.84-3.67-1.29-4.83c1.1-1.4,2.2-2.79,3.31-4.19c1.01-0.51,1.01-1.56,1.39-2.43
		c0.44-1.02,1.04-0.76,1.51,0.09c0.82,3.74-0.84,7.41-0.28,11.15c0.07,0.45-0.5,0.79-0.93,1.02
		C185.99,66.29,184.53,67.07,183.6,65.44z"/>
	<path class="st15" d="M146.78,80.96c0.25,0.26,0.5,0.52,0.75,0.78c-1.91,0.26-3.81,0.54-5.72,0.77c-2.18,0.26-3.53-0.45-3.28-2.92
		c-1.05-1.2-0.9-2.55-0.48-3.93c1.5-1.82,2.96,0.44,4.46,0.04c0.36,0.05,0.7,0.15,1.03,0.28c0.32,0.16,0.6,0.37,0.83,0.63
		C145.58,77.84,145.09,80,146.78,80.96z"/>
	<path class="st10" d="M134.84,66.83c2.44-4.75,4.7-5.46,9.38-2.96c-0.19-0.03-0.37,0-0.54,0.09c-0.31,1.13-0.47,2.4-2.13,2.27
		c-3.37-0.2-2.27,2.77-3.1,4.36c-0.44,1.19-0.71,2.47-1.95,3.17c-0.39,0.1-0.74,0.02-1.06-0.23c-0.2-0.33-0.35-0.67-0.45-1.04
		C134.86,70.61,134.1,68.74,134.84,66.83z"/>
	<path class="st2" d="M33.32,26.8c-0.48,0.26-0.95,0.52-1.43,0.79c-0.68,0.51-1.33,1.12-2.3,0.84c-0.88-0.8-1.43-1.82-1.82-2.93
		c0.1-1.04-0.47-1.89-0.85-2.79c-0.07-0.53,0.02-1.01,0.48-1.35c2.56,0.33,4.97,0.98,6.64,3.16C32.14,24.77,34.47,26.32,33.32,26.8z
		"/>
	<path class="st1" d="M27.39,21.36c-0.02,0.55-0.04,1.1-0.06,1.65c1.27,0.68,0.81,1.61,0.39,2.54c-0.08,0.9-0.39,1.67-1.16,2.22
		c-0.54,0.19-1.03,0.11-1.46-0.27c-0.71-1.15-0.84-2.42-0.75-3.73c-0.94-1.06-2.14-2.01-1.49-3.71
		C24.47,20.11,26.22,19.75,27.39,21.36z"/>
	<path class="st16" d="M226.27,72.68c0.85-3.58,0.94-7.16,0.08-10.76c-0.3-1.27-0.79-2.3-2.16-2.69c2.01-1.3,2.67,0.46,3.22,1.63
		c1.64,3.47,0.87,7.2,0.83,10.84C228.22,72.76,227.23,72.94,226.27,72.68z"/>
	<path class="st17" d="M106.41,36.49c2.55,0.3,3.81-0.96,4.36-3.35c0.72-3.09,1.61-6.14,2.43-9.21c1.87,2.1-0.36,4.07-0.26,6.14
		c0.06,1.27-0.66,2.57-1.01,3.87C110.76,38.36,110.76,38.36,106.41,36.49z"/>
	<path class="st18" d="M168.68,26.89c2.67,1.79,3.71,4.56,4.33,7.49c0.3,1.4,0.42,2.71,2.09,3.11c-1.29,0.69-2.5,0.49-3.66-0.3
		C171.45,33.5,169.01,30.47,168.68,26.89z"/>
	<path class="st19" d="M187.29,66.24c0.22-4.22,1.34-8.41,0.54-12.68c-0.22-0.28-0.62-0.46-0.5-0.92c2.46-0.24,2,1.66,2.15,3
		c0.35,3.12-1.37,6.17-0.2,9.39C189.64,66.04,188.86,67.28,187.29,66.24z"/>
	<path class="st20" d="M147.67,28.89c2.64,2.38,4.82,4.99,4.57,8.85c-0.77,0.33-1.03-0.53-1.6-0.68c0.05-3.62-2.77-4.98-5.25-6.6
		c-0.28-0.29-0.38-0.63-0.3-1.03c0.44-0.82,1.05-1.02,1.85-0.5C147.18,28.92,147.42,28.91,147.67,28.89z"/>
	<path class="st21" d="M224.6,27.48c-1.06-1.93-1.12-4.09-1.5-6.18c-0.26-1.43-0.82-2.78-2.18-3.59c0-1.27,0.55-1.67,1.5-0.73
		c1.27,1.25,1.76,3.01,2.01,4.65c0.31,2.09,0.83,4.04,1.77,5.93c0.49,0.98,1.25,2.14-0.79,2.29
		C224.56,29.25,225.34,28.11,224.6,27.48z"/>
	<path class="st22" d="M41.52,83.22c0-3.56-0.18-7.18,3.08-9.72c0.23,0.04,0.45,0.1,0.66,0.18c-1.2,2.81-1.89,5.7-1.4,8.78
		c0.19,0.19,0.26,0.39,0.2,0.59c-0.06,0.2-0.11,0.31-0.17,0.31l-0.1-0.08C43.02,83.68,42.26,83.75,41.52,83.22z"/>
	<path class="st23" d="M111.63,69.23c0.21-0.9,1.6-1,1.3-2.38c-0.84-3.85-0.2-7.78-0.38-11.68c1.57,4.31,1.59,8.79,1.36,13.27
		C113.84,69.87,112.87,70.33,111.63,69.23z"/>
	<path class="st24" d="M59.39,73.76c0.3,3.52-0.64,6.86-1.44,10.22c-0.71-0.06-1.42-0.13-2.13-0.19c1.31-3.2,2.03-6.53,2.18-9.98
		C58.46,73.79,58.93,73.77,59.39,73.76z"/>
	<path class="st25" d="M32.58,37.97c2.44-0.45,2.39-1.94,1.57-3.74c1.98-1.07,3.06,0.2,4.12,1.56c0.43,1.07,0.26,2.04-0.46,2.93
		c-1.66,1.16-3.47,0.67-5.25,0.45C32.17,38.76,32.11,38.36,32.58,37.97z"/>
	<path class="st1" d="M19.19,23c-0.14-1.01-0.56-1.82-1.55-2.25c-0.25-0.13-0.34-0.27-0.28-0.43c0.06-0.17,0.13-0.25,0.21-0.25
		c0.02-0.6,0.03-1.2-0.72-1.41c-0.29,0.25-0.51,0.19-0.69-0.13c2.41-1.1,4.57-1.13,6.16,1.38c-0.14,0.65-0.29,1.3-0.97,1.64
		C20.63,22.02,19.91,22.51,19.19,23z"/>
	<path class="st21" d="M161.66,74.35c-0.92,2.63-1.69,5.29-1.33,8.13c0.27,0.18,0.34,0.33,0.23,0.47c-0.1,0.12-0.21,0.18-0.31,0.18
		c-0.72,0.03-1.44,0.05-2.17,0.08C158.25,79.84,158.45,76.49,161.66,74.35z"/>
	<path class="st26" d="M160.33,12.62c-5.33-0.02-10.04,2.45-15.07,3.66c4.14-3.2,9.1-3.91,14.08-4.54
		C159.66,12.04,159.99,12.33,160.33,12.62z"/>
	<path class="st22" d="M37.69,33.48c1.39-1.6,1.45-4.13,3.63-5.19c0.15,0.19,0.25,0.4,0.32,0.63c-0.29,1.25-0.59,2.5-0.88,3.75
		c-1.14,1.65,0.58,3.83-1,5.4c-1.33-0.13-1.05-1.32-1.42-2.09C38.08,35.16,37.27,34.48,37.69,33.48z"/>
	<path class="st8" d="M11.58,25.09c-0.12,3.5,2.73,5.25,4.55,7.6c0.72,0.37,1.19,0.84,0.73,1.71
		C13.02,33.13,10.77,29.16,11.58,25.09z"/>
	<path class="st27" d="M135.69,73.46c0.25,0.01,0.5,0.03,0.75,0.04c0.98,0.23,1.78,0.69,2.1,1.72c0,1.46,0,2.91,0,4.37
		c-1.09,0.73-0.13,2.18-1.06,2.99c-0.35-1.32-0.68-2.61-1.02-3.9C137.62,76.74,134.39,75.43,135.69,73.46z"/>
	<path class="st21" d="M155.83,37.19c0.37-1.65,0.79-3.27,0.83-5c0.03-1.35-0.02-3.15,2.2-3.2c-0.28,0.99-0.55,1.99-0.83,2.98
		c-0.9,1.61,0.25,3.5-0.7,5.1C156.83,37.11,156.33,37.15,155.83,37.19z"/>
	<path class="st10" d="M22.09,29.72c0.27,0.47,0.55,0.93,0.82,1.4c0.78,0.95-0.25,1.51-0.49,2.24c0.01,0.29-0.11,0.52-0.35,0.68
		c-0.45,0.07-0.9,0.14-1.35,0.2c-1.57,0.26-1-1.53-1.87-1.94C19.2,30.54,19.93,29.25,22.09,29.72z"/>
	<path class="st28" d="M132.63,17.7c0.31,2.36,0.38,4.84,3.03,6.04c-1.07-0.09-2.04,0.18-2.92,0.8c-0.23-0.05-0.47-0.08-0.71-0.1
		c-1.19-1.43-1.04-2.93-0.21-4.46C131.88,19.15,131.87,18.29,132.63,17.7z"/>
	<path class="st29" d="M19.11,75.79c1.93,0.95,3.63,2.55,6.05,2.14c0.48,0.28,0.96,0.56,1.44,0.85
		C23.27,79.85,20.65,79.16,19.11,75.79z"/>
	<path class="st30" d="M19.12,32.64c1.36-0.28,0.84,1.29,1.6,1.61c-1.25,0.86-2.53,1.11-3.86,0.16c-0.24-0.57-0.48-1.14-0.73-1.71
		c0.25-0.25,0.5-0.5,0.74-0.75C17.93,31.18,18.59,31.71,19.12,32.64z"/>
	<path class="st31" d="M106.54,34.92c-0.38,0.4-0.75,0.8-1.14,1.2c-3.03-0.98-6.13-0.18-9.19-0.4c-0.32,0.26-0.6,0.21-0.86-0.1
		C99,34.08,102.82,35.32,106.54,34.92z"/>
	<path class="st31" d="M95.36,35.62c0.28,0.03,0.57,0.07,0.85,0.1c-4.05,1.07-8.11,1.24-12.16-0.01
		C87.82,35.68,91.59,35.65,95.36,35.62z"/>
	<path class="st32" d="M29.57,72.08c2.14-0.04,3.89-0.54,3.8-3.2c0.88,0.21,1.45,0.7,1.47,1.66c0.44,1.21-0.41,1.82-1.16,2.48
		c-0.77,0.53-1.74,0.56-2.56,0.98c-0.26,0.15-0.53,0.25-0.82,0.31c-0.25-0.01-0.49-0.01-0.74-0.02
		C29.05,73.55,28.91,72.81,29.57,72.08z"/>
	<path class="st33" d="M201.51,30.97c3.67-0.84,7.34-0.8,11.01-0.03C208.85,31.38,205.18,31.42,201.51,30.97z"/>
	<path class="st34" d="M96.19,31.91c-3.76-0.37-7.65,0.99-11.31-0.84C88.64,31.45,92.5,30.6,96.19,31.91z"/>
	<path class="st3" d="M21.35,21.54c0.03-0.72,0.27-1.31,0.97-1.64c0.19,0.01,0.37,0.06,0.53,0.16c0.5,1.24,0.99,2.47,1.49,3.71
		C22.97,23.52,21.57,23.3,21.35,21.54z"/>
	<path class="st8" d="M18.29,65.95c-0.35,2.8,0.94,5.59,0.05,8.4c-0.25-0.26-0.51-0.51-0.76-0.77c-1.03-2.24-0.66-4.48,0.01-6.72
		C17.83,66.56,18.06,66.25,18.29,65.95z"/>
	<path class="st35" d="M131.83,19.98c0.07,1.49,0.14,2.97,0.21,4.46C129.82,22.85,129.73,21.05,131.83,19.98z"/>
	<path class="st36" d="M17.59,66.86c0,2.24-0.01,4.48-0.01,6.72C15.37,71.34,16.05,69.1,17.59,66.86z"/>
	<path class="st33" d="M42.27,37.15c2.97,0.42,6.11-0.91,8.96,0.82c-2.99-0.05-5.98-0.1-8.96-0.14c-0.24-0.15-0.32-0.3-0.24-0.46
		C42.11,37.23,42.19,37.15,42.27,37.15z"/>
	<path class="st8" d="M27.31,61.82c-0.22,0.21-0.44,0.42-0.66,0.63c-2.23-1.44-4.07,0.74-6.15,0.67
		C22.5,61.28,24.69,60.42,27.31,61.82z"/>
	<path class="st37" d="M134.84,66.83c0.26,2.01,0.52,4.01,0.77,6.02c-0.26,0.23-0.27,0.7-0.71,0.77
		C133.66,71.37,133.78,69.11,134.84,66.83z"/>
	<path class="st25" d="M36.31,83.29c0.51-0.51,1.02-1.02,1.54-1.52c1.45-0.39,1.31,1.49,2.38,1.63c0.26,0.16,0.47,0.37,0.63,0.62
		c-1.42,1.1-2.99,0.73-4.54,0.45C35.9,84.08,35.85,83.69,36.31,83.29z"/>
	<path class="st33" d="M42.27,37.15c0,0.23,0,0.45,0,0.68c-1,0.22-1.99,0.45-2.99,0.67c-0.16-0.14-0.21-0.27-0.15-0.41
		c0.06-0.13,0.11-0.2,0.17-0.2c1.76-1.39-0.09-3.78,1.47-5.22C41.31,34.15,39.56,36.4,42.27,37.15z"/>
	<path class="st3" d="M33.31,72.82c0.51-0.76,1.02-1.52,1.53-2.28c0.73,0.51,0.88,1.73,2.07,1.67c-0.73,0.81-1.69,1.17-2.7,1.46
		c-0.31,0.21-0.62,0.23-0.95,0.05C33.03,73.4,33.06,73.1,33.31,72.82z"/>
	<path class="st31" d="M160.25,83.13c0.01-0.22,0.04-0.43,0.08-0.65c2.71,0.45,5.64-0.95,8.19,0.93
		C165.77,83.31,163.01,83.22,160.25,83.13z"/>
	<path class="st38" d="M134.91,73.62c0.24-0.26,0.48-0.51,0.71-0.77c0.08,0.2,0.1,0.4,0.07,0.61c-0.39,1.84,2.49,3.19,0.77,5.22
		C136.27,76.9,134.64,75.55,134.91,73.62z"/>
	<path class="st31" d="M33.32,26.8c0-2.09-1.36-0.28-2.05-0.71c0.3-1.62,1.55-1.56,2.76-1.57c0.23,0.51,0.47,1.03,0.7,1.54
		C34.43,26.63,33.9,26.75,33.32,26.8z"/>
	<path class="st14" d="M187.33,52.64c0.17,0.31,0.33,0.61,0.5,0.92c-1.63,0.27,0.94,3.77-2.22,2.85
		C186.17,55.15,185.96,53.54,187.33,52.64z"/>
	<path class="st20" d="M39.29,37.9c-0.01,0.2-0.02,0.4-0.01,0.61c-0.49,0.07-0.98,0.14-1.47,0.22c0-1.02-0.01-2.04-0.01-3.06
		c0.26-0.29,0.54-0.28,0.82-0.03C39.44,36.21,39.26,37.08,39.29,37.9z"/>
	<path class="st39" d="M87.96,74.37c-0.78-0.22-1.71,0.25-2.49-0.59c1.63-0.19,3.17-0.69,4.58,0.43
		C89.35,74.26,88.65,74.31,87.96,74.37z"/>
	<path class="st40" d="M22.07,34.04c-0.01-0.21-0.02-0.42-0.02-0.63c0.45-0.42,1.04-0.55,1.61-0.73c0.95,0.87,1.43,1.93,1.36,3.22
		C24.04,35.27,23.48,33.99,22.07,34.04z"/>
	<path class="st41" d="M157.33,37.07c0.27-1.7-0.64-3.55,0.7-5.1c0.01,1.7,0.02,3.39,0.02,5.09c0,0-0.36,0.07-0.36,0.07
		L157.33,37.07z"/>
	<path class="st42" d="M170.8,63.17c1.73,0.33,3.72-0.82,5.2,0.91c-1.74-0.07-3.48-0.14-5.23-0.21
		C170.78,63.64,170.78,63.4,170.8,63.17z"/>
	<path class="st17" d="M110.94,24.43c0.19,0.8,0.78,1.92,0.46,2.32c-0.51,0.64-1.07-0.52-1.71-0.68
		C110.1,25.53,110.52,24.98,110.94,24.43z"/>
	<path class="st33" d="M218.57,26.72c-1.49,1.19-2.98,1.12-4.47,0C215.59,26.72,217.08,26.72,218.57,26.72z"/>
	<path class="st24" d="M40.86,84.02c-0.24-0.04-0.49-0.07-0.74-0.09c-0.55-0.49-0.46-0.98-0.01-1.47c0.47,0.25,0.94,0.5,1.41,0.76
		c0.76,0.02,1.51,0.04,2.27,0.06C43.05,84.47,41.87,83.92,40.86,84.02z"/>
	<path class="st43" d="M36.31,83.29c0,0.39,0,0.79,0,1.18c-1.23-0.18-2.46-0.35-3.69-0.53C33.66,82.69,35.05,83.37,36.31,83.29z"/>
	<path class="st17" d="M224.6,27.48c0.96,0.55,0.68,1.52,0.8,2.36c-0.5,0.18-1,0.36-1.5,0.54C224.42,29.48,224.69,28.53,224.6,27.48
		z"/>
	<path class="st42" d="M74.43,35.69c0.85-1.28,1.85-0.9,2.87-0.26C76.34,35.52,75.39,35.61,74.43,35.69z"/>
	<path class="st42" d="M80.23,34.97c1.32,0.14,2.81-0.62,3.87,0.78C82.77,35.67,81.39,35.87,80.23,34.97z"/>
	<path class="st44" d="M32.58,37.97c-0.01,0.4-0.02,0.8-0.02,1.2c-0.98-0.19-1.96-0.38-2.94-0.56
		C30.42,37.52,31.55,37.96,32.58,37.97z"/>
	<path class="st31" d="M70.01,36.49c0.83-1.37,1.81-0.96,2.83-0.25C71.9,36.32,70.96,36.4,70.01,36.49z"/>
	<path class="st45" d="M43.89,83.37c-0.01-0.3-0.02-0.6-0.03-0.9c1.2,0.17,2.52-0.4,3.59,0.59C46.26,83.16,45.07,83.27,43.89,83.37z
		"/>
	<path class="st33" d="M51.31,83.02c1.31-0.71,2.58-1.08,3.64,0.42C53.74,83.29,52.52,83.16,51.31,83.02z"/>
	<path class="st8" d="M16.16,18.52c0.23,0.07,0.46,0.11,0.69,0.13c-0.82,0.88-1.83,1.34-3.04,1.38
		C14.37,19.19,15.18,18.72,16.16,18.52z"/>
	<path class="st1" d="M157.23,22.91c-2.13-0.13-4.04,0.53-5.84,1.61c-0.64,0-1.21,0.14-1.55,0.75c-1.02,0.59-2.03,0.91-2.96-0.14
		c0.01-0.46,0.01-0.92,0.02-1.38c0.53-1.19,0.66-2.62,2-3.32c1.12-0.63,2.37-1.01,3.4-1.81c1.02-0.83,2.09-1.59,3.19-2.32
		c0.74-0.47,1.51-0.89,2.39-1.05c1.06,0.13,2.2-0.35,3.2,0.35c0.6,0.33,0.73,0.89,0.74,1.5C161.61,20.07,158.73,20.95,157.23,22.91z
		"/>
	<path class="st46" d="M157.23,22.91c0.17-3,3.5-3.53,4.59-5.81c0.21,0.09,0.42,0.16,0.64,0.21c1.55,2.51,3.09,5.03,4.64,7.54
		c0.38,0.62,1.02,1.22,0.49,1.98c-0.49,0.7-1.33,0.54-2.05,0.46c-1.72-0.2-3.43-0.45-5.14-0.67
		C159.48,25.27,159.51,23.11,157.23,22.91z"/>
	<path class="st31" d="M161.08,15.6c-1.27,0.01-2.54,0.02-3.81,0.03c-1,0.57-1.98,0.89-2.91-0.12c2.13-1.32,4.49-0.36,6.72-0.66
		C161.08,15.1,161.08,15.35,161.08,15.6z"/>
	<path class="st39" d="M173.79,20c1.08,0.75,2.14,1.51,2.17,3.01C174.79,22.33,173.79,21.52,173.79,20z"/>
	<path class="st47" d="M170.65,74.2c-3.02,1.39-5.89-0.01-8.81-0.45c-0.98-1.51-1.77-3.19-3.57-3.97c1.2-1.39,2.4-2.78,3.6-4.17
		c0.13-0.4,0.33-0.44,0.6-0.12C165.19,68.4,167.92,71.3,170.65,74.2z"/>
	<path class="st13" d="M157.96,63.89c-2.84,1.52-4.63,4.64-8.07,5.26c-0.26-0.26-0.42-0.56-0.48-0.92
		c-0.04-0.91,0.24-1.75,0.59-2.58c0.48-0.75-0.09-1.81,0.71-2.47l-0.07,0.07C153.13,62.84,155.68,61.86,157.96,63.89z"/>
	<path class="st48" d="M141.65,66.13c0.68-0.72,1.36-1.45,2.04-2.17c0.92,0.75,1.03,1.78,0.98,2.87c0.58,0.82,0.68,1.64,0.04,2.48
		c-1.08,0.71-2.15,0.69-3.21-0.04C140.79,68.19,140.73,67.14,141.65,66.13z"/>
	<path class="st32" d="M146.88,68.33c0.02-0.81-0.16-1.69,0.81-2.14c1.12,0.93,1.21,2.49,2.15,3.53c-0.45,1.06-0.71,2.3-2.23,2.35
		c-0.36-0.44-0.24-1.02-0.47-1.5c-0.22-0.5-0.47-1-0.6-1.54C146.51,68.72,146.63,68.49,146.88,68.33z"/>
	<path class="st42" d="M157.96,63.89c-2.33-1.45-4.88-0.45-7.32-0.64c2.31-1.69,4.89-0.69,7.35-0.62
		C158.82,62.66,158.53,63.46,157.96,63.89z"/>
	<path class="st49" d="M164.06,59.46c1.82-0.22,2.95,0.7,3.74,2.21c-1.37-0.36-2.92-1.6-3.74,0.75c0-0.74,0-1.48,0-2.22
		c-0.26-0.16-0.35-0.32-0.26-0.49C163.88,59.55,163.97,59.46,164.06,59.46z"/>
	<path class="st50" d="M149.84,69.71c-1.68-0.6-2.45-1.74-2.15-3.53c0,0-0.06,0.01-0.06,0.01c0.42-0.48,0.94-0.43,1.48-0.26
		c0.91,0.61,0.26,1.69,0.75,2.43c0.01,0.26,0.02,0.53,0.03,0.79C149.86,69.34,149.84,69.52,149.84,69.71z"/>
	<path class="st51" d="M147.67,70.56c0.86,0.54-0.05,1-0.07,1.5c-0.23,0.25-0.46,0.5-0.69,0.75c-0.24,0.05-0.47,0.09-0.71,0.12
		c-0.88-0.07-1.55-0.42-1.78-1.35c0.08-0.33,0.25-0.59,0.51-0.81C145.81,70.26,146.69,69.73,147.67,70.56z"/>
	<path class="st20" d="M146.88,68.33c0.02,0.25,0.03,0.5,0.05,0.76c-0.75,1.29-1.51,1.34-2.28,0.03c0.01-0.76,0.02-1.52,0.02-2.28
		C145.79,66.76,146.05,67.96,146.88,68.33z"/>
	<path class="st33" d="M149.04,66.17c-0.47,0.01-0.94,0.02-1.41,0.03c1.02-1,2.05-2.01,3.08-3.01c-0.06,0.98-0.12,1.96-0.18,2.94
		C150.04,66.58,149.55,66.57,149.04,66.17z"/>
	<path class="st52" d="M162.46,65.5c-0.2,0.02-0.41,0.06-0.6,0.12c0.46-1.26,0.82-2.58,2.21-3.21
		C163.94,63.65,163.49,64.72,162.46,65.5z"/>
	<path class="st53" d="M164.06,59.46c0,0.24,0,0.49,0,0.73c-1.43-0.27-3.04,0.6-4.32-0.66C161.18,59.51,162.62,59.49,164.06,59.46z"
		/>
	<path class="st54" d="M146.93,28.94c-0.62,0.06-1.21,0.16-1.55,0.77c-2.42-0.46-4.95-0.18-7.28-1.16c-1.05-1.64,1.01-1.13,1.3-1.85
		c-0.26-0.46-0.53-0.92-0.8-1.38c2.82-1.72,0.1-3.5,0.06-5.25c-0.46-0.5-0.41-0.99,0.01-1.48c0.23,0,0.47-0.01,0.7-0.02
		c0.48,2.14,1.94,4.02,1.58,6.39c-0.14,0.96,0.33,1.75,1.44,1.74C144.31,26.67,145.57,27.88,146.93,28.94z"/>
	<path class="st50" d="M134.25,31.33c1.24-1-0.43-3.55,2.08-3.87c0.51,0.05,0.88,0.32,1.11,0.77c0.23,0.4,0.48,0.79,0.75,1.16
		c0.56,0.72,1.42,1.12,2.01,1.8c-0.52,1.34-1.78,1.85-2.87,2.6c-1.72,1.18-2.54,0.43-3.06-1.21
		C133.72,32.17,133.73,31.76,134.25,31.33z"/>
	<path class="st30" d="M140.2,31.19c-1.13-0.18-2.53,0.14-2.87-1.52c0.33-0.43,0.05-1.1,0.59-1.45c2.57,0.1,5.29-0.59,7.46,1.48
		c0,0.25,0,0.5,0,0.75C143.63,30.53,141.85,30.37,140.2,31.19z"/>
	<path class="st20" d="M137.91,28.23c-0.2,0.48-0.39,0.97-0.59,1.45c-0.08-0.42-0.17-0.84-0.25-1.27c-0.28-0.86-0.6-1.74,0.88-1.72
		c0.48,0,0.96,0,1.43,0C138.9,27.2,138.41,27.71,137.91,28.23z"/>
	<path class="st55" d="M134.25,31.33c0.01,0.41,0.01,0.83,0.02,1.24c-1.66,0.32-0.53-0.97-0.81-1.45c-0.07-0.12,0.25-0.46,0.39-0.69
		C133.99,30.74,134.12,31.04,134.25,31.33z"/>
	<path class="st54" d="M137.96,26.69c-0.69,0.37-0.79,1.04-0.88,1.72c-0.25-0.31-0.5-0.63-0.75-0.95c0.02-0.43-0.13-1.11,0.08-1.24
		C136.98,25.86,137.55,26.17,137.96,26.69z"/>
	<path class="st40" d="M167.8,62.42c1.02,0.1,2.18-0.35,2.96,0.73C169.7,63.18,168.4,64.2,167.8,62.42z"/>
	<path class="st56" d="M155.79,17.04c-0.98,0.73-1.97,1.47-2.95,2.2c-3.54,1.09-2.77-0.9-2.06-2.86c0.44-0.02,0.87-0.04,1.31-0.06
		C153.41,16.07,154.87,15.17,155.79,17.04z"/>
	<path class="st29" d="M149.28,20.81c-0.8,0.98-1.59,1.96-2.39,2.94c-0.23-1.96-2.44-4.9,2.22-4.43
		C149.58,19.77,149.58,20.27,149.28,20.81z"/>
	<path class="st26" d="M149.28,20.81c-0.06-0.5-0.11-0.99-0.17-1.49c1.22-0.6,0.21-2.45,1.66-2.93c-0.24,1.62-0.61,3.32,2.06,2.86
		C151.92,20.37,150.51,20.38,149.28,20.81z"/>
	<path class="st57" d="M146.88,25.13c0.99,0.05,1.98,0.1,2.97,0.14c-0.45,0.97-1.17,1.6-2.27,1.31
		C146.94,26.42,146.07,26.1,146.88,25.13z"/>
	<path class="st58" d="M155.79,17.04c-1.03-1.27-2.48-0.41-3.71-0.72c0.57-0.8,1.49-0.6,2.27-0.81c0.97,0.04,1.94,0.08,2.91,0.12
		C157.06,16.4,156.53,16.83,155.79,17.04z"/>
	<path class="st51" d="M19.12,32.64c-0.75-0.23-1.5-0.46-2.25-0.7c-0.66-2.09-0.8-4.11,0.73-5.93c0.45,0.73,1.01,1.52,1.96,1.16
		c2.91-1.11,2.56,0.85,2.53,2.55C20.64,30.24,19.66,31.22,19.12,32.64z"/>
	<path class="st59" d="M29.46,28.16c0.81-0.19,1.62-0.38,2.43-0.57c-0.42,2.34,2.92,1.63,2.95,3.6c-0.32,0.72-0.76,1.18-1.63,0.8
		c-1.4-0.13-2.62-1-4.19-0.62c-1.69,0.41-2.15-1.06-2.54-2.35c0.68-0.16,1.28-0.45,1.67-1.07C28.63,27.77,29.07,27.81,29.46,28.16z"
		/>
	<path class="st12" d="M33.21,31.98c0.54-0.27,1.08-0.53,1.63-0.8c1.21,0.44,2.04,1.35,2.85,2.3c0.31,0.72,0.62,1.43,0.93,2.15
		c-0.27,0.01-0.55,0.02-0.82,0.03c-1.22-0.48-2.43-0.95-3.65-1.43C33.84,33.48,33.53,32.73,33.21,31.98z"/>
	<path class="st30" d="M28.07,28.41c-0.06,1.42-0.94,0.72-1.59,0.61c-0.46-0.5-0.93-1.01-1.39-1.51c0.5-0.03,1-0.06,1.5-0.09
		C27.45,27.2,27.91,27.59,28.07,28.41z"/>
	<path class="st60" d="M23.65,32.69c-0.38,0.59-0.98,0.68-1.6,0.73c0.29-0.76,0.57-1.53,0.86-2.29
		C23.15,31.64,23.4,32.16,23.65,32.69z"/>
	<path class="st12" d="M144.64,71.33c0.52,0.53,1.05,1.07,1.57,1.6c-0.03,0.47-0.06,0.94-0.08,1.41c-0.66,0.8-0.91,2.02-2.23,2.14
		c-0.26-0.02-0.53-0.05-0.79-0.07c-2.68,0.02-1.96-1.78-1.78-3.3C142.11,71.93,142.75,70.49,144.64,71.33z"/>
	<path class="st34" d="M143.89,76.49c0.45-1.02,1.25-1.67,2.23-2.14c-0.01,1.46-0.02,2.93-0.03,4.39c-1.64,0.17-1.29-1.64-2.2-2.19
		L143.89,76.49z"/>
	<path class="st61" d="M143.89,76.55c1.16,0.3,1.31,1.62,2.2,2.19c0.23,0.74,0.47,1.48,0.7,2.22
		C144.57,80.3,144.45,78.28,143.89,76.55z"/>
	<path class="st62" d="M21.35,69.11c0.69-1.18,1.35-2.42,3.07-1.46c0.32,0.95-0.45,1.49-0.81,2.19c-0.27,1.26,1.03,1.46,1.51,2.21
		c0.28,3.02-1.65,1.69-3,1.51c-0.26-0.25-0.51-0.5-0.77-0.76C20.79,71.58,20.79,70.35,21.35,69.11z"/>
	<path class="st53" d="M29.57,72.08c0,0.74-0.01,1.48-0.01,2.21c-2.29-1-1.7-3.62-2.97-5.19c-0.39-0.38-1.1-0.57-0.79-1.35
		c1.08-0.82,0.69-2.04,0.83-3.11C28.15,66.91,27.04,70.2,29.57,72.08z"/>
	<path class="st63" d="M34.74,75.11c1.77,0.71,4.09,0.83,3.92,3.62c-0.31,0.34-0.64,0.37-1,0.07c-1.37-0.92-2.34-2.59-4.36-2.31
		C33.06,75.28,33.91,75.21,34.74,75.11z"/>
	<path class="st10" d="M37.66,78.8c0.33-0.02,0.66-0.05,1-0.07c0.48,1.25,0.97,2.49,1.45,3.74c0,0.49,0.01,0.98,0.01,1.47
		c-1.76,0.31-1.3-1.67-2.27-2.17C37.78,80.78,37.72,79.79,37.66,78.8z"/>
	<path class="st64" d="M34.74,75.11c-0.48,0.46-0.96,0.92-1.44,1.38c-1.25,0.1-2.39-0.01-2.91-1.4c1.45-1.28,2.91-0.92,4.36,0
		L34.74,75.11z"/>
	<path class="st54" d="M34.75,75.09c-1.45,0-2.91,0-4.36,0c-0.03-0.26-0.05-0.52-0.08-0.78c0.01-0.24,0.02-0.48,0.01-0.71
		c0.99-0.85,2,0.18,3-0.02c0.3,0.03,0.59,0.06,0.89,0.08C34.39,74.14,34.57,74.61,34.75,75.09z"/>
	<path class="st65" d="M22.11,73.57c1.19-0.13,2.75,0.47,3-1.51c0.85,0.56,0.7,1.43,0.72,2.25C24.58,74.11,23.16,74.82,22.11,73.57z
		"/>
	<path class="st4" d="M25.8,67.75c0.26,0.45,0.53,0.9,0.79,1.35c-1.08-0.11-2.06,0.23-2.98,0.74c0.27-0.73,0.54-1.46,0.81-2.19
		C24.88,67.68,25.34,67.72,25.8,67.75z"/>
	<path class="st20" d="M21.35,69.11c0,1.23,0,2.47,0,3.7C20.24,71.58,20.25,70.35,21.35,69.11z"/>
	<path class="st66" d="M17.57,20.06c0.03,0.23,0.06,0.46,0.07,0.68c-0.4,0.85-0.93,1.53-2.03,1.91
		C15.7,21.11,16.69,20.64,17.57,20.06z"/>
	<path class="st60" d="M138.67,18.58c0,0.49-0.01,0.99-0.01,1.48c-0.55,0.05-0.93,1.28-1.27,0.68
		C136.81,19.71,137.76,19.03,138.67,18.58z"/>
	<path class="st20" d="M141.65,73.56c0.54,0.93-0.49,2.64,1.46,2.86c-1.72,0.34-3.29,0.12-4.57-1.2c-1.08-0.11-1.81-0.65-2.1-1.72
		c0.49-0.97,0.98-1.94,1.47-2.91C138.88,71.93,139.99,73.08,141.65,73.56z"/>
	<path class="st51" d="M141.65,73.56c-2.68,0.8-3.78-0.37-3.74-2.96c-0.31-2.22,0.28-4.21,1.99-5.65c1.56-1.32,1.79-0.13,1.75,1.19
		c0,0.99,0,1.98,0,2.97c0.69,1.15,3.79-0.9,2.99,2.23c0,0,0,0,0,0C143.19,71.48,142.6,72.76,141.65,73.56z"/>
	<path class="st67" d="M28.07,28.41c-0.49-0.33-0.99-0.67-1.48-1c-0.18-0.83,0.38-1.4,0.76-2.03c0.19-0.36,0.41-0.38,0.67-0.07
		c0.91,0.74,2.03,1.37,1.44,2.85C29,28.24,28.54,28.33,28.07,28.41z"/>
	<path class="st32" d="M28.02,25.31c-0.23,0.02-0.45,0.04-0.67,0.07c0.37-0.79,0.48-1.59-0.02-2.37
		C28.97,23.35,29.29,24.09,28.02,25.31z"/>
	<path class="st4" d="M33.32,73.58c-0.99,1.33-2-0.27-3,0.02c0.76-1.15,1.96-0.66,2.99-0.78C33.31,73.07,33.31,73.33,33.32,73.58z"
		/>
	<path class="st39" d="M149.04,66.17c0.49-0.02,0.99-0.03,1.48-0.05c0.22,0.87-0.28,1.54-0.66,2.24
		C148.77,67.93,149.25,66.92,149.04,66.17z"/>
	<path class="st20" d="M144.63,71.34c0.03-2.1-2.37-0.98-2.99-2.23c1,0,2,0,3,0c0.77,0.48,1.53,0.43,2.28-0.03
		c0.25,0.49,0.5,0.99,0.74,1.48C146.66,70.82,145.65,71.08,144.63,71.34z"/>
</g>
</svg>
