<?xml version="1.0" encoding="utf-8"?>
<!-- Generator: Adobe Illustrator 24.2.1, SVG Export Plug-In . SVG Version: 6.00 Build 0)  -->
<svg version="1.1" id="Calque_1" xmlns="http://www.w3.org/2000/svg" xmlns:xlink="http://www.w3.org/1999/xlink" x="0px" y="0px"
	 viewBox="0 0 174.75 119.25" style="enable-background:new 0 0 174.75 119.25;" xml:space="preserve">
<style type="text/css">
	.st0{fill:#FEFEFE;}
	.st1{fill:#FFDDC7;}
	.st2{fill:#40916C;}
	.st3{fill:#FFDDC6;}
	.st4{fill:#82CBA9;}
	.st5{fill:#4B9875;}
	.st6{fill:#4D9976;}
	.st7{fill:#FFDCC5;}
	.st8{fill:#84CCAA;}
	.st9{fill:#489572;}
	.st10{fill:#4A9773;}
	.st11{fill:#FFD9C0;}
	.st12{fill:#FFCAA6;}
	.st13{fill:#4F9A78;}
	.st14{fill:#FFC6A0;}
	.st15{fill:#FFD7BD;}
	.st16{fill:#FFDCC4;}
	.st17{fill:#FFC8A3;}
	.st18{fill:#88CEAD;}
	.st19{fill:#FFD6BB;}
	.st20{fill:#FFDAC2;}
	.st21{fill:#FFCDAB;}
	.st22{fill:#539C7B;}
	.st23{fill:#7EC9A6;}
	.st24{fill:#FFD9BF;}
	.st25{fill:#FFD1B1;}
	.st26{fill:#FFCBA8;}
	.st27{fill:#FFC9A5;}
	.st28{fill:#FFDBC3;}
	.st29{fill:#FFE3D0;}
	.st30{fill:#FFD2B5;}
	.st31{fill:#FFD5B9;}
	.st32{fill:#FFD7BC;}
	.st33{fill:#FFCCA9;}
	.st34{fill:#FFD4B7;}
	.st35{fill:#67C096;}
	.st36{fill:#FFD4B8;}
	.st37{fill:#FFCFAF;}
	.st38{fill:#FFD2B4;}
	.st39{fill:#FFCFAE;}
	.st40{fill:#FFC7A1;}
	.st41{fill:#FFC9A4;}
	.st42{fill:#76C6A1;}
	.st43{fill:#FFCBA7;}
	.st44{fill:#FFDEC8;}
	.st45{fill:#FFCCAA;}
	.st46{fill:#FFCEAC;}
	.st47{fill:#FFD1B3;}
	.st48{fill:#FFD3B6;}
	.st49{fill:#FFD8BE;}
	.st50{fill:#FFC7A2;}
	.st51{fill:#FFCEAD;}
	.st52{fill:#8DD0B1;}
	.st53{fill:#FFC49D;}
	.st54{fill:#FFD6BA;}
	.st55{fill:#579E7E;}
	.st56{fill:#65BF95;}
	.st57{fill:#FFF2E9;}
	.st58{fill:#FDFCFC;}
	.st59{fill:#FFE7D6;}
	.st60{fill:#FFC39A;}
	.st61{fill:#7CC9A5;}
	.st62{fill:#FFC69F;}
	.st63{fill:#FFFEFE;}
	.st64{fill:#8ACEAE;}
	.st65{fill:#77C7A2;}
	.st66{fill:#FFF6F1;}
	.st67{fill:#74C5A0;}
	.st68{fill:#7BC8A4;}
	.st69{fill:#FFC39B;}
	.st70{fill:#FFC59E;}
	.st71{fill:#FFDAC1;}
	.st72{fill:#FCFAF9;}
	.st73{fill:#FFE7D7;}
	.st74{fill:#FFC299;}
</style>
<g>
	<path class="st0" d="M0,119.18c0-39.7,0-79.4,0-119.11c57.23,0,114.46,0.02,171.69-0.07c2.56,0,3.07,0.5,3.06,3.05
		c-0.11,37.72-0.11,75.43,0,113.15c0.01,2.55-0.5,3.05-3.06,3.05C114.46,119.16,57.23,119.18,0,119.18z"/>
	<path class="st1" d="M87.45,76.02c-0.01-0.26-0.03-0.53-0.04-0.79c0.64-1.95,0.42-3.86-0.26-5.74c-0.28-1.32-0.03-2.81-1.19-3.86
		c-0.04-0.75-0.09-1.5-0.13-2.26c-0.08-4.08,0.09-4.22,6.35-4.84c0.38-0.02,0.74,0.06,1.08,0.24c1.32,1.37,0.95,3.15,1.18,4.79
		c0.01,1.5,0.05,3.01-0.88,4.33c-0.11,2.22-0.23,4.43-0.34,6.65c-1.37,4.2-0.38,8.51-0.62,12.77c-0.12,2.07-0.13,4.17,0.08,6.25
		c0.13,0.39,0.32,0.75,0.57,1.07c0.05,0.48,0.09,0.96,0.14,1.44c0.17,1.52,0.14,3.1-1.68,3.46c-1.94,0.38-2.33-1.23-2.7-2.67
		c0-0.52,0-1.03,0-1.55c0.29-1.24,0.52-2.47-0.14-3.67c-0.25-1.48-0.51-2.96-0.76-4.45c0.36-1.36-0.03-2.66-0.32-3.97
		c-0.06-1.01-0.03-2.03-0.03-3.04C88.03,78.77,88.52,77.34,87.45,76.02z"/>
	<path class="st2" d="M85.04,59.53c-0.51-0.56-1.01-0.8-1.49,0.04c-1.96,1.37-3.85,0.19-5.76-0.16c-1.37-0.75-1.79-2.11-2.26-3.45
		c-0.23-0.77-0.33-1.57-0.35-2.37c-0.02-1.22-0.01-2.43,0.38-3.61c0.31-0.79,0.73-1.49,1.52-1.88c5.01,0.93,10.03,1.13,15.08,0.31
		c0.4,0.08,0.77,0.23,1.11,0.45c0.93,0.85,0.97,2.09,1.37,3.17c0.27,1.62,0.97,3.17,0.73,4.87c-0.14,0.54-0.43,0.98-0.85,1.34
		c-0.57,0.51-1.34,0.29-1.98,0.54l-0.01,0.05C90.07,59.37,87.58,59.64,85.04,59.53z"/>
	<path class="st1" d="M44.02,87.12c-0.27-0.94,0.55-1.47,0.84-2.19c0.79-1.61,1.56-3.2-1.5-2.6c-0.61,0.3-1.25,0.54-1.91,0.72
		c-1.25-0.13-1.89,1.06-2.94,1.35c-1.78,0.56-3.56,1.2-5.24-0.24c-0.94-1.61-0.66-3.35-0.57-5.07c0.17-0.9,0.55-1.67,1.34-2.19
		c1.95-1.16,4.12-1.18,6.3-1.17c1.87,0.13,3.75,0.27,5.62,0.43c1.83,0.26,3.69,0.45,4.9,2.13c1.59,2.41,0.04,4.5-0.68,6.68
		c-0.79,1.93-1.29,3.94-1.62,5.99c-0.11,1.62-0.77,3.06-1.56,4.44c-0.7,1.49-0.32,3.01-0.11,4.53c-0.44,1.86-1.23,3.02-3.28,1.6
		c-0.66-1.55,0.32-3.07,0.07-4.62c0-0.38,0.06-0.75,0.19-1.1c0.27-2.56,0.28-5.12-0.01-7.68C43.73,87.77,43.78,87.43,44.02,87.12z"
		/>
	<path class="st1" d="M148.56,82.66c-0.49,0.03-0.98,0.05-1.46,0.08c-1.42,0.17-2.89,0.47-3.62-1.3c-0.4-2.36,0.47-4.25,2.16-5.84
		c2.56-0.83,5.18-0.1,7.76-0.3c0.39,0.01,0.77,0.08,1.14,0.2c1.2,0.79,2.6,0.37,3.89,0.63c0.55,0.16,1.12,0.27,1.58,0.64
		c1.59,1.85,0.52,4.06,0.83,6.08c-0.27,1.18-1.35,2.28-0.36,3.59c0.64,2.94-1.34,5.39-1.51,8.18c-0.76,1.46-0.18,3.03-0.36,4.54
		c-0.2,1.17-0.88,1.77-2.09,1.71c-2.48-1.68,0.11-4.31-1.15-6.22c0-0.78,0-1.55,0-2.33c0.57-1.19,0.15-2.46,0.29-3.68
		c0.11-1.73,1.23-3.38,0.42-5.18c0.09-1.55-0.75-2.16-2.2-2.15C151.93,81.07,150.34,82.23,148.56,82.66z"/>
	<path class="st1" d="M78.4,73.8c-0.89,3.2-2.52,6.23-2.37,9.69c-1.05,1.35-1.17,2.96-1.23,4.57c-0.09,0.46-0.19,0.92-0.28,1.39
		c-1.49,2.61,0.25,5.7-1.25,8.31c-3.26,1.03-2.43-0.97-2-2.68c0.05-2.32,0.01-4.65,0.02-6.97c-0.14-2.28,0.3-4.59-0.26-6.86
		c-0.29-1.14,0.17-2.11,0.74-3.05c0.9-1.36,1.35-2.85,1.3-4.48c0.27-1.22,0.55-2.44,0.82-3.66c0.74-1.22,0.19-2.69,0.73-3.95
		c0.25-0.83,0.59-1.62,0.96-2.41c0.89-1.15,1.08-2.6,1.64-3.9c0.25-0.34,0.58-0.52,0.99-0.55c4.23,0.36,4.41,0.55,3.95,4.28
		c-0.38,2.07-1.09,4.01-2.31,5.74C78.87,70.62,78.27,72.09,78.4,73.8z"/>
	<path class="st1" d="M129.95,88.68c0.01-0.76,0.03-1.51,0.04-2.27c0.49-0.94,0.95-1.92,2.26-1.91c0.72,0.06,1.36,0.36,2.01,0.63
		c1.41,0.68,3.79,0.25,3.45,2.96c-0.39,1.21-1.11,2.34-0.93,3.69c0,0.23-0.07,0.43-0.21,0.61c-1.05,1.06-0.98,2.54-1.43,3.83
		c-0.94,1.47-1.89,2.95-2.83,4.42c-2.54,1.28-4.9,0.76-7.16-0.73c-2.36-0.24-4.11-1.57-5.76-3.12c-1.3-0.93-2.68-1.6-4.36-1.39
		c-1-0.14-1.82-0.53-2.07-1.62c0.13-2.34,1.6-2.01,3.06-1.46c1.91,0.72,3.83,1.39,5.81,1.88c1.68,0.47,3.4,0.86,4.76,2.06
		c0.84,0.61,1.71,0.76,2.62,0.11c0.65-1.03,0.08-2.21,0.41-3.28C129.75,91.62,130.55,90.2,129.95,88.68z"/>
	<path class="st1" d="M25.42,96.09c-1.87-1.54-3.85-2.83-6.39-2.9c-3.9-0.15-4.18-0.46-3.43-3.82c0.32-0.25,0.7-0.39,1.11-0.42
		c1.09,0.31,2.22,0.44,3.31,0.77c1.33,0.49,2.76,0.65,4.08,1.18c1.95,0.37,3.62,1.86,5.77,1.41l-0.06,0.06
		c1.55-1.13,1.04-2.88,1.31-4.4c0.78-0.79,0.73-2.14,1.82-2.73c1.82-0.43,3.71-0.31,5.54-0.68c0.59,0.22,0.7,0.71,0.71,1.25
		c-0.11,1.28-1.03,2.36-0.97,3.69c-0.8,1.46-1.6,2.91-2.4,4.37c-0.74,1.24-1.64,2.4-2.05,3.82c-1.49,2.96-3.28,3.17-5.38,0.59
		C27.69,97.14,26.64,96.51,25.42,96.09z"/>
	<path class="st2" d="M133.68,85.69c-0.53-0.25-1.06-0.49-1.59-0.74c-0.39-0.47-1.35-0.09-1.46-0.98c-0.43-2.74,1.34-5.06,1.5-7.68
		c0.11-0.37,0.35-0.63,0.72-0.77c1.12-0.31,2.18,0.05,3.17,0.44c2.64,1.03,4.97,0.31,7.21-1.1c0.76-0.27,1.5-0.3,2.22,0.12
		c0.33,0.29,0.4,0.64,0.21,1.03c-0.62,1.95-1.97,3.71-1.59,5.94c0.39,0.55,0.5,1.07-0.15,1.52c-1.64,1.01-4.15,0.15-5.23,2.4
		C137.02,86.18,135.34,86.26,133.68,85.69z"/>
	<path class="st3" d="M22.32,72.41c-0.47-0.31-0.94-0.61-1.41-0.92c-0.7-1.09-1.51-2.05-2.91-2.23c-1.02-1.01-2.04-2.02-3.06-3.04
		c-0.73-1.43-0.5-2.69,0.71-3.75c2.49-3.68,6.43-5.99,9.07-9.54c1.6-0.69,2.99-2.16,5-1.35c0.26,0.21,0.47,0.46,0.64,0.76
		c0.4,0.9,0.66,1.86,1,2.79c0.29,0.96,0.66,1.91,0.43,2.94c-0.78,2.05-1.88,3.67-4.45,3.32c-0.72-0.27-0.93-0.86-0.95-1.55
		c-0.27-2.25-1.16-0.67-1.84-0.28c-0.75,0.86-1.51,1.7-2.58,2.16c-0.72,0.6-2.36,0.35-1.89,2.04c0.77,2.43,3.09,3.98,3.65,6.52
		C23.71,71.29,23.35,72.07,22.32,72.41z"/>
	<path class="st3" d="M73.88,24.55c-0.26-0.94,0.49-1.47,0.89-2.15c1.12-0.67,2.26-1.29,3.65-0.96c0.88,0.8,0.87,2,1.35,2.99
		c0.35,0.87,0.71,1.73,0.88,2.66c0.18,1.17,0.17,2.32-0.28,3.43c-0.62,1.04-1.37,1.87-2.74,1.72c-0.66-0.54,0.04-1.55-0.82-2.28
		c0.75,1.04,0.26,2.15,0.84,2.99c0.16,0.74,0.13,1.48,0.02,2.22c-0.58,1.81-0.55,3.68-0.54,5.55c-0.01,1.44-0.09,2.88,0.17,4.3
		c0.05,0.35,0.05,0.7,0.01,1.06c-0.16,1.41-1.1,2.51-1.49,3.83c-0.04,0.33-0.12,0.66-0.22,0.98c-0.27,1.64-0.42,3.28,0.14,4.91
		c1.52,2,0.13,3.93-0.14,5.89c-0.48,0.47-1.02,0.54-1.62,0.26c-0.91-2.71-0.2-5.5-0.44-8.24c-0.35-1.52-0.41-3.05-0.37-4.6
		c0.05-2.46-0.11-4.91,0.11-7.37c0.46-3.11,0.36-6.22,0.07-9.33c-0.2-0.88-0.19-1.77-0.05-2.66C73.94,28.07,73.07,26.21,73.88,24.55
		z"/>
	<path class="st1" d="M119.45,62.64c3.38-3.25,6.76-6.51,10.14-9.76c1.07-0.84,2.15-1.63,3.64-1.27c0.56,0.18,1,0.52,1.37,0.97
		c0.52,0.76,0.73,1.66,1.1,2.49c0.42,1,0.88,1.98,0.88,3.1c-0.02,0.56-0.16,1.09-0.47,1.57c-0.51,0.57-1.15,0.92-1.87,1.16
		c-0.72,0.18-1.42,0.17-2.09-0.2c-0.97-0.3-0.64-2.88-2.58-1.45c-0.72,0.66-1.43,1.32-2.34,1.72c-1.12,0.43-2.1,1.04-2.72,2.1
		c-0.65,1.15-0.11,2.03,0.64,2.88c0.66,0.76,1.29,1.54,1.7,2.47c0.26,1.34,2.11,2.71-0.04,4.02c-0.23-0.04-0.45-0.11-0.66-0.2
		c-0.72-1.03-1.44-2.04-2.83-2.22c-1.3-1.26-2.6-2.52-3.9-3.78C118.8,65.02,118.79,63.83,119.45,62.64z"/>
	<path class="st4" d="M94.05,29.23c0.12,0.13,0.14,0.27,0.08,0.43c0.16,1.5,0.22,2.99-0.67,4.33c-0.52,0.55-1.15,0.9-1.89,1.08
		c-1.88,0.31-3.78,0.2-5.67,0.29c-1.14-0.15-1.46-1.05-1.76-1.95c-0.48-1.7-1.37-3.27-1.76-5.01c-0.08-0.54-0.02-1.05,0.28-1.52
		c2.38-0.49,4.92,2.26,7.18-0.37c0.55-0.38,1.12-0.7,1.83-0.62c1.04,0.57,1.31,1.68,1.84,2.61C93.69,28.75,93.87,28.99,94.05,29.23z
		"/>
	<path class="st5" d="M88.99,96.85c2.66,3.06,2.75,3.04,4.39-0.8c2.19,0.37,2.48,2.62,3.81,3.83c0.35,1.43,1.79,0.79,2.6,1.37
		c1.63,1.31,0.77,2.04-0.67,2.36c-3.48,0.77-6.78-0.8-10.21-0.96c-0.97-0.05-0.75-1.11-0.64-1.81
		C88.47,99.5,88.74,98.18,88.99,96.85z"/>
	<path class="st6" d="M156.8,100.7c0.49-0.55,0.97-1.09,1.46-1.64c0.2-0.31,0.45-0.37,0.75-0.16c2.02,1.57,3.47,3.86,6.04,4.76
		c0.61,0.21,1.14,0.72,1.07,1.36c-0.11,0.97-1.07,0.97-1.74,0.91c-3.3-0.28-6.6-0.62-9.89-1.02c-1.07-0.13-1.37-0.95-1.08-1.93
		c0.39-1.28,0.83-2.55,1.24-3.83C156.15,98.62,155.17,101.43,156.8,100.7z"/>
	<path class="st7" d="M91.89,34.34c0.48-0.26,0.95-0.53,1.43-0.79c0.47-0.42,0.93-0.42,1.4,0c0.05,0.71,0.1,1.42,0.16,2.13
		c0.14,1.39,0.24,2.8,1.36,3.85c0.05,0.47,0.09,0.95,0.14,1.42c-0.11,0.84-0.08,1.65,0.59,2.3c0.03,1.45,0.06,2.91,0.1,4.36
		c0.67,1.28,0.2,2.65,0.34,3.98c0.01,0.38-0.02,0.76-0.07,1.14c-0.73,0.77-1.34,0.26-1.96-0.18c-0.59-0.7-0.98-1.51-1.23-2.4
		c-0.03-0.91-0.59-1.63-0.9-2.44c-0.55-1.49-0.84-3.06-1.29-4.58c-0.15-0.54-0.24-1.08-0.3-1.63c0.11-1.92-0.76-3.73-0.62-5.65
		C91.14,35.24,91.45,34.75,91.89,34.34z"/>
	<path class="st4" d="M146.18,57.3c1.37,2.42,2.47,4.82-0.58,6.87c-0.17,0-0.34,0-0.51,0c-2.12-0.93-3.95,0.01-5.79,0.91
		c-0.8-0.1-1.36-0.53-1.73-1.24c-0.71-2.01-0.31-4.12-0.59-6.17c0.03-0.58,0.25-1.05,0.79-1.32c2.03-0.44,3.44,2.16,5.58,1.11
		c0.78-0.46,0.94-1.65,2.02-1.75C146.12,56,145.78,56.84,146.18,57.3z"/>
	<path class="st8" d="M41.77,56.7c0.49,2.58,3.29,5.33-0.56,7.59c-1.73-0.35-3.47-0.86-5.21-0.02c-0.71,0.13-1.43,0.28-2.03-0.32
		c-0.9-1.29-1.2-2.75-1.31-4.28c-0.03-0.92,0.04-1.83,0.46-2.67c0.88-1.12,1.76-0.31,2.61,0.04c1.02,0.43,2,1.02,3.12,0.31
		c0.86-0.64,0.65-2.23,2.08-2.36C41.62,55.36,41.27,56.24,41.77,56.7z"/>
	<path class="st9" d="M34.32,77.45c-0.27,0.42-0.55,0.85-0.82,1.27c-0.34,1.83-0.97,3.64-0.39,5.54c0.04,0.37-0.07,0.68-0.35,0.93
		c-0.53,0.27-1.03,0.17-1.51-0.14c-3.12-1.93-3.94-4.7-3.01-8.12c1.38-2.27,4.1-3.31,6.05-2.25C35.85,75.54,35.72,76.51,34.32,77.45
		z"/>
	<path class="st10" d="M113.49,93.8c0.53,0.83,1.46,0.56,2.2,0.81c0.44,0.43,0.49,0.91,0.2,1.43c-0.34,0.52-0.67,1.04-1.01,1.56
		c-0.08,0.49-1.5,0.94-0.03,1.46c0.1,0.23,0.19,0.46,0.27,0.69c-0.91,2.2-2.63,1.2-3.94,0.78c-1.17-0.38-1.97-1.51-1.77-2.91
		c0.18-1.22,0.2-2.37-0.05-3.61c-0.66-3.25-0.15-3.64,3.45-3.08C113.67,91.75,112.64,93,113.49,93.8z"/>
	<path class="st11" d="M126.83,72.43c1.26-1.57-1.01-2.61-0.62-4.05c2.77-0.33,4.17,2.44,6.6,2.89c0.49,1.83-0.79,1.13-1.31,1.31
		c1.2,0.77,2.1-1.16,3.42-0.97c0.36,0,0.71,0.05,1.06,0.13c2.89,1.53,2.89,1.53,0.05,3.82c-0.94,0.71-2.13-0.42-3.07,0.41
		c-0.27,0.1-0.55,0.21-0.82,0.31C129.75,75.85,127.97,74.57,126.83,72.43z"/>
	<path class="st12" d="M79.07,24.68c-1.05-0.78-0.57-1.94-0.75-2.94c-0.24-0.38-0.76-0.49-0.92-0.94c0.29-0.62,0.59-1.23,0.88-1.85
		c-0.22-2.09-2.32-3.99-0.6-6.27c0.21-0.29,0.42-0.6,0.69-0.84c0.75-0.65,0.75-2.45,2.16-1.95c1.13,0.41,1.07,1.86,0.93,2.91
		c-0.24,1.78,0.33,3.34,0.93,4.93c0.23,1.55-0.42,2.94-0.84,4.37C80.95,23.18,80.95,24.84,79.07,24.68z"/>
	<path class="st13" d="M44.03,101.29c1.57,0.74,1.95-0.32,2.27-1.49c0.28-0.26,0.35-0.75,0.83-0.79c2.43,1.24,3.47,4.07,5.98,5.22
		c-0.81,1.02-2.02,1.06-3.15,1.3c-1.65-0.36-3.32-0.72-5.01-0.47c-2.1,0.31-2.97-0.51-2.67-2.59c0.14-0.88,0.28-1.75,0.42-2.63
		C44.02,99.53,43.38,101,44.03,101.29z"/>
	<path class="st14" d="M82.16,17.99c-1.42-1.84-1.42-1.84-1.67-7.65c-0.87,0.84-0.56,2.57-2.1,2.38c-1.07-1.15-1.21-2.5-0.85-3.96
		c0.23-0.44,0.46-0.87,0.69-1.31c2.11-1.76,4.3-0.39,6.47-0.16c0.1,0.33,0.13,0.66,0.11,1.01c-0.26,1.33-0.54,2.65-1.09,3.89
		c-0.33,0.76-0.59,1.54-0.65,2.38c-0.1,1.03-0.01,2.09-0.53,3.04C82.41,17.74,82.28,17.87,82.16,17.99z"/>
	<path class="st15" d="M22.32,72.41c0.28-0.83,0.57-1.66,0.85-2.5c1.08-0.18,1.66,0.78,2.53,1.07c0.97,0.41,1.91,0.42,2.83-0.13
		c0.57-0.32,1.15-0.58,1.82-0.27c0.18,0.79,0.46,1.48,1.49,1.36c0.82,0.47,2.2,0.48,1.73,2.04c-2.17,0.83-4.37,1.54-6.67,1.94
		C24.62,75.73,23.41,74.15,22.32,72.41z"/>
	<path class="st9" d="M74.29,98.91c0.38,1.53,0.75,3.05,1.13,4.58c-1.95,1.29-3.89,2.68-5.9,0.1c-0.22-1.82-0.07-3.6,0.72-5.28
		C71.66,97.98,73.16,97.24,74.29,98.91z"/>
	<path class="st16" d="M30.61,55.16c-0.52-0.93-0.87-1.9-0.74-2.98l0-0.01c-1.92-1.08-3.33,1.22-5.16,0.77
		c0.22-1.15,1.2-1.55,2.11-1.73c2.53-0.5,2.96-2.05,2.39-4.23c0.37-0.44,0.84-0.48,1.35-0.35c0.99,0.37,1.37,1.7,2.64,1.63
		c0.67,0.11,1.19,0.43,1.51,1.04c0.17,0.48,0.16,0.95,0.02,1.43c-0.5,0.97-1.01,1.94-0.64,3.1c0.04,0.49-0.04,0.95-0.32,1.37
		C32.71,55.54,31.66,55.94,30.61,55.16z"/>
	<path class="st15" d="M134.37,52.92c-0.25-0.25-0.5-0.5-0.74-0.76c-0.45-0.52-0.45-1.05-0.05-1.6c0.61-2.21-0.94-3.89-1.42-5.83
		c0.63-0.64,0.15-1.55,0.54-2.25c0.61-0.42,1.21-0.2,1.82-0.01c0.75,0.65,1.74-0.65,2.46,0.29c0.29,0.6,0.28,1.21,0.07,1.83
		c-0.28,0.63-0.67,1.26,0.08,1.86c0.77,0.77,1.32,1.69,1.89,2.6c0.22,0.7-0.06,1.23-0.54,1.71c-0.26,0.18-0.54,0.3-0.85,0.36
		c-0.76,0.02-1.41,0.53-2.18,0.52c-0.31-0.16-0.68-0.29-0.47-0.77c-0.55,0.38,0.12,0.86-0.1,1.27
		C134.78,52.45,134.61,52.71,134.37,52.92z"/>
	<path class="st10" d="M16.33,89.21c-2.39,3.54,2.02,2.5,2.7,3.98c-0.05,1.49-2.53,2.77-0.37,4.44c-1.4,1.99-3.36,1.37-3.81-0.2
		c-0.81-2.79-2.35-5.74-0.71-8.81l0.02,0.01C14.99,88.4,15.98,87.66,16.33,89.21z"/>
	<path class="st17" d="M136.59,42.55c-0.68,0.38-1.11,1.53-2.17,0.69c-1.37-1.6-1.74-3.36-0.86-5.32c1-1.72,2.56-2.29,4.45-2.19
		c1.65-0.61,2.06,0.03,1.41,1.5c-0.51,1.18-1.72,1.99-1.83,3.4C137.41,41.35,137.23,42.07,136.59,42.55z"/>
	<path class="st0" d="M94.64,50.03c0.34,0.72,0.69,1.44,1.03,2.16c1.08,2.16,2.72,4.29,0.47,6.69c-0.66,2.52-1.34,5.04-1.34,7.67
		c0,0.83,0.2,1.86-1.25,1.32c-0.28-1.56,1.05-2.96,0.47-4.55c-0.4-0.48-0.33-1.02-0.2-1.57c0.41-1.4,0.03-2.96,0.86-4.28
		c0.42-1.84-1.17-3.44-0.64-5.29C93.77,51.34,93.05,50.37,94.64,50.03z"/>
	<path class="st12" d="M29.91,37.37c1.43-1.5,3.21-1.87,5.19-1.57c1.24,2.42-2.04,3.31-1.82,5.39c-0.34,1.21-0.89,2.28-1.97,3.02
		c-0.38,0.05-0.73-0.03-1.04-0.25c-0.56-0.56-0.91-1.23-1.1-2C29.05,40.37,29.07,38.81,29.91,37.37z"/>
	<path class="st18" d="M112.91,91.53c-0.66-0.76-1.78-1.1-2.31-0.48c-2.04,2.43-0.4,5.34-0.27,7.89c0.1,1.89,2.81,2.38,4.79,0.83
		c1.16,0.3,1.71,1.01,0.32,1.51c-1.1,0.4-2.47,0.24-3.68,0.06c-1.91-0.29-4.28-6.24-3.37-9.22c0.86-2.79,3.04-2.31,5.12-1.26
		C113.74,91.46,113.52,91.67,112.91,91.53z"/>
	<path class="st19" d="M92.55,94.6c-1.42-6.33-0.73-12.7-0.37-19.06c0.02-0.35,0.67-0.67,1.02-1.01c0,3.23,0.01,6.47,0.01,9.7
		C92.33,87.65,93.56,91.2,92.55,94.6z"/>
	<path class="st20" d="M84.34,8.27c0.05-0.22,0.07-0.44,0.07-0.67c0.43-0.68,0.09-1.61,0.71-2.23c1.83,0.19,3.27,0.9,3.84,2.8
		c-0.39,1.28,0.06,2.92-1.57,3.68c-1.19,0.3-2.32,0.33-3.26-0.63C83.99,10.22,83.76,9.21,84.34,8.27z"/>
	<path class="st14" d="M85.12,5.37c0.65,1.03,0.32,1.74-0.71,2.23c-2.09,1.17-4.12-0.41-6.19-0.14C79.8,4.39,82.22,4.08,85.12,5.37z
		"/>
	<path class="st21" d="M26.9,75.92c2.08-1.13,4.26-1.94,6.63-2.16c0.39-0.43,0.89-0.51,1.43-0.43c1.4,0.65,2.88,1.05,4.38,1.4
		c0.5,0.22,0.89,0.57,1.16,1.04c0.13,0.36,0.06,0.68-0.19,0.96c-2.05-0.17-4.02,0.21-5.99,0.71c0.3-0.84,1.21-1.95-0.65-2.02
		c-1.95-0.07-3.94-0.12-5.44,1.5C27.79,76.6,27.35,76.26,26.9,75.92z"/>
	<path class="st22" d="M14.13,88.61c0.28,2.52,0.44,5.07,0.87,7.57c0.38,2.26,1.72,2.78,3.66,1.45c0.51,0.21,0.94,0.69,0.51,1.07
		c-1.53,1.38-5.17,0.46-5.37-1.51c-0.23-2.2-0.86-4.26-1.32-6.38C12.25,89.79,12.49,88.51,14.13,88.61z"/>
	<path class="st23" d="M42.28,102.48c0.37,1.15,0.55,2.53,2.36,1.99c1.87-0.56,3.6,0.34,5.4,0.52c1.21-0.37,2.42-0.69,3.57,0.18
		c-3.58,2.68-7.27,0.29-10.88,0.1C41.49,105.2,41.75,103.55,42.28,102.48z"/>
	<path class="st24" d="M112.91,91.53c0.2-0.22,0.4-0.45,0.61-0.67c3.73,1.25,7.46,2.49,11.19,3.74c-0.76,0.54-1.52,0.51-2.29,0.03
		c-2.26,0.14-4.24-0.76-6.23-1.62c-1.12-0.49-2.33-1.25-2.69,0.8C112.47,93.26,112.69,92.39,112.91,91.53z"/>
	<path class="st25" d="M88.07,11.24c-0.64-1.29-0.26-2.3,0.89-3.07c2.31,3.29,1.46,6.54-0.11,9.79c-0.82-0.56-1.24-1.43-1.71-2.26
		C87.36,14.2,88.57,12.9,88.07,11.24z"/>
	<path class="st26" d="M40.44,46.33c-0.48,1.14-0.96,2.29-1.43,3.43c0.28,0.58,0.31,1.16,0,1.73c-3.32,0.48-3.58,0.18-3.01-3.44
		c0.73-1.12,1.74-1.96,2.74-2.82c0.55-0.24,1.1-0.22,1.63,0.07C40.64,45.62,40.66,45.97,40.44,46.33z"/>
	<path class="st27" d="M77.53,8.77c0.28,1.32,0.56,2.64,0.85,3.96c-1.65,2.05,0.29,4.15-0.09,6.22
		C75.81,15.72,75.52,12.33,77.53,8.77z"/>
	<path class="st14" d="M143.34,37.28c2.72,2.35,2.42,5.2,1.36,8.17c-1.46,0.03-1.41-1.27-1.87-2.11c-0.2-0.64-0.22-1.3-0.16-1.97
		c0.22-1.12-0.76-2.08-0.45-3.22C142.46,37.67,142.81,37.37,143.34,37.28z"/>
	<path class="st28" d="M97.03,52.91c0-0.24,0.01-0.48,0.01-0.72c0.23-0.34,0.47-0.34,0.71-0.01c1.06,1.62,1.65,3.42,2.04,5.3
		c-0.25,0.65,0.01,1.59-1.02,1.8c-1.16,0.03-1.84-0.55-2.07-1.67C96.96,56.06,96.06,54.42,97.03,52.91z"/>
	<path class="st29" d="M40.44,46.33c-0.05-0.28-0.1-0.57-0.15-0.85c-1.62-2.15-0.68-4.75-1.23-7.09c0.05-0.42,0.22-0.79,0.51-1.1
		C42.61,40.04,42.59,43.08,40.44,46.33z"/>
	<path class="st16" d="M93.36,29.1c-1.1-0.67-1.32-1.82-1.61-2.94c-0.94-0.76-1.37-1.75-1.41-2.94c0.01-0.58,0.16-1.11,0.53-1.56
		c1.07-0.54,1.69,0.37,2.47,0.77c0.01,0.38,0.02,0.76,0.03,1.14C93.84,25.41,93.86,27.26,93.36,29.1z"/>
	<path class="st7" d="M41.12,69.31c0.87,0.58,1.59,1.47,1.44,2.42c-0.49,3.11,1.38,3.85,3.83,4.15c-0.12,0.14-0.24,0.28-0.35,0.41
		c-1.83-0.19-4.12,1.08-5.2-1.58c-0.15-0.32-0.26-0.66-0.36-1c-0.17-0.68-0.23-1.38-0.23-2.08c0.01-0.7,0.09-1.38,0.47-1.99
		C40.85,69.52,40.99,69.42,41.12,69.31z"/>
	<path class="st30" d="M85.04,59.53c2.45-0.8,5-0.39,7.5-0.7c-0.35,0.58-0.9,0.83-1.55,0.8c-2.72-0.11-4.82,0.61-5.17,3.74
		C85.15,62.17,84.99,60.87,85.04,59.53z"/>
	<path class="st31" d="M125.16,99.9c2.35,0.59,4.74,0.77,7.16,0.73C130.19,103.07,127.6,102.81,125.16,99.9z"/>
	<path class="st32" d="M97.03,52.91c0.02,1.74,0.04,3.48,0.05,5.23c0.54,0.93,0.97,1.89,0.93,3c0.02,1.1-0.14,2.14-0.98,2.96
		c-1.32-1.56-0.37-3.51-0.89-5.21c-0.16-2.23-0.32-4.46-0.47-6.69C96.12,52.44,96.58,52.67,97.03,52.91z"/>
	<path class="st33" d="M73.87,53.68c0.45,2.73-0.8,5.63,0.78,8.26c0.37,0.59,0.19,1.22,0.14,1.85c-0.1,0.79-0.12,1.6-0.57,2.31
		c-0.13,0.1-0.26,0.19-0.39,0.29c-1.54-4.17-0.47-8.47-0.69-12.71C73.39,53.32,73.63,53.33,73.87,53.68z"/>
	<path class="st34" d="M136.62,40.23c-0.02-1.38,1.02-2.11,1.86-2.93c0.91-0.89,0.75-1.37-0.47-1.57c1.76-0.92,3.32-0.52,4.74,0.73
		c-0.3,0.66-0.89,1-1.47,1.35C139.56,38.29,138.84,40.69,136.62,40.23z"/>
	<path class="st35" d="M69.51,103.58c1.99,1.26,3.94,0.39,5.91-0.1c1.3,2.23-0.83,1.68-1.61,1.73
		C72.2,105.33,69.79,107.08,69.51,103.58z"/>
	<path class="st34" d="M32.84,41c-1.36-2.65,2.72-2.94,2.26-5.2c1.29-0.1,2.62-0.43,3.63,0.76c-0.67,0.86-1.82,1.11-2.53,1.93
		C35.1,39.35,34.36,40.7,32.84,41z"/>
	<path class="st36" d="M147.09,71.48c0.55,2.33,1.96,3.3,4.41,3.08c1.29-0.11,2.72-0.24,3.9,0.63c-0.33,0.33-0.73,0.48-1.2,0.42
		c-2.44-0.17-4.91,0.39-7.33-0.33C146,73.96,145.95,72.69,147.09,71.48z"/>
	<path class="st37" d="M92.55,94.6c0.33-3.45-0.7-6.98,0.66-10.37c0.01,3.46,0.02,6.92,0.02,10.38c0,0-0.34,0-0.34,0L92.55,94.6z"/>
	<path class="st26" d="M28.3,45.57c-1.24-2.03-0.57-3.99,0.22-5.95c1.99,0.71,0.33,2.62,1.23,3.69
		C29.71,44.34,29.97,45.57,28.3,45.57z"/>
	<path class="st37" d="M82.18,63.55c0.34-3.44-1.81-4.03-4.54-3.94c-0.19-0.33-0.17-0.65,0.07-0.94c1.95,0.3,3.9,0.6,5.85,0.9
		C83.27,60.95,83.16,62.4,82.18,63.55z"/>
	<path class="st38" d="M88.69,18.68c0.11,0.67,0.18,1.36,0.89,1.72c0.41,0.53,0.36,1.03-0.11,1.5c-2.25,0.4-3.68-0.39-4.01-2.75
		c0.15-0.56,0.54-0.82,1.09-0.88C87.21,18.62,88,18.39,88.69,18.68z"/>
	<path class="st30" d="M29.86,92.3c-2.22,1.79-3.93-0.81-5.96-0.69c-0.04-1.42,0.77-1.11,1.58-0.77
		C27.14,90.73,28.33,92.03,29.86,92.3z"/>
	<path class="st27" d="M73.86,32.11c0.01,3.2,0.01,6.41,0.02,9.61c-0.73,0.2-1.07-0.02-0.85-0.82c0.02-2.66,0.03-5.32,0.05-7.98
		C72.78,32.11,73.16,31.95,73.86,32.11z"/>
	<path class="st25" d="M74.29,98.91c-1.21-1.14-2.67-0.65-4.06-0.61c-0.19-1.07-0.15-2.09,0.64-2.96c0.26-0.35,0.51-0.35,0.77,0
		c-0.08,1.08-0.79,2.59,1.43,2.15c0.34-0.2,0.48-0.56,0.72-0.85c0.26-0.09,0.48-0.03,0.65,0.18C74.39,97.52,74.34,98.22,74.29,98.91
		z"/>
	<path class="st21" d="M143.32,48.44c0,0.5,0,1,0.01,1.5c0.03,0.45,0.07,0.89,0.04,1.34c0,0.31-0.03,0.62-0.07,0.93
		c-0.19,0.81-0.35,1.65-1.48,1.61c-0.62-0.4-0.96-1.01-1.24-1.67c-0.12-0.35-0.19-0.71-0.23-1.08c-0.02-1.2,0.31-2.23,1.39-2.91
		C142.32,47.97,142.85,48.03,143.32,48.44z"/>
	<path class="st39" d="M43.28,81.96c1.06-1.05,2.42-1.21,3.1,0.04c0.66,1.22-0.42,2.24-1.52,2.93c-0.27-0.77,0.29-1.84-0.82-2.32
		C43.69,82.5,43.44,82.28,43.28,81.96z"/>
	<path class="st11" d="M73.03,40.91c0.28,0.27,0.57,0.55,0.85,0.82c0,2.5,0,5,0,7.5c-0.45,0.41-0.9,0.42-1.35,0
		c0-0.27,0-0.55-0.01-0.82c0.46-1.94,0.35-3.89,0.07-5.84C72.48,41.94,72.44,41.34,73.03,40.91z"/>
	<path class="st11" d="M38.79,51.42c0.07-0.56,0.15-1.11,0.22-1.67c0.96,0.45,2.11,0.62,2.6,1.76c-0.51,0.93,0.45,2.04-0.37,2.93
		c-1.12,0.46-1.48-0.45-1.98-1.1C38.93,52.75,38.71,52.12,38.79,51.42z"/>
	<path class="st26" d="M97.03,64.1c0.01-0.99,0.02-1.99,0.03-2.98c0.76-0.75,1.5-0.4,2.23,0.05c0.24,0.22,0.47,0.46,0.69,0.7
		C99.37,63.09,98.91,64.52,97.03,64.1z"/>
	<path class="st40" d="M143.32,48.44c-0.48-0.01-0.97-0.01-1.45-0.02c-0.44-0.66-0.24-1.34-0.1-2.02c0.4-1.13,0.51-2.42,1.64-3.17
		c0.43,0.74,0.86,1.48,1.29,2.22C144.24,46.45,143.78,47.44,143.32,48.44z"/>
	<path class="st37" d="M73.9,96.85c-0.28,0.22-0.55,0.43-0.83,0.65c0.74-2.64-1.26-5.77,1.46-8.05c-0.03,0.51-0.06,1.02-0.09,1.53
		C73.87,92.9,74.79,94.96,73.9,96.85z"/>
	<path class="st37" d="M44.02,87.12c0.02,0.3,0.03,0.6,0.05,0.89c0.54,2.7,0.53,5.4,0.01,8.1l-0.03-0.01
		c-0.2,0.33-0.41,0.33-0.63,0.02C43.56,93.12,42.68,90.04,44.02,87.12z"/>
	<path class="st19" d="M20.14,90.15c-1.03-0.12-2.22,0.37-2.96-0.81c0.1-0.43,0.35-0.71,0.78-0.8c1.8,0.36,3.62,0.64,5.24,1.58
		C22.19,90.71,21.17,90.67,20.14,90.15z"/>
	<path class="st41" d="M156.8,100.7c-1.96,1.17-1.21-1.34-2.14-1.56c0.24-1.49,0.47-2.99,0.71-4.48
		C157.04,96.39,154.94,99.02,156.8,100.7z"/>
	<path class="st37" d="M72.53,49.23c0.45,0,0.9,0,1.35,0c0,1.48-0.01,2.97-0.01,4.45c-0.24-0.01-0.49-0.01-0.73-0.01
		C72.06,52.31,72.43,50.75,72.53,49.23z"/>
	<path class="st42" d="M35.84,63.35c1.95-0.58,3.91-1.23,5.38,0.93c0.04,0.18,0,0.34-0.12,0.48c-0.23,0.28-0.53,0.43-0.9,0.45
		c-1.06-0.11-2.11-0.21-3.16-0.4C36.37,64.55,35.58,64.38,35.84,63.35z"/>
	<path class="st34" d="M48.55,90.95c-0.6-2.3,0.17-4.24,1.62-5.99C50.16,87.1,49.87,89.17,48.55,90.95z"/>
	<path class="st21" d="M35.82,38.01c0.57-1.28,1.66-1.54,2.92-1.44c0.28,0.24,0.55,0.48,0.83,0.72c-0.02,0.25-0.03,0.51-0.05,0.76
		c-0.19,0.24-0.41,0.43-0.68,0.57c-0.71,0.27-1.42,0.52-2.2,0.4C36.19,38.83,35.89,38.51,35.82,38.01z"/>
	<path class="st3" d="M133.55,37.92c0.29,1.77,0.57,3.55,0.86,5.32c-0.5-0.25-1-0.5-1.5-0.75c-0.76-0.56-0.12-1.54-0.65-2.16
		C132.38,39.36,132.78,38.54,133.55,37.92z"/>
	<path class="st37" d="M129.95,88.68c1.07,1.5,1.04,2.98-0.06,4.45c-0.2,0.36-0.4,0.35-0.61,0
		C128.86,91.55,129.41,90.11,129.95,88.68z"/>
	<path class="st37" d="M156.08,83.47c1.3,1.75,0.69,3.47-0.07,5.19c-0.2,0.34-0.41,0.32-0.61,0.01
		C155.03,86.85,155.81,85.19,156.08,83.47z"/>
	<path class="st43" d="M71.64,95.35c-0.26,0-0.51,0-0.77,0c0.05-2.48,0.09-4.96,0.14-7.44c0.2-0.34,0.41-0.32,0.62,0
		C71.63,90.38,71.63,92.87,71.64,95.35z"/>
	<path class="st12" d="M133.68,85.69c1.67,0.06,3.35,0.12,5.02,0.18c-0.26,0.92-0.52,1.84-0.79,2.75c-0.17,0.33-0.35,0.32-0.54,0.02
		C137.87,85.51,134.55,87.14,133.68,85.69z"/>
	<path class="st43" d="M160.49,83.45c-0.21-2.24,0.49-4.58-0.76-6.7c0.25-0.29,0.5-0.28,0.75,0c1.47,2.11,0.71,4.44,0.64,6.7
		C160.91,83.75,160.7,83.75,160.49,83.45z"/>
	<path class="st39" d="M148.56,82.66c1.62-1.07,3.12-2.58,5.32-1.35C152.18,82.02,150.61,83.28,148.56,82.66z"/>
	<path class="st44" d="M29.15,43.23c-0.22-1.2,0.43-2.56-0.63-3.61c0.17-0.93,0.46-1.78,1.4-2.24c-0.01,1.7-0.02,3.4-0.03,5.1
		C30.19,43.26,29.81,43.39,29.15,43.23z"/>
	<path class="st17" d="M88.69,18.68c-0.46,0.1-0.93,0.82-1.37-0.03c-0.72-0.99-0.86-1.96,0.06-2.92c1.57,0.03,1.4,1.21,1.48,2.22
		C88.8,18.2,88.74,18.44,88.69,18.68z"/>
	<path class="st33" d="M41.03,54.44c0.16-0.98-0.31-2.09,0.58-2.93c1.06,1.7,0.48,3.44,0.17,5.18c-0.27-0.49-0.53-0.99-0.8-1.48
		c-0.19-0.19-0.24-0.36-0.16-0.53C40.89,54.52,40.96,54.44,41.03,54.44z"/>
	<path class="st11" d="M29.15,43.23c0.25-0.25,0.49-0.5,0.74-0.75c0.24,0.5,0.49,1.01,0.73,1.51c0.12,1,0.6,2.01-0.08,2.99
		c-0.45,0-0.89,0-1.34-0.01c-0.3-0.47-0.6-0.94-0.91-1.41C29.22,45.02,29.08,44.09,29.15,43.23z"/>
	<path class="st45" d="M38.78,86.43c0-0.48,0-0.96,0-1.44c-0.41-0.52-0.41-1.03,0.04-1.53c0.93-0.5,1.89-0.87,2.97-0.75
		c0.18,0.15,0.24,0.3,0.18,0.44c-0.06,0.15-0.12,0.22-0.18,0.22c-1.61,0.38-1.9,1.75-2.3,3.04C39.26,86.66,39.02,86.68,38.78,86.43z
		"/>
	<path class="st46" d="M87.34,69.3c1.14,1.97,1.13,3.95,0.06,5.94c-0.22-1.74-0.44-3.48-0.66-5.22
		C86.84,69.69,87.04,69.45,87.34,69.3z"/>
	<path class="st36" d="M133.58,50.57c0.02,0.53,0.03,1.06,0.05,1.6c-1.41-0.13-2.72,0.25-4.03,0.72
		C130.14,50.77,132.05,50.99,133.58,50.57z"/>
	<path class="st30" d="M73.09,73.72c1,1.91,0.2,3.29-1.3,4.48C71.92,76.62,72.16,75.07,73.09,73.72z"/>
	<path class="st40" d="M71.62,87.9l-0.31,0c0,0-0.31,0-0.31,0c0.01-2.22,0.02-4.44,0.04-6.66C72.31,83.37,71.43,85.68,71.62,87.9z"
		/>
	<path class="st47" d="M88.08,83.45c1.09,1.25,1.13,2.49,0,3.74c-0.94-1.13-0.81-2.43-0.6-3.75C87.69,83.1,87.89,83.08,88.08,83.45z
		"/>
	<path class="st34" d="M87.45,76.02c2.24,0.88,1.6,2.27,0.66,3.72c-0.31-0.15-0.52-0.38-0.61-0.72
		C87.49,78.02,87.47,77.02,87.45,76.02z"/>
	<path class="st12" d="M31.35,87.91c-0.5,1.49,1.23,3.76-1.55,4.46c0.5-1.79,1-3.58,1.49-5.38C31.69,87.27,31.71,87.58,31.35,87.91z
		"/>
	<path class="st48" d="M160.48,76.75l-0.37,0c0,0-0.37,0-0.37,0c-0.49,0-0.99-0.01-1.48-0.01c-1.12-0.89-2.61,0.13-3.74-0.73l0-0.01
		c-0.24-0.14-0.32-0.28-0.25-0.43c0.08-0.15,0.15-0.22,0.23-0.22c0.3-0.05,0.59-0.1,0.89-0.15
		C157.26,75.17,159.14,75.08,160.48,76.75z"/>
	<path class="st49" d="M122.41,94.62c0.76-0.01,1.53-0.02,2.29-0.03c0.98,0.05,1.72,0.51,2.26,1.31c0.3,0.34,0.27,0.66-0.08,0.95
		C125.4,96.11,123.91,95.37,122.41,94.62z"/>
	<path class="st39" d="M74.81,88.06c-0.49-1.77-0.55-3.41,1.23-4.57C75.9,85.08,75.62,86.64,74.81,88.06z"/>
	<path class="st38" d="M94.72,33.55c-0.47,0-0.93,0-1.4,0c0.27-1.3,0.55-2.59,0.82-3.89C95.04,30.85,94.86,32.2,94.72,33.55z"/>
	<path class="st37" d="M25.42,96.09c2.15-0.83,2.57,0.64,2.94,2.19C27.22,97.76,25.81,97.61,25.42,96.09z"/>
	<path class="st48" d="M20.14,90.15c1.02-0.01,2.04-0.02,3.07-0.03c0.83,0.03,1.68-0.02,2.28,0.73c-0.63,0.05-1.23,0.15-1.58,0.77
		C22.81,90.72,21.13,91.31,20.14,90.15z"/>
	<path class="st1" d="M73.9,96.85c0.23-1.96-0.59-4.01,0.54-5.88c0,1.95,0,3.91,0,5.86C74.25,96.85,74.07,96.86,73.9,96.85z"/>
	<path class="st48" d="M73.86,32.11c-0.26,0.27-0.52,0.54-0.78,0.81c-0.75-1.31-0.78-2.62-0.02-3.94c0.46,0.1,0.52,0.57,0.8,0.84
		C73.86,30.58,73.86,31.35,73.86,32.11z"/>
	<path class="st31" d="M33.75,97.69c-0.39-1.85,0.83-2.83,2.05-3.82C35.76,95.48,35.02,96.73,33.75,97.69z"/>
	<path class="st25" d="M115.89,96.05c-0.07-0.48-0.13-0.96-0.2-1.43c1.52,0.23,2.88,0.74,3.71,2.16
		C118.23,96.54,117.06,96.3,115.89,96.05z"/>
	<path class="st50" d="M43.41,96.12c0.21-0.01,0.42-0.02,0.63-0.02c0,1.73-0.01,3.46-0.01,5.2c-0.44-0.48-0.89-0.96-1.33-1.44
		C42.94,98.61,43.17,97.36,43.41,96.12z"/>
	<path class="st15" d="M50.85,78.29c-1.47-0.64-2.8-1.72-4.55-1.54c-0.22-0.11-0.32-0.25-0.28-0.42c0.04-0.18,0.09-0.27,0.15-0.27
		c0,0,0.22-0.18,0.22-0.18C48.21,76.06,50.31,75.74,50.85,78.29z"/>
	<path class="st51" d="M78.4,73.8c-0.86-1.94-0.17-3.38,1.46-4.51C79.8,70.92,79.1,72.36,78.4,73.8z"/>
	<path class="st26" d="M87.34,69.3c-0.2,0.24-0.4,0.48-0.6,0.72c-0.26-1.46-0.52-2.93-0.78-4.39C88.25,66.16,87.02,68.02,87.34,69.3
		z"/>
	<path class="st26" d="M72.59,42.57c0.86,1.96,0.98,3.9-0.07,5.84C72.55,46.46,72.57,44.51,72.59,42.57z"/>
	<path class="st31" d="M96.24,39.53c-2.05-0.72-1.98-2.19-1.36-3.85C95.75,36.82,95.98,38.18,96.24,39.53z"/>
	<path class="st38" d="M93.33,22.43c-0.75-0.25-1.51-0.5-2.26-0.75c-1.11,0.11-1.27-0.35-0.74-1.22
		C91.92,20.22,92.84,20.99,93.33,22.43z"/>
	<path class="st25" d="M77.4,20.8c0.31,0.31,0.61,0.63,0.92,0.94c-1.18,0.22-2.37,0.44-3.55,0.66C75.12,21.01,76.14,20.7,77.4,20.8z
		"/>
	<path class="st12" d="M73.86,29.82c-0.27-0.28-0.53-0.56-0.8-0.84c0.18-1.5-0.57-3.16,0.82-4.43
		C73.87,26.3,73.87,28.06,73.86,29.82z"/>
	<path class="st14" d="M146.18,57.3c-0.23-0.45-0.46-0.9-0.69-1.35c-0.26-0.26-0.45-0.58-0.58-0.93c-0.22-0.93-0.18-1.84,0.32-2.68
		c0.27-0.3,0.59-0.36,0.94-0.15C146.57,53.9,146.37,55.6,146.18,57.3z"/>
	<path class="st16" d="M145.69,69.3c0.41,0.51,0.82,1.02,1.23,1.54c-0.83,0.79,0.83,2.94-1.58,2.87c-0.88-1.32-0.84-2.66-0.13-4.02
		C145.37,69.55,145.53,69.42,145.69,69.3z"/>
	<path class="st33" d="M146.17,52.2c-0.18,0-0.37,0-0.55-0.01c-0.62,0.5-1.13,0.08-1.66-0.19c-0.51-0.32-0.87-0.82-1.33-1.2
		c0.23-0.28,0.46-0.57,0.69-0.85C144.7,50.16,145.86,50.65,146.17,52.2z"/>
	<path class="st48" d="M38.78,86.43c0.24,0,0.47-0.01,0.71-0.02c-0.09,1.17-0.5,2.21-1.29,3.08C37.3,88.27,38.03,87.35,38.78,86.43z
		"/>
	<path class="st12" d="M145.58,73.73c1.26-0.59,0.23-2.23,1.33-2.9c0.13,0.2,0.19,0.41,0.17,0.65c-0.01,1.26-0.02,2.52-0.03,3.78
		c-0.26,0.24-0.55,0.28-0.87,0.11C145.78,74.91,145.15,74.52,145.58,73.73z"/>
	<path class="st22" d="M17.97,88.54c-0.26,0.27-0.52,0.53-0.78,0.8c-0.28-0.04-0.57-0.09-0.85-0.13c-0.59-0.69-1.43-0.48-2.18-0.6
		C15.41,87.77,16.68,87.86,17.97,88.54z"/>
	<path class="st17" d="M93.36,29.1c0-1.85,0-3.69,0-5.54c1.38,1.75,0.66,3.75,0.7,5.66C93.82,29.17,93.59,29.13,93.36,29.1z"/>
	<path class="st31" d="M18,69.27c2.16-0.8,2.56,0.68,2.91,2.23C19.63,71.16,18.79,70.25,18,69.27z"/>
	<path class="st40" d="M145.6,64.17c0.03,1.71,0.06,3.42,0.09,5.13c0,0-0.31,0.03-0.31,0.03c-0.43,0.16-0.75,0.04-0.98-0.35
		c-0.65-1.54-0.66-3.07,0.01-4.6c0.25-0.38,0.58-0.49,1-0.31L145.6,64.17z"/>
	<path class="st31" d="M123.34,70c2.17-0.81,2.43,0.78,2.83,2.22C124.93,71.85,124.01,71.09,123.34,70z"/>
	<path class="st27" d="M97.75,52.18l-0.35,0.01c0,0-0.36,0-0.36,0c0.01-1.53,0.02-3.05,0.02-4.58
		C98.38,48.97,97.83,50.61,97.75,52.18z"/>
	<path class="st47" d="M137.38,88.64c0.18-0.01,0.36-0.02,0.54-0.02c-0.38,1.05-0.76,2.1-1.14,3.15
		C135.82,90.51,136.51,89.56,137.38,88.64z"/>
	<path class="st17" d="M87.51,79.02c0.2,0.24,0.4,0.48,0.61,0.72c-0.01,1.24-0.02,2.47-0.03,3.71c0,0-0.3-0.01-0.3-0.01
		s-0.3,0-0.3,0C87.49,81.97,87.5,80.49,87.51,79.02z"/>
	<path class="st30" d="M143.93,83.48c0.05-0.51,0.1-1.02,0.15-1.52c1.01,0.26,2.01,0.52,3.02,0.78
		C146.25,83.86,145.07,83.57,143.93,83.48z"/>
	<path class="st48" d="M135.14,96.21c-0.05-1.47-0.32-3.02,1.43-3.83C136.53,93.82,136.09,95.1,135.14,96.21z"/>
	<path class="st30" d="M96.97,43.25c-1.67-0.39-1.82-1.17-0.59-2.3C97.01,41.61,97.1,42.4,96.97,43.25z"/>
	<path class="st36" d="M130.64,83.97c0.49,0.33,0.97,0.65,1.46,0.98c-0.7,0.48-1.4,0.97-2.1,1.45
		C129.9,85.52,129.98,84.67,130.64,83.97z"/>
	<path class="st21" d="M31.35,87.91c-0.02-0.31-0.04-0.61-0.06-0.92c-0.01-0.65-0.03-1.29-0.04-1.94c0.49-0.09,0.99-0.19,1.48-0.28
		c0.37,0.27,0.41,0.59,0.14,0.96C32.36,86.45,31.86,87.18,31.35,87.91z"/>
	<path class="st52" d="M90.33,20.45c0.25,0.41,0.49,0.82,0.74,1.22c-0.01,0.49-0.02,0.99-0.03,1.48c-0.29,0.26-0.63,0.35-1.01,0.3
		c-0.79-0.42-1.05-0.99-0.52-1.79c0.02-0.42,0.04-0.84,0.06-1.26C89.83,20.41,90.08,20.43,90.33,20.45z"/>
	<path class="st50" d="M159.01,98.91c-0.25,0.05-0.5,0.11-0.75,0.16c0.24-1.48-0.64-3.14,0.72-4.45
		C158.99,96.05,159,97.48,159.01,98.91z"/>
	<path class="st53" d="M47.13,99.02c-0.28,0.26-0.56,0.53-0.83,0.79c0.16-1.48-0.55-3.1,0.7-4.41
		C47.04,96.6,47.09,97.81,47.13,99.02z"/>
	<path class="st34" d="M15.64,62.48c-0.56,1.19-0.82,2.44-0.71,3.75C13.68,64.7,13.29,63.33,15.64,62.48z"/>
	<path class="st54" d="M126.89,96.86c0.03-0.32,0.05-0.63,0.08-0.95c0.69,0.01,1.38,0.03,2.07,0.04c0.43,0.26,0.47,0.57,0.1,0.92
		C128.39,97.84,127.64,97.77,126.89,96.86z"/>
	<path class="st43" d="M99.98,61.86c-0.23,0-0.45,0-0.68,0.01c-0.71-0.98-0.85-1.98-0.08-2.99c0.19-0.46,0.38-0.93,0.56-1.39
		C100.24,58.92,100.35,60.38,99.98,61.86z"/>
	<path class="st43" d="M141.08,37.26c0.37-0.66,1.03-0.71,1.67-0.8c0.2,0.27,0.4,0.54,0.6,0.82c-0.22,0.25-0.44,0.5-0.65,0.75
		c-0.47,0.45-0.99,0.48-1.55,0.22C140.82,37.93,140.8,37.6,141.08,37.26z"/>
	<path class="st55" d="M114.85,99.07c-0.81-0.06-1.62-0.12-2.43-0.17c-0.03-0.15-0.06-0.29-0.1-0.44c0.85-0.28,1.71-0.57,2.56-0.85
		C114.87,98.1,114.86,98.59,114.85,99.07z"/>
	<path class="st34" d="M119.45,62.64c0,1.19-0.01,2.38-0.01,3.58C117.75,65.02,117.93,63.83,119.45,62.64z"/>
	<path class="st27" d="M132.26,40.32c0.78,0.55,0.57,1.4,0.65,2.16c-0.09,0.8,0.11,1.7-0.76,2.25
		C131.7,43.25,131.93,41.79,132.26,40.32z"/>
	<path class="st33" d="M40.32,64.82c0.26-0.02,0.52-0.04,0.78-0.06c0.01,1.51,0.02,3.03,0.02,4.54c0,0-0.12-0.04-0.12-0.04
		C38.61,68.12,39.26,66.5,40.32,64.82z"/>
	<path class="st27" d="M75.33,66.3c-0.84,1.12-0.22,2.78-1.43,3.76c-0.02-1.23-0.05-2.46-0.07-3.69c0,0,0.24-0.17,0.24-0.17
		C74.52,65.88,74.94,65.88,75.33,66.3z"/>
	<path class="st37" d="M160.49,83.45c0.21,0,0.42,0,0.63,0c-0.21,1-0.42,1.99-0.64,2.99C159.42,85.44,159.47,84.44,160.49,83.45z"/>
	<path class="st17" d="M155.4,88.66c0.2,0,0.41,0,0.61-0.01c-0.16,1.23,0.51,2.61-0.64,3.67C155.38,91.11,155.39,89.89,155.4,88.66z
		"/>
	<path class="st31" d="M41.79,83.37c-0.01-0.22,0-0.44,0.01-0.66c0.31-0.61,0.87-0.75,1.49-0.75c0.25,0.22,0.5,0.44,0.76,0.65
		C43.29,82.86,42.54,83.12,41.79,83.37z"/>
	<path class="st56" d="M99.79,101.25c-1.01-0.18-2.59,0.7-2.6-1.37C98.06,100.34,98.92,100.79,99.79,101.25z"/>
	<path class="st12" d="M88.85,91.64c1.13,1.18,1.02,2.41,0.14,3.67C88.94,94.08,88.89,92.86,88.85,91.64z"/>
	<path class="st26" d="M129.14,96.87c-0.03-0.31-0.07-0.61-0.1-0.92c0.08-0.94,0.16-1.88,0.24-2.82c0.2,0,0.4,0,0.61,0
		C129.75,94.39,130.37,95.81,129.14,96.87z"/>
	<path class="st9" d="M53.61,105.16c-1.19-0.06-2.38-0.12-3.57-0.18c0.83-1.06,2.03-0.57,3.07-0.74
		C53.28,104.55,53.45,104.86,53.61,105.16z"/>
	<path class="st43" d="M94.16,61.9c-0.04,0.48-0.09,0.96-0.13,1.43c-1.54-1.18,0.14-3.4-1.47-4.56c0.35-0.54,0.88-0.62,1.47-0.58
		C94.71,59.41,94.49,60.65,94.16,61.9z"/>
	<path class="st8" d="M92.67,49.1c-5.3,1.42-10.54,1.56-15.68-0.7c-0.58-0.49-0.49-1.04-0.13-1.61c0.51-0.38,1.09-0.51,1.72-0.48
		c4.21,1.57,8.52,1.01,12.83,0.63c0.4,0.08,0.77,0.25,1.11,0.49C92.96,47.95,93.03,48.51,92.67,49.1z"/>
	<path class="st45" d="M77.71,58.67c-0.02,0.31-0.05,0.63-0.07,0.94c-0.01,0.26-0.02,0.52-0.04,0.78c-0.59,0.62-0.59,2.92-2.16,0.75
		c-1.28-1.73,1.45-3.51-0.06-5.24c0.27-0.28,0.55-0.3,0.85-0.04C76.72,56.8,77.22,57.73,77.71,58.67z"/>
	<path class="st57" d="M92.67,49.1c-0.06-0.48-0.11-0.96-0.17-1.43c-1.24-1.29-1.96-2.64-0.44-4.22c0.17-0.06,0.34-0.13,0.51-0.19
		c0.98,1.34,1.07,2.96,1.39,4.51c-0.28,0.52-0.03,1.26-0.72,1.6C93.05,49.28,92.86,49.19,92.67,49.1z"/>
	<path class="st14" d="M76.23,55.86c-0.28,0.01-0.57,0.03-0.85,0.04c-1.15-1.71-1.15-3.42-0.03-5.15c0.83,0.88,0.08,2.08,0.63,3.01
		C76.06,54.47,76.15,55.17,76.23,55.86z"/>
	<path class="st58" d="M93.24,49.37c0.24-0.53,0.48-1.07,0.72-1.6c0.38,0.71,0.92,1.37,0.68,2.27c-0.77,0.56-0.46,1.42-0.59,2.16
		C93.22,51.41,93.28,50.37,93.24,49.37z"/>
	<path class="st3" d="M77.01,46.99C77,47.46,77,47.93,76.99,48.4c-0.14,0.62-0.18,1.29-0.9,1.57c-0.14,0.3-0.31,0.34-0.53,0.07
		c-0.04-1.47,0.41-2.76,1.4-3.86c0.08,0.13,0.17,0.26,0.25,0.39C77.14,46.71,77.08,46.85,77.01,46.99z"/>
	<path class="st1" d="M94.16,61.9c-0.05-1.23-0.09-2.47-0.14-3.7c0.22-0.24,0.45-0.48,0.67-0.71C94.73,58.99,95.03,60.51,94.16,61.9
		z"/>
	<path class="st59" d="M75.56,50.04c0.18-0.02,0.35-0.05,0.53-0.07c-0.03,1.27-0.07,2.53-0.1,3.8c-0.85-0.87-0.55-1.98-0.63-3.01
		C75.42,50.52,75.49,50.28,75.56,50.04z"/>
	<path class="st37" d="M32.87,85.73c-0.05-0.32-0.09-0.64-0.14-0.96c-0.04-0.19-0.03-0.37,0.04-0.55c0.26-0.28,0.53-0.28,0.82-0.06
		c1.81,0.28,3.51-0.32,5.23-0.7c-0.01,0.51-0.03,1.02-0.04,1.53C36.85,85.5,34.89,85.84,32.87,85.73z"/>
	<path class="st34" d="M46.17,76.06c0.07,0.22,0.12,0.45,0.14,0.68c-2,0-4,0-5.99,0c0-0.24,0.01-0.47,0.01-0.71
		c0-0.85-0.08-1.73,0.77-2.29C41.91,76.44,44.15,76.02,46.17,76.06z"/>
	<path class="st1" d="M33.59,84.16c-0.27,0.02-0.55,0.04-0.82,0.06c-0.99-2-0.25-3.76,0.73-5.5C33.53,80.54,33.56,82.35,33.59,84.16
		z"/>
	<path class="st36" d="M44.07,96.11c0-2.7,0-5.4-0.01-8.1C45.27,90.71,45.2,93.41,44.07,96.11z"/>
	<path class="st48" d="M146.29,75.23c0.26,0.01,0.51,0.02,0.77,0.03c2.48,0.03,4.96,0.05,7.45,0.08c0.01,0.22,0.02,0.44,0.02,0.65
		c-2.95,0.01-5.9,0.01-8.85,0.02c-0.03-0.25-0.06-0.49-0.09-0.74C145.79,74.93,146.03,74.93,146.29,75.23z"/>
	<path class="st32" d="M154.52,76.01c1.26,0.16,2.68-0.5,3.74,0.73C156.99,76.58,155.57,77.23,154.52,76.01z"/>
	<path class="st50" d="M75.45,61.14c1.09,0.8,1.5-0.33,2.16-0.75c0.33,1.56-0.19,2.79-1.48,3.7c-1.12,0.85-1.66,0.02-2.23-0.76
		c0.25-0.47,0.5-0.94,0.75-1.41C74.92,61.67,75.18,61.41,75.45,61.14z"/>
	<path class="st60" d="M73.9,63.34c0.74,0.25,1.48,0.5,2.23,0.76c-0.26,0.74-0.53,1.47-0.79,2.21c-0.42-0.03-0.84-0.06-1.26-0.09
		C74.01,65.25,73.96,64.3,73.9,63.34z"/>
	<path class="st61" d="M132.95,75.98c0.74-1.1,1.91-0.59,2.9-0.78c1.05-0.8,2.31-0.74,3.52-0.92c1.24-0.01,2.49-0.05,3.63,0.58
		c0.14,0.15,0.28,0.31,0.42,0.46C140.15,79.1,136.52,77.01,132.95,75.98z"/>
	<path class="st62" d="M146.29,75.23c-0.24,0.03-0.48,0.05-0.72,0.05c-0.72,0.02-1.44,0.03-2.16,0.05c0,0-0.11-0.27-0.11-0.27
		c-0.82-2.28-0.02-4.12,1.58-5.74c0.16,0,0.33,0,0.49,0.01c0.07,1.47,0.14,2.94,0.21,4.41C145.82,74.23,146.05,74.73,146.29,75.23z"
		/>
	<path class="st63" d="M30.52,70.72c-0.47,0.25-0.94,0.5-1.42,0.75c-1.2,0.76-2.45,0.46-3.7,0.19c-0.74-0.58-1.49-1.16-2.23-1.74
		c-1.17-2.13-3.71-3.52-3.53-6.39c0.05-1.4,1.39-1.62,2.17-2.36c0.7-0.7,1.4-1.39,2.1-2.09c1.26-1.07,2.23-0.83,2.91,0.66
		c0.25,0.49,0.5,0.98,0.75,1.47c1.53,1,1.91,2.74,2.77,4.18c0.38,0.78,0.74,1.56,0.94,2.41c0.16,0.89,0.16,1.77-0.33,2.58
		C30.8,70.5,30.66,70.61,30.52,70.72z"/>
	<path class="st18" d="M29.73,65.81c-0.72-1.53-1.44-3.07-2.16-4.6c1.8-0.34,2.73-1.75,3.77-3.03c0.73,0.37,1.11,1,1.36,1.74
		c0.11,1.26,0.48,2.54-0.11,3.78c-0.19,0.32-0.66,0.69-0.81,0.52c-1.93-2.05-1.09,0.33-1.39,0.85
		C30.25,65.39,30.04,65.64,29.73,65.81z"/>
	<path class="st16" d="M32.07,59.67c-0.25-0.5-0.49-0.99-0.74-1.49c-0.24-1.01-0.48-2.01-0.72-3.02c0.99-0.03,1.98-0.72,2.97,0
		c0.42,0.52,0.48,1.05,0.05,1.59c0,0.96-0.01,1.93-0.01,2.89C33.12,60.12,32.59,59.69,32.07,59.67z"/>
	<path class="st27" d="M26.82,59.74c-0.88-0.61-1.83-0.93-2.91-0.66c0.68-1.22,1.81-1.93,3.05-1.42
		C27.96,58.08,27.63,59.08,26.82,59.74z"/>
	<path class="st31" d="M21.81,61.17c-0.25,1.21-1.24,1.75-2.17,2.36C18.96,61.46,20.42,61.34,21.81,61.17z"/>
	<path class="st4" d="M76.9,35.01c-0.01-0.72-0.01-1.45-0.02-2.17c0.3-0.27,0.37-0.74,0.81-0.88c0.7-0.46,1.4-0.92,2.1-1.38
		c0.7-0.38,0.29-1.83,1.59-1.63c0.62,0.38,0.95,0.98,1.26,1.61c0.38,1.15,1.16,2.16,1.22,3.42c-1.3,3.15-3.73,2.31-6.09,1.73
		C77.42,35.53,77.14,35.29,76.9,35.01z"/>
	<path class="st45" d="M79.07,24.68c1.03-0.77,1.42-1.87,1.59-3.08c1.32-0.06,1.21,0.92,1.3,1.76c-0.1,0.82-0.19,1.64-0.25,2.47
		c-0.12,0.51-0.41,0.89-0.84,1.18c-0.32,0.15-0.63,0.12-0.93-0.05C79.65,26.2,79.36,25.44,79.07,24.68z"/>
	<path class="st33" d="M76.9,35.01c0.24,0.04,0.47,0.06,0.71,0.06c0.4,0.34,0.59,0.79,0.61,1.31c-0.04,0.98-0.42,1.9-0.51,2.88
		c-0.05,0.49-0.16,0.97-0.36,1.42c-0.09,0.13-0.19,0.27-0.29,0.4c-0.31,0.19-0.6,0.17-0.88-0.06C76.2,38.99,75.81,36.91,76.9,35.01z
		"/>
	<path class="st57" d="M76.95,46.17c0-0.25-0.05-0.49-0.15-0.72c-0.47-1.49-0.36-2.98-0.07-4.48l0.27,0.1
		c1.21-0.21,1.39,0.75,1.74,1.52c0.06,0.35,0.05,0.7,0,1.05c-0.46,0.96,0,2.6-1.86,2.53L76.95,46.17z"/>
	<path class="st8" d="M79.94,26.97c0.21-0.01,0.42-0.01,0.64,0c1.09,0.43,1.5,1.08,0.73,2.14c-0.51,0.49-1.02,0.98-1.53,1.46
		C79.84,29.37,79.89,28.17,79.94,26.97z"/>
	<path class="st17" d="M76.73,40.97c0.03,1.49,0.05,2.99,0.07,4.48c-1.25-1.33-0.46-2.95-0.61-4.43
		C76.38,41.01,76.55,41,76.73,40.97z"/>
	<path class="st62" d="M77.69,31.95c-0.27,0.29-0.54,0.59-0.81,0.88c0-0.98,0-1.95,0-3.24C77.96,30.38,77.52,31.26,77.69,31.95z"/>
	<path class="st63" d="M132.8,71.73c-3.13,0.7-4.31-2.41-6.6-3.35c-0.53-0.69-1.07-1.38-1.6-2.07c-0.46-0.9-1.27-1.69-0.95-2.85
		c0.94-1.23,2.25-2.05,3.42-3.03c0.69-0.52,1.38-1.04,2.07-1.56c2.28-1.26,2.17,1.26,3.18,2c1.03,1.07,1.5,2.45,2.05,3.77
		c0.43,1.36,0.94,2.7,1.32,4.08c0.15,0.76,0.1,1.48-0.31,2.16C134.64,71.52,133.81,71.88,132.8,71.73z"/>
	<path class="st28" d="M137.44,57.28c1.4,2.13,0.37,4.51,0.7,6.75c0.26,0.75-0.21,0.98-0.8,1.12c-2.81-1.28-2.44-3.39-1.47-5.65
		c0-0.46,0-0.91,0-1.37C136.3,57.69,136.73,57.22,137.44,57.28z"/>
	<path class="st42" d="M135.87,59.51c0.31,1.84-0.34,3.89,1.29,5.42c-1.01,1.72-1.24,1.73-3.07,0.25c-0.13-1.63-2.21-3.36,0.26-4.85
		C134.65,59.68,135.27,59.62,135.87,59.51z"/>
	<path class="st1" d="M134.37,52.92c0-0.26,0-0.51,0.01-0.77c0.35-0.51,1.04-0.31,1.46-0.69c0.18-0.97,0.38-1.91,1.56-0.72
		c0.79,0.95,0.24,1.86-0.05,2.79c-0.34,0.8-0.88,1.38-1.75,1.62c-0.16,0-0.33,0.01-0.49,0.01
		C134.24,54.62,134.39,53.74,134.37,52.92z"/>
	<path class="st51" d="M132.06,61.36c-0.92-0.9-1.21-2.54-2.93-2.49c0.15-1.26,0.94-1.72,2.05-1.32c1.38,0.5,0.8,1.85,1.01,2.84
		C132.39,60.75,132.33,61.07,132.06,61.36z"/>
	<path class="st64" d="M132.06,61.36c0.04-0.32,0.08-0.64,0.13-0.96c0.72-0.02,1.44-0.05,2.16-0.07c-1.22,1.52-0.16,3.05-0.02,4.57
		c-0.22,0.3-0.43,0.29-0.64-0.02C133.15,63.71,132.61,62.54,132.06,61.36z"/>
	<path class="st19" d="M127.07,60.43c-0.36,1.66-1.85,2.25-3.01,3.15c-0.46-0.27-0.51-0.6-0.14-0.99
		C124.62,61.36,125.46,60.34,127.07,60.43z"/>
	<path class="st3" d="M137.44,57.28c-0.33,0.65-0.9,0.84-1.58,0.85c-0.25-0.99-0.51-1.98-0.76-2.97c0,0,0.01-0.01,0.01-0.01
		c1.08-0.25,2.1-0.14,3.01,0.54c0.21,0.32,0.19,0.64-0.03,0.96C137.88,56.86,137.66,57.07,137.44,57.28z"/>
	<path class="st37" d="M123.92,62.59c0.05,0.33,0.09,0.66,0.14,0.99c0.18,0.91,0.36,1.82,0.55,2.74
		C123.07,65.31,122.48,64.13,123.92,62.59z"/>
	<path class="st1" d="M81.44,23.83c-0.07-0.81,0.06-1.68-0.77-2.23c0.5-1.2,1-2.41,1.49-3.61c0,0-0.01-0.01-0.01-0.01
		c0.24-0.27,0.54-0.46,0.89-0.57c1.17-0.11,2.13,0.26,2.79,1.27c0.2,2.26,2.01,2.54,3.69,2.98c0.24,0.51,0.48,1.01,0.72,1.52
		c0.81,1.2,0.84,2.44,0.13,3.69c-2.44,3.54-4.94,1.53-7.43,0.08c-0.78-0.38-0.72-1.26-1.14-1.86
		C81.54,24.71,81.43,24.29,81.44,23.83z"/>
	<path class="st8" d="M77.77,36.63c-0.05-0.52-0.11-1.04-0.16-1.56c2.09-0.1,4.52,1.2,5.99-1.46c0.25-0.71,0.67-1.09,1.47-0.82
		c0.07,0.81-0.12,1.71,0.78,2.24c0.02,0.19,0.05,0.39,0.07,0.58c-2.07,1.93-4.58,1.97-7.17,1.66
		C78.36,37.15,78.04,36.94,77.77,36.63z"/>
	<path class="st41" d="M82.12,24.63c0.87,0.56,0.71,1.49,0.82,2.32c-0.01,0.46-0.03,0.91-0.05,1.37c0.29,0.94,0.96,2.01-0.77,2.28
		c-0.27-0.5-0.54-0.99-0.81-1.49c-0.24-0.71-0.49-1.43-0.73-2.14c0.26-0.28,0.52-0.56,0.78-0.84
		C81.77,25.71,81.51,24.95,82.12,24.63z"/>
	<path class="st26" d="M82.12,30.6c0.89-0.55,0.71-1.46,0.77-2.28c0.73,1.49,1.45,2.98,2.18,4.47c-0.49,0.27-0.98,0.55-1.47,0.82
		C82.32,33,82.08,31.87,82.12,30.6z"/>
	<path class="st65" d="M91.89,34.34c-0.05,0.47-0.1,0.94-0.16,1.41c-0.42,0.47-0.96,0.59-1.56,0.56c-1.47-0.3-3.09-0.07-4.32-1.22
		c0,0,0-0.06,0-0.06C87.73,33.61,89.88,34.61,91.89,34.34z"/>
	<path class="st64" d="M90.36,26.87c-0.04-1.23-0.08-2.46-0.12-3.69c0.27-0.01,0.54-0.02,0.8-0.03c0.23,1,0.47,2.01,0.7,3.01
		C91.29,26.4,90.82,26.64,90.36,26.87z"/>
	<path class="st26" d="M90.43,35.76c0.44,0,0.87-0.01,1.31-0.01c0.14,2.04,1.22,3.96,0.81,6.08c-1.47,0.13-1.48-1.28-2.14-2.01
		c-0.3-0.47-0.55-0.96-0.7-1.5C89.55,37.36,89.51,36.42,90.43,35.76z"/>
	<path class="st66" d="M91.14,39.64c1.12,0.32,0.41,1.8,1.41,2.19c0.01,0.48,0.01,0.95,0.02,1.43c0,0,0.03-0.04,0.03-0.04
		c-0.58,0.46-1.17,0.53-1.77,0.02C90.08,41.97,89.99,40.75,91.14,39.64z"/>
	<path class="st16" d="M133.69,64.88c0.21,0,0.43,0.01,0.64,0.02c0.94,0.84,1.88,1.04,2.83,0.02c0.33-0.3,0.65-0.59,0.98-0.89
		c0.49,0.26,0.97,0.52,1.46,0.78c1.59-1.52,3.28-2.02,5.18-0.53c0.04,1.67,0.07,3.34,0.11,5.02c-0.53,1.92-1.05,3.83-1.58,5.75
		c-1.24,0.06-2.48,0.11-3.73,0.17c-0.98-0.78-0.61-2.14-1.34-3.02c-0.16-0.26-0.32-0.53-0.48-0.79c-1.19-0.68-2.29-1.44-2.69-2.85
		C134.18,67.49,133.97,66.18,133.69,64.88z"/>
	<path class="st3" d="M138.1,56.65c0-0.25,0-0.5,0-0.75c-0.68-0.62-1.18-1.32-1.08-2.3c0.36-0.97,0.6-1.98,1.08-2.9
		c0.24-0.51,0.47-1.02,0.71-1.53c-0.19-0.33-0.14-0.61,0.16-0.85c1.88,0.27,1.09,2.31,2.1,3.16c0,0.23,0,0.47,0,0.7
		c-0.01,0.63,0.21,1.13,0.77,1.46c0.94-0.44,0.72-1.34,0.85-2.11c1.63,0.07,1.55,1.5,2,2.51c0.04,1.41-0.12,2.78-0.63,4.1
		C141.45,60.13,140,57.5,138.1,56.65z"/>
	<path class="st67" d="M144.77,64.3c-1.77-0.25-3.52-0.32-5.18,0.53c1.64-2.5,3.55-2.93,5.81-0.76
		C145.19,64.12,144.98,64.2,144.77,64.3z"/>
	<path class="st64" d="M144.07,58.14c0-1.49,0-2.97-0.01-4.46c0.16-0.05,0.32-0.1,0.47-0.14c0.78,0.26,0.52,1.15,0.97,1.6
		c0,0.27-0.01,0.54-0.01,0.82C145.02,56.68,144.54,57.41,144.07,58.14z"/>
	<path class="st3" d="M33.64,56.75c-0.02-0.53-0.03-1.06-0.05-1.59c0-0.5-0.01-1.01-0.01-1.51c-0.83-1.25,0.32-1.99,0.74-2.92
		c0.01-0.49,0.02-0.97,0.03-1.46c0.02-0.91,0.33-1.62,1.29-1.89c0.34-0.01,0.64,0.11,0.9,0.33c0.08,1.64-1.2,4.11,2.25,3.72
		c0.59,0.29,0.74,0.81,0.75,1.4c0.82,1.75,0.46,3.52,0.09,5.3C37.03,60.28,35.59,57.42,33.64,56.75z"/>
	<path class="st44" d="M32.07,59.67c0.5-0.88,1.03-0.1,1.55-0.03c0.27,1.48,0.54,2.96,0.81,4.44c0.16,0.35,0.11,0.67-0.12,0.98
		c-0.48,0.31-1,0.37-1.55,0.25c-0.53-0.23-0.91-0.57-0.74-1.22C32.04,62.61,32.06,61.14,32.07,59.67z"/>
	<path class="st52" d="M39.63,58.12c-0.03-1.76-0.06-3.53-0.09-5.3c0.5,0.54,0.99,1.07,1.49,1.61c-0.02,0.26-0.03,0.52-0.05,0.78
		C40.53,56.19,40.08,57.16,39.63,58.12z"/>
	<path class="st68" d="M34.32,64.84c0.04-0.25,0.08-0.51,0.12-0.76c0.47-0.24,0.93-0.49,1.4-0.73c0.35,0.61,0.94,0.73,1.57,0.78
		C36.75,65.98,35.58,65.63,34.32,64.84z"/>
	<path class="st27" d="M138.83,71.53c0.71,1.14,0.88,2.39,0.75,3.69c-1.24-0.01-2.49-0.02-3.73-0.03c-0.19-0.96,2.87-1.95-0.02-2.9
		C136.65,71.36,137.63,71.02,138.83,71.53z"/>
	<path class="st34" d="M132.8,71.73c0.73-0.37,1.47-0.73,2.2-1.1c0.29,0.19,0.45,0.45,0.51,0.79c-0.03,0.34-0.16,0.62-0.41,0.85
		c-1.5,0.14-2.89,1.24-4.67,0.47C131.34,72.36,132.07,72.05,132.8,71.73z"/>
	<path class="st69" d="M135.11,72.27c0-0.24,0.01-0.49,0.02-0.73c1.09-0.91,2.23-1.58,3.68-0.74c0.03,0.24,0.04,0.49,0.02,0.73
		c-0.93,0.54-1.92,0.83-3,0.77C135.59,72.3,135.35,72.29,135.11,72.27z"/>
	<path class="st28" d="M85.82,18.68c-0.98-0.25-1.97-0.49-2.95-0.74c-0.33-1.24,0.33-2.68-0.73-3.78c0.25-0.69,0.5-1.37,0.75-2.06
		c0.92,0.44,1.03-0.56,1.53-0.86c1.22,0,2.43,0,3.65,0c3.19,2.03,0.02,3.07-0.7,4.49c-0.02,0.97-0.04,1.95-0.06,2.92
		C86.82,18.66,86.32,18.67,85.82,18.68z"/>
	<path class="st14" d="M82.14,14.16c1.87,0.95,1.54,2.32,0.73,3.78c-0.24,0.02-0.48,0.03-0.73,0.04
		C82.14,16.71,82.14,15.43,82.14,14.16z"/>
	<path class="st14" d="M84.42,11.24c-0.03,1.14-0.7,1.15-1.53,0.85c0.83-1.15,0.3-2.81,1.45-3.83
		C84.37,9.26,84.39,10.25,84.42,11.24z"/>
	<path class="st41" d="M35.09,73.77c-0.52,0-1.04,0-1.56,0c-0.74-0.48-1.48-0.97-2.21-1.45c0.11-0.13,0.22-0.27,0.33-0.4
		c0.94-0.53,1.9-0.95,3-0.45C35.37,72.11,35.8,72.83,35.09,73.77z"/>
	<path class="st11" d="M25.4,71.65c1.23-0.06,2.47-0.12,3.7-0.18C27.93,72.73,26.68,72.59,25.4,71.65z"/>
	<path class="st41" d="M31.32,72.31c-1.36,0.02-0.98-0.84-0.8-1.59c0,0,0.03,0.04,0.03,0.04c0.41-0.36,0.89-0.56,1.44-0.53
		c0.35,0.07,0.66,0.21,0.93,0.44c0.41,1.42-1.09,0.99-1.54,1.58L31.32,72.31z"/>
	<path class="st40" d="M35.9,47.74c-0.52,0.51-1.03,1.02-1.55,1.54c-0.5-0.28-1-0.55-1.5-0.83c-0.11-0.1-0.23-0.2-0.34-0.3
		c-0.45-0.78-0.49-1.72-0.97-2.48c-0.24-0.54-0.65-1.07-0.17-1.68c-0.11-1.29,1.09-1.94,1.48-2.98c0.73-1.25,1.72-2.26,2.97-2.99
		c0.28,0.28,0.56,0.56,0.83,0.84c0.92,0.91,0.8,2,0.54,3.12c-0.49,1.24-2.02,2.25-0.88,3.88C36.5,46.55,36.37,47.18,35.9,47.74z"/>
	<path class="st46" d="M31.36,43.98c0.26,0.47,0.51,0.94,0.77,1.42c0.03,1.08,0.11,2.14,0.74,3.07c0,0-0.02-0.03-0.02-0.03
		c-2.14,1.67-1.4-1.18-2.3-1.46c-0.31-1.01-1.32-2.03,0.08-2.99C30.87,43.99,31.11,43.99,31.36,43.98z"/>
	<path class="st12" d="M29.87,52.17c0.21-0.56-0.45-1.52,0.66-1.61c0.23-0.02,0.71,0.66,0.73,1.03
		C31.34,52.87,30.5,52.34,29.87,52.17C29.87,52.17,29.87,52.17,29.87,52.17z"/>
	<path class="st27" d="M34.32,50.73c-0.25,0.97-0.49,1.95-0.74,2.92C32.18,52.26,33.05,51.44,34.32,50.73z"/>
	<path class="st41" d="M138.88,48.54c-0.02,0.21-0.04,0.42-0.08,0.63c-1.65,0.17-1.18-1.72-2.15-2.2c-0.67-0.7-0.64-1.44-0.11-2.2
		c0.01-0.74,0.03-1.47,0.04-2.21c0.01-0.77,0.02-1.54,0.03-2.32c1.73-0.63,2.35-2.9,4.45-2.97c0.02,0.28,0.03,0.57,0.05,0.85
		c0.22,0.26,0.32,0.55,0.3,0.88c-0.09,0.8-0.08,1.58,0.43,2.26c0.17,0.29,0.25,0.6,0.26,0.93c-0.09,0.32-0.26,0.58-0.52,0.79
		c-1.47,0.68-2.17,1.66-1.23,3.25c0.13,0.29,0.2,0.6,0.23,0.92C140.51,48.2,139.42,48.03,138.88,48.54z"/>
	<path class="st16" d="M136.55,44.76c0.04,0.73,0.07,1.47,0.11,2.2c-0.76-0.08-1.47-0.25-1.4-1.24
		C135.31,44.94,135.94,44.85,136.55,44.76z"/>
	<path class="st12" d="M135.83,51.46c-0.3,0.63-0.85,0.71-1.46,0.69c0-0.74,0-1.47,0-2.62C135.03,50.4,135.43,50.93,135.83,51.46z"
		/>
	<path class="st12" d="M138.09,50.7c0.18,1.1-0.18,2.06-0.74,2.98c-0.26,0.3-0.49,0.28-0.7-0.06c0.24-0.96,0.49-1.91,0.73-2.87
		C137.63,50.72,137.86,50.7,138.09,50.7z"/>
	<path class="st7" d="M32.84,70.78l-0.35-0.03l-0.35,0c-1.5-0.49-0.8-2.13-1.58-3c-0.28-0.65-0.55-1.3-0.83-1.94
		c0.05-0.14,0.1-0.28,0.13-0.42c0.84-0.8,1.94-0.22,2.87-0.52c0.53-0.01,1.05-0.02,1.58-0.03c1.1,0.05,2.22,0.23,3.09-0.71
		c0.99,0.16,2.12-0.28,2.91,0.69c0.24,1.48-0.6,3.12,0.69,4.44c0.02,0.73,0.04,1.46,0.07,2.19c-0.75,0.67-1.12,1.49-0.98,2.51
		c-0.03,0.49-0.16,0.94-0.59,1.25c-1.61-0.05-3.46,0.61-4.4-1.45c-0.26-0.74-0.53-1.49-0.79-2.23
		C33.91,71.11,33.14,71.4,32.84,70.78z"/>
	<path class="st69" d="M39.5,75.21c0.03-0.48,0.06-0.96,0.09-1.44c0.49-0.39,0.97-0.45,1.46,0c0,0,0.05-0.02,0.05-0.03
		c-0.05,0.83,0.09,1.73-0.77,2.29C40.05,75.77,39.77,75.49,39.5,75.21z"/>
	<path class="st20" d="M35.9,47.74c-0.03-0.75-0.07-1.49-0.1-2.24c-0.03-1.08,0.24-2.07,0.84-2.97c0-1.23,0.01-2.45,0.02-3.68
		c0.7-0.27,1.4-0.53,2.1-0.8c0.91,2.47,1.92,4.94,0.09,7.44c-0.1,1.42-0.82,2.21-2.3,2.22C36.32,47.72,36.11,47.73,35.9,47.74z"/>
	<path class="st70" d="M38.84,45.48c0.8-2.49-0.2-4.96-0.09-7.44c0.26,0,0.51,0,0.77,0.01c1.3,2.37,0.8,4.92,0.77,7.42
		C39.8,45.48,39.32,45.48,38.84,45.48z"/>
	<path class="st11" d="M141.79,42.47c0.02-0.24,0.05-0.48,0.07-0.73c0.3-0.68,0.72-1.09,1.51-0.72c0.01,0.73,0.03,1.47,0.04,2.2
		c-0.28,1.25-0.56,2.5-0.84,3.75c-0.74,0.51-1.49,0.67-2.23,0l-0.01-0.01C139.11,44.91,139.47,43.37,141.79,42.47z"/>
	<path class="st7" d="M143.37,41.03c-0.5,0.24-1.01,0.48-1.51,0.72c0,0-0.09,0.04-0.09,0.04c-1.06-0.8-1.39-1.77-0.72-2.98
		c0.03-0.23,0.06-0.46,0.07-0.69c0.52-0.03,1.04-0.05,1.57-0.08C141.81,39.28,145.1,39.58,143.37,41.03z"/>
	<path class="st71" d="M99.22,58.87c0.03,1,0.05,2,0.08,2.99c-0.75-0.25-1.5-0.5-2.25-0.75c0.01-0.99,0.02-1.99,0.02-2.98
		C97.8,58.38,98.51,58.63,99.22,58.87z"/>
	<path class="st33" d="M41.05,73.78c-0.49,0-0.97,0-1.46-0.01c-1.49-2.03,0.45-1.88,1.48-2.31C41.06,72.23,41.06,73,41.05,73.78z"/>
	<path class="st37" d="M140.34,46.97c0.74,0,1.49,0,2.23,0c-0.23,0.48-0.47,0.96-0.7,1.44c-0.56,0.94-0.88,1.94-0.81,3.05
		c-1.46-0.43-1.14-2.18-2.18-2.93C139.37,48.02,139.86,47.5,140.34,46.97z"/>
	<path class="st64" d="M144.06,53.68c-0.46-0.72-0.92-1.44-1.37-2.16c-0.03-0.24-0.05-0.49-0.05-0.73c0.62-0.08,1.12,0.08,1.45,0.64
		C144.59,52.18,144.74,52.93,144.06,53.68C144.07,53.67,144.06,53.68,144.06,53.68z"/>
	<path class="st33" d="M141.84,53.63c-0.43,0.09-0.94,0.62-1.28,0.08c-0.38-0.59-0.06-1.15,0.51-1.54
		C141.66,52.48,141.82,53.02,141.84,53.63z"/>
	<path class="st11" d="M144.07,53.67c0.01-0.75,0.01-1.49,0.02-2.24c0.51,0.25,1.02,0.5,1.53,0.75c-0.04,0.98-0.08,1.97-0.12,2.95
		C145.02,54.65,144.55,54.16,144.07,53.67z"/>
	<path class="st3" d="M90.43,35.76c-0.02,1.02-0.04,2.03-0.05,3.05c0.63,1.27,0.17,2.63,0.32,3.94c0.68,1.54,1,3.16,1.02,4.83
		c-4.5,0.91-9,1.77-13.33-0.68c-0.81-0.98-0.19-1.94,0.04-2.91c0.7-1.53,0.02-2.91-0.5-4.3c-0.12-0.32-0.19-0.65-0.22-0.99
		c-0.05-0.71,0.18-1.34,0.5-1.96c2.61-0.28,5.29-0.21,7.64-1.65C87.38,35.29,89.04,34.61,90.43,35.76z"/>
	<path class="st51" d="M91.71,47.58c-0.44-1.45-0.87-2.91-1.31-4.36c0.24-0.33,0.46-0.32,0.67,0.03c0.51-0.01,1.01-0.02,1.52-0.03
		c-1.33,1.45-0.12,2.96-0.1,4.45C92.24,47.64,91.97,47.61,91.71,47.58z"/>
	<path class="st37" d="M79.06,43.96c-0.23,0.98-0.45,1.96-0.68,2.94c-0.46,0.03-0.92,0.06-1.37,0.09c-0.04-0.27-0.08-0.54-0.12-0.81
		c1.23-0.64,0.3-2.32,1.45-3C78.77,43.27,78.82,43.7,79.06,43.96z"/>
	<path class="st33" d="M30.56,67.76c1.08,0.71,0.8,2.13,1.57,3c-0.53,0-1.06,0-1.59,0C30.56,69.76,30.56,68.76,30.56,67.76z"/>
	<path class="st65" d="M32.74,64.87c-0.78,1.13-1.86,0.65-2.87,0.52c0.3-1.48-1.74-3.43,0.97-4.48c1.13,0.76-0.06,2.46,1.19,3.17
		C32.26,64.35,32.5,64.61,32.74,64.87z"/>
	<path class="st50" d="M82.12,24.63c-0.02,0.61-0.15,1.17-0.75,1.49c-0.25-0.77-1.17-1.57,0.08-2.29
		C81.66,24.1,81.89,24.37,82.12,24.63z"/>
	<path class="st72" d="M78.3,38.86c0.08,0.25,0.15,0.5,0.23,0.75c0.25,0.99,0.63,1.99-0.25,2.88c-0.43-0.47-0.85-0.94-1.28-1.41
		c-0.02-0.51-0.03-1.02-0.05-1.52C77.3,39.12,77.47,38.36,78.3,38.86z"/>
	<path class="st73" d="M78.3,38.86c-0.45,0.23-0.9,0.46-1.34,0.69c-0.24-1.11,0.15-2.06,0.81-2.92c0.16,0.01,0.31,0.04,0.45,0.11
		C78.24,37.45,78.27,38.15,78.3,38.86z"/>
	<path class="st45" d="M78.29,42.49c0.08-0.96,0.16-1.92,0.25-2.88c1.67,1.27,0.48,2.89,0.53,4.36c-0.24-0.26-0.48-0.52-0.73-0.78
		C78.37,42.95,78.35,42.71,78.29,42.49z"/>
	<path class="st27" d="M138.81,70.8c-1.23,0.25-2.45,0.5-3.68,0.74c-0.04-0.3-0.08-0.61-0.12-0.91c0.02-0.69,0.04-1.38,0.06-2.07
		C136.31,69.31,137.56,70.06,138.81,70.8z"/>
	<path class="st24" d="M136.66,53.61c0.23,0.03,0.46,0.05,0.7,0.06c0.25,0.74,0.49,1.49,0.74,2.23c-1.08,0.12-2.05-0.24-2.98-0.75
		C135.63,54.64,136.15,54.13,136.66,53.61z"/>
	<path class="st17" d="M91.07,43.25c-0.23-0.01-0.45-0.02-0.67-0.03c-0.01-1.47-0.02-2.94-0.03-4.41c0.25,0.28,0.51,0.56,0.76,0.83
		C91.12,40.84,91.1,42.04,91.07,43.25z"/>
	<path class="st74" d="M32.84,70.78c0.62-0.02,1.2,0.06,1.46,0.75c-0.9,0.53-1.85,0.86-2.92,0.72
		C31.87,71.76,32.36,71.27,32.84,70.78z"/>
	<path class="st34" d="M36.64,42.52c0.53,1.22,0,2.14-0.84,2.97C34.05,43.93,34.8,43.07,36.64,42.52z"/>
	<path class="st71" d="M32.86,48.47c-0.75-0.9-2.05-1.67-0.74-3.07C33.14,46.24,32.8,47.4,32.86,48.47z"/>
	<path class="st47" d="M141.79,42.47c-1.63,1.13-1.51,2.82-1.46,4.49C137.98,44.28,138.3,43.3,141.79,42.47z"/>
	<path class="st43" d="M141.05,38.79c0.24,0.99,0.48,1.99,0.72,2.98C139.77,41.2,140.06,40.08,141.05,38.79z"/>
</g>
</svg>
