<?xml version="1.0" encoding="utf-8"?>
<!-- Generator: Adobe Illustrator 24.2.1, SVG Export Plug-In . SVG Version: 6.00 Build 0)  -->
<svg version="1.1" id="Calque_1" xmlns="http://www.w3.org/2000/svg" xmlns:xlink="http://www.w3.org/1999/xlink" x="0px" y="0px"
	 viewBox="0 0 108.6 129.1" style="enable-background:new 0 0 108.6 129.1;" xml:space="preserve">
<style type="text/css">
	.st0{fill:#FEFEFE;}
	.st1{fill:#FFC299;}
	.st2{fill:#40916C;}
	.st3{fill:#65BF95;}
	.st4{fill:#BC894F;}
	.st5{fill:#B3854B;}
	.st6{fill:#BA8C53;}
	.st7{fill:#B98A51;}
	.st8{fill:#E69A71;}
	.st9{fill:#E59D68;}
	.st10{fill:#C78F5E;}
	.st11{fill:#CE9970;}
	.st12{fill:#BE935C;}
	.st13{fill:#E9A36D;}
	.st14{fill:#80807F;}
	.st15{fill:#8C8885;}
	.st16{fill:#CFC9C0;}
	.st17{fill:#F0E6E0;}
	.st18{fill:#BB925C;}
	.st19{fill:#818180;}
	.st20{fill:#99908A;}
	.st21{fill:#E9A26A;}
	.st22{fill:#C9C9C9;}
	.st23{fill:#EAA36B;}
	.st24{fill:#989897;}
	.st25{fill:#858380;}
	.st26{fill:#E9A36C;}
	.st27{fill:#747473;}
	.st28{fill:#69635E;}
	.st29{fill:#FBF6F4;}
	.st30{fill:#EBA56F;}
	.st31{fill:#FCF7F6;}
	.st32{fill:#BF7359;}
	.st33{fill:#D8A073;}
	.st34{fill:#DBA887;}
	.st35{fill:#D6965D;}
	.st36{fill:#DCA37E;}
	.st37{fill:#BF8C55;}
	.st38{fill:#B6834F;}
	.st39{fill:#BF7A5B;}
	.st40{fill:#E9A066;}
	.st41{fill:#BB8A64;}
	.st42{fill:#B3874D;}
</style>
<g>
	<path class="st0" d="M1.1,64.5c0-20.4,0-40.7,0-61.1c0-1.9,0.4-2.3,2.3-2.3c34,0.1,67.9,0.1,101.9,0c1.9,0,2.3,0.4,2.3,2.3
		c-0.1,40.7-0.1,81.4,0,122.2c0,1.9-0.4,2.3-2.3,2.3c-34-0.1-67.9-0.1-101.9,0c-1.9,0-2.3-0.4-2.3-2.3C1.1,105.2,1.1,84.8,1.1,64.5z
		"/>
	<path class="st1" d="M94.7,77.4c2.6,6.7,4.3,13.7,4.5,20.9c0.2,5.3,0.3,10.6,1.2,15.9c-1.9,1.8-2.3,1.9-3.5,0.2
		c0.4-3.8-0.4-7.4-1.7-10.9c-1-2.8-1.7-5.6-1.5-8.7c0.1-2.4-1.1-4.6-2.4-6.5c-1.8-2.8-3.4-5.8-4.6-8.9
		C89.1,77.4,91.7,76.3,94.7,77.4z"/>
	<path class="st1" d="M10.1,114c1.5-6.4,0.2-12.9,1.3-19.3c1.1-6.2,2-12.5,4.4-18.4c2.6,1.1,5.5,1.5,7.5,3.7
		c-1.2,2.9-2.6,5.6-4.3,8.2c-1.5,2.2-2.3,4.6-2.3,7.3c0.1,4.9-2.6,9.2-3.3,14c-0.2,1.6-0.4,3.2,0.1,4.8
		C12.1,117.7,11.2,114.9,10.1,114z"/>
	<path class="st1" d="M35.7,77.4c2.5,6.1,3.6,12.4,4.3,18.9c-0.3,1.5-0.7,2.9,0.2,4.3c1.2,2.8,0.4,5.8,0.7,8.7
		c0.1,1.6-0.2,3.2,0.7,4.7c-0.4,1.1-1.3,1.2-2.3,1.5c-0.7-0.1-1.7,0.1-1.3-1.2c0.3-4.2-1.3-8.1-1.7-12.1c-1-8.4-4.6-15.5-8.1-22.9
		C30.1,77,32.7,76.5,35.7,77.4z"/>
	<path class="st1" d="M75.2,99.3c-0.5,3.2-1.8,6.1-2.8,9.1c-0.9,1.2-0.3,2.5-0.4,3.8c-0.2,1.8-0.9,2.4-2.5,1.4
		c0.1-10.8,0.6-21.5,3.7-32c0.4-1.4,1.1-2.8,1.6-4.2c3.1-0.7,5.5,0.4,7.4,2.7c-2.2,4.4-4.4,8.8-6.7,13.2
		C74.4,95.3,74.9,97.3,75.2,99.3z"/>
	<path class="st1" d="M76.9,68.5c1.8-4.4,1.9-8.8,0.8-13.3c0.3-0.3,0.7-0.4,1.1-0.4c3.4,0.3,6.9-0.3,10.4,0.4c1,0.3,2,0.6,2.8,1.3
		c0.8,1.1,0.6,2.2,0.1,3.4c-0.8,1.1-0.8,2.4-0.8,3.7c-0.4,1.9-0.2,3.8-0.7,5.7C85.8,71.9,81.3,70.9,76.9,68.5z"/>
	<path class="st1" d="M17.8,68.5c2-4.1,1.8-8.3,1.3-12.6c0.3-0.3,0.6-0.6,1-0.8c2.9-0.6,5.9-0.3,8.9-0.2c0.8,0.1,1.6,0.4,2.4,0.7
		c0.6,0.2,1.1,0.5,1.5,1c0.8,1.5,0.5,3-0.2,4.5c-1.4,2.5-0.3,5.3-1,8C27,72.1,22.4,70.9,17.8,68.5z"/>
	<path class="st1" d="M17.8,69c2-4.1,1.8-8.3,1.3-12.6c0.3-0.3,0.6-0.6,1-0.8c2.9-0.6,5.9-0.3,8.9-0.2c0.8,0.1,1.6,0.4,2.4,0.7
		c0.6,0.2,1.1,0.5,1.5,1c0.8,1.5,0.5,3-0.2,4.5c-1.4,2.5-0.3,5.3-1,8C27,72.5,22.4,71.3,17.8,69z"/>
	<path class="st2" d="M82.1,80.1c-2.5-0.9-4.9-1.8-7.4-2.7c0.5-2.4,1-4.8,1.5-7.2c5.7,0.3,11.4,0.1,17,0.6c0.5,2.2,1,4.4,1.5,6.7
		c-2.7,0.6-5.3,1.2-7.9,1.9C84.5,75.9,83.5,78.9,82.1,80.1z"/>
	<path class="st2" d="M35.7,77.4c-2.5,0.7-5.1,1.3-7.6,2c-1.9-2.8-3.4-1.4-4.7,0.6c-2.6-1.1-5.8-1-7.5-3.7c0.5-2.1,1.1-4.2,1.6-6.2
		c0.6-0.5,1.4-0.6,2.1-0.3c4,1.2,7.9,1.6,12,0.3c0.8-0.3,1.7-0.1,2.5,0.4C34.5,72.7,35.1,75.1,35.7,77.4z"/>
	<path class="st1" d="M22.1,10.4c-0.3,1.2-0.9,2.1-2,2.8c-1.1,1.1-1,2.4-0.2,3.6c0.7,4.1,1.4,8.1,2.1,12.2c-0.2,2.5-2,5-0.5,7.7
		c0.3,1.2,0.7,2.3,1.1,3.4c0.1,0.5,0.2,1,0.1,1.6c-0.2,1.1-0.9,1.9-1.4,2.8C20,45.6,20,48,17.7,48.3C17,36.1,17,23.9,16.9,11.7
		c0.2-0.3,0.5-0.6,0.8-0.8C19.1,10.5,20.4,8.8,22.1,10.4z"/>
	<path class="st1" d="M76.3,49c-0.1-6.3-0.2-12.6-0.2-18.9c0-2.3-0.7-5.3,1.9-6.3c2.6-1,4,1.7,5.6,3.4c-1.6,2.5-4.5,4.4-3.6,8
		c0.1,1.9,1.3,3.5,1.6,5.3c0.1,0.3,0,0.7,0,1c-0.5,1.2-1.4,2.3-1.9,3.5C78.5,46.3,78.4,48.5,76.3,49z"/>
	<path class="st1" d="M31.1,43.9c3.3-0.5,5.1,1.1,6,4.2c0.5,1.8,1.2,3.5,2,5.2c3,6.3,3,6.3-2.8,10.8c-1.5,1.1-2.8,1.5-3.3-1
		c0-0.3,0-0.5,0.2-0.7c3-3.1,2.5-6.3,0.3-9.6c-0.7-2.7-2.4-5.1-2.7-7.9C30.8,44.5,30.9,44.2,31.1,43.9z"/>
	<path class="st1" d="M92.5,43.8c1.8,0.2,2.5,1.6,3,3c1.3,3.3,2.4,6.7,4.2,9.9c1.2,2.1-0.2,3.5-1.5,4.8c-0.9,1-2.1,1.8-3.1,2.6
		c-0.9,0.3-1.8,0.7-2.6-0.1c-0.6-1-0.4-2.1,0.3-2.7c3.1-2.9,1.6-5.7,0-8.5c-0.6-2.1-1.8-3.9-2.4-6c-0.2-1.1-0.7-2.2,0.1-3.3
		C91.2,43.2,91.9,43.3,92.5,43.8z"/>
	<path class="st3" d="M17.7,48.3c1-1.5,1.9-2.9,2.9-4.4c0.3-0.3,0.6-0.3,0.9-0.1c0.9,3.5,3.6,4.5,6.8,4.6c0.5,0.6,0.6,1.3,0.7,2
		c0.1,1.1,0.6,2.2,0.3,3.3c-0.1,0.4-0.3,0.7-0.6,0.9c-2.9,0.7-6.2-0.7-9,1.2c-0.3,0-0.5,0.1-0.7,0.1C17.4,53.6,15.9,51.2,17.7,48.3z
		"/>
	<path class="st3" d="M76.3,49c0.9-1.5,1.8-2.9,2.8-4.4c1.1-0.4,1.5,0.6,2.1,1.2c1.3,2.3,3.7,2.2,5.8,2.8c0.7,0.4,1,1.1,1.2,1.8
		c0.1,1.5,1,3,0.1,4.5c-3.3-0.1-6.7-0.1-10,0.1H78l-0.3,0C76,53.4,75.4,51.4,76.3,49z"/>
	<path class="st3" d="M93.2,70.7c-5.7,0.9-11.4,1.4-17-0.6c-0.2-0.7,0.4-1.1,0.7-1.7c4.5,0.3,8.9,2.6,13.4,0.1
		c0.7-0.7,1.3-1.4,2.4-0.7C92.8,68.9,93,69.8,93.2,70.7z"/>
	<path class="st3" d="M34,70.3C28.5,72,22.9,72.2,17.5,70c0.1-0.5,0.3-1,0.4-1.5c4.7,0.4,9.3,2.6,14,0c0.7-0.6,1.4-0.6,2.1,0
		C33.9,69.2,34,69.7,34,70.3z"/>
	<path class="st4" d="M28.1,29.4c1.8,0.8,1.8,2.9,2.9,4.1c0.8,3,1.3,5.9-0.9,8.6c-0.9,1-1.8,0.5-2.7,0c-0.3-0.2-0.5-0.5-0.7-0.9
		c-0.8-2.3,1.3-4.1,1.1-6.2c0-1-0.1-2.1-0.4-3.1c-0.1-0.5-0.1-1.1,0-1.6C27.6,29.9,27.9,29.6,28.1,29.4z"/>
	<path class="st2" d="M10.1,114c1.2-0.4,2.1,2.3,3.4,0.3c1.1,1.7,0.5,3.5,0.2,5.2c-0.6,0.9-1.1,1.8-2.2,2.1c-0.3,0-0.6,0-0.9,0
		c-1-0.5-3-0.2-1.8-2.3c0.1-0.2,0.6,0.2,0.6-0.3c0-0.5,0.2,0.2-0.3,0c-0.3-0.2-0.4-0.6-0.5-0.9C8.7,116.5,9,115.1,10.1,114z"/>
	<path class="st5" d="M88.8,31.1c0.5,0.7,0.9,1.4,1.4,2.2c1.6,1.7,0.4,4,1.3,5.9c-0.1,1.4-0.9,2.3-2.2,2.6c-1-0.5-2.3,0.7-3.2-0.6
		c-0.9-2.2,1.3-3.9,1-6.1c0-0.9-0.2-1.8-0.3-2.7c0-0.6,0.1-1.1,0.5-1.5C87.8,30.6,88.3,30.7,88.8,31.1z"/>
	<path class="st2" d="M97,114.3c1.3,1.5,2.3-0.6,3.5-0.2c0.2,0.1,0.2,0.2,0.2,0.4c0.8,1.1,0.5,2.3,0.2,3.5c0,0.3-0.7,0.2-0.3,0.7
		c0.3-0.1,0.7-0.1,1,0.2c0.2,0.3,0.5,0.6,0.7,0.9c-0.4,2.4-2.3,1.7-3.7,1.6c-2.1,0-1.8-1.9-2.1-3.2C96.1,116.8,95.8,115.4,97,114.3z
		"/>
	<path class="st6" d="M28.1,29.4c0,0.3-0.1,0.7-0.1,1c-1.7,0.6-4.1-0.4-4.9,2.2c0,0.3-0.1,0.7-0.2,1c-0.1,0.5-0.2,1-0.4,1.5
		c-0.5,0.8-0.4,2.2-2,2c-1.1-3-1.1-5.8,1.4-8.2c0.5-0.3,1-0.6,1.5-0.9c1.2-0.5,2.4-0.6,3.6,0.1C27.4,28.5,27.8,29,28.1,29.4z"/>
	<path class="st7" d="M79.1,35.6c-0.5-3.9,0.7-6.8,4.5-8.4c0.7,0.3,1.5,0.5,2.2,0.7c0.3,0.6,1.2,0.9,0.8,1.8
		c-1.5,1.1-4.1,0.8-4.6,3.3c-0.3,0.8-0.5,1.6-0.9,2.4C80.6,36.6,79.8,36.8,79.1,35.6z"/>
	<path class="st8" d="M33.9,68.6c-0.7,0-1.4,0-2,0c-2.1-2.5-0.8-5,0-7.5c0.8,0.5,1,1.4,1.4,2.1c0.8,1.3,2,0.8,3.1,0.8
		C35.5,65.5,34.7,67.1,33.9,68.6z"/>
	<path class="st2" d="M73,115.8c0,0.5,0,1,0,1.5c-0.8,0.9,0,2.2-0.7,3.2c-1,1.4-2.5,1.1-3.8,0.8c-1.8-0.4-0.8-1.6-0.5-2.6
		c0.3-1.3,0.2-2.8,1.3-3.8c0.3-0.2,0.7-0.3,1-0.3C71.3,114.9,72.1,115.4,73,115.8z"/>
	<path class="st2" d="M37.9,114.3c0.3,0.6,0.8,0.7,1.4,0.8c0.5,1.5-1.5,2.5-0.9,4c0.3,0.5,0.9,0.8,1.5,1.2c-0.6-0.5-1.3-0.7-1.5-1.3
		c0.6-2.1,2.3-1.7,3.9-1.6c0.3,1.4,2.3,2.6,1,4c-1.1,1.3-3,0.7-4.6,0.5c-2.2-0.3-1.4-2.3-1.5-3.6C37.1,116.8,36.7,115.4,37.9,114.3z
		"/>
	<path class="st9" d="M92.7,67.9c-0.8,0.2-1.6,0.4-2.4,0.7c-1.5-1.8,0.1-3.5,0-5.3c0.4-0.3,0.8-0.4,1.3-0.4c0.3,0,0.6,0,0.9,0.2
		c0.5,1.1,1.6,1,2.6,1.1C94.3,65.4,93.5,66.7,92.7,67.9z"/>
	<path class="st10" d="M91.1,39.4c-1.8-1.8-0.4-4.1-0.8-6.2l0-0.1c1-0.3,2,0,2.9,0.3c0.3,0.2,0.5,0.4,0.7,0.7c-0.3,1.5-0.7,3-1,4.5
		c-0.1,0.5-0.4,0.9-0.9,1C91.6,39.8,91.3,39.7,91.1,39.4z"/>
	<path class="st2" d="M70.8,115c-2.8,0.7-2.1,3.3-2.7,5.1c-0.2,0.7,0.7,0.9,1.3,0.9c1,0.1,2-0.1,2.6-1.1c0.5-0.8,0-2,1-2.7
		c-0.3,1.6,0.9,3.8-1.5,4.4c-1.4,0.3-3.1,0.7-4.3-0.4c-1.3-1.2,0.3-2.2,0.6-3.3c0.3-1.4-0.3-3.1,1.4-4C69.9,114,70.9,113.7,70.8,115
		z"/>
	<path class="st2" d="M38,119.5c-0.3-1.7-0.4-3.3,1.3-4.4c0.4-0.9,1.4-0.8,2.1-1c1.2,0.8,0.9,2.1,0.9,3.3c-0.9,1.4-2.7,0.5-3.7,1.5
		C38.9,119.4,38.6,119.6,38,119.5z"/>
	<path class="st11" d="M22.1,10.4c-1.7-0.4-2.9,1.4-4.6,1.2c-0.8-1-0.8-2,0-2.9c1-1.2,2.6-0.7,3.7-1.5c0.1,0.1,0.3,0.2,0.4,0.3
		c0.4,0.9,1.3,1.7,0.4,2.8L22.1,10.4z"/>
	<path class="st12" d="M29.6,42.3c1.9-2.7,1.5-5.8,1.5-8.9c1.8,2.5,1.7,5.1,0.5,7.7c-0.4,0.9-1.2,1.6-0.4,2.7c0,0.2-0.1,0.4,0,0.5
		c-0.3,0.3-0.6,0.4-1,0.3C29.3,44,28.8,43.3,29.6,42.3z"/>
	<path class="st2" d="M96.4,118.1c1.8,3.4,2.7,3.7,5.8,1.6c1,1.8-0.2,2.3-1.5,2.1c-1.5-0.1-3.7,1-4.3-1.5
		C96.2,119.6,96.4,118.9,96.4,118.1z"/>
	<path class="st13" d="M70.8,115c-0.6-0.3-1.1-0.7-1.6-1c0-0.2,0.1-0.4,0.2-0.5c4.1-0.3,1.2-3.6,2.3-5.2c0.1-0.1,0.2-0.1,0.3-0.1
		c0.1,0,0.2,0.1,0.3,0.2c0,2,0,4,0.1,5.9C72.3,115.5,71.7,115.6,70.8,115L70.8,115z"/>
	<path class="st14" d="M93.8,34.2c-0.2-0.1-0.3-0.2-0.5-0.2c-1.1-0.7-1.6-1.7-1.7-2.9c1.2-1.5,2.3-0.1,2.9,0.5
		C95.3,32.3,95.3,33.7,93.8,34.2z"/>
	<path class="st15" d="M91.7,31.1c1,0.7,1.4,1.8,1.7,2.9c-1.2,0.3-2.2-0.2-3.1-0.8C90.7,32.5,91.2,31.8,91.7,31.1z"/>
	<path class="st16" d="M91.1,39.4c0.2,0,0.4,0,0.6,0c1,0.5,0.3,1.6,0.9,2.2c0,0.2,0,0.5,0,0.7c-0.9,0.8-2,0.8-3.1,0.5
		c-0.3-0.2-0.6-0.4-0.8-0.7c0.1-0.2,0.2-0.3,0.2-0.5C89.8,41.2,90.5,40.4,91.1,39.4z"/>
	<path class="st17" d="M89,42.4c1.2,0,2.4,0,3.6,0c0,0.5,0,1,0,1.5c-0.7,0.1-1.4,0.1-2.2,0.2c-0.3,0.2-0.7,0.3-1.1,0.2
		C88.5,43.7,88.1,43.1,89,42.4z"/>
	<path class="st18" d="M86.5,29.7c-0.2-0.6-0.4-1.2-0.7-1.7c1.6,0.5,2.8,1.3,3,3.1c-0.5,0-1,0-1.6,0C86.1,31.1,86.1,30.5,86.5,29.7z
		"/>
	<path class="st2" d="M8.7,118c0.2,0.2,0.4,0.5,0.6,0.7c0.3,0.2,0.3,0.3,0.3,0.5c-0.1,0.2-0.2,0.3-0.3,0.3c-0.9,1.6,1.3,1.2,1.4,2.1
		C6.7,122.3,7.7,120.2,8.7,118z"/>
	<path class="st19" d="M16.3,11.7c-0.9,1.2-1.8,1.1-2.4-0.2c-0.4-0.9-1.6-2.2,0.7-2.5C15.6,9.6,16.5,10.3,16.3,11.7z"/>
	<path class="st20" d="M17.6,8.6c0,1,0,2,0,2.9c-0.2,0-0.5,0.1-0.7,0.1l-0.1,0c-0.4-1.2-1.5-2-2.2-3C15.6,7.4,16.6,8.1,17.6,8.6z"/>
	<path class="st21" d="M75.2,99.3c-0.8-2-1.2-4,0.3-5.9C75.3,95.3,75.3,97.3,75.2,99.3z"/>
	<path class="st22" d="M14.6,8.6c1.5,0.5,2.7,1.1,2.2,3c-0.1,0-0.3,0-0.5,0c-0.7-0.9-1.8-1.4-1.7-2.7L14.6,8.6z"/>
	<path class="st2" d="M101.5,118.8c-0.5,0.2-1,0.5-1.5,0.7c-0.4-0.5-0.5-1,0-1.4c1.2-1,0.6-2.3,0.6-3.6
		C102,115.8,101.4,117.3,101.5,118.8z"/>
	<path class="st23" d="M40.2,100.7c-1.4-1.4-1-2.9-0.2-4.3C40,97.8,40.1,99.3,40.2,100.7z"/>
	<path class="st24" d="M21.3,7.2c1-1,2.2-1.5,3.1-0.4c0.5,0.6-0.8,1-1.4,1.2c-0.5-0.1-1-0.3-1.5-0.6L21.3,7.2z"/>
	<path class="st25" d="M92.6,41.7c-1.2-0.4-0.7-1.4-0.9-2.2c0.4-0.2,0.8-0.5,1.2-0.7C93.6,39.8,92.8,40.7,92.6,41.7z"/>
	<path class="st26" d="M19.9,16.8c-1.3-1.3-1.4-2.5,0.2-3.6C20.1,14.4,20,15.6,19.9,16.8z"/>
	<path class="st27" d="M22.9,8.5c0.6,0.4,2.1-0.3,2,1c-0.1,1.2-1.2,0.8-2.1,0.6C22.4,9.6,22.4,9,22.9,8.5z"/>
	<path class="st28" d="M22.9,8.5c0,0.5,0,1.1-0.1,1.6c-0.2,0.1-0.5,0.1-0.7,0.1c-0.2-0.9-0.4-1.9-0.6-2.8C22.2,7.2,22.6,7.5,23,8
		C23,8.2,23,8.3,22.9,8.5z"/>
	<path class="st2" d="M70.8,115c0.7,0.1,1.3,0.1,1.6-0.7c0.6,0.3,0.7,0.9,0.6,1.5C72,116.2,70.9,117,70.8,115z"/>
	<path class="st2" d="M11.6,121.6c0.5-0.9,1.3-1.6,2.2-2.1C14.2,121.4,13.5,122.1,11.6,121.6z"/>
	<path class="st12" d="M27.1,28.1c-1.2,0-2.4,0-3.6-0.1C24.7,27.1,25.9,26.9,27.1,28.1z"/>
	<path class="st3" d="M91,46.8c0.8,2,2.4,3.7,2.3,6c0.3,1.6-0.2,2.9-1.6,3.8c-0.8,0-1.6,0.1-2.2-0.7c-0.3-0.3-0.4-0.6-0.6-1
		c0-1.9-1-3.7-0.9-5.6c-0.1-0.8-0.1-1.5,0.2-2.2c0.2-0.7,0.6-1.4,1.2-1.8C90.8,44.8,90.4,46.4,91,46.8z"/>
	<path class="st29" d="M91.7,56.6c0.5-1.3,1.1-2.5,1.6-3.8c3.1,4.6,3.1,4.6-0.8,10.3c-0.2,0-0.5,0.1-0.7,0.2c-1.6-1-1.4-2.3-0.7-3.7
		C91.9,58.7,91.7,57.6,91.7,56.6z"/>
	<path class="st3" d="M89.5,55.2c0,0.2,0,0.5,0,0.7c-3.7-0.5-7.6,0.9-11.2-0.8c3.2-1.4,6.5-1.9,9.7,0C88.5,54.6,89,54.6,89.5,55.2z"
		/>
	<path class="st30" d="M91.1,59.6c0,1.3-0.3,2.6,0.7,3.7c-0.4,0.9-1,0.2-1.5,0.1C90.5,62.1,89.7,60.6,91.1,59.6z"/>
	<path class="st3" d="M30.4,44.7c0.3,0,0.5-0.1,0.7-0.2c1.1,2.8,2.9,5.3,3.1,8.4c0.7,1.8-0.2,2.9-1.6,3.8c-0.5-0.1-1-0.1-1.5-0.2
		c-1.3-1.4-1.3-3.3-1.9-4.9C29,51,28.9,50.5,29,50C29.3,48.2,28.6,46.1,30.4,44.7z"/>
	<path class="st31" d="M32.5,56.6c0.5-1.3,1.1-2.5,1.6-3.8c3.6,5.1,3.6,5.1-1,10.4c-1.4-0.1-1.3-1.2-1.4-2.1
		C32.7,59.7,32.6,58.2,32.5,56.6z"/>
	<path class="st3" d="M19.8,55.8c2.5-3.5,5.8-1.8,8.9-1.5c0.8,0.3,1.2,0.7,0.9,1.5C26.4,55.9,23.1,55.8,19.8,55.8z"/>
	<path class="st32" d="M29.7,55.9c-0.3-0.5-0.6-1-0.9-1.5c0-0.3,0.1-0.5,0.1-0.8c0.7-0.6-0.1-1.7,0.8-2.3c0.8,1.6,1.4,3.3,1.4,5.2
		C30.6,56.3,30.1,56.1,29.7,55.9z"/>
	<path class="st33" d="M20.6,37.1c0.5-0.7,1-1.5,1.5-2.2c1,1.7,2.3,3.1,2.2,5.2c-0.7,0.7-1.5,0.2-2.2,0
		C21.6,39.1,21.1,38.1,20.6,37.1z"/>
	<path class="st3" d="M21.4,43.8c-0.3,0-0.5,0-0.8,0c0.5-0.8,1-1.5,1.5-2.3c0.5-0.4,1-0.4,1.5-0.1c0.6,1.3-0.3,1.9-1.2,2.6
		C22,44.2,21.7,44.1,21.4,43.8z"/>
	<path class="st34" d="M23.6,41.6c-0.5,0-1-0.1-1.5-0.1c0-0.5,0-1,0-1.4c0.5-0.8,1-0.1,1.5,0C24,40.6,24,41.1,23.6,41.6z"/>
	<path class="st35" d="M79.1,35.6c2.8,0.6,0.8-2.5,2.2-3c2-0.9,3.1-0.4,2.2,1.8c-0.7,1.7-1.2,3.2-0.9,5c-0.1,0.8-0.1,1.7-1.3,1.5
		C80.3,39.2,79.4,37.5,79.1,35.6z"/>
	<path class="st3" d="M80.5,46.1c-0.5-0.5-0.9-1-1.4-1.5c0.5-1.2,1-2.4,2.2-3c0.7-0.2,1,0.2,1.1,0.8C82.2,43.8,81.7,45.1,80.5,46.1z
		"/>
	<path class="st36" d="M82.1,42.3c-0.3-0.3-0.5-0.5-0.8-0.8c0-0.2,0-0.5,0-0.7c0.6-0.3,0.7-0.9,0.7-1.5c0.3-0.2,0.7-0.2,1,0.1
		c0.3,0.5,0.4,1,0.4,1.6C83.3,41.7,83.1,42.5,82.1,42.3z"/>
	<path class="st3" d="M91,46.8c-0.5-0.5-0.9-1-1.4-1.5c-0.5-0.5-0.5-0.9-0.1-1.5c0.3,0,0.5,0.1,0.8,0.1C90.9,44.9,91.1,45.8,91,46.8
		z"/>
	<path class="st1" d="M21.4,43.8c0.2,0,0.5,0,0.7,0c1.8-0.5,2.1-4.5,5.1-2.2l0.1,0c0.2,0.3,0.5,0.6,0.6,0.9c0.4,1.3,0.4,2.6,0.7,3.9
		c0.1,0.8,0,1.5-0.7,2.1C23.5,49.8,21.7,48.5,21.4,43.8z"/>
	<path class="st37" d="M27.4,42.4c0-0.3,0-0.5,0-0.8c0.7,0.3,1.5,0.5,2.2,0.8c0.3,0.8,0.5,1.5,0.8,2.3c-0.3,1.7-0.5,3.5-0.8,5.2
		c-0.6,0-0.6,1.1-1.4,0.7c-0.1-0.7-0.2-1.4-0.2-2.1c0-0.8,0-1.6,0.1-2.3C27.2,45,28.2,43.5,27.4,42.4z"/>
	<path class="st38" d="M28.2,50.5c0.6,0.1,0.4-1.6,1.4-0.7c0,0.5,0,0.9,0,1.4c-0.1,0.8,0.1,1.7-0.8,2.3
		C28.7,52.5,28.5,51.5,28.2,50.5z"/>
	<path class="st1" d="M82.1,42.3c0.6-0.3,0.7-0.9,0.7-1.5c2-1.5,3-0.1,4,1.3c0.7,2.3,1.8,4.6-0.2,6.8c-2.7,0.6-4.9,0-6.1-2.8
		C80.3,44.5,81.3,43.5,82.1,42.3z"/>
	<path class="st18" d="M86.6,48.9c0-2.2-0.1-4.4-0.1-6.6c-0.2-0.2-0.3-0.3-0.2-0.5c0.1-0.2,0.2-0.2,0.2-0.2c0.8,0.3,1.7-2.5,2.3,0.1
		v-0.1c-1.6,1.7-0.2,3.5,0,5.3c0,0.7,0,1.5-0.1,2.2c-0.7,0.3,0,1.9-1.5,1.5C87.1,50,86.8,49.5,86.6,48.9z"/>
	<path class="st39" d="M87.3,50.6c0.5-0.5,1-1,1.5-1.5c0.3,2,0.5,4,0.8,6.1c-0.5,0-1,0-1.6-0.1C87.8,53.6,87.5,52.1,87.3,50.6z"/>
	<path class="st1" d="M27.3,41.6c-2.4-0.9-3.1,2.2-5.1,2.2c0.5-0.7,1-1.5,1.5-2.2c0-0.5,0-1,0-1.5c0.1-1.9-2.3-3.1-1.5-5.3
		c0-0.5,0-1,0.1-1.4c0.8-0.3,0.4-0.6,0-0.9c1.1-3.1,3.2-3.6,5.9-2.1c0,0.5,0.1,1,0.1,1.5c0.2,1-0.4,2.2,0.6,3
		C29.4,37.4,26.7,39.2,27.3,41.6z"/>
	<path class="st12" d="M28.8,34.9c-2.4-0.6-1.2-1.9-0.6-3C29.2,32.7,28.7,33.9,28.8,34.9z"/>
	<path class="st2" d="M9.4,119.5c0-0.3,0-0.5,0-0.8c0.8-0.3,1.5-0.9,2.4-0.5c0.1,0.1,0.3,0.5,0.2,0.6C11.3,120,10.2,119.4,9.4,119.5
		z"/>
	<path class="st1" d="M82.8,39.3c-0.3,0-0.5,0-0.8,0c-1.2-1.9-1.2-3.5,0.5-5.2c0.8-0.8,0.6-0.9-1.3-1.6c0.5-3.2,2.8-3.1,5.2-2.9
		c0,0.6,0.2,1.1,0.8,1.4c0,0.5,0,1,0.1,1.5c-0.3,1,0.1,1.9,0.3,2.8C86.8,38.8,85,40.2,82.8,39.3z"/>
	<path class="st40" d="M82.8,39.3c2.2-0.8,4.5-1.5,4.5-4.5c0.3-0.3,0.5-0.3,0.7,0c0.7,2.5-2.2,4.2-1.4,6.7c0,0.3,0,0.5,0,0.8
		c-0.9-1.2-2.2-1.7-3.7-1.5C82.8,40.3,82.8,39.8,82.8,39.3z"/>
	<path class="st18" d="M88,34.9c-0.2,0-0.5,0-0.7,0c-1.4-0.8-1.6-1.5,0.1-2.3C88.2,33.2,88,34.1,88,34.9z"/>
	<path class="st2" d="M100.1,118.1c0,0.5,0,1,0,1.4c-0.7-0.2-2,0.4-1.8-0.9C98.3,117.8,99.4,118.1,100.1,118.1z"/>
	<path class="st41" d="M22.1,32.6c0.8,0.2,1.8-0.1,2.1,1c0.1,0.3-0.2,0.8-0.4,0.9c-0.9,0.4-1-0.8-1.7-1
		C22.1,33.2,22.1,32.9,22.1,32.6z"/>
	<path class="st2" d="M38,119.5c0.2-0.3,0.4-0.5,0.6-0.8c1.1,0.5,2.1,0.9,4.2,1.8C40.2,121.2,39,120.8,38,119.5z"/>
	<path class="st42" d="M88.8,46.9c-2.3-1.8-2.4-3.5,0-5.3c0.1,0.3,0.1,0.5,0.1,0.8c-0.2,0.7,0,1.2,0.6,1.5c0,0.5,0.1,1,0.1,1.5
		C89.4,45.9,89.1,46.4,88.8,46.9z"/>
	<path class="st12" d="M27.4,42.4c1.2,1.1,0.5,2.5,0.7,3.8C26.9,45,27.5,43.7,27.4,42.4z"/>
</g>
</svg>
