
<svg version="1.1" id="Calque_1" xmlns="http://www.w3.org/2000/svg" xmlns:xlink="http://www.w3.org/1999/xlink" x="0px" y="0px"
	 viewBox="0 0 96.77 83.23" style="enable-background:new 0 0 96.77 83.23;" xml:space="preserve">
<style type="text/css">
	.st0{fill:#FEFEFE;}
	.st1{fill:#FFDDC7;}
	.st2{fill:#FFDDC6;}
	.st3{fill:#40916C;}
	.st4{fill:#42926D;}
	.st5{fill:#76C6A1;}
	.st6{fill:#FFC39A;}
	.st7{fill:#77C7A2;}
	.st8{fill:#44936F;}
	.st9{fill:#FFDCC4;}
	.st10{fill:#469470;}
	.st11{fill:#FFDCC5;}
	.st12{fill:#FFC7A2;}
	.st13{fill:#FFD8BE;}
	.st14{fill:#6EC39B;}
	.st15{fill:#FFC7A1;}
	.st16{fill:#71C49D;}
	.st17{fill:#FFD6BB;}
	.st18{fill:#FFCAA6;}
	.st19{fill:#FFDAC2;}
	.st20{fill:#FFF3EB;}
	.st21{fill:#FFDFCA;}
	.st22{fill:#4F9A78;}
	.st23{fill:#FFDAC1;}
	.st24{fill:#FFCEAD;}
	.st25{fill:#FFD9C0;}
	.st26{fill:#FFD9BF;}
	.st27{fill:#579E7E;}
	.st28{fill:#FFCBA8;}
	.st29{fill:#74C5A0;}
	.st30{fill:#FFC8A3;}
	.st31{fill:#FFE6D5;}
	.st32{fill:#81CBA8;}
	.st33{fill:#FFD7BC;}
	.st34{fill:#68A88B;}
	.st35{fill:#FFD7BD;}
	.st36{fill:#65BF95;}
	.st37{fill:#FFD5B9;}
	.st38{fill:#FFD2B4;}
	.st39{fill:#FFD6BA;}
	.st40{fill:#FFD4B7;}
	.st41{fill:#FFD2B5;}
	.st42{fill:#68C097;}
	.st43{fill:#FFD1B1;}
	.st44{fill:#FFC49C;}
	.st45{fill:#FFC9A4;}
	.st46{fill:#FFC299;}
</style>
<g>
	<path class="st0" d="M47.38,75.69c-13.89,0-27.78-0.03-41.66,0.04c-1.5,0.01-1.84-0.34-1.84-1.82c0.06-21.79,0.06-43.57,0-65.36
		c0-1.49,0.34-1.82,1.84-1.82c27.78,0.05,55.55,0.05,83.33,0c1.5,0,1.84,0.34,1.84,1.82c-0.06,21.79-0.06,43.57,0,65.36
		c0,1.49-0.34,1.83-1.84,1.82C75.15,75.66,61.27,75.69,47.38,75.69z"/>
	<path class="st1" d="M69.31,43.56c1.92,0.08,2.58,1.32,3.06,2.96c1.51,5.13,3.14,10.22,4.73,15.32c0,0.4,0.21,0.73,0.39,1.08
		c0.45,0.88,0.95,1.89,0.14,2.7c-0.89,0.89-1.97,0.59-2.92-0.1c-1.1-1.14-1.79-2.52-2.24-4.03c-1.12-1.96-2.3-3.89-3.33-5.89
		c-0.49-0.95-0.85-2.01-1.01-3.06c-0.45-3.04-1.07-3.34-3.55-1.56c-2.15,1.55-4.18,3.25-6.79,4.09c-1.56,0.5-2.05,2.34-3.4,3.19
		c-2.34-2.12-3.67-4.6-2.94-7.85c0.67-1.18,2.06-1.3,3.09-1.94c-0.75,0.47-1.56,0.66-2.43,0.71c-0.47-0.15-0.71-0.45-0.65-0.95
		c4.14-2.42,8.75-3.64,13.31-4.94C66.23,42.88,67.87,42.32,69.31,43.56c-0.72,0.79-1.69,0.58-2.58,0.65
		c-1.13,0.25-2.24,0.62-3.39,0.78c-1.25,0.35-2.48,0.75-3.68,1.25c-0.37,0.16,0.27,0.45,0.01,0.14c1.28-0.81,2.78-1.01,4.18-1.51
		c1.62-0.22,3.18-0.78,4.82-0.82C68.92,43.93,69.13,43.76,69.31,43.56z"/>
	<path class="st1" d="M65.1,16.49c-3.03,4.13-5.9,8.35-8.21,12.92c-2.81-0.38-4.34-2.12-5.08-4.7c-0.41-3.44,2.62-4.81,4.28-7.02
		c2.98-2.79,6.08-5.45,9.57-7.62c0.44-0.13,0.85-0.08,1.19,0.26c2.23,0.87,2.74,3.04,3.59,4.86c1.64,3.52,2.64,7.32,4.83,10.59
		c0.61,1.2,1.99,1.89,2.23,3.33c-0.21,2.54-1.71,2.18-3.36,1.47c-1.39-0.85-1.84-2.32-2.46-3.68c-1.7-3.32-4.86-5.75-5.86-9.5
		c0.13-0.36,0.23-0.76-0.06-1.06C65.55,16.13,65.27,16.21,65.1,16.49z"/>
	<path class="st1" d="M34.44,54.48c3-1.06,6-2.12,9-3.18c1.36,1.47,1.19,3.4,1.6,5.16c0.29,1.28-0.86,1.48-1.42,2.12
		c-1.17,0.57-2.35,1.15-3.52,1.72c-0.52,1.43,0.67,1.05,1.29,1.11c2.86,0.3,5.74,0.3,8.61,0.44c0.5,1.79-1.43,0.57-1.73,1.38
		l-0.22,0.07l-0.23-0.03c-1.39,0.66-2.99-0.26-4.36,0.58l-0.22,0.06l-0.22-0.05c-2.18,0.56-4.42-0.02-6.6,0.37
		c-0.32-0.04-0.6-0.17-0.84-0.38c0.55-3.06-1.74-5.62-1.55-8.62C34.1,54.94,34.24,54.7,34.44,54.48z"/>
	<path class="st2" d="M31.36,32.36c-0.32,0-0.64,0.01-0.96,0.01c-1.76,0.68-3.29-0.29-4.9-0.69c-0.21-0.19-0.41-0.38-0.62-0.57
		c-1.03-1.24-1.33-2.54-0.33-3.95c1.02-1.12,2.29-1.01,3.6-0.71c1.37,0.64,2.75,1.29,4.2,1.77c1.62,0.47,3.27,0.77,4.95,1
		c3.67,0.82,7.53,0.52,11.12,1.84c2.82,0.66,5.79,0.72,8.4,2.18c-0.37,0.99-1.38,0.76-2.09,1.09c-0.97-0.03-1.97,0.26-2.91-0.22
		c-0.38-0.03-0.75-0.05-1.13-0.08c-1.18-1.49-2.72-0.77-4.15-0.65c-1.28,0.1-2.56,0.25-3.74-0.43c-1.14-0.86-2.44-0.13-3.66-0.37
		C36.53,32.47,33.93,32.89,31.36,32.36z"/>
	<path class="st3" d="M51.93,50.14c-0.64,3.14,1.46,5.47,2.46,8.12c-2.63,2.1-5.47,1.65-8.36,0.69c-1.38-2.63-2.21-5.32-0.8-8.22
		c2.08-0.83,4.16-1.66,6.24-2.5c0.21,0.22,0.41,0.44,0.61,0.67C52.31,49.35,52.22,49.76,51.93,50.14z"/>
	<path class="st2" d="M25.94,67.42c-1.14-0.07-1.73-0.89-2.33-1.68c-0.02-1.02,0.43-1.9,0.86-2.79c0.25-0.38,0.59-0.65,1.02-0.81
		c0.59-0.18,1.19-0.19,1.8-0.07c0.6,0.14,1.14,0.42,1.66,0.72c1.96,1.3,4.29,1.29,6.48,1.82c2.64,2.07,5.95,0.97,8.87,1.81
		c0.92,0.26,1.94,0.28,2.88,0.62c3.05,0.4,6.12,0.68,9.02,1.77c-0.23,1.07-1.26,0.8-1.93,1.13c-1.44,0.42-2.7-0.36-4.05-0.57
		c-1.36-0.91-2.83-0.56-4.29-0.35c-0.89,0.11-1.77,0.18-2.56-0.4c-1.57-0.88-3.26-0.14-4.89-0.38
		C34.26,68.47,30.12,67.62,25.94,67.42z"/>
	<path class="st4" d="M52.4,24.75c0.67,2.34,2.68,3.4,4.5,4.66c-0.51,1.2-1.65,1.72-2.64,2.41c-1.74,0.48-3.49,0.09-5.24,0.12
		c-3.33-1.62-1.99-4.47-1.89-7c0.16-0.32,0.39-0.6,0.67-0.82c1.37-0.23,2.02-1.46,3.05-2.16C52.27,22.41,51.91,23.81,52.4,24.75z"/>
	<path class="st2" d="M47.8,24.13c-0.01,0.19-0.07,0.37-0.18,0.52c-0.94,1.33-0.4,2.85-0.55,4.28c-0.1,0.92-0.29,2.11-1.38,1.81
		c-2.49-0.69-5.12-0.05-7.55-0.97c-0.46-0.18-0.88-0.44-1.11-0.91c-0.29-0.64-0.27-1.32-0.34-1.99c-0.24-2.33,0.83-3.42,3.16-3.35
		C42.44,24.45,45.11,24.42,47.8,24.13z"/>
	<path class="st5" d="M34.44,54.48c-0.01,0.15-0.03,0.3-0.05,0.45c-0.38,1.85,0.02,3.58,0.78,5.26c0.45,0.98,1,1.93,0.52,3.06
		c-0.01,0.18-0.01,0.36-0.02,0.54c-0.29,0.55-0.84,0.66-1.36,0.81c-0.56-0.09-1.06-0.3-1.44-0.74c-1.4-2.03-3.68-2.14-5.8-2.6
		c-0.27-0.14-0.48-0.33-0.63-0.59c-0.09-0.46,0.06-0.88,0.25-1.28C29.02,54.15,29.51,53.84,34.44,54.48z"/>
	<path class="st6" d="M18.3,67.42l-0.19,0.1l-0.21-0.07c-2.68,0.34-5.31,0.47-7.16-2.06c-0.75-1.71,0.27-3.02,0.99-4.41
		c0.38-0.64,0.75-1.31,1.57-1.51c1.32,0.26,2.1,1.39,3.21,1.98c2.1,1.28,3.95-1.16,6.01-0.4c0.52,0.15,1.17,0.04,1.42,0.72
		c0.01,0.1,0.04,0.2,0.02,0.29c-0.39,1.85-3.33,1.62-3.22,2.25C21.15,66.58,19.26,66.54,18.3,67.42z"/>
	<path class="st7" d="M27.38,24.67c0.62-0.62,1.27-1.22,1.87-1.86c2.99-3.2,4.83-3.2,7.74,0c-0.01,0.14-0.02,0.28-0.04,0.43
		c-0.49,1.78-0.25,3.7-1.03,5.43c-0.82,0.61-1.65-0.1-2.47,0.03c-0.85-0.13-1.47-0.69-2.12-1.18c-0.69-0.58-1.48-0.95-2.38-1.09
		c-0.39-0.07-0.77-0.19-1.12-0.39C27.41,25.67,27.05,25.28,27.38,24.67z"/>
	<path class="st8" d="M74.78,64.92c0.77,0.37,1.59,1.05,2.4,0.44c0.86-0.64-0.33-1.31-0.24-2.05c0.06-0.48-0.65-1.04,0.15-1.46
		c2.89,1.23,5.33,3.17,7.87,4.94c0.74,0.52,0.66,1.13,0.17,1.77c-4.06,1.25-7.99,1.42-11.62-1.25c-0.02-0.38-0.03-0.76-0.05-1.13
		c-0.02-0.55,0.12-1.04,0.59-1.38C74.33,64.7,74.57,64.74,74.78,64.92z"/>
	<path class="st9" d="M15.92,61.99c-0.81-0.79-1.95-1.22-2.49-2.29c-0.75-0.41-1.14-1.02-1.11-1.88c2-1.71,4.58-1.29,6.81-1.35
		c2.23-0.07,3.58,1.82,3.37,4.3c-0.12,0.1-0.23,0.21-0.35,0.31C20.02,61.02,18.23,63.27,15.92,61.99z"/>
	<path class="st10" d="M74.04,29.95c1.35,0.46,3.06,1.79,2.99-1.2c-0.32-0.56-0.47-1.05,0.44-1.13c1.1,0.97,2.91,0.34,3.85,1.68
		c0.43,0.61-0.54,2.03,1.13,1.9c1.35,0.18,3.16-0.05,2.06,2.3c-3.12,1.67-6.36,0.52-9.55,0.36c-0.79-0.04-1.48-0.53-1.76-1.37
		C73.42,31.62,72.3,30.32,74.04,29.95z"/>
	<path class="st11" d="M12.33,22.19c3.09-1.34,6.15-2.31,9.29,0c0.87,0.64,1.05,1.07,0.32,1.82c-0.44,1.6-1.95,1.99-3.15,2.75
		c-2.43,0.8-4.26-0.01-5.63-2.05C12.69,23.94,12.26,23.14,12.33,22.19z"/>
	<path class="st12" d="M27.96,25.75c0.37,0.03,0.74,0.06,1.11,0.09c0.24,0.41,0.05,0.71-0.23,1c-0.12,0.05-0.24,0.09-0.36,0.14
		c-1.19,0.19-2.51-0.46-3.56,0.57c-0.65,0.95-1.37,1.84-2.42,2.4c-1.2,1.06-2.31,2.3-4.18,1.9c-1.99-0.62-4.02,0.99-6-0.13
		c-0.39,0-0.79-0.01-1.18-0.01c-0.66-0.47-1.55-0.73-1.53-1.78c0.08-0.45,0.34-0.75,0.76-0.91c0.28-0.06,0.55-0.07,0.83-0.05
		c4.47,2.64,7.34-1.4,10.88-2.6c0.44-0.15,0.74-0.65,1.25-0.78C24.84,26.58,26.45,24.7,27.96,25.75z"/>
	<path class="st12" d="M12.31,57.82c0.37,0.63,0.74,1.25,1.11,1.88c-0.37,0.38-0.74,0.76-1.11,1.14c-1.15,1.17-2.1,2.4-1.2,4.16
		c1.72,2.29,4.3,2.25,6.79,2.45c-2.11,0.91-4.25,0.49-6.32-0.02c-2.5-0.62-2.36-2.75-2.37-4.71c-0.57-1.03,0.34-1.69,0.64-2.5
		C10.5,59.24,11.22,58.34,12.31,57.82z"/>
	<path class="st13" d="M65.65,10.34c-2.99,2.57-5.99,5.14-8.98,7.71c-0.43-0.27-0.91-0.51-0.58-1.15c1.5-1.89,3.14-3.62,5.27-4.83
		C62.8,11.54,63.72,9.69,65.65,10.34z"/>
	<path class="st1" d="M34.49,64.33c0.27-0.45,0.72-0.51,1.19-0.53c2.45,0.02,4.9,0.04,7.34,0.06c-1.71,1.1-3.72,0.13-6.27,1
		c3.78,1.27,7.31,0.49,10.34,1.89c0.21,0.14,0.27,0.28,0.2,0.42c-0.07,0.14-0.14,0.21-0.21,0.21c-2.9-0.56-5.79-1.16-8.76-1.18
		c-1.23-0.01-2.36-0.2-3.23-1.16C34.88,64.81,34.51,64.72,34.49,64.33z"/>
	<path class="st14" d="M73.52,67.31c3.79,1.17,7.59,2.2,11.62,1.25c-1.8,1.32-9.27,1.78-11,0.65C73.45,68.75,72.89,68.2,73.52,67.31
		z"/>
	<path class="st15" d="M18.3,67.42c1.59-2.01,2.59-4.6,5.41-5.4c0.33-0.35,0.75-0.45,1.21-0.37c0.44,0.18,0.77,0.43,0.58,0.98
		c-0.2,0.19-0.39,0.39-0.59,0.58c-0.71,0.9-1.29,1.94-2.43,2.42C21.26,66.62,20.16,67.91,18.3,67.42z"/>
	<path class="st13" d="M56.09,16.9c0.19,0.38,0.39,0.77,0.58,1.15c-1.35,2.28-4.59,3.38-4.27,6.7c-0.52-0.93-1.03-1.86-1.55-2.79
		C52.47,20.14,54.05,18.29,56.09,16.9z"/>
	<path class="st16" d="M73.44,32.35c3.56,1.68,7.27,1.88,11.08,1.14c-3.38,2.4-7.12,1.09-10.72,0.94c-0.94-0.04-1.27-1.1-0.9-2.1
		C73.09,32.05,73.27,32.05,73.44,32.35z"/>
	<path class="st17" d="M45.23,50.74c-0.15,2.78,0.14,5.52,0.8,8.22c-0.8-0.13-1.61-0.25-2.41-0.38c1.65-2.47-0.37-4.85-0.18-7.28
		C43.86,50.57,44.6,50.84,45.23,50.74z"/>
	<path class="st18" d="M10.51,29.34c-0.22,0.24-0.43,0.48-0.65,0.73c-2.12-2.07-0.77-4.04,0.18-6.02c0.77-0.62,1.53-1.24,2.3-1.86
		c0.36,0.62,0.72,1.25,1.08,1.87c-0.1,0.71-0.34,1.34-1.04,1.68C10.57,26.35,11.76,28.47,10.51,29.34z"/>
	<path class="st19" d="M47.08,67.37c0-0.21,0.01-0.42,0.01-0.63c3.36,0.11,6.59,0.99,9.85,1.67c0.65,0.13,1.88,0.11,1.71,1.16
		c-0.14,0.92-1.18,0.83-1.98,0.76c-0.33-0.33-0.99-0.5-0.6-1.18C53.19,67.99,50.06,68.06,47.08,67.37z"/>
	<path class="st20" d="M10.04,24.05c-0.46,2-1.44,3.98-0.17,6.02c0.42,0.55,0.85,1.09,1.28,1.64c-3.4-0.2-3.64-0.69-2.91-3.94
		C8.55,26.31,8.79,24.99,10.04,24.05z"/>
	<path class="st21" d="M50.06,62.05c-3.19-0.01-6.39-0.01-9.58-0.03c-0.58,0-1.36,0.14-1.51-0.59c-0.13-0.68,0.49-0.99,1.13-1.12
		c2.15,1.18,4.55,0.73,6.83,1.05c1.43,0.2,2.98-0.38,4.26,0.7C50.81,62.38,50.44,62.39,50.06,62.05z"/>
	<path class="st19" d="M49.03,31.68c1.74,0.05,3.48,0.1,5.23,0.15c0.93,0.97,2.35,0.18,3.36,0.92c0.58,0.42,1.86,0.2,1.67,1.24
		c-0.17,0.94-1.23,0.77-2.02,0.71c-0.35-0.32-0.65-0.67-0.59-1.2c-2.65-1.34-5.72-0.63-8.42-1.69
		C48.47,31.47,48.73,31.43,49.03,31.68z"/>
	<path class="st22" d="M73.44,32.35c-0.18-0.01-0.36-0.02-0.54-0.02c-1.09-1.66-2.69-3.2-1.22-5.42c1.2,0.7,1.64,1.98,2.36,3.04
		C73.17,30.58,73.55,31.53,73.44,32.35z"/>
	<path class="st23" d="M25.94,67.42c4.48-0.48,8.87,0.94,13.35,0.55c0.19,0.13,0.26,0.25,0.19,0.38c-0.06,0.12-0.13,0.19-0.19,0.19
		C34.79,68.69,30.33,68.57,25.94,67.42z"/>
	<path class="st24" d="M27.96,25.75c-1.64-0.27-3.24,1.17-4.89,0.1c-1.3,0.82-2.65,1.3-4.16,0.52c0.23-1.78,2.54-0.91,3.04-2.35
		c1.54,2.45,3.52,1.28,5.44,0.65C27.57,25.03,27.77,25.39,27.96,25.75z"/>
	<path class="st15" d="M12.32,31.72c2.36,0.15,4.64,0.03,6.44-1.96c0.57,1.16-0.48,1.44-0.43,2.09
		C16.31,32.35,14.29,32.8,12.32,31.72z"/>
	<path class="st1" d="M50.06,62.05c0.38,0,0.75-0.01,1.13-0.01c0.79,1.15,2.43-0.15,3.19,1.1c-0.12,0.48-0.45,0.75-0.9,0.92
		c-0.6,0.04-1.2,0.09-1.77-0.17c-1.15-0.22-2.29-0.43-3.44-0.65C48.86,62.84,49.46,62.44,50.06,62.05z"/>
	<path class="st25" d="M65.65,10.34c-1.7-0.07-2.62,1.76-4.3,1.73c0.92-1.36,2.36-1.97,3.79-2.59c0.94-0.41,1.49-0.1,1.72,0.85
		C66.46,10.34,66.05,10.34,65.65,10.34z"/>
	<path class="st2" d="M39.84,23.51c-3.28,0.65-2.21,3.22-2.36,5.25c-0.37,0.17-0.66,0.09-0.89-0.24c-0.65-1.89-0.14-3.74,0.18-5.6
		c0,0,0.22-0.12,0.22-0.12C37.85,23.41,38.86,23.39,39.84,23.51z"/>
	<path class="st26" d="M31.36,32.36c2.84-0.01,5.68-0.03,8.52-0.04c0.2,0.12,0.26,0.25,0.2,0.38c-0.06,0.13-0.13,0.19-0.19,0.19
		C37.04,32.86,34.15,33.41,31.36,32.36z"/>
	<path class="st27" d="M74.78,64.92c-0.28,0.03-0.55,0.06-0.83,0.08c-1.01,0.21-1.47-0.38-1.78-1.19c0.1-0.77,0.19-1.54,0.29-2.32
		C73.58,62.41,74.25,63.61,74.78,64.92z"/>
	<path class="st28" d="M24.9,62.02c-0.4,0-0.8,0-1.19,0c-0.26-0.47-0.71-0.57-1.2-0.59c-0.18-0.08-0.24-0.18-0.2-0.28
		c0.05-0.11,0.1-0.16,0.16-0.16c0,0,0.03-0.22,0.03-0.22c1.73,0.56,3.07-0.07,4.19-1.37c0,0.49,0,0.98,0,1.47
		C26.81,62.35,25.42,61.53,24.9,62.02z"/>
	<path class="st15" d="M22.5,29.95c0.57-1.03,1.38-1.83,2.42-2.4c-0.39,1.18-0.47,2.37-0.04,3.56
		C24.08,30.73,23.29,30.34,22.5,29.95z"/>
	<path class="st19" d="M50.06,69.14c1.41,0.2,2.81,0.4,4.22,0.6c0.67-0.36,1.23-0.49,1.18,0.58c-2.11,0.06-4.23,0.18-6.08-1.12
		C49.59,68.93,49.81,68.9,50.06,69.14z"/>
	<path class="st29" d="M72.18,63.81c0.59,0.4,1.19,0.8,1.78,1.19c0.01,0.46-0.04,0.89-0.48,1.17C72.63,65.6,71.13,65.39,72.18,63.81
		z"/>
	<path class="st30" d="M22.48,65.63c0.56-1.05,1.39-1.85,2.43-2.42c-0.12,1-0.53,1.86-1.3,2.53C23.24,65.64,22.81,66.13,22.48,65.63
		z"/>
	<path class="st17" d="M39.29,68.53c0-0.19,0-0.37,0-0.56c1.55,0.01,3.1,0.02,4.66,0.05c0.03,0,0.1,0.21,0.08,0.22
		c-0.21,0.14-0.44,0.27-0.66,0.4C42.01,68.6,40.65,68.57,39.29,68.53z"/>
	<path class="st31" d="M9.85,60.21c-0.21,0.83-0.42,1.67-0.64,2.5c-0.24,0.39-0.48,0.78-1.06,1.74C8.03,62.33,8.64,61.16,9.85,60.21
		z"/>
	<path class="st32" d="M25.5,31.68c1.63,0.23,3.27,0.46,4.9,0.69C28.6,33.3,26.99,32.87,25.5,31.68z"/>
	<path class="st33" d="M39.89,32.89c0-0.19,0-0.38,0-0.57c1.38,0,2.76,0,4.14,0c0.01,0.15,0.02,0.31,0.03,0.46
		c-0.43,0.06-0.86,0.13-1.29,0.19C41.81,32.95,40.85,32.92,39.89,32.89z"/>
	<path class="st34" d="M77.47,27.61c-0.15,0.38-0.29,0.75-0.44,1.13c-0.75-0.89-1.64-1.7-1.75-2.95
		C76.16,26.22,76.95,26.75,77.47,27.61z"/>
	<path class="st35" d="M46.51,33.4c1.51-0.59,3.05-1.31,4.15,0.65C49.36,33.37,47.89,33.67,46.51,33.4z"/>
	<path class="st36" d="M82.45,31.19c-0.28,0.24-0.56,0.49-0.84,0.73c-0.58-0.82-0.92-1.67-0.3-2.63
		C81.7,29.93,82.08,30.56,82.45,31.19z"/>
	<path class="st1" d="M43.46,63.84c1.32-1.2,2.9-0.43,4.36-0.58C46.47,64.2,44.93,63.77,43.46,63.84z"/>
	<path class="st19" d="M51.8,34.13c1.03-0.01,2.06-0.02,3.08-0.04c0.67-0.36,1.23-0.5,1.19,0.58C54.62,34.63,53.11,35.15,51.8,34.13
		z"/>
	<path class="st13" d="M50.06,69.14c-0.23,0.02-0.45,0.04-0.68,0.06c-1.15-0.06-2.31-0.11-3.46-0.17
		C47.32,68.35,48.71,68.21,50.06,69.14z"/>
	<path class="st37" d="M53.69,63.78c0.23-0.21,0.45-0.43,0.68-0.64c0.56,0.04,1.12,0.08,1.69,0.12c0.21,0.13,0.29,0.26,0.24,0.41
		c-0.05,0.16-0.11,0.23-0.18,0.23c-0.42,0.15-0.83,0.31-1.25,0.46C54.57,64,53.96,64.23,53.69,63.78z"/>
	<path class="st9" d="M56.12,63.91c-0.02-0.22-0.04-0.43-0.06-0.65c0.71-0.07,1.86-0.46,1.82,0.5
		C57.84,64.58,56.76,64.05,56.12,63.91z"/>
	<path class="st38" d="M56.07,34.67c-0.26-0.46-0.7-0.56-1.19-0.58c0.43-0.7,1.14-0.56,1.8-0.6c0.47,0.26,0.59,0.7,0.6,1.2
		C56.87,34.68,56.47,34.68,56.07,34.67z"/>
	<path class="st21" d="M53.69,63.78c0.48,0.03,0.91,0.13,1.17,0.59c-1.09,0.05-2.2,0.29-3.16-0.49
		C52.37,63.85,53.03,63.82,53.69,63.78z"/>
	<path class="st39" d="M65.1,16.49c0.12-0.44,0.37-1.16,0.76-0.93c0.78,0.48,0.43,1.23-0.04,1.85
		C65.64,17.06,65.64,16.57,65.1,16.49z"/>
	<path class="st40" d="M55.46,70.32c-0.26-0.47-0.7-0.56-1.18-0.58c0.43-0.7,1.14-0.56,1.79-0.59c0.2,0.39,0.4,0.79,0.6,1.18
		C56.27,70.33,55.87,70.33,55.46,70.32z"/>
	<path class="st37" d="M63.86,45.38c-2.08,0.72-4.15,1.43-6.23,2.15c1.47-1.86,3.45-2.52,5.62-2.74
		C63.89,44.55,63.99,44.85,63.86,45.38z"/>
	<path class="st39" d="M51.93,50.14c0.05-0.41,0.1-0.83,0.15-1.24c1.25-0.55,2.48-1.19,4.13-0.63
		C54.78,48.9,53.35,49.52,51.93,50.14z"/>
	<path class="st17" d="M63.86,45.38c-0.2-0.2-0.4-0.4-0.6-0.59c0.8-0.92,2.14-0.47,3.04-1.15c0.89,0.68,2.07-0.13,2.96,0.56
		C67.57,45.11,65.66,44.99,63.86,45.38z"/>
	<path class="st41" d="M69.25,44.19c-0.99-0.14-2.12,0.4-2.96-0.56c1-0.03,2-0.05,3.01-0.08c0,0,0.01,0.01,0.01,0.01
		C69.29,43.77,69.27,43.98,69.25,44.19z"/>
	<path class="st42" d="M35.7,63.25c-0.91-2.15-1.77-4.3-2.16-6.62c-0.15-0.89-0.28-1.55,0.86-1.7c0.78,2.06,0.77,4.37,2.05,6.28
		C37.09,62.18,36.67,62.83,35.7,63.25z"/>
	<path class="st43" d="M36.97,28.74c0.17,0.01,0.34,0.01,0.51,0.02c2.38,2.27,5.51,0.7,8.22,1.51c0.98,0.29,0.57-1.37,0.79-2.15
		c0.32-1.17-0.91-2.85,1.13-3.47c0.02,1.46,0.11,2.92,0.05,4.37c-0.06,1.2,0.3,2.08,1.37,2.66c-0.26,0.04-0.52,0.08-0.78,0.12
		c-3.68-1.29-7.64-0.88-11.37-1.86c-0.19-0.16-0.3-0.37-0.31-0.63C36.62,29.06,36.76,28.87,36.97,28.74z"/>
	<path class="st6" d="M31.53,26.95c0.58,0.42,1.16,0.83,1.74,1.25c0.06,1.13-0.58,0.86-1.21,0.59c-1.27-0.46-2.82-0.35-3.58-1.8
		c0,0,0.03-0.01,0.03-0.01C29.51,26.29,30.52,26.51,31.53,26.95z"/>
	<path class="st12" d="M32.05,28.78c0.48-0.05,0.94-0.11,1.21-0.59c0.88-0.17,1.64,0.19,2.41,0.51c0.67-0.34,0.86,0.24,1.18,0.59
		c0.01,0.21,0.02,0.43,0.04,0.64C35.25,29.66,33.55,29.63,32.05,28.78z"/>
	<path class="st44" d="M34.49,64.33c0.2,0.23,0.4,0.47,0.61,0.7c-2.4,0.09-4.69-0.23-6.64-1.79c1.63-1.78,2.58-1.68,4.93,0.55
		C33.75,63.97,34.12,64.15,34.49,64.33z"/>
	<path class="st28" d="M33.38,63.78c-1.56-0.87-3.1-2-4.93-0.55c-0.39-0.21-0.77-0.42-1.16-0.62c-0.42-0.56-0.21-1.12,0.01-1.68
		C29.89,60.71,32.13,61.22,33.38,63.78z"/>
	<path class="st30" d="M27.31,60.93c0.41,0.56,0.32,1.12-0.01,1.68c-0.6,0-1.2,0.01-1.8,0.01c-0.2-0.2-0.4-0.4-0.6-0.6
		c0.6-0.39,1.2-0.77,1.8-1.16C26.9,60.89,27.1,60.91,27.31,60.93z"/>
	<path class="st30" d="M22.47,60.98c0.02,0.15,0.03,0.29,0.04,0.44c-2.23-0.23-4.2,2.52-6.59,0.57
		C18.26,62.69,20.13,60.36,22.47,60.98z"/>
	<path class="st6" d="M11.11,65c-0.82-1.73-1.41-3.4,1.2-4.16C12.51,62.4,10.53,63.33,11.11,65z"/>
	<path class="st36" d="M36.85,29.3c-0.39-0.2-0.78-0.39-1.18-0.59c0.03-1.99-0.22-4.03,1.09-5.78c0.07,1.94,0.14,3.88,0.2,5.82
		C36.89,28.92,36.85,29.1,36.85,29.3z"/>
	<path class="st45" d="M31.53,26.95c-1.01,0.01-2.01,0.01-3.02,0.02c0.19-0.38,0.37-0.76,0.56-1.14
		C30.08,25.79,30.84,26.3,31.53,26.95z"/>
	<path class="st46" d="M18.91,26.37c1.37-0.27,2.71-0.86,4.16-0.52c-0.01,1.08-0.7,1.45-1.63,1.79c-1.29,0.47-2.62,0.98-3.73,1.77
		c-2.28,1.61-4.41,2.17-6.6-0.05c-0.8-1.73,0.03-2.99,1.2-4.16c0.37-0.37,0.73-0.75,1.1-1.12C14.67,26.18,16.62,26.66,18.91,26.37z"
		/>
	<path class="st19" d="M18.17,22.36c-0.37,0.15-0.6,0.33-0.83,0.33c-0.44-0.01-0.69-0.31-0.46-0.71c0.09-0.16,0.49-0.25,0.72-0.2
		C17.79,21.82,17.93,22.1,18.17,22.36z"/>
	<path class="st46" d="M12.31,25.19c0.2,1.56-1.77,2.5-1.2,4.16c-0.2,0-0.4,0-0.6,0C11.1,27.95,9.07,25.45,12.31,25.19z"/>
</g>
</svg>
