<?xml version="1.0" encoding="utf-8"?>
<!-- Generator: Adobe Illustrator 24.2.1, SVG Export Plug-In . SVG Version: 6.00 Build 0)  -->
<svg version="1.1" id="Calque_1" xmlns="http://www.w3.org/2000/svg" xmlns:xlink="http://www.w3.org/1999/xlink" x="0px" y="0px"
	 viewBox="0 0 202.48 115.5" style="enable-background:new 0 0 202.48 115.5;" xml:space="preserve">
<style type="text/css">
	.st0{fill:#FEFEFE;}
	.st1{fill:#FFDDC7;}
	.st2{fill:#40916C;}
	.st3{fill:#FFDDC6;}
	.st4{fill:#489572;}
	.st5{fill:#4B9875;}
	.st6{fill:#FFDCC5;}
	.st7{fill:#FBF8F6;}
	.st8{fill:#FFC49C;}
	.st9{fill:#73C59F;}
	.st10{fill:#76C6A1;}
	.st11{fill:#44936F;}
	.st12{fill:#71C49D;}
	.st13{fill:#FAF6F3;}
	.st14{fill:#FFC9A4;}
	.st15{fill:#FFCFAF;}
	.st16{fill:#FFCEAD;}
	.st17{fill:#FFD7BD;}
	.st18{fill:#FFC7A1;}
	.st19{fill:#FFCFAE;}
	.st20{fill:#70C39C;}
	.st21{fill:#FFDBC3;}
	.st22{fill:#FFD1B1;}
	.st23{fill:#FFCCA9;}
	.st24{fill:#65BF95;}
	.st25{fill:#77C7A2;}
	.st26{fill:#FFD9BF;}
	.st27{fill:#FFD2B4;}
	.st28{fill:#FFEDE0;}
	.st29{fill:#FFD6BA;}
	.st30{fill:#FFD8BE;}
	.st31{fill:#FFE8D9;}
	.st32{fill:#FFE7D6;}
	.st33{fill:#FFD5B9;}
	.st34{fill:#FFD1B3;}
	.st35{fill:#FFCBA8;}
	.st36{fill:#FFD0B0;}
	.st37{fill:#FFCDAB;}
	.st38{fill:#FFD4B8;}
	.st39{fill:#FFC8A3;}
	.st40{fill:#FFCEAC;}
	.st41{fill:#FFD7BC;}
	.st42{fill:#FFD6BB;}
	.st43{fill:#FFCCAA;}
	.st44{fill:#FFD3B6;}
	.st45{fill:#FFC59E;}
	.st46{fill:#85CCAB;}
	.st47{fill:#FFD4B7;}
	.st48{fill:#FFCAA6;}
	.st49{fill:#FFF2E9;}
	.st50{fill:#FFC7A2;}
	.st51{fill:#FFD2B5;}
	.st52{fill:#FFDAC1;}
	.st53{fill:#68C097;}
	.st54{fill:#79C7A3;}
	.st55{fill:#FFC69F;}
	.st56{fill:#93D2B5;}
	.st57{fill:#FFC39B;}
	.st58{fill:#82CBA9;}
	.st59{fill:#FFF0E6;}
	.st60{fill:#84CCAA;}
	.st61{fill:#FFEEE2;}
	.st62{fill:#FFCBA7;}
	.st63{fill:#FFDAC2;}
	.st64{fill:#7FCAA7;}
	.st65{fill:#FBF8F5;}
	.st66{fill:#FFC299;}
	.st67{fill:#7EC9A6;}
	.st68{fill:#FFF1E8;}
	.st69{fill:#FFDCC4;}
	.st70{fill:#FFD9C0;}
	.st71{fill:#FFC39A;}
</style>
<g>
	<path class="st0" d="M0.07,115.43C0.07,77.97,0.11,40.51,0,3.05C-0.01,0.5,0.5,0,3.07,0c63.95,0.09,127.91,0.09,191.86,0
		c2.57,0,3.08,0.5,3.07,3.05c-0.11,36.47-0.11,72.94,0,109.4c0.01,2.55-0.5,3.05-3.07,3.05C129.98,115.41,65.03,115.43,0.07,115.43z
		"/>
	<path class="st1" d="M160.53,86.58c-0.27,1.67-0.55,3.34-0.82,5.02c-0.96,2.73-1.48,5.45,0.13,8.13l-0.03-0.07
		c0.23,0.4,0.29,0.81,0.17,1.26c-0.85,1.17-1.84,0.92-2.87,0.27c-1.63-4.56-0.74-9.27-0.63-13.88c0.1-4.07,0.22-8.14,0.12-12.21
		c-0.38-1.53-0.94-3.01-1.14-4.59c-0.11-0.53-0.13-1.07-0.06-1.6c0.28-1.07,0.55-2.13-1.17-2.17c-2.14-2.62-1.55-4.98,1.64-6.54
		c1.5-0.73,3.04-0.93,4.64-0.3c1.59,0.9,2.28,2.32,2.4,4.08c0.13,1.81-0.18,3.56-0.77,5.26c-0.38,1.08-0.74,2.17-0.67,3.34
		c-0.01,0.8-0.14,1.57-0.43,2.31c-0.46,2.58-0.08,5.18-0.21,7.77C160.34,83.94,160.75,85.28,160.53,86.58z"/>
	<path class="st1" d="M56.97,90.88c0.3,1.46,0.6,2.92,0.9,4.38c0.09,1.7,0.04,3.46,1.86,4.45c0.94,0.2,2.48,0.04,2.45,1.13
		c-0.05,1.43-1.64,1.1-2.69,1.16c-1.12,0.06-2.22-0.06-3.18-0.74c-0.1-0.15-0.12-0.31-0.06-0.48c-0.67-1.58-0.4-3.57-2.11-4.69
		c-0.11-0.22-0.17-0.45-0.18-0.69c-0.06-1.39,0.06-2.84-1.28-3.8c-0.06-0.4-0.13-0.81-0.19-1.21c-0.39-1.26-0.25-2.69-1.24-3.75
		c-0.36-0.92-0.32-1.86-0.1-2.8c0.31-1.04,0.89-1.95,1.49-2.84c0.97-1.53,2.24-2.87,3.15-4.45c0.42-0.71,0.89-1.38,1.52-1.91
		c0.97-0.81,2.1-1.46,2.7-2.66c0.86-1.33,2.22-2.04,3.55-2.77c1.18-0.82,2.45-0.69,3.73-0.32c2.93,1.12,1.83,3.22,1.3,5.19
		c-0.57,0.98-1.19,1.95-2.08,2.68c-0.3,0.18-0.62,0.3-0.97,0.34c-0.97-0.09-1.9-0.03-2.57,0.82c-0.56,0.57-1.19,1.04-1.8,1.55
		c-0.86,0.72-1.61,1.54-2.38,2.34c-1.6,1.44-2.7,3.15-2.79,5.36C56.55,88.36,55.88,89.86,56.97,90.88z"/>
	<path class="st1" d="M114.79,45.46c-0.08-0.19-0.11-0.38-0.09-0.58c-0.72-2.87-0.31-5.88-1.14-8.73c-0.75-1.25-0.29-2.81-1.02-4.06
		c-2.68-3.63-2.8-5.57-0.47-7.33c2.52-1.91,6.28-1.33,8.46,1.3c0.32,0.72,0.55,1.47,0.76,2.23c0.17,0.74,0.15,1.48-0.13,2.19
		c-1.54,2.34-2.77,4.73-1.41,7.61c0.11,0.52,0.12,1.04,0.04,1.57c-0.34,1.53-0.52,3.06-0.02,4.59c1.27,1.48,3.19,1.16,4.78,1.75
		c1.47,0.54,3.26,0.48,3.98,2.3c-0.04,0.71-0.42,1.24-1.11,1.21c-3.56-0.15-7.16,0.56-10.69-0.39
		C115.51,48.2,115.64,46.58,114.79,45.46z"/>
	<path class="st1" d="M113.96,83.24c0.97-0.94,1.93-1.88,2.9-2.82c1.59-0.77,3.24-1.39,5-1.67c1.21-0.57,2.5-1.02,3.4-2.08
		c0.23-0.22,0.46-0.43,0.69-0.65c1.67-1.12,2.72-2.78,3.8-4.41c0.48-0.35,0.96-0.71,1.44-1.06c2.82,0.8,4.01,3.04,4.98,5.49
		c-0.94,3.03-3.47,4.12-6.17,5.02c-1.36,0.51-2.63,1.23-4,1.72c-5.15,1.06-9.35,4.44-14.38,5.81c-1.81-0.38-2.19-1.36-1.21-2.89
		C111.45,84.67,113.02,84.41,113.96,83.24z"/>
	<path class="st2" d="M135.73,76.01c-1.51-1.82-3.03-3.64-4.54-5.46c1.5-3.91,4.19-6.62,8.18-8.02c0.56,0.39,0.69,0.96,0.7,1.59
		c0.07,5.27,0.46,5.81,5.53,7.47c0.34,0.17,0.63,0.4,0.87,0.69c0.19,0.58,0.13,1.11-0.34,1.55c-1.37,1.21-2.73,2.42-4.1,3.64
		c-1.65,0.74-3.18-0.37-4.79-0.32C136.53,77.05,136.01,76.68,135.73,76.01z"/>
	<path class="st1" d="M32.24,81.68c-0.06-0.16-0.04-0.31,0.05-0.46c0.99-0.78,2.17-1.32,2.95-2.35l-0.01,0.03
		c1.63-0.91,2.68-0.2,3.49,1.21c0.58,1.67,1.65,3.21,1.41,5.1c-0.62,1.27-1.89,1.55-3.05,2.01c-5.74,1.4-11.61,0.14-17.38,0.89
		c-2.15,0.1-4.18,0.82-6.29,1.19c-3.24-0.99-3.37-1.55-1-4.15c1.22-0.36,2.49-0.13,3.72-0.31c3.34-1.25,6.65-2.28,10.36-1.48
		C28.53,83.79,30.67,83.41,32.24,81.68z"/>
	<path class="st2" d="M39.83,84.88c-0.7-1.43-1.49-2.82-1.62-4.44c-0.31-1.27-1.12-2.59,0.34-3.7c2.03-1.47,3.88-3.24,6.45-3.81
		c0.66-0.4,1.38-0.28,2.09-0.21c1.22,1.01,0.37,1.98-0.04,2.96c-1.67,4.01-1.17,5.38,2.81,7.78c0.32,0.16,0.6,0.37,0.86,0.62
		c0.5,0.75,0.92,1.52,0.43,2.45c-0.74,0.5-1.78-0.07-2.45,0.67c-0.21,0.06-0.41,0.11-0.63,0.14C45.03,87.49,42.02,87.57,39.83,84.88
		z"/>
	<path class="st2" d="M89.38,28.33c2.71-3.16,6.27-4.64,10.3-5.23c0.25,0.3,0.33,0.64,0.25,1.02c-2.24,2.93-2.93,6.07-1.45,9.57
		c0.28,0.65,0.42,1.43-0.36,1.96c-1.48,0.35-2.95,0.7-4.43,1.04c-1.22,0.43-2.3,0.12-3.32-0.6c-1.08-1.01-1.66-2.27-1.96-3.69
		C88.22,30.93,88.3,29.51,89.38,28.33z"/>
	<path class="st3" d="M89.26,32.82c0.56,0.98,1.12,1.96,1.68,2.95c-0.15,0.14-0.3,0.29-0.44,0.43c-2.83,0.81-5.77-0.08-8.6,0.56
		c-1,0.21-2.01,0.16-3.02,0.06c-1.76-0.5-3.56-0.21-5.35-0.29c-2.69-0.39-5.07,1.12-7.68,1.27c-1.99-0.37-2.24-1.43-1.22-3
		c1.67-0.81,3.51-1.05,5.29-1.47c0.67-0.48,1.59-0.58,2.08-1.34l-0.02,0.01c0.98-0.2,1.94,0.17,2.92,0.06
		c2.26-0.5,4.61,0.94,6.84-0.3c-0.09-0.16-0.07-0.3,0.07-0.42c1.67-0.01,3.23-0.46,4.74-1.14C89.97,28.53,88.27,32.04,89.26,32.82z"
		/>
	<path class="st4" d="M111.21,85.69c-0.68,0.93-1.49,1.89,0.48,2.28c1.24,0.85,3.28-0.98,4.12,1.2c-0.4,0.83-0.79,1.66-1.19,2.5
		c-0.55,0.71-0.51,1.43-0.03,2.16c0.37,3.67-3.07,2.67-4.41,2.76c-2.46,0.16-3.72-2.11-4-4.5c-0.11-0.94,0.49-1.98,0.35-2.91
		c-0.68-4.26,1.23-5.86,5.32-5.44C112.34,84.62,111.73,85.14,111.21,85.69z"/>
	<path class="st5" d="M12.71,85.62c-1.65,1.51-2.28,2.76,0.8,3.05c1.22-0.13,2.59-1.21,3.48,0.59c-0.42,0.8-0.84,1.6-1.26,2.4
		c-0.53,1.06-1.39,1.23-2.45,0.95c0.88,0.24,2.02-0.01,2.4,1.21c0.03,0.26,0.06,0.52,0.09,0.78c-0.6,1.81-3.21,0.24-3.74,2.18
		c-3.31,1.03-4.11-1.45-4.88-3.65c-0.35-0.99-0.05-2.21-0.04-3.33c0.08-5.56,0.18-5.66,5.74-5.39c0.22,0.16,0.33,0.38,0.34,0.65
		C13.13,85.32,12.96,85.51,12.71,85.62z"/>
	<path class="st6" d="M146.1,72.34c-0.19,0.01-0.38-0.02-0.56-0.1c-2.17-0.88-4.45-1.82-5.14-4.25c-0.64-2.24-0.78-4.64,2.13-5.74
		c2.39,0.74,4.93-0.13,7.31,0.7c1.66,1.47,0.7,3.69,1.59,5.38c0.4,1.71,2.29,2.7,2.29,4.6c-1.26-0.02-2.52-0.03-3.79-0.05
		C148.73,72.2,147.3,73.08,146.1,72.34z"/>
	<path class="st7" d="M137.23,35.07c0,2.68,0,5.36,0,8.05c-0.24,0.52-0.69,0.81-1.18,1.06c-0.83,0.42-1.58,1.01-2.54,1.14
		c-2.74-0.06-3.14-1.96-3.27-4.08c-0.09-1.86,0.18-3.74-0.24-5.58c-0.09-0.35-0.13-0.71-0.14-1.07c0.01-0.35,0.08-0.69,0.18-1.03
		c0.74-2.05,2.73-2.74,4.3-3.89c0.31-0.37,0.6-0.75,0.89-1.14c0.67-0.74,1.23-1.61,2.27-1.92c0.36,0.04,0.65,0.2,0.87,0.5
		c0.78,1.64-0.04,3.03-0.72,4.43C137.55,32.71,136.07,33.73,137.23,35.07z"/>
	<path class="st3" d="M102.72,34.31c-0.74,0.27-1.47,0.54-2.21,0.82c-4.19-3.59-4.09-8.15,0.26-11.16c0.4-0.06,0.8-0.08,1.2-0.06
		c2.13,0.72,4.66-0.18,6.54,1.57c-0.41,2.47,0.52,5-0.32,7.45C106.6,34.28,104.27,32.78,102.72,34.31z"/>
	<path class="st8" d="M77.98,66.95c4.95-2.12,6.89-1.67,9.2,2.13c0.61,2.69-1.64,2.35-3.07,2.87c-1.38,0.5-2.74,1.02-3.42,2.47
		c-0.23,0.44-0.52,0.84-0.85,1.21c-0.34,0.4-0.7,0.76-1.08,1.11c-1.03,0.78-2.03,1.78-3.39,0.54c-0.21-0.34-0.35-0.7-0.44-1.09
		C74.5,72.64,74.54,69.24,77.98,66.95z"/>
	<path class="st8" d="M171.68,55.08c4.63-2.81,7.45-2.42,9.87,1.37c0.77,2.17-1.05,2.4-2.31,3.06c-0.64,0.28-1.3,0.52-1.95,0.77
		c-1.84,0.58-3,1.96-4.08,3.43c-0.42,0.58-0.87,1.13-1.54,1.45c-0.58,0.17-1.12,0.11-1.64-0.21c-0.26-0.3-0.45-0.64-0.57-1.02
		C168.94,60.67,169.02,57.56,171.68,55.08z"/>
	<path class="st9" d="M153.71,72.94c-1.18-1.07-2.28-2.2-2.93-3.68c-0.23-2.22-0.51-4.44-0.58-6.67c0.09-0.37,0.25-0.71,0.47-1.03
		c4.42-4.08,9.57-4.23,15.03-2.76c0.27,0.25,0.34,0.56,0.24,0.91c-0.39,0.63-0.96,0.94-1.69,0.99c-1.27-0.11-2.55-0.27-3.84-0.27
		c-2.52-0.38-4.73,0.2-6.27,2.31c-1.13,1.54-1.26,2.98,1.01,3.69c0.68,0.58,1.28,1.18,0.85,2.18c-0.01,0.45-0.01,0.91-0.02,1.36
		c0.4,1.35,0.76,2.71-0.24,3.98C155.07,73.61,154.39,73.28,153.71,72.94z"/>
	<path class="st8" d="M131.96,15.68c2.89-1.1,5.18-0.43,6.75,2.3c0.62,0.9,0.51,1.74-0.22,2.52c-1.75,0.86-3.74,1.22-5.28,2.51
		c-2.12,1.07-2.41,4-4.87,4.72c-3.02-2.94-1.94-6.13-0.58-9.34C128.6,16.64,130.53,16.55,131.96,15.68z"/>
	<path class="st10" d="M120.04,26.82c-1.74-2.3-5.2-2.99-7.38-1.46c-2.41,1.69-1.95,3.91,1.24,5.93c-0.64,1.59-0.11,3.26-0.32,4.88
		c-0.13,0.13-0.25,0.27-0.38,0.4c-1.04-0.71-2.07-1.42-3.11-2.13c-2.06-3.31-1.62-6.86-1.06-10.43c0.08-0.35,0.27-0.64,0.55-0.88
		c4.81-1.87,9.79-1.85,14.81-1.34c0.22,0.56-0.09,0.92-0.46,1.27c-1.06,0.7-2.11,1.41-2.45,2.76
		C121.16,26.38,120.96,27.11,120.04,26.82z"/>
	<path class="st11" d="M65.24,35.04c-1,1.17-1.19,2.08,0.76,2.28c1.43,0.16,3.59-2.06,4.05,1.23c-0.38,0.59-0.76,1.19-1.15,1.78
		c-1.6,1.07,0.26,2.65-0.57,3.83c-0.84,0.83-2.32,0.23-3.02,1.36l-0.07,0.15c-2.51,0.53-3.85-0.84-4.27-3.01
		c-0.48-2.55-0.37-5.19-0.08-7.76c0.28-2.45,2.35-1.55,3.84-1.65c0.42,0.12,0.83,0.24,1.25,0.36
		C66.46,34.47,65.66,34.65,65.24,35.04z"/>
	<path class="st12" d="M60.78,78.83c0.5-0.43,1-0.86,1.49-1.3c0.84-0.81,1.92-0.79,2.98-0.81c0.24-0.01,0.48-0.03,0.72-0.06
		c1.02-0.25,1.23,0.5,1.5,1.18c-0.26,2.54-0.1,4.92,2.45,6.41c-2.4,3.17-5.41,2.32-8.46,1.29c-0.7-0.43-1.53-0.67-2.06-1.37
		c-0.55-0.71-0.83-1.49-0.63-2.39C59.27,80.69,60.29,79.94,60.78,78.83z"/>
	<path class="st6" d="M177.98,84.84c0.43,2.68,0.87,5.36,1.3,8.04c0.52,1.5-0.43,3.33,1.05,4.61c0.48,0.58,0.87,1.16,0.19,1.86
		c-0.7,0.39-1.4,0.37-2.09-0.02c-0.91-0.99-0.59-2.3-0.88-3.45c-0.34-0.73-0.69-1.45-1.28-2.02c-0.11-0.19-0.15-0.39-0.11-0.6
		c-0.57-1,0.04-2.5-1.35-3.15c-0.12-0.17-0.17-0.36-0.15-0.56c-0.34-2.32-1.02-4.53-2.03-6.64c-0.18-0.57-0.28-1.15-0.33-1.74
		c-0.06-1.18-0.05-2.35,0.31-3.49c0.47-1.07,0.99-2.11,2.43-2.05c0.36,0.1,0.61,0.34,0.76,0.67c0.37,2.29,1.13,4.46,2.21,6.53
		C178.08,83.5,178.07,84.17,177.98,84.84z"/>
	<path class="st13" d="M177.98,84.84c-0.13-0.72-0.25-1.44-0.38-2.17c-1.1-1.84-1.77-3.83-2.17-5.93c-0.01-0.25-0.02-0.5-0.03-0.75
		c-1.13-1.06-1.89-2.32-2.2-3.84c-0.15-0.92-0.12-1.82,0.32-2.68c0.77-1.25,2.64-0.75,3.36-2.08c0.19-0.29,0.41-0.56,0.65-0.82
		c1-0.78,1.95-1.7,3.38-0.96c0.98,1.49-0.03,2.7-0.57,3.98c-0.44,0.89-0.97,1.77-0.8,2.83c-0.03,0.33-0.1,0.64-0.22,0.95
		c-0.28,1.45-0.1,2.91-0.14,4.37c0,0.16,0,0.32,0.01,0.49C178.79,80.43,178.38,82.63,177.98,84.84z"/>
	<path class="st3" d="M69.92,84.26c-4.57-0.19-3.52-3.26-3.12-6.01c0.62-1.07,0.36-2.45,1.2-3.44c1.16-1.25,0.44-3.39,2.11-4.4
		c3.8,0.69,2.73,3.57,2.72,5.96c-0.17,1-1.24,1.92-0.31,3.04c0.35,0.54,0.66,1.08,0.72,1.74c0,0.33-0.07,0.64-0.21,0.94
		c-0.58,1.05-1.82,1.29-2.61,2.09C70.27,84.25,70.1,84.27,69.92,84.26z"/>
	<path class="st14" d="M167.19,58.9c0.52-0.5,1.04-1.01,1.56-1.51c1.99,0.37,0.82,1.9,1.03,2.89c0.31,1.49-0.4,3.09,0.43,4.56
		l-0.01-0.01c1.11,1.09,1.49,2.47,1.62,3.95c0.05,1,0.05,2.01,0.22,3.01c0.12,0.84-0.06,1.61-0.49,2.33
		c-0.19,0.27-0.45,0.44-0.77,0.53c-1.9-0.87-1.26-3.3-2.77-4.41c-0.65-0.7,0.15-1.51-0.18-2.22c-0.52-0.5-1.2-0.28-1.79-0.4
		c-2.4-1.01-0.77-1.99,0.01-2.99C168.27,63.09,165.81,60.61,167.19,58.9z"/>
	<path class="st15" d="M115.81,89.17c-1.19-1.02-3.03,0.14-4.12-1.2c4.65-2.27,9.11-5,14.3-6.03c0.69,0.37,1.28,0.78,0.85,1.7
		C123.36,85.88,118.82,86.02,115.81,89.17z"/>
	<path class="st16" d="M76.44,99.97c-2.43-0.36-2.76-2.21-2.74-4.1c0.04-2.68,0.31-5.35,0.45-8.02c0.07-1.31,0.44-2.7-0.65-3.83
		c-0.21-0.3-0.28-0.64-0.23-1c0.45-0.82,0.26-2.39,2.01-1.73c0.86,1.21,0.64,2.78,1.37,4.04c0.49,1.21,0.83,2.45,0.4,3.75
		c-0.12,0.33-0.29,0.65-0.48,0.95c-1.05,2.84-0.91,5.66,0.13,8.46c0.11,0.35,0.13,0.69,0.07,1.05
		C76.67,99.7,76.55,99.84,76.44,99.97z"/>
	<path class="st17" d="M12.92,84.94c-0.1-0.17-0.12-0.34-0.06-0.53c6.3-2.08,12.96-1.57,19.39-2.73c-1.16,2.73-3.64,2.85-5.89,2.39
		c-3.56-0.73-6.7,0.08-9.82,1.57C15.45,84.78,14.01,85.76,12.92,84.94z"/>
	<path class="st18" d="M75.77,85.68c-0.9-1.37-0.76-2.92-0.78-4.44c-0.45-0.41-0.92-0.8-1.28-1.29c-0.51-0.61-1.1-1.16-1.3-1.97
		c0.04-0.33,0.11-0.65,0.23-0.97c0.8-2.22-1.05-4.77,0.87-6.85c0.2-0.12,0.42-0.21,0.64-0.27c1.75,0.11,1.08,1.48,1.21,2.39
		c0.21,1.5-0.37,3.07,0.41,4.51c0,0.2-0.01,0.4-0.03,0.6C78.18,81.1,78.18,83.52,75.77,85.68z"/>
	<path class="st19" d="M156.69,74.49c1.47,3.92,0.74,7.9,0.4,11.88c-0.43,4.99-0.96,9.98,0.37,14.92c0.26,0.14,0.34,0.28,0.26,0.42
		c-0.09,0.14-0.17,0.21-0.26,0.21c-1.32-0.43-1.52-1.5-1.51-2.67c0.06-4.57,0.13-9.14,0.2-13.7c0.3-2.91,0.3-5.83,0-8.74
		c-0.05-0.78-0.1-1.56-0.15-2.33C156.24,74.14,156.47,74.13,156.69,74.49z"/>
	<path class="st20" d="M142.49,62.57c-2.78,4.08-2.32,5.55,3.05,9.68c-5.66-0.74-6.78-2.5-6.17-9.72c0.89-0.92,2.01-0.61,3.08-0.58
		c0.26,0.13,0.35,0.26,0.27,0.4C142.65,62.49,142.57,62.57,142.49,62.57z"/>
	<path class="st21" d="M134.97,49.88c-1.73,0-3.47,0-5.2,0c-0.38-0.59,0.16-1.35-0.34-1.93c0.06-0.33,0.2-0.61,0.41-0.86
		c1.8-1.31,4.28-1.09,6-2.59c0.58,0.06,0.94,0.4,1.2,0.88c-0.06,1.58,2.1,2.28,1.62,4.03C137.46,49.84,136.13,49.17,134.97,49.88z"
		/>
	<path class="st20" d="M64.75,33.26c-2.4,0.01-3.61,0.96-3.22,3.57c0.21,1.44,0.04,2.94-0.02,4.42c-0.11,2.63,0.92,4.26,3.74,4.43
		c-2.79,0.7-4.8-0.65-5.12-3.6c-0.17-1.57,0.11-3.2-0.05-4.77C59.7,33.67,61.13,32.26,64.75,33.26z"/>
	<path class="st20" d="M101.18,24.51c-3.13,1.55-3.28,4.16-2.4,7.02c0.39,1.26,1.15,2.4,1.74,3.6c-0.8,0.18-1.6,0.35-2.4,0.53
		c-1.44-4.18-3.06-8.39,1.56-11.79C100.45,23.44,101.16,23.19,101.18,24.51z"/>
	<path class="st22" d="M39.83,84.88c2.71,0.95,5.37,2.06,8.25,2.45c-3.93,1.17-7.98,1.24-12.03,1.28c-0.42-1.34,1.44-1.18,1.48-2.22
		C38.3,85.89,39.07,85.39,39.83,84.88z"/>
	<path class="st23" d="M37.54,86.39c0.39,0.23,1.04,0.4,1.1,0.7c0.14,0.63-0.55,0.61-0.99,0.78c-0.55,0.2-1.06,0.49-1.59,0.74
		c-0.5,0.01-1,0.02-1.5,0.02c-1.63-0.78-3.36-0.2-5.04-0.38c-3.33-0.21-6.7,0.44-10-0.38c1.52-1.29,3.35-0.65,5.03-0.7
		C28.88,87.04,33.25,87.37,37.54,86.39z"/>
	<path class="st24" d="M109.54,23.88c-0.07,3.53-0.21,7.06,0.54,10.55c-0.42-0.03-0.84-0.06-1.26-0.09
		c-0.5-0.39-0.88-0.84-0.77-1.52c-0.56-2.48-1.18-4.96-0.03-7.45C108.5,24.83,108.04,23.36,109.54,23.88z"/>
	<path class="st16" d="M178.42,58.86c1.06-0.79,3.01-0.44,3.13-2.42c0.26,0.53,0.51,1.07,0.77,1.6c0.6,1.79,1.1,3.58-0.03,5.37
		c-0.98,0.81-2.16,0.99-3.37,1.04c-0.59-0.05-1.1-0.3-1.57-0.63c-0.62-0.58-1.61-0.98-1.14-2.14c0.29-0.22,0.64-0.41,1-0.37
		C179.93,61.62,179.08,60.2,178.42,58.86z"/>
	<path class="st25" d="M160.47,74.46c0-0.72,0-1.44,0-2.15c0.32-0.41,0.49-0.93,0.88-1.29c1.51-0.96,3.02-1.89,4.94-1.57
		c0.53,0.19,0.97,0.46,0.91,1.12c-1.92,1.59-3.24,3.92-5.83,4.71C160.81,75.28,160.75,74.75,160.47,74.46z"/>
	<path class="st26" d="M137.2,76.58c1.78-0.59,3.2,0.72,4.83,0.9c-1.72,2.34-4.68,1.97-6.93,3.15
		C132.35,77.51,136.36,77.85,137.2,76.58z"/>
	<path class="st16" d="M137.2,76.58c0.07,1.74-3.78,1.48-2.1,4.05c-1.26,0.46-2.51,0.91-3.77,1.37c-1.34,0.3-1.78-0.32-1.61-1.55
		c2.27-1.13,4.64-2.1,6.01-4.43C136.22,76.2,136.71,76.39,137.2,76.58z"/>
	<path class="st27" d="M159.72,100.54c0.03-0.29,0.05-0.59,0.08-0.88c2.43-0.62,4.57,0.85,6.9,0.97c0.68,0.03,1.21,0.36,1.25,1.09
		c0.04,0.78-0.53,1.12-1.19,1.08c-2.93-0.2-5.94,0.64-8.78-0.65c2.28-1.39,4.83-0.58,7.26-0.67c0.47-0.27-0.33-0.61-0.06-0.19
		C163.26,101.76,161.44,101.54,159.72,100.54z"/>
	<path class="st28" d="M88.45,72.95c0.49,3.43-0.14,6.57-2.32,9.46c-1.4-1.38,1.11-2.95-0.49-4.13c-0.54-0.3-0.6-0.78-0.5-1.32
		c0.12-0.32,0.29-0.61,0.51-0.88C86.83,75.27,86.53,73.12,88.45,72.95z"/>
	<path class="st29" d="M137.97,26.85c-0.2,0.04-0.41,0.06-0.61,0.05c-0.5,0.39-1.04,0.44-1.61,0.2c-0.63-0.56-0.71-1.28-0.61-2.05
		c0.38-1.66,1.72-2.58,2.86-3.65c0.48-0.45,0.98-0.89,1.51-1.28c0.16,0.05,0.32,0.08,0.49,0.11c0.91,0.48,0.49,1.31,0.53,2.01
		C140.19,24.05,140.42,26.18,137.97,26.85z"/>
	<path class="st30" d="M128.39,18c-0.59,3.23-2.18,6.52,0.54,9.57c0.27-0.25,0.57-0.27,0.88-0.07c0.16,0.31,0.17,0.64,0.06,0.97
		c-0.47,0.54-1.07,0.83-1.79,0.9c-0.55-0.08-0.91-0.41-1.18-0.87c-0.31-0.59-0.55-1.21-0.76-1.84c-0.29-1.26-0.7-2.51-0.8-3.81
		c0.01-1.12,0.62-2.11,0.66-3.23c0.48-0.57,0.96-1.13,1.44-1.7C127.79,17.58,128.11,17.61,128.39,18z"/>
	<path class="st31" d="M137.97,26.85c1.34-1.2,1.27-3.09,2.21-4.49c1.74,2.01,0.35,3.97-0.07,5.95c-1.05,1.32-1.8,2.8-2.22,4.43
		c-0.65,0.19-1.01,0.1-0.67-0.67C137.71,30.37,138.19,28.66,137.97,26.85z"/>
	<path class="st32" d="M181.49,63.36c1.3-1.61,0.4-3.56,0.82-5.31c0.23,0.28,0.47,0.55,0.7,0.83c0.37,2.23,0.6,4.46-0.12,6.67
		c-0.75,1.48-1.5,2.97-2.26,4.45c-0.21,0.31-0.43,0.32-0.66,0.02c0.25-1.51,1.01-2.95,0.7-4.55c-0.26-0.2-0.38-0.47-0.39-0.8
		C180.4,63.97,180.99,63.7,181.49,63.36z"/>
	<path class="st33" d="M56.29,101.27c1.7,0,3.4,0,5.4,0c-0.93-1.24-2.61-0.2-3.14-1.5c0.22-0.27,0.28-0.7,0.74-0.75
		c1.8,0.33,3.72,0.13,5.3,1.32c0.49,1.42-1.1,1.38-1.54,2.14c-0.55,0.01-1.09,0.02-1.64,0.02c-1.5-0.38-3.09,0.23-4.57-0.42
		C56.67,101.82,56.48,101.55,56.29,101.27z"/>
	<path class="st34" d="M47.67,72.94c-0.89,0-1.78-0.01-2.68-0.01c2.38-1.16,4.8-0.52,7.23-0.2c1.83,0.24,3.7,0.22,5.55,0.32
		c0.47,0.54,0.44,1.08,0.01,1.63c-2.18,1.17-4.33,0.61-6.47-0.13C50.14,73.93,48.6,74.12,47.67,72.94z"/>
	<path class="st22" d="M73.52,70.16c-0.97,2.36,1.14,5.05-0.8,7.31c-0.24,0.25-0.49,0.25-0.73,0c-0.69-2.24,1.82-5.48-2.13-6.69
		c-0.46-0.44-0.51-0.91-0.07-1.4C71.03,69.64,72.27,69.9,73.52,70.16z"/>
	<path class="st34" d="M78.77,36.53c1,0,1.99,0,2.99,0c2.91-1.01,6.02,0.33,8.93-0.75c0,0,0.25-0.02,0.25-0.02
		c0.92,0.31,1.84,0.62,2.76,0.94c-5.71,1.01-11.45,0.7-17.2,0.45c-0.18-0.35-0.12-0.65,0.21-0.89
		C77.41,36.2,78.14,36.01,78.77,36.53z"/>
	<path class="st35" d="M19.51,87.87c3.52,0.01,7.03,0.02,10.55,0.02c0.24,0.16,0.32,0.33,0.24,0.49c-0.08,0.16-0.16,0.24-0.25,0.24
		c-4.34,0.54-8.75-0.51-13.06,0.63c-1.01-1.08-2.41,0.13-3.48-0.59C15.35,87.18,17.52,88.19,19.51,87.87z"/>
	<path class="st36" d="M173.22,77.47c-0.02,1.24-0.04,2.48-0.06,3.72c-0.79,0.17-1.1-0.32-1.25-0.94c-0.18-0.77-0.93-1.45-1.52-1.3
		c-0.03-1.45-0.84-2.96,0.37-4.31c0,0,0.16-0.18,0.16-0.18C174.49,73.37,173.79,75.47,173.22,77.47z"/>
	<path class="st37" d="M129.73,48.45c0.83,0.46,0.09,0.95,0.04,1.43c-4.52-0.1-9.1,1.19-13.53-0.69c-0.21-0.18-0.28-0.35-0.2-0.52
		c0.08-0.17,0.15-0.25,0.22-0.25c3.57,1.46,7.28,0.54,10.93,0.65c0.68,0.02,0.92-0.7,0.98-1.34c0.15-0.07,0.3-0.13,0.46-0.2
		C129.18,47.62,129.43,48.06,129.73,48.45z"/>
	<path class="st33" d="M87.97,97.53c1.01,1.16,0.42,2.11-0.4,3.02c-1.39,0.53-2.75,0.67-4.05-0.26c-0.14-0.12-0.28-0.24-0.42-0.36
		c-0.12-0.36-0.11-0.72,0.02-1.08c0.2-0.32,0.44-0.61,0.72-0.86C85.1,96.86,86.45,96.44,87.97,97.53z"/>
	<path class="st14" d="M138.67,49.18c-1.47-0.8-2.71-1.73-2.18-3.7c1.47-0.69,2.77-0.48,3.92,0.67c1.89,1.68-0.01,2.22-0.94,3.04
		C139.2,49.47,138.93,49.45,138.67,49.18z"/>
	<path class="st38" d="M142.49,62.57c-0.01-0.21-0.02-0.42-0.03-0.62c2.74-0.13,5.47-0.25,8.21-0.38c0.02,0.34,0.03,0.68,0.05,1.02
		c-0.29,0.25-0.34,0.75-0.84,0.76C147.4,63.1,144.83,63.92,142.49,62.57z"/>
	<path class="st19" d="M126,19.62c0.77,0.96,0.5,1.9-0.06,2.84c-0.8,1.05,0.29,2.22-0.21,3.29c-0.7,0.87,0.04,3.28-2.44,2.26
		c-0.9-1.94-0.77-3.79,0.46-5.56c0.21-0.22,0.42-0.44,0.62-0.66C124.92,21.06,125.46,20.34,126,19.62z"/>
	<path class="st39" d="M87.97,97.53c-1.59-0.15-2.98,0.2-3.99,1.53c-0.44-0.73-1.83-0.85-1.43-2.14
		C84.91,94.92,86.77,95.13,87.97,97.53z"/>
	<path class="st40" d="M63.06,102.49c-0.62-1.51,1.12-1.36,1.53-2.14c0.12,0.02,0.25,0.02,0.36,0.06c1.12,0.41,3.24-0.3,3.05,1.56
		c-0.15,1.42-2.03,0.67-3.15,0.75C64.27,102.77,63.66,102.58,63.06,102.49z"/>
	<path class="st35" d="M170.4,78.95c1.13,0.14,1.04-1.21,1.82-1.53c0.62,1.21-0.36,2.77,0.95,3.77c0,0.5-0.01,0.99-0.01,1.49
		c-0.05,0.46-0.31,0.77-0.72,0.97c-0.3,0.05-0.55-0.04-0.77-0.23C171.29,81.92,169.81,80.72,170.4,78.95z"/>
	<path class="st41" d="M170.21,64.83c-1.91-2.21,0.38-5.22-1.46-7.44c0.58-1.27,1.53-2.06,2.93-2.31
		C170.26,58.19,169.99,61.48,170.21,64.83z"/>
	<path class="st19" d="M114.04,35.77c1.45,2.95,0.39,6.08,0.66,9.11c-1.51-2.59-1.35-5.48-1.5-8.31c0,0,0.21-0.24,0.21-0.24
		C113.54,36.05,113.75,35.87,114.04,35.77z"/>
	<path class="st42" d="M75.78,76.79c-1.93-1.98,0.44-4.95-1.62-6.9c0.93-1.43,2.13-2.5,3.82-2.94
		C75.42,69.83,75.67,73.32,75.78,76.79z"/>
	<path class="st22" d="M129.72,80.44c0.31,0.75,0.85,1.26,1.61,1.55c-1.17,1.43-2.89,1.41-4.5,1.64c-0.28-0.57-0.56-1.13-0.85-1.7
		C127.23,81.44,128.47,80.94,129.72,80.44z"/>
	<path class="st43" d="M140.41,46.15c-1.24-0.59-2.74,0.3-3.92-0.67c-0.25-0.23-0.49-0.46-0.74-0.69c-0.51-0.53-0.45-1.06-0.02-1.6
		c0.5-0.02,1-0.05,1.5-0.07C139.1,43.29,140.53,43.92,140.41,46.15z"/>
	<path class="st44" d="M159.72,100.54c2.1-0.15,4.08,0.27,6.96,1.6c-3.59,0-6.15,0-8.71,0c-0.21,0.03-0.38-0.04-0.51-0.2
		c0-0.21,0-0.43,0-0.64C158.28,101.24,159.18,101.42,159.72,100.54z"/>
	<path class="st45" d="M78.91,87.15c-0.06,1.49-0.12,2.98-0.18,4.47c-0.71,0.97,0.07,2.69-1.63,3.17c-0.9-0.16-1.16-0.82-1.25-1.6
		c-0.08-1.33,0.35-2.53,0.98-3.68c0.28-0.86,0.36-1.8,1.06-2.47C78.24,86.9,78.58,86.95,78.91,87.15z"/>
	<path class="st46" d="M69.79,69.38c0.02,0.47,0.05,0.93,0.07,1.4c-0.18,1.62-0.51,3.19-1.53,4.53c-0.46-0.1-0.74-0.37-0.83-0.83
		c0.76-1.73,1.41-3.46,0.04-5.2c-0.27-0.15-0.36-0.3-0.27-0.45c0.09-0.15,0.18-0.23,0.27-0.23C68.47,68.34,69.1,68.94,69.79,69.38z"
		/>
	<path class="st42" d="M108.05,32.81c0.26,0.51,0.51,1.02,0.77,1.52c-2.03-0.01-4.07-0.02-6.1-0.03
		C103.85,31.52,106.29,33.36,108.05,32.81z"/>
	<path class="st19" d="M70.06,38.55c-0.85-2.04-2.8-0.5-4.05-1.23c2.3-1.52,4.89-1.58,7.51-1.5c0.19,0.16,0.27,0.34,0.24,0.54
		c-0.03,0.2-0.06,0.3-0.11,0.3c-0.7,0.47-1.63-0.05-2.3,0.55C70.91,37.66,70.48,38.1,70.06,38.55z"/>
	<path class="st47" d="M167.19,58.9c0.5,1.71,0.88,3.42,0.76,5.23c-0.08,1.22-0.77,0.91-1.47,0.73c-1.5-1.57-1-3.43-0.78-5.25
		c0-0.27-0.01-0.53-0.01-0.8C166.19,58.84,166.69,58.87,167.19,58.9z"/>
	<path class="st47" d="M109.54,23.88c-0.51,0.49-1.02,0.99-1.52,1.48c-2.02-0.27-4.03-0.55-6.05-0.82
		c-0.18-0.65,0.16-0.99,0.73-1.18c2.32,0.87,4.6,0.39,6.87-0.24C109.56,23.38,109.55,23.63,109.54,23.88z"/>
	<path class="st47" d="M83.15,100.8c-2.19-0.67-4.58,0.32-6.71-0.83c0,0,0.13-0.26,0.13-0.26c0.55-0.56,1.1-1.11,1.9-1.32
		c1.8-0.3,3.62-0.61,4.76,1.36l0.03,0.04C83.59,100.17,83.55,100.5,83.15,100.8z"/>
	<path class="st27" d="M59.97,84.15c0.5,0.46,1,0.93,1.49,1.39c-1.69,0.33-3.62-0.46-5.07,1.02c-0.94-1.48-0.1-2.46,0.95-3.39
		C58.39,83.04,59.15,83.68,59.97,84.15z"/>
	<path class="st38" d="M172.39,83.46c0.26-0.26,0.52-0.52,0.77-0.78c1.38,2.1,1.65,4.44,1.48,6.88c-0.68-1.49-1.36-2.98-2.04-4.47
		C172.02,84.61,171.96,84.06,172.39,83.46z"/>
	<path class="st29" d="M82.55,96.91c0.51,0.69,1.62,0.99,1.43,2.14c-0.24-0.01-0.48-0.01-0.72-0.01c-1.53-0.38-3.07-0.72-4.67-0.53
		c-0.35,0.05-0.63-0.07-0.85-0.33c-0.22-0.48-0.22-0.96-0.02-1.45c0.28-0.45,0.66-0.76,1.21-0.81
		C79.93,96.98,81.29,96.78,82.55,96.91z"/>
	<path class="st33" d="M88.45,72.95c-1.04,1.06-0.59,3-2.2,3.73c-0.69-0.66-1.5-1.23-1.73-2.24c0.12-1.3,1.29-1.75,2.07-2.52
		c0.38-0.31,0.82-0.49,1.3-0.6C88.07,71.86,88.26,72.41,88.45,72.95z"/>
	<path class="st48" d="M178.45,99.01c0.75,0.01,1.49,0.02,2.24,0.03c1.09-0.99,2.42-0.68,3.69-0.66c1,0.38,2.14,0.1,3.11,0.63
		c0.42,0.07,0.68,0.26,0.54,0.73c-3.39,0.68-6.78,0.69-10.17-0.01c-0.15-0.21-0.3-0.43-0.45-0.64
		C177.73,98.79,178.08,98.76,178.45,99.01z"/>
	<path class="st30" d="M177.85,99.74c3.39,0,6.78,0,10.17,0.01C184.63,101.16,181.24,100.72,177.85,99.74z"/>
	<path class="st40" d="M74.26,32.82c-0.76-0.27-1.52-0.54-2.28-0.81c2.8-1.36,5.6-1.18,8.4,0.02
		C78.45,33.12,76.19,31.76,74.26,32.82z"/>
	<path class="st33" d="M159.84,99.72c-2.3-1.7-2.36-5.49-0.13-8.13c-0.01,0.51-0.03,1.01-0.04,1.52c-0.56,1.98-0.56,3.96,0,5.93
		C159.82,99.25,159.87,99.47,159.84,99.72z"/>
	<path class="st7" d="M140.1,28.31c-0.01-1.98,0.82-3.96,0.07-5.95c-0.06-0.71-0.12-1.43-0.18-2.14
		C142.12,22.89,141.91,25.59,140.1,28.31z"/>
	<path class="st49" d="M84.64,89.24C84.5,87.5,82.78,85.5,85.35,83C85.05,85.65,84.84,87.45,84.64,89.24z"/>
	<path class="st17" d="M129.75,71.61c-0.03,2.52-1.51,3.81-3.8,4.41C126.73,74.14,128,72.67,129.75,71.61z"/>
	<path class="st50" d="M160.47,74.46c0.3,0.27,0.6,0.54,0.9,0.81c-0.08,2.71-0.16,5.43-0.24,8.14c-0.22,0.26-0.44,0.25-0.67,0.01
		C160.46,80.44,160.47,77.45,160.47,74.46z"/>
	<path class="st35" d="M57.75,83.41c-0.93,0.85-1.49,1.86-1.36,3.16c0.09,0.19,0.09,0.38,0,0.57c-0.28,0.25-0.56,0.25-0.83,0
		c-0.47-2.7,0.65-4.63,2.95-5.99c0.27,0.22,0.4,0.5,0.37,0.84C58.78,82.67,58.53,83.25,57.75,83.41z"/>
	<path class="st47" d="M89.26,32.82c-1.03-0.69-0.51-3.44-2.98-2.22c-0.61,0.43-1.19,0.46-1.73-0.12c1.61-0.72,3.22-1.43,4.84-2.15
		C89.34,29.83,89.3,31.32,89.26,32.82z"/>
	<path class="st43" d="M83.34,79.2c0.74,2.8-2.26,2.18-3.2,3.45c-1.03,0.05-1.03-0.63-0.97-1.35c0.71-1.39,2.33-1.83,3.24-3.02
		c0.33-0.16,0.65-0.13,0.96,0.06c0.18,0.2,0.24,0.39,0.17,0.58C83.47,79.1,83.4,79.2,83.34,79.2z"/>
	<path class="st30" d="M125.26,76.67c-0.22,1.78-1.61,2.04-3.01,2.3c-1.01,0.53-2.03,0.54-3.04-0.01
		C121.23,78.19,123.25,77.43,125.26,76.67z"/>
	<path class="st1" d="M156.16,76.82c0.89,2.91,0.93,5.83,0,8.74C156.16,82.65,156.16,79.73,156.16,76.82z"/>
	<path class="st51" d="M65.24,35.04c0.25-0.47,0.5-0.95,0.75-1.42c1.23-0.31,2.46-0.62,3.69-0.93c0.5,0.12,0.79,0.44,0.86,0.94
		C68.94,34.7,66.95,34.33,65.24,35.04z"/>
	<path class="st47" d="M87.88,71.32c-0.28,0.32-0.55,0.63-0.83,0.95c-1.29-0.01-2.54,0.92-3.86,0.14c-0.21-0.31-0.18-0.6,0.07-0.87
		c0.9-1.45,3.7,0.09,3.91-2.45C87.92,69.67,87.86,70.51,87.88,71.32z"/>
	<path class="st36" d="M74.26,32.82c1.87-1.52,4.1-0.37,6.12-0.8c0.46-0.08,0.91-0.17,1.37-0.25
		C79.51,33.91,76.74,32.34,74.26,32.82z"/>
	<path class="st41" d="M38.55,76.74c-0.11,1.23-0.23,2.47-0.34,3.7c-0.77-0.95-1.62-1.72-2.98-1.54
		C36,77.68,37.22,77.12,38.55,76.74z"/>
	<path class="st27" d="M55.56,87.13c0.28,0,0.56,0,0.83,0c0.77,1.16,0.56,2.47,0.58,3.74C54.64,90.32,55.83,88.45,55.56,87.13z"/>
	<path class="st24" d="M68.29,44.04c0.18-1.36-1.35-1.51-1.85-2.58c0.84-0.38,1.66-0.75,2.47-1.12c0.03,1.22,0.06,2.44,0.08,3.66
		C68.78,44.26,68.54,44.28,68.29,44.04z"/>
	<path class="st8" d="M78.93,95.92c-0.3,0.31-0.59,0.62-0.89,0.93c-0.52-0.09-0.88-0.4-1.12-0.86c-0.13-0.5-0.1-0.96,0.32-1.33
		c0.5-1.01,0.99-2.03,1.49-3.04C78.79,93.06,78.86,94.49,78.93,95.92z"/>
	<path class="st38" d="M119.22,78.96c1.01,0,2.02,0.01,3.04,0.01c-1.65,1.02-3.49,1.36-5.4,1.45
		C117.3,79.39,118.05,78.84,119.22,78.96z"/>
	<path class="st36" d="M59.3,99.03c-0.25,0.25-0.49,0.5-0.74,0.75c-0.41-1.48-1.98-2.78-0.69-4.51
		C58.34,96.52,58.82,97.77,59.3,99.03z"/>
	<path class="st15" d="M54.12,96.1c2.44,0.79,2.16,2.79,2.11,4.69C54.95,99.48,54.77,97.69,54.12,96.1z"/>
	<path class="st52" d="M184.43,99c-1.25,0.01-2.49,0.03-3.74,0.04c-0.25-0.48-0.5-0.97-0.75-1.45c-0.36-0.42-0.3-0.77,0.19-1.04
		c0.46,0.25,0.91,0.51,1.37,0.76C181.92,98.82,184.37,96.86,184.43,99z"/>
	<path class="st30" d="M184.43,99c-0.63-1.16-2.52-0.15-2.94-1.68c2.11,0.16,4.16,0.57,6,1.69C186.47,99.01,185.45,99.01,184.43,99z
		"/>
	<path class="st27" d="M48.7,87.19c0.51-0.76,1.34-0.82,2.13-0.95c0.4-0.3,0.72-0.23,0.97,0.2c0.78,1.23,0.83,2.57,0.66,3.96
		C51.38,89.14,51.67,86.29,48.7,87.19z"/>
	<path class="st53" d="M12.04,96.77c-0.38-3.48,2.92-0.73,3.74-2.18C15.73,97.36,12.89,95.37,12.04,96.77z"/>
	<path class="st15" d="M79.51,81.21c0.21,0.48,0.42,0.96,0.63,1.44c0.09,0.85,0.11,1.68-0.6,2.32c-0.7,0.03-1.3-0.2-1.77-0.73
		c-0.25-0.46-0.3-0.94-0.2-1.44c0.19-0.65,0.5-1.23,1.02-1.68C78.92,80.97,79.22,81.01,79.51,81.21z"/>
	<path class="st13" d="M182.9,65.55c0.04-2.23,0.08-4.45,0.12-6.67C184.04,61.12,184.23,63.35,182.9,65.55z"/>
	<path class="st54" d="M68.29,44.04c0.24,0.01,0.47-0.01,0.71-0.05c-0.5,2.23-2.37,1.22-3.68,1.53
		C65.37,43.18,67.26,44.46,68.29,44.04z"/>
	<path class="st38" d="M67.54,68.61c0,0.22,0,0.45,0,0.67c-1.34-0.02-2.67-0.04-4.01-0.05C64.53,66.88,66.01,67.6,67.54,68.61z"/>
	<path class="st55" d="M172.39,83.46c0.07,0.54,0.14,1.08,0.21,1.63c-0.14,0.53-0.16,1.56-0.9,1.11c-1.19-0.72-0.73-1.83-0.03-2.78
		C171.91,83.43,172.15,83.44,172.39,83.46z"/>
	<path class="st35" d="M139.51,20.11c-0.25,0.51-0.51,1.03-0.76,1.54c-0.44,0.41-0.93,0.46-1.47,0.2c-0.59-0.89,0.14-1.25,0.68-1.68
		c0.89-0.52,0.7-1.39,0.74-2.19C139.47,18.51,139.56,19.28,139.51,20.11z"/>
	<path class="st34" d="M176.26,93.86c0.97,0.02,1.41,0.55,1.45,1.47c0.29,1.1,1.16,2.33-0.67,2.96
		C176.78,96.82,176.52,95.34,176.26,93.86z"/>
	<path class="st17" d="M159.66,99.04c-1.12-1.98-1.09-3.96,0-5.93C159.66,95.09,159.66,97.07,159.66,99.04z"/>
	<path class="st56" d="M73.49,83.42c0.02,0.2,0.03,0.4,0.01,0.6c-1.02,0.05-2.04,0.1-3.07,0.15c0.11-1.39,1.33-1.68,2.27-2.26
		C73.33,82.23,73.47,82.8,73.49,83.42z"/>
	<path class="st38" d="M84.54,30.48c0.58,0.04,1.16,0.08,1.73,0.12c-1.36,1-2.76,1.73-4.45,0.76C82.48,30.3,83.6,30.68,84.54,30.48z
		"/>
	<path class="st33" d="M78.02,84.17c0.63,0.03,1.21,0.15,1.52,0.79c0.07,0.81,0.09,1.6-0.63,2.19c-0.3,0-0.59,0-0.89,0
		C77.14,86.16,77.15,85.17,78.02,84.17z"/>
	<path class="st41" d="M128.39,18c-0.31-0.03-0.63-0.05-0.94-0.08c1.15-1.45,2.6-2.31,4.51-2.24
		C130.77,16.45,129.58,17.23,128.39,18z"/>
	<path class="st57" d="M57.71,74.52c0.02-0.49,0.04-0.98,0.07-1.47c0.73-0.35,1.47-0.7,2.2-1.05c0.11,1.65-0.9,2.55-2.21,3.25
		c-0.25-0.14-0.34-0.3-0.27-0.47C57.56,74.6,57.64,74.52,57.71,74.52z"/>
	<path class="st50" d="M167.2,70.56c-0.25-0.2-0.51-0.4-0.76-0.61c-0.61-0.72-0.26-1.3,0.28-1.84c0.62-0.38,1.24-0.77,1.99-0.32
		c0.94,1.15-0.97,1.49-0.7,2.44C167.73,70.34,167.47,70.45,167.2,70.56z"/>
	<path class="st27" d="M52.66,91.62c1.72,0.83,2.28,2.05,1.28,3.8C52.98,94.32,53.2,92.84,52.66,91.62z"/>
	<path class="st41" d="M35.24,78.87c-0.09,1.89-1.58,2.04-2.95,2.35C32.82,79.87,33.89,79.2,35.24,78.87z"/>
	<path class="st58" d="M102.7,23.36c-0.24,0.39-0.49,0.79-0.73,1.18c-0.26-0.01-0.53-0.02-0.79-0.03c-0.5-0.22-1-0.43-1.5-0.65
		c0-0.25,0-0.51,0-0.76C100.78,22.02,101.69,23.22,102.7,23.36z"/>
	<path class="st36" d="M111.21,85.69c0.21-0.65,0.42-1.3,0.64-1.95c0.71-0.17,1.41-0.34,2.12-0.5
		C113.5,84.56,112.64,85.44,111.21,85.69z"/>
	<path class="st38" d="M160.46,83.42c0.22-0.01,0.45-0.01,0.67-0.01c0.16,1.12,0.22,2.23-0.6,3.17
		C160.2,85.53,159.02,84.51,160.46,83.42z"/>
	<path class="st3" d="M71.34,37.21c0.5-0.86,1.39-0.65,2.17-0.77c1.02-0.37,2.03-0.47,3.02,0.09c0,0.21-0.01,0.41-0.03,0.61
		C74.78,37.17,73.06,37.19,71.34,37.21z"/>
	<path class="st36" d="M180.12,96.56c-0.06,0.35-0.12,0.69-0.19,1.04c-1.12-1.45-1.29-3.02-0.66-4.71
		C180.29,93.94,180.08,95.28,180.12,96.56z"/>
	<path class="st17" d="M116.26,48.43c-0.01,0.25-0.01,0.51-0.02,0.76c-1.13-1-1.56-2.26-1.45-3.73
		C116.1,46.05,116.31,47.18,116.26,48.43z"/>
	<path class="st15" d="M83.15,100.8c0.04-0.33,0.07-0.67,0.11-1c1.33,0.85,2.82,0.79,4.3,0.75
		C86.17,101.92,84.69,101.89,83.15,100.8z"/>
	<path class="st13" d="M179.93,72.99c-0.27,1.74,0.69,3.65-0.73,5.23c0,0-0.03-0.05-0.03-0.05c-0.51-1.73-0.57-3.45,0.03-5.18
		l-0.01,0.01C179.43,72.68,179.67,72.67,179.93,72.99z"/>
	<path class="st53" d="M15.69,93.81c-0.77-0.35-1.55-0.7-2.41-1.09c0.89-0.39,1.68-0.73,2.46-1.07
		C15.72,92.37,15.7,93.09,15.69,93.81z"/>
	<path class="st55" d="M70.55,33.64c-0.29-0.31-0.57-0.63-0.86-0.94c0.67-0.58,1.47-0.71,2.31-0.69
		C72.05,33.01,71.51,33.51,70.55,33.64z"/>
	<path class="st59" d="M137.22,32.07c0.22,0.22,0.45,0.45,0.67,0.67c-0.22,0.77-0.44,1.55-0.66,2.32
		C135.29,34.08,136.18,33.07,137.22,32.07z"/>
	<path class="st8" d="M156.69,74.49l-0.34-0.01c0,0-0.34,0-0.34,0c-0.15-0.15-0.24-0.33-0.26-0.54c0.08-1.33,0.16-2.65,0.24-3.98
		C157.31,71.31,156.55,72.97,156.69,74.49z"/>
	<path class="st52" d="M177.04,98.29c1-0.81,0.55-1.95,0.67-2.96c1.22,1.03,0.56,2.44,0.74,3.68c-0.35,0.03-0.7,0.05-1.05,0.08
		C177.28,98.83,177.16,98.56,177.04,98.29z"/>
	<path class="st15" d="M146.1,72.34c1.3,0,2.68-0.49,3.83,0.55c-1.26,0.31-2.53,0.63-3.8,0.94
		C146.12,73.34,146.11,72.84,146.1,72.34z"/>
	<path class="st43" d="M138.67,49.18c0.27,0.01,0.54,0.01,0.8,0.02c-1.27,1.73-2.98,0.63-4.5,0.69
		C136.03,48.74,137.42,49.32,138.67,49.18z"/>
	<path class="st57" d="M30.05,88.62c0-0.24,0-0.49,0-0.73c1.5,0.23,3.18-0.61,4.49,0.74C33.05,88.63,31.55,88.63,30.05,88.62z"/>
	<path class="st38" d="M56.86,102.1c1.53,0.08,3.12-0.5,4.57,0.42C59.87,102.72,58.3,103.05,56.86,102.1z"/>
	<path class="st29" d="M174.79,90.12c2.01,0.39,1.25,1.95,1.35,3.14C175.69,92.21,175.24,91.17,174.79,90.12z"/>
	<path class="st60" d="M114.6,93.82c-1.99-0.75-1.73-1.46,0.03-2.16C114.61,92.38,114.6,93.1,114.6,93.82z"/>
	<path class="st61" d="M179.93,72.99c-0.25,0.01-0.49,0.02-0.74,0.02c0.08-1.05-0.34-2.22,0.8-2.99c0.22,0.01,0.44,0,0.66-0.02
		C180.4,71,180.17,72,179.93,72.99z"/>
	<path class="st16" d="M85.7,76.83c-0.02,0.48-0.04,0.97-0.06,1.45c-0.54,0.21-1.09,0.43-1.63,0.64c-0.24-0.21-0.38-0.47-0.42-0.79
		c-0.01-0.32,0.06-0.61,0.2-0.89c0.28-0.39,0.64-0.68,1.12-0.8C85.24,76.44,85.5,76.57,85.7,76.83z"/>
	<path class="st14" d="M84.01,78.23C84,78.46,84,78.69,84,78.92c-0.2,0.14-0.42,0.24-0.67,0.27c-0.02-0.32-0.05-0.65-0.07-0.97
		c0.12-0.1,0.25-0.19,0.37-0.29C83.76,78.04,83.88,78.13,84.01,78.23z"/>
	<path class="st9" d="M160.41,60.43c1.28-1.21,2.56-1.22,3.83,0.01c0.92,1.7-0.14,2.73-1.26,3.75c-0.37,0.15-0.69,0.08-0.95-0.23
		C162.19,62.47,161.15,61.52,160.41,60.43z"/>
	<path class="st62" d="M162.03,63.97c0.22,0.03,0.43,0.06,0.65,0.08c2.58,1.97,1.77,3.77-0.27,5.51c-0.43,0.1-0.81,0.01-1.15-0.26
		C161.52,67.52,161.77,65.75,162.03,63.97z"/>
	<path class="st23" d="M156,68.61c-0.28-0.73-0.57-1.46-0.85-2.18c0.49-0.12,1.09-0.85,1.44,0C156.91,67.2,156.78,68.04,156,68.61z"
		/>
	<path class="st50" d="M161.26,69.3c0.23-0.01,0.47-0.01,0.7-0.01c0.9,1.1-0.01,1.64-0.71,2.24c-0.26,0.26-0.52,0.52-0.78,0.78
		C160.32,71.2,160.69,70.22,161.26,69.3z"/>
	<path class="st63" d="M57.71,74.52c0.04,0.24,0.06,0.48,0.06,0.73c-0.48,0.49-0.96,0.98-1.45,1.47c-1.09,1.3-2.31,2.49-3.22,3.93
		c-0.62,0.97-1.43,1.84-1.73,2.99c-0.19,0.52-0.51,0.83-1.11,0.67l-0.01-0.09c-3.78-2.34-5.05-5.66-3.14-8.57
		c0.87-1.33,1.94-2.65,3.92-1.92C53.26,73.95,55.42,74.82,57.71,74.52z"/>
	<path class="st15" d="M52.54,80.45c1.18-1.32,1.77-3.23,3.78-3.73c-0.29,1.97-2,3.01-3.03,4.49
		C52.84,81.16,52.76,80.74,52.54,80.45z"/>
	<path class="st64" d="M67.5,74.48c0.28,0.28,0.55,0.55,0.83,0.83c-0.2,1.14-0.62,2.17-1.53,2.94c-0.04-0.65-0.17-1.25-0.83-1.58
		C66.48,75.94,66.99,75.21,67.5,74.48z"/>
	<path class="st16" d="M52.54,80.45c0.25,0.25,0.5,0.5,0.75,0.76c-0.49,0.74-0.98,1.49-1.47,2.23c-0.25,0.36-0.5,0.35-0.76,0.01
		C50.93,82.15,52.09,81.47,52.54,80.45z"/>
	<path class="st40" d="M65.25,76.73c-0.77,1.08-1.95,0.65-2.98,0.81C62.99,76.26,63.79,75.29,65.25,76.73z"/>
	<path class="st14" d="M58.55,82c-0.01-0.29-0.03-0.57-0.04-0.86c0.76-0.77,1.52-1.53,2.28-2.3c0.14,1.43-1.19,2.11-1.68,3.21
		C58.89,82.31,58.71,82.3,58.55,82z"/>
	<path class="st55" d="M51.06,83.45c0.25,0,0.51-0.01,0.76-0.01c0,1-0.01,2.01-0.01,3.01c-0.32-0.07-0.65-0.13-0.97-0.2
		c0.22-0.77-0.25-1.33-0.58-1.94C50.53,84.03,50.79,83.74,51.06,83.45z"/>
	<path class="st65" d="M119.2,39.53c-0.02-0.51-0.03-1.02-0.05-1.54c-0.33-0.51-0.32-1.04-0.07-1.58c2.44-0.46,4.33-3.07,7.22-1.87
		c1.11,3.83,1.1,7.66,0.05,11.49c-2.61,0.46-5.11,0.29-7.33-1.35C118.89,42.96,118.57,41.23,119.2,39.53z"/>
	<path class="st21" d="M123.76,22.45c0,1.96-0.01,3.92-0.01,5.88c1.27,0.97,1.63,2.27,1.41,3.79c-0.09,0.41-0.27,0.78-0.52,1.12
		c-1.39,1.31-2.94,1.5-4.62,0.6c-0.9-1.34,0.04-2.28,0.73-3.28c0-0.71-0.01-1.42-0.01-2.13c-0.16-1.03,0.87-2.05,0.04-3.09
		C120.85,23.44,122.43,23.07,123.76,22.45z"/>
	<path class="st34" d="M119.47,44.66c1.95,1.26,4.37,0.57,6.4,1.5c0.46-0.37,0.97-0.43,1.53-0.23c0.65,0.41,1.16,0.9,0.86,1.76
		c0,0-0.09,0.04-0.09,0.04c-3.21-1.04-6.89-0.59-9.66-3.01C118.8,44.32,119.12,44.3,119.47,44.66z"/>
	<path class="st62" d="M120.74,30.56c-0.24,0.98-0.48,1.97-0.72,2.95c0.3,1.19,0,2.26-0.69,3.25c-0.06,0.41-0.12,0.82-0.18,1.24
		C116.96,34.94,118.35,32.64,120.74,30.56z"/>
	<path class="st43" d="M119.47,44.66c-0.32,0.02-0.64,0.04-0.96,0.06c0.24-1.73-0.69-3.61,0.7-5.19
		C119.29,41.24,119.38,42.95,119.47,44.66z"/>
	<path class="st66" d="M114.04,35.77c-0.21,0.19-0.42,0.37-0.64,0.56c-0.03-1.7-0.73-3.46,0.5-5.04
		C113.94,32.78,113.99,34.28,114.04,35.77z"/>
	<path class="st67" d="M120.77,25.34c0.98,1.04,0.97,2.07-0.04,3.09c-0.64-0.36-0.76-0.94-0.69-1.61
		C120.63,26.5,120.71,25.92,120.77,25.34z"/>
	<path class="st36" d="M113.26,27.63c0.22,0.53,0.41,0.8,0.41,1.08c0,0.18-0.25,0.45-0.44,0.53c-0.54,0.23-0.68-0.2-0.62-0.56
		C112.65,28.39,112.93,28.14,113.26,27.63z"/>
	<path class="st51" d="M12.92,84.94c1.22,0.14,2.6-0.5,3.61,0.69c-1.27-0.01-2.55-0.01-3.82-0.01
		C12.73,85.38,12.8,85.15,12.92,84.94z"/>
	<path class="st22" d="M51.03,73.74c-4.99,2.24-5.23,5.49-0.78,10.49c-4.73-1.16-6.47-5.17-3.95-9.12c0.46-0.72,0.92-1.44,1.38-2.16
		C48.79,73.2,50.13,72.56,51.03,73.74z"/>
	<path class="st27" d="M90.68,35.79c-2.86,1.57-5.96,0.36-8.93,0.75C84.62,35,87.72,36.18,90.68,35.79z"/>
	<path class="st27" d="M76.52,36.53c-1.01-0.03-2.02-0.06-3.02-0.09c0.01-0.21,0.01-0.42,0.01-0.62c1.75,0.23,3.66-0.68,5.26,0.71
		C78.02,36.53,77.27,36.53,76.52,36.53z"/>
	<path class="st24" d="M149.87,63.34c0.28-0.25,0.56-0.51,0.84-0.76c-0.67,2.24,1.35,4.44,0.07,6.68
		C149.52,67.44,150.03,65.34,149.87,63.34z"/>
	<path class="st51" d="M131.13,40.99c0.12,1.97,0.03,4.13,3.08,3.69c-0.63,2.6-2.7,1.73-4.38,1.8c-1.36-1.24-1.1-2.96-1.38-4.53
		c0.04-0.42,0.19-0.79,0.44-1.12C129.67,40.35,130.42,40.39,131.13,40.99z"/>
	<path class="st43" d="M131.13,40.99c-0.7,0-1.41-0.01-2.11-0.01c-0.69-0.53-0.78-1.28-0.74-2.07c0.07-0.76,0.31-1.49,0.5-2.23
		c0.37-0.82,0.4-1.99,1.81-1.74C131.86,36.87,131.05,38.97,131.13,40.99z"/>
	<path class="st47" d="M135,29.85c-1.43,1.28-2.85,2.56-4.28,3.83c-1.1,0.39-1.31-0.38-1.53-1.14c-0.05-1.23,0.59-2.08,1.54-2.76
		c1.09-0.55,2.28-0.08,3.41-0.28C134.46,29.51,134.75,29.63,135,29.85z"/>
	<path class="st48" d="M129.77,46.18c1.68,0.08,3.32,0.05,4.44-1.49c0.23-0.78,0.57-1.45,1.52-1.5c0.01,0.53,0.02,1.07,0.02,1.6
		c-1.08,2.8-4.15,1.66-5.98,2.98C129.27,47.24,129.33,46.71,129.77,46.18z"/>
	<path class="st6" d="M130.58,34.95c-0.92,0.53-0.83,1.45-0.87,2.31c-1.05,0.37-1.88,0.05-2.54-0.8c-0.22-0.59-0.18-1.15,0.12-1.7
		c0.93-1.08,1.98-1.29,3.18-0.45C130.54,34.52,130.58,34.73,130.58,34.95z"/>
	<path class="st19" d="M130.48,34.31c-1.1-0.13-2.06,0.24-3,0.74c-0.39-0.36-0.48-0.82-0.42-1.32c0.15-0.65,0.46-1.22,0.9-1.72
		c0.26-0.21,0.56-0.33,0.89-0.37c0.34,0.02,0.62,0.16,0.85,0.41c0.05,0.73,0.27,1.34,1.02,1.64
		C130.66,33.9,130.58,34.11,130.48,34.31z"/>
	<path class="st37" d="M135.71,26.86c0.55,0.02,1.1,0.03,1.64,0.05c-0.14,1.07-1.1,1.48-1.75,2.13c-1.53-0.15-1.18-1.12-0.9-2.05
		C135.01,26.65,135.34,26.61,135.71,26.86z"/>
	<path class="st33" d="M134.95,26.89c0.04,0.77-0.13,1.6,0.65,2.15c-0.2,0.27-0.41,0.54-0.61,0.81c-0.24,0-0.49,0.01-0.73,0.01
		c-0.83-0.34-1.47-0.86-1.75-1.74C132.93,26.91,133.71,26.45,134.95,26.89z"/>
	<path class="st68" d="M135.94,36.26c0.84,0.92,0.38,1.7,0.58,3.19C135.51,38,135.78,37.22,135.94,36.26z"/>
	<path class="st17" d="M78.02,84.17c0,0.99,0,1.98,0,2.98c-0.26,0.72-0.52,1.45-0.78,2.17c-0.22,0.3-0.46,0.31-0.71,0.04
		c0.07-1.29-0.05-2.55-0.76-3.68c1.96-2.77-0.02-5.53-0.02-8.29c1.34,0.24,1.97-1.01,3.01-1.4c0.12,0.12,0.23,0.25,0.35,0.37
		c0.88,2.32-1.58,4.06-1.09,6.31C78.02,83.17,78.02,83.67,78.02,84.17z"/>
	<path class="st55" d="M83.26,72.26c1.26,0.18,2.53-1.58,3.79,0.01c-0.77,0.74-1.53,1.49-2.3,2.23c-0.23,0.73-0.79,1.03-1.49,1.15
		c-1.26-0.09-2.64,0.74-3.76-0.45c0.26-0.23,0.51-0.47,0.77-0.7C80.96,73.34,81.77,72.35,83.26,72.26z"/>
	<path class="st36" d="M83.26,72.26c-1,0.75-1.99,1.49-2.99,2.24c-0.46-2.45,1.59-2.38,3-2.96C83.27,71.78,83.26,72.02,83.26,72.26z
		"/>
	<path class="st22" d="M79.51,75.19c1.24,0.6,2.52-1.29,3.76,0.05c-0.09,0.54-0.39,0.92-0.83,1.22c-0.94,0.52-1.9,0.76-2.92,0.2
		c-0.26-0.22-0.51-0.44-0.75-0.68c0,0,0.01,0.01,0.01,0.01C79.01,75.73,79.26,75.46,79.51,75.19z"/>
	<path class="st22" d="M176.18,61.87c0.5,0.48,1,0.97,1.5,1.45c-0.63,1.03-1.72,1.35-2.75,1.78c-0.32,0.08-0.64,0.07-0.96,0.01
		c-0.84-0.31-1.18-1.03-1.51-1.77c1.14-1.65,2.23-3.35,4.45-3.72C178.08,60.83,176.48,61.14,176.18,61.87z"/>
	<path class="st55" d="M176.18,61.87c-0.59-1.02,1.17-1.28,0.74-2.25c0.5-0.25,1-0.51,1.5-0.76c0.52,1.05,1.8,0.44,2.5,1.11
		C179.94,62.12,178.13,62.17,176.18,61.87z"/>
	<path class="st69" d="M171.02,69.25c-0.27-1.48-0.55-2.96-0.82-4.44c0.5,0,1,0.01,1.5,0.01c0.78,0.22,1.15,0.79,1.31,1.53
		c0.11,1.14-0.26,2.11-1.04,2.93C171.65,69.51,171.33,69.49,171.02,69.25z"/>
	<path class="st29" d="M172.5,66.37c-0.27-0.51-0.54-1.03-0.81-1.54c0.26-0.49,0.51-0.99,0.77-1.48c0.71,0.27,1.19,0.77,1.47,1.47
		C174.26,66.06,173.63,66.44,172.5,66.37z"/>
	<path class="st69" d="M161.25,71.53c0.24-0.75,0.47-1.5,0.71-2.24c1.67-1.55,1.87-3.3,0.72-5.24c0.52-1.2,1.04-2.41,1.56-3.61
		c0.49-0.28,0.98-0.56,1.46-0.84c1.45,1.58,0.41,3.52,0.78,5.25c0.26,0.73-2.34,1.42-0.03,2.18c0.53,0.34,1.12,0.65,0.72,1.45
		c-0.24,0.49-0.49,0.98-0.73,1.46C164.5,69.82,163.11,71.44,161.25,71.53z"/>
	<path class="st51" d="M129.76,27.61c-0.28-0.01-0.56-0.03-0.84-0.04c0.43-2.33,1.79-3.98,3.78-5.18c0.57-0.43,0.83-0.03,1.09,0.39
		c0.23,0.93,1.48,1.33,1.32,2.46C133.48,26.36,132.13,28.12,129.76,27.61z"/>
	<path class="st22" d="M133.46,23.09c-0.25-0.24-0.5-0.47-0.75-0.71c1.49-1.35,3.19-2.21,5.26-2.22c-0.25,0.49-0.51,0.98-0.76,1.46
		C136.21,22.76,135.16,23.73,133.46,23.09z"/>
	<path class="st52" d="M58.55,82c0.19-0.01,0.38,0,0.56,0.05c0.29,0.7,0.58,1.41,0.86,2.11c-0.83,0-1.69,0.13-2.22-0.74
		C58.01,82.94,58.28,82.47,58.55,82z"/>
	<path class="st26" d="M173.22,77.47c0.04-1.61,0.08-3.21-2.29-3c0.27-0.74,0.54-1.47,0.81-2.21c0.74-0.65,1.48-0.58,2.22,0
		c0.57,1.21,1.44,2.3,1.42,3.73C174.25,75.88,173.97,77.01,173.22,77.47z"/>
	<path class="st51" d="M175.42,76.74c1.19,1.81,1.84,3.81,2.17,5.93C175.66,81.13,175,79.13,175.42,76.74z"/>
	<path class="st29" d="M173.97,72.27c-0.74,0-1.48,0-2.23,0c-1.16-0.79-0.69-1.96-0.73-3.01c0.24,0.02,0.48,0.02,0.72,0.02
		c0.68-0.61,1.33-1.3,2.35-0.6c0.24,0.32,0.23,0.63-0.05,0.93C174.02,70.49,173.99,71.38,173.97,72.27z"/>
	<path class="st42" d="M181.49,63.36c-0.32,0.5-0.65,1-0.97,1.5c-0.99,0.72-2.46,0.89-2.78,2.39c0.03,0.21-0.02,0.39-0.15,0.55
		c-0.31,0.2-0.62,0.2-0.93,0c-0.71-0.76-1.43-1.51-1.48-2.64c0.85-1.03,1.97-1.29,3.24-1.11C179.39,63.58,180.38,63.18,181.49,63.36
		z"/>
	<path class="st40" d="M177.75,67.25c-0.05-1.92,1.06-2.51,2.78-2.39c0.06,0.2,0.11,0.41,0.15,0.61
		C179.7,66.07,178.72,66.66,177.75,67.25z"/>
	<path class="st36" d="M176.95,67.8c0.21,0.01,0.43,0.01,0.64,0.01c-0.26,2.39-2.38,1.17-3.55,1.8c-0.04-0.36-0.08-0.72-0.13-1.08
		c0.11-0.12,0.22-0.24,0.32-0.36C175.1,67.74,175.95,67.2,176.95,67.8z"/>
	<path class="st49" d="M179.2,73c-0.01,1.73-0.02,3.45-0.03,5.18C178.05,76.44,178.02,74.72,179.2,73z"/>
	<path class="st55" d="M73.49,83.42c-0.64-0.31-0.73-0.9-0.79-1.5c0.06-0.24,0.1-0.47,0.11-0.72c0.32-0.66,0.58-1.38,1.46-1.49
		c0.61,0.34,0.72,0.9,0.71,1.52C74.49,81.97,73.99,82.7,73.49,83.42z"/>
	<path class="st22" d="M74.28,79.71c-0.49,0.5-0.98,0.99-1.46,1.49c-0.26-0.5-0.53-1-0.79-1.5c-0.39-0.8,0.06-1.18,0.73-1.47
		C73.49,78.5,73.99,79,74.28,79.71z"/>
	<path class="st41" d="M72.75,78.24c-0.24,0.49-0.48,0.98-0.73,1.47c-1.17-0.72-2.35-1.45-0.04-2.23c0.24,0.01,0.49,0.01,0.73,0
		C72.73,77.72,72.74,77.98,72.75,78.24z"/>
	<path class="st33" d="M167.17,68.49c-0.24-0.48-0.48-0.97-0.72-1.45c0.98-0.42,2.06-1.15,2.25,0.75
		C168.19,68.03,167.68,68.26,167.17,68.49z"/>
	<path class="st70" d="M77.24,94.67c0,0.46,0.01,0.93,0.01,1.39c0,0.61,0.01,1.22-0.06,1.82c-0.08,0.47-0.27,0.88-0.69,1.16
		c-2.75-3.04-1.66-6.35-0.71-9.66c1.26,1.09-0.16,2.65,0.66,3.82C76.49,93.81,76.66,94.34,77.24,94.67z"/>
	<path class="st18" d="M76.46,93.2c-1.14-1.12-0.52-2.53-0.66-3.82c0.24,0,0.49,0,0.73-0.02c0.24,0.01,0.47-0.01,0.71-0.04
		C76.98,90.62,76.72,91.91,76.46,93.2z"/>
	<path class="st35" d="M76.51,99.04c0.03-0.5,0.06-1,0.09-1.5c0.79-0.34,1.01,0.34,1.37,0.76l0.12-0.01
		c0.21,0.18,0.28,0.35,0.19,0.51c-0.08,0.16-0.16,0.24-0.24,0.24c-0.33,0.58-0.86,0.74-1.48,0.68
		C76.54,99.49,76.51,99.27,76.51,99.04z"/>
	<path class="st55" d="M129.77,46.18c0,0.53,0.01,1.06,0.01,1.58c-0.02,0.23-0.03,0.45-0.05,0.68c-0.49-0.25-0.97-0.51-1.46-0.76
		c-0.25-0.48-0.51-0.96-0.76-1.45c0-0.16-0.01-0.31-0.01-0.47c0.03-0.78,0.05-1.55-0.12-2.32c-0.09-0.8-0.36-1.68,0.74-2.05
		c0.35-0.02,0.64,0.11,0.86,0.38C129.95,43.12,129.66,44.69,129.77,46.18z"/>
	<path class="st48" d="M178.43,64.06c-0.99,0.51-1.98,1.01-2.97,1.52c-0.3,0.18-0.61,0.2-0.93,0.04c-0.2-0.32-0.14-0.6,0.16-0.82
		c0.77-0.95,1.82-1.34,3-1.47C177.93,63.57,178.18,63.81,178.43,64.06z"/>
	<path class="st43" d="M82.51,75.98c0.25-0.25,0.5-0.49,0.76-0.74c0.5-0.25,1-0.5,1.5-0.74c0.98,0.41,1.49,1.12,1.49,2.19
		c-0.17,0.09-0.36,0.14-0.55,0.15c-0.32-0.03-0.63-0.06-0.95-0.09c-0.21,0.2-0.45,0.32-0.74,0.36c-0.29,0.06-0.56,0.04-0.83-0.09
		C82.81,76.76,82.56,76.43,82.51,75.98z"/>
	<path class="st50" d="M129.76,27.61c1.73-0.99,3.45-1.97,5.18-2.96c0.27-0.19,0.53-0.2,0.8-0.01c-0.01,0.74-0.02,1.48-0.03,2.22
		c-0.25,0.01-0.51,0.02-0.76,0.03c-0.74,0.49-1.48,0.98-2.23,1.47c-0.16,0.8-0.76,1.18-1.45,1.47c-0.53,0.74-1.05,1.48-1.58,2.23
		c-0.24,0.01-0.47,0.02-0.7,0.03c-1.25-1.51-0.22-2.6,0.69-3.72C129.71,28.11,129.74,27.86,129.76,27.61z"/>
	<path class="st8" d="M135.75,24.64c-0.27,0-0.54,0.01-0.8,0.01c-0.78-0.25-2.12,0.02-1.48-1.56c1.25-0.49,2.5-0.98,3.74-1.46
		c0.51,0.01,1.03,0.02,1.54,0.02C137.75,22.65,136.75,23.65,135.75,24.64z"/>
	<path class="st71" d="M125.21,25.4c0.17-1-0.35-2.18,0.74-2.95c0.3,1.45,1.07,2.81,0.82,4.36c0.14,1.43-0.76,1.15-1.6,0.95
		C124.77,26.97,124.72,26.18,125.21,25.4z"/>
	<path class="st71" d="M128.28,32.05c-0.07,0.59-0.15,1.16-0.77,1.47c-0.65-0.31-0.98-0.88-1.26-1.5c-0.18-0.48-0.27-0.98-0.3-1.5
		c-0.01-0.35,0.02-0.69,0.08-1.04c0.25-0.63,0.39-1.41,1.4-1.11c0.24,0.27,0.49,0.54,0.73,0.81
		C128.92,30.11,128.67,31.08,128.28,32.05z"/>
	<path class="st63" d="M128.28,32.05c-0.04-0.96-0.08-1.91-0.12-2.87c0.32-0.61,0.87-0.81,1.53-0.82c-0.23,1.24-0.46,2.48-0.69,3.72
		C128.76,32.07,128.52,32.06,128.28,32.05z"/>
	<path class="st8" d="M127.43,28.37c-0.58,0.32-0.69,0.87-0.7,1.46c-1.72,0.05-1.73-0.99-1.45-2.23c0.63-0.02,1.18-0.19,1.49-0.8
		C127.33,27.19,127.47,27.74,127.43,28.37z"/>
	<path class="st63" d="M78.05,99.03c0.01-0.25,0.03-0.5,0.04-0.75c1.9-0.94,3.54-0.11,5.16,0.76c0,0.24-0.01,0.47-0.02,0.71
		C81.61,98.79,79.8,99.13,78.05,99.03z"/>
	<path class="st41" d="M125.28,27.61c0.48,0.74,0.97,1.48,1.45,2.23c-0.01,0.26-0.03,0.52-0.04,0.78c-0.62,0.65-0.77,1.98-2.18,1.49
		c-0.25-1.26-0.51-2.52-0.76-3.78c1.22-0.61,0.25-2.3,1.46-2.92C125.23,26.14,125.26,26.87,125.28,27.61z"/>
	<path class="st71" d="M77.97,98.3c-0.46-0.25-0.92-0.51-1.38-0.76c-0.02-0.6,0.09-1.13,0.65-1.48c0.26,0.26,0.53,0.53,0.79,0.8
		C78.02,97.33,78,97.82,77.97,98.3z"/>
	<path class="st6" d="M79.51,81.21c-0.23-0.02-0.47-0.04-0.7-0.05c-0.48-1.69,0.94-2.26,1.86-3.14c0.46-0.24,0.95-0.3,1.45-0.13
		c0.13,0.11,0.25,0.22,0.38,0.32C82.94,80.63,80.73,80.43,79.51,81.21z"/>
	<path class="st70" d="M83.27,78.23c-0.26,0-0.51-0.01-0.77-0.01c0,0,0.02,0.01,0.02,0.01c-0.18-0.2-0.24-0.4-0.17-0.6
		c0.07-0.19,0.13-0.29,0.19-0.29c0.64-0.03,1.02,0.14,0.71,0.87L83.27,78.23z"/>
	<path class="st45" d="M81.08,78.25c-0.75,0.97-1.51,1.94-2.26,2.91c-0.26,0.5-0.53,1.01-0.79,1.51c-2.17-2.49,1.47-4.35,0.73-6.69
		c0.25,0.03,0.5,0.04,0.74,0.06C79.94,76.84,80.88,77.28,81.08,78.25z"/>
	<path class="st47" d="M83.25,78.21c-0.24-0.24-0.47-0.48-0.71-0.72c-0.18-0.63-0.11-1.03,0.7-0.78c0.26,0.01,0.52,0.02,0.78,0.03
		c0.18,0.16,0.24,0.32,0.18,0.48c-0.06,0.16-0.13,0.24-0.19,0.24c0,0.26,0,0.51-0.01,0.77C83.76,78.22,83.5,78.21,83.25,78.21z"/>
	<path class="st21" d="M84.01,77.46c0-0.24,0-0.48,0.01-0.72c0.24-0.01,0.48-0.01,0.72-0.01C84.5,76.98,84.26,77.22,84.01,77.46z"/>
	<path class="st29" d="M126.7,32.03c0.63,0.31,0.78,0.87,0.82,1.49c-0.01,0.51-0.03,1.02-0.04,1.53c0,0.49,0,0.99,0,1.48
		c0.31,0.74,0.19,1.6,0.63,2.31c0.02,0.95,0.4,1.89,0.12,2.86c-0.87,0.5-0.07,1.06-0.06,1.59c-0.72,0.86,0.25,2.11-0.69,2.91
		c0,0,0.02,0.04,0.02,0.04c-0.54-0.03-1.08-0.06-1.62-0.08c-0.33-4.01,1.32-8.12-0.63-12.04c-0.21-0.26-0.26-0.54-0.17-0.86
		C125.49,32.68,125.55,31.65,126.7,32.03z"/>
	<path class="st10" d="M125.27,33.58c-0.01,0.18-0.02,0.36-0.02,0.54c-1.59,1.71-3.43,2.89-5.91,2.64
		c-0.08-1.15-0.45-2.35,0.69-3.25c1.56,0.18,3.08,0.15,4.47-0.7C125.19,32.62,125.51,32.82,125.27,33.58z"/>
	<path class="st67" d="M125.27,33.58c-0.26-0.26-0.52-0.51-0.78-0.77c0-0.23,0.01-0.47,0.02-0.7c0.73-0.5,1.46-0.99,2.18-1.49
		c0,0.47,0,0.94,0,1.42C126.22,32.54,125.74,33.06,125.27,33.58z"/>
	<path class="st21" d="M128.23,41.7c-0.53-0.9-0.85-1.86-0.74-2.92c0.5-0.46,0.99-0.46,1.48,0.01c0.02,0.73,0.04,1.46,0.06,2.2
		c-0.01,0.27-0.03,0.53-0.04,0.8C128.73,41.75,128.48,41.73,128.23,41.7z"/>
	<path class="st38" d="M128.96,38.79c-0.49,0-0.98-0.01-1.48-0.01c-0.47-0.75-0.46-1.49,0-2.24c0.74,0.24,1.49,0.48,2.23,0.72
		C129.46,37.77,129.21,38.28,128.96,38.79z"/>
	<path class="st6" d="M131.28,29.82c0.23-0.73,0.75-1.19,1.45-1.47c0.99,0.02,1.46,0.56,1.54,1.5
		C133.26,31.19,132.27,30.27,131.28,29.82z"/>
	<path class="st50" d="M83.25,76.71c-0.23,0.26-0.47,0.52-0.7,0.78c-0.02,0.25-0.03,0.49-0.03,0.74c-0.48,0.01-0.96,0.01-1.44,0.02
		c-0.99-0.41-1.55-1.12-1.58-2.21c1.02,0.63,2.01,0.01,3.01-0.06C82.75,76.22,83,76.47,83.25,76.71z"/>
	<path class="st55" d="M174.69,64.8c0.02,0.28,0.04,0.57,0.06,0.85c0.86,1.29-0.04,2.07-0.83,2.88c0,0,0-0.01,0-0.01
		c-0.72,0.25-1.45,0.51-2.17,0.76c0.25-0.97,0.51-1.94,0.76-2.9c0.48-0.52,0.96-1.04,1.44-1.56
		C174.19,64.82,174.44,64.81,174.69,64.8z"/>
	<path class="st26" d="M173.92,68.53c0.28-0.96,0.56-1.92,0.83-2.88c0.23-0.04,0.47-0.06,0.71-0.07c0.99,0.41,1.48,1.16,1.49,2.22
		C176.01,68.32,175.02,68.65,173.92,68.53z"/>
	<path class="st6" d="M127.48,46.2c0.11-1-0.35-2.13,0.69-2.91C128.3,44.35,129.3,45.6,127.48,46.2z"/>
</g>
</svg>
