<?xml version="1.0" encoding="utf-8"?>
<!-- Generator: Adobe Illustrator 24.2.1, SVG Export Plug-In . SVG Version: 6.00 Build 0)  -->
<svg version="1.1" id="Calque_1" xmlns="http://www.w3.org/2000/svg" xmlns:xlink="http://www.w3.org/1999/xlink" x="0px" y="0px"
	 viewBox="0 0 81.75 133" style="enable-background:new 0 0 81.75 133;" xml:space="preserve">
<style type="text/css">
	.st0{fill:#FEFEFE;}
	.st1{fill:#FFDCC4;}
	.st2{fill:#74C5A0;}
	.st3{fill:#FFDBC3;}
	.st4{fill:#FFC49D;}
	.st5{fill:#469470;}
	.st6{fill:#FFDAC1;}
	.st7{fill:#FFD7BC;}
	.st8{fill:#FFC299;}
	.st9{fill:#FFD9C0;}
	.st10{fill:#FAFAFA;}
	.st11{fill:#FFE7D7;}
	.st12{fill:#FFDAC2;}
	.st13{fill:#FFD6BA;}
	.st14{fill:#FFD5B9;}
	.st15{fill:#73C59F;}
	.st16{fill:#C1C1C1;}
	.st17{fill:#FFCEAC;}
	.st18{fill:#FFCFAE;}
	.st19{fill:#C8C8C8;}
	.st20{fill:#FFC69F;}
	.st21{fill:#CCCCCC;}
	.st22{fill:#FFCFAF;}
	.st23{fill:#FFD2B5;}
	.st24{fill:#D6D6D6;}
	.st25{fill:#C4C4C4;}
	.st26{fill:#D3D3D3;}
	.st27{fill:#CDCDCD;}
	.st28{fill:#FFD1B1;}
	.st29{fill:#FFCEAD;}
	.st30{fill:#FFEBDD;}
	.st31{fill:#BABABA;}
	.st32{fill:#B9B9B9;}
	.st33{fill:#FFCCA9;}
	.st34{fill:#FFCCAA;}
	.st35{fill:#B1B1B1;}
	.st36{fill:#40916C;}
	.st37{fill:#68C097;}
	.st38{fill:#FFD0B0;}
	.st39{fill:#FFCDAB;}
	.st40{fill:#D4D4D4;}
	.st41{fill:#BCBCBC;}
	.st42{fill:#FFD1B3;}
	.st43{fill:#65BF95;}
	.st44{fill:#FFD3B6;}
	.st45{fill:#FFC7A2;}
	.st46{fill:#FFD6BB;}
	.st47{fill:#FFC39B;}
	.st48{fill:#84CCAA;}
	.st49{fill:#FFC6A0;}
	.st50{fill:#FFC39A;}
	.st51{fill:#FFC8A3;}
	.st52{fill:#FFD4B8;}
</style>
<g>
	<path class="st0" d="M3.05,66.63C3.05,49.52,3.08,32.41,3,15.3c-0.01-1.87,0.42-2.3,2.3-2.3c24.72,0.07,49.44,0.07,74.16,0
		c1.87-0.01,2.3,0.42,2.3,2.3c-0.07,34.47-0.07,68.94,0,103.41c0,1.87-0.42,2.3-2.3,2.3c-24.72-0.07-49.44-0.07-74.16,0
		c-1.87,0.01-2.31-0.42-2.3-2.3C3.08,101.34,3.05,83.98,3.05,66.63z"/>
	<path class="st0" d="M16.56,75.88c0-0.42-0.01-0.84-0.01-1.26c-0.42-1.23,0.03-2.26,0.76-3.23c-0.01-0.16-0.01-0.31,0-0.47
		c-0.2-2.04,0.28-3.9,1.5-5.55c0.01-0.52,0.03-1.04,0.04-1.56c0.65-1,1.57-1.36,2.73-1.14c1.82,0.56,3.47,0.41,4.74-1.2
		c0.41-0.51,0.77-1.05,1.18-1.56c1.04-1.11,2.45-1.63,3.74-2.35c1.15-0.5,2.21-1.13,3.06-2.09c0.72-0.6,1.53-1.09,2.22-1.73
		c1.3-1.12,1.45-2.78,1.97-4.27c0.35-0.99,0.4-2.12,1.31-2.85c0.96-0.03,1.26,0.68,1.56,1.39c1.43,3.21,0.12,5.98-1.38,8.72
		c-0.3,0.68-0.64,1.36-0.82,2.09c-0.83,2.78-0.87,5.57-0.12,8.38c0.84,3.65,2.04,7.18,3.49,10.62c1.22,2.91,1.44,5.69-0.05,8.61
		c-1.44,2.82-1.77,5.92-1.7,9.07c0.04,1.86,0.14,3.74-0.68,5.5c-0.22,0.49-0.47,0.97-0.7,1.46c-0.27,1.27-0.79,2.52-0.32,3.86
		c0.36,1.15,1.01,2.3-0.09,3.4c-0.51-0.52-1.1-0.98-1.5-1.57c-1.08-1.62-1.89-1.64-2.93,0.11c-1.29,2.17-2.96,3.9-5.9,3.19
		c-0.32-0.08-0.82,0.03-1.05,0.24c-2.52,2.34-4.8,0.88-7.1-0.39c1.32-1.05,2.84-0.14,4.11-0.46c-1.26,0.45-2.78-0.89-4.09,0.37
		c-3.69-0.37-3.79-3.17-3.98-5.91c-1.25-1.92-1.16-4.16-1.52-6.3c0-0.42,0-0.85,0-1.27c-0.72-1.19-0.22-2.5-0.37-3.75
		c0.15-1.25-0.34-2.56,0.36-3.75c0-1.42,0-2.83,0-4.25c0.04-1.14-0.08-2.29,0.15-3.42c0.42-1.12,0.12-2.29,0.29-3.43
		C15.91,78.07,15.61,76.76,16.56,75.88z"/>
	<path class="st0" d="M59.23,69.24c-0.48,2.13-1.51,4.07-1.78,6.3c-0.32,2.61-2.48,3.87-4.65,4.95c-1.97-1.34-1.3-3.31-1.08-5.08
		c0.44-3.47,0.59-6.92,0.05-10.38c-0.29-1.28-0.35-2.58-0.41-3.89c-0.13-2.73-1.17-5.42-0.34-8.19c0.32-0.83,0.88-1.36,1.83-1.38
		c3.41,1.6,6.98,2.74,10.67,3.53c1.05,0.4,2.21,0.64,2.75,1.82c0.21,0.91-0.35,1.39-1.03,1.8c-1.25,2.46-2.49,4.92-3.74,7.39
		C60.59,67.04,60.17,68.33,59.23,69.24z"/>
	<path class="st1" d="M52.81,64.86c0.63,3.77,0.65,7.5-0.15,11.27c-0.29,1.39-0.46,2.93,0.14,4.36c-2.64,6.74-5.28,13.48-7.92,20.22
		c-2.28,1.85-1.8-0.35-2.1-1.42c0.29-1.45,0.53-2.92,0.68-4.39c0.17-0.89,0.47-1.74,0.74-2.6c0.43-1.16,0.63-2.38,0.96-3.56
		c0.63-2.53,2.53-4.75,1.89-7.6c-0.3-2.99,0.32-6.02-0.58-8.97c-0.27-1.7-0.4-3.39,0.07-5.08C48.07,64.74,50.37,64.6,52.81,64.86z"
		/>
	<path class="st2" d="M40.64,48.27c-0.25-0.47-0.49-0.94-0.74-1.42c-0.3-0.23-0.47-0.55-0.51-0.92c0.14-1.43,0.08-2.89,0.65-4.25
		c1.19-1.24,1.83-2.77,2.26-4.4c0.19-0.29,0.47-0.47,0.81-0.55c0.52,0.02,0.93,0.27,1.29,0.63c0.57,0.69,1,1.54,1.95,1.84
		c0.45,0.15,0.88,0.33,1.29,0.56c1.96,1.63,3.42,1.09,4.5-1.05c2.55-1.66,2.26,1.24,3.28,2.04c0.25,1.26,0.49,2.51,0.74,3.77
		c-0.89,1.03-1.27,2.64-3.06,2.6c-4.03-1.52-7.74,0.03-11.48,1.25C41.28,48.51,40.96,48.46,40.64,48.27z"/>
	<path class="st3" d="M42.81,37.15c-0.17,1.75,0.69,4.03-2.23,4.39c-0.96,1.37-0.13,3.04-0.77,4.47c0.03,0.28,0.06,0.57,0.09,0.85
		c-0.2,0.99,0.06,2.12-0.86,2.9c-0.99,1.45-0.86,3.43-2.24,4.7c-0.45,0.86-1.1,1.4-2.13,1.35c-1.46,0.65-3.41,2.68-3.23-1.17
		c1.09-1.13,2.17-2.26,3.26-3.39c0.83-0.81,1.62-1.63,1.35-2.94c0.02-1.01,0.04-2.02,0.06-3.03c0.23-0.28,0.4-0.59,0.54-0.93
		c0.34-2.17-0.17-4.39,0.36-6.55c0.17-1.13,0.43-2.23,1.2-3.13c0.56-1.38,1.73-1.47,2.98-1.41c0.15,0.09,0.3,0.17,0.45,0.25
		c0.72,0.77,1.16,1.7,1.47,2.69C43.14,36.56,43.04,36.88,42.81,37.15z"/>
	<path class="st4" d="M40.5,22.78c0.54-1.57,1.33-2.95,2.83-3.8c2-1.13,4.05-1.59,6.25-0.59c0.34,1.62-0.49,2.93-1.13,4.29
		c-2.73,1.92-4.75,4.2-3.82,7.9c-0.05,0.53-0.27,0.98-0.55,1.42c-0.37,0.57-0.75,1.15-1.33,1.54c-0.52,0.18-0.99,0.17-1.38-0.29
		c0,0-0.19,0.01-0.19,0.01c0.04-0.22,0.07-0.45,0.1-0.67c-0.34-2.2-2.27-3.97-1.72-6.41C39.77,25.02,39.81,23.81,40.5,22.78z"/>
	<path class="st5" d="M44.89,102c0.55,2.24,1.22,4.46,1.62,6.73c0.38,2.1-0.27,3.64-2.82,3.51c-4.27,0.74-3.58-2.89-4.49-5.1
		c-0.24-1.02-0.02-1.96,0.52-2.83c0.77-1.1,1.91-1.74,3.02-2.43C43.47,101.7,44.19,101.76,44.89,102z"/>
	<path class="st6" d="M53.25,46.78c1.26-0.38,1.38-2.24,2.92-2.25c0.06,0.47,0.12,0.94,0.17,1.41c0.06,1.32-0.76,2.86,0.93,3.77
		c1.22,1.73,3.68,1.41,4.99,2.99c0.32,0.93,1.69,0.82,1.88,1.89c0.07,0.52-0.03,0.98-0.47,1.32c-3.7-0.65-7.59-0.76-10.49-3.68
		c-2.6-1.2-2.3-2.87-0.77-4.74C52.64,47.18,52.92,46.95,53.25,46.78z"/>
	<path class="st7" d="M47.92,22.8c0.06-1.45,0.34-2.8,1.57-3.76c0.27-0.42,0.55-0.43,0.86-0.04c0.54,0.44,1.09,0.88,1.63,1.32
		c0.3,0.81,1.31,1.38,0.84,2.46c-0.35,0.72-0.95,1.14-1.68,1.4c-1.08,0.26-2.15,0.7-3.27,0.16C47.55,23.82,47.54,23.3,47.92,22.8z"
		/>
	<path class="st8" d="M26.84,61.9c-1.21,2.25-2.86,2.89-5.11,1.43c-0.41-0.51-0.87-0.99-0.79-1.72c0.74-1.13,1.8-1.83,3.01-2.35
		c0.48,0.16,0.9,0.42,1.25,0.79C25.73,60.68,26.52,61.09,26.84,61.9z"/>
	<path class="st9" d="M55.43,40.75c-1.6,0.77-0.96-3.14-3-1.44c-0.79,1.37-1.93,1.71-3.37,1.14c-0.56-1.18-1.64-2.25-0.86-3.75
		c0.86-0.51,1.77-0.47,2.7-0.3c1.22,0.42,2.59,0.35,3.74,1.04c0.8,0.69,0.17,1.81,0.77,2.56C55.41,40.25,55.42,40.5,55.43,40.75z"/>
	<path class="st10" d="M40.43,26.75c-0.69,2.09,2.18,3.66,0.86,5.84c-0.88-1.16-2.55-1.54-3.01-3.1c0.93-1.38-0.2-3.1,0.73-4.48
		c0-0.61,0.12-1.15,0.72-1.47C40.53,24.48,39.77,25.77,40.43,26.75z"/>
	<path class="st11" d="M52.51,22.82c-0.18-0.83-0.35-1.66-0.53-2.49c3.26,2.45,3.44,4.79,0.66,8.6c-0.31-0.18-0.51-0.43-0.61-0.77
		c-0.05-0.33-0.05-0.67,0-1.01C52.56,25.75,51.93,24.21,52.51,22.82z"/>
	<path class="st12" d="M52.48,28.02c0.05,0.3,0.11,0.6,0.16,0.91c-1.5,1.65-2.93,3.29,0.64,4.17c0.19,0.21,0.27,0.42,0.24,0.65
		c-0.03,0.23-0.07,0.35-0.13,0.35c-1.9,0.9-3.07-0.09-3.8-1.67c-0.8-1.72-0.31-3.39,0.86-4.78C51.18,26.77,51.94,27.1,52.48,28.02z"
		/>
	<path class="st13" d="M31.44,54.63c0.16,2.91,2.13,0.85,3.23,1.17c-0.39,1.63-1.72,1.97-3.09,2.23c-0.9,0.44-1.83,0.62-2.82,0.29
		c-0.38-0.26-0.46-0.59-0.24-0.99C29.49,56.44,30.47,55.54,31.44,54.63z"/>
	<path class="st14" d="M63.67,55.9c0.02-0.55,0.03-1.09,0.05-1.64c0.26-0.25,0.56-0.37,0.92-0.34c0.93,0.41,1.95,0.62,2.85,1.1
		c0.23,0.25,0.47,0.51,0.7,0.76c0.64,0.89,0.8,1.81-0.3,2.37c-0.94,0.47-1.51-0.26-1.95-1.02C65.36,56.41,64.12,56.89,63.67,55.9z"
		/>
	<path class="st15" d="M39.56,106.76c1.11,2.03,0.12,5.65,4.14,5.48c-2.92,1.69-3.72-0.61-4.72-2.52c0.52-1.44-0.81-2.43-0.9-3.72
		C39,105.43,39.31,106.03,39.56,106.76z"/>
	<path class="st16" d="M20.54,111.21c-0.32-0.37-0.87-0.73-0.89-1.12c-0.04-0.74,0.63-0.61,1.04-0.39c1.92,1.02,3.99,0.74,6.07,0.75
		c-1.96,1.42-4.17,0.65-6.25,0.84C20.51,111.29,20.54,111.21,20.54,111.21z"/>
	<path class="st17" d="M53.22,34.03c0.02-0.31,0.04-0.62,0.06-0.93c1.17,0.9,3.46,0.77,2.98,3.21c-0.69-0.03-1.25,0.43-1.91,0.55
		c-0.72,0.11-1.4,0.04-1.96-0.48C51.97,35.35,52.6,34.69,53.22,34.03z"/>
	<path class="st18" d="M28.52,57.34c0,0.22,0,0.44,0,0.67c0.07,0.99-0.55,1.57-1.27,2.07c-0.75,0.51-1.5,0.91-2.35,0.22
		c-0.31-0.35-0.62-0.69-0.93-1.04C25.11,57.75,26.85,57.63,28.52,57.34z"/>
	<path class="st4" d="M65.94,57.14c1.77,1.25,2.37,0.56,2.25-1.35c0.71,0,1.57-0.17,1.62,0.9c0.04,0.93-0.45,1.78-1.32,1.97
		c-1.04,0.22-2.16,0.06-3.24,0.07C65.48,58.2,65.71,57.67,65.94,57.14z"/>
	<path class="st19" d="M15.04,99.01c1.11,1.95,1.19,4.16,1.52,6.3C14.52,103.57,14.31,101.4,15.04,99.01z"/>
	<path class="st20" d="M50.35,19.01c-0.29,0.01-0.57,0.02-0.86,0.04c-2.03-1.79-4.1-0.12-6.16-0.06
		C45.68,17.24,48.02,16.07,50.35,19.01z"/>
	<path class="st21" d="M18.81,65.37c-0.5,1.85-1,3.7-1.5,5.55C16.06,68.6,16.7,66.79,18.81,65.37z"/>
	<path class="st22" d="M36.75,45.26l-0.32,0.01c0,0-0.32,0-0.32,0c0.06-2.53-0.6-5.12,0.56-7.58c0.13,0.17,0.26,0.34,0.4,0.51
		C36.97,40.56,37.53,42.94,36.75,45.26z"/>
	<path class="st23" d="M57.27,49.7c-2.9-0.62-1.98-2.18-0.93-3.77C57.34,47.02,56.74,48.5,57.27,49.7z"/>
	<path class="st24" d="M15.71,82.67c0.17,1.18,0.24,2.35-0.67,3.31c-1.31-1.33-0.9-2.69-0.09-4.07
		C15.41,81.96,15.45,82.42,15.71,82.67z"/>
	<path class="st25" d="M20.94,61.61c0.7,0.38,0.83,1.01,0.79,1.72c-0.96,0.16-1.92,0.32-2.88,0.48
		C18.97,62.53,19.75,61.87,20.94,61.61z"/>
	<path class="st26" d="M59.23,69.24c0.26-1.41,0.62-2.74,2.28-3.12C61.23,67.5,61.14,69.04,59.23,69.24z"/>
	<path class="st8" d="M54.72,36.25c0.54-0.79,1.04-0.62,1.53,0.05c-0.28,1.23-0.57,2.46-0.85,3.69c-0.84-0.53-0.62-1.41-0.69-2.18
		C54.29,37.29,54.29,36.77,54.72,36.25z"/>
	<path class="st27" d="M17.31,71.39c-0.25,1.07-0.51,2.15-0.76,3.23C15.31,73.19,15.24,72.04,17.31,71.39z"/>
	<path class="st24" d="M16.56,75.88c-0.04,1.11,0.21,2.27-0.65,3.21c-0.48-0.02-0.53-0.49-0.76-0.76
		C14.96,77.13,14.95,76.04,16.56,75.88z"/>
	<path class="st28" d="M44.89,102c-0.71,0.1-1.42,0.19-2.13,0.29c-0.87-0.86-0.84-1.82-0.35-2.85c0.29-0.38,0.65-0.45,1.07-0.21
		c0.17,0.78-0.5,2.35,1.4,1.49C44.89,101.14,44.89,101.57,44.89,102z"/>
	<path class="st22" d="M38.21,34.67c-0.23,1.04-0.46,2.07-0.7,3.11c-0.21,0.33-0.44,0.35-0.7,0.06c0,0-0.15-0.14-0.15-0.14
		C36.7,36.44,36.52,35.08,38.21,34.67z"/>
	<path class="st29" d="M36.05,48.3c0.96,1.63,0.09,2.42-1.35,2.94C35.15,50.26,35.6,49.28,36.05,48.3z"/>
	<path class="st30" d="M39.01,25c-0.29,1.49,0.64,3.17-0.73,4.48C38.43,27.98,37.67,26.32,39.01,25z"/>
	<path class="st31" d="M15.15,78.33c0.25,0.25,0.51,0.51,0.76,0.76c-0.07,1.19-0.14,2.39-0.21,3.58c-0.25-0.25-0.51-0.51-0.76-0.76
		C15.01,80.72,15.08,79.52,15.15,78.33z"/>
	<path class="st20" d="M40.43,26.75c-0.8-0.95-0.52-2.13-0.7-3.21c0.26-0.25,0.51-0.5,0.77-0.76C40.48,24.1,40.45,25.42,40.43,26.75
		z"/>
	<path class="st32" d="M15.03,90.23c-0.04,1.25-0.08,2.5-0.11,3.76c-0.18,0.32-0.36,0.33-0.54,0C14.37,92.7,13.54,91.26,15.03,90.23
		z"/>
	<path class="st33" d="M64.48,54.24c-0.25,0.01-0.5,0.02-0.76,0.02c-0.48-0.53-1.95-0.14-1.46-1.57c0.74,0.3,1.47,0.6,2.21,0.9
		c0.26,0.14,0.34,0.29,0.26,0.43C64.64,54.17,64.56,54.24,64.48,54.24z"/>
	<path class="st34" d="M64.48,54.24c0-0.22,0-0.43-0.01-0.65c1.15,0.18,2.33,0.29,3.03,1.43C66.4,55.12,65.41,54.78,64.48,54.24z"/>
	<path class="st35" d="M14.38,93.99c0.18,0,0.36,0,0.54,0c0.04,1.25,0.08,2.5,0.12,3.75C13.63,96.7,14.46,95.26,14.38,93.99z"/>
	<path class="st1" d="M42.77,99.22c0,1.02,0,2.04,0,3.06c0.17,1.76-1.69,1.24-2.34,2.07c-1.65,0.23-1.2-1.24-1.62-2
		c-0.11-0.34-0.07-0.65,0.14-0.94c0.84-1.17,1.02-2.51,0.94-3.89c-0.28-4.65,0.06-9.16,2.49-13.32c0.99-1.69,0.14-3.38-0.44-5.01
		c-1.41-3.96-3.28-7.77-3.78-12.02c2.42-2.52,5.05-1.96,7.74-0.54c1.76,1.76,0.44,4.14,1.21,6.1c1.23,3-0.19,6.25,0.88,9.26
		c0.69,2.73-1.39,4.54-2.25,6.75c-0.47,1.2-1.13,2.35-0.75,3.72c-0.25,0.76-0.5,1.51-0.74,2.27C43.57,96.16,43.82,97.91,42.77,99.22
		z"/>
	<path class="st3" d="M53.25,47.55c-0.68,1.55-2.28,3.08-0.07,4.67c-0.64-0.21-1.1,0.03-1.46,0.55c-0.06,0.11-0.14,0.21-0.18,0.32
		c-0.83,2.11,1.25,5.74-2.26,6.27c-3.53,0.53-7.43,0.49-10.14-2.83c1.32-2.6,2.71-5.19,1.51-8.25c0.22-0.02,0.43-0.06,0.65-0.11
		C45.24,47.21,49.11,44.85,53.25,47.55z"/>
	<path class="st36" d="M45.77,67.09c-2.55-0.86-5.08-0.54-7.62,0.07c-1.15-3.12-0.97-6.2,0.27-9.25c4.15,0.08,8.13,1.85,12.38,1.14
		c1.06-0.18,1.22,1.02,1.5,1.82c0.17,1.33,0.33,2.65,0.5,3.98c-1.55,1.54-4.03,0.59-5.58,2.12C46.78,67.46,46.29,67.4,45.77,67.09z"
		/>
	<path class="st13" d="M52.32,60.88c-0.63-1.34-1.73-1.52-3.06-1.36c-3.75,0.45-7.35-0.18-10.82-1.6c0.24-0.46,0.47-0.93,0.71-1.39
		c2.17,1.32,4.71,1.42,7.09,1.99c3.65,0.88,4.46,0.17,4.76-3.75c0.06-0.75,0.05-1.49,0.73-2C51.92,55.47,52.12,58.17,52.32,60.88z"
		/>
	<path class="st37" d="M39.22,102.14c0.4,0.74,0.8,1.48,1.2,2.22c-0.29,0.8-0.58,1.6-0.87,2.4c-0.49-0.25-0.98-0.51-1.48-0.76
		c0.04-1.25,0.08-2.49,0.11-3.74C38.51,101.92,38.85,101.88,39.22,102.14z"/>
	<path class="st38" d="M26.95,59.54c0.52-0.51,1.04-1.02,1.57-1.53c1.02,0.01,2.04,0.02,3.06,0.03c-1.28,0.78-2.57,1.57-3.85,2.35
		C27.13,60.41,26.82,60.18,26.95,59.54z"/>
	<path class="st5" d="M26.95,59.54c0.26,0.28,0.52,0.57,0.77,0.85c-0.29,0.5-0.59,1-0.88,1.5c-0.96-0.15-2.19,0.02-1.96-1.6
		C25.58,60.05,26.26,59.79,26.95,59.54z"/>
	<path class="st39" d="M36.8,54.46c0.75-1.56,0.65-3.53,2.24-4.7C38.78,51.56,39.14,53.65,36.8,54.46z"/>
	<path class="st40" d="M30.32,109.59c-0.1-0.49-0.31-0.96-0.19-1.07c0.33-0.3,0.79-0.44,1.2-0.65c0.13,0.29,0.43,0.76,0.35,0.83
		C31.34,109.03,30.89,109.24,30.32,109.59z"/>
	<path class="st41" d="M39.22,102.14c-0.34,0.04-0.69,0.07-1.03,0.11c-0.04-0.54,0.34-0.71,0.76-0.84
		C39.04,101.66,39.13,101.9,39.22,102.14z"/>
	<path class="st42" d="M47.99,81.98c-1.85-2.78,0.27-6.21-1.46-9c0.18-0.3,0.41-0.55,0.71-0.73C48.89,75.39,47.58,78.75,47.99,81.98
		z"/>
	<path class="st22" d="M47.24,72.25c-0.24,0.24-0.48,0.49-0.71,0.73c-0.19-1.97,0.42-4.04-0.75-5.89c0.49-0.04,0.97-0.08,1.46-0.11
		C47.23,68.73,47.24,70.49,47.24,72.25z"/>
	<path class="st42" d="M42.77,99.22c0.05-1.64,0.38-3.2,1.48-4.5c0.02,1.55,0.14,3.11-0.76,4.5C43.25,99.22,43.01,99.22,42.77,99.22
		z"/>
	<path class="st28" d="M44.99,92.46c-1.54-1.6-0.09-2.6,0.75-3.72C45.84,90.04,45.71,91.31,44.99,92.46z"/>
	<path class="st43" d="M53.25,47.55c-4.06-1.17-7.97,0.45-11.95,0.62c2.46-2.4,8.59-3.11,11.96-1.39
		C53.25,47.03,53.25,47.29,53.25,47.55z"/>
	<path class="st12" d="M47.99,37.03c0.41,0.96,1.71,1.69,0.75,2.99c-0.51,0.49-1.04,0.42-1.58,0.05c-0.46-0.05-0.92-0.11-1.37-0.16
		c-0.47-1.29-0.26-2.49,0.5-3.61C47.15,35.85,47.63,36.29,47.99,37.03z"/>
	<path class="st9" d="M47.16,40.08c0.53-0.02,1.05-0.04,1.58-0.05c1.29,0.09,2.55-0.02,3.69-0.71
		C50.78,42.57,50.16,42.66,47.16,40.08z"/>
	<path class="st44" d="M46.51,36.27c0.03,1.27,0,2.53-0.72,3.65c-1.1-0.27-1.54-1.06-1.62-2.12c0.28-0.69,0.62-1.35,0.85-2.06
		c0.1-0.3,0.24-0.58,0.42-0.84c0.24-0.24,0.53-0.32,0.87-0.25C46.88,35.12,47.12,35.64,46.51,36.27z"/>
	<path class="st45" d="M45.73,35.57c0.04,1.14-0.07,2.17-1.57,2.23c-0.24-0.2-0.48-0.41-0.71-0.61
		C42.79,34.65,44.02,34.77,45.73,35.57z"/>
	<path class="st46" d="M45.73,35.57c-1.24-0.14-2.22,0.09-2.28,1.61c0,0-0.32-0.05-0.32-0.05s-0.32,0.01-0.32,0.01
		c-0.02-0.3-0.05-0.61-0.07-0.91c-0.49-0.64-0.45-1.35-0.3-2.08c0.77-0.87,1.63-0.64,2.51-0.2c0.31,0.2,0.56,0.47,0.76,0.79
		C45.72,35.02,45.73,35.3,45.73,35.57z"/>
	<path class="st47" d="M39.82,46c-0.44-1.61-0.42-3.14,0.77-4.47C40.29,43.02,41.05,44.68,39.82,46z"/>
	<path class="st28" d="M36.81,37.83c0.23-0.03,0.46-0.05,0.7-0.06c-0.34,2.49,0.77,5.12-0.76,7.49
		C36.77,42.79,36.79,40.31,36.81,37.83z"/>
	<path class="st48" d="M42.8,34.06c-0.02,0.73-0.04,1.45-0.06,2.18c-0.98-0.76-1.46-1.74-1.37-2.99c0.44,0.04,0.88,0.08,1.32,0.12
		c0.22,0.12,0.3,0.26,0.26,0.43C42.91,33.97,42.86,34.06,42.8,34.06z"/>
	<path class="st8" d="M47.92,22.8c0.05,0.49,0.1,0.99,0.15,1.48c0.38,0.43,0.41,0.92,0.26,1.45c-0.91,1.25-1.42,2.69-1.97,4.12
		c-0.49,0.77-0.99,1.54-2.11,1.17C42.68,26.44,43.58,24.42,47.92,22.8z"/>
	<path class="st49" d="M44.26,31.02c0.49-0.48,0.98-0.95,1.47-1.43c0.39-0.3,0.74-0.27,1.07,0.1c0.93,1.96,0.66,3.67-1.07,5.07
		c0,0-0.01-0.01-0.01-0.02c-0.25-0.01-0.5-0.03-0.74-0.05c-0.37-1.03-2.02-1.41-1.48-2.9C43.75,31.53,44,31.28,44.26,31.02z"/>
	<path class="st50" d="M43.5,31.79c0.4,1.01,1.58,1.64,1.48,2.9c-0.72-0.21-1.45-0.42-2.17-0.63c-0.05-0.23-0.09-0.45-0.1-0.68
		C42.76,32.75,42.84,32.12,43.5,31.79z"/>
	<path class="st3" d="M45.72,34.76c0.41-1.71,1.1-3.39,0.75-5.21c-0.39-1.6,1.06-2.49,1.48-3.77c0.04-0.5,0.08-0.99,0.11-1.49
		c0.9-0.55,1.86-0.86,2.93-0.73c2.32,0.54,2.09,2.1,1.52,3.79c0.01,0.23,0,0.45-0.04,0.68c-0.81-0.31-1.6-0.84-1.92,0.64
		c-0.3,1.41-1.02,2.82,0.01,4.15c0.63,0.81,1.61,1.14,2.65,1.21c-0.22,0.76-0.43,1.53-0.65,2.29c-0.04,1.25-0.69,1.2-1.55,0.73
		c-1.01-0.01-2.02-0.01-3.03-0.02c-0.49-0.25-0.99-0.51-1.48-0.76C46.49,35.64,46.34,35.08,45.72,34.76z"/>
	<path class="st12" d="M52.52,27.35c0.12-1.52-0.18-2.86-1.52-3.79c0.5-0.25,1.01-0.49,1.51-0.74
		C53.14,24.33,53.86,25.84,52.52,27.35z"/>
	<path class="st51" d="M51.02,37.05c0.51-0.24,1.03-0.48,1.54-0.73c0.72-0.02,1.43-0.04,2.15-0.07c0,0.52-0.01,1.04-0.01,1.56
		C53.48,37.57,52.04,38.3,51.02,37.05z"/>
	<path class="st52" d="M47.96,25.78c1.11,1.89-1.49,2.32-1.48,3.77c-0.25,0.01-0.5,0.03-0.75,0.04
		C46.21,28.17,45.91,26.29,47.96,25.78z"/>
</g>
</svg>
