<?xml version="1.0" encoding="utf-8"?>
<!-- Generator: Adobe Illustrator 24.2.1, SVG Export Plug-In . SVG Version: 6.00 Build 0)  -->
<svg version="1.1" id="Calque_1" xmlns="http://www.w3.org/2000/svg" xmlns:xlink="http://www.w3.org/1999/xlink" x="0px" y="0px"
	 viewBox="0 0 144.75 115.5" style="enable-background:new 0 0 144.75 115.5;" xml:space="preserve">
<style type="text/css">
	.st0{fill:#FEFEFE;}
	.st1{fill:#FFE4D2;}
	.st2{fill:#40916C;}
	.st3{fill:#469470;}
	.st4{fill:#FFE4D1;}
	.st5{fill:#44936F;}
	.st6{fill:#FFE2CF;}
	.st7{fill:#7FCAA7;}
	.st8{fill:#FFE5D3;}
	.st9{fill:#FFE3D0;}
	.st10{fill:#81CBA8;}
	.st11{fill:#FFD3B6;}
	.st12{fill:#FFD2B5;}
	.st13{fill:#FFE0CB;}
	.st14{fill:#4B9875;}
	.st15{fill:#CCC7C6;}
	.st16{fill:#FFD4B8;}
	.st17{fill:#85CCAB;}
	.st18{fill:#FFDEC8;}
	.st19{fill:#CAC5C4;}
	.st20{fill:#CBC6C5;}
	.st21{fill:#FFDFCA;}
	.st22{fill:#70C39C;}
	.st23{fill:#FFD7BD;}
	.st24{fill:#FFDFC9;}
	.st25{fill:#CFCAC9;}
	.st26{fill:#FFD5B9;}
	.st27{fill:#FFDDC6;}
	.st28{fill:#FFE1CD;}
	.st29{fill:#FFDCC4;}
	.st30{fill:#FFD4B7;}
	.st31{fill:#FFDAC1;}
	.st32{fill:#FFDBC3;}
	.st33{fill:#FFD6BB;}
	.st34{fill:#FFCBA7;}
	.st35{fill:#FFD9BF;}
	.st36{fill:#F7F6F6;}
	.st37{fill:#FFD8BE;}
	.st38{fill:#FFD7BC;}
	.st39{fill:#FFD9C0;}
	.st40{fill:#FFDDC7;}
	.st41{fill:#FFD6BA;}
	.st42{fill:#FFDAC2;}
	.st43{fill:#FFD1B1;}
	.st44{fill:#FFC299;}
	.st45{fill:#FFEBDD;}
	.st46{fill:#FFFAF7;}
	.st47{fill:#FFDCC5;}
	.st48{fill:#74C5A0;}
	.st49{fill:#FFD1B3;}
	.st50{fill:#489572;}
	.st51{fill:#65BF95;}
	.st52{fill:#71C49D;}
	.st53{fill:#EBEAE9;}
	.st54{fill:#F2F1F0;}
	.st55{fill:#FAFAFA;}
	.st56{fill:#FFE2CE;}
	.st57{fill:#F1EFEF;}
	.st58{fill:#CAE0D6;}
	.st59{fill:#FFEADB;}
	.st60{fill:#FFD2B4;}
</style>
<g>
	<path class="st0" d="M72.37,115.44c-23.23,0-46.46-0.04-69.69,0.06c-2.24,0.01-2.69-0.45-2.69-2.67C0.09,76.11,0.09,39.39,0,2.67
		C-0.01,0.45,0.45,0,2.69,0C49.14,0.08,95.6,0.08,142.06,0c2.23,0,2.69,0.45,2.69,2.67c-0.09,36.72-0.09,73.44,0,110.16
		c0.01,2.22-0.45,2.68-2.69,2.67C118.84,115.4,95.6,115.44,72.37,115.44z"/>
	<path class="st1" d="M96.76,103.17c0.22-4.66-2.25-8.79-2.6-13.36c-0.12-1.61-0.26-3.13,0.1-4.74c1.49-6.69,1.49-13.42,0.31-20.16
		c2.84-1.36,5.79-0.7,8.72-0.44c0.92,0.76,0.69,1.75,0.53,2.72c-0.1,1.83-0.46,3.64-0.42,5.48c-0.04,2.03-0.35,4-1.25,5.85
		c-0.84,1.17-1.04,2.62-1.72,3.86c-1.04,2.39-0.2,4.83-0.17,7.24c-0.08,0.51-0.28,0.97-0.53,1.42c-0.73,1.16-0.61,2.37-0.19,3.59
		c0.24,0.92,0.41,1.86,0.55,2.8c-0.1,1.13,0.24,2.2,0.39,3.3c0.03,0.36,0.02,0.7,0,1.06c-0.12,1.32-0.09,2.88-1.56,3.38
		C97.36,105.69,96.38,105.01,96.76,103.17z"/>
	<path class="st1" d="M48.12,99.82c-0.29-1.44-0.59-2.88-0.88-4.32c-0.57-1.54-0.18-3.28-1.01-4.76c-0.14-1.84-0.04-3.69-0.06-5.53
		c0.14-1.43,0.77-2.76,0.9-4.19c0.83-4.5,0.02-9.01,0.07-13.51c-0.25-0.78-0.3-1.59-0.22-2.4c0.19-0.38,0.5-0.62,0.91-0.73
		c0.81-0.18,1.59,0.08,2.38,0.14c1.75,0.22,3.61-0.27,5.23,0.79c0.88,1.52,0.17,3.09,0.15,4.64c-0.57,2.03-0.74,4.15-1.43,6.15
		c-0.71,1.54-0.56,3.26-1.04,4.85c-0.37,1.01-1.13,1.88-1.08,3.04c-0.07,1.13-0.09,2.27-0.36,3.38c-0.63,3.27-0.57,6.54-0.04,9.81
		c0.31,1.31,0.52,2.63,0.73,3.96c-0.4,4.28-0.63,4.52-3.34,3.33C48.42,102.98,49.31,101.2,48.12,99.82z"/>
	<path class="st1" d="M99.75,101.38c0.02-0.36,0.04-0.71,0.05-1.07c0.62-2.6-0.36-5.13-0.32-7.71c0-0.61,0.16-1.19,0.32-1.77
		c0.92-2.01-0.93-3.84-0.38-5.82c0.43-2.31,1.44-4.47,1.8-6.79c1.1-1.83,1.08-3.94,1.48-5.94c0.7-1.52,0.12-3.2,0.59-4.75
		c1.26-4.01,1.62-4.2,5.29-2.7c-0.08,4.1-0.83,8.16-2.22,11.95c-1.78,4.85-0.79,9.96-2.09,14.8c-0.94,2.83-0.35,5.71-0.31,8.57
		C103.31,103.03,101.68,102.71,99.75,101.38z"/>
	<path class="st2" d="M103.47,64.84c-2.96,0.51-5.93,0.55-8.89,0.06c-2.62-4.33-1.51-8.28,1.26-12.06
		c3.82,0.38,7.43,2.14,11.42,1.61c1.22-0.16,1.91,0.87,1.82,2.21c-0.07,1.09,0.07,2.19-0.11,3.28c-0.13,1.32-0.25,2.65-0.38,3.97
		C107.06,65.12,105.06,63.88,103.47,64.84z"/>
	<path class="st1" d="M60.78,64.4c-0.02,0.39-0.04,0.78-0.06,1.16c-0.24,1.25-1.64,2.29-0.69,3.76c0.09,0.23,0.09,0.46-0.02,0.69
		c-1.03,0.86-0.34,2.11-0.7,3.11c0.08,0.21,0.07,0.41-0.04,0.61c-1.52,1.76-0.76,4.07-1.48,6.03l0.02-0.06
		c-1.58,1.45-1.04,3.4-1.27,5.17c-0.43,2.01-0.41,4.03-0.01,6.04c0.12,0.75,0.17,1.5-0.08,2.23c-0.98,2.18-0.66,4.41-0.25,6.64
		c0.11,0.18,0.16,0.38,0.14,0.6c-0.89,1.65-1.91,2.68-3.56,0.72c-0.51-1.1-0.48-2.28-0.51-3.46c0.09-2.1-0.21-4.15-0.77-6.17
		c-0.12-0.56-0.32-1.11-0.4-1.67c-0.26-1.55,0.47-3.03,0.32-4.57c0.39-1.44,0.36-3.01,1.43-4.22c0.03-1.67,0.42-3.28,0.83-4.88
		c0.78-1.83,0.91-3.83,1.42-5.73c0.33-1.33,0.35-2.71,0.66-4.05c0.08-0.32,0.18-0.64,0.31-0.95c0.84-0.83,1.96-1.2,3-1.7
		c0.48-0.16,0.97-0.19,1.47-0.05c0.25,0.1,0.37,0.24,0.36,0.42C60.89,64.3,60.85,64.4,60.78,64.4z"/>
	<path class="st3" d="M53.27,101.23c1.52,1.51,1.9-1.08,3.07-0.84c2.6,1.8,5.14,3.67,8.23,4.7c1.75,0.58,1.5,1.7,0.05,2.61
		c-5.12,3.2-10.41,2.99-15.9,1.02c-1.3-0.46-1.46-1.1-1.25-2.17c0.25-1.21,0.53-2.4,0.8-3.61c1.32-0.32,0.61,1.12,1.23,1.4
		c3.65,1.14,0.71-2.61,2.27-3.01C52.23,100.83,52.74,100.86,53.27,101.23z"/>
	<path class="st4" d="M61.46,45.44c0.1,0.46-0.12,0.69-0.55,0.77c-1.61,2.25,0.44,4.7-0.39,6.99c-2.82,2.46-5.96,2.23-9.75-0.7
		c-0.33-0.51-0.52-1.08-0.6-1.68c-0.16-2.47,0.88-4.91,0.19-7.4c0.05-0.41,0.17-0.79,0.37-1.15c0.51-0.7,1.21-1.13,2.01-1.4
		c2.64-0.64,5.28-1.56,7.97-0.18C61.69,42.17,60.59,43.96,61.46,45.44z"/>
	<path class="st5" d="M99.75,101.38c1.1-0.8,3.04,1.66,3.68-0.94c0.35-0.3,0.77-0.33,1.21-0.35c2.04,2.17,4.49,3.7,7.3,4.68
		c0.79,0.28,1.84,0.41,1.83,1.49c0,1.23-1.09,1.38-2.03,1.72c-1.02,0.37-1.96,0.97-2.94,1.46c-4.37,1.92-8.16-0.58-12.12-1.64
		c-0.74-0.2-1.15-0.9-0.87-1.77c0.22-0.99-0.03-2.14,0.95-2.88c0.2,0.91,0.64,1.77,1.69,1.57
		C100.55,104.33,98.78,102.31,99.75,101.38z"/>
	<path class="st6" d="M96.67,51.34c0.53-1.46,1.07-2.92,1.6-4.38c2.36,0.17,3.61-0.89,3.99-3.24c0.21-1.27,0.36-2.73,1.86-3.39
		c1.66-0.43,3.28-0.55,4.78,0.5c1.19,1.81,0.88,3.7,0.3,5.6c-1.19,1.61-1.06,3.45-0.87,5.28c0.19,1.83-0.66,3.01-2.4,2.94
		C102.55,54.51,98.96,54.65,96.67,51.34z"/>
	<path class="st4" d="M45.03,41.74c-0.13-0.2-0.16-0.42-0.1-0.65c0.27-2.08-0.07-4.16,0.02-6.24c0.06-0.94,0.12-1.87,0.17-2.81
		c0.89-0.84,0.99-2.16,1.88-3c0.77-0.68,1.31-1.71,2.56-1.66c0.54,0.23,0.92,0.6,1.2,1.11c0.16,0.34,0.27,0.7,0.33,1.08
		c0.16,1.32,0.12,2.63-0.24,3.93c-0.74,1.69-1.25,3.43-1.1,5.3c-0.01,1.1,0,2.2-0.12,3.29c-0.04,0.35-0.11,0.7-0.2,1.04
		c-0.51,1.47-0.66,2.95-0.04,4.44c0.37,0.96,0.84,1.9,0.89,2.95c0.36,2.08,1.46,3.9,2.03,5.91c0.32,1.02,0.68,2.03,0.81,3.1
		c0.01,0.37-0.04,0.72-0.15,1.07c-0.49,0.95-1.29,1.18-2.28,0.95c-0.33-0.13-0.56-0.37-0.71-0.69c-0.15-0.79,0.09-1.61-0.18-2.4
		c-0.11-0.3-0.2-0.61-0.3-0.92c-0.43-1.58-1.24-3-1.96-4.46c-0.51-0.71,0.03-1.93-1.14-2.33c-0.84-0.87-1.01-2-1.22-3.11
		C45.48,45.67,45.7,43.7,45.03,41.74z"/>
	<path class="st4" d="M103.54,40.9c-0.27,1.56-0.48,3.14-0.83,4.69c-0.67,2.9-2.22,3.24-4.43,1.38c-0.12-0.18-0.16-0.37-0.12-0.57
		c-1.94-3.23,0.71-5.71,1.39-8.51c0.23-0.86,0.59-1.67,0.98-2.47c0.81-1.63,0.41-3.4,0.56-5.1c0.02-0.35,0.07-0.7,0.16-1.04
		c0.1-0.34,0.27-0.64,0.49-0.92c1.94-0.85,3.32-0.06,4.43,1.5c0.38,1.08,0.84,2.12,1.4,3.12c-0.92,2.1-3.16,3.63-2.76,6.3
		C104.6,39.98,104.04,40.42,103.54,40.9z"/>
	<path class="st7" d="M59.98,32.87c4.49,2.23,4.82,3.63,1.75,7.47c-3.09,0.12-6.17-0.09-9.26,0.05c-0.94-2.57,0.12-5.19-0.16-7.77
		c0.04-0.56,0.18-1.1,0.42-1.6c1.09-1.35,1.96-0.26,2.8,0.32c1.1,0.75,2.04,1.87,3.61,1.21C59.49,32.48,59.77,32.59,59.98,32.87z"/>
	<path class="st8" d="M100.49,38.11c-0.47,2.84-3.35,5.02-2.34,8.28c-2.06-4.03-4.03-8.11-4.66-12.62c-0.37-2.64,0.14-5.13,3.17-6.2
		c1.16,0.97,1.14,2.58,2.04,3.7C100.01,33.37,99.56,35.91,100.49,38.11z"/>
	<path class="st9" d="M106.65,13.42c0.24,0.16,0.49,0.33,0.73,0.49c0.41,0.87,0.77,1.76,1.33,2.55c0.06,0.25,0.04,0.49-0.05,0.72
		c-0.53,0.73-0.74,1.48-0.07,2.24c0.16,1.46-0.34,2.71-1.22,3.84c-0.65,0-0.49,0.28-0.21,0.6c-0.15,1.77-1.43,1.61-2.66,1.54
		c-1.01,1.53-1.97,2.49-2.64-0.2c-0.37-1.74-0.27-3.36,0.83-4.89c0.91-1.27,1.94-2.46,1.53-4.37c-0.22-1,0.79-1.99,1.91-2.46
		C106.31,13.47,106.48,13.45,106.65,13.42z"/>
	<path class="st4" d="M117.63,34.28c-2.26,1.64-2.58,4.42-3.9,6.6c-0.81,1.35-1.01,3.1-2.62,3.92c-2.97-0.71-1.08-3.09-1.62-4.64
		c0.37-1.42,0.91-2.73,2.23-3.57c0.94-0.28,1.43-0.94,1.62-1.86c0.77-1.67,1.36-3.5,3.49-3.99c0.31,0.09,0.63,0.19,0.94,0.28
		C118.79,32.16,118.9,33.25,117.63,34.28z"/>
	<path class="st10" d="M111.72,36.6c-0.17,1.18-0.65,2.21-1.5,3.06c-0.37,0.39-0.62,0.94-1.27,0.97c-1.53-0.61-3.41,0.16-4.76-1.17
		c-0.05-2.65-0.61-5.54,3.05-6.46c0.48-0.56,0.96-0.56,1.44,0C109.69,34.2,110.71,35.4,111.72,36.6z"/>
	<path class="st4" d="M59.27,13.53c0.95,0.75,1.39,1.74,1.32,2.94c-0.47,0.98-0.84,1.96-0.06,2.96c-0.03,1.36-0.33,2.64-1.21,3.74
		c-0.33-0.05-0.48,0.09-0.43,0.42c0.03,0.19,0.12,0.28,0.23,0.28c-0.2,1.59-1.76,1.56-2.72,2.24c-0.18-0.04-0.35-0.09-0.53-0.13
		c-1.03-0.7-1.14-1.79-1.21-2.89c-0.03-0.71,0.01-1.41,0.17-2.1c0.16-0.66,0.51-1.22,0.93-1.73c0.9-0.75,0.46-1.56,0.08-2.37
		c-0.17-1.31,0.34-2.3,1.39-3.06C57.87,13.45,58.57,13.44,59.27,13.53z"/>
	<path class="st11" d="M59.27,13.53c-0.38,0.56-0.94,0.63-1.55,0.6c-2.56,0.43-3.33,2.67-4.53,4.46c-0.83,0.67-0.46,2.71-2.41,2.11
		c-1.74-1.92-1.28-4.23-1.14-6.48C52.97,10.67,55.73,10.47,59.27,13.53z"/>
	<path class="st12" d="M96.09,16.43c-0.11-0.45,0.11-0.68,0.52-0.79c1.44-0.61,1.78-2.31,3.06-3.07c2.55-1.56,4.95-1.84,6.98,0.85
		c0,0-0.37,0.03-0.37,0.03c-2.44,1.17-3.89,3.23-5.06,5.54c-0.6,0.56-1.12,1.29-2.09,1.23c-0.91-0.44-1.24-1.36-1.75-2.13
		c-0.25-0.34-0.51-0.68-0.77-1.02C96.44,16.87,96.26,16.65,96.09,16.43z"/>
	<path class="st13" d="M96.67,51.34c2.59,1.06,5.08,2.31,7.98,2.63c2.51,0.27,3.6-0.53,3.24-2.94c-0.22-1.51-0.35-2.89,0.82-4.08
		c0.32-0.25,0.62-0.23,0.9,0.06c-1.45,2.15-0.83,4.51-0.6,6.79c0.21,2.07,0.62,4.1-0.03,6.15c0.21-3.42-0.34-5.41-4.83-4.55
		c-2.74,0.53-5.88-0.59-8.31-2.56C95.9,52.22,96.02,51.64,96.67,51.34z"/>
	<path class="st14" d="M45.02,56.71c-0.05-1.54,0.68-2.78,1.56-3.96c0.81-0.18,1.2,0.43,1.66,0.89c0.66,1.49,1.42,2.94,2,4.47
		l0.01,0.03c0.32,0.86-0.17,1.39-0.76,1.89c-0.66,0.39-1.41,0.54-2.14,0.74C44.31,61.2,44.31,61.2,45.02,56.71z"/>
	<path class="st15" d="M66.08,60.23c1.14,0.1,2.35,0.19,2.19,1.79c-0.13,1.23-0.82,1.9-2.14,2.13c-1.5,0.26-2.93,0.66-3.95-0.92
		C61.48,59.66,62.2,59.11,66.08,60.23z"/>
	<path class="st16" d="M49.64,14.23c0.46,2.22,0.92,4.45,1.38,6.67c0.03,0.16,0.06,0.33,0.09,0.49c0.22,0.99,0.4,1.99,0.29,3.02
		c-0.32,1.35,0.08,2.9-1.16,3.99c-0.24-0.26-0.48-0.52-0.73-0.78c-0.27-0.27-0.39-0.6-0.36-0.98c0.15-1.18-0.81-2.07-0.82-3.21
		c-1.46-2.71-0.17-5.29,0.37-7.91C49.02,15.09,49.33,14.66,49.64,14.23z"/>
	<path class="st17" d="M95.81,106.05c4,2.38,8.2,4.01,12.99,3.41c-4.43,3.34-8.54-0.2-12.76-0.72
		C94.63,108.56,95.08,107.04,95.81,106.05z"/>
	<path class="st15" d="M116.82,30.75c-2.01,0.6-0.94,3.86-3.49,3.99c-2.08-0.48-3.13-2.03-2.12-3.71
		C112.65,28.64,114.89,30.09,116.82,30.75z"/>
	<path class="st18" d="M47.31,67.03c1.14,4.72,1.16,9.45,0.01,14.17c-0.23,0.35-0.46,0.35-0.69,0c0.01-4.48,0.02-8.96,0.03-13.43
		C46.77,67.43,46.98,67.18,47.31,67.03z"/>
	<path class="st19" d="M98.11,31.49c-2.11-0.71-1.26-2.5-1.45-3.92c0.27-0.24,0.53-0.48,0.8-0.73c0.99-0.85,1.93-0.63,2.86,0.1
		c0.23,0.24,0.4,0.52,0.5,0.84c0.12,0.61,0.11,1.25,0.5,1.8c0.16,0.29,0.25,0.6,0.26,0.93c-0.04,0.68,0.11,1.4-0.53,1.91
		C99.77,33.03,98.92,32.33,98.11,31.49z"/>
	<path class="st20" d="M45.02,56.71c0.89,0.96-2.06,4.89,2.41,3.09c0.95,0.39,1.41,1.16,1.69,2.09c0.05,0.31,0.04,0.62-0.01,0.93
		c-0.19,0.75-0.41,1.5-1.1,1.98c-0.23,0-0.46,0.05-0.68,0.14c-0.5,0.33-0.98,0.3-1.42-0.12C44.59,62.23,43.59,59.6,45.02,56.71z"/>
	<path class="st21" d="M100.54,28.27c0.04-0.24,0.04-0.48,0-0.72c-0.39-0.67-0.18-1.3,0.1-1.93c0.09-0.15,0.18-0.29,0.27-0.44
		c0.12-0.12,0.24-0.24,0.37-0.37c0.45-0.3,0.91-0.5,1.43-0.19c-0.34,2.36,0.88,1.24,1.8,0.8c0.03,1.13,0.11,2.23,1.22,2.91
		c0.44,0.55,0.37,1.06-0.14,1.52c-0.96-1.13-2.39-1.06-3.65-1.43C101.43,28.8,100.96,28.73,100.54,28.27z"/>
	<path class="st22" d="M52.59,40.27c3.06-1.72,6.09-0.31,9.13,0.07c-0.01,0.23-0.08,0.44-0.22,0.63c-0.2,0.37-0.48,0.42-0.82,0.2
		c-2.76-0.38-5.47,0.09-8.18,0.51C52.08,41.18,52.14,40.71,52.59,40.27z"/>
	<path class="st23" d="M66.08,60.23c-2.09-0.01-4.31-0.19-3.9,3c-0.47,0.39-0.93,0.78-1.39,1.17c-0.03-0.12-0.05-0.25-0.05-0.37
		c-1.44-2.18-1.36-4.37-0.08-6.57c2.33-0.73,3.45,1.55,5.27,2.1C66.02,59.77,66.07,59.99,66.08,60.23z"/>
	<path class="st24" d="M65.93,59.55c-1.89,0.04-3.47-0.55-4.49-2.24c-1.06-0.48-1.32-1.28-0.92-2.34c0.51-0.62,1.06-1.12,1.93-0.63
		C63.61,56.08,64.77,57.82,65.93,59.55z"/>
	<path class="st11" d="M62.45,54.35c-0.53,0.26-1.07,0.52-1.6,0.78c-0.28-0.18-0.47-0.42-0.59-0.73c-0.11-0.46,0.06-0.95-0.14-1.4
		c0.03-2.28-1.25-4.72,0.79-6.77C60.64,49.07,61.61,51.7,62.45,54.35z"/>
	<path class="st25" d="M105.59,29.85c0.05-0.51,0.1-1.01,0.14-1.52c1.23,0.02,2.48-0.43,3.67,0.18c0.08,1.15-1.81,2.42,0.2,3.46
		c0.15,0.33,0.07,0.61-0.22,0.82c-0.25,0.03-0.48,0.1-0.71,0.21c-0.48,0-0.96,0-1.44,0C105.16,32.74,105.81,31.07,105.59,29.85z"/>
	<path class="st26" d="M96.09,16.43c0.21,0,0.43,0,0.64,0.01c1.69,2.12-0.06,5.27,2.2,7.23c0.81,0.64,1.47,1.34,0.96,2.48
		c-1.15,0.8-1.81-0.16-2.59-0.7c-1.06-0.65-1.58-1.56-1.4-2.82c-0.41-1.62-0.46-3.24,0.02-4.86C95.97,17.32,96.03,16.88,96.09,16.43
		z"/>
	<path class="st16" d="M48.71,15.52c0.45,2.79-1.42,5.6,0.06,8.39c-0.26,0.33-0.52,0.32-0.78-0.01
		C46.48,20.96,46.89,18.18,48.71,15.52z"/>
	<path class="st27" d="M44.95,34.85c0.84,2.08,1.6,4.16-0.02,6.24C43.98,39,44,36.92,44.95,34.85z"/>
	<path class="st28" d="M104.64,100.1c-0.4,0.12-0.8,0.23-1.21,0.35c0.5-2.94-0.86-6.05,0.86-8.87
		C104.55,94.41,103.7,97.29,104.64,100.1z"/>
	<path class="st29" d="M103.47,64.84c1.55-1.18,3.47-0.34,5.13-0.94c0,0.31,0,0.61,0,0.92c-2.48-0.33-4.54,0.07-5.13,2.97
		c-0.3-0.19-0.54-0.43-0.72-0.73C102.99,66.32,103.23,65.58,103.47,64.84z"/>
	<path class="st30" d="M59.98,32.87l-0.36-0.01l-0.36,0.02c-2.08,0.11-2.71-1.15-2.8-2.91c0.08-0.4,0.27-0.72,0.58-0.98
		C58.64,29.81,59.94,30.87,59.98,32.87z"/>
	<path class="st6" d="M109.45,40.27c0.26-0.21,0.51-0.41,0.77-0.61c0.31,1.71-0.76,3.66,0.89,5.15c-0.31,0.46-0.63,0.92-0.94,1.38
		c-2.22-1.18-0.51-3.22-1.06-4.77C109.07,40.99,109.18,40.61,109.45,40.27z"/>
	<path class="st31" d="M57.78,79.76c0.38-2.04-1.1-4.52,1.48-6.03C59.12,75.83,58.67,77.85,57.78,79.76z"/>
	<path class="st32" d="M49.5,104.34c-0.41-0.47-0.82-0.94-1.23-1.4c-0.05-1.04-0.1-2.08-0.15-3.11
		C50.71,100.68,49.06,102.83,49.5,104.34z"/>
	<path class="st33" d="M56.24,84.91c0.24-1.82-0.79-4.01,1.56-5.21c-0.29,2.23-0.59,4.45-0.88,6.68
		C55.58,86.4,55.84,85.68,56.24,84.91z"/>
	<path class="st34" d="M109.33,32.07c-1.01-0.03-1.97-0.05-2.08-1.45c-0.12-1.61,1.54-1.32,2.16-2.11c0.69,0.12,0.67,0.67,0.73,1.18
		C109.27,30.28,109.81,31.35,109.33,32.07z"/>
	<path class="st11" d="M56.19,99.79c-1.07-2.17-1.06-4.34-0.03-6.51c0.27,0.09,0.39,0.21,0.35,0.38c-0.04,0.19-0.1,0.28-0.18,0.28
		C56.29,95.89,56.24,97.84,56.19,99.79z"/>
	<path class="st27" d="M56.24,84.91c0.23,0.49,0.45,0.98,0.68,1.47c0.01,0.26,0.02,0.53,0.03,0.79c-0.81,1.12,0.19,2.58-0.71,3.69
		C55.09,88.87,55.15,86.89,56.24,84.91z"/>
	<path class="st18" d="M109.49,41.05c0.24,1.71-0.66,3.57,0.68,5.13c-0.19,0.27-0.37,0.55-0.56,0.82c-0.3-0.02-0.6-0.04-0.9-0.06
		c0-1.91,0-3.82,0-5.73C108.86,40.68,109.12,40.62,109.49,41.05z"/>
	<path class="st18" d="M56.25,90.85c0.2-1.24-0.45-2.63,0.71-3.69c0.02,2.28,0.45,4.59-0.62,6.77c-0.09-0.21-0.14-0.44-0.17-0.66
		C56.19,92.47,56.22,91.66,56.25,90.85z"/>
	<path class="st35" d="M46.52,90.87c1.35,1.38,0.57,3.07,0.71,4.63c-1.06-1.37-1.11-3.02-1.3-4.63
		C46.13,90.51,46.33,90.53,46.52,90.87z"/>
	<path class="st36" d="M109.33,32.07c-0.08-0.84-1.75-0.88-1.14-1.89c0.24-0.41,1.28-0.35,1.95-0.5c-0.04,1.08,0.58,2.33-0.75,3.1
		C109.47,32.54,109.45,32.3,109.33,32.07z"/>
	<path class="st37" d="M46.52,90.87c-0.2,0-0.39,0-0.59,0c-0.34-1.98-0.34-3.96-0.06-5.95c0.21-0.35,0.43-0.37,0.65-0.01
		C46.53,86.9,46.53,88.89,46.52,90.87z"/>
	<path class="st38" d="M45.03,41.74c1.21,1.94,1.05,3.92,0.15,5.92C45.13,45.68,45.08,43.71,45.03,41.74z"/>
	<path class="st38" d="M99.68,12.57c-0.8,1.24-1.14,2.93-3.06,3.07C97.32,14.31,98.01,12.96,99.68,12.57z"/>
	<path class="st39" d="M46.53,84.91c-0.22,0-0.43,0.01-0.65,0.01c-0.29-1.35,0.4-2.5,0.74-3.72c0.23,0,0.46,0,0.69,0
		C47.34,82.5,47.24,83.77,46.53,84.91z"/>
	<path class="st38" d="M97.29,25.44c0.81,0.22,1.63,0.45,2.44,0.67c0.5-0.43,1-0.43,1.48,0.03c-0.23,0.47-0.46,0.94-0.68,1.41
		c-0.99-0.37-1.95-0.91-3.08-0.7C97.4,26.38,97.35,25.91,97.29,25.44z"/>
	<path class="st40" d="M117.63,34.28c0.26-1.07,0.63-2.14,0.13-3.24c1.1,0.21,1.68,0.81,1.59,1.98
		C119.27,34.13,118.61,34.41,117.63,34.28z"/>
	<path class="st41" d="M47.94,53.78c-0.46-0.34-0.91-0.68-1.36-1.03c-0.06-0.66-0.11-1.33-0.17-1.99c1.62-0.13,1.33,1.24,1.69,2.1
		C48.4,53.23,48.35,53.53,47.94,53.78z"/>
	<path class="st23" d="M60.53,19.43c-2.48-1.04-1-1.99,0.06-2.96C60.57,17.46,60.55,18.44,60.53,19.43z"/>
	<path class="st42" d="M47.28,29.1c-0.84,0.89-0.3,2.78-2.15,2.94c-0.2-1.25,0.38-2.18,1.24-3C46.69,28.77,46.99,28.8,47.28,29.1z"
		/>
	<path class="st39" d="M60.03,69.32c-1.58-1.58-0.16-2.62,0.69-3.76C61.23,66.95,59.98,68.02,60.03,69.32z"/>
	<path class="st29" d="M59.31,73.12c-0.71-1.25-1-2.4,0.7-3.11C60.12,71.12,60.18,72.23,59.31,73.12z"/>
	<path class="st43" d="M60.68,41.16c0.27-0.06,0.55-0.13,0.82-0.2c-0.02,1.49-0.03,2.98-0.05,4.48
		C60.16,44.2,61.05,42.57,60.68,41.16z"/>
	<path class="st35" d="M47.28,29.1c-0.3-0.02-0.61-0.04-0.91-0.06c0.48-1.08,1.3-1.79,2.42-2.18c0.28-0.42,0.54-0.4,0.77,0.04
		c0,0.24-0.02,0.48-0.03,0.71C48.77,28.11,48.02,28.6,47.28,29.1z"/>
	<path class="st33" d="M57.04,28.98c-0.02,0.3-0.04,0.6-0.06,0.89c-1.27,0.22-1.75-0.6-2.09-1.59c0.01-0.95-0.23-2.06,1.28-2.12
		c0,0,0.22-0.06,0.22-0.06C56.15,27.17,56.56,28.08,57.04,28.98z"/>
	<path class="st38" d="M95.91,17.76c-0.01,1.62-0.01,3.24-0.02,4.86C94.59,20.99,95.1,19.37,95.91,17.76z"/>
	<path class="st39" d="M45.91,64.82c0.47,0.04,0.95,0.08,1.42,0.11c-0.01,0.7-0.01,1.4-0.02,2.1c-0.22,0.24-0.44,0.49-0.66,0.73
		C46.4,66.78,46.15,65.8,45.91,64.82z"/>
	<path class="st44" d="M59.12,23.48c-0.73-0.07-1.84-0.22-1.52-0.79c0.33-0.58,1.23-0.21,1.72,0.27
		C59.32,23.15,59.25,23.32,59.12,23.48z"/>
	<path class="st44" d="M107.17,23.88c-0.69-0.1-1.46-0.09-1.64-0.98c-0.02-0.11,0.25-0.37,0.41-0.4c0.67-0.13,1.09,0.27,1.44,0.78
		C107.37,23.5,107.3,23.7,107.17,23.88z"/>
	<path class="st40" d="M49.55,26.91c-0.26-0.01-0.51-0.03-0.77-0.04c-0.27-0.99-0.53-1.98-0.8-2.96c0.26,0,0.52,0.01,0.78,0.01
		C49.28,24.84,49.74,25.79,49.55,26.91z"/>
	<path class="st8" d="M108.71,16.47c-1.05-0.53-1.58-1.34-1.33-2.55C108.62,14.36,108.87,15.31,108.71,16.47z"/>
	<path class="st33" d="M108.6,19.44c-2.12-0.81-1.03-1.53,0.07-2.24C108.64,17.94,108.62,18.69,108.6,19.44z"/>
	<path class="st21" d="M99.73,84.92c0.03,2.01,1.12,3.88,0.75,5.94c-0.67,0.16-1.07,0.06-0.75-0.75c-0.63-2.72-1.55-5.45-0.02-8.18
		C100.29,82.93,100.26,83.92,99.73,84.92z"/>
	<path class="st45" d="M99.73,90.11c0.25,0.25,0.5,0.5,0.75,0.75c-0.01,0.52-0.02,1.04-0.03,1.56c-0.98,1.62,0.29,3.58-0.77,5.19
		c-0.99-0.83-0.57-1.99-0.72-3.02c-0.53-1.23-0.52-2.46-0.01-3.69C99.21,90.63,99.47,90.37,99.73,90.11z"/>
	<path class="st46" d="M99.68,97.6c0.45-1.7-0.69-3.64,0.77-5.19c-0.2,2.64,0.83,5.37-0.64,7.9C99.73,99.41,98.96,98.54,99.68,97.6z
		"/>
	<path class="st27" d="M99.73,84.92c-0.01-1-0.01-1.99-0.02-2.99c0.98-1.05,0.31-2.77,1.53-3.72C101.27,80.57,101,82.86,99.73,84.92
		z"/>
	<path class="st27" d="M102.75,67.06c0.24,0.25,0.48,0.49,0.72,0.73c-0.23,1.5,0.61,3.17-0.75,4.48
		C102.73,70.53,102.74,68.8,102.75,67.06z"/>
	<path class="st9" d="M98.95,90.89c0,1.23,0.01,2.46,0.01,3.69C97.87,93.35,97.88,92.12,98.95,90.89z"/>
	<path class="st47" d="M51.79,90.13c0.24,0.25,0.49,0.5,0.73,0.76c-1.54,1.76,0.07,3.98-0.85,5.83c-0.14,0.36-0.37,0.65-0.68,0.88
		c-1.19-3.49-1.14-6.98-0.03-10.47C51.89,87.95,50.88,89.3,51.79,90.13z"/>
	<path class="st16" d="M55.51,70.03c0.02,2.11-0.42,4.11-1.48,5.96c-0.23,0.36-0.46,0.36-0.69,0c0.49-1.98,0.98-3.97,1.47-5.95
		C55.04,69.68,55.27,69.69,55.51,70.03z"/>
	<path class="st26" d="M51,97.59c0.02-0.25,0.04-0.49,0.03-0.74c0.97-0.44,1.21,1.23,2.19,0.75c0.02,1.21,0.03,2.42,0.05,3.62
		c-0.5,0.03-1,0.07-1.5,0.1C51.08,100.17,50.93,98.9,51,97.59z"/>
	<path class="st48" d="M55.4,65.63c-1.97-0.06-3.95-0.13-5.92-0.19c-0.54-0.77-0.25-1.28,0.52-1.63c1-0.12,2,0.16,3,0.1
		c1.17,0.17,2.09-0.82,3.25-0.72c0.26,0.23,0.43,0.51,0.52,0.85c0.07,0.54-0.08,1.01-0.43,1.42l-0.07,0.11
		C56.01,65.96,55.72,65.98,55.4,65.63z"/>
	<path class="st30" d="M53.34,75.99c0.23,0,0.46,0,0.69,0c-0.26,1.73-0.52,3.47-0.78,5.2c-0.26,0.31-0.52,0.31-0.79,0
		C52.62,79.43,52.24,77.59,53.34,75.99z"/>
	<path class="st33" d="M55.4,65.63c0.29-0.02,0.58-0.04,0.88-0.05c0.01,1.53,0.11,3.08-0.77,4.46c-0.23,0-0.46,0-0.69,0.01
		C54.7,68.53,54.71,67.03,55.4,65.63z"/>
	<path class="st49" d="M51.79,90.13c-1.14-0.77-0.62-1.98-0.82-3.01c0.04-1.21,0.07-2.43,0.11-3.64c1.32-0.04,1.17,0.64,0.72,1.46
		C51.79,86.67,51.79,88.4,51.79,90.13z"/>
	<path class="st21" d="M50.28,64.22c-0.6,0.19-0.76,0.67-0.8,1.22c-0.5-0.22-0.99-0.43-1.48-0.65c-0.06-0.92-0.19-1.86,0.82-2.42
		C50.39,62.14,50.88,62.75,50.28,64.22z"/>
	<path class="st23" d="M51.79,84.94c-0.05-0.58-0.13-1.15-0.72-1.46c-0.07-1.08,0.42-1.83,1.38-2.29c0.26,0,0.52,0,0.79,0
		C52.38,82.3,52.9,83.93,51.79,84.94z"/>
	<path class="st50" d="M60.72,54.63c-0.02,0.18,0.02,0.35,0.13,0.5c-0.19,0.83,0.16,1.52,0.59,2.19c-1.18,2.14-0.25,4.5-0.71,6.71
		c-0.5,0.05-0.99,0.11-1.49,0.16c-0.57-0.32-0.85-0.87-1.14-1.41c-0.15-0.25-0.3-0.51-0.46-0.76c-0.58-0.89-1.56-0.73-2.42-0.9
		c-1.07-0.16-1.94-0.61-2.42-1.63c-0.71-0.79-1.09-1.71-1.01-2.78c-0.59-0.78-0.47-1.6-0.13-2.43
		C54.7,54.03,57.69,54.81,60.72,54.63z"/>
	<path class="st18" d="M53.22,97.6c-1.53,2.03-1.41-0.65-2.19-0.75c0.64-1.95-1.54-4.6,1.49-5.96
		C52.71,93.13,53.65,95.29,53.22,97.6z"/>
	<path class="st29" d="M58.46,62.24c0.26,0.65,0.52,1.3,0.78,1.94c-0.79,0.83-1.73,1.31-2.9,1.28c0-0.48,0-0.95-0.01-1.43
		c0.45-0.43,0.89-0.87,1.35-1.29C57.91,62.53,58.17,62.36,58.46,62.24z"/>
	<path class="st49" d="M52.59,40.27c-0.03,0.47-0.06,0.94-0.08,1.4c-0.5,0.27-1,0.54-1.5,0.81c-0.41,0.43-0.89,0.47-1.41,0.26
		c-0.25-0.25-0.37-0.55-0.32-0.91c0.59-1.23,0.9-2.51,0.65-3.88c0.04-0.71,0.41-1.25,0.89-1.73c1.63-0.91-0.15-3.79,2.42-4.15
		C53.37,34.84,53.37,37.58,52.59,40.27z"/>
	<path class="st17" d="M60.72,54.63c-3.02,0.83-6,0.37-8.98-0.29c-0.86-0.54-1.49-1.15-0.68-2.2c2.92,1.33,5.79,3.15,9.06,0.86
		C60.72,53.39,60.78,53.99,60.72,54.63z"/>
	<path class="st4" d="M51,43.2c1.39,2.5-0.03,5.01,0,7.51c-0.33,0.23-0.64,0.21-0.94-0.06c-0.27-1.23-0.45-2.48-1.02-3.63
		c-0.15-0.54-0.15-1.09-0.03-1.64C49.47,44.47,49.38,43.06,51,43.2z"/>
	<path class="st16" d="M50.29,50.67c0.24,0,0.48,0.02,0.72,0.04c0.02,0.47,0.03,0.95,0.05,1.42c0.23,0.73,0.45,1.47,0.68,2.2
		c0.02,0.79,0.04,1.58,0.06,2.36c-1.6-1.7-1.24-4.1-2.22-6.03C49.82,50.32,50.05,50.31,50.29,50.67z"/>
	<path class="st16" d="M51,43.2c-0.45,0.75-0.9,1.5-1.35,2.25c-0.45-0.16-0.63-0.54-0.76-0.95c-0.09-0.41-0.09-0.84-0.09-1.26
		c0-0.25,0.01-0.5,0.01-0.76c0.24-0.36,0.48-0.36,0.71,0c0.49,0,0.99,0,1.48,0C51,42.72,51,42.96,51,43.2z"/>
	<path class="st51" d="M107.31,106.35c-1.33,1.31-2.24,0.78-3.71,0.95C104.96,106.26,105.92,106.45,107.31,106.35z"/>
	<path class="st52" d="M109.49,41.05c-0.26,0.06-0.52,0.11-0.78,0.17c-1.72-0.1-3.45-0.21-5.17-0.32c0.22-0.48,0.44-0.96,0.65-1.44
		c1.82-0.12,3.54,0.32,5.26,0.81C109.46,40.53,109.47,40.79,109.49,41.05z"/>
	<path class="st26" d="M53.23,32.08c-1.13,0.95-0.68,2.25-0.69,3.41c0,1.23-0.45,1.52-1.53,1.04c-0.21-0.24-0.32-0.51-0.35-0.82
		c-0.03-0.59-0.01-1.19-0.33-1.74c-0.05-0.14-0.11-0.28-0.16-0.42c0.05-1.49,0.1-2.99,0.15-4.48c0.95-0.81,0.57-2.02,0.9-3.02
		c0.67-0.99-0.39-2.73,1.4-3.25c0.98,0.16,1.42,0.88,1.76,1.69c0.31,1.03-0.04,1.96-0.45,2.88c-0.45,0.82-0.46,1.68-0.27,2.57
		c-0.01,0.31-0.12,0.57-0.34,0.79C53.31,31.18,53.27,31.63,53.23,32.08z"/>
	<path class="st15" d="M50.28,64.22c0.29-1.23-0.35-1.71-1.46-1.84c0-0.13,0-0.25,0.01-0.38c0.18-0.8,0.58-1.26,1.48-0.95
		c0.86,0.03,1.75,0.15,2.32-0.73c2.5,1.1,2.7,2.61,0.79,4.48C52.34,64.74,51.18,65.16,50.28,64.22z"/>
	<path class="st15" d="M53.41,64.8c0.9-1.7,0.48-3.16-0.79-4.48c0.07-0.28,0.13-0.56,0.2-0.84c0.93,0.31,1.86,0.63,2.79,0.94
		c0.91,0.54,2.1,0.46,2.86,1.32c0.03,0.17,0.03,0.34,0,0.5c-0.05,0.14-0.03,0.27,0.04,0.39c-0.65,0.66-1.49,0.7-2.35,0.69
		C55.46,64.21,54.75,65.1,53.41,64.8z"/>
	<path class="st37" d="M51.01,35.79c0,0.25,0,0.49,0.01,0.74c-0.25,0.49-0.51,0.98-0.76,1.47c-0.05,0.46-0.31,0.78-0.69,1.01
		c-0.3,0.09-0.54,0.02-0.74-0.22c-0.1-1.89-0.24-3.79,1.36-5.24c0,0,0.1,0.01,0.1,0.01C50.81,34.21,51.48,34.82,51.01,35.79z"/>
	<path class="st49" d="M51.77,26.12c-0.17,1.13,0.55,2.69-1.44,2.95c-0.06-0.22-0.09-0.44-0.09-0.67c0.3-1.5-0.59-3.2,0.78-4.52
		C51.65,24.5,52.17,25.15,51.77,26.12z"/>
	<path class="st32" d="M47.94,53.78c0.05-0.3,0.1-0.61,0.15-0.91c1.18,1.56,2.27,3.16,2.15,5.25
		C48.98,56.93,48.47,55.35,47.94,53.78z"/>
	<path class="st53" d="M50.3,61.05c-0.49,0.32-0.99,0.63-1.48,0.95c-0.86-0.49-1.06-1.39-1.39-2.2c0.69,0.03,1.39,0.05,2.08,0.08
		c0.34,0.04,0.59,0.2,0.73,0.52C50.26,60.62,50.28,60.83,50.3,61.05z"/>
	<path class="st23" d="M48.8,43.24c0.23,0.29,0.45,0.58,0.68,0.87c-0.71,1.02-0.15,2.17-0.35,3.25c-0.11,0.12-0.22,0.23-0.34,0.35
		C47.62,46.21,47.64,44.72,48.8,43.24z"/>
	<path class="st11" d="M50.29,50.67l-0.36,0c0,0-0.36,0-0.36,0c-0.26-0.99-0.53-1.98-0.79-2.97c0,0-0.01-0.01-0.01-0.01
		c0.28-0.25,0.35-0.76,0.87-0.71C50.74,48.06,50.11,49.44,50.29,50.67z"/>
	<path class="st12" d="M48.83,38.79c0.22-0.02,0.43-0.02,0.65-0.03c0.97,0.97,0.65,1.96,0.05,2.96c0,0.25-0.01,0.5-0.01,0.76
		c-0.24,0-0.48,0-0.71,0C48.81,41.25,48.82,40.02,48.83,38.79z"/>
	<path class="st32" d="M50.24,60.4c-0.24-0.17-0.49-0.35-0.73-0.52c0.25-0.58,0.49-1.16,0.74-1.73
		C51.37,58.9,51.15,59.65,50.24,60.4z"/>
	<path class="st16" d="M98.11,31.49c1.02,0.16,2.05,0.32,3.07,0.47c0.67,1.27,0.51,2.57,0.11,3.87c-0.27,0.76-0.54,1.52-0.81,2.28
		C98.11,36.46,99.14,33.61,98.11,31.49z"/>
	<path class="st17" d="M101.29,35.83c-0.04-1.29-0.07-2.58-0.11-3.87c0-0.66,0-1.32,0-1.97c0.23-0.35,0.49-0.37,0.78-0.06
		C101.7,31.89,102.69,33.99,101.29,35.83z"/>
	<path class="st54" d="M100.54,28.27c0.47,0.05,0.94,0.1,1.41,0.16c0.04,0.23,0.04,0.46-0.01,0.69c-0.36,0.47-1.03,0.23-1.42,0.63
		C99.36,29.23,99.65,28.75,100.54,28.27z"/>
	<path class="st55" d="M100.52,29.74c0.32-0.56,0.85-0.63,1.42-0.63c0.01,0.27,0.02,0.54,0.04,0.81c-0.26,0.02-0.52,0.04-0.78,0.07
		C100.96,29.9,100.74,29.82,100.52,29.74z"/>
	<path class="st56" d="M53.34,30.73c-0.04-0.31-0.09-0.62-0.13-0.93c-0.24-0.82,0.19-1.35,0.82-1.78c0.55-0.17,1.06-0.09,1.48,0.33
		c0.49,0.51,0.99,1.01,1.48,1.52c0.11,1.49,1.1,2.31,2.28,3c-0.2,1.69-1.23,1.27-2.09,0.7C55.84,32.7,54.61,31.69,53.34,30.73z"/>
	<path class="st49" d="M102.71,24.62c-0.48,0.26-0.97,0.53-1.45,0.79c-1.7-2.08-1.9-4.34-0.79-6.75c1.33-2.4,2.12-5.41,5.81-5.21
		C105.23,17.22,102.83,20.56,102.71,24.62z"/>
	<path class="st43" d="M54.02,24.63c-0.5-0.5-1-1-1.5-1.49c-0.72-0.35-1.14-0.85-0.86-1.7c0.94-1.01,0.07-2.46,0.86-3.51
		c1.4-1.71,1.74-4.88,5.21-3.79c-0.85,0.82-1.35,1.81-1.38,3c0.52,0.78,0.55,1.54-0.08,2.28c-0.25,0.49-0.51,0.99-0.76,1.48
		c-0.76,0.8-0.7,1.72-0.39,2.67C55.04,24.22,55.06,24.96,54.02,24.63z"/>
	<path class="st24" d="M54.02,24.63c0.58-0.34,0.69-0.88,0.67-1.48c0.26-0.24,0.53-0.26,0.81-0.02c0.23,1.01,0.46,2.03,0.69,3.04
		c-0.81,0.55-0.63,1.41-0.67,2.19c-0.5,0-1,0-1.49-0.01c-0.41-0.09-0.66-0.33-0.73-0.75C53.52,26.6,53.77,25.62,54.02,24.63z"/>
	<path class="st23" d="M56.27,19.41c0.03-0.76,0.05-1.52,0.08-2.28c0.59,0.14,1.25,0.23,1.31,1C57.74,19.12,57.03,19.31,56.27,19.41
		z"/>
	<path class="st32" d="M55.49,23.12c-0.27,0.01-0.54,0.02-0.81,0.02c-1.2-1.28,0.02-1.69,0.82-2.25
		C55.5,21.64,55.49,22.38,55.49,23.12z"/>
	<path class="st16" d="M52.52,17.93c-0.18,1.26,0.5,2.68-0.75,3.73c-0.67,0.17-1.02,0.01-0.75-0.75c0,0,0,0,0,0
		C52.23,20.27,51.3,18.56,52.52,17.93z"/>
	<path class="st43" d="M98.23,24.62c-2.91-2.29-0.9-5.47-1.49-8.18c0.25,0.25,0.5,0.5,0.75,0.75c0.69,1.46,0.81,3.04,1.06,4.6
		C98.63,22.75,99.02,23.75,98.23,24.62z"/>
	<path class="st26" d="M100.47,18.67c0.26,2.25,0.52,4.5,0.79,6.75c0,0,0-0.01,0-0.01c-2.11-0.94-2.59-2.75-2.62-4.8
		c0.11-0.15,0.22-0.3,0.33-0.45C99.47,19.66,99.97,19.17,100.47,18.67z"/>
	<path class="st38" d="M97.48,22.38c0-1.73,0-3.46,0-5.19c0.97,0.75,1.37,1.79,1.49,2.97c0,0,0,0,0,0
		C98.06,20.62,99.41,22.59,97.48,22.38z"/>
	<path class="st49" d="M51.02,20.9c0.25,0.25,0.5,0.5,0.75,0.75c0.25,0.49,0.5,0.98,0.75,1.47c-0.89,0.84,0.78,2.31-0.75,2.98
		c-0.25-0.74-0.5-1.49-0.75-2.23C50.65,22.89,49.65,21.9,51.02,20.9z"/>
	<path class="st49" d="M97.48,22.38c0.5-0.74,1-1.48,1.5-2.23c0.43,1.89,1.24,3.62,2.28,5.25c0,0.24-0.01,0.49-0.04,0.73
		c-0.49-0.01-0.99-0.02-1.48-0.03c-0.03-0.96-0.54-1.46-1.51-1.49C97.98,23.87,97.73,23.13,97.48,22.38z"/>
	<path class="st57" d="M56.16,63.33c0.54-1.04,1.42-0.93,2.35-0.69c-0.02,1.55-1.06,1.52-2.17,1.4
		C56.31,63.79,56.25,63.56,56.16,63.33z"/>
	<path class="st58" d="M58.47,61.74c-1.15-0.02-2.22-0.21-2.86-1.32C56.79,60.38,58.26,59.7,58.47,61.74z"/>
	<path class="st7" d="M49.53,41.73c-0.02-0.99-0.03-1.97-0.05-2.96c0.26-0.26,0.52-0.51,0.78-0.77
		C51.61,39.55,51.18,40.76,49.53,41.73z"/>
	<path class="st59" d="M49.65,46.98c-0.29,0.24-0.58,0.47-0.87,0.71c0.2-1.2-0.6-2.59,0.69-3.58c0.06,0.45,0.11,0.9,0.17,1.34
		C49.65,45.96,49.65,46.47,49.65,46.98z"/>
	<path class="st60" d="M53.28,27.59c0.24,0.25,0.49,0.5,0.73,0.75c-0.27,0.48-0.53,0.97-0.8,1.45
		C52.28,29.04,52.34,28.3,53.28,27.59z"/>
	<path class="st49" d="M51.01,35.79c-0.24-0.74-0.48-1.49-0.73-2.23C51.89,33.87,52.23,34.58,51.01,35.79z"/>
</g>
</svg>
