<?xml version="1.0" encoding="utf-8"?>
<!-- Generator: Adobe Illustrator 24.2.1, SVG Export Plug-In . SVG Version: 6.00 Build 0)  -->
<svg version="1.1" id="Calque_1" xmlns="http://www.w3.org/2000/svg" xmlns:xlink="http://www.w3.org/1999/xlink" x="0px" y="0px"
	 viewBox="0 0 186 112.75" style="enable-background:new 0 0 186 112.75;" xml:space="preserve">
<style type="text/css">
	.st0{fill:#FEFEFE;}
	.st1{fill:#FFDDC7;}
	.st2{fill:#FFDDC6;}
	.st3{fill:#FFC49D;}
	.st4{fill:#40916C;}
	.st5{fill:#FFC39B;}
	.st6{fill:#469470;}
	.st7{fill:#77C7A2;}
	.st8{fill:#7BC8A4;}
	.st9{fill:#79C7A3;}
	.st10{fill:#4B9875;}
	.st11{fill:#489572;}
	.st12{fill:#4F9A78;}
	.st13{fill:#FFD6BA;}
	.st14{fill:#70C39C;}
	.st15{fill:#FFF3EC;}
	.st16{fill:#7CC9A5;}
	.st17{fill:#FFD9BF;}
	.st18{fill:#FFC9A4;}
	.st19{fill:#FFCAA6;}
	.st20{fill:#FFCCA9;}
	.st21{fill:#FFF5EF;}
	.st22{fill:#FFF4ED;}
	.st23{fill:#FFC9A5;}
	.st24{fill:#85CCAB;}
	.st25{fill:#67C096;}
	.st26{fill:#FFDCC4;}
	.st27{fill:#92D2B4;}
	.st28{fill:#FFD8BE;}
	.st29{fill:#FFD4B7;}
	.st30{fill:#FFE1CD;}
	.st31{fill:#FFEDE0;}
	.st32{fill:#FFCBA8;}
	.st33{fill:#FFD2B5;}
	.st34{fill:#FFEADB;}
	.st35{fill:#FFE2CF;}
	.st36{fill:#FFE7D6;}
	.st37{fill:#FFE3D0;}
	.st38{fill:#FFE2CE;}
	.st39{fill:#73C59F;}
	.st40{fill:#FFE5D4;}
	.st41{fill:#FFDCC5;}
	.st42{fill:#FFDFC9;}
	.st43{fill:#71C49D;}
	.st44{fill:#FFEADC;}
	.st45{fill:#FFF6F0;}
	.st46{fill:#FFDAC1;}
	.st47{fill:#FFC59E;}
	.st48{fill:#6EC39B;}
	.st49{fill:#FFDFCA;}
	.st50{fill:#FFF0E6;}
	.st51{fill:#6AC198;}
	.st52{fill:#65BF95;}
	.st53{fill:#FFD5B9;}
	.st54{fill:#FFD7BD;}
	.st55{fill:#FFC6A0;}
	.st56{fill:#FFC69F;}
	.st57{fill:#FFD7BC;}
	.st58{fill:#FFC299;}
	.st59{fill:#FFD6BB;}
	.st60{fill:#FFC39A;}
</style>
<g>
	<path class="st0" d="M94.13,107.69c-27.48,0-54.97-0.03-82.45,0.06c-2.23,0.01-2.68-0.45-2.67-2.67C9.09,72.61,9.09,40.14,9,7.66
		C8.99,5.45,9.45,5,11.67,5c54.97,0.08,109.93,0.08,164.9,0c2.23,0,2.68,0.45,2.67,2.66c-0.09,32.47-0.09,64.95,0,97.42
		c0.01,2.22-0.45,2.67-2.67,2.67C149.09,107.65,121.61,107.69,94.13,107.69z"/>
	<path class="st1" d="M51.45,73.63c-0.92,5.35-2.14,10.63-3.79,15.8c-1.73,5.45-3.69,6.09-8.76,3.38
		c-3.45-1.84-6.55-4.59-10.83-4.41c-1.37-0.19-2.3-0.94-2.17-2.35c0.13-1.47,1.14-2,2.58-1.62c4.18,1.4,8.81,0.79,13.05,3.25
		c1.39-5.12-0.48-10.22,1.22-14.97C45.86,71.06,48.78,71.16,51.45,73.63z"/>
	<path class="st1" d="M51.44,30.25c-0.84,6.47-2.02,12.82-4.83,18.81c-1.45,3.1-3.23,3.44-6.19,1.99c-4.03-1.98-7.56-5.3-12.49-5.14
		c-1.49-0.7-4-0.95-1.52-3.41c4.1-0.75,8.01,0.42,11.95,1.23c1.03,0.21,1.98,1.17,3.13,0.35c1.58-3.24,0.36-6.71,0.89-10.04
		c0.75-4.79,0.85-4.85,7.29-4.63C50.35,29.5,50.95,29.75,51.44,30.25z"/>
	<path class="st1" d="M108.41,42.32c3.93,1.87,8.53,0.99,12.46,3.08c1.31,0.7,1.52-0.81,1.56-1.76c0.12-2.45,0.15-4.9,0.22-7.34
		c3.08-0.64,5.29,0.84,7.22,2.98c-0.37,3.56-1.48,6.93-2.79,10.22c-1.34,3.37-3.12,3.95-6.38,2.3c-2.74-1.39-5.44-2.86-8.12-4.35
		c-1.36-0.76-2.79-0.88-4.28-0.81c-1.27-0.4-2.74-0.75-2.53-2.47C105.94,42.78,107.05,42.25,108.41,42.32z"/>
	<path class="st2" d="M73.23,56.37c-1.47-4.62-3.16-9.18-3.5-14.09c-0.27-3.8-0.63-7.59-0.96-11.39c0.13-0.89,0.71-0.87,1.37-0.66
		c1.31,2.25-0.47,4.97,1.11,7.17c0.19,3.19,0.05,6.37,0.1,8.65c-0.18-2.38,0.42-5.65-0.31-8.93c-1.29-2.35,0.72-5.27-1.29-7.5
		c-1.87-0.82-4.22-1.38-3.86-4.07c0.35-2.64,2.21-3.87,4.86-3.9c1.37,0.47,2.73,0.94,3.6,2.21c0.98,1.72,0.49,3.61,0.65,5.42
		c0.02,0.4,0.03,0.81,0.02,1.21c0.04,1.59-0.44,3.16-0.26,4.76c-0.01,1.36,0,2.72,0.55,4.01c0.09,0.59-0.05,1.17-0.16,1.74
		c0.36,1.92,0.69,3.84-0.23,5.71c-0.92,1.65-0.77,3.44-0.66,5.23c-0.31,2.13,0.96,2.72,2.75,2.83c0.33,1.35-0.77,1.49-1.59,1.87
		C74.67,56.71,73.9,56.94,73.23,56.37z"/>
	<path class="st2" d="M116.74,30.58c2.29,0.58,4.65,1.67,6.59-0.76c0.72-1.16,1.59-2.22,2.48-3.25c1.85-2.13,3.99-2.95,6.46-0.89
		c0.73,0.94,1,2.09,1.46,3.16c0.07,0.31,0.11,0.63,0.11,0.96c-0.31,3.36,0.68,7.27-3.79,8.87c-2.63-1.24-5.36-2.28-7.86-3.78
		c-1.9-0.26-3.81-0.52-5.71-0.78c-1.56,0.16-2.43-0.68-2.27-2.09C114.35,30.72,115.48,30.35,116.74,30.58z"/>
	<path class="st1" d="M156.8,50.43c-0.31,1.7-3.36,2.03-2.24,4.44c0.67,0.79,1.95-0.03,2.54,0.98c0.16,0.62,0.08,1.16-0.48,1.55
		c-0.99,0.08-1.99,0.25-2.95-0.19c-2.52-1.66-0.95-4.64-2.19-6.71c-1.07-4.6-0.17-9.37-1.26-13.97c-0.43-2.15,0.39-4.55-1.29-6.45
		c-1.94-0.77-3.82-1.78-3.11-4.25c0.73-2.53,2.61-3.77,5.35-3.43c1.31,0.54,2.7,0.97,3.26,2.48c0.47,1.47,0.97,2.95,0.75,4.54
		c-0.13,0.75-0.35,1.49-0.34,2.26c-0.05,1.57-0.02,3.15,0.01,4.72c0.06,1.03,0.04,2.05,0.01,3.07c-0.05,2.7,0.02,5.39-0.05,8.08
		c-0.59,1.32-0.55,2.25,1.29,2.05l-0.08,0.17C156.36,49.9,156.62,50.12,156.8,50.43z"/>
	<path class="st3" d="M76.85,65.3c2.3-1.72,4.84-1.52,7.37-0.8c4.97,1.43,6.04,5.65,2.56,9.86c-0.36,0.2-0.72,0.22-1.1,0.07
		c-3.37-0.78-6.89,0.68-10.23-0.66c-0.73-0.72-0.86-1.67-1-2.61c-0.4-1.83-0.76-3.65,1.05-5.02C75.95,65.86,76.48,65.7,76.85,65.3z"
		/>
	<path class="st1" d="M76.85,65.3c-0.22,0.26-0.43,0.52-0.65,0.78c-2.77,1.03-1.61,3.32-1.68,5.22c-0.16,0.7-0.29,1.4-0.29,2.12
		c0.03,1.53-0.4,3.02-0.21,4.56c0.21,0.97,0.29,1.95,0.24,2.94c-0.09,2.55,0.08,5.11-0.14,7.65c-0.04,0.36-0.12,0.72-0.22,1.06
		c-0.49,1.13-0.41,2.29-0.16,3.46c-0.18,1-0.15,2-0.13,3.01c0.32,1.25,1.32,1.19,2.26,1.1c1.1-0.1,1.84,0.19,2.04,1.37
		c-0.19,0.35-0.47,0.53-0.87,0.55c-1.53-0.15-3.1,0.35-4.58-0.33c-1.15-1.27-0.59-2.85-0.77-4.29c-0.45-1.07-0.27-2.42-1.45-3.15
		l0.01,0.01c-0.4-0.51-0.35-1.07-0.2-1.65c0.46-3.42,0.24-6.83-0.22-10.23c-0.12-0.34-0.2-0.7-0.25-1.06
		c-0.01-1.79-0.26-3.56-0.3-5.35c-0.02-1-0.13-1.96-1.49-1.99c-3.7-1.74-3.73-3.67-0.12-6.38c1.97-0.75,3.84,0.04,5.74,0.37
		C74.55,65.14,75.7,65.22,76.85,65.3z"/>
	<path class="st4" d="M51.44,30.25c-0.4,0.01-0.81,0.01-1.21,0.02c-2.5-0.87-5.16,0.26-7.65-0.61c-2.11-7.45,0.7-11.02,7.74-9.81
		c2.73,2.89,2.97,6.15,1.41,9.66C51.63,29.76,51.53,30.01,51.44,30.25z"/>
	<path class="st2" d="M51.72,29.51c0.22-3.32-0.19-6.55-1.41-9.66c3.86,1.67,7.81,0.45,11.72,0.37c0.28,0.24,0.49,0.54,0.64,0.88
		c0.61,2.67-0.64,4.98-1.49,7.36c-0.28,0.51-0.76,0.77-1.27,0.99C57.18,28.71,54.45,28.92,51.72,29.51z"/>
	<path class="st3" d="M168.73,25.89c1.5,2.46,1.11,4.51-1.36,6.09c-0.29,0.18-0.6,0.22-0.92,0.11c-3.25-1.44-6.58,0.52-9.85-0.24
		c-0.51-0.11-0.97-0.32-1.33-0.71c-0.17-0.3-0.23-0.62-0.19-0.96c0.37-1.09,0.86-2.14,1.29-3.2c0.46-1.08,0.77-2.25,1.73-3.06
		C162.35,20.77,165.55,23.29,168.73,25.89z"/>
	<path class="st2" d="M35.87,66.03c2.27-0.53,4.54-1.06,6.81-1.58c5.31-2.01,7.23-1.7,9.61,1.55c0.4,1.79,0.35,3.48-1.19,4.8
		c-2.94,1.24-5.76-0.04-8.62-0.43c-2.52,0.63-4.84-0.41-7.22-0.91c-0.21-0.24-0.31-0.52-0.28-0.85
		C35.1,67.69,35.17,66.75,35.87,66.03z"/>
	<path class="st5" d="M88.8,25.17c0.29,1.47,0.99,2.93,0.08,4.43c-1.39,0.61-3,0.45-4.34,1.25c-2.53-0.33-5.02,0.94-7.56,0.13
		c-2.38-1.19-0.89-3.29-1.17-4.98c0.11-1,0.82-1.59,1.51-2.2C81.81,20.75,83.77,20.99,88.8,25.17z"/>
	<path class="st6" d="M132.23,26.5c-2.93-2.28-5.12-1.21-6.44,1.77c-0.58,1.33-1.3,1.58-2.46,1.55c-0.18-0.96-0.41-1.91-0.53-2.87
		c-0.33-2.67-0.1-5.23,2.57-6.67c2.55-1.38,4.94-0.89,6.98,1.2c1.41,1.46,1.87,3.1,0.89,4.99C132.92,26.82,132.58,26.84,132.23,26.5
		z"/>
	<path class="st1" d="M132.98,21.55c2.97-0.11,5.9-0.92,8.9-0.57c0.47,0.38,0.69,0.88,0.79,1.46c0.23,2.52-0.94,4.72-1.6,7.04
		c-0.19,0.32-0.44,0.6-0.74,0.83c-2.13-0.61-4.29-0.74-6.48-0.52c0,0-0.21-0.26-0.21-0.26c-0.4-0.64-0.39-1.38-0.54-2.08
		C133.46,25.48,133.42,23.51,132.98,21.55z"/>
	<path class="st7" d="M59.92,29.44c0.2-0.2,0.39-0.39,0.59-0.59c1.99-2.44,1.69-5.69,3.02-8.37c2.69,0.14,5.4-0.11,8.09,0.23
		c0.62,0.45,1.24,0.91,1.86,1.36c-0.8,0.68-1.64,0.55-2.5,0.13c-0.36,0.06-0.75,0.04-1.06,0.19c-1.52,0.72-3.23,1.28-3.4,3.35
		c-0.22,2.79,2.64,1.9,3.76,3.09c0.49,0.88-0.26,1.11-0.77,1.47c-0.24,0.19-0.49,0.39-0.73,0.58
		C65.35,33.23,62.63,31.35,59.92,29.44z"/>
	<path class="st8" d="M68.02,65.3c-1.42,0.82-2.58,1.85-2.14,3.69c0.35,1.46,1.58,1.59,2.84,1.56c0.96,0.39,1.25,1.11,1.04,2.08
		c-0.38,0.69-1,0.91-1.75,0.9c-2.91,1.68-5.53,1.82-7.52-1.4c-0.1-3.23,1.3-6.11,2.11-9.13c2.73-0.28,5.45,0.08,8.18,0.13
		c0.32,0.23,0.64,0.46,0.95,0.68C71.26,66.19,68.96,64.05,68.02,65.3z"/>
	<path class="st7" d="M140.32,30.32c0.02-0.24,0.05-0.49,0.09-0.73c1.27-1.55,1.75-3.45,2.19-5.32c0.28-1.21,0.46-2.39,1.63-3.1
		c2.42,0.43,4.87,0,7.3,0.28c0.48,0.3,0.97,0.6,1.45,0.9c-0.07,1.14-0.7,0.99-1.43,0.62c-0.84,0.17-1.72,0.22-2.5,0.53
		c-1.59,0.62-2.92,1.63-2.59,3.57c0.34,2.01,2.04,1.8,3.54,1.8c0.46,0.33,0.46,0.8,0.41,1.29c-0.3,0.82-0.8,1.41-1.74,1.5
		C145.48,33.67,142.81,32.56,140.32,30.32z"/>
	<path class="st1" d="M59.69,72.02c-0.85,0.1-1.64-0.04-2.3-0.63c0.02-0.31-0.11-0.42-0.33-0.51c-1.45-0.62-4.14,1.41-4.32-1.65
		c-0.1-1.59-0.45-3.67,1.5-4.85c0.07-0.04-0.62-0.04-0.91-0.23c-0.29-0.2-0.41-0.46-0.34-0.8c2.77-0.2,5.54-0.39,8.31-0.59
		c0.5,0.4,0.67,0.95,0.71,1.56C62.16,67.16,61.12,69.65,59.69,72.02z"/>
	<path class="st9" d="M35.2,69.23c0,0,0.05,0.22,0.05,0.22c-2.89,2.47-5.91,0.48-8.85,0.17c-0.93-0.1-1.35-1.09-1.32-1.99
		c0.04-1.01,0.38-2.09,1.55-2.23c2.84-0.34,5.79-1.91,8.49,0.48C35.33,66.99,35.9,68.09,35.2,69.23z"/>
	<path class="st10" d="M26.3,42.99c-1.53,2.12,2.14,1.36,1.63,2.92c-2.27,1.7-4.77,3.25-4.72,6.59c-3.15-2.42-3.65-3.76-2.14-7.08
		c1.11-2.44,1.52-5.15,2.99-7.44c1.99,0.04,3.28,1.06,3.99,2.88C28.57,42.46,27.02,42.39,26.3,42.99z"/>
	<path class="st10" d="M28.48,84.42c-3.92,0.94-1.73,2.5-0.4,3.97c-2.63,1.48-3.76,4.04-4.78,6.67c-2.78-1.56-3.31-3.77-1.98-6.58
		c0.63-1.34,1.01-2.77,1.42-4.19c0.35-1.21,0.87-2.67,2.67-2.61C26.91,82.06,27.65,83.29,28.48,84.42z"/>
	<path class="st11" d="M108.41,42.32c-3.31,1.35-2.04,2.83-0.11,4.32c-1.24,1.03-2.48,2.05-3.73,3.08
		c-0.92,0.84,0.43,4.53-2.93,2.32c-1.19-1.35-1.49-2.93-0.54-4.41c1.6-2.49,0.84-6.29,4.32-7.71
		C106.75,40.3,107.85,40.98,108.41,42.32z"/>
	<path class="st12" d="M116.74,30.58c-2.25,1.02-2.43,2.19-0.26,3.53c-2.84,2.16-6.53,2.01-9.6,3.55c-0.66-3.92-0.02-5.03,3.99-6.94
		c1.55-0.31,2.59-2.31,4.53-1.37C115.84,29.76,116.29,30.17,116.74,30.58z"/>
	<path class="st12" d="M52.98,63.34c-0.03,0.19,0.04,0.35,0.19,0.47c0.55,1.12,0.2,2.3,0.21,3.46c-1.73,1.06-1.15-0.84-1.69-1.31
		c-1.1-1.5-2.41-2.34-4.36-1.55c-1.53,0.62-3.1,0.35-4.66,0.03C45.27,60.04,48.35,59.71,52.98,63.34z"/>
	<path class="st13" d="M148.66,31.66c0.48-0.41,0.96-0.83,1.45-1.24c0.94,1.87-0.29,4.01,0.72,5.87c1.18,4.69,1.06,9.44,0.66,14.2
		c-1.4-1.21-1.26-2.87-1.32-4.46C150.01,41.2,149.6,36.41,148.66,31.66z"/>
	<path class="st14" d="M24.05,37.98c0.84,2.84-1.01,5.08-2.03,7.33c-1.33,2.91-1.26,5.13,1.19,7.19c-3.77-1.52-4.55-3.98-2.77-8.73
		c0.47-0.42,0.57-0.96,0.55-1.55c0.42-0.81,0.54-1.56,0.44-2.57C21.3,38.18,22.43,37.39,24.05,37.98z"/>
	<path class="st12" d="M42.47,70.36c1.39-1.19,2.96-0.93,4.42-0.31c1.3,0.55,2.53,0.68,3.85,0.28c1.31,0.04,1.34,0.78,0.95,1.74
		c-0.08,0.52-0.16,1.04-0.24,1.56c-2.84-0.85-5.73-1.32-8.71-0.92C42.66,71.92,42.56,71.14,42.47,70.36z"/>
	<path class="st15" d="M75.66,80.13c0.32,3.75,2.43,7.52-0.19,11.22c-1.64,0.82-2.57,0.6-2.2-1.5l0.02,0.03
		c0.93-2.18-0.26-4.56,0.67-6.73c-0.07-0.81,1.56,1.28,0.95-0.56C74.6,81.64,74.65,80.72,75.66,80.13z"/>
	<path class="st16" d="M25.39,81.69c-2.54,2.45-2.69,6.01-4.15,8.97c-0.95,1.93,1.15,3.02,2.05,4.42c-1.74-0.05-2.81-1-2.99-2.66
		c-0.41-3.68,1.14-6.96,2.43-10.25C23.15,81.08,24.27,80.53,25.39,81.69z"/>
	<path class="st8" d="M105.42,39.91c-2.07,2.65-2.57,6.02-4.16,8.9c-0.77,1.39,0.25,2.25,0.98,3.2c0.26,0.16,0.36,0.33,0.3,0.53
		c-0.06,0.2-0.13,0.3-0.2,0.3c-1.57-0.4-2.25-1.66-2.14-3.01c0.25-3.28,1.27-6.41,2.56-9.42C103.21,39.3,104.3,38.85,105.42,39.91z"
		/>
	<path class="st13" d="M26.3,42.99c0.58-0.71,1.16-1.43,1.74-2.14c0.19-0.07,0.37-0.05,0.53,0.06c3.28,1.38,6.93,0.96,10.25,2.1
		l0.08,0.05c0.9,0.78,2.1,0.83,3.13,1.29c0.17,0.32,0.12,0.62-0.13,0.88c-3.76,0.28-7.09-1.88-10.86-1.87
		C29.52,43.36,27.89,43.04,26.3,42.99z"/>
	<path class="st17" d="M75.49,73.58c3.46,0.64,7.11-1.85,10.47,0.59c-0.31,0.62-1.15,0.24-1.5,0.78c-2.91,1.15-6.02-0.13-8.95,0.72
		C74.84,74.98,74.86,74.28,75.49,73.58z"/>
	<path class="st18" d="M76.22,25.89c1.95,1.21-1.21,3.26,0.75,4.47c0.25,0.22,0.34,0.5,0.3,0.83c-0.23,0.99-1.07,1.5-1.69,2.19
		c0.2,1.72,0.4,3.44,0.6,5.16c-0.39,0.46-0.62,1.24-1.49,0.76c-1.2-1.08-0.56-2.49-0.67-3.77c0.58-1.71,0.51-3.42,0.03-5.13
		c0-0.27,0.01-0.54,0.01-0.81c0.27-0.4,0.41-0.86,0.59-1.3C74.96,27.34,75.3,26.43,76.22,25.89z"/>
	<path class="st19" d="M155.31,30.35c0.25,0.25,0.5,0.5,0.75,0.75c0.25,0.27,0.44,0.58,0.57,0.92c0.16,0.76-0.18,1.43-0.43,2.11
		c-0.02,1.45-0.05,2.89-0.07,4.34c0.45,0.79,0.32,1.42-0.52,1.85c-0.92,0.2-1.37-0.38-1.76-1.06c0.01-1,0.03-1.99,0.04-2.99
		c0.72-1.71,0.34-3.41,0.01-5.12c-0.05-0.63,0.06-1.2,0.61-1.6C154.96,29.64,155.23,29.9,155.31,30.35z"/>
	<path class="st18" d="M88.8,25.17c-0.82,0.47-1.16,0.02-1.76-0.59c-3.05-3.1-5.5-3.09-9.32-0.19c-0.68-0.02-1.37,0.01-1.97-0.39
		c-0.11-0.13-0.21-0.26-0.32-0.4C80.93,20.05,85.56,20.59,88.8,25.17z"/>
	<path class="st1" d="M68.02,73.53c0.29-0.6,0.84-0.79,1.45-0.86c1.06,1.9-0.28,4.12,0.78,6.02l-0.01-0.01
		c0.77,2.33,0.21,4.71,0.31,7.07c-0.2,0.49-0.54,0.61-1.01,0.36C69.04,81.92,68.53,77.72,68.02,73.53z"/>
	<path class="st2" d="M156.2,34.12c-0.03-0.73-0.07-1.46-0.1-2.19c2.97-0.52,5.94-1.12,8.96-0.27c0.35,0.52,0.38,1.02-0.05,1.51
		C162.07,33.5,159.14,33.81,156.2,34.12z"/>
	<path class="st20" d="M76.96,31.1c0-0.25,0-0.5,0.01-0.75c2.73,0.45,5.45-1.31,8.18-0.03c1.29-0.61,1.87-0.17,1.83,1.22
		c-0.5,1.24-1.85,0.27-2.56,0.98c-0.48,0.22-0.96,0.43-1.44,0.65c-1.08-1.61-2.84-0.92-4.29-1.32C78.1,31.68,76.92,32.73,76.96,31.1
		z"/>
	<path class="st21" d="M156.11,49.59c-1.15,0.26-2.36,0.62-2.23-1.3c1.1-2.24-0.7-4.93,1.07-7.06c1.68-0.55,0.95,1.46,1.84,1.74
		C156.56,45.18,156.33,47.39,156.11,49.59z"/>
	<path class="st22" d="M73.94,46.72c1.07-1.9,0.57-4.01,0.76-6.02c0.48-0.24,0.74-0.09,0.79,0.44c1.73,2.41,0.59,5.12,0.78,7.68
		c-0.44,0.57-1.03,0.67-1.7,0.54C73.32,48.74,73.47,47.77,73.94,46.72z"/>
	<path class="st23" d="M168.73,25.89c-0.73,0.33-1.14,0.21-1.8-0.46c-2.91-2.97-5.22-3.17-8.64-1.03c-0.61,0.49-1.27,0.63-2.01,0.33
		c-0.31-0.23-0.43-0.53-0.33-0.91C162.67,21.1,165.74,21.6,168.73,25.89z"/>
	<path class="st24" d="M111.3,31.22c-2.84,1.21-4.94,2.93-4.42,6.44c-2.21-2.76-0.65-4.78,1.46-6.47c1.01-0.81,2.44-1.1,3.68-1.62
		C112.5,30.43,111.64,30.71,111.3,31.22z"/>
	<path class="st2" d="M53.02,67.43c0.05-1.21,0.1-2.41,0.16-3.62c0.95,0,1.9,0,2.84,0c-3.38,0.75-2.28,3.72-2.42,5.43
		c-0.19,2.28,2.21,0.79,3.38,1.26c0.2,0.08,0.5,0.12,0.58,0.27c0.07,0.14-0.1,0.4-0.16,0.61c-1.7,0.17-3.4,0.34-5.1,0.5
		C51.68,70.26,51.55,68.72,53.02,67.43z"/>
	<path class="st25" d="M59.69,72.02c0.21-2.81,1.97-5.29,1.69-8.2c0.35-0.44,0.53-1.19,1.36-0.69c0.47,3.3-0.77,6.17-2.24,8.99
		C60.23,72.09,59.96,72.05,59.69,72.02z"/>
	<path class="st26" d="M76.96,31.1c2.03,0.62,4.9-1.21,6.01,2.06c-2.47-0.13-4.96-0.69-7.4,0.21C75.8,32.47,76.17,31.66,76.96,31.1z
		"/>
	<path class="st27" d="M151.52,21.44c-2.48,0.99-4.95,0.86-7.43,0.01c-0.6,0.55-1.17,1.17-2.12,0.72c-0.03-0.4-0.07-0.79-0.1-1.19
		C145.12,20.36,148.36,20.15,151.52,21.44z"/>
	<path class="st28" d="M122.19,34.88c2.95,0.58,5.69,1.59,7.86,3.78c0,0.22-0.07,0.43-0.19,0.61c-2.41-0.99-4.81-1.98-7.22-2.98
		C122.5,35.83,122.34,35.36,122.19,34.88z"/>
	<path class="st27" d="M62.74,63.13c-0.45,0.23-0.91,0.46-1.36,0.69c-0.03-0.36-0.06-0.71-0.09-1.07c3.19-0.52,6.38-0.84,9.5,0.37
		C68.11,64.43,65.42,63.4,62.74,63.13z"/>
	<path class="st29" d="M42.57,29.66c2.53,0.52,5.2-0.75,7.65,0.61c-0.6,0.03-1.22,0.16-1.8,0.07c-3.05-0.46-5.28,0.29-5.79,3.72
		c-0.2,0.37-0.39,0.35-0.59,0C41.9,32.56,41.94,31.07,42.57,29.66z"/>
	<path class="st20" d="M75.66,80.13c-0.03,1.17,0.17,2.4-0.15,3.48c-0.35,1.18-0.66,0.15-0.91-0.23c-0.8-0.61-0.83-1.65-1.33-2.43
		c0.01-1.01,0.03-2.02,0.04-3.03c0.53-0.44,1.07-0.43,1.62-0.05C75.97,78.37,75.3,79.42,75.66,80.13z"/>
	<path class="st30" d="M76.95,54.95c-2.42,0.32-3.25-0.91-3.07-3.13c-0.44-0.87-0.12-1.51,0.63-2c1.1,0.04,2.57-1.77,3.21,0.62
		c-0.41,0.23-0.8,0.61-1.24,0.67c-1.05,0.15-1.9,0.34-1.76,1.72c0.15,1.4,1.13,1.36,2.13,1.36c0.63,0,1.21,0.11,1.55,0.72
		C77.93,55.29,77.44,55.36,76.95,54.95z"/>
	<path class="st27" d="M71.61,20.71c-2.7,0.82-5.4,0.6-8.1-0.02c-0.42,0.42-0.87,0.44-1.35,0.12c-0.05-0.2-0.09-0.4-0.13-0.6
		C65.26,19.66,68.48,19.4,71.61,20.71z"/>
	<path class="st1" d="M38.82,43.02c-3.51-0.24-7.09-0.17-10.25-2.11C31.97,41.72,35.66,41.1,38.82,43.02z"/>
	<path class="st31" d="M85.84,77.86c-0.75,1.59-1.09,3.46-3.29,4.67c0.13-2.69,1.39-4.39,2.57-6.13
		C85.75,76.7,85.36,77.49,85.84,77.86z"/>
	<path class="st32" d="M75.49,73.58c0,0.7,0.01,1.4,0.02,2.09c-0.27,0.26-0.55,0.52-0.82,0.77c-2.31-0.53-0.33-2.64-1.36-3.65
		c-0.06-0.63,0.01-1.21,0.58-1.61c0.71,0.18,0.65-1.33,1.56-0.7C75.48,71.51,75.48,72.55,75.49,73.58z"/>
	<path class="st33" d="M42.05,34.06c0.2,0,0.39,0,0.59,0c-0.41,3.71,0.89,7.54-0.74,11.17c0-0.26-0.01-0.51-0.01-0.77
		c-0.56-0.76-0.41-1.55-0.09-2.34C41.88,39.44,41.97,36.75,42.05,34.06z"/>
	<path class="st34" d="M166.47,35.53c-0.34,1.86-1.36,3.25-3.5,5.01c0.69-2.68,1.57-4.28,2.75-5.76
		C166.15,34.84,166.21,35.28,166.47,35.53z"/>
	<path class="st35" d="M77.72,50.44c-1.02-1.36-2.06-0.34-3.09-0.03c-0.37-0.5-0.36-0.98,0.07-1.44c0.52-0.05,1.05-0.09,1.57-0.14
		c1.32,0.15,2.64,0.29,4.19,0.46C79.9,51.04,78.67,50.4,77.72,50.44z"/>
	<path class="st36" d="M84.41,32.52c0.53-0.87,1.44-0.75,2.26-0.86c0.32-0.12,0.59-0.05,0.78,0.24c-0.55,1.84-0.79,3.81-2.25,5.27
		c-0.5-0.54-0.47-1.11-0.08-1.69C84.98,34.47,86.84,32.98,84.41,32.52z"/>
	<path class="st37" d="M73.23,56.37c0.76-0.02,1.52-0.04,2.28-0.06c2.45-0.72,4.9-1.25,7.35,0.03
		C79.65,57.49,76.44,57.52,73.23,56.37z"/>
	<path class="st28" d="M82.86,56.34c-2.45-0.01-4.9-0.02-7.35-0.02c0.48-0.46,0.96-0.91,1.44-1.36c0.49-0.01,0.97-0.02,1.46-0.03
		c0,0,0.04-0.01,0.04-0.01c1.33,0.97,3.06-0.27,4.37,0.79C82.95,55.9,82.96,56.12,82.86,56.34z"/>
	<path class="st38" d="M153.67,57.2c1.05-0.06,2.1-0.12,3.15-0.18c0.87-0.77,1.93-0.63,2.97-0.62c1.02,0.12,2.05,0.19,2.97,0.72
		C159.74,58.09,156.71,58.13,153.67,57.2z"/>
	<path class="st39" d="M111.3,31.22c0.24-0.55,0.49-1.1,0.73-1.65c1.04-1.39,2.13-2,3.37-0.21C114.03,29.98,112.66,30.6,111.3,31.22
		z"/>
	<path class="st40" d="M72.44,98.79c1.75-0.01,3.5-0.03,5.26-0.04c1.44-0.74,2.91-1.59,3.74,0.74
		C78.45,99.12,75.32,100.56,72.44,98.79z"/>
	<path class="st18" d="M87.45,31.89c-0.26-0.08-0.52-0.16-0.78-0.24c-0.08-0.93-0.66-1.29-1.52-1.33c0.99-1.55,2.35-1.17,3.73-0.73
		C88.8,30.61,88.01,31.18,87.45,31.89z"/>
	<path class="st41" d="M73.27,89.85c0.12,1.39,1.04,1.63,2.2,1.5c0.28,0.45,0.56,0.9,0.85,1.35c-0.99,0.9-2.04,0.38-3.08,0.12
		C72.19,91.82,72.16,90.82,73.27,89.85z"/>
	<path class="st42" d="M166.47,35.53c-0.25-0.25-0.5-0.5-0.75-0.75c0.05-0.66-0.04-1.25-0.71-1.58c0.04-0.42,0.09-0.83,0.13-1.25
		c0.41-0.54,0.88-0.56,1.4-0.16c0.28,0.07,0.56,0.14,0.84,0.2C167.07,33.16,166.77,34.34,166.47,35.53z"/>
	<path class="st27" d="M155.96,23.82c0.04,0.18,0.06,0.36,0.04,0.54c-0.52,0.76-1.16,1.2-2.12,0.76c-0.38-1.15-1.68-1.3-2.34-2.15
		c0.48-0.21,0.96-0.41,1.43-0.62C153.97,22.84,154.96,23.33,155.96,23.82z"/>
	<path class="st20" d="M74.75,28.82c-0.23,0.25-0.46,0.51-0.69,0.76c-0.03-1.97-0.07-3.94-0.1-5.9c-0.23-0.21-0.29-0.4-0.19-0.57
		c0.1-0.17,0.19-0.25,0.28-0.25c0.46,0.25,0.91,0.5,1.37,0.75c0,0,0.18,0.15,0.18,0.15C75.75,25.52,75.36,27.19,74.75,28.82z"/>
	<path class="st2" d="M132.98,21.55c1.87,1.75,0.14,3.92,0.69,5.83c-0.74,0.08-1.19-0.1-0.85-0.96c-0.16-1.65-0.31-3.3-0.47-4.95
		C132.56,21.43,132.77,21.46,132.98,21.55z"/>
	<path class="st43" d="M53.02,67.43c-0.57,1.43-0.8,2.92-0.73,4.45c-0.19,0.08-0.39,0.14-0.6,0.18c-0.12-0.69-0.24-1.37-0.95-1.74
		c1.13-1.28,0.86-2.86,0.95-4.36C52.13,66.46,52.57,66.95,53.02,67.43z"/>
	<path class="st38" d="M156.8,50.43c-0.26-0.22-0.52-0.45-0.78-0.67c1.39,0.13,2.86-0.3,4.43,0.59
		C159.02,51.88,157.91,51.16,156.8,50.43z"/>
	<path class="st44" d="M85.13,35.48c0.03,0.56,0.05,1.12,0.08,1.69c-0.21,1.05-0.45,2.07-1.88,2.69
		C83.2,37.95,84.16,36.71,85.13,35.48z"/>
	<path class="st45" d="M81.63,84.79c0.67,1.24,0.87,2.21-0.34,3.45C80.6,86.89,80.32,85.91,81.63,84.79z"/>
	<path class="st1" d="M77.7,98.04c-1.34-0.94-3.65,0.98-4.46-1.51c0.24-0.37,0.48-0.35,0.72,0.01c1.21,0.45,2.67-0.38,3.76,0.72
		c0.09,0.13,0.18,0.27,0.28,0.4C77.9,97.78,77.8,97.91,77.7,98.04z"/>
	<path class="st46" d="M162.76,57.12c-1.02-0.04-2.04-0.08-3.06-0.12c-0.48-0.38-1.33-0.15-1.56-0.94c0.05-0.15,0.1-0.31,0.15-0.46
		C159.79,56.09,161.73,55.26,162.76,57.12z"/>
	<path class="st27" d="M68.02,65.3c0.86-1.43,2.86-0.06,3.72-1.49c0.89-0.02,1.24,0.67,1.66,1.26C71.64,65.94,69.8,64.91,68.02,65.3
		z"/>
	<path class="st15" d="M82.09,41.58c1.06,1.19,1.06,2.1,0.35,3.12C81.19,43.89,81.25,42.96,82.09,41.58z"/>
	<path class="st47" d="M73.33,72.8c1.28,0.91,0.02,2.76,1.36,3.65c0.08,0.48,0.16,0.96,0.24,1.44c-0.54,0.02-1.08,0.03-1.62,0.05
		C73.31,76.22,73.32,74.51,73.33,72.8z"/>
	<path class="st1" d="M156.79,42.97c-0.41,0.1-0.97,0.65-1.18,0.09c-0.15-0.41,0.27-1.04,0.44-1.57c-0.44-0.4-1.19-0.65-0.76-1.49
		c0.66-0.31,0.7-0.95,0.84-1.54C157.15,39.85,156.59,41.46,156.79,42.97z"/>
	<path class="st48" d="M102.33,52.83c-0.03-0.28-0.06-0.56-0.09-0.83c0.77,0.1,1.87,0.59,1.43-0.96c-0.27-0.93-0.08-1.35,0.91-1.33
		C103.62,50.61,106.54,54.26,102.33,52.83z"/>
	<path class="st49" d="M73.96,96.54c-0.24,0-0.48-0.01-0.72-0.01c0-1.24,0-2.48,0-3.71c1-0.77,2.07,0.41,3.08-0.12
		c0,0,0.03-0.05,0.03-0.05c0.26,0.34,0.23,0.63-0.13,0.87C73.95,93.41,73.83,94.88,73.96,96.54z"/>
	<path class="st35" d="M76.21,93.52c0.04-0.29,0.09-0.58,0.13-0.87c1.07-0.46,2.13-1.21,3.4-0.03C78.78,93.91,77.4,93.4,76.21,93.52
		z"/>
	<path class="st22" d="M162.74,43.71c-0.06,0.91,0.27,1.99-1.05,2.48c-0.66-1.17-0.65-2.24,0.29-3.24
		C162.42,43.02,162.48,43.46,162.74,43.71z"/>
	<path class="st30" d="M85.84,77.86c-0.61-0.31-0.64-0.89-0.72-1.46c0.34-0.74,0.57-1.43-0.66-1.45c0.31-0.62,0.89-0.73,1.5-0.78
		c0.27,0.06,0.54,0.12,0.81,0.19C86.46,75.53,86.15,76.69,85.84,77.86z"/>
	<path class="st26" d="M70.22,91.35c3.15-0.17,0.78,2.19,1.45,3.15C71.19,93.45,70.7,92.4,70.22,91.35z"/>
	<path class="st1" d="M41.8,42.12c0.03,0.78,0.06,1.56,0.09,2.34c-1.26,0.1-2.37-0.13-2.98-1.4C40.08,43.38,41.24,43.66,41.8,42.12z
		"/>
	<path class="st26" d="M69.55,86.11c0.23,0,0.45,0.01,0.68,0.01c0.62,1.21,0.53,2.44,0.06,3.66c-0.02,0.52-0.04,1.05-0.06,1.57
		C69.05,89.73,69.67,87.88,69.55,86.11z"/>
	<path class="st41" d="M81.44,99.49c-1.05-1.22-2.49-0.53-3.74-0.74c0.01-0.24,0.01-0.47,0-0.71c0,0,0.03-0.05,0.03-0.05
		c1.25-0.52,2.51-0.5,3.77-0.02C82.27,98.51,82.36,99.02,81.44,99.49z"/>
	<path class="st37" d="M82.82,55.7c-1.46-0.26-3.11,0.57-4.37-0.79C79.9,55.22,81.57,54.29,82.82,55.7z"/>
	<path class="st50" d="M162.74,43.71c-0.25-0.25-0.5-0.51-0.76-0.76c0.2-0.67-0.22-2.14,0.92-1.71
		C163.94,41.63,162.56,42.83,162.74,43.71z"/>
	<path class="st20" d="M75.5,41.15c-0.26-0.15-0.53-0.29-0.79-0.44c0-0.47-0.01-0.94-0.01-1.41c0.5-0.25,0.99-0.51,1.49-0.76
		C76.27,39.49,76.46,40.47,75.5,41.15z"/>
	<path class="st27" d="M74.05,22.86c-0.03,0.27-0.06,0.55-0.09,0.82c-1-0.49-1.99-0.99-2.99-1.48c0.83-0.04,1.67-0.08,2.5-0.13
		C73.66,22.33,73.85,22.6,74.05,22.86z"/>
	<path class="st38" d="M156.82,55.7c-0.82-0.09-1.75,0.12-2.25-0.83c1.21,0.38,2.68-0.52,3.73,0.73c0,0,0.02,0.21,0.02,0.21
		C157.79,56.14,157.29,56.07,156.82,55.7z"/>
	<path class="st51" d="M20.99,42.22c0.57,0.34,0.88,0.87,0.63,1.47c-0.26,0.65-0.77,0.19-1.18,0.08
		C20.33,43.15,20.48,42.62,20.99,42.22z"/>
	<path class="st40" d="M81.5,97.98c-1.26,0.01-2.51,0.01-3.77,0.02c-0.01-0.24-0.02-0.49-0.01-0.73
		C78.98,97.52,80.39,96.95,81.5,97.98z"/>
	<path class="st52" d="M35.2,69.23c-0.03-1.12-0.05-2.24-0.08-3.36c0.25,0.05,0.5,0.11,0.75,0.16C35.93,67.15,36.5,68.39,35.2,69.23
		z"/>
	<path class="st53" d="M70.99,37.04c1.57,3.37,0.42,6.86,0,10.31C71,43.91,71,40.48,70.99,37.04L70.99,37.04z"/>
	<path class="st29" d="M69.5,30.31c0.26-0.49,0.51-0.98,0.77-1.47c1.54,2.62,0.36,5.48,0.72,8.2c0,0,0,0,0,0
		C69.13,35.09,71.36,32.25,69.5,30.31z"/>
	<path class="st54" d="M74.7,48.97c-0.02,0.48-0.05,0.96-0.07,1.44c-0.25,0.47-0.5,0.94-0.75,1.41c-0.99-1.71-1.03-3.41,0.06-5.1
		C74.01,47.53,73.84,48.43,74.7,48.97z"/>
	<path class="st5" d="M74.05,30.4c1.02,1.72,1.06,3.43-0.03,5.13C74.03,33.81,74.04,32.11,74.05,30.4z"/>
	<path class="st29" d="M132.82,26.42c0.28,0.32,0.57,0.64,0.85,0.96c-0.01,0.72-0.02,1.44-0.04,2.15c-0.98-0.78-1.38-1.82-1.4-3.04
		C132.42,26.47,132.62,26.45,132.82,26.42z"/>
	<path class="st55" d="M153.88,25.12c0.71-0.25,1.41-0.5,2.12-0.76c0.77,0.01,1.53,0.03,2.3,0.04c-0.5,0.99-0.99,1.98-1.49,2.97
		c-0.84,0.82-0.99,1.99-1.5,2.98c0,0,0,0,0,0c-0.26-0.27-0.53-0.54-0.79-0.8C154.3,28.07,154.09,26.59,153.88,25.12z"/>
	<path class="st26" d="M155.29,40c0.25,0.5,0.51,0.99,0.76,1.49c-1.74,0.21-1.43,1.55-1.52,2.7c-0.11,1.38,0.34,2.86-0.66,4.11
		c-0.01-3.01-0.01-6.03-0.02-9.04C154.33,39.5,154.81,39.75,155.29,40z"/>
	<path class="st29" d="M150.83,36.29c-1.46-1.81-0.43-3.92-0.72-5.87c-0.04-0.52-0.08-1.03-0.12-1.55
		C151.75,31.18,150.44,33.83,150.83,36.29z"/>
	<path class="st56" d="M153.91,31.14c0.68,1.71,1.72,3.42-0.01,5.12C153.9,34.56,153.91,32.85,153.91,31.14z"/>
	<path class="st57" d="M156.82,55.7c0.5,0.03,0.99,0.07,1.49,0.1c0.47,0.4,0.93,0.8,1.39,1.2c-0.96,0.01-1.92,0.01-2.88,0.02
		C156.82,56.58,156.82,56.14,156.82,55.7z"/>
	<path class="st3" d="M75.47,70.48c-0.67-0.11-0.51,1.63-1.56,0.7c0.34-1.89-1.56-4.79,2.29-5.11
		C75.22,67.42,74.11,68.75,75.47,70.48z"/>
	<path class="st58" d="M76.85,72.33c0.79-0.47,1.55-0.46,2.53,0.01C78.42,72.86,77.67,72.92,76.85,72.33z"/>
	<path class="st59" d="M70.29,89.79c-0.02-1.22-0.04-2.44-0.06-3.66c0.01-2.48,0.01-4.96,0.02-7.44
		C71.49,82.38,71.43,86.08,70.29,89.79z"/>
	<path class="st29" d="M70.25,78.69c-1.51-1.84-0.39-4.03-0.78-6.02c-0.25-0.71-0.5-1.42-0.75-2.13c1.68-0.61,1.45,0.78,1.49,1.57
		C70.31,74.3,70.25,76.5,70.25,78.69z"/>
	<path class="st41" d="M73.26,80.96c0.8,0.61,1.18,1.46,1.33,2.42c-1.59,1.94,0.28,4.56-1.31,6.5
		C73.27,86.9,73.27,83.93,73.26,80.96z"/>
	<path class="st52" d="M62.16,20.81c0.45-0.04,0.9-0.08,1.35-0.12c-0.17,3.02,0.06,6.19-3.01,8.16
		C60.66,26.09,62.35,23.64,62.16,20.81z"/>
	<path class="st23" d="M166.54,31.78c-0.47,0.05-0.93,0.11-1.4,0.16c-3.01,0-6.03,0-9.04,0c-0.01-0.28-0.03-0.56-0.04-0.84
		c3.35-0.18,6.7-0.38,10.05-0.52C167.31,30.52,166.57,31.31,166.54,31.78z"/>
	<path class="st20" d="M155.31,30.35c-0.07-1.27,0.14-2.41,1.5-2.98C156.69,28.55,156.28,29.59,155.31,30.35z"/>
	<path class="st60" d="M74.75,28.82c0.09-1.72-0.45-3.55,0.84-5.07c0.8-0.09,1.6-0.19,2.12,0.64c-0.5,0.5-1,1-1.49,1.5
		C76.1,27.05,75.7,28.08,74.75,28.82z"/>
	<path class="st51" d="M141.97,22.18c0.71-0.24,1.41-0.48,2.12-0.72c-1.22,2.71-0.19,6.44-3.68,8.14
		C140.4,27.01,142.17,24.8,141.97,22.18z"/>
</g>
</svg>
