<?xml version="1.0" encoding="utf-8"?>
<!-- Generator: Adobe Illustrator 24.2.1, SVG Export Plug-In . SVG Version: 6.00 Build 0)  -->
<svg version="1.1" id="Calque_1" xmlns="http://www.w3.org/2000/svg" xmlns:xlink="http://www.w3.org/1999/xlink" x="0px" y="0px"
	 viewBox="0 0 204 116" style="enable-background:new 0 0 204 116;" xml:space="preserve">
<style type="text/css">
	.st0{fill:#FEFEFE;}
	.st1{fill:#FFDDC6;}
	.st2{fill:#FFDDC7;}
	.st3{fill:#FFDCC5;}
	.st4{fill:#40916C;}
	.st5{fill:#FFC49C;}
	.st6{fill:#42926D;}
	.st7{fill:#FFC39B;}
	.st8{fill:#FCFAF8;}
	.st9{fill:#FCFBF9;}
	.st10{fill:#79C7A3;}
	.st11{fill:#4A9773;}
	.st12{fill:#7CC9A5;}
	.st13{fill:#4B9875;}
	.st14{fill:#519B79;}
	.st15{fill:#FFD6BB;}
	.st16{fill:#FFDBC3;}
	.st17{fill:#FFC8A3;}
	.st18{fill:#74C5A0;}
	.st19{fill:#FFD5B9;}
	.st20{fill:#6DC29A;}
	.st21{fill:#5FA384;}
	.st22{fill:#7BC8A4;}
	.st23{fill:#87CDAC;}
	.st24{fill:#FFCBA7;}
	.st25{fill:#FFD7BC;}
	.st26{fill:#FFD7BD;}
	.st27{fill:#FFD4B8;}
	.st28{fill:#FFEADC;}
	.st29{fill:#82CBA9;}
	.st30{fill:#FFE7D7;}
	.st31{fill:#FFDAC1;}
	.st32{fill:#6EC39B;}
	.st33{fill:#FFD9C0;}
	.st34{fill:#FFC7A2;}
	.st35{fill:#FFC39A;}
	.st36{fill:#FFDCC4;}
	.st37{fill:#FFC7A1;}
	.st38{fill:#FFC299;}
	.st39{fill:#65BF95;}
	.st40{fill:#71C49D;}
</style>
<g>
	<path class="st0" d="M102,108.09c-30.6,0-61.21-0.03-91.81,0.06c-2.24,0.01-2.69-0.45-2.69-2.66c0.09-30.97,0.09-61.95,0-92.92
		C7.49,10.35,7.95,9.9,10.19,9.9c61.21,0.08,122.42,0.08,183.63,0c2.24,0,2.69,0.45,2.69,2.66c-0.09,30.97-0.09,61.95,0,92.92
		c0.01,2.22-0.45,2.67-2.69,2.66C163.21,108.06,132.6,108.09,102,108.09z"/>
	<path class="st1" d="M140.27,68.68c-0.16,2.25,0.41,4.56-0.67,6.72c-1,1.09-0.35,2.38-0.44,3.58c-0.72,4.63-0.6,4.66,4.24,5.32
		c4.4,0.6,8.74,1.72,13.24,0.97c1.84-0.15,2.96,0.72,2.78,2.51c-0.19,1.79-1.6,1.92-3.09,1.51c-3.75-1.31-7.39,0.21-11.07,0.47
		c-0.49,0.03-0.96,0.31-1.45,0.34c-8.76,0.58-9.55,0.65-10.52-7.23c-0.47-3.79-1.24-7.54-1.87-11.31
		C134.05,68.48,136.88,67.56,140.27,68.68z"/>
	<path class="st1" d="M60.67,68.76c0.42,4.98-1.82,9.73-1.34,14.71c2.56,1.6,5.52,1.09,8.3,1.59c3.39,1.12,6.91,0.56,10.37,0.76
		c1.49,1.02,3.39,2,0.32,3.43c-2.33-0.41-4.61-1.77-7.03-0.34c-4.31,1.27-8.73,1.53-13.19,1.43c-2.22-0.05-3.49-1.39-3.88-3.34
		c-1.02-5.05-2.11-10.1-2.34-15.27C54.12,68.93,57.39,67.82,60.67,68.76z"/>
	<path class="st2" d="M176.03,49.35c-6.73,1.62-12.81,4.58-18.48,8.51c-4.89,3.4-10.31,5.83-15.92,7.83
		c-1.29-2.39-1.58-4.87-0.64-7.44c6.61-1.2,12.73-3.24,18.55-6.99c3.88-2.5,9.15-2.88,13.8-4.2
		C176.33,46.37,176.76,46.72,176.03,49.35z"/>
	<path class="st1" d="M109.52,71.27c0.47-0.3,0.94-0.59,1.42-0.89c0.72,0.4,1.45,0.75,2.32,0.57c4.34,0.74,5.48,2.41,4.36,6.52
		c-0.32,1.18-0.19,2.46-0.85,3.56c-0.93,1.73-0.43,3.61-0.5,5.41c-0.1,2.61-0.95,4.25-3.98,3.84c-4.23-0.57-8.55-0.36-12.73-1.38
		c0.47-2.16,1.01-4.24,4.05-3.18c2.22,1.26,4.31-0.24,6.46-0.31c2.46-0.12,1.09-1.69,1.04-2.75c-0.3-1.32-0.41-2.68-0.98-3.94
		c-0.74-1.6-0.72-3.37-1.09-5.05c-0.12-0.51-0.17-1.03-0.09-1.56C109.05,71.78,109.23,71.49,109.52,71.27z"/>
	<path class="st3" d="M29.44,71.62c0.65-0.24,1.3-0.48,1.95-0.73c0.83,0.32,1.7,0.02,2.54,0.13c3.16,0.41,4.91,2.94,3.98,5.99
		c-0.46,1.52-0.85,3.02-1.01,4.59c-0.73,9.85,0.72,9.51-11.06,8.12c-2.14-0.25-4.46,0.65-6.44-0.85c0.7-2.24,2.26-3.03,4.54-2.76
		c2.21,0.26,4.43,0.21,6.64,0.07c2.08-2.03,0.76-4.36,0.26-6.39c-0.44-1.77-0.89-3.55-1.31-5.34c-0.21-0.65-0.44-1.29-0.54-1.97
		C29.01,72.13,29.15,71.84,29.44,71.62z"/>
	<path class="st4" d="M140.99,58.24c0.73,2.44,0.75,4.93,0.64,7.44c-1.35,0.6-1.13,1.9-1.36,2.99c-3.28-0.04-5.98,1.7-8.87,2.87
		c-0.07-0.16-0.15-0.32-0.23-0.47c-2.73-3.31-2.87-5.14-0.69-8.99C133.3,58.97,136.88,57.89,140.99,58.24z"/>
	<path class="st5" d="M109.38,71.84c0.06,0.43,0.11,0.87,0.17,1.3c-1.62,1.51,0.52,3.95-1.36,5.41c-0.32,0.17-0.66,0.25-1.02,0.27
		c-0.75-0.06-1.38-0.4-2.01-0.76c-1.46-1-3.06-1.31-4.82-1.1c-1.33,0.16-2.66,0.09-3.81-0.74c-2.04-3.87-1.56-5.35,2.48-7.54
		c1.6-0.7,3.27-0.29,4.91-0.27c0.32,0.2,0.37,0.52,0.44,0.87c0.07,0.31-0.09,0.84,0.53,0.84c-0.16-0.35-0.09-0.66,0.18-0.95
		c0.52-0.13,1.01-0.13,1.42,0.26l0,0C107.49,70.21,108.59,70.84,109.38,71.84z"/>
	<path class="st6" d="M60.67,68.76c-3.19,0.25-5.98,1.64-8.8,2.98c-0.25-0.29-0.5-0.57-0.75-0.86c-2.57-2.53-2.45-5.28-0.69-8.17
		c2.27-1.75,4.84-2.75,7.51-1.35C60.89,62.91,60.85,65.89,60.67,68.76z"/>
	<path class="st1" d="M117.73,67.78c3.83-0.57,7.37-1.87,10.54-4.08c1.07,2.39,1.19,5.06,2.29,7.44c-2.9,1.72-5.03,4.56-8.33,5.7
		c-3.2-1.77-2.75-5.41-4.2-8.08C117.89,68.45,117.79,68.12,117.73,67.78z"/>
	<path class="st1" d="M39.77,67.93c3.24-0.94,6.01-2.84,9.01-4.27c1.21,2.31,0.7,4.96,1.53,7.34c-2.74,2.19-5.48,4.38-8.22,6.56
		c-0.14-0.1-0.28-0.2-0.42-0.3c-0.77-1.14-1.18-2.47-1.89-3.64c-0.73-1.53-1.12-3.1-0.63-4.78C39.32,68.52,39.53,68.21,39.77,67.93z
		"/>
	<path class="st7" d="M17.32,76.89c-1.57-1.55-2.13-3.28-0.98-5.32c2.17-1.33,3.92-3.94,7.06-2.22c2.15,0.58,3.36,2.13,4.27,4.01
		c0.97,1.47,2.16,2.84,2.39,4.68c0.19,0.87,0.51,1.77-0.74,2.15C25.53,78.36,21.55,77.21,17.32,76.89z"/>
	<path class="st8" d="M18.79,82.03c-0.09-1.46-1.8-2.64-0.74-4.29c4.37-0.44,8.39,0.33,11.77,3.33c0.82,0.96,1.13,2.06,1.01,3.3
		c-0.19,1.75-1.55,2.09-2.94,2.39c-2.39,0.64-4.33-0.24-6.07-1.77C20.66,84.15,19.83,82.99,18.79,82.03z"/>
	<path class="st9" d="M98.22,81.24c0-0.79,0.14-1.62-0.7-2.13c0.57-2.37,2.4-1.47,3.88-1.48c1.81,1.16,4.02,0.46,5.91,1.24
		c2.59,1.28,3.47,3.4,3.09,6.15c-2.01,1.4-4.09,2.38-6.58,1.2c-0.85-0.62-1.74-1.15-2.74-1.5C99.72,83.89,99.34,82.27,98.22,81.24z"
		/>
	<path class="st10" d="M39.77,67.93c-0.03,0.27-0.05,0.55-0.08,0.82c-1.39,2.22,0.02,4.13,0.72,6.11c0.47,0.88,0.84,1.8,1.4,2.64
		c0,0,0.28,0.07,0.28,0.07c-0.88,2.43-2.23,4.26-5.2,4.03c-1.1-1.27-0.99-2.61-0.35-4.06c1.66-3.72,0.51-5.42-3.75-5.39
		c-1.05,0.01-1.2-0.55-1.41-1.26C33.98,69.33,36.72,68.19,39.77,67.93z"/>
	<path class="st11" d="M176.03,49.35c0.76-2.67-1.08-2.36-2.69-2.3c0.45-0.92,0.91-1.85,1.36-2.77c3.93,0.09,8.17-1.43,11.46,2.1
		c0.5,0.85,0.61,1.91-0.41,2.14c-2.96,0.67-5.98,1.1-8.98,1.57C176.56,50.12,176.28,49.61,176.03,49.35z"/>
	<path class="st12" d="M116.77,81.04c-0.68-1.23-0.81-2.48-0.29-3.81c1.45-3.73,0.37-5.23-3.94-5.5c-1.16-1.38-1.22-1.61-0.11-1.88
		c1.97-0.47,3.81-1.57,5.93-1.39c1.16,2.84,0.87,6.25,3.37,8.58C121.12,79.63,120.03,81.65,116.77,81.04z"/>
	<path class="st13" d="M78,88.69c0.41-0.1,1.11-0.12,1.17-0.32c0.25-0.88-0.27-1.48-1.04-1.89c-0.82-0.47-2.24-0.31-1.97-1.89
		c0.6-0.41,1.2-0.81,1.8-1.22c3.19,0.78,5.82,2.98,9.09,3.57c1.09,0.69,2.45,1.13,2.53,2.74c-1.09,2.14-2.84,0.32-4.26,0.63
		c-2.84,0.61-5.8,0.53-8.7,0c-0.3-0.44-0.61-0.88-0.91-1.33C76.36,88.05,77.18,88.4,78,88.69z"/>
	<path class="st14" d="M156.32,89.29c0.57-0.99,2.41,0.09,2.55-1.44c0.14-1.51-1.35-1.83-2.24-2.58c0.56-0.39,1.12-0.77,1.68-1.16
		c3.66-0.08,6.14,2.94,9.53,3.57c0.64,0.81,1.98,1.18,1.63,2.6l0.01,0c-4.24,0.46-8.49,0.62-12.73,0
		C156.6,89.94,156.46,89.61,156.32,89.29z"/>
	<path class="st15" d="M21.8,84.31c2.06,0.45,3.25,3.22,5.87,2.15c1.02-0.49,2.28-0.13,3.23-0.88c0.96,0.27,1.23,0.8,0.67,1.67
		c-2.7-0.1-5.46,0.48-8.1-0.32c-2.12-0.65-2.6,1.58-4.08,1.95c-1.71-1.35-0.87-2.58,0.18-3.81C20.11,84.2,20.68,83.44,21.8,84.31z"
		/>
	<path class="st16" d="M29.26,81.25c-2.15-2.91-5.79-1.28-8.44-2.72c-0.82-0.45-1.84-0.53-2.77-0.78c-0.24-0.28-0.48-0.57-0.72-0.85
		c4.53-1.21,8.38,0.26,11.9,3C29.76,80.33,29.66,80.78,29.26,81.25z"/>
	<path class="st10" d="M167.96,88.15c-3.62-0.4-6.52-2.48-9.65-4.04c0.46-1.04,1.57-1.83,2.28-1.06c2.33,2.52,6.14,2.46,8.37,5.02
		C168.65,88.3,168.31,88.33,167.96,88.15z"/>
	<path class="st17" d="M23.29,70.17c-2.9-2.38-4.51,1.5-6.95,1.4c3.21-4.64,7.96-4.63,13.09,0.04c-0.02,0.25-0.03,0.51-0.05,0.76
		c-0.7,0.45-1.3,0.08-1.91-0.23C26.14,71.37,25.29,69.58,23.29,70.17z"/>
	<path class="st18" d="M86.84,87.33c-3.65,0.2-6.21-2-8.88-3.96c4.23-0.61,7.17,2.17,10.51,3.92
		C87.94,87.71,87.39,87.65,86.84,87.33z"/>
	<path class="st19" d="M101.28,84.26c0.98,0.13,1.9,0.35,2.28,1.42c0.24,0.31,0.23,0.6-0.06,0.87c-2.84-1.73-2.42,1.92-3.94,2.36
		c-2.07-1.32-1.36-2.91-0.45-4.52C99.79,83.63,100.53,83.81,101.28,84.26z"/>
	<path class="st18" d="M130.56,71.14c-1.98-2.11-2.56-4.64-2.29-7.44c0.74-0.54,1.47-1.07,2.21-1.61c-0.89,3.08-0.44,6.06,0.69,9
		C130.97,71.11,130.77,71.13,130.56,71.14z"/>
	<path class="st20" d="M121.74,77.03c-3.91-1.7-3.15-5.2-3.28-8.35c-0.24-0.2-0.3-0.37-0.19-0.51c0.1-0.13,0.2-0.19,0.31-0.19
		c1.77,2.73,1.57,6.26,3.66,8.87C122.09,76.96,121.93,77.02,121.74,77.03z"/>
	<path class="st21" d="M76.62,90.3c2.95-0.66,6.18,1.19,9.05-1.18c0.69-0.56,2.22,2.31,3.7,0.28c0.25-0.28,0.5-0.28,0.75,0.01
		c0.44,0.73,0.01,1.34-0.59,1.34C85.22,90.78,80.87,91.82,76.62,90.3z"/>
	<path class="st22" d="M186.16,46.38c-3.44-2.73-7.78-0.66-11.46-2.1c0.16-1.83,1.04-1.77,2.25-0.85c2.26,0.94,4.71-0.15,6.99,0.63
		C185.18,44.36,185.92,45.13,186.16,46.38z"/>
	<path class="st23" d="M118.57,67.97c-0.06,0.23-0.09,0.46-0.12,0.7c-2.02,0.38-3.74,1.7-5.92,1.74c-0.83,0.01-0.49,0.85,0,1.31
		c-2.04,1.32-1.32-0.61-1.61-1.34c1.82-2.01,4.4-2.07,6.79-2.6C118.01,67.85,118.29,67.91,118.57,67.97z"/>
	<path class="st22" d="M50.31,71c-1.56-2.23-1.76-4.75-1.53-7.34c0.37-0.62,0.89-0.98,1.65-0.95c-0.08,2.75-0.64,5.53,0.69,8.16
		C50.85,70.92,50.58,70.96,50.31,71z"/>
	<path class="st15" d="M76.16,84.59c0.66,0.63,1.31,1.26,1.97,1.89c-3.81,0.26-7.6-0.05-11.35-0.69c-0.27-0.39-0.22-0.72,0.16-1.01
		c0.99-0.09,1.99-0.3,2.94,0.2c0.47,0.02,0.94,0.04,1.41,0.06c1.46,0.6,2.93,0.63,4.39-0.01C75.73,84.75,75.89,84.61,76.16,84.59z"
		/>
	<path class="st21" d="M156.74,90.26c4.24,0,8.49,0,12.73,0C165.23,91,160.99,91.29,156.74,90.26z"/>
	<path class="st24" d="M96.53,76.23c3.11,0.25,6.52-1.55,9.23,1.35c-1.18,1.2-2.52,0.36-3.8,0.31c-1.72-0.4-3.67,0.28-5.21-1.03
		C96.62,76.67,96.55,76.46,96.53,76.23z"/>
	<path class="st25" d="M66.77,85.1c0,0.23,0,0.46,0.01,0.7c-2.16-0.02-4.17-1.22-6.5-0.36c-1.04,0.39-2.24-0.51-0.94-1.96
		c0,0-0.03,0.02-0.03,0.02c1.65,1.1,3.63-0.11,5.31,0.76c0.24-0.06,0.47-0.03,0.68,0.08C65.66,84.83,66.46,84.5,66.77,85.1z"/>
	<path class="st26" d="M96.76,76.86c1.79-0.08,3.52,0.23,5.21,0.76c0.2,0.29,0.19,0.57-0.04,0.84c-1.45,0.36-3.14-0.9-4.41,0.64
		C96.52,78.61,96.78,77.69,96.76,76.86z"/>
	<path class="st27" d="M106.48,69.45c-0.49,0.01-0.99,0.02-1.48,0.03c-0.27,0.23-0.5,0.2-0.69-0.09c-1.63-1.31-3.55-0.37-5.3-0.69
		C101.66,67.39,104.16,67.54,106.48,69.45z"/>
	<path class="st28" d="M21.8,84.31c-0.74,0.25-1.48,0.5-2.22,0.75c-0.26-1.01-0.52-2.02-0.79-3.03
		C20.39,82.02,21.07,83.2,21.8,84.31z"/>
	<path class="st29" d="M183.93,44.07c-2.33-0.15-4.77,0.8-6.99-0.63C179.26,43.8,181.7,42.88,183.93,44.07z"/>
	<path class="st30" d="M101.28,84.26c-0.72,0.04-1.45,0.08-2.17,0.13c-0.29-1.05-0.59-2.1-0.88-3.15
		C100.01,81.48,100.27,83.24,101.28,84.26z"/>
	<path class="st31" d="M78,88.69c-0.76,0.09-1.53,0.19-2.29,0.29c-1.47-0.02-2.94-0.04-4.41-0.06C73.48,87.37,75.73,87.72,78,88.69z
		"/>
	<path class="st1" d="M64.61,84.25c-1.78-0.21-3.72,0.78-5.31-0.76C61.08,83.71,62.98,83.05,64.61,84.25z"/>
	<path class="st1" d="M75.67,85.03c-1.46,1.23-2.92,1.1-4.39,0.01C72.75,85.04,74.21,85.04,75.67,85.03z"/>
	<path class="st27" d="M109.38,71.84c-1.33-0.36-2.34-1.11-2.89-2.39c1.41-0.05,2.06,1.14,3.03,1.82
		C109.49,71.46,109.44,71.66,109.38,71.84z"/>
	<path class="st32" d="M90.12,89.41l-0.37,0.02c0,0-0.37-0.02-0.37-0.02c-0.84-0.69-1.69-1.38-2.53-2.07
		c0.54-0.02,1.09-0.03,1.64-0.05C89.39,87.72,90.01,88.37,90.12,89.41z"/>
	<path class="st1" d="M66.77,85.1c-0.59-0.06-1.16-0.17-1.47-0.76c1.54,0.14,3.15-0.24,4.58,0.66C68.84,85.02,67.8,85.06,66.77,85.1
		z"/>
	<path class="st21" d="M167.96,88.15c0.33-0.03,0.67-0.06,1-0.08c0.58,0.64,2,1.1,0.51,2.21C168.97,89.56,168.46,88.85,167.96,88.15
		z"/>
	<path class="st33" d="M139.16,78.97c-0.57-1.28-0.92-2.53,0.44-3.58C139.45,76.59,139.31,77.78,139.16,78.97z"/>
	<path class="st34" d="M110.11,85.07c-0.62-2.17-1.13-4.39-2.88-6.03c-0.25-0.16-0.33-0.32-0.23-0.46c0.09-0.14,0.18-0.21,0.26-0.21
		c0.25-0.01,0.5-0.01,0.75-0.01c0.99,0.11,1.99-0.85,2.98,0c0.91,1.35,0.78,2.89,0.8,4.41c0.42,1.21,0.87,2.44-1.14,2.6
		C110.46,85.26,110.28,85.17,110.11,85.07z"/>
	<path class="st35" d="M110.98,78.35c-0.99-0.45-1.99,2.37-2.98,0c0.8-1.41-0.16-2.8-0.05-4.22c0.1-1.3,0.61-1.38,1.6-0.98
		C111,74.61,109.68,76.84,110.98,78.35z"/>
	<path class="st36" d="M103.5,86.55c0.02-0.29,0.04-0.58,0.06-0.87c2.3,1.06,4.43,0.27,6.54-0.61c0,0,0.33-0.04,0.33-0.04
		c0.22,0.29,0.16,0.53-0.15,0.72C108.09,86.54,106,88.22,103.5,86.55z"/>
	<path class="st24" d="M110.29,85.75c0.02-0.25,0.07-0.49,0.15-0.72c1.48-0.15,1.26-1.3,1.35-2.27c0.83,0.72,0.71,1.69,0.7,2.62
		c-0.01,0.56,0.15,1.3-0.58,1.5C111.02,87.11,110.88,86.05,110.29,85.75z"/>
	<path class="st37" d="M29.26,81.25c-0.01-0.45-0.03-0.9-0.04-1.35c0.91-0.47,0.17-1.02,0.08-1.54c0.99-1.39-0.95-3.29,0.81-4.54
		c1.55,3.89,2.09,8,2.79,12.08c0.16,0.92-0.49,1.27-1.32,1.35c-0.24-0.5-0.49-1.01-0.73-1.51c-0.48-0.32-0.39-0.91-0.62-1.34
		C29.9,83.35,29.58,82.3,29.26,81.25z"/>
	<path class="st35" d="M30.1,73.81c-0.35,1.5,0.58,3.22-0.81,4.54c-0.08-1.82-1.41-3.02-2.25-4.46c-0.69-1.05-0.21-1.71,0.75-2.22
		c0.53,0.24,1.06,0.47,1.59,0.71C29.63,72.86,29.87,73.34,30.1,73.81z"/>
	<path class="st3" d="M107.25,78.36c0.02,0.23,0.01,0.45-0.03,0.68c-1.74-0.42-3.76,1.73-5.3-0.57c0.01-0.28,0.03-0.56,0.04-0.84
		c1.25-1.4,2.53,0.53,3.79-0.04C106.26,77.84,106.76,78.1,107.25,78.36z"/>
	<path class="st38" d="M104.31,69.39c0.23,0.01,0.46,0.04,0.69,0.09c0.46,0.71,0.93,1.41,1.7,2.6
		C105.08,71.37,103.85,71.1,104.31,69.39z"/>
	<path class="st39" d="M39.79,75.39c-0.23-2.21-2.9-4.39-0.09-6.64c0.29,1.71,0.57,3.41,0.86,5.12
		C41.05,74.74,41.07,75.39,39.79,75.39z"/>
	<path class="st40" d="M39.79,75.39c0.62-0.33,0.73-0.91,0.77-1.53c0.91,1.04,1.8,2.09,1.25,3.63
		C40.39,77.49,40.34,76.21,39.79,75.39z"/>
	<path class="st7" d="M27.8,71.68c-0.25,0.74-0.5,1.48-0.75,2.22c-0.91-1.58-1.76-3.22-3.75-3.72
		C25.56,68.43,26.37,70.94,27.8,71.68z"/>
	<path class="st3" d="M30.22,84.4c0.21,0.45,0.42,0.89,0.62,1.34c-0.85,1.14-2.06,0.72-3.17,0.72
		C28.48,85.73,30.09,85.96,30.22,84.4z"/>
</g>
</svg>
