<?xml version="1.0" encoding="utf-8"?>
<!-- Generator: Adobe Illustrator 24.2.1, SVG Export Plug-In . SVG Version: 6.00 Build 0)  -->
<svg version="1.1" id="Calque_1" xmlns="http://www.w3.org/2000/svg" xmlns:xlink="http://www.w3.org/1999/xlink" x="0px" y="0px"
	 viewBox="0 0 208 137" style="enable-background:new 0 0 208 137;" xml:space="preserve">
<style type="text/css">
	.st0{fill:#FEFEFE;}
	.st1{fill:#FFE5D3;}
	.st2{fill:#FFE4D2;}
	.st3{fill:#42926D;}
	.st4{fill:#40916C;}
	.st5{fill:#79C7A3;}
	.st6{fill:#7BC8A4;}
	.st7{fill:#FFD5B9;}
	.st8{fill:#FFE2CF;}
	.st9{fill:#FFD4B7;}
	.st10{fill:#469470;}
	.st11{fill:#579E7E;}
	.st12{fill:#539C7B;}
	.st13{fill:#4B9875;}
	.st14{fill:#4D9976;}
	.st15{fill:#FFE4D1;}
	.st16{fill:#4A9773;}
	.st17{fill:#599F7F;}
	.st18{fill:#FFDFC9;}
	.st19{fill:#FFD6BA;}
	.st20{fill:#84CCAA;}
	.st21{fill:#FFD2B4;}
	.st22{fill:#65BF95;}
	.st23{fill:#C6C2C0;}
	.st24{fill:#92D2B4;}
	.st25{fill:#FFE3D0;}
	.st26{fill:#E6E4E3;}
	.st27{fill:#FFDFCA;}
	.st28{fill:#FFDEC8;}
	.st29{fill:#73C59F;}
	.st30{fill:#C3BEBC;}
	.st31{fill:#FFE1CC;}
	.st32{fill:#FFD7BC;}
	.st33{fill:#90D1B3;}
	.st34{fill:#FFE1CD;}
	.st35{fill:#ADA7A4;}
	.st36{fill:#B7B2AF;}
	.st37{fill:#AAA4A1;}
	.st38{fill:#FFE0CB;}
	.st39{fill:#6DC29A;}
	.st40{fill:#C1BDBA;}
	.st41{fill:#B4AFAC;}
	.st42{fill:#F7F7F7;}
	.st43{fill:#6AC198;}
	.st44{fill:#CBC7C6;}
	.st45{fill:#B6B1AE;}
	.st46{fill:#FFDBC3;}
	.st47{fill:#8DD0B1;}
	.st48{fill:#BCB7B5;}
	.st49{fill:#FFE2CE;}
	.st50{fill:#F5F4F4;}
	.st51{fill:#BBB6B4;}
	.st52{fill:#FFDCC4;}
	.st53{fill:#CAC7C5;}
	.st54{fill:#C4BFBD;}
	.st55{fill:#FFF8F3;}
	.st56{fill:#FFD8BE;}
	.st57{fill:#FFE7D7;}
	.st58{fill:#FFDAC2;}
	.st59{fill:#76C6A1;}
	.st60{fill:#ABA5A2;}
	.st61{fill:#FFD2B5;}
	.st62{fill:#71C49D;}
	.st63{fill:#7EC9A6;}
	.st64{fill:#FFDAC1;}
	.st65{fill:#FAFAF9;}
	.st66{fill:#FFFAF6;}
	.st67{fill:#FFD4B8;}
	.st68{fill:#FFEFE3;}
	.st69{fill:#FFC49C;}
	.st70{fill:#FFD3B6;}
	.st71{fill:#EDECEB;}
	.st72{fill:#FDFDFD;}
	.st73{fill:#FFD7BD;}
	.st74{fill:#FFEADB;}
	.st75{fill:#FFD9C0;}
	.st76{fill:#7CC9A5;}
	.st77{fill:#F7F6F6;}
	.st78{fill:#D0CDCB;}
	.st79{fill:#FFC8A3;}
	.st80{fill:#FFD1B3;}
	.st81{fill:#81CBA8;}
	.st82{fill:#E7E6E5;}
	.st83{fill:#FFF6F0;}
	.st84{fill:#7FCAA7;}
	.st85{fill:#FFD6BB;}
	.st86{fill:#FFF8F4;}
	.st87{fill:#FFDDC7;}
	.st88{fill:#ECEBEA;}
</style>
<g>
	<path class="st0" d="M97,131.9c-30.7,0-61.4,0-92.1,0.1c-2.4,0-2.8-0.7-2.8-2.9C2.1,89,2.1,49,2,8.9C2,6.7,2.4,6,4.8,6
		c61.4,0.1,122.9,0.1,184.3,0c2.3,0,2.6,0.6,2.6,2.7c-0.1,40.2-0.1,80.4,0,120.6c0,2.7-1,2.7-3,2.7
		C158.2,131.9,127.6,131.9,97,131.9z"/>
	<path class="st1" d="M169.4,67.4c0.9,2,1.2,4.1,1.3,6.2c-4.1,3.5-10.4,3-13.4-1.1c2.1-4.6,1.5-9-1.2-13.2c0.2-0.3,0.4-0.5,0.6-0.7
		c1.1-0.7,2.2-1.4,3.5-1.6c1.1,0,1.5-1.1,2.4-1.5c2-0.8,4-1.5,5.9,0c0.2,0.8,0.4,1.5,0.6,2.3C168.9,61,168.5,64.3,169.4,67.4z"/>
	<path class="st1" d="M163.3,88.4c-1.5,5.5-3,11.1-4.5,16.6c-0.6,3.6-0.4,7.3-0.1,10.9c-1,3.3-1.3,3.4-3.5,1.7
		c-2.2-12.4,2.8-24.7,0.9-37.2c1.4-0.8,2.6,0.1,3.8,0.6c2.8,0.6,5,1.6,4.5,5.1C164.2,87,164.1,87.8,163.3,88.4z"/>
	<path class="st2" d="M70.8,73.5c0.2-0.7,0.7-1.1,1.4-1.2c3.9,1.7,4.2,2.2,3.8,6.9c-0.2,0.5-0.5,1-1.1,1.2c-0.9-0.2-0.9,0.3-0.9,1
		c-0.1,2.8,0.2,5.7-0.3,8.5c-0.9,2.6,0,5.4-1,8c-0.1,0.3,0.1,0.7-0.1,1c0.4-0.4,0-0.9,0.3-1.3c1.5-1.3,2.7-0.1,4,0.4
		c0.7,0.3,1.2,0.8,1.8,1.3c0.9,0.9,1.5,2,1.7,3.3c0,0.3-0.1,0.7-0.2,1c-1.5,1.8-2.8,3.8-4.5,5.4c-0.9,0.7-1.6,1.5-1.4,2.8
		c0,0.7,0.1,1.3-0.3,1.9c-0.2,0.1-0.5,0.2-0.7,0.2c-0.7,0.5-1.3,0.2-1.9-0.1c-0.4-0.3-0.8-0.7-1-1.2c-0.3-0.8-0.7-1.6-0.2-2.5
		c0.1-2.5,0.1-5,0.2-7.5c0.6-1.7-1.1-2.7-1-4.2c-0.2-1.6-0.1-3.2-0.2-4.8c-0.1-0.8,0-1.7,0-2.5c0.1-4.5-0.3-8.9,0.2-13.4
		C69.4,76.2,70.5,75,70.8,73.5z"/>
	<path class="st1" d="M116.4,89.4c-0.2,4.2-1.4,8.1-2.9,11.9c-1.1,1.2-0.3,2.7-0.5,4c0.2,2.4-0.4,4.8,0.3,7.2
		c0.3,1.3,0.6,2.5,0.9,3.8c-1.5,3.1-2.1,3.3-3.9,1.5c0.4-2.8-0.4-5.4-0.9-8.1c-0.6-3.6-0.9-7.1,0.2-10.6c1.6-5,0.1-9.8-0.3-14.7
		c-0.1-0.8-0.1-1.7-0.2-2.6c1.9-0.9,3.9-0.4,5.8-0.1c2.9,0.6,2.4,3,2.4,5.1C117.2,87.7,116.7,88.5,116.4,89.4z"/>
	<path class="st1" d="M124.3,79.5c0.2,1.1,0.3,2.2-0.5,3.1c-1,1.1-0.4,2.4-0.3,3.6c0.1,0.6,0.1,1.2-0.5,1.6
		c-1.1,2.4-0.4,4.9-0.4,7.4c0,3.6,0.9,7.2-0.4,10.7c-0.7,1.4-0.8,2.9,0,4.3c0.8,0.8,0.4,2.4,1.9,2.8c-1.8,3.3-2.8,3.3-4.7,0.2
		c-0.6-8.2-1.2-16.4-1.8-24.5c-0.6-0.7-0.7-1.5-0.7-2.4c0-1.5-0.1-2.9,0.1-4.4C118.9,79.2,121.8,79.7,124.3,79.5z"/>
	<path class="st1" d="M163.3,88.4c0-0.7,0-1.4,0-2.1c1-1.4-0.4-3.5,1.2-4.8c2.3-0.8,4.4-2,6.9-1.9c-0.5,3.2-0.5,6.6-2,9.6
		c-1,1.7-0.4,3.4-0.3,5.2c-0.1,0.3-0.2,0.6-0.4,0.8c-1.1,2.9-0.5,5.9-0.3,8.9c0.2,0.9,0.1,1.7-0.5,2.4c-0.7,2-0.8,4,0.1,5.9
		c0.2,0.2,0.4,0.5,0.6,0.7c0.8,1.3,0.1,2.2-1,2.5c-1.6,0.4-2.5-0.5-2.7-2.1c-0.2-4.1-0.5-8.1-0.7-12.2c-0.1-1.3-0.4-2.7,0.6-3.9
		c0.8-1.2,0.8-2.5,0-3.7C163.4,92.2,165,89.8,163.3,88.4z"/>
	<path class="st1" d="M20.7,81.6c-0.5-9.4-1-18.8-1.4-28.1c-0.2-3.4,0.7-6.4,4.3-7.9c0.3,0.2,0.6,0.4,0.7,0.7
		c0.4,1.2,0.9,2.3,1.2,3.6c0,1.5-0.2,3-0.5,4.6c-0.7,2.6,0,5.3-0.6,7.9c-0.9,3.7-0.2,7.4-0.4,11.1c0,2.8-0.5,5.9,2.5,7.7
		c1.1,1.7-0.9,1.9-1.4,2.8c-0.3,0.4-0.7,0.8-1,1.2c-0.8,1.2-1.9,1.5-3.1,0.7c-0.9-0.7-1-1.6-0.9-2.7C20.2,82.7,20.9,82.3,20.7,81.6z
		"/>
	<path class="st1" d="M35,59.3c1.1,2.4,0.5,5,0.5,7.5c-0.2,1.3-0.6,2.5,0.3,3.7c0.1,0.3,0.3,0.6,0.4,0.8c-2.1,4.3-8.8,4.5-12,0.4
		c1.2-3.4,0.5-6.9,0.1-10.4c0.1-0.7,0.6-1,1.1-1.3C28.6,59.6,31.6,57.2,35,59.3z"/>
	<path class="st2" d="M153.4,54.8c-3.4-5.7-3.5-11.9-2.1-18.2c0.5,0.3,0.5,0.8,0.5,1.2c-0.4-0.3-0.4,0.7-0.4,0.7
		c0.6-1.6,0.4-2.8,0.3-3.9c0.4-5.4,1.3-10.8,1.1-16.3c-0.4-0.9,0.1-1.5,0.8-2c0.4-0.1,0.8-0.1,1.2,0c0.6,0.3,0.9,0.8,1.1,1.4
		c0.3,1,0.3,2,0.3,2.9c-0.3,4.1-0.4,8.1,4.4,9.9c-0.3,0.8-1.1,1-1.8,1.1c-1.8-0.1-2.8,0.8-3,2.6c-1,4.8,0,9.3,1.7,13.7
		c0.2,1.2,0.2,2.5,0.1,3.7C157,53.9,155.5,54.8,153.4,54.8z"/>
	<path class="st1" d="M21.5,85.5c1.1,0.8,1.6-0.3,2.2-0.8c0.4,0.2,0.7,0.6,1,1c0.9,1.2,2.4,1,3.6,1.4c1.1,0.5,1.4,1.5,1.7,2.6
		c0,0.4-0.1,0.7-0.3,1c-1.1,3.5-1.4,7.2-3.1,10.5c-0.5,4.5-0.8,9,0.2,13.5c0.2,0.5,0.4,1,0.6,1.5c-0.4,1.6-1.1,2.8-2.9,2.7
		c-1-0.1-1.4-0.8-0.9-1.9c-0.9-6.6-2.5-13.1-0.6-19.7c0.1-0.5,0.4-0.9,0.6-1.3c0.7-1.7,0.8-3.5,0-5.2c-0.9-1.4-0.3-3.7-2.7-4.1
		C20.8,86.1,21,85.7,21.5,85.5z"/>
	<path class="st1" d="M35.9,111.7c0.6,0.4,1.2,0.8,1.8,1.2c-0.2,1.6-1.1,2.4-2.7,2.5c-1.4,0.1-1.8-0.9-2.1-2
		c-0.5-3.8-1-7.5-1.4-11.3c-0.2-1.6-0.6-3.2,0.5-4.6c0.7-1,0.7-2-0.1-2.9c-0.9-1.1-0.3-2.5-0.6-3.8c-0.5-0.6-0.8-1.4-0.8-2.2
		c-0.1-0.8-0.1-1.5-0.1-2.3c-0.1-1.6-1.1-3.4,1.1-4.5c1.3-0.4,2.7-0.7,3.9-1.6c0.6-0.4,1.3-0.7,2-0.6c0.4,0.1,0.7,0.3,0.9,0.6
		c0.5,1.1-0.3,1.7-0.9,2.4c-0.1,1.7,0.2,3.5-0.9,5.1c0.1,4.3-1.9,8.4-0.6,12.8c0,0.7,0,1.4,0,2.1C35.1,105.7,34.8,108.7,35.9,111.7z
		"/>
	<path class="st1" d="M79.7,103.5c0-0.3,0.1-0.6,0.1-0.9c0.7-1.2,1.4-2.4,0.3-3.8c-0.2-0.2-0.4-0.4-0.6-0.7
		c-1.2-0.7-2.5-0.3-3.7-0.7c-0.9-0.3-1.7-0.7-2.4-1.3c-1-1.6-1-3.3,0.1-4.9c3.1-2,5.8-0.1,8.7,0.8c1.3,0.6,2.6,1.4,3.8,2.3
		c1.2,1.3,2.7,2.5,2.1,4.7l0,0c-0.7,0.7-0.6,1.8-0.9,2.6c-0.4,1.1-0.5,2.2-1,3.2c-0.3,0.4-0.8,0.6-1.1,0.9c-1.6,1.5-2.2,3.5-3.1,5.4
		c-0.7,0.7-0.5,2-1.7,2.2c-1.3-0.5-1.2-1.9-1.8-2.9c-0.3-0.6-0.5-1.3-0.5-2C78,106.6,78.8,105,79.7,103.5z"/>
	<path class="st3" d="M171.4,79.6c-1.8,1.8-4.3,1.7-6.6,2.2c-2,0.6-4,0.6-5.9-0.1c-1-0.4-1.9-0.8-2.9-1.2c-0.3-2.7,0.1-5.4,1.3-7.9
		c4.2,3.1,8.8,2.7,13.4,1.1C170.9,75.7,171.2,77.6,171.4,79.6z"/>
	<path class="st2" d="M121.7,60.1c0,0.2-0.1,0.3-0.1,0.5c0.9,2.7-0.4,5.7,0.8,8.4c0.8,0.9,0.7,1.9,0.6,3c-3.2,3.6-9.4,3.6-12.7-0.1
		c0.2-1.7,1.5-3.2,1.3-5.1c1.4-0.7,3.3-0.4,3.7-2.5c0.9-1.6,0.8-3.8,2.7-4.7C119.3,59,120.6,58.9,121.7,60.1z"/>
	<path class="st2" d="M163.5,16.7c5.5,9.3,5.1,18.8,0.5,28.3c-1.5,0.8-2.1-0.1-2.6-1.3c-0.1-1,0.2-1.8,0.5-2.7
		c0.5-1.4,0.5-2.8,0.4-4.2c0-1.1-0.3-2.2-0.1-3.3c1-4.1-0.4-8.1-1.1-12.1c-0.4-1.9-1.4-3.7-1.2-5.8c0.5-1.2,1.4-1.3,2.6-1
		C163.3,15.1,163.8,15.7,163.5,16.7z"/>
	<path class="st4" d="M124.3,79.5c-1.8,1.7-4.4,1.3-6.5,2.3c-3,0.5-6,0.9-8.8-0.9c-0.3-2.5-0.3-5.1,0.7-7.5c2.1-0.9,3.6,1.1,5.6,1
		c2.6-0.1,5-0.9,7.6-0.7C124.1,75.4,124.1,77.5,124.3,79.5z"/>
	<path class="st3" d="M37.2,80.1c-0.5,0.3-1,0.6-1.5,0.9c-1.2,0.5-2.6,0.6-3.9,1.1c-1-0.1-1.9,0.5-3,0.6c-0.9,0-1.7-0.1-2.3-0.8
		c-5-0.7-2.9-4.7-3.5-7.4c0.3-0.8,0.8-1.6,1.5-1.3c4,2.1,7.9,0.5,11.9,0.2c0.9,1.2,0.6,2.6,0.8,3.9C37.7,78.2,38.1,79.2,37.2,80.1z"
		/>
	<path class="st2" d="M126.1,44.4c1.3-0.2,2.5,0.3,3.6,0.8c0.2,0.3,0.2,0.6,0.1,0.9c-0.2,0.6-0.4,1.1-0.2,1.8
		c0.2,0.6,0.5,1.1,0.1,1.7c-0.1,3.6,0.2,7.2-1,10.6c-0.4,1.2-0.3,3-2,3.2c-1.5,0.2-2.3-1.1-3.2-2.2c-0.4-0.5-0.9-0.8-1.3-1.3
		c-0.4-0.3-1-0.5-1-1.1c0.8-1.9,1.5-3.8,2.4-5.7c0.9-0.3,1.3,0.4,1.7,1c1.3-2.6-0.4-4.5-1.6-6.5c-0.1-0.3-0.1-0.7-0.1-1.1
		c0-0.5,0.2-1.1,0.4-1.5C124.7,44.5,125.3,44.3,126.1,44.4z"/>
	<path class="st5" d="M35,59.3c-3.4-0.5-6.4,1.7-9.7,1.5c-0.5-0.3-0.6-0.8-0.5-1.4c0.1-0.7,0.4-1.3,0.7-1.9c1.2-1.8-0.2-4.5,1.9-6
		c2.1-0.1,4.6,1.7,6.1-1.2c1.9-0.3,1.6,1.5,2.3,2.4C38.6,55.1,36.7,57.2,35,59.3z"/>
	<path class="st1" d="M110.9,64c-2.2-3.6-3.1-7.7-4.1-11.7c-0.5-2-0.8-4.6,2.5-5c0.3-0.3,0.6-0.3,0.9-0.2c0.6,0.5,0.8,1.1,1,1.8
		c0.2,0.8,0.7,1.5,1.3,2.2c0.4,0.6,0.7,1.3,0.9,2c0.2,1.2,0.2,2.3,0.2,3.5c0,1.6,0.1,3.2-0.3,4.8C112.8,62.4,112.3,63.6,110.9,64z"
		/>
	<path class="st6" d="M168.5,55.5c-2.2,0.2-4.4,0.5-6.6,0.7c-2.7-1.6-1.8-4.4-2.2-6.8c0.3-1.4,3.1-0.7,2.6-2.9
		c0.4-0.7,0.8-1.1,1.6-0.7c0.6,0.6,1,1.6,1.7,1.9C169.7,49.3,169.9,52.1,168.5,55.5z"/>
	<path class="st7" d="M22,42.1c-1.4-4.5-0.4-8.4,3-10.8c3.4-2.4,7.1-1.3,8.5,2.4c-0.9,0.6-2,0.1-3,0.3c-3.6,0.8-2.3,4.3-3.6,6.4
		c-1,0.5-1.5-0.2-2-0.9c-0.2,0-0.1-0.6-0.5-0.4c-0.4,0.3,0-0.3,0.1,0.3c0.2,0.4,0.3,0.8,0.3,1.2c-0.2,0.8-0.4,1.6-1.1,2.2
		C22.9,43.2,22.6,42.3,22,42.1z"/>
	<path class="st8" d="M61.2,87.6c4.5-2.7,5.4-7.9,8-11.9c0.3,0.3,0.4,0.7,0.4,1.1c-1.3,3.9,0.3,7.8,0.1,11.7c-0.1,2.2-0.9,3.2-3,3.2
		C64,91.6,62,90.5,61.2,87.6z"/>
	<path class="st9" d="M78.3,59.3c3.8-2,5.7-1.6,7.4,1.5c-0.8,1.5-1.3,3-1.3,4.7c-0.2,1.8-0.6,3.6-1.7,5.1c-0.4,0.4-0.8,0.8-1.3,1
		c-0.8,0.1-1.4-0.3-1.9-0.9c-0.3-0.5-0.4-1-0.6-1.5c-0.2-1.2-0.9-2.3-1-3.5c0.1-2.5,0.9-4.8,3.2-6.2C80.1,60,79.1,60.2,78.3,59.3z"
		/>
	<path class="st10" d="M61.2,87.6c1.6,1.2,2.7,3.3,5.1,3.2c1.1,0.9,2.7-0.5,3.6,0.9c0,0.6,0,1.2,0,1.9c-0.3,0.8-0.9,0.8-1.6,0.8
		c-0.3,0-0.7-0.1-1-0.1c-1.4-0.1-2.6,0.5-3.6,1.4c-1,0.8-1.7,2-2.9,2.5C57.6,94.2,57.7,91.7,61.2,87.6z"/>
	<path class="st2" d="M82,93c-2.6-1.1-5.2-2.2-8.2-1.5c-0.2-0.3-0.3-0.7-0.2-1c0.3-0.5,0.7-0.8,1.2-1c1.1-0.3,2.2,0.1,3.3,0.3
		c2.3,0.4,2.3-0.8,1.7-2.4c-0.4-0.9-0.8-1.9-0.1-2.9c0.5-0.6,1.2-1.2,1.5-1.9c0.1-0.3,0.2-0.6,0.3-0.9c0.4-1.9,0-3.9,0.4-5.8
		c0.1-0.3,0.3-0.7,0.6-0.9c2-0.3,0.7,1.8,1.6,2.3c0,1.8-0.1,3.5-0.1,5.3c-0.3,1.5-0.7,3,0.3,4.4c0.7,1.9,1.6,3.8,1.3,6
		C84.4,93.7,83.2,92.2,82,93z"/>
	<path class="st11" d="M164.8,113.6c1.4,1.2,2.9,3.4,3.7-0.4c2.6,1,4.2,3.7,7,4.6c0.3,0.1,0.6,0.9,0.4,1.2c-0.3,0.8-1.1,1-1.8,0.9
		c-2-0.2-3.9-0.6-5.9-0.8C163.3,118.7,163,118.3,164.8,113.6z"/>
	<path class="st12" d="M32.8,113.3c1.8,2.7,3.3,1,4.8-0.4c1.5,1.7,3.3,2.9,5.5,3.7c0.7,0.3,1.5,0.6,1.3,1.6c-0.2,0.8-1,1.1-1.8,1.1
		c-3.1-0.2-6.3,0-9.2-0.9C30.4,117.5,32.7,115,32.8,113.3z"/>
	<path class="st11" d="M119.6,113.1c1.7,2.6,3.2,1.5,4.7-0.2c1.6,1.5,3.3,2.9,5.5,3.7c0.6,0.2,1.5,0.5,1.4,1.5
		c-0.1,0.9-0.9,1.2-1.6,1.2c-3.2-0.2-6.5,0-9.5-0.9C117.2,117.4,119.7,114.9,119.6,113.1z"/>
	<path class="st13" d="M71.6,116.1c1.7,1.5,2.2,3.9,4,5.2c0.8,0.6,1.9,1.1,1.6,2.2c-0.4,1.4-1.8,1-2.8,0.9c-0.7,0-1.4-0.3-2.1-0.5
		c-1.7-1.7-4.8-1.5-5.4-4.5c0.2-0.7,0.3-1.4,0.4-2.1C69,117.7,70.1,116.1,71.6,116.1z"/>
	<path class="st9" d="M108.7,42.9c-1.8-3.4-1.5-7.3,0.8-9.9c2.1-2.3,4.6-3.1,7.6-1.6c0.4,0.4,0.4,0.9,0.3,1.5
		c-0.3,0.5-0.7,0.7-1.2,0.9c-1.2,0.5-2.1,1.3-2.9,2.3c-0.9,1.1-0.2,2.9-1.7,3.7c-0.7,0-1.2-0.5-1.8-0.6c-0.9,0.9,0.1,2.1-0.4,3
		C109.2,42.6,109,42.8,108.7,42.9z"/>
	<path class="st2" d="M60.9,98.2c0-1.5,1-2.4,2.2-3c1.5-0.6,3-1.5,4.7-1.5l0-0.1c2.8,1,1.6,3.4,1.8,5.2c0,0.8,0.3,1.7-0.4,2.3
		C66.3,100.6,63.4,99.9,60.9,98.2z"/>
	<path class="st14" d="M23.6,117c0.2,1.4,0.9,2.1,2.1,0.9c0.6-0.6,1-1.3,1.8-1.7c1.9,2,2.9,4.8,5.4,6.2c-0.9,3.3-3.2,1.5-4.9,1.2
		c-1.5-0.3-2.8-1.5-4.2-2.3c-0.7-0.5-1-1.2-1.1-2C22.9,118.5,22.7,117.6,23.6,117z"/>
	<path class="st15" d="M30.6,33.1c1.1-0.2,2,0.3,2.9,0.7c0.5,0.4,0.6,0.9,0.5,1.5c-0.6,0.8-0.6,1.5,0,2.3c0.2,1.7-0.3,3.1-1.3,4.5
		c-0.8,0-0.2,0.4-0.2,0.7c-0.2,0.8-0.4,1.6-0.6,2.4c-0.1,0-0.3,0.1-0.4,0.1c-1-0.7-1.3,0.5-2,0.8c-1.2-0.3-1.4-1.5-1.8-2.4
		c-0.1-0.3-0.2-0.7-0.2-1.1c-0.1-0.9,0-1.8,0.4-2.7C29.8,38,29.5,35.3,30.6,33.1z"/>
	<path class="st14" d="M155.1,117.6c1.8,1.5,2.3-0.1,3-1.2c0.4-0.6,0.8-0.5,1.3-0.1c1.5,2.1,2.6,4.6,4.7,6.2
		c0.4,1.1-0.1,1.5-1.2,1.6c-1.9,0.3-3.5-0.5-5.1-1.4c-0.9-0.3-1.4-1-2.2-1.4c-0.6-0.6-1.5-0.8-1.5-1.9
		C154.4,118.7,154.4,117.9,155.1,117.6z"/>
	<path class="st16" d="M110.3,117.7c2.4,2.5,2.3-1.7,3.9-1.5c2.1,1.7,2.6,4.9,5.3,6.2c-0.9,2.8-3.1,1.4-4.8,1.4
		c-0.2,0-0.4,0-0.6-0.1c-1.4-1.4-3.7-1.8-4.6-3.8C109.6,119.1,109.3,118.2,110.3,117.7z"/>
	<path class="st17" d="M80.4,113.1c0.1-1,0.5-1.7,1.5-1.9c0.4,3.7,4,4,6.2,5.8c-0.1,0.3-0.1,0.9-0.5,0.9c-3.6,0.2-7.3,0.2-10.8-0.7
		c-0.3-0.1-0.4-0.6-0.6-0.9c-0.1-0.2-0.1-0.4-0.1-0.7c0.3-0.6,0-1.4,0.6-1.8c0.4-0.2,0.9-0.3,1.4-0.3
		C78.9,113.5,79.7,113.9,80.4,113.1z"/>
	<path class="st18" d="M36.5,73.3c-3.8,1.5-7.6,2.6-11.5,0.4c-0.8-0.5-1.3,0.2-1.9,0.7c0.2-4.1-0.9-8.2,0.6-12.2
		c0.3-0.3,0.6-0.3,0.9,0c0.2,0.5,0.2,1.1,0.1,1.6c-0.1,1.9,0.1,3.9-0.2,5.8c-0.1,0.5-0.1,1-0.1,1.6c3.3,3.2,8.1,3.2,11.7,0.1
		C36.3,72,36.4,72.7,36.5,73.3z"/>
	<path class="st19" d="M79.7,69c0,0.5,0,1,0,1.5c0.6,0.8,0.7,1.6-0.1,2.3c-1.3-0.2-1.5,1.6-2.8,1.6C74.6,72,74,69.1,74.4,66
		c0.1-1.6,0.1-3.2,1.6-4.3c1.1,1.2,0.9,2.6,0.6,4c0,0.1,0.2,0.2,0.3,0.2s0.2-0.1,0.3-0.1c0.3,0,0.5,0.2,0.7,0.4
		C78.4,67.2,78.9,68.2,79.7,69z"/>
	<path class="st5" d="M153.4,54.8c0.8-1.3,3.1-1.1,3.3-3c1.3-2,1.9-0.3,2.6,0.5c0.6,1,1.3,2,1.3,3.3c-0.8,1.8-2.9,2.1-3.9,3.7
		c-0.2,0-0.4,0.1-0.6,0.1C155.2,57.8,154.3,56.3,153.4,54.8z"/>
	<path class="st8" d="M81.9,70.5c0.6-1.8,1.1-3.5,1.7-5.3c1-1.6,2-0.9,3,0.1c0.3,3-1,5.6-2.4,8.2c-0.2-0.1-0.3-0.1-0.4-0.2
		c-0.8-0.6-1.6-1.1-2-1.9C81.7,71,81.7,70.7,81.9,70.5z"/>
	<path class="st20" d="M122.9,73.7c-4.4,1.8-8.8,2.1-13.2-0.3c-0.2-0.6,0.1-1.1,0.5-1.5c4.2,2.2,8.5,2.7,12.7,0.1
		C123,72.6,123,73.1,122.9,73.7z"/>
	<path class="st8" d="M119.9,38.3c0.1,1.3,0.4,2.7-0.6,3.8c-0.4-0.1-0.5,0-0.3,0.4c0.1,0.2,0.1,0.3,0.2,0.3c0.5,1.3-2.2,1.4-1.2,2.9
		c-0.3,0.3-0.6,0.5-1.1,0.5c-1.2-0.3-1.4-1.3-1.5-2.4c0-1.8,0.5-3.4,1-5.1c0.2-0.5,0.6-1,1.1-1.3C118.6,37,119.3,37.6,119.9,38.3z"
		/>
	<path class="st21" d="M78.3,59.3c1,0,2,0,3.5,0c-2.2,2.1-2.7,4.5-3.5,6.7c-0.3,0.3-0.5,0.3-0.7,0l0,0c-0.9-1.4-1.4-2.9-0.8-4.6
		C76.4,60.1,77.2,59.6,78.3,59.3z"/>
	<path class="st22" d="M76.2,116.2c3.9,0.8,7.9,1.8,11.9,0.7c1.1,1.3,0.1,1.8-0.9,1.8c-3.1,0-6.2-0.1-9.2-0.3
		C76.7,118.3,75.8,117.7,76.2,116.2z"/>
	<path class="st23" d="M163.5,16.7c-0.3-0.5-0.6-1.1-0.9-1.6c-0.5-1.1-1-2.3,1-2.4c1.5-1.1,2.9-1.5,4.4,0.1
		c-0.6,1.1-0.2,2.3-0.8,3.4C166.1,17.4,164.7,16.4,163.5,16.7z"/>
	<path class="st24" d="M35.7,52.5c-0.8-0.8-1.5-1.5-2.3-2.2c-2.2-0.3-1.9-2.1-2.3-3.6c0-0.6,0.2-1.2,0.7-1.6h0
		C35.8,46.2,35.5,49.5,35.7,52.5z"/>
	<path class="st18" d="M119.9,38.3c-0.7-0.2-1.4-0.5-2.1-0.7c-1.6-1.3-2-2.8-0.8-4.5c0-0.5,0.1-1,0.1-1.5
		C119.9,33,119.8,35.7,119.9,38.3z"/>
	<path class="st25" d="M74.4,66c0.1,3.1,1.6,5.7,3.1,8.3c0.3,0.3,0.5,0.6,0.7,0.9c0.2,1,0.2,1.9-0.5,2.8c-1.4,0.3-1.4-0.7-1.6-1.6
		c0.2-2.3-2-3-3-4.5C75.7,70.4,72.8,67.7,74.4,66z"/>
	<path class="st26" d="M85,105.8c0.2-0.3,0.4-0.6,0.6-0.8c1.1-0.5,0.7-2,1.8-2.6c0.9-0.4,1.7-0.4,2.6-0.1c1.3,0.7,0.5,2.6,1.7,3.4
		C89.4,107.8,87.2,105.4,85,105.8z"/>
	<path class="st27" d="M109.1,80.9c2.8,0.9,5.8,1.2,8.8,0.9c0,1.5,0,3,0,4.5c-0.4,0.4-0.7,1.2-1.5,0.7c0.3-3-0.2-5.2-4-4.6
		c-1,0.2-2.1-0.4-3.2-0.7C109.1,81.5,109.1,81.2,109.1,80.9z"/>
	<path class="st8" d="M86.6,65.3c-1,0-2-0.8-3-0.1c-0.2-1.9-0.3-3.8,2-4.5C86.5,62.2,87.7,63.5,86.6,65.3z"/>
	<path class="st28" d="M163.5,12.7c-1,0.5-0.9,1.5-1,2.4c-0.9,0-1.8-0.1-2.3,1c-0.6,0.3-1.1,0.2-1.7-0.2c-0.5-0.7-0.6-1.5-0.4-2.3
		c0.3-0.8,0.7-1.4,1.6-1.6C161.1,11.9,162.4,11.7,163.5,12.7z"/>
	<path class="st29" d="M23.7,120.7c1.5,0.8,2.8,1.9,4.4,2.5c1.6,0.6,3.5,1.5,4.7-0.8c1.2,2.2-0.4,2.1-1.7,2.2
		c-2.9,0.2-5.1-1.2-7.4-2.7C23.3,121.6,23.3,121.2,23.7,120.7z"/>
	<path class="st8" d="M153.6,16.7c-0.3,0.5-0.6,1.1-0.9,1.6c-0.6-0.3-1.3-0.7-1.9-1c-1.4-1.3-1.4-2.5,0-3.8c0.8-0.5,1.7-0.9,2.7-0.6
		c0.4,0.6,0.2,1.2,0.2,1.8C153.8,15.4,153.7,16,153.6,16.7z"/>
	<path class="st30" d="M159.8,11.9c-0.3,0.5-0.6,1-1,1.5c-0.8,1-1.9,0.6-2.9,0.4c-0.5-0.2-0.9-0.6-1-1.1
		C156.3,10.7,157.7,8.9,159.8,11.9z"/>
	<path class="st31" d="M110.9,64c0.6-0.8,1.1-1.6,1.7-2.5c0.1,0.1,0.3,0.2,0.4,0.4c0.8,1-0.2,3.3,2.2,3.2c0.2,0.1,0.3,0.1,0.4,0.2
		c-0.4,3-2.2,2.2-4,1.6C110.8,66,111.2,64.9,110.9,64z"/>
	<path class="st8" d="M35.8,100.5c-2-4.4,0.2-8.5,0.6-12.8C36.9,92,35.6,96.3,35.8,100.5z"/>
	<path class="st32" d="M117.1,45.8c0.3,0,0.6-0.1,0.9-0.2c0.9,0.1,1.8,0.1,2.7,0.2c0.3,0.2,0.5,0.5,0.6,0.8c0.1,0.5,0,1-0.3,1.5
		c-0.7,0.6-1.9,0.6-2,1.8c-0.7,0.3-1.3,0.3-1.9-0.2C116.2,48.4,116.5,47.1,117.1,45.8z"/>
	<path class="st33" d="M73,71.9c2.2,0.4,3,2.1,3.7,3.9c-1.1,1,1.1,3.2-1.4,3.7c0.7-3.1-0.7-5.4-3.1-7.2C72.5,72.2,72.7,72.1,73,71.9
		z"/>
	<path class="st34" d="M26.8,114.7c-1.5-4.5-1.2-9-0.2-13.5C26.7,105.7,26.8,110.2,26.8,114.7z"/>
	<path class="st35" d="M38.8,78.2c2.8-0.4,5.1-0.3,3.7,3.7c-1.2,0.3-2-0.7-2.9-1.1c-0.3-0.2-0.5-0.4-0.7-0.7
		C38.6,79.4,38.3,78.8,38.8,78.2z"/>
	<path class="st31" d="M121.6,59.3c0.2,0.3,0.5,0.5,0.7,0.8c-0.2,0.1-0.4,0.1-0.6,0.1c-2.7-0.5-4.8-0.1-5,3.4c0,0.6-0.8,1.2-1.2,1.8
		l0,0c-1.2-2.4-0.5-4.5,1.1-6.4c0.4-0.2,0.8-0.3,1.2-0.4C119.2,58.3,120.5,58.2,121.6,59.3z"/>
	<path class="st26" d="M76.7,114c-0.2,0.5-0.4,1-0.5,1.6c-0.8-0.6-1.5-1.2-2.3-1.8c-0.3-0.7-0.5-1.3-0.8-2c0.3-0.6,0.8-1.2,1.5-1.4
		C77.8,110.1,77.1,112.1,76.7,114z"/>
	<path class="st19" d="M110.4,47.5c-0.3-0.1-0.7-0.2-1.1-0.3c1.2-1.6-0.2-2.9-0.6-4.3l0.2-0.2c1.2-0.2,2.1,0.7,3.3,0.5
		c1,0.5,1.5,1.3,1.4,2.4c-0.5,0.9-1.5,1.2-2.2,1.8C111,47.6,110.7,47.6,110.4,47.5z"/>
	<path class="st34" d="M159.5,116.2c-0.4,0-0.9,0.1-1.3,0.1c0.3-3.8-0.9-7.6,0.6-11.3C159.2,108.7,158.2,112.5,159.5,116.2z"/>
	<path class="st5" d="M66.9,119.5c1.8,1.5,3.6,3,5.4,4.5c-1.8-0.1-3.2-1.1-4.7-1.9C66.6,121.5,65.8,120.7,66.9,119.5z"/>
	<path class="st36" d="M70,110.1c0.2,0.8,0.4,1.6,0.6,2.4c-0.1,0.8,0.3,1.8-0.7,2.3c-0.6-0.1-1-0.3-0.7-1
		C67.6,112.2,66.4,110.7,70,110.1z"/>
	<path class="st5" d="M109.4,119.9c1.9,0.9,3.5,2,4.6,3.8C112.4,122.6,109.2,123.4,109.4,119.9z"/>
	<path class="st37" d="M21.5,85.5c-0.2,0.4-0.4,0.8-0.5,1.2c-3.4,0.5-2.1-1.6-1.9-3.2c0-1.4,0.8-1.4,1.8-1
		C21.1,83.5,20.4,84.7,21.5,85.5z"/>
	<path class="st30" d="M129.7,46c0-0.2,0-0.5,0.1-0.7c0.9-0.3,1.8-0.8,2.8-0.5c0.6,0.2,1.6,0,1.6,1c0.1,0.9-1.1,0.8-1.4,1.5
		c-1.1,0.5-2,0.1-2.9-0.4c-0.2-0.2-0.3-0.3-0.3-0.6C129.6,46.1,129.6,46,129.7,46z"/>
	<path class="st38" d="M169.4,67.4c-1.5-3.2-0.9-6.4-0.2-9.6C169.2,61,169.3,64.3,169.4,67.4z"/>
	<path class="st39" d="M157.5,122c2.2,0.4,4.3,3.6,6.7,0.4c1.2,1.6,0.3,2.1-1.2,2.2c-2.2,0.3-4-0.5-5.7-1.9
		c-0.2-0.2-0.2-0.4-0.1-0.5C157.3,122.1,157.4,122,157.5,122z"/>
	<path class="st27" d="M71.6,116.1c-1.3,0.9-2,3.6-4.3,1.3c0.4-0.6,0.7-1.2,1.1-1.8c0.6-1.2,1.7-0.2,2.5-0.6
		c0.3,0.1,0.6,0.2,0.8,0.5C71.7,115.8,71.7,115.9,71.6,116.1z"/>
	<path class="st27" d="M168.4,104.2c-0.8-3-1.3-6,0.3-8.9C168.6,98.2,168.5,101.2,168.4,104.2z"/>
	<path class="st40" d="M149.1,17.4c-1.9-0.1-1.9-0.1-1.1-1.9c0.1-0.2-0.7-0.8-1.1-1.2c0.8-0.7,1.6-0.7,2.5,0
		C150,15.4,150.1,16.5,149.1,17.4z"/>
	<path class="st19" d="M76.7,61.4c0.3,1.5,0.5,3.1,0.8,4.6c-0.3,0.5-0.7,1-1.5,2.1c0-2.5,0-4.5,0-6.4C76.2,61.6,76.4,61.5,76.7,61.4
		z"/>
	<path class="st41" d="M149.1,17.4c0-1,0-2.1,0-3.1c0-1.4,0.7-1.2,1.6-0.8l0.2,0c0,1.3,0,2.5,0,3.8
		C150.3,17.9,149.7,17.9,149.1,17.4z"/>
	<path class="st27" d="M35.9,111.7c-1.6-3-1.4-6-0.1-9C35.8,105.7,35.8,108.7,35.9,111.7z"/>
	<path class="st27" d="M122.4,69c-1.7-2.7-0.5-5.6-0.8-8.4C123,63.3,121.9,66.2,122.4,69z"/>
	<path class="st38" d="M82,93c1.2-2.1,2.4-0.3,3.7,0c0.1,0.2,0.1,0.4,0.1,0.7c0.2,0.2,0.3,0.4,0.2,0.6c-0.1,0.2-0.2,0.3-0.2,0.3
		C84.4,94,83.2,93.5,82,93z"/>
	<path class="st30" d="M39.6,80.1c1.4-0.2,2,1,2.9,1.7c-0.8,1.1-2,0.8-3.1,0.7C38.3,81.6,38,80.8,39.6,80.1z"/>
	<path class="st42" d="M120.9,46.7c-0.1-0.3-0.1-0.6-0.2-0.9c0.5-0.8,1-1.6,1.5-2.3c0.5,0.8,1.9,0.6,2.2,1.7c0,0.4,0,0.7,0,1.1
		C123.4,47.6,122.2,47.6,120.9,46.7z"/>
	<path class="st43" d="M114.6,123.8c1.7-0.3,3.6,0.5,4.8-1.4c1.3,1.3,0.6,2-0.7,2.2C117.3,124.8,115.8,125,114.6,123.8z"/>
	<path class="st34" d="M113.2,112.4c-1.4-2.4-0.4-5-0.7-7.5c0.2-0.3,0.4-0.3,0.7,0C113.2,107.4,113.2,109.9,113.2,112.4z"/>
	<path class="st44" d="M124.4,45.2c-1.1-0.1-2.4,0-2.2-1.7c1.4-0.1,2.9-0.6,3.9,0.9C125.6,44.7,125,45,124.4,45.2z"/>
	<path class="st45" d="M91.6,105.7c-3.3,0.6-0.8-2-1.6-2.8c-0.2-0.8,0.1-1.1,0.9-0.9C91.9,103.1,91.8,104.4,91.6,105.7z"/>
	<path class="st37" d="M129.8,49.6c-0.3-0.5-0.6-0.9-0.9-1.4c0.2-0.4,0.5-0.6,0.9-0.8c1.3-0.2,2.5,0,3.6,0.6
		C133,50.4,131.2,49.5,129.8,49.6z"/>
	<path class="st38" d="M122.8,95.1c-0.6-2.5-1.3-5,0.4-7.4C123,90.2,122.9,92.7,122.8,95.1z"/>
	<path class="st8" d="M85.7,94.4c0-0.3,0-0.5,0.1-0.8c1.6,1.4,3.6,2.7,2.3,5.4C87.8,97.2,86.6,95.9,85.7,94.4z"/>
	<path class="st46" d="M84.2,77.2c-0.5-0.8-1-1.5-1.4-2.3c-0.8-0.6-1.3-1.3-0.8-2.4c1.1-0.6,1.7,0.2,2.3,0.9l0-0.1
		C84.2,74.7,84.2,76,84.2,77.2z"/>
	<path class="st37" d="M20.9,82.5c-0.8,0-1.4,0.2-1.8,1c-0.7-0.1-1.9-0.1-1.6-0.9c0.5-1.9,2.2-0.6,3.3-1c0.1,0.2,0.3,0.4,0.3,0.6
		C21.1,82.3,20.9,82.4,20.9,82.5z"/>
	<path class="st47" d="M164,45.8c-0.4,0.2-0.9,0.5-1.4,0.7c-1.5-0.4-2.3-1.4-2.7-2.8c0-0.3,0.1-0.7,0.3-1c0.8-0.4,1.3,0.1,1.6,0.8
		c0.4,1,1.1,1.5,2.2,1.5C164,45.3,164,45.6,164,45.8z"/>
	<path class="st48" d="M150.7,13.5c-0.6,0.1-1.3,0.2-1.6,0.8c-0.7,0-1.5,0-2.2,0C147.7,11.8,149.2,12.8,150.7,13.5z"/>
	<path class="st27" d="M168,112.4c-1.7-1.8-0.7-3.9-0.7-5.9c0-0.1,0.2-0.1,0.3-0.1c0.1,0,0.2,0.1,0.3,0.2
		C167.9,108.5,167.9,110.5,168,112.4z"/>
	<path class="st49" d="M39.6,80.1c-0.5,0.8-0.7,1.5-0.3,2.4c-0.7,0-1.4,0.1-2.1,0.1c0.2-0.8,0.5-1.7,0.7-2.5c0-1.3,0.7-1.1,1.5-0.7
		C39.5,79.7,39.5,79.9,39.6,80.1z"/>
	<path class="st50" d="M133.5,48c-1.2,0-2.4,0-3.6,0c-0.6-0.4-0.6-0.9-0.1-1.4c1.1-0.4,2,0.3,3,0.7C133,47.5,133.2,47.8,133.5,48z"
		/>
	<path class="st31" d="M122.4,110.1c-1.6-1.3-0.7-2.9-0.6-4.4c0,0,0.2-0.1,0.3-0.1c0.1,0,0.2,0.1,0.3,0.2
		C122.4,107.2,122.4,108.7,122.4,110.1z"/>
	<path class="st32" d="M22,42.1c0.6,0.2,1.2,0.4,1.8,0.7c0.6,0.1,1,0.5,1.3,1.1c0.1,1.1,0.6,2.5-1.2,2.6c-0.1-0.3-0.1-0.6-0.2-0.9
		C23.9,44.1,22.3,43.4,22,42.1z"/>
	<path class="st51" d="M91,101.9c-0.3,0.3-0.6,0.6-0.9,0.9c-0.9-0.1-1.8-0.1-2.8-0.1c-0.3-0.1-0.4-0.4-0.4-0.7
		c0.2-0.4,0.5-0.7,1-0.8C88.9,101.5,90.2,100.5,91,101.9z"/>
	<path class="st52" d="M32.5,42.7c-0.6-0.5-1.8-0.4-1.6-1.7c0-0.2,0.4-0.3,0.5-0.4c1-0.1,1.2,0.6,1.3,1.4
		C32.7,42.3,32.7,42.5,32.5,42.7z"/>
	<path class="st53" d="M39.4,79.5c-0.6,0-1.1,0.1-1.5,0.7c-0.3,0-0.5,0-0.8,0c0-1,0.1-1.9,0.1-2.9c0.5,0.3,1,0.6,1.5,0.9
		C39,78.6,39.2,79,39.4,79.5z"/>
	<path class="st18" d="M169.1,94.4c-0.8-1.8-1.1-3.5,0.3-5.2C169.3,91,169.2,92.7,169.1,94.4z"/>
	<path class="st28" d="M69.3,101.2c0-0.8,0-1.5,0-2.3c0.2-0.3,0.5-0.3,0.7,0c0.6,1.2,1.3,2.4,0.2,3.7
		C69.9,102.2,69.6,101.7,69.3,101.2z"/>
	<path class="st54" d="M71,115.5c-0.8,0.7-1.7-0.3-2.5,0.1c-1.5-1.4-0.4-1.6,0.8-1.8c0.3,0.3,0.5,0.6,0.8,0.8
		c0.3-0.3,0.6-0.3,0.9-0.1C71.1,114.9,71.1,115.2,71,115.5z"/>
	<path class="st55" d="M31.1,88.6c0,0.7,0,1.4,0,2.2c-0.5,0-0.9,0-1.4,0c-0.1-0.3-0.2-0.6-0.2-0.8c-0.2-0.7-0.3-1.4,0-2.1
		C30.5,87.3,30.8,87.9,31.1,88.6z"/>
	<path class="st21" d="M155,12.8c0.3,0.2,0.6,0.5,0.9,0.7c0.3,0.4,0.3,0.7,0,1.1c-1,0.6-1.9,0.6-2.8-0.3c0.2-0.5,0.4-0.9,0.5-1.4
		C154.1,12.8,154.5,12.8,155,12.8z"/>
	<path class="st49" d="M23.6,90.7c1.4,1.7,1.3,3.5,0,5.2C23.6,94.2,23.6,92.5,23.6,90.7z"/>
	<path class="st28" d="M69.3,76.5c0-0.3-0.1-0.5-0.1-0.8c0.3-0.9,0.7-1.7,1.5-2.3c0.6,1.2,0,2.1-0.8,3
		C69.8,76.9,69.6,76.8,69.3,76.5z"/>
	<path class="st56" d="M34,37.6c-0.6-0.1-1.1-0.3-1.2-1c-0.1-0.9,0.5-1.2,1.2-1.3C34,36,34,36.8,34,37.6z"/>
	<path class="st52" d="M151.6,34.6c0.8,1.2,0.6,2.5,0,4.3c-0.2-1.2-0.3-1.7-0.4-2.3C151.4,36,151.5,35.3,151.6,34.6z"/>
	<path class="st57" d="M116.3,87c0.5-0.2,1-0.5,1.5-0.7c0,0.8,0,1.5,0,2.3c-0.4,0.3-0.9,0.5-1.4,0.8C116.4,88.6,116.3,87.8,116.3,87
		z"/>
	<path class="st27" d="M84.3,87c-1.4-1.4-1.2-2.9-0.3-4.4C84.2,84,84.3,85.5,84.3,87z"/>
	<path class="st58" d="M71,115.5c-0.1-0.2-0.2-0.4-0.1-0.7c-0.1-0.6,0.1-1.2,0.6-1.6c0.6,0.2,1.1,0.4,1.7,0.7c0,1-0.5,1.5-1.4,1.7
		C71.5,115.5,71.2,115.5,71,115.5z"/>
	<path class="st38" d="M123.6,86.2c-0.6-1.2-1.5-2.5,0.3-3.6C123.8,83.8,123.7,85,123.6,86.2z"/>
	<path class="st59" d="M23.7,120.7c0,0.4,0,0.8,0,1.2c-1.5-0.4-1.8-1.3-1-2.6C23,119.8,23.4,120.3,23.7,120.7z"/>
	<path class="st59" d="M157.5,122c0,0.3-0.1,0.5-0.1,0.8c-0.9-0.2-1.7-0.6-2.2-1.3c-0.2-0.7,0-1,0.7-0.8
		C156.4,121.2,156.9,121.6,157.5,122z"/>
	<path class="st60" d="M167.1,16.1c0.2-1.1-0.5-2.5,0.8-3.4C168.4,14.1,168.4,15.3,167.1,16.1z"/>
	<path class="st38" d="M113.2,104.9c-0.2,0-0.4,0-0.7,0c0.2-1.3-0.6-2.8,0.9-3.7C113.4,102.5,113.3,103.7,113.2,104.9z"/>
	<path class="st8" d="M31.8,94.5c1,0.9,1.6,1.9,0.1,2.9C31.9,96.4,31.8,95.5,31.8,94.5z"/>
	<path class="st29" d="M155.8,120.7c-0.2,0.3-0.5,0.5-0.7,0.8c-1-0.4-1.8-0.9-0.9-2.1C154.8,119.8,155.3,120.3,155.8,120.7z"/>
	<path class="st8" d="M164.7,93.7c1.3,1.2,1.3,2.5,0,3.7C164.7,96.2,164.7,95,164.7,93.7z"/>
	<path class="st8" d="M87.8,101.3c-0.2,0.2-0.4,0.5-0.7,0.7c-0.4-0.1-0.5-0.5-0.8-0.8c0.4-0.8,0.6-1.8,1.6-2.2
		C88,99.8,87.9,100.5,87.8,101.3z"/>
	<path class="st58" d="M119.2,42.7c-0.6-0.4-1.3-0.7-1.1-1.6c0-0.1,0.5-0.3,0.6-0.2c0.2,0.4,0.4,0.8,0.6,1.2
		C119.4,42.3,119.3,42.5,119.2,42.7z"/>
	<path class="st27" d="M35.8,70.5c-1.4-1.1-1.1-2.4-0.3-3.7C35.6,68,35.7,69.3,35.8,70.5z"/>
	<path class="st61" d="M160.3,55.5c-0.3-1.1-1.5-1.7-1.5-3c0.4-1.2-0.3-2.6,0.6-3.8c0.3-0.2,0.6-0.2,0.9,0c0.7,2.5,0.5,5.1,1.6,7.4
		c0.6,1.7-0.5,1.6-1.6,1.5C159.7,57,159.9,56.3,160.3,55.5z"/>
	<path class="st62" d="M160.3,55.5c0.1,0.7,0.1,1.5,0.1,2.2c-1.2,0.5-2.5,1-3.7,1.5C156.7,56.9,159.1,56.8,160.3,55.5z"/>
	<path class="st46" d="M158.9,81.6c2,0,3.9,0.1,5.9,0.1c-1.1,1.3-0.1,3.3-1.5,4.5C164.6,82.1,160.6,82.9,158.9,81.6z"/>
	<path class="st63" d="M75.3,79.5c1.4-0.9,0.1-2.8,1.4-3.7c0.1,0.8,0,1.7,0.8,2.2c0.5,0.3,0.7,0.8,0.8,1.3c0.2,0.7,0.4,1.4,0.6,2.1
		c0.3,1.4,0.3,2.8-0.4,4.1c-0.5,0.7-1.2,1.2-2.1,1.3c-3.5-0.9-4.2-3.1-2-6.7C74.8,80,75,79.7,75.3,79.5z"/>
	<path class="st52" d="M69.3,76.5c0.2,0,0.5,0,0.7,0c0,5.1-0.1,10.1-0.1,15.2c-1.2-0.4-2.6,0.1-3.6-0.9c2.8-0.5,4.5-3.8,2.7-7.4
		C67.5,80.6,68.7,78.8,69.3,76.5z"/>
	<path class="st64" d="M74.5,80.2c-0.7,2.5-2.5,5.3,2.1,6c0.6,1.9-2.1,2.2-2,3.9c-0.3,0.2-0.5,0.4-0.8,0.6c-0.3-0.1-0.6-0.4-0.8-0.7
		c0.4-3.5-0.8-7,0.8-10.4c0-0.1,0.3-0.2,0.3-0.1C74.2,79.7,74.3,80,74.5,80.2z"/>
	<path class="st65" d="M80.5,98.2c2.6,1.9,1.6,3.3-0.7,4.4c-0.6-0.9-1.1-1.9-1.6-2.8C77.6,97.3,78.9,97.5,80.5,98.2z"/>
	<path class="st52" d="M73,90c0.3,0.2,0.5,0.5,0.8,0.7c0,0.3,0,0.5,0,0.8c-1,1.5-0.9,3,0,4.5c0.5,0.9-0.3,1.1-0.8,1.5
		c0,1.2,0,2.4,0,3.6C72,97.4,72.1,92.5,73,90z"/>
	<path class="st66" d="M79.7,103.5c0,1.9-0.6,3.7-1.3,5.5c-0.5,0.4-1,0.5-1.6,0.5c-0.6-0.1-1.1-0.3-1.5-0.8
		C76.8,106.9,77.5,104.6,79.7,103.5z"/>
	<path class="st27" d="M73,97.5c0.3-0.5,0.5-1,0.8-1.5c0.7,0.3,1.5,0.5,2.2,0.8c0.3,0.3,0.8,0.5,1.1,0.9c0.1,0.5,0.1,0.9-0.3,1.3
		C75.5,98.5,74.3,98,73,97.5z"/>
	<path class="st64" d="M70,99c-0.2,0-0.5,0-0.7,0c0-1.9,0.3-3.9-1.5-5.3c0.7,0,1.4-0.1,2.1-0.1C70,95.4,70,97.2,70,99z"/>
	<path class="st67" d="M75.3,108.6c0.4,0.1,0.8,0.3,1.2,0.4c0.1,1.4-1.5,1-2.1,1.8c-0.5,0.3-0.9,0.6-1.4,0.9
		C73.3,110.3,73.6,108.9,75.3,108.6z"/>
	<path class="st68" d="M76.8,99c0-0.5,0-1,0-1.5c1.3-0.5,2.5-0.7,3.7,0.1c0,0.2,0,0.4,0.1,0.6c-1.1,0.1-2.3,0-2.4,1.6
		C77.7,99.5,77.2,99.2,76.8,99z"/>
	<path class="st69" d="M71.4,113.3c0.1,0.7,0.1,1.2-0.6,1.6c-0.3-0.1-0.5-0.1-0.8-0.2c0.1-0.8-0.1-1.6,0.5-2.2
		C70.8,112.8,71.1,113,71.4,113.3z"/>
	<path class="st37" d="M26.6,81.9c0.8,0,1.6,0,2.5,0c0.8,2.1,1.6,4.2-0.9,5.8c-1.6-0.1-3.3,0.1-4.3-1.6c0.8-0.6,1.3-1.2,0.5-2.2
		C24.4,82.5,25.9,82.6,26.6,81.9z"/>
	<path class="st70" d="M26,57.8c0,0.6-0.1,1.2-0.7,1.5c-2-1.5-1.1-3.5-0.8-5.3c0-1.5-0.2-3.1,0.7-4.5c0.2,0,0.4,0,0.7,0
		C27.1,52.3,26.4,55.1,26,57.8z"/>
	<path class="st7" d="M23.8,46.5c1-0.8,0.6-2,0.7-3c0.3-0.2,0.6-0.3,0.9-0.3c0.8,0.2,1.1,0.7,1.2,1.4c-0.8,1.4,1.3,1,1.3,1.9
		c0,0.3,0,0.7-0.1,1c-0.4,1.3-1.5,1.7-2.6,2h0C23.8,49,23.6,47.8,23.8,46.5z"/>
	<path class="st58" d="M24.5,54c0.1,1.8-0.1,3.6,0.8,5.3c0,0.5,0,0.9,0,1.4c-0.3,0.3-0.5,0.5-0.8,0.8c0.2,0.2,0.2,0.3,0.2,0.5
		c-0.1,0.2-0.1,0.2-0.2,0.2c-0.3,0-0.5,0-0.8,0C24.1,59.5,22.9,56.6,24.5,54z"/>
	<path class="st71" d="M24.4,84c0.8,0.1,2,0.1,1.8,1.2c-0.2,1.3-1.4,1.1-2.4,1c0-0.5-0.1-0.9-0.1-1.4C24,84.5,24.2,84.2,24.4,84z"/>
	<path class="st1" d="M24.5,62.3c0-0.2,0-0.5,0-0.7c1.3,3.3,2.7,6.5,0,9.7c-0.2-0.3-0.5-0.5-0.7-0.8c0.9-2.1-0.2-4.4,0.7-6.5
		C24.4,63.4,24.5,62.8,24.5,62.3z"/>
	<path class="st72" d="M159,15.7c0.4,0.1,0.9,0.3,1.3,0.4c2.6,4.8,2.6,10.2,3.6,15.3c0.2,1-0.4,1.9-1.3,2.5
		c-0.5-0.1-0.9-0.4-1.3-0.8c-0.5-0.7-1-1.4-1.1-2.3c-5.5-0.1-5.1-3.9-5-7.7c0.1-1.9-0.1-3.7-0.1-5.6C156,16.1,157.5,15.9,159,15.7z"
		/>
	<path class="st9" d="M160.2,30.8c1.1,0.3,1.6,1.1,1.8,2.2c-0.2,0.2-0.5,0.3-0.8,0.3c-0.5-0.5-0.8-0.2-0.9,0.3
		c-0.4,0.6-0.1,1.1,0.4,1.6c0.5,0.5,0.9,1,0.9,1.7c-0.1,0.7-0.4,1.2-0.9,1.7c-2,0.9-0.9,2.9-1.4,4.3c-0.5,0.9-1,1.9-2.1,2.3
		c-2.6-1.8-1.1-4.7-1.9-7c-0.4-1.1-0.1-2.4,0-3.6c0.3-1.8,1.2-3.1,2.9-3.8C158.8,30.8,159.5,30.8,160.2,30.8z"/>
	<path class="st7" d="M155.9,34.5c-0.1,3.6,0.6,7,1.5,10.5c0.9,0.6,1.4,1.4,1,2.5c-0.3,0.8-0.9,1-1.7,0.5c-2.3-4.6-3.2-9.3-1.6-14.3
		C155.5,33.8,155.6,34.3,155.9,34.5z"/>
	<path class="st73" d="M156.6,48c2.6-0.4,0.3-2,0.7-3c0-1.1,0.5-1.8,1.5-2.3c0.2,0.2,0.4,0.5,0.5,0.8c-0.3,1.8,0.9,3.4,0.3,5.2
		c-0.7,1.2,1.4,2.9-0.8,3.8c-0.6-0.5-1-1.7-2.1-0.7C156.7,50.5,156.7,49.3,156.6,48z"/>
	<path class="st35" d="M159,15.7c-0.7,1.9-2.3,1.8-3.9,1.8c-0.2-0.3-0.5-0.6-0.7-0.9c-0.6-1.4,0.9-1.4,1.4-2.1c0-0.3,0.1-0.6,0.1-1
		c1-0.6,2,0.2,3,0C158.9,14.2,158.9,14.9,159,15.7z"/>
	<path class="st61" d="M155.9,34.5c-0.3-0.3-0.5-0.5-0.8-0.8c-0.3-2.3,0.7-3.3,3-2.9C157.6,32.2,155.8,32.8,155.9,34.5z"/>
	<path class="st74" d="M155.7,14.4c0.6,1.4-1.2,1.3-1.4,2.2c-0.2,0-0.5,0-0.7,0.1c-0.9-0.6-0.8-1.5-0.6-2.4
		C153.9,14.3,154.8,14.4,155.7,14.4z"/>
	<path class="st28" d="M28.2,87.7c1.5-1.8,0.4-3.9,0.9-5.8c1-0.1,1.9-0.2,2.9-0.3c0.3,0.2,0.3,0.4,0.3,0.5c-0.1,0.2-0.2,0.3-0.3,0.3
		c-2.9,0.7-0.4,2.5-0.8,3.8c-1,0-1,1-1.5,1.5c-0.1,0.7-0.1,1.4-0.2,2.2C29.1,89.2,28.6,88.4,28.2,87.7z"/>
	<path class="st31" d="M29.7,87.8c0-0.9-0.4-2.4,1.5-1.5c0,0.8,0,1.6,0,2.4C30.7,88.3,30.2,88,29.7,87.8z"/>
	<path class="st31" d="M32,82.5c0-0.3,0-0.5,0-0.8c1.2-0.2,2.5-0.4,3.7-0.7C34.7,82.1,33.3,82.2,32,82.5z"/>
	<path class="st37" d="M74.4,110.8c0-1.4,1.4-1.1,2.1-1.8c0.6,0,1.3-0.1,1.9-0.1c0.3,0.4,0.5,0.8,0.8,1.2c0.2,1.4,0.8,2.9-1,3.8
		c-0.5,0-1,0-1.5,0c-0.5-0.2-1.6-0.3-1-1C77.7,110.7,75.8,111,74.4,110.8z"/>
	<path class="st75" d="M78.1,114c1-1.1,0.9-2.4,1-3.8c0.4,1,0.8,2,1.3,2.9C80.2,114.9,79.4,114.9,78.1,114z"/>
	<path class="st64" d="M86.4,101.2c0.3,0.3,0.5,0.5,0.8,0.8c0,0.2,0.1,0.5,0.1,0.7c-0.2,1,0.1,2.5-1.8,2.2
		C85.7,103.7,85.7,102.4,86.4,101.2z"/>
	<path class="st49" d="M80.4,97.6c-1.2,0-2.5-0.1-3.7-0.1c-0.3-0.3-0.5-0.5-0.8-0.8C77.5,97,79.2,96,80.4,97.6z"/>
	<path class="st31" d="M160.3,38.2c0.3-0.5,0.5-1,0.8-1.4c0.7-0.2,1.5-0.3,2.2,0c-0.2,1.5,0.6,3.2-0.7,4.5c-0.6,1-1.4,1.3-2.4,1.1
		C158.7,40.9,159.4,39.6,160.3,38.2z"/>
	<path class="st28" d="M163.3,36.8c-0.7,0.5-1.5,0.5-2.2,0c-0.3-0.5-0.5-1-0.8-1.5c0-0.2,0.1-0.3,0.1-0.5c0.2-0.6,0.3-1.3,0.7-1.8
		c0.3,0,0.6,0,0.8,0c0.2,0.3,0.4,0.5,0.6,0.8C163.1,34.8,163.5,35.7,163.3,36.8z"/>
	<path class="st38" d="M160.3,42c0.8-0.3,1.5-0.5,2.3-0.8c-0.3,0.7-0.5,1.5-0.7,2.2c-0.5-0.3-1-0.5-1.5-0.7
		c-0.2-0.2-0.2-0.3-0.2-0.5C160.2,42.1,160.3,42,160.3,42z"/>
	<path class="st76" d="M121.6,59.3c-1.3,0-2.6,0-3.8,0c-0.4-1.1-0.6-2.2-1.1-3.2c-0.2-0.9,0.2-1.7,0.8-2.4c0.5-0.5,1.1-0.8,1.7-1.1
		c1.6-0.1,2.2-1.7,3.3-2.5c1.6,0.5,1.7,1.7,1.3,3C124.3,55.6,123.2,57.5,121.6,59.3z"/>
	<path class="st77" d="M123.8,53.1c-0.4-0.9-0.8-1.8-1.1-2.8c-0.8-0.2-0.8-0.8-0.8-1.5c0.5-1.3,1.2-2.1,2.7-1.2
		c3.1,2.3,2.8,5,1.3,8.3C125,54.8,124.4,54,123.8,53.1z"/>
	<path class="st78" d="M124.5,47.7c-0.8,0.4-1.5,0.8-2.3,1.1c-0.8,0.4-1.1-0.1-1.3-0.7c0-0.5-0.1-0.9-0.1-1.4
		c1.2-0.1,2.4-0.3,3.6-0.4C124.5,46.8,124.5,47.2,124.5,47.7z"/>
	<path class="st79" d="M129.8,46.6c0,0.5,0.1,0.9,0.1,1.4c-0.3,0.1-0.6,0.1-0.9,0.2c-1.3-1.3-0.4-1.8,0.7-2.2
		C129.7,46.2,129.7,46.4,129.8,46.6z"/>
	<path class="st15" d="M27.5,47.3c0-0.2,0-0.5,0-0.7c0.5-1-0.4-2.2,0.7-3c0.5,0.8,1,1.5,1.5,2.3c0.2,0.1,0.5,0.2,0.6,0.4
		c0.5,1,1,1.1,1.6,0.4c0.5,1.3,0.5,2.7,1.6,3.7c-0.8,3.6-1.2,3.7-6,1.3C26.3,50.2,26.9,48.7,27.5,47.3z"/>
	<path class="st73" d="M27.5,47.3c0,1.5,0,2.9,0,4.3c-0.9,2,0.2,4.4-1.5,6.2c-0.4-2.8,0.8-5.7-0.8-8.3C26,48.8,26.7,48,27.5,47.3z"
		/>
	<path class="st37" d="M111,47.3c0.2-1.4,1.2-1.5,2.3-1.5c0.5,0,1,0.1,1.4,0.3c0.6,0.4,1.1,0.8,1.3,1.5c0.1,1.3-0.3,2.4-0.9,3.5
		c-1.1,1.4-2.2,0.6-3.3-0.1c-0.5-0.4-1-0.8-1.5-1.3C110.8,49,111.6,48.3,111,47.3z"/>
	<path class="st80" d="M111.8,51.1c1,0,2,0.7,3-0.1c1.3-0.2,1.5,0.8,1.8,1.7c-0.2,1.4,0.1,3-1.6,3.8c-1.8-0.7-1.3-2.8-2.4-4
		C112.4,52,112.1,51.5,111.8,51.1z"/>
	<path class="st81" d="M112.7,52.5c2,0.5,1.6,2.5,2.3,3.8c0.6,1.1,0.2,1.8-0.7,2.4c-1.9,0.1-0.8-1.8-1.6-2.5
		C112.6,55,112.6,53.7,112.7,52.5z"/>
	<path class="st31" d="M112.6,56.2c0.5,0.8,1,1.5,1.5,2.3c0.7,1.6,0.4,2.7-1.5,3l0,0C112.6,59.7,112.6,58,112.6,56.2z"/>
	<path class="st82" d="M111,47.3c0.8,0.3,1.9,0.3,1.5,1.6c-0.3,1.2-1.4,0.7-2.2,1c0-0.8,0-1.6,0-2.4C110.6,47.4,110.8,47.3,111,47.3
		z"/>
	<path class="st38" d="M159.6,48.8c-0.5-1.7-1.9-3.3-0.7-5.3c0.5-0.4,1-0.5,1.4,0c0.8,1,1.6,2,2.4,3c0.2,0.9,1.8,1.6,1.1,2.5
		c-1,1.1-2.3,0.1-3.4-0.3l-0.4,0L159.6,48.8z"/>
	<path class="st61" d="M30.6,33.1c0.1,2.5,1,5.4-2.3,6.7c-0.4,0.3-0.5,0.8-0.5,1.3c0,0.5-0.3,1.1-0.8,0.9c-0.7-0.2-0.7-0.9-0.3-1.5
		C26.8,37.4,26.1,33.9,30.6,33.1z"/>
	<path class="st61" d="M26.7,40.5c0.1,0.3,0.9,0,1.6-0.7c0,1-0.1,2-0.1,3c-1,0.5-0.4,2.6-2.2,2.3c0-0.6-0.1-1.2-0.8-1.5
		c-0.6-0.9-1.5-1.7-0.7-3c-0.3-0.3-0.5-0.5-0.7-0.8c-0.5-0.5-0.5-1.2,0.1-1.5c0.6-0.3,1,0.2,1.4,0.7C25.5,39.8,26,40.3,26.7,40.5z"
		/>
	<path class="st19" d="M25.2,39c-0.8-0.4-1.5-0.6-1.5,0.8c-0.9-0.9-1.2-2.1,0-2.6C24.8,36.8,25.1,38.1,25.2,39z"/>
	<path class="st32" d="M24.5,40.5c0.3,1,0.5,2,0.7,3c-0.3,0-0.5,0-0.7,0c-0.3-0.3-0.5-0.5-0.8-0.8C23.8,42,23.6,41.1,24.5,40.5z"/>
	<path class="st19" d="M79,72.8c0.9-0.5,0.7-1.4,0.7-2.2c0.5,0.3,1,0.5,1.5,0.7c0.4,1.1,0.3,2.3,0.5,3.5c-0.1,0.5-0.4,0.9-0.8,1.3
		c-0.4,0.4-0.8,0.6-1.4,0.7c-0.3,0-0.7-0.1-0.9-0.3C78.2,76,78,75.6,78,75C78.3,74.2,78.2,73.3,79,72.8z"/>
	<path class="st8" d="M81.2,74.9c-0.1-1.2-0.9-2.5,0-3.7c0.3-0.3,0.5-0.5,0.8-0.8c0,0.3,0,0.6,0.1,0.8c0.4,0.4,0.4,0.8,0,1.3
		c0.2,0.8,0.5,1.6,0.7,2.4c0,0.3,0,0.5,0,0.8c-0.3,0.3-0.6,0.4-0.9,0.4C81.2,75.9,80.8,75.6,81.2,74.9z"/>
	<path class="st19" d="M77.5,66c0.3,0,0.5,0,0.7,0c1,0.8,1.4,1.8,1.5,3C77.9,68.8,77.7,67.4,77.5,66z"/>
	<path class="st1" d="M67.8,93.7c-1.5,0.7-3,1.4-4.7,1.5C64.4,93.9,65.9,93,67.8,93.7z"/>
	<path class="st83" d="M74.5,90.1c-1.2-2.3,1.5-2.5,2-3.9c0.5-0.2,1.1-0.4,1.6-0.6c0.5,0.8,1.2,1.4,2.2,1.2c1.3,1.2,1.3,2.8,0.5,4
		c-0.7,1-2-0.2-3.1-0.3C76.7,90.6,75.6,90.3,74.5,90.1z"/>
	<path class="st67" d="M80.4,86.8c-1.9,1.7-2.3,0.7-2.2-1.2c0-1.5-0.1-3.1-0.1-4.6c1.1-0.6,2.1-0.7,2.9,0.5c0.3,1.2,0.2,2.3-0.6,3.2
		C79.3,85.4,80.2,86.1,80.4,86.8z"/>
	<path class="st20" d="M82,75.8c0.2,0,0.5,0,0.7,0c-0.3,2.3,0.7,4.7-0.7,6.8c-1.1-1-0.9-2.4-1.2-3.7C80.8,77.7,81.1,76.6,82,75.8z"
		/>
	<path class="st84" d="M80.4,84.7c0-1.2,0-2.5,0-3.7c-0.2-0.3-0.3-0.6-0.3-1c0.1-0.4,0.3-0.6,0.6-0.8c0.4,0,0.7,0.2,0.8,0.5
		c0.3,1.2-0.3,2.4,0.4,3.5C81.7,84,81.2,84.5,80.4,84.7z"/>
	<path class="st5" d="M81.9,83.2c-1.2-1.1-0.5-2.5-0.7-3.7C81,79.3,81,79.1,81,79s0.2-0.2,0.2-0.2c1.2,1.1,0.5,2.5,0.7,3.8
		C82,82.8,82,83,81.9,83.2z"/>
	<path class="st61" d="M112.6,35.3c1-0.8,2-1.5,3-2.3c1,1.5,0.9,3.2,0.8,4.8c0,1.8-0.9,3.5-0.9,5.4c-0.1,0.4-0.2,0.8-0.5,1.1
		c-0.4,0.2-0.8,0.3-1.2,0.2c-1-0.6-1.2-1.6-1.5-2.6C112,39.8,112,37.5,112.6,35.3z"/>
	<path class="st19" d="M115.6,38.3c0-1.8,0-3.5,0-5.3c0.5,0,1,0,1.5,0c-0.3,1.6,0.5,3,0.8,4.5c-0.3,0.3-0.5,0.5-0.8,0.8
		C116.6,38.7,116.1,38.7,115.6,38.3z"/>
	<path class="st21" d="M111.8,43.5c-1.3,0.9-2-0.3-2.9-0.8c-0.2-1.2-0.5-2.4-0.6-3.6c-0.1-1.1,0.1-1.8,1.3-0.8
		c0.8,0.7,0.8,1.8,1.3,2.6C111.1,41.8,112.3,42.4,111.8,43.5z"/>
	<path class="st85" d="M112.6,35.3c-0.1,2.3,0,4.5,0.7,6.7c-1.9,0.9-2.1-0.5-2.4-1.7c0.1-0.2,0.1-0.3,0.2-0.5
		C112.7,38.7,111,36.4,112.6,35.3z"/>
	<path class="st19" d="M110.3,41.3c-1.1-0.8-0.6-2-0.8-3c1,0,1.5,0.5,1.5,1.5l0,0C110.7,40.2,110.9,41,110.3,41.3z"/>
	<path class="st28" d="M31.9,46.6c-0.4,0.5-0.8,1-1.2,1.5c-0.3-0.8-0.7-1.5-1-2.3c0-0.7,0-1.4,0-2.6c0.9,0.8,1.5,1.3,2.2,1.9
		C31.9,45.6,31.9,46.1,31.9,46.6z"/>
	<path class="st32" d="M26,45c1-0.5,0.6-2.4,2.2-2.3c0,0.3,0,0.5,0,0.8c-0.2,1,0.3,2.2-0.7,3C27.2,45.8,25.6,46.4,26,45z"/>
	<path class="st86" d="M24.4,64c-0.2,2.2,1,4.5-0.7,6.5C24,68.3,23,66,24.4,64z"/>
	<path class="st67" d="M79,72.8c0,0.8,0.1,1.7-0.8,2.3c-0.2,0.4-0.5,0.3-0.7,0c0-0.2-0.1-0.4-0.1-0.7c0.3-0.9-0.6-2.2,0.9-2.7
		C78.4,71.6,78.8,72.4,79,72.8z"/>
	<path class="st0" d="M82,72.6c0-0.4,0-0.8,0-1.3c1.1,0.4,2.3,0.7,2.2,2.2C83.5,73.2,82.8,72.9,82,72.6z"/>
	<path class="st25" d="M114.8,44.3c0-0.2,0.1-0.5,0.1-0.7c0.4-0.5,0.9-0.5,1.4,0c0,0.8-0.1,1.7,0.8,2.3c1.1,1.2,0,2.5,0,3.7
		c0.4,0.4,0.5,0.9,0.4,1.5c-0.2,0.7-0.5,1.3-1.2,1.7c-0.5-0.5-0.9-1.1-1.4-1.6c-0.4-1.4,0.7-2.4,0.7-3.7
		C115.1,46.3,113.8,45.6,114.8,44.3z"/>
	<path class="st87" d="M116.3,43.5c-0.5,0-0.9,0-1.4,0c-0.4-1.8,0.2-3.5,0.7-5.3c0.5,0,1,0,1.5,0C116.8,40,116.6,41.8,116.3,43.5z"
		/>
	<path class="st0" d="M165.5,15c-0.5-0.1-1.1,0-1.1-0.7c0-0.2,0.5-0.5,0.8-0.5c0.3,0,0.7,0.2,0.8,0.5
		C166.3,14.8,165.8,14.8,165.5,15z"/>
	<path class="st85" d="M77.5,75c0.2,0,0.5,0,0.7,0c0.3,0.5,0.5,1,0.8,1.5c0,1.2,0.5,2.7-1.4,3c0-0.5-0.1-0.9-0.1-1.4
		C77.5,77,77.5,76,77.5,75z"/>
	<path class="st2" d="M116.2,52.6c0.3-0.5,0.5-1.1,0.7-1.6c0.3,0.2,0.5,0.4,0.7,0.7c0.3,0.8,0.6,1.5,0.2,2.3
		c-0.2,0.7-0.5,1.5-0.7,2.2c0.6,1,0.7,2-0.1,3c-1.1,1.8-1.1,4-1.5,6c-5.9,2.7-1.6-2.8-3-3.7c1-0.8,1.4-1.8,1.5-3
		c0.3-0.8,0.6-1.5,0.8-2.3C115.3,55,115.8,53.8,116.2,52.6z"/>
	<path class="st37" d="M121,48.1c0.4,0.2,0.9,0.5,1.3,0.7c0.1,0.5,0.3,1,0.4,1.6c-0.3,1.9-1,3.3-3.3,2.8c-0.7-0.2-1.2-0.7-1.3-1.5
		c-0.1-1,0.6-1.6,1.1-2.3C118.5,47.3,120.2,48.3,121,48.1z"/>
	<path class="st88" d="M119.2,49.4c0.4,1-0.2,1.7-0.8,2.3c-0.5,0.4-0.9,0.5-1.3-0.2c0-0.2,0-0.4-0.1-0.6c0-0.5,0.1-1,0.1-1.5
		C117.8,49.5,118.5,49.5,119.2,49.4z"/>
	<path class="st19" d="M117,59.3c0-1,0.1-2,0.1-3c1.5,0.8,1.5,1.8,0.6,3C117.5,59.3,117.3,59.3,117,59.3z"/>
	<path class="st61" d="M110.3,41.3c0-0.6,0.2-1.2,0.8-1.5c0.5,1,0.8,2.2,2.2,2.2c0,0.8-0.1,1.7,0.7,2.3c0.5,0.7,0.6,1.4,0,2.2
		c-0.3-0.2-0.5-0.4-0.8-0.6c-0.5-0.8-1-1.5-1.5-2.3C111.4,42.8,110.2,42.4,110.3,41.3z"/>
	<path class="st87" d="M160.3,43.5c-0.5,0-1,0-1.4,0c0-0.3,0-0.5,0-0.8c-0.2-1.7-1.9-4,1.5-4.5c0,1.3,0,2.5,0,3.8c0,0.3,0,0.5,0,0.7
		C160.3,43,160.3,43.3,160.3,43.5z"/>
	<path class="st19" d="M77.6,79.5c1.1-0.7,0.2-2.3,1.4-3l0,0c1.3,0.9,0.4,2.7,1.4,3.8c0,0.3,0,0.5,0,0.8c-0.8,0.6-1.5,0.3-2.3,0
		C77.5,80.6,77.5,80.1,77.6,79.5z"/>
	<path class="st64" d="M160.3,35.3c-0.5,0.1-1.2,0.6-1.4-0.3c-0.2-1,0.1-1.9,1.4-2C160.9,33.7,161,34.5,160.3,35.3L160.3,35.3z"/>
	<path class="st8" d="M160.4,35.3c0-0.8-0.1-1.5-0.1-2.3c0.3-0.5,0.5-0.5,0.8,0C161.4,33.9,162.4,35.1,160.4,35.3z"/>
	<path class="st34" d="M117.1,51.6c0.4,0,0.9,0.1,1.3,0.2c0.3,0.5,0.6,0.9,0.9,1.4c-0.5,0.3-1,0.6-1.5,0.9
		C117.6,53.2,117.3,52.4,117.1,51.6z"/>
	<path class="st19" d="M114.1,46.4c0-0.7,0-1.4,0-2.2c0.3,0,0.5,0,0.7,0c0.3,1,0.5,2,0.8,3C115.1,47,114.6,46.7,114.1,46.4z"/>
	<path class="st73" d="M80.4,80.2c-2.3-0.5-1.1-2.4-1.4-3.8c0.5-0.3,1-0.5,1.5-0.8c1.1,1.3,0.5,2.5,0.1,3.8
		C80.5,79.8,80.5,80,80.4,80.2z"/>
	<path class="st31" d="M80.5,79.5c0-1.3,0-2.5-0.1-3.8c0.3-0.3,0.5-0.5,0.7-0.8c0.3,0.3,0.5,0.5,0.8,0.8c-0.2,1-0.5,2-0.7,3
		c0,0.2-0.1,0.5-0.1,0.7C81,79.5,80.7,79.5,80.5,79.5z"/>
</g>
</svg>
