<?xml version="1.0" encoding="utf-8"?>
<!-- Generator: Adobe Illustrator 24.2.1, SVG Export Plug-In . SVG Version: 6.00 Build 0)  -->
<svg version="1.1" id="Calque_1" xmlns="http://www.w3.org/2000/svg" xmlns:xlink="http://www.w3.org/1999/xlink" x="0px" y="0px"
	 viewBox="0 0 204 138" style="enable-background:new 0 0 204 138;" xml:space="preserve">
<style type="text/css">
	.st0{fill:#FEFEFE;}
	.st1{fill:#FFDEC8;}
	.st2{fill:#FFDDC7;}
	.st3{fill:#FFDDC6;}
	.st4{fill:#40916C;}
	.st5{fill:#FFDCC5;}
	.st6{fill:#519B79;}
	.st7{fill:#539C7B;}
	.st8{fill:#4B9875;}
	.st9{fill:#469470;}
	.st10{fill:#77C7A2;}
	.st11{fill:#79C7A3;}
	.st12{fill:#FFDAC2;}
	.st13{fill:#FFC9A5;}
	.st14{fill:#FFC7A1;}
	.st15{fill:#FFD6BA;}
	.st16{fill:#FFDBC3;}
	.st17{fill:#FFC6A0;}
	.st18{fill:#FFC7A2;}
	.st19{fill:#60A485;}
	.st20{fill:#FFD4B7;}
	.st21{fill:#FFCBA7;}
	.st22{fill:#FFD5B9;}
	.st23{fill:#5FA384;}
	.st24{fill:#FFC59E;}
	.st25{fill:#FFE1CD;}
	.st26{fill:#FFDAC1;}
	.st27{fill:#FFDCC4;}
	.st28{fill:#FCFAF9;}
	.st29{fill:#FFCFAF;}
	.st30{fill:#FFD9C0;}
	.st31{fill:#FFCCA9;}
	.st32{fill:#FFD4B8;}
	.st33{fill:#FFE5D3;}
	.st34{fill:#FFD0B0;}
	.st35{fill:#FFD1B1;}
	.st36{fill:#FFCEAD;}
	.st37{fill:#FFD3B6;}
	.st38{fill:#FFC9A4;}
	.st39{fill:#FFD2B5;}
	.st40{fill:#FFF4ED;}
	.st41{fill:#FFCFAE;}
	.st42{fill:#FFCCAA;}
	.st43{fill:#FFF2EA;}
	.st44{fill:#FFD2B4;}
	.st45{fill:#FFD1B3;}
	.st46{fill:#FFCAA6;}
	.st47{fill:#FFEBDE;}
	.st48{fill:#FFEBDD;}
	.st49{fill:#FFE0CB;}
	.st50{fill:#FFCBA8;}
	.st51{fill:#FFE7D7;}
	.st52{fill:#FFD9BF;}
	.st53{fill:#42926D;}
	.st54{fill:#FFCEAC;}
	.st55{fill:#FFC299;}
	.st56{fill:#FFCDAB;}
	.st57{fill:#76C6A1;}
	.st58{fill:#FEFDFD;}
	.st59{fill:#6AC198;}
	.st60{fill:#6BC299;}
	.st61{fill:#7CC9A5;}
	.st62{fill:#FFD7BD;}
	.st63{fill:#FEFDFC;}
	.st64{fill:#7FCAA7;}
	.st65{fill:#65BF95;}
	.st66{fill:#70C39C;}
	.st67{fill:#67C096;}
	.st68{fill:#85CCAB;}
	.st69{fill:#FFC8A3;}
	.st70{fill:#FFD6BB;}
	.st71{fill:#FFD8BE;}
	.st72{fill:#68C097;}
	.st73{fill:#6DC29A;}
</style>
<g>
	<path class="st0" d="M102.37,10.06c28.23,0,56.46,0.03,84.69-0.06c2.24-0.01,2.69,0.45,2.69,2.67c-0.09,38.72-0.09,77.44,0,116.16
		c0,2.22-0.45,2.67-2.69,2.67c-56.46-0.08-112.92-0.08-169.38,0c-2.23,0-2.69-0.45-2.69-2.67c0.09-38.72,0.09-77.44,0-116.16
		c0-2.22,0.45-2.68,2.69-2.67C45.92,10.1,74.15,10.06,102.37,10.06z"/>
	<path class="st1" d="M91.7,89.78c0.41-0.77,0.82-1.54,1.23-2.3c0.69-1.36,0.93-2.66-0.58-3.68c-0.55-1.91-1.1-3.83-1.65-5.74
		c-0.38-1.33-0.35-2.79-1.32-3.92c-0.28-1.08-0.57-2.15-0.85-3.23c2.31-2.56,4.93-2.32,7.7-0.86c1.05,0.83,1.38,1.97,1.49,3.23
		c0.08,2.38,0.75,4.65,1.26,6.95c0.31,1.38,0.27,2.78,0.29,4.18c-0.02,1.17,0.03,2.35-0.24,3.5c-0.87,1.81-1.63,3.67-2.32,5.57
		c-0.51,1.15-0.96,2.32-1.16,3.58c-0.05,1.72-0.57,3.37-0.8,5.06c-0.45,1.76-0.42,3.7-1.91,5.08c-1.59,0.4-2.27-0.02-2.15-1.82
		c0.22-3.45,0.03-6.91,0.1-10.37C90.92,93.24,91.61,91.56,91.7,89.78z"/>
	<path class="st1" d="M55.58,97.94c0.04-0.5,0.07-1.01,0.11-1.51c1.04-1.14,2.4-2.26,0.34-3.69c-1.39-0.12-2.4,0.97-3.71,1.11
		c-1.08,0.32-1.81,1.32-2.96,1.5c-1.85,0.53-3.7,0.99-5.39-0.42c-1.13-2.74-0.99-5.24,1.45-7.28c2.25-1.28,4.72-1.18,7.19-1.15
		c3.26,0.34,6.58,0.3,9.63,1.77c0.1,0.18,0.13,0.37,0.09,0.56c0.59,1.19,0.25,2.45,0.28,3.68c-0.83,1.49-0.44,3.24-1.03,4.79
		c0.04,0.25-0.01,0.47-0.16,0.68c-0.71,1.18-1.35,2.38-1.21,3.82c0.01,0.23-0.06,0.43-0.21,0.6c-0.86,1.91-1.83,3.79-1.44,5.99
		c0.03,0.44,0.06,0.89,0.08,1.33c-0.48,2.13-1.16,3.84-3.63,1.64c-0.26-1.05,0.27-2.05,0.18-3.09
		C55.76,104.84,55.52,101.39,55.58,97.94z"/>
	<path class="st2" d="M166.95,92.04c-0.62,0.02-1.24,0.04-1.86,0.06c-1.91-0.31-3.49,1.11-5.36,0.98c-1.82,0.27-3.8,0.98-4.52-1.68
		c-0.22-1.88,0.38-3.43,1.88-4.61c3.29-1.52,6.75-0.81,10.11-0.51c1.42,0.13,2.88,0.37,4.33,0.51c0.14,0.16,0.21,0.35,0.2,0.56
		c0.93,2,0.59,4.17,0.86,6.26c-0.3,2.18-0.6,4.36-0.9,6.53c-1.01,0.86-0.33,2.1-0.69,3.1c0.06,0.23,0.04,0.44-0.09,0.64
		c-1.13,1.93-1.24,4.03-0.98,6.18c-1.06,1.54-2.12,3.09-3.14-0.03c0.19-1.02,0.44-2.03,0.49-3.07c0.67-3.49-0.14-7.02,0.3-10.51
		C167.24,95.02,169.42,93.2,166.95,92.04z"/>
	<path class="st2" d="M51.2,95.84c-0.92,4.95-3.9,8.94-6.2,13.25c-1.7,1.38-3.39,0.37-5.08-0.03c-2.43-2.58-5.05-4.85-8.78-5.31
		c-1.9-0.63-5.19-0.2-3.01-3.92c1.42-0.6,2.6,0.43,3.91,0.58c1.51,0.57,3.14,0.74,4.65,1.33c0.78,0.33,1.55,0.68,2.34,0.98
		c1.01-0.43,1.85,2.37,2.95,0.15c-0.13-1.98,0.2-3.89,0.94-5.74c2.04-2.13,4.84-1.55,7.35-2.03C50.66,95.24,50.98,95.48,51.2,95.84z
		"/>
	<path class="st2" d="M149.32,99.5c-0.31,0.97-0.62,1.94-0.93,2.91c-1.01,1.08-0.95,2.54-1.39,3.82c-0.91,1.91-1.2,4.26-3.61,5.14
		c-1.15,1.17-2.74,0.15-4,0.77c-1.22-0.51-2.43-1.03-3.65-1.54c-0.89-1.38-2.32-1.87-3.8-2.27c-0.49-0.28-0.99-0.57-1.48-0.85
		c-0.86-1.37-2.33-1.29-3.67-1.53c-1.31-0.58-3.15-0.72-2.46-2.94c1.55-1.16,2.85-0.06,4.21,0.46c0.82,0.31,1.72,0.4,2.53,0.78
		c2.15,0.3,4.09,1.34,6.2,1.79c0.24,0.22,0.48,0.43,0.71,0.65c1.17,1.13,2.29,1.99,2.92-0.44c0.72-1.52,0.25-3.17,0.57-4.73
		c0.55-1.66,0.53-3.41,0.81-5.11C146.82,95.19,149.01,96.15,149.32,99.5z"/>
	<path class="st2" d="M83.19,58.61c-2.61-1.85-3.96-4.59-5.23-7.38c-1.76-2.31-1.11-4.3,0.82-6.12c3.05-2.21,6.68-3.65,9.07-6.73
		c1.73-0.44,3.26-1.88,5.25-1.03c0.62,0.41,1.02,0.96,1.1,1.71c-0.09,0.83-0.45,1.68,0.25,2.44c0.12,4.16-0.29,4.66-3.96,4.83
		c-0.53-0.22-0.83-0.62-0.94-1.17c-0.39-0.21,0.84-1.37-0.59-0.98c-0.41,0.4-0.74,0.86-1.16,1.24c-0.5,0.38-1.05,0.67-1.62,0.91
		c-1.17,0.44-2.4,0.74-3.38,1.58c-1.48,1.55-0.04,2.94,0.23,4.39c0.28,0.97,0.91,1.74,1.43,2.58c0.22,0.5,0.3,1.03,0.27,1.58
		C84.6,57.46,84.24,58.28,83.19,58.61z"/>
	<path class="st3" d="M104.17,76.3c-0.77,2.22-0.08,4.77-1.54,6.84c-0.54,1.22-0.12,2.52-0.29,3.77c-0.64,1.14-0.59,2.48-1.05,3.67
		c-1.26,2.95-2.52,5.89-3.78,8.84c-1.28,0.8-1.78,0.02-2.15-1.03c-0.05-0.38-0.07-0.76-0.07-1.15c0.02-1.34,0.63-2.52,1.06-3.75
		c0.63-1.87,1.56-3.6,2.42-5.37c0.37-1.78,0.39-3.56-0.09-5.33c-0.13-1.1,0.14-2.23-0.28-3.3c-0.42-2.06-0.87-4.12-1.25-6.19
		c0.01-1.21-0.17-2.47,0.87-3.42c1.47-1.17,3.07-1.39,4.79-0.6C104.94,71.28,103.13,74.06,104.17,76.3z"/>
	<path class="st4" d="M157.33,87.45c-0.97,1.07-1.38,2.36-1.42,3.78c-0.8,0.88,0.35,2.07-0.48,2.94c-1.84,0.72-4.1,0.5-5.37,2.44
		c-1.98,0.34-3.93,0.42-5.78-0.55c-1.5-0.42-2.52-1.17-2.03-2.95c0.54-2.04,1.09-4.09,1.63-6.13c0.16-0.35,0.41-0.59,0.77-0.73
		c1.31-0.31,2.48,0.27,3.69,0.58c1.64,0.69,3.24,0.41,4.82-0.24c0.83-0.29,1.52-0.87,2.38-1.12c0.78-0.16,1.51-0.1,2.12,0.46
		C157.91,86.53,157.91,87.05,157.33,87.45z"/>
	<path class="st4" d="M102.78,69.72c-1.61-0.17-3.17-0.02-4.6,0.81c-0.7,0.38-1.41,0.33-2.12,0.05c-2.56-1.03-5.05-0.63-7.53,0.33
		c-1.13-2.66-0.85-5.43-0.62-8.19c1.76-2.2,3.9,0.39,5.76-0.46c2.17,0.42,4.35,0.58,6.55,0.33c1.22-0.14,2.48-0.48,3.11,1.06
		c0.15,1.35,0.29,2.7,0.44,4.05C103.7,68.5,104.42,69.68,102.78,69.72z"/>
	<path class="st2" d="M26.34,76.32c-1.2-1.88,0.34-2.84,1.32-4.03c2.46-2.94,6.14-4.6,8.3-7.85c1.34-1.05,2.63-2.22,4.53-2.07
		c1.04,0.28,1.61,1.06,2.04,1.97c0.22,0.55,0.34,1.12,0.4,1.71c0.07,1.17,0.09,2.33-0.05,3.5c-0.1,0.59-0.31,1.14-0.69,1.6
		c-0.62,0.56-1.36,0.71-2.16,0.6c-0.54-0.12-1-0.39-1.34-0.82c-0.5-0.65-0.73-1.8-1.99-1.07c-0.26,0.17-0.53,0.31-0.8,0.47
		c-1.18,0.6-1.9,1.63-2.57,2.7c-1.22,1.36-1.21,2.73-0.17,4.2c0.69,0.97,1.27,2.03,1.25,3.28c-0.09,1.02-0.6,1.72-1.56,2.1
		c-0.69-0.63-1.37-1.26-2.06-1.89C29.55,79.02,28.07,77.55,26.34,76.32z"/>
	<path class="st2" d="M135.91,81.51c-1.55-1.48-3.11-2.96-4.66-4.45c-1.42-1.77-0.07-3.13,0.68-4.57c2.29-3.14,6.13-4.71,8.23-8.05
		c2.12-1.96,4.26-3.26,6.49-0.13c0.27,0.55,0.42,1.14,0.49,1.75c0.07,1.21,0.11,2.41-0.08,3.61c-0.3,1.27-0.99,2.08-2.42,1.97
		c-1.56-0.07-1.9-3.29-4.15-1.58c-1.57,0.82-2.77,2-3.56,3.58c-0.79,1.35-0.3,2.49,0.57,3.59c0.81,1.03,1.58,2.1,1.82,3.43
		c0.06,0.52-0.02,1.01-0.28,1.47C137.74,83.17,137.03,81.36,135.91,81.51z"/>
	<path class="st5" d="M156.79,75.01c1.06,1.33,0.73,2.85,0.59,4.34c-1.38,1.92-0.25,4.72-2.28,6.42c-1.16,1.04-2.49,1.24-3.95,0.77
		c-1.24-1.39-1.13-3.78-3.34-4.45c-0.43-0.26-0.78-0.61-1.05-1.03c-0.13-0.3-0.21-0.62-0.24-0.95c0.11-1.27-0.53-2.58,0.19-3.83
		c0.44-0.53,1.02-0.85,1.63-1.12c0.47-0.18,0.95-0.28,1.45-0.34c0.32-0.04,0.65-0.06,0.97-0.08c0.81-0.02,1.59-0.2,2.36-0.44
		c1-0.25,1.99-0.33,2.98,0.01C156.42,74.45,156.65,74.69,156.79,75.01z"/>
	<path class="st6" d="M167.15,109.9c0.04,0.59-0.04,1.31,0.82,1.34c0.87,0.03,1.22-0.65,1.53-1.33c0.28-0.51,0.75-0.46,1.22-0.4
		c1.95,1.5,3.27,3.76,5.77,4.6c0.74,0.25,1.37,0.75,1.08,1.65c-0.29,0.92-1.18,0.84-1.88,0.77c-3.08-0.29-6.17-0.6-9.24-1
		c-1.15-0.15-1.78-0.95-1.43-2.13c0.38-1.29,0.9-2.54,1.36-3.8C166.74,109.42,166.99,109.54,167.15,109.9z"/>
	<path class="st7" d="M28.42,100.1c-0.96,1.21-1.05,2.19,0.81,2.39c0.93,0.1,1.6,0.36,1.9,1.27c-1.55,1.87-1.16,3.79,0.17,5.74
		c-2.28,0.59-4.85,0.94-5.48-1.14c-0.82-2.68-2.27-5.66-1.29-8.43c0.73-2.06,3.21-1.09,5-0.94C29.37,99.57,28.95,99.88,28.42,100.1z
		"/>
	<path class="st8" d="M124.55,103.16c0.04,2.04,2.04,1.42,3.02,2.17c0.33,0.4,0.36,0.81,0.06,1.23c-0.31,0.65-0.89,1.3-0.88,1.95
		c0.02,1.44,1.59,3.43-1.77,3.08c-2.31-0.24-4.28-0.39-3.87-3.5c0.12-0.95-0.04-1.97-0.23-2.92c-0.79-3.87-0.37-4.32,3.81-3.89
		C125.03,101.94,125.1,102.57,124.55,103.16z"/>
	<path class="st9" d="M89.17,107.44c-0.02-0.25,0.01-0.49,0.11-0.73c0.87,1.57,2.18,0.43,3.29,0.52c1.34-0.17,0.41-2.58,2.25-2.25
		c0.62,0.11,0.83,0.6,1.04,1.1c-0.56,3.29,2.54,6.32,0.7,9.7c-4.75,0.81-4.94,0.7-6.4-3.88C89.71,110.44,88.25,109.2,89.17,107.44z"
		/>
	<path class="st10" d="M150.71,75.52c-0.23,0.02-0.45,0.03-0.68,0.05c-0.97-0.85-1.02-2-1.05-3.16c0.2-1.45-0.55-2.75-0.7-4.15
		c0.2-0.3,0.47-0.52,0.79-0.67c0.85-0.27,1.73-0.24,2.49,0.14c2.03,1.01,3.19,0.16,3.98-1.67c0.24-0.27,0.55-0.39,0.91-0.4
		c0.87,0.27,0.64,1.12,0.9,1.7c0.18,0.69,0.16,1.57,0.58,2.03c2.29,2.47,1,4.1-1.16,5.6c0,0-0.14-0.29-0.14-0.29
		c-1.39-0.93-2.8-0.53-4.21-0.04C151.82,74.86,151.18,75.01,150.71,75.52z"/>
	<path class="st11" d="M53.42,67.51c0.7,2.49,2.85,5.01-0.2,7.4c-0.28,0.2-0.59,0.28-0.93,0.22c-2.04-1.09-3.74-0.03-5.46,0.88
		c-0.59,0.04-1.09-0.13-1.46-0.62c-0.5-0.88-0.58-1.85-0.59-2.83c0.03-1.33-0.09-2.68,0.44-3.96c0.6-1.07,1.57-1.04,2.48-0.63
		c2.17,0.98,3.04-0.33,3.78-1.97c0.27-0.25,0.59-0.34,0.96-0.3C53.18,66.09,53.28,66.81,53.42,67.51z"/>
	<path class="st9" d="M45.84,88.24c-1.99,1.91-1.76,4.29-1.47,6.69c0.14,1.11-0.29,1.62-1.45,1.36c-2.72-2.37-3.92-5.25-3.02-8.85
		c1.62-2.66,3.93-2.77,6.54-1.75C47.38,86.81,46.78,87.57,45.84,88.24z"/>
	<path class="st12" d="M100.51,19.94c1.43,0.69,2.75,1.51,3.73,2.78c0.41,0.8,0.01,1.56-0.08,2.34c-0.48,0.89-0.15,1.86-0.23,2.79
		c-0.51,1.23-0.44,2.6-0.95,3.83c-0.25,0.26-0.55,0.46-0.9,0.58c-2.71,0.48-3.68-1.22-4.3-3.37c-0.11-0.53-0.1-1.05,0.06-1.56
		c0.76-1.08,1.08-2.3,1.19-3.6c0.18-0.91,0.82-1.66,0.91-2.6C100,20.66,100.11,20.23,100.51,19.94z"/>
	<path class="st13" d="M100.51,19.94c0,0.43-0.01,0.86-0.01,1.29c-0.51,0.67-1.2,1.12-1.93,1.51c-1.34,0.61-2.51,1.45-3.52,2.51
		c-0.99,0.85-1.78,1.84-2.2,3.1c-0.16,0.32-0.37,0.6-0.63,0.85c-0.67,0.42-1.33,0.75-1.92-0.11c-0.49-1.17-0.17-2.27,0.27-3.36
		C92.85,22.02,95.2,18.47,100.51,19.94z"/>
	<path class="st8" d="M55.44,111.48c2.46,1.91,1.92-1.55,3.19-1.76c2.59,0.55,2.99,3.63,5.29,4.51c-0.43,0.82-1.16,1.23-2.03,1.45
		c-2.71-0.19-5.43-0.27-7.96-1.44c-0.02-1.34-0.13-2.68,0.47-3.95C55.04,110.44,55.24,110.96,55.44,111.48z"/>
	<path class="st14" d="M93.02,62.97c-1.81,2.04-3.34-1.71-5.12-0.25c-0.15-0.15-0.23-0.32-0.25-0.52c-0.22-1.09,0.74-1.23,1.33-1.67
		c0.21-0.18,0.41-0.37,0.58-0.59c0.24-0.55,0.07-1.1,0-1.65c-0.02-0.32,0.02-0.63,0.11-0.93c0.25-0.47,0.65-0.73,1.16-0.84
		c0.34-0.03,0.68-0.02,1.01,0.04c3.95,1.43,4.49,2.75,2.2,5.37C93.68,62.25,93.34,62.6,93.02,62.97z"/>
	<path class="st15" d="M92.96,107.33c-1.33,0.4-2.81,1.75-3.67-0.61c1.53-2.53,0.64-5.29,0.79-7.95c0.1-1.81-0.53-3.71,0.61-5.4
		c0.45,0.1,0.52,0.56,0.8,0.82c-0.02,3.67,0.12,7.36-0.12,11.02c-0.1,1.47,0.3,1.72,1.52,1.59c0.27,0.08,0.37,0.19,0.3,0.32
		C93.11,107.26,93.04,107.33,92.96,107.33z"/>
	<path class="st16" d="M32.86,82.61c0.33-0.92,0.67-1.83,1-2.75c1.45-0.13,2.07,0.97,2.86,1.84c0.77,1.1,1.77,1.24,2.93,0.66
		c0.66-0.28,1.32-0.49,2.05-0.3c0.69,0.27,1.39,0.5,2.1,0.74c0.83,0.28,1.06,1.01,0.9,1.79c-0.13,0.68-0.65,1.05-1.34,1.01
		c-1.28-0.06-2.37,0.7-3.61,0.75c-1.26-0.35-2.61-0.33-3.77-1.04L36,85.35c-0.65-0.85-0.86-2.21-2.39-2.06
		C33.36,83.06,33.11,82.84,32.86,82.61z"/>
	<path class="st13" d="M41.27,48.72c0.43-0.91,1.16-1.4,2.17-1.5c1.3-0.51,2.56-0.32,3.84-0.07c0.1,1.86-1.84,2.48-1.9,4.01
		c-0.16,0.75-0.35,1.48-0.78,2.13c-0.73,0.76-1.58,1.15-2.66,0.85c-0.67-0.51-1.05-1.19-1.26-1.98
		C40.56,50.97,40.77,49.82,41.27,48.72z"/>
	<path class="st16" d="M138.72,82.29c0.02-0.56,0.04-1.13,0.06-1.69c1.15-0.17,1.83,0.67,2.66,1.19c1.3,1.1,2.79,0.57,4.23,0.5
		c0.55,0.01,1.08,0.1,1.61,0.27c0.85,0.4,2.11,0.65,1.88,1.82c-0.2,0.97-1.39,1.22-2.31,1.53c-0.59,0.14-1.19,0.1-1.8,0.11
		c-1.22-0.01-2.47,0.11-3.54-0.66c-1.4,0.26-1.76-1.25-2.78-1.62C138.32,83.25,138.25,82.77,138.72,82.29z"/>
	<path class="st17" d="M39.82,86.04c0.33-0.16,0.68-0.31,1-0.5c1.03-0.62,2.95,0.44,3.25-1.1c0.35-1.76-2.29-0.16-2.57-1.7
		c-0.04-0.22-0.26-0.42-0.39-0.62c0.09-0.64,0.51-0.98,1.07-1.21c1.11-0.33,2.23-0.33,3.35-0.03c1.53,0.56,1.36,2.01,1.69,3.2
		c0.02,0.77-0.07,1.49-0.79,1.96c-2.26,0.09-4.58-0.06-6.54,1.4c-0.14-0.16-0.22-0.35-0.25-0.56
		C39.38,86.54,39.46,86.26,39.82,86.04z"/>
	<path class="st5" d="M145.41,59.92c0.32-1.53-1.06-2.4-1.44-3.66c-0.05-1.74,0.41-3.47,0.06-5.21c0.28-1.76,0.79-3.34,2.84-3.79
		c0.09,0.15,0.18,0.3,0.27,0.45c-0.81,2.34-0.82,4.69-0.04,7.04c0.08,1.28,0.67,2.5,0.43,3.81
		C147.14,59.5,146.69,60.35,145.41,59.92z"/>
	<path class="st18" d="M51.27,48.68c2.78,3.59,2.21,7.1-0.24,10.57c-0.14-0.09-0.27-0.19-0.41-0.28c-0.45-0.51-0.75-1.09-0.79-1.77
		c0.32-1.42,0.74-2.83,0.31-4.31c-0.01-1.42-0.83-2.86,0.09-4.26C50.59,48.41,50.93,48.43,51.27,48.68z"/>
	<path class="st19" d="M53.94,114.24c2.78,0.28,5.55,0.55,8.33,0.83c0.81,0,1.61,0,2.27-0.57c1.07,0.6,1.06,1.67,0.08,1.88
		c-3.67,0.76-7.25-0.14-10.76-1.18C53.79,115.17,53.91,114.57,53.94,114.24z"/>
	<path class="st14" d="M104.42,54.91c-1.83,2.33,1.21,5.08-0.63,7.41c-1.02,0.35-1.66-0.21-2.23-0.93
		c-0.68-2.99-1.55-6.03,1.55-8.32C104.13,53.27,104.66,53.82,104.42,54.91z"/>
	<path class="st20" d="M145.41,59.92c0.79-0.19,1.26-0.72,1.56-1.43c0.85-0.4,1.23,0.15,1.58,0.77c-0.77,1.72-0.59,3.88-2.34,5.17
		c-2.03-2.5-4.04-0.54-6.06,0.02c-0.03-2,1.33-2.3,2.9-2.35c1.34-0.14,2.13-0.87,2.37-2.19L145.41,59.92z"/>
	<path class="st13" d="M155.18,85.34c0.37-2.13-0.11-4.56,2.19-5.99c0.07,1.4,1.75,2.15,1.52,3.67c-0.78,0.53-0.45,1.02,0.06,1.5
		l-0.01,0.02c0.26,0.24,0.33,0.53,0.22,0.86c-0.42,0.53-0.88,0.97-1.64,0.61c-0.77,0.02-1.54,0.04-2.31,0.06
		c-0.23-0.15-0.31-0.31-0.25-0.47C155.05,85.42,155.11,85.34,155.18,85.34z"/>
	<path class="st21" d="M53.3,80.79c0.61,0.31,0.8,0.86,0.88,1.47c-0.51,0.97,0.15,1.99-0.15,2.97l0,0.03
		c-0.34,0.79-0.33,1.86-1.61,1.84c-0.76,0.02-1.48-0.05-1.91-0.8c-1.15-2.31-0.15-4.26,1.03-6.19
		C52.44,79.52,52.84,80.22,53.3,80.79z"/>
	<path class="st22" d="M157.54,86.01c0.44-0.27,0.88-0.54,1.32-0.8c3,1.09,6.2-0.13,9.22,0.76c1.19,0.12,2.54-0.47,3.44,0.83
		c-1.66,1.29-3.32,0.07-4.98,0.05c-3.07-0.03-6.22-0.67-9.21,0.61C157.4,86.97,157.47,86.49,157.54,86.01z"/>
	<path class="st15" d="M52.55,86.78c0.49-0.5,0.98-1.01,1.47-1.51c1.19,1.57,3.05,0.45,4.48,1.11c1.27,0.58,3.08,0.08,3.73,1.89
		c-3.26,0-6.41-1.18-9.7-0.78c-0.24-0.17-0.32-0.33-0.23-0.48C52.38,86.86,52.47,86.78,52.55,86.78z"/>
	<path class="st12" d="M104.42,54.91c-0.31-0.55-0.61-1.1-0.92-1.64c-0.43-0.38-0.59-0.86-0.57-1.42c0.08-0.73,0.44-1.33,0.9-1.89
		c0.74-0.73,1.46-1.53,2.67-1.36c0.66,0.4,0.75,1.09,0.88,1.76C106.91,52.21,106.27,53.95,104.42,54.91z"/>
	<path class="st16" d="M83.19,58.61c0.32-0.88,0.64-1.77,0.96-2.65c0.95-0.03,1.46,0.62,2.01,1.23c0.34,0.34,0.72,0.64,1.15,0.88
		c1.16,0.64,3.57,0,2.74,2.65l-0.01,0c-1.32,0.41-2.64,0.77-3.97,0.04C84.99,60.2,83.79,59.8,83.19,58.61z"/>
	<path class="st23" d="M89.17,107.44c0.11,2.32,1.47,4.27,2.03,6.48c0.64,2.53,3.34,1.81,5.36,1.85c-3.72,1.73-5.62,1.06-6.42-2.55
		C89.72,111.33,87.4,109.7,89.17,107.44z"/>
	<path class="st24" d="M101.99,61.42c0.6,0.3,1.2,0.6,1.8,0.9c-0.15,0.44-0.31,0.88-0.46,1.32c-3.42-0.49-6.96,0.88-10.31-0.67
		c-0.01-0.5-0.01-1-0.02-1.5C96,61.96,99,61.26,101.99,61.42z"/>
	<path class="st25" d="M155.14,48.17c2.95,2.79,3.19,4.96,0.99,8.97c-0.75-0.4-0.91-1.13-1.07-1.85c-0.22-1.39-0.52-2.78-0.26-4.2
		C155.03,50.13,154.37,49.06,155.14,48.17z"/>
	<path class="st26" d="M107.31,39.94c0.01,1.66,0.01,3.33,0.02,4.99c-0.15,0.13-0.29,0.26-0.44,0.39c-2.51-0.14-2.52-2.02-2.71-3.79
		c0.07-1.02,0.4-1.92,1.24-2.57c0.35-0.2,0.72-0.28,1.12-0.24C107.13,38.92,107.58,39.21,107.31,39.94z"/>
	<path class="st20" d="M146.87,47.26c2.3-1.11,4.61-1.38,6.91,0c-0.43,0.89-1.34,1.33-1.97,2.02c-1.18,0.82-1.64,2.51-3.34,2.68
		c-0.5-0.21-0.84-0.56-1-1.08c-0.33-1.15,2.46-2.55-0.29-3.51L146.87,47.26z"/>
	<path class="st27" d="M41.3,52.48c0.57,0.34,0.72,0.89,0.75,1.5c0.71,0.6,0.41,1.41,0.44,2.15c0.08,1.15,0.84,1.88,1.63,2.6
		c0.23,0.26,0.35,0.56,0.36,0.91c-0.36,0.92-1.1,1.34-2.01,1.55c-0.57,0.04-1.08-0.08-1.44-0.57c0.71-1.75-0.63-2.97-1.14-4.41
		c0.6-0.69,0-1.52,0.25-2.26C40.39,53.36,40.68,52.78,41.3,52.48z"/>
	<path class="st21" d="M167.96,95.69c-0.02,3.96-0.03,7.92-0.05,11.88c-1.47,0.07-1.04-0.79-0.78-1.56
		c-0.39-3.45-0.46-6.89,0.22-10.31C167.55,95.48,167.75,95.47,167.96,95.69z"/>
	<path class="st20" d="M44.3,51c-0.08-1.69,1.6-2.23,2.44-3.58c-1.22-0.07-2.26-0.13-3.3-0.2c2.26-1.08,4.51-1.12,6.73,0.11
		c-0.48,0.88-1.32,1.37-2.08,1.96C46.79,49.8,46.04,51.49,44.3,51z"/>
	<path class="st28" d="M90.58,25.72c0.08,1.22,0.15,2.45,0.23,3.67c0.68,0.62,0.98,1.42,1.17,2.29c0.08,0.54,0,1.05-0.33,1.51
		c-1.41,0.41-1.81-0.71-2.4-1.56C89.61,29.65,88.3,27.28,90.58,25.72z"/>
	<path class="st29" d="M142.24,93.12c0.02,1.21,0.96,1.82,1.7,2.57c-0.33,0.53-1.11,0.26-1.44,0.79c-0.29,1.72,0.66,3.63-0.8,5.17
		c-0.18,0.35-0.37,0.35-0.55,0.01C141.51,98.81,141.88,95.97,142.24,93.12z"/>
	<path class="st30" d="M41.03,60.61c0.59,0.03,1.18,0.06,1.77,0.09c2.17,1.72,1.95,2.97-0.75,3.72c-0.5-0.5-1-1-1.49-1.49
		c-0.4-0.55-1.27-0.18-1.63-0.81C39.62,61.62,40.32,61.11,41.03,60.61z"/>
	<path class="st31" d="M42.92,96.3c0.71-0.21,1.16-0.71,1.45-1.36c1.76,0.01,3.55,0.23,5.19-0.66c0.42,0.36,1.13,0.56,0.71,1.36
		c-2.45,0.51-4.91,1.01-7.36,1.52C42.91,96.87,42.92,96.58,42.92,96.3z"/>
	<path class="st32" d="M142.5,96.48c0.27-0.64,0.83-0.76,1.44-0.79c1.97,0.73,4.03,0.97,6.12,0.94c0.04,1.03,0.12,2.07-0.73,2.88
		C148.15,96.04,144.89,97.21,142.5,96.48z"/>
	<path class="st30" d="M51.03,59.25c-0.36,1.76,1.65,1.82,2.15,2.97c-0.64,0.97,1.85,2.55-0.62,3.16c-1.58-0.7-1.69-2.88-3.47-3.39
		c-0.3-0.22-0.51-0.5-0.65-0.84c-0.03-1.72,1-2.26,2.54-2.24L51.03,59.25z"/>
	<path class="st33" d="M103.66,33.31c0.44,0.36,0.88,0.72,1.32,1.07c0.25,0.32,0.31,0.68,0.19,1.06c-0.49,0.65-1.16,1-1.95,1.15
		c-2.02-0.12-2.75-1.23-2.46-3.14c0.3-0.83,0.97-1.15,1.77-1.29C103.14,32.32,103.49,32.72,103.66,33.31z"/>
	<path class="st34" d="M55.58,97.94c1.24,3.48,1.04,6.95-0.05,10.41c-0.21,0.34-0.41,0.33-0.62,0c0.02-0.53,0.04-1.05,0.07-1.58
		c0.55-2.46-0.2-5,0.43-7.46C55.47,98.86,55.52,98.4,55.58,97.94z"/>
	<path class="st22" d="M53.3,80.79c-0.49-0.24-0.98-0.48-1.48-0.72c-1.22-1.19-1.01-2.61-0.64-4.05c0.26-0.62,0.69-1.02,1.37-1.14
		c0.22,0,0.44,0.01,0.66,0.02C53.25,76.87,53.27,78.83,53.3,80.79z"/>
	<path class="st35" d="M172.59,93.61c-1.68-1.9-0.57-4.17-0.86-6.26C173.64,89.22,173.23,91.4,172.59,93.61z"/>
	<path class="st36" d="M155.43,94.18c0.06-1-0.45-2.09,0.48-2.95c0.79,2.68,3.03,1,4.55,1.49c0.25,0.17,0.34,0.33,0.26,0.5
		c-0.08,0.17-0.17,0.25-0.25,0.25C158.79,93.71,157.11,93.94,155.43,94.18z"/>
	<path class="st32" d="M124.55,103.16c0.04-0.63,0.08-1.26,0.13-1.88c2.21,0.86,4.41,1.72,6.61,2.58c-0.77,0.53-1.54,0.53-2.31,0.02
		C127.5,103.67,126.12,102.85,124.55,103.16z"/>
	<path class="st22" d="M168.08,85.97c-3.07-0.32-6.27,0.94-9.22-0.76c0.02-0.23,0.05-0.45,0.09-0.67
		C161.84,86,165.21,84.43,168.08,85.97z"/>
	<path class="st32" d="M107.37,50.36c-0.7-0.34-0.86-0.98-0.91-1.67c-1.11-1.44-0.79-2.6,0.7-3.53c0,0,0.16-0.23,0.16-0.23
		C108.23,46.73,108.44,48.54,107.37,50.36z"/>
	<path class="st37" d="M78.78,45.12c-0.95,1.95-1.9,3.9-0.82,6.12C75.08,48.25,75.17,47.6,78.78,45.12z"/>
	<path class="st13" d="M102.78,69.72c0.81-0.45,0.82-1.28,0.99-2.03c0.86,2.84,0.45,5.73,0.4,8.61
		C102.58,74.34,104.33,71.69,102.78,69.72z"/>
	<path class="st38" d="M151.46,48.78c0.44-1,1.24-1.47,2.32-1.52c0.45,0.3,0.9,0.61,1.36,0.91c0.26,0.92,0.51,1.85,0.77,2.77
		c-1.43,0.46-2.26-1.03-3.53-1.07C151.89,49.65,151.57,49.3,151.46,48.78z"/>
	<path class="st39" d="M56.28,91.98c0.54-0.12,1.35-0.64,1.43,0.31c0.14,1.7,0.17,3.49-2.02,4.13c0.2-0.99,0.39-1.97,0.59-2.96
		C55.84,92.97,55.84,92.48,56.28,91.98z"/>
	<path class="st30" d="M95.99,97.91c0.04,0.96,0.52,1.48,1.51,1.5c-0.52,1-1.04,2.01-1.57,3.01c-0.28,0.44-0.47,1-1.17,0.88
		c-0.79-0.5-0.65-1.2-0.42-1.91C95.45,100.49,93.84,98.32,95.99,97.91z"/>
	<path class="st32" d="M93,37.62c-1.83-0.53-3.24,1.8-5.15,0.76c0.45-1.98,2.6-1.3,3.66-2.33c0.14,0.01,0.29,0.02,0.44,0.03
		c0.57,0.2,1.05,0.5,1.22,1.13C93.11,37.35,93.05,37.49,93,37.62z"/>
	<path class="st39" d="M157.36,67.37c-0.23-0.48-0.46-0.97-0.69-1.45c-0.38-0.48-0.66-1-0.73-1.62c0.11-0.97-0.02-2.12,1.49-2.12
		C158.67,63.93,158.46,65.66,157.36,67.37z"/>
	<path class="st32" d="M137.28,106.06c-2.25,0.5-4.13-0.55-6.06-1.42c0.61-0.65,1.44-0.22,2.14-0.43
		C134.92,104.3,136.17,105.03,137.28,106.06z"/>
	<path class="st20" d="M39.91,109.07c1.7-0.66,3.39,0.4,5.08,0.03C43.29,111.66,41.6,110.68,39.91,109.07z"/>
	<path class="st40" d="M103.51,24.92c0.24-0.73,0.49-1.47,0.73-2.2c0.92,0.51,1.14,1.45,1.44,2.33c-1.09,1.01,0.89,3.22-1.47,3.74
		C103.5,27.58,104.09,26.15,103.51,24.92z"/>
	<path class="st41" d="M52.56,65.18c1.45-0.73-0.72-2.21,0.62-2.96c1.22,1.71,1.11,3.49,0.24,5.29c-0.64-0.34-0.84-0.92-0.91-1.58
		c-0.18-0.18-0.23-0.35-0.16-0.51C52.42,65.26,52.49,65.18,52.56,65.18z"/>
	<path class="st42" d="M155.97,54.72c0.05,0.81,0.1,1.61,0.15,2.42c-0.14,0.53-0.18,1.12-0.83,1.34c-0.39,0.19-0.74,0.15-1.08-0.12
		C153,56.29,152.73,54.67,155.97,54.72z"/>
	<path class="st43" d="M89.25,31.64c0.73,0.51,1.47,1.01,2.2,1.52c0.42-0.27,0.79-0.22,1.11,0.16c0.52,1.31,0.74,2.51-1.02,3.07
		c0,0-0.03-0.32-0.03-0.32C91.9,34.01,88.62,33.81,89.25,31.64z"/>
	<path class="st44" d="M167.96,95.69c-0.2,0-0.4,0.01-0.61,0c-0.13-1.22-0.27-2.44-0.4-3.66C169.09,92.14,169.25,92.7,167.96,95.69z
		"/>
	<path class="st20" d="M28.42,100.1c0.37-0.37,0.74-0.73,1.11-1.1c1.41,0.45,2.81,0.9,4.21,1.36c-0.08,1.19-0.72,0.99-1.44,0.56
		C31.01,100.64,29.71,100.37,28.42,100.1z"/>
	<path class="st45" d="M58.55,108.39c-1.15-2.38-0.3-4.29,1.44-5.99C59.51,104.39,59.03,106.39,58.55,108.39z"/>
	<path class="st44" d="M26.34,76.32c2.29,0.67,3.77,2.14,4.46,4.41C28.84,79.73,27.37,78.25,26.34,76.32z"/>
	<path class="st46" d="M144.03,51.05c1.08,1.75,1.14,3.49-0.06,5.21C142.94,54.51,143.34,52.78,144.03,51.05z"/>
	<path class="st32" d="M32.3,100.91c0.48-0.19,0.96-0.37,1.44-0.56c1.41,0.06,2.75,0.38,3.9,1.25c-0.08,0.47-0.53,0.55-0.84,0.79
		C35.3,101.89,33.6,102.01,32.3,100.91z"/>
	<path class="st46" d="M154.52,58.47c0.26,0,0.52,0.01,0.77,0.01c-0.12,0.51-0.23,1.01-0.35,1.52c-0.07,0.48,0.1,0.93,0.18,1.39
		c0.03,0.49-0.05,0.97-0.24,1.43c-0.17,0.3-0.39,0.54-0.66,0.74c-2.01,0.62-1.82-0.72-1.77-1.95c0.37-1.09,0.57-2.27,1.59-3.01
		C154.2,58.56,154.36,58.52,154.52,58.47z"/>
	<path class="st22" d="M131.93,72.49c-0.23,1.52-0.46,3.05-0.69,4.57C128.39,75.08,130.1,73.77,131.93,72.49z"/>
	<path class="st44" d="M160.46,93.48c0-0.25,0-0.5,0-0.76c1.53-0.32,2.87-2.01,4.63-0.61C163.66,92.93,162.19,93.63,160.46,93.48z"
		/>
	<path class="st47" d="M108.83,34.67c1.04,0.78,0.91,1.51-0.08,2.21c-0.32,0.69-0.81,1.14-1.64,1.09c-0.83-0.23-1.09-0.82-1.01-1.61
		c0.14-0.53,0.44-0.96,0.84-1.33C107.52,34.67,108.09,34.2,108.83,34.67z"/>
	<path class="st48" d="M108.83,34.67c-0.54,0.24-1.07,0.48-1.61,0.71c-0.79,0.49-1.54,0.69-2.19-0.21
		c-0.02-0.26-0.04-0.52-0.05-0.79C106.3,33.99,107.66,33.12,108.83,34.67z"/>
	<path class="st42" d="M170.71,109.51c-0.41,0.13-0.82,0.27-1.22,0.4c0.03-2.11-0.48-4.35,1.43-6.02
		C171.07,105.77,169.61,107.59,170.71,109.51z"/>
	<path class="st49" d="M107.19,37.67c0.52-0.27,1.04-0.53,1.56-0.8c1.62,1.99,0.27,2.61-1.44,3.06c-0.25-0.28-0.51-0.56-0.76-0.84
		C106.02,38.29,106.62,37.99,107.19,37.67z"/>
	<path class="st30" d="M154.56,61.45c0.13-0.48,0.26-0.96,0.39-1.44c0.61,0.97,2.19,0.85,2.49,2.18c-0.87,0.57-0.69,1.48-0.75,2.31
		C154.62,64.41,155.49,62.31,154.56,61.45z"/>
	<path class="st1" d="M55.41,99.32c0.02,2.5,0.69,5.03-0.43,7.46C55.04,104.28,54.48,101.76,55.41,99.32z"/>
	<path class="st38" d="M40.6,53.96c-0.09,0.8,0.07,1.67-0.72,2.24c-0.92-1.71-0.41-3.41,0.04-5.11
		C41.67,51.69,40.82,52.9,40.6,53.96z"/>
	<path class="st50" d="M141.15,101.66c0.18,0,0.37,0,0.55-0.01c-0.2,1.75,0.66,3.63-0.72,5.22c-0.22,0.36-0.43,0.37-0.62-0.03
		C140.62,105.11,140.88,103.39,141.15,101.66z"/>
	<path class="st20" d="M38.92,62.12c0.63,0.09,1.28,0.15,1.63,0.81c-1.84-0.43-2.89,1.49-4.58,1.52
		C36.01,62.49,37.56,62.43,38.92,62.12z"/>
	<path class="st51" d="M104.43,28.59c1.15-0.93-0.11-2.69,1.25-3.54c0.21,2.14,0.27,4.24-1.34,5.98c-0.33-0.24-0.54-0.56-0.62-0.95
		C103.7,29.45,103.84,28.92,104.43,28.59z"/>
	<path class="st30" d="M141.51,85.34c1.34-0.01,2.68-0.02,4.02-0.04c0.21,0.18,0.29,0.41,0.2,0.68c-0.25,0.32-0.65,0.43-0.96,0.67
		c-0.3,0.11-0.6,0.22-0.91,0.33C142.83,86.8,141.74,86.68,141.51,85.34z"/>
	<path class="st37" d="M139.4,112.15c1.12-1.35,2.64-0.64,4-0.77C142.51,113.91,140.85,112.5,139.4,112.15z"/>
	<path class="st32" d="M39.82,86.04c-0.06,0.28-0.11,0.57-0.17,0.85c-1.42-0.07-2.99,0.22-3.67-1.57
		C37.34,85.14,38.63,85.31,39.82,86.04z"/>
	<path class="st22" d="M54.02,85.24c-0.47-1.02-2.24-2.1,0.15-2.97C55.06,83.31,55.19,84.31,54.02,85.24z"/>
	<path class="st32" d="M56.28,91.98c0,0.5,0,0.99,0,1.49c-1.25,0.23-2.5,0.47-3.75,0.7c-0.25-0.16-0.33-0.32-0.25-0.47
		c0.09-0.15,0.17-0.23,0.26-0.23C53.77,92.93,54.85,92.03,56.28,91.98z"/>
	<path class="st36" d="M91.49,94.19c-0.27-0.27-0.53-0.55-0.8-0.82c-0.02-1.29-0.03-2.58,1.01-3.59
		C93.03,91.32,91.04,92.7,91.49,94.19z"/>
	<path class="st44" d="M61.57,97.3c0.15-1.54-0.63-3.22,0.69-4.58c0.22-0.36,0.46-0.36,0.69-0.01C62.69,94.3,62.65,95.95,61.57,97.3
		z"/>
	<path class="st15" d="M131.96,108.34c2.13-0.67,3.12,0.54,3.8,2.27C134.41,109.98,132.87,109.68,131.96,108.34z"/>
	<path class="st2" d="M40.6,53.96c-0.19-0.97,0.29-2.09-0.68-2.87c0.16-0.95,0.52-1.79,1.34-2.37c0.01,1.25,0.02,2.51,0.03,3.76
		C41.28,53.07,41.19,53.63,40.6,53.96z"/>
	<path class="st44" d="M60.2,101.79c-0.89-1.68-0.15-2.84,1.21-3.82C61.36,99.36,61,100.65,60.2,101.79z"/>
	<path class="st22" d="M138.72,82.29c0,0.48,0.01,0.95,0.01,1.43c-1.25-0.35-2.15-1.14-2.83-2.22
		C137.19,80.55,137.78,82.02,138.72,82.29z"/>
	<path class="st5" d="M158.96,84.51c-1.02-0.07-2.21-0.32-1.87-1.56c0.29-1.03,1.18-0.04,1.81,0.06
		C158.92,83.51,158.94,84.01,158.96,84.51z"/>
	<path class="st52" d="M86.07,60.76c1.32-0.01,2.64-0.03,3.97-0.04c-0.79,0.49-1.59,0.98-2.38,1.47
		C86.71,62.17,86.22,61.65,86.07,60.76z"/>
	<path class="st32" d="M127.63,106.57c-0.02-0.41-0.04-0.82-0.06-1.23c1.28,0.31,2.64,0.5,2.91,2.15
		C129.53,107.19,128.58,106.88,127.63,106.57z"/>
	<path class="st15" d="M167.13,106.01c0.26,0.52,0.52,1.04,0.78,1.56c-0.25,0.78-0.51,1.55-0.76,2.33c-0.26-0.1-0.52-0.2-0.77-0.3
		C166.52,108.38,166.31,107.09,167.13,106.01z"/>
	<path class="st31" d="M92.35,83.8c2.13,0.93,1.84,2.23,0.58,3.68C93.15,86.19,92.93,84.97,92.35,83.8z"/>
	<path class="st13" d="M48.01,48.77c0.42-0.92,1.11-1.45,2.15-1.44c0.63,0.24,0.97,0.71,1.1,1.35c-0.32,0.03-0.65,0.06-0.97,0.1
		c-0.38,0.41-0.85,0.58-1.41,0.53C48.54,49.22,48.25,49.04,48.01,48.77z"/>
	<path class="st31" d="M52.54,93.47c0,0.23-0.01,0.47-0.01,0.7c-0.44,0.55-0.89,1.11-1.33,1.67c-0.31-0.07-0.62-0.14-0.92-0.2
		c-0.24-0.45-0.48-0.91-0.72-1.36C50.55,94,51.55,93.74,52.54,93.47z"/>
	<path class="st39" d="M140.36,106.84c0.21,0.01,0.41,0.01,0.62,0.03c-1.14,2.56-2.08,1.48-2.99-0.17
		C138.81,106.39,139.5,107.95,140.36,106.84z"/>
	<path class="st20" d="M133.37,104.21c-0.71,0.14-1.43,0.28-2.14,0.43c-0.83-0.02-1.71,0.11-2.25-0.75
		c0.77-0.01,1.54-0.01,2.31-0.02C131.98,103.98,132.67,104.1,133.37,104.21z"/>
	<path class="st15" d="M171,103.25c-0.73-1.24-1-2.39,0.69-3.1C171.8,101.26,171.88,102.36,171,103.25z"/>
	<path class="st39" d="M33.61,83.28c2.04-0.73,2.18,0.7,2.39,2.06C35.21,84.66,34.41,83.97,33.61,83.28z"/>
	<path class="st39" d="M41.97,102.89c-0.74,2.77-1.95,0.11-2.92,0.25c-0.19-0.18-0.25-0.36-0.19-0.53c0.06-0.18,0.13-0.26,0.19-0.26
		C40.03,102.52,41,102.7,41.97,102.89z"/>
	<path class="st53" d="M64.54,114.5c-0.41,1.54-1.22,1.55-2.27,0.57c0.36-0.66,1.02-0.73,1.67-0.83
		C64.19,114.2,64.39,114.29,64.54,114.5z"/>
	<path class="st20" d="M147.01,106.24c-0.05-1.46-0.34-3,1.39-3.82C148.35,103.84,147.97,105.15,147.01,106.24z"/>
	<path class="st32" d="M101.28,90.58c-0.13-1.33-0.04-2.62,0.71-3.79c0.21-0.35,0.43-0.36,0.68-0.04
		C102.66,88.18,102.26,89.48,101.28,90.58z"/>
	<path class="st39" d="M89.38,74.14c1.72,0.88,1.39,2.44,1.32,3.92C89.8,76.9,89.42,75.58,89.38,74.14z"/>
	<path class="st30" d="M104.21,30.14c0.05,0.3,0.1,0.59,0.14,0.89c-0.13,0.79,0.08,1.68-0.69,2.28c-0.3-0.3-0.61-0.61-0.91-0.91
		c-0.26-0.17-0.35-0.33-0.26-0.49c0.09-0.16,0.17-0.24,0.26-0.24l0,0c0.52-0.43,0.24-1.17,0.65-1.64
		C103.7,29.86,103.97,29.91,104.21,30.14z"/>
	<path class="st5" d="M145.43,59.91c0.25,1.84-0.63,2.47-2.37,2.19C144.03,61.56,144.87,60.89,145.43,59.91z"/>
	<path class="st46" d="M62.96,92.71c-0.23,0.01-0.46,0.02-0.69,0.01c0.02-1.3,0.03-2.59,0.05-3.89C63.8,89.91,63,91.37,62.96,92.71z
		"/>
	<path class="st32" d="M39.06,102.34c0,0.27-0.01,0.53-0.01,0.8c-0.75-0.25-1.5-0.5-2.25-0.75c0.28-0.26,0.56-0.53,0.84-0.79
		C38.24,101.6,38.78,101.73,39.06,102.34z"/>
	<path class="st46" d="M95.25,103.11c0.23-0.23,0.46-0.46,0.69-0.69c-0.02,1.22-0.05,2.44-0.07,3.65c-0.22-0.2-0.44-0.41-0.67-0.61
		C94.67,104.67,94.59,103.89,95.25,103.11z"/>
	<path class="st50" d="M54.92,108.35c0.21,0,0.42,0,0.62,0c-0.03,1.04-0.06,2.08-0.09,3.12c-0.35-0.39-0.69-0.79-1.04-1.18
		C54.58,109.64,54.75,109,54.92,108.35z"/>
	<path class="st46" d="M102.67,86.74c-0.23,0.02-0.45,0.03-0.68,0.04c0.16-1.22-0.43-2.58,0.64-3.65
		C102.64,84.34,102.66,85.54,102.67,86.74z"/>
	<path class="st21" d="M97.5,73.35c0.48,2,0.96,4,1.44,6c-0.16,0.32-0.4,0.58-0.72,0.75c-1-2.15-1.41-4.42-1.41-6.78
		C97.05,73.02,97.28,73.02,97.5,73.35z"/>
	<path class="st18" d="M95.25,103.11c-0.02,0.78-0.03,1.57-0.05,2.35c-1.48-0.25-1.18,1.62-2.24,1.86c0-0.18-0.02-0.36-0.08-0.53
		c0.31-1.71,0.61-3.42,0.92-5.14c0.24-0.25,0.48-0.26,0.72-0.01C94.54,102.25,94.62,102.82,95.25,103.11z"/>
	<path class="st18" d="M98.95,88.25c-0.23,1.96-1.45,3.49-2.27,5.2c-0.2,0.26-0.41,0.26-0.62,0.02c0.44-1.87,0.42-3.93,2.29-5.18
		C98.54,88.02,98.74,88.01,98.95,88.25z"/>
	<path class="st54" d="M98.95,88.25c-0.2,0.01-0.4,0.02-0.6,0.03c-0.02-1.27-0.03-2.53-0.05-3.8c0.5-0.38,0.16-1.17,0.74-1.5
		C100.08,84.76,100.29,86.52,98.95,88.25z"/>
	<path class="st21" d="M94.52,101.65c-0.24,0-0.48,0-0.72,0.01c0.25-1.74,0.49-3.47,0.74-5.21c0.81-0.41,1.04,0.3,1.43,0.72
		c0.02,0.25,0.02,0.49,0.03,0.74C94.62,98.82,95.9,100.75,94.52,101.65z"/>
	<path class="st21" d="M95.96,97.17c-0.48-0.24-0.95-0.48-1.43-0.72c0.62-0.94,0.47-2.26,1.52-2.98c0.21-0.01,0.42-0.01,0.63-0.02
		C96.44,94.69,96.2,95.93,95.96,97.17z"/>
	<path class="st14" d="M99.04,82.99c-0.07,0.59-0.14,1.18-0.74,1.5c-0.02-1.46-0.05-2.92-0.07-4.39c0.24-0.25,0.48-0.5,0.72-0.75
		C98.97,80.56,99.01,81.77,99.04,82.99z"/>
	<path class="st55" d="M97.5,73.35c-0.23,0.01-0.46,0-0.68-0.02c0.01-0.99-0.19-1.92-0.76-2.75c0.71-0.01,1.42-0.03,2.13-0.05
		C97.64,71.39,97.41,72.33,97.5,73.35z"/>
	<path class="st56" d="M52.55,86.78c-0.01,0.23-0.02,0.47-0.03,0.7c-2.27-0.07-4.51,0.02-6.68,0.76c0.2-0.73,0.93-1.32,0.6-2.2
		c0.03-0.75,0.07-1.5,0.1-2.25c1.74,0.18,2.95,1.47,4.44,2.16C51.3,86.61,51.9,86.75,52.55,86.78z"/>
	<path class="st57" d="M107.17,45.16c-0.64,1.1-0.72,2.3-0.7,3.53c-0.73,0.54-1.46,1.07-2.19,1.61c-4.35-0.85-8.47,0.07-12.5,1.66
		c-0.36,0.1-0.72,0.1-1.08-0.01c-1.49-1.37-1.7-3.18-1.76-5.05c0.15-0.6,0.54-0.94,1.16-1.02c4.3,0.42,3.72-2.63,3.76-5.23
		c0.69-0.38,1.23,0.02,1.78,0.35c0.76,0.6,1.58,1.1,2.41,1.59c1.71,0.94,3.47,2.7,4.89-0.35c0.27-0.46,0.63-0.83,1.09-1.09
		c0.35-0.13,0.67-0.06,0.94,0.19C105.06,42.98,105.18,44.61,107.17,45.16z"/>
	<path class="st58" d="M89.41,46.55c0.49,1.71,0.98,3.42,1.48,5.13c1.67,1.81,1.79,3.57-0.13,5.29c-0.25,0.25-0.49,0.5-0.74,0.75
		c-1.52,1.02-3,0.95-4.45-0.13c-0.47-0.54-0.94-1.09-1.41-1.63c-0.05-0.4-0.1-0.8-0.15-1.2c-1.04-0.99-1.07-2.46-1.71-3.64
		c-0.25-1.08-1.29-2.15-0.03-3.24c1.13-1.02,2.63-1.37,3.93-2.08c0.54-0.29,1.08-0.58,1.62-0.88c0.42-0.45,0.91-1.04,1.5-0.45
		C89.86,45.03,89.65,45.84,89.41,46.55z"/>
	<path class="st15" d="M93.8,39.09c-0.27-0.49-0.53-0.98-0.8-1.48c0,0,0.03-0.03,0.03-0.03c0.42-1.14-0.33-2.34,0.2-3.48
		c0.2-0.5,0.51-0.91,0.89-1.28c0.56-0.45,1.15-0.8,1.92-0.58c0.24,0.24,0.42,0.52,0.51,0.85c0.19,1.29-0.49,2.56-0.07,3.85
		c0.03,0.34-0.01,0.68-0.1,1.01C95.8,38.97,95.03,39.56,93.8,39.09z"/>
	<path class="st32" d="M93.8,39.09c0.74-0.49,1.48-0.99,2.22-1.48c0.62-0.27,0.91,0.1,1.13,0.59c0.07,0.33,0.07,0.67,0.01,1
		c-0.23,0.82-0.44,1.64-1.04,2.3c-0.34,0.18-0.63,0.12-0.89-0.16c-0.46-0.23-0.93-0.46-1.39-0.69
		C92.93,40.16,93.69,39.62,93.8,39.09z"/>
	<path class="st44" d="M82.5,48.01c-0.79,0.98,0.13,1.92,0.06,2.88c0.36,0.57,0.39,1.12-0.07,1.66c-0.47-1.75-3.33-3.52,0.02-5.26
		c0.23,0.16,0.3,0.32,0.22,0.48C82.66,47.93,82.58,48.01,82.5,48.01z"/>
	<path class="st37" d="M82.49,52.55c0.02-0.55,0.05-1.1,0.07-1.66c0.85,1.15,1.13,2.51,1.43,3.86
		C82.53,54.67,82.48,53.63,82.49,52.55z"/>
	<path class="st15" d="M82.5,48.01c0-0.24,0-0.48,0.01-0.72c0.94-1.17,2.22-1.54,3.66-1.5C85.3,47.11,83.83,47.44,82.5,48.01z"/>
	<path class="st31" d="M89.41,46.55c-0.22-0.85,0.12-2.26-1.61-1.63c0.03-0.56,0.13-1.07,0.71-1.35c0.92-0.49,1.62-0.57,1.55,0.81
		c0.01,0.5,0.02,1,0.03,1.5C89.86,46.1,89.63,46.33,89.41,46.55z"/>
	<path class="st56" d="M90.05,44.38c-0.33-0.62-0.9-0.79-1.55-0.81c0.68-0.86,1.68-1.1,2.41-0.43
		C91.37,43.56,90.49,44.04,90.05,44.38z"/>
	<path class="st59" d="M153.6,87.33c-1.72,0.6-3.42,1.58-5.23,0.23c0.16-0.63,0.56-1.05,1.16-1.27
		C150.83,86.86,152.67,85.36,153.6,87.33z"/>
	<path class="st60" d="M149.22,86.76c-0.28,0.27-0.56,0.53-0.85,0.8c-1.33,0.21-2.4-0.59-3.59-0.9c0.22-0.21,0.45-0.41,0.67-0.61
		c1.14-0.55,2.31-0.83,3.56-0.34C149.39,85.99,149.46,86.34,149.22,86.76z"/>
	<path class="st60" d="M149.22,86.76c0-0.24-0.01-0.48-0.01-0.71c0.2-0.25,0.46-0.4,0.77-0.46c0.32,0.02,0.6,0.13,0.83,0.35
		c1.51,0.19,2.98,0.1,4.37-0.6c0.03,0.24,0.05,0.49,0.05,0.73c-0.33,0.69-0.84,1.16-1.63,1.26
		C152.25,86.26,150.68,86.96,149.22,86.76z"/>
	<path class="st58" d="M42,81.53c-0.3,0.2-0.59,0.4-0.89,0.6c-0.45,0.34-0.9,0.68-1.35,1.02c-1.44,0.45-2.61-0.12-3.69-0.98
		c-0.74-0.76-1.48-1.53-2.22-2.29c-0.5-0.82-0.89-1.72-1.51-2.43c-1.66-1.94-1.7-3.56,0.7-4.89c0.88-1.11,1.73-2.24,3.08-2.85
		l-0.07,0.02c1.48-1.03,2.39-0.5,2.95,1.04c0.24,0.16,0.49,0.32,0.73,0.48c0.87,1.63,1.55,3.35,2.36,5.01
		C42.62,78.01,43.58,79.8,42,81.53z"/>
	<path class="st5" d="M42.04,64.42c1.38-1.02,1.9-2.2,0.75-3.72c0.5-0.49,1-0.98,1.5-1.46c0.28-0.21,0.59-0.28,0.93-0.19
		c0.47,0.25,0.8,0.61,0.99,1.1c0.13,0.5,0.1,0.98-0.08,1.46c-0.62,0.98-0.9,2.02-0.5,3.17c0.19,1.3-0.21,2.43-0.93,3.49
		c-0.36,0.44-0.8,0.75-1.37,0.84c-1.75-0.54-0.29-2.36-1.3-3.2C42.04,65.42,42.04,64.92,42.04,64.42z"/>
	<path class="st61" d="M41.09,75.75c-0.54-1.48-2.31-2.6-1.34-4.52c0.74-0.06,1.48-0.12,2.22-0.19c0.09,0.13,0.18,0.26,0.28,0.38
		c-0.1,1.25-0.26,2.49-0.47,3.72C41.64,75.45,41.41,75.65,41.09,75.75z"/>
	<path class="st31" d="M39.01,70.75c-0.79-0.89-1.84-1.05-2.95-1.04c0.39-0.96,1.05-1.71,2.14-1.38
		C39.45,68.7,38.92,69.87,39.01,70.75z"/>
	<path class="st44" d="M36.13,69.69c-0.65,1.35-1.63,2.35-3.08,2.85C33.33,70.8,34.28,69.77,36.13,69.69z"/>
	<path class="st62" d="M42.04,65.91c1.22,0.63,0.28,2.33,1.5,2.95c0.19,0.32,0.18,0.63-0.02,0.94c-0.5,0.27-0.97,0.27-1.43-0.1
		C42.08,68.44,42.06,67.18,42.04,65.91z"/>
	<path class="st61" d="M42.1,69.71c0.47-0.02,0.95-0.03,1.42-0.05c0.45,0.34,0.59,0.81,0.58,1.34c-0.05,0.34-0.19,0.65-0.41,0.92
		c-0.82,0.33-1.28-0.08-1.62-0.76c0,0-0.1-0.12-0.1-0.12C42.01,70.6,42.05,70.15,42.1,69.71z"/>
	<path class="st63" d="M140.97,82.34c-0.73-0.58-1.46-1.16-2.19-1.74c-0.48-1.69-1.92-2.72-2.85-4.11c-0.87-1.3-1.09-2.36,0.53-3.19
		c1.02-1.41,2.2-2.64,3.85-3.35c1.58-1.38,2.54-0.63,3.26,0.94c0.95,1.48,2.01,2.89,2.49,4.62c0.28,1.54,0.86,3.03,0.8,4.63
		c0.1,0.25,0.2,0.5,0.3,0.75c-0.37,1.02-1.14,1.54-2.17,1.74C143.62,82.88,142.27,83.01,140.97,82.34z"/>
	<path class="st5" d="M146.22,64.42c0.7-1.76,0.25-4,2.24-5.21c0.17-0.06,0.34-0.11,0.51-0.17c0.55,0.1,0.98,0.38,1.3,0.84
		c0.22,0.49,0.25,0.99,0.12,1.51c-0.68,1.17-1,2.38-0.45,3.7c0.17,1.1,0.14,2.15-0.72,3c-0.21,0.04-0.43,0.07-0.64,0.09
		c-0.28,0.25-0.6,0.36-0.98,0.35c-1.51-0.33-0.56-1.93-1.37-2.63C146.22,65.41,146.22,64.92,146.22,64.42z"/>
	<path class="st64" d="M145.43,75.63c-0.77-1.41-1.91-2.67-1.94-4.4l0.35-0.07c1.13,0.03,2.25,0.05,2.4-1.49
		c0.43-0.46,0.94-0.48,1.5-0.26c0.98,0.97,0.83,2.3,1.12,3.5c0.05,0.34,0.03,0.69-0.03,1.03c-0.54,1.26-1.64,1.61-2.89,1.72
		C145.77,75.64,145.6,75.63,145.43,75.63z"/>
	<path class="st42" d="M143.84,71.16c0,0-0.36,0.07-0.35,0.07c-0.8-1.26-1.84-1.75-3.28-1.03c-0.22-0.13-0.28-0.26-0.2-0.38
		c0.08-0.11,0.16-0.17,0.23-0.17C143.02,66.43,143.39,68.89,143.84,71.16z"/>
	<path class="st20" d="M140.24,69.65c0.01,0.18,0,0.37-0.03,0.55c-1.05,1.27-2.12,2.52-3.74,3.11
		C136.92,71.27,138.14,70,140.24,69.65z"/>
	<path class="st52" d="M147.68,69.69c-0.48-0.01-0.96-0.01-1.44-0.02c-0.01-1.25-0.02-2.51-0.02-3.76c0.5,0.75,0.99,1.5,1.49,2.25
		C148.14,68.67,148.19,69.18,147.68,69.69z"/>
	<path class="st38" d="M150.81,85.93c-0.28,0.02-0.56,0.03-0.85,0.05c-0.87-0.79-2.16,0.11-3.02-0.73c0.58-0.37,1.16-0.73,1.72-1.09
		c-0.58-0.36-1.16-0.72-1.75-1.08c-0.38-0.83-0.65-1.61,0.78-1.51C150.53,81.76,151.71,83.12,150.81,85.93z"/>
	<path class="st49" d="M148.4,74.14c0.02-0.26,0.05-0.52,0.07-0.78c-0.61-1.51-0.2-2.06,1.41-1.46c0.05,1.23,0.11,2.45,0.16,3.68
		c-0.48,0-0.95,0.01-1.43,0.01C148.01,75.18,148.07,74.68,148.4,74.14z"/>
	<path class="st65" d="M152.22,74.11c1.52-0.08,3.26-1.75,4.43,0.61c-1.21,0.05-2.43,0.11-3.64,0.16
		C152.2,75.17,152.06,74.79,152.22,74.11z"/>
	<path class="st29" d="M146.86,80.15c-0.47-1.51-0.95-3.01-1.42-4.52c0,0,0.22-0.15,0.22-0.15c0.7-0.07,1.15,0.21,1.32,0.9
		C146.46,77.62,148.38,78.94,146.86,80.15z"/>
	<path class="st59" d="M146.97,76.38c-0.44-0.3-0.88-0.6-1.32-0.9c0.92-0.45,1.83-0.89,2.75-1.34c0.07,0.48,0.14,0.96,0.21,1.44
		C148.24,76.2,147.61,76.3,146.97,76.38z"/>
	<path class="st36" d="M147.71,81.57c-0.61,0.32-0.73,0.9-0.78,1.51c-0.48-0.02-0.96-0.04-1.44-0.07c-0.42-0.24-0.46-0.53-0.1-0.87
		c0.59-0.42,1.18-0.83,1.77-1.25C147.34,81.12,147.52,81.35,147.71,81.57z"/>
	<path class="st66" d="M152.22,74.11c0.26,0.26,0.53,0.52,0.79,0.77c-0.61,0.75-1.42,0.8-2.29,0.64
		C150.76,74.57,151.28,74.12,152.22,74.11z"/>
	<path class="st8" d="M95.13,113.04c-1.2,0.62-1.81,0.61-2.32,0.19c-0.31-0.26-0.25-0.82,0.12-0.82
		C93.48,112.4,94.04,112.7,95.13,113.04z"/>
	<path class="st3" d="M149.21,68.09c0-1.23,0-2.47,0-3.7c-0.27-1.12,0.18-2.06,0.76-2.97c0-0.49,0-0.97,0-1.46
		c-0.23-0.74,0.22-0.96,0.82-1.07c1.32,0.31,1.56,1.36,1.73,2.47c0.25,0.82-0.4,1.95,0.67,2.47c0.71,0.35,0.9-0.48,1.26-0.87
		l0.06,0.01c1.82,0.33,1.04,1.92,1.44,2.94c-0.07,3.38-1.36,4.59-4.59,2.64C150.77,68.2,149.93,68.24,149.21,68.09z"/>
	<path class="st16" d="M149.88,71.89c-0.97,0.02-1.38,0.55-1.41,1.46c-1.22-1.02-0.54-2.44-0.79-3.67c0.01-0.51,0.02-1.02,0.03-1.54
		c0.28,0.01,0.57,0.02,0.85,0.03C149.81,69.14,150.23,70.38,149.88,71.89z"/>
	<path class="st64" d="M155.95,65.91c-0.48-0.98-0.96-1.96-1.44-2.94c0.02-0.51,0.04-1.02,0.06-1.52c1.48,0.48,1.08,2.26,2.12,3.04
		c0,0.48-0.01,0.95-0.01,1.43C156.43,65.92,156.19,65.91,155.95,65.91z"/>
	<path class="st3" d="M50.98,85.95c-2.06,0.45-3.59-0.16-4.44-2.16c-0.25-0.76-0.5-1.51-0.74-2.27c-3.03-0.34-3.73-2.28-3.43-4.92
		c0.36-0.77,1.03-1.15,1.8-1.42c0.6-0.12,1.15-0.02,1.62,0.4c0.51-0.03,1.02-0.07,1.53-0.1c1.51-0.69,3.04-2.42,4.49,0.09
		c0.01,1.5,0.02,3,0.03,4.49C51.97,82.09,50.09,83.83,50.98,85.95z"/>
	<path class="st5" d="M44.29,68.13c0.25-1.24,0.5-2.48,0.75-3.73c-0.31-1.12,0.19-2.04,0.75-2.95c0.01-0.46,0.01-0.93,0.02-1.39
		c0.18-0.77,0.68-1.1,1.46-1.02c0.9,0.56,0.67,1.82,1.53,2.4c0.25,0.01,0.5,0.01,0.75,0.02c1.64,1.04,2.03,2.69,2.18,4.45
		c-0.31,4.4-0.74,4.55-6,2.1C45.26,68.22,44.79,68.43,44.29,68.13z"/>
	<path class="st27" d="M44.29,68.13c0.48-0.02,0.9-0.77,1.43-0.11c0,1.52,0,3.04,0,4.57c-1.31,0.38-1.42-0.94-2.09-1.46
		c-0.04-0.49-0.07-0.98-0.11-1.47c0.01-0.26,0.02-0.53,0.03-0.79C43.79,68.62,44.04,68.38,44.29,68.13z"/>
	<path class="st2" d="M43.63,71.13c1.11-0.1,1.38,1,2.09,1.46c0.02,1,0.04,2,0.07,3.01c-0.45,0-0.9,0-1.34,0
		c-1.9-0.83-2-2.13-0.98-3.71C43.51,71.62,43.57,71.38,43.63,71.13z"/>
	<path class="st67" d="M51.8,75.58c-1.47-1.52-2.99,0.04-4.49-0.09c1.5-2.34,3.24-2.65,5.25-0.61C52.3,75.12,52.05,75.35,51.8,75.58
		z"/>
	<path class="st68" d="M51.72,65.91c-0.73-1.48-1.45-2.97-2.18-4.45c2.58-0.02,2.01,2.48,3.01,3.72c-0.02,0.25-0.03,0.5-0.05,0.75
		C52.25,65.92,51.98,65.92,51.72,65.91z"/>
	<path class="st14" d="M96,32.41c-0.49,0.23-0.98,0.46-1.47,0.68c-0.85-0.69-0.87-1.63-0.82-2.59c0.04-0.38,0.13-0.74,0.26-1.1
		c0.86-1.68,1.69-3.39,3.77-3.9c0.87,0.37,1.1,0.94,0.53,1.75c0,0.48,0,0.96,0.01,1.44c-0.18,0.95,0.54,1.82,0.28,2.78
		C97.89,32.26,96.93,32.28,96,32.41z"/>
	<path class="st31" d="M98.25,31.65c0.28-0.99-1.38-2,0.04-2.97c0.89,1.88,1.9,3.59,4.47,2.97c0,0.25,0,0.49,0,0.74
		c-0.49,0.28-0.98,0.56-1.47,0.83c-1.15,0.46-2.12,0.03-3.04-0.61C98.01,32.3,98.03,31.97,98.25,31.65z"/>
	<path class="st13" d="M98.28,27.24c-0.04-0.62-0.15-1.21-0.77-1.54c-0.2-0.25-0.27-0.54-0.21-0.86c0.35-0.73,0.89-1.28,1.63-1.63
		c0.33-0.08,0.6,0.02,0.8,0.3C99.49,24.85,100.58,26.69,98.28,27.24z"/>
	<path class="st46" d="M104.21,30.14c-0.23,0.03-0.45,0.04-0.68,0.05c-0.62-0.73-0.48-1.49-0.08-2.26c-0.04-1-0.66-2.02,0.06-3
		c1.25,0.99,0.49,2.48,0.92,3.68C104.36,29.11,104.28,29.63,104.21,30.14z"/>
	<path class="st2" d="M99.72,23.51l-0.35-0.01l-0.35,0.01c-1.27,0-1.3-0.61-0.74-1.5c0.74-0.26,1.48-0.52,2.22-0.78
		C101.38,22.37,99.71,22.66,99.72,23.51z"/>
	<path class="st36" d="M103.45,27.92c0.03,0.75,0.05,1.51,0.08,2.26c-0.04,0.6-0.18,1.16-0.77,1.47
		C102.51,30.33,101.99,28.94,103.45,27.92z"/>
	<path class="st69" d="M94.51,29.42c0,0.25,0,0.51-0.01,0.76c-0.84,0.43-0.94,2.41-2.57,1.22c-0.54-0.97-0.26-1.85,0.31-2.69
		c0-0.26,0.01-0.52,0.01-0.78c0.8-1.27,1.96-2.23,2.99-3.3c0.78-0.55,1.54-1.02,1.84,0.43C96.6,26.73,94.73,27.59,94.51,29.42z"/>
	<path class="st32" d="M96.8,24.96c-0.51-0.84-1.03-0.08-1.54,0c-0.26,0.32-0.52,0.31-0.78-0.01c0.79-1.59,2.27-2.3,3.8-2.94
		c-0.02,0.63,0.15,1.17,0.74,1.5c-0.5,0.48-1.01,0.97-1.52,1.45C97.27,25.32,97.03,25.31,96.8,24.96z"/>
	<path class="st32" d="M94.48,24.95c0.26,0,0.52,0.01,0.78,0.01c-0.74,1.25-1.7,2.28-3,2.97C92.32,26.43,93.29,25.61,94.48,24.95z"
		/>
	<path class="st5" d="M92.25,28.71c0.01,0.98,0.03,1.96,0.04,2.94c-0.29,0.3-0.6,0.3-0.92,0.04c-0.75-0.63-0.57-1.48-0.56-2.3
		C91.29,29.16,91.77,28.94,92.25,28.71z"/>
	<path class="st3" d="M101.99,61.42c-2.99,1.41-5.98,2.08-8.99,0.05c0.19-1.06,2.22-0.24,1.89-1.78c-0.38-1.79-2.23-1.85-3.39-2.71
		c0.44-1.76,0.07-3.61,0.62-5.36c2.39-1.47,5.21-1.36,7.82-1.98c1.54-0.37,2.88,0.48,3.54,2.06c0,0.52,0.01,1.05,0.01,1.57
		C101.02,55.63,102.26,58.66,101.99,61.42z"/>
	<path class="st34" d="M92.26,51.82c-0.05,1.75,0.3,3.55-0.75,5.16c-0.25,0-0.5-0.01-0.75-0.01c0.71-1.74,0.47-3.51,0.14-5.29
		c0.22-0.01,0.43-0.03,0.65-0.07C91.83,51.48,92.08,51.54,92.26,51.82z"/>
	<path class="st52" d="M90.04,60.72c-0.21-2.5-2.97-0.75-3.78-2.25c1.25-0.58,2.51-0.56,3.76-0.02
		C90.94,59.2,90.94,59.96,90.04,60.72z"/>
	<path class="st20" d="M90.02,58.45c-1.25,0.01-2.51,0.01-3.76,0.02c-0.23-0.29-0.47-0.59-0.7-0.88c1.48,0.04,2.97,0.09,4.45,0.13
		C90.02,57.96,90.02,58.21,90.02,58.45z"/>
	<path class="st70" d="M36.08,82.16c1.23,0.33,2.46,0.66,3.69,0.98C38.14,84.3,36.91,83.97,36.08,82.16z"/>
	<path class="st18" d="M47.3,59.17c-0.5,0.3-1,0.59-1.49,0.89c-0.27-0.27-0.53-0.55-0.8-0.83c-1.8-1.8-2.26-3.77-0.72-5.97
		c0-0.76,0.01-1.51,0.01-2.27c1.4-0.49,2.01-2.26,3.72-2.23c0.28,0.01,0.55,0.02,0.83,0.03c0.85,1.4,0.19,2.94,0.4,4.4
		c-0.48,1.52-2.96,2.43-1.42,4.58C47.85,58.32,47.72,58.8,47.3,59.17z"/>
	<path class="st20" d="M44.28,53.27c-0.21,2.04,0.23,4.01,0.72,5.97c0,0-0.35-0.01-0.35-0.01s-0.35,0.01-0.35,0.01
		c-0.25-0.01-0.49-0.01-0.74-0.02c-0.83-0.93-0.99-2.36-2.24-2.97c0.25-0.76,0.5-1.51,0.74-2.27C42.8,53.74,43.54,53.5,44.28,53.27z
		"/>
	<path class="st52" d="M145.38,82.15c0.03,0.29,0.07,0.58,0.1,0.87c-1.6,0.42-3.24,1.07-4.51-0.67
		C142.44,82.28,143.91,82.21,145.38,82.15z"/>
	<path class="st14" d="M146.95,85.25c1.04,0.12,2.21-0.32,3.02,0.73c-0.25,0.02-0.51,0.04-0.76,0.06c-1.25,0-2.51,0-3.76-0.01
		c0.02-0.25,0.05-0.49,0.09-0.73C146.01,85.29,146.48,85.27,146.95,85.25z"/>
	<path class="st29" d="M42.78,76.42c-0.28,2.45,0.69,4.17,3.02,5.1c-1.27,0-2.53,0-3.8,0.01c0.5-2.05-0.66-3.84-0.91-5.77
		c0,0,0.25-0.27,0.25-0.27C42.14,75.3,42.58,75.68,42.78,76.42z"/>
	<path class="st38" d="M147.18,47.38c0.97,0,1.94,0,2.98,0c-0.15,1.77-2.04,2.23-2.38,3.68c0.78,1.36,0.54,2.58-0.51,3.69
		c-0.35,0.27-0.7,0.25-1.04-0.03C145.53,52.14,144.47,49.52,147.18,47.38z"/>
	<path class="st2" d="M146.23,54.71c0.24,0,0.47,0.01,0.71,0c0.39-0.25,0.76-0.23,1.12,0.06c1.15,1.39,1.7,2.83,0.41,4.44
		c0,0,0,0,0,0c-0.49-0.24-0.99-0.49-1.48-0.73C146.73,57.23,146.48,55.97,146.23,54.71z"/>
	<path class="st26" d="M50.97,53.26c1.17,1.68-0.11,3.03-0.59,4.49c-0.58,1.82-1.52,1.51-2.58,0.42c-1.28-2.26-0.28-3.8,1.61-5.06
		C49.96,52.82,50.49,52.81,50.97,53.26z"/>
	<path class="st71" d="M50.97,53.26c-0.48,0-0.95-0.01-1.43-0.01c-0.25,0.35-0.5,0.35-0.75,0c-1.19-1.5-0.31-2.97,0.05-4.45
		c0.49-0.01,0.97-0.02,1.45-0.03C50.56,50.27,51.27,51.69,50.97,53.26z"/>
	<path class="st24" d="M48.02,57.78c0.8,0.97,1.58,0.87,2.36-0.02c0.2,0.38,0.4,0.77,0.6,1.15c-0.63,0.93-2.31,0.96-2.18,2.54
		c-1.59-0.05-1.48-1.2-1.5-2.27c0-0.49,0-0.98,0-1.47C47.57,57.36,47.81,57.39,48.02,57.78z"/>
	<path class="st72" d="M92.26,51.82c-0.24-0.07-0.48-0.13-0.73-0.2c2.77-2.52,9.15-3.18,12.74-1.32c-0.26,0.47-0.52,0.93-0.79,1.4
		C99.71,48.86,96,51.54,92.26,51.82z"/>
	<path class="st52" d="M155.97,54.72c-2.5,0.48-1.77,2.2-1.46,3.75c0,0-0.06,0.05-0.06,0.05c-1.16,0.69-2.19,0.59-3.08-0.47
		c-0.79-1.8,0.61-3.55,0.11-5.35c-0.1-1.13-0.25-2.27,0.76-3.12c2.06-1.8,2.34,1.16,3.65,1.35C155,52.22,155.78,53.46,155.97,54.72z
		"/>
	<path class="st45" d="M104.96,41.35c-0.25-0.03-0.49-0.05-0.74-0.06c-0.81,0.03-1.62,0.15-2.4-0.15c-0.3-0.14-0.55-0.34-0.73-0.61
		c0.3-1.64,2.07-1.86,2.91-2.99c0.3-0.16,0.62-0.19,0.95-0.12c0.63,0.4,0.8,1.01,0.82,1.7C105.5,39.86,105.23,40.6,104.96,41.35z"/>
	<path class="st44" d="M105.77,39.11c-0.62-0.32-0.77-0.89-0.81-1.51c-0.18-1.19,0.3-1.7,1.52-1.46c0.01,0.62,0.1,1.2,0.72,1.54
		c-0.21,0.48-0.43,0.95-0.64,1.43C106.29,39.1,106.03,39.11,105.77,39.11z"/>
	<path class="st14" d="M152.25,49.58c0,1.23,0,2.46,0.01,3.68c-0.84,1.4-1.63,2.81-1.21,4.54c0.18,0.52,0.1,0.97-0.35,1.33
		c-0.24,0.28-0.49,0.55-0.73,0.83c-0.5-0.25-1.01-0.5-1.51-0.75c0.3-1.59-0.47-2.98-0.83-4.45c-0.11-1.11,0.44-2.03,0.85-2.99
		c1.07-0.93,1.51-2.47,2.98-3C151.73,49.05,151.99,49.32,152.25,49.58z"/>
	<path class="st71" d="M148.48,51.78c0.09,1.1-0.28,2.07-0.85,2.99c-0.23-0.01-0.46-0.03-0.69-0.05c0.28-1.22,0.56-2.44,0.84-3.66
		C148.01,51.3,148.25,51.54,148.48,51.78z"/>
	<path class="st69" d="M41.31,56.25c1.8,0.21,1.95,1.64,2.24,2.97C42.22,58.66,41.92,57.34,41.31,56.25z"/>
	<path class="st32" d="M91.37,31.69c0.3-0.01,0.61-0.03,0.91-0.04c0.77-0.45,1.05-1.61,2.21-1.47c0.01,0.97,0.02,1.94,0.04,2.91
		c-0.26,0.27-0.52,0.53-0.78,0.8c-0.86,0.48-1.11-0.42-1.63-0.72c-0.23,0-0.45-0.01-0.68-0.02C91.42,32.67,91.4,32.18,91.37,31.69z"
		/>
	<path class="st3" d="M104.34,37.6c0.09,2.13-2.15,1.91-3.08,3c0.19,0.15,0.27,0.32,0.25,0.51c-0.02,0.2-0.06,0.29-0.12,0.29
		c-0.28,0.17-0.58,0.25-0.9,0.21c-0.46-0.13-0.9-0.33-1.35-0.49c-1.14-0.27-2.34-0.47-2.36-2.02c0-0.24,0-0.49,0-0.73
		c0.22-1.71-0.46-3.45,0.14-5.15c0.26-0.57,0.62-1,1.34-0.87c1.12-0.08,2.09,0.33,3.02,0.88c-0.06,1.54,0.25,2.8,2.17,2.85
		C104.19,36.33,104.58,36.79,104.34,37.6z"/>
	<path class="st42" d="M104.34,37.6c-0.3-0.51-0.59-1.01-0.89-1.52c0.53-0.3,1.06-0.61,1.59-0.91c0.73,0.07,1.46,0.14,2.19,0.21
		c-0.25,0.25-0.5,0.5-0.75,0.76c-0.51,0.49-1.01,0.97-1.51,1.46c0,0-0.31,0.01-0.31,0.01L104.34,37.6z"/>
	<path class="st45" d="M92.13,33.17c0.54,0.24,1.08,0.48,1.63,0.72c-0.17,1.25,0.5,2.66-0.72,3.7c-0.5-0.4-0.99-0.81-1.49-1.21
		C92.7,35.49,92.17,34.29,92.13,33.17z"/>
	<path class="st50" d="M150.7,59.14c0.01-0.47,0.01-0.95,0.02-1.42c0.25-0.23,0.51-0.25,0.78-0.04c0.91,0.57,1.89,0.87,2.96,0.85
		c-0.5,0.97-1,1.94-1.49,2.91c-0.25,0.43-0.51,0.44-0.78,0.02C151.69,60.69,151.19,59.91,150.7,59.14z"/>
	<path class="st34" d="M152.18,61.46c0.26-0.01,0.52-0.01,0.78-0.02c0.06,0.92-0.34,2.29,1.48,1.52c-0.11,0.75,0.28,2.09-0.97,1.82
		C151.75,64.41,152.37,62.69,152.18,61.46z"/>
	<path class="st26" d="M101.26,41.29c0-0.23,0-0.46,0-0.69c0.24,0.01,0.48,0,0.72,0c0.53,0.49,1.42,0.61,1.59,1.48
		c-1.05,3.88-2.41,4.07-6.12,0.83c0.43-0.68,1.13-0.82,1.85-0.9C99.97,41.83,101.21,43.16,101.26,41.29z"/>
	<path class="st34" d="M99.77,42.8c-0.77,0.04-1.55,0.08-2.32,0.12c-1-0.16-1.8-0.6-2.21-1.57c0.27-0.02,0.55-0.04,0.82-0.06
		c1.17-0.55,2.46-0.49,3.69-0.71c0.26,0.24,0.52,0.49,0.78,0.73C100.53,41.93,100.22,42.4,99.77,42.8z"/>
	<path class="st13" d="M103.56,42.08c-0.76-0.25-1.31-0.72-1.59-1.48c0.81,0.02,1.7-0.18,2.24,0.69
		C104,41.55,103.78,41.82,103.56,42.08z"/>
	<path class="st32" d="M97.48,33.13c-0.24,1.74,0.68,3.65-0.72,5.23c-0.25-0.25-0.5-0.5-0.75-0.76c0-0.25-0.01-0.49-0.01-0.74
		c-0.07-1.26,0.32-2.45,0.53-3.67C96.84,32.94,97.15,32.92,97.48,33.13z"/>
	<path class="st30" d="M96.74,33.17c-0.16,1.25,0.51,2.67-0.74,3.7c-1.63-1.24,0.18-2.48,0-3.72C96.26,32.89,96.5,32.89,96.74,33.17
		z"/>
	<path class="st36" d="M96.74,33.17c-0.25-0.01-0.49-0.02-0.74-0.02c0-0.25,0-0.49,0-0.74c0.43-1.2,1.21-1.35,2.24-0.76
		c0,0.23,0.01,0.47,0.01,0.7c-0.26,0.26-0.51,0.52-0.77,0.78C97.24,33.14,96.99,33.15,96.74,33.17z"/>
	<path class="st1" d="M99.75,40.57c-0.98,1.49-2.42,0.68-3.69,0.71c-0.05-0.82-0.18-1.67,0.71-2.19
		C97.34,40.43,98.97,39.65,99.75,40.57z"/>
	<path class="st21" d="M45.78,61.46c0.14,1.08-0.2,2.04-0.75,2.95C43.63,63.01,44.57,62.2,45.78,61.46z"/>
	<path class="st73" d="M42.78,76.42c-0.48-0.31-0.96-0.63-1.44-0.94c-0.2-1.51-0.71-3.08,0.73-4.32c0.46,0.24,0.93,0.47,1.39,0.71
		c0.11,1.3-0.08,2.67,0.98,3.71C44.07,76.22,43.43,76.33,42.78,76.42z"/>
	<path class="st50" d="M149.97,61.42c0.13,1.09-0.21,2.06-0.76,2.97C147.79,62.98,148.75,62.17,149.97,61.42z"/>
	<path class="st32" d="M96.8,24.96c0.24,0,0.47,0,0.71,0c0,0.25,0,0.5,0,0.74c-1,1.24-2,2.48-3,3.72
		C94.08,27.33,95.99,26.42,96.8,24.96z"/>
	<path class="st26" d="M48.02,57.78c-0.24-0.03-0.48-0.05-0.72-0.07c-2.95-2.63,0.07-3.27,1.49-4.45c0.25,0,0.5,0,0.75,0
		C48.87,54.71,47.12,55.8,48.02,57.78z"/>
	<path class="st22" d="M151.49,57.68c-0.26,0.01-0.52,0.02-0.78,0.04c-1.68-2.23-0.23-3.4,1.55-4.45
		C152.69,54.86,152.09,56.27,151.49,57.68z"/>
	<path class="st38" d="M99.77,42.8c0-0.63,0.15-1.17,0.76-1.49c0.24,0.03,0.49,0.02,0.73-0.01C102.04,43.04,100.84,42.86,99.77,42.8
		z"/>
</g>
</svg>
