<?xml version="1.0" encoding="utf-8"?>
<!-- Generator: Adobe Illustrator 24.2.1, SVG Export Plug-In . SVG Version: 6.00 Build 0)  -->
<svg version="1.1" id="Calque_1" xmlns="http://www.w3.org/2000/svg" xmlns:xlink="http://www.w3.org/1999/xlink" x="0px" y="0px"
	 viewBox="0 0 258 159" style="enable-background:new 0 0 258 159;" xml:space="preserve">
<style type="text/css">
	.st0{fill:#FEFEFE;}
	.st1{fill:#FFDDC7;}
	.st2{fill:#FFDEC8;}
	.st3{fill:#FFDCC5;}
	.st4{fill:#FFDCC4;}
	.st5{fill:#FFC6A0;}
	.st6{fill:#FFC7A1;}
	.st7{fill:#FFDBC3;}
	.st8{fill:#FFDDC6;}
	.st9{fill:#FFDAC1;}
	.st10{fill:#40916C;}
	.st11{fill:#42926D;}
	.st12{fill:#44936F;}
	.st13{fill:#489572;}
	.st14{fill:#FFC49C;}
	.st15{fill:#469470;}
	.st16{fill:#FFC39B;}
	.st17{fill:#5FA384;}
	.st18{fill:#559D7C;}
	.st19{fill:#81CBA8;}
	.st20{fill:#FAF7F5;}
	.st21{fill:#7BC8A4;}
	.st22{fill:#4F9A78;}
	.st23{fill:#F9F5F3;}
	.st24{fill:#FFE0CB;}
	.st25{fill:#7EC9A6;}
	.st26{fill:#79C7A3;}
	.st27{fill:#519B79;}
	.st28{fill:#FFC9A4;}
	.st29{fill:#FFDAC2;}
	.st30{fill:#FFCBA8;}
	.st31{fill:#64A688;}
	.st32{fill:#539C7B;}
	.st33{fill:#4B9875;}
	.st34{fill:#62A586;}
	.st35{fill:#FFD9BF;}
	.st36{fill:#FFECDF;}
	.st37{fill:#87CDAC;}
	.st38{fill:#FFD5B9;}
	.st39{fill:#77B197;}
	.st40{fill:#4A9773;}
	.st41{fill:#FFD8BE;}
	.st42{fill:#FFEBDE;}
	.st43{fill:#8CCFB0;}
	.st44{fill:#FFF6F0;}
	.st45{fill:#FFD9C0;}
	.st46{fill:#98D4B8;}
	.st47{fill:#FFCBA7;}
	.st48{fill:#FFC9A5;}
	.st49{fill:#FFC8A3;}
	.st50{fill:#FFC59E;}
	.st51{fill:#74C5A0;}
	.st52{fill:#FFE2CF;}
	.st53{fill:#73C59F;}
	.st54{fill:#FFCEAC;}
	.st55{fill:#FFE2CE;}
	.st56{fill:#FFDFC9;}
	.st57{fill:#FAF7F6;}
	.st58{fill:#FFE7D6;}
	.st59{fill:#FFEEE2;}
	.st60{fill:#88CEAD;}
	.st61{fill:#FFEDE0;}
	.st62{fill:#FFDFCA;}
	.st63{fill:#FFD6BA;}
	.st64{fill:#FFCCAA;}
	.st65{fill:#FFCCA9;}
	.st66{fill:#FFF5EE;}
	.st67{fill:#FFEADC;}
	.st68{fill:#FFE8D9;}
	.st69{fill:#FFCFAF;}
	.st70{fill:#FFE9DA;}
	.st71{fill:#FFF3EC;}
	.st72{fill:#96D3B7;}
	.st73{fill:#FFF5EF;}
	.st74{fill:#FFE5D3;}
	.st75{fill:#67C096;}
	.st76{fill:#FFD1B3;}
	.st77{fill:#FFD7BC;}
	.st78{fill:#FFD6BB;}
	.st79{fill:#FFE1CD;}
	.st80{fill:#F9F6F4;}
	.st81{fill:#FBF8F6;}
	.st82{fill:#FFF7F2;}
	.st83{fill:#FFD7BD;}
	.st84{fill:#6BC299;}
	.st85{fill:#65BF95;}
	.st86{fill:#6AC198;}
	.st87{fill:#6DC29A;}
	.st88{fill:#85CCAB;}
	.st89{fill:#6EC39B;}
	.st90{fill:#FFC49D;}
	.st91{fill:#FFC7A2;}
	.st92{fill:#FFC69F;}
	.st93{fill:#FFCAA6;}
	.st94{fill:#FFE1CC;}
	.st95{fill:#FFC299;}
</style>
<g>
	<path class="st0" d="M15.8,150.75c-2.23,0.01-2.68-0.45-2.68-2.69c0.08-45.71,0.08-91.42,0-137.13c0-2.23,0.45-2.69,2.68-2.68
		c75.47,0.07,150.93,0.07,226.4,0c2.23,0,2.68,0.45,2.68,2.68c-0.08,45.71-0.08,91.42,0,137.13c0,2.23-0.45,2.7-2.68,2.69"/>
	<path class="st1" d="M27.02,83.32c7.89-2.47,16.54-2.56,23.59-7.63c2.25,0.62,2.7,2.54,3.18,4.44c-0.04,1.12-2.45,0.98-1.42,2.68
		c-1.2,1.55-2.14,3.57-4.72,2.64c0.82-1.04,1.64-2.09,3.11-3.96c-7.85,3.37-15.64,2.05-22.7,4.74
		C25.88,85.92,25.55,84.94,27.02,83.32z"/>
	<path class="st1" d="M115.7,39.79c-6.27,1.08-12.63,1.78-18.53,4.42c-2.81-0.91-2.96-1.43-1-3.47c8.13-2.45,16.96-3.09,23.71-9.13
		c1.46,1.39,2.3,3.11,2.65,5.08c-0.74,1.64-2.38,2.03-3.77,2.79C117.76,39.81,116.78,40.26,115.7,39.79z"/>
	<path class="st1" d="M129.03,35.26c2.99,2.11,4.48,5.26,5.8,8.51c1.2,2.94,0.51,3.9-2.76,3.51c-2.58-0.31-5.14-0.89-7.66-1.53
		c-2.07-0.53-4.16-0.67-6.27-0.74c-1.7-1.42-0.57-2.32,0.58-3.22c2.55-0.83,5.13,0.62,7.9-0.15c-0.61-1.33-2.37-1.84-2.5-3.42
		C124.84,35.71,126.78,35.22,129.03,35.26z"/>
	<path class="st2" d="M28.86,131.29c7.32-3.89,15.93-4.09,23.17-8.2c1.36,1.54,3.22,2.78,3.01,5.23c-4.05,2.21-8.67,1.13-12.94,2.22
		c-4.02,1.03-8.17,1.52-12.27,2.25c-0.86,0.27-1.93,0.89-2.36-0.37C27.16,131.49,28.41,131.71,28.86,131.29z"/>
	<path class="st1" d="M123.92,79.47c-5.78,2.2-11.87,2.63-17.95,3.07c-1.19,0.8-2.75-0.26-3.9,0.76c-0.85,0.63-1.78,0.95-2.84,0.74
		c-1.13,0.32-2.28,0.93-3.24-0.36c0.06-0.19,0.11-0.39,0.17-0.58c7.89-3.92,17.21-3.78,24.73-8.76
		C122.74,75.56,124,77.12,123.92,79.47z"/>
	<path class="st2" d="M55.06,37.45c-2.09,1.24-4.33,1.8-6.76,1.56c-0.97-0.4-1.95-0.77-2.88,0.11c-5.03,1.93-10.46,1.76-15.62,2.99
		c-0.85,0.29-1.91,0.91-2.33-0.37c-0.3-0.91,0.96-0.7,1.39-1.15c4.64-3.21,10.38-2.74,15.4-4.61c2.64-0.98,5.09-2.48,7.62-3.75
		C53.48,33.64,54.89,35.17,55.06,37.45z"/>
	<path class="st2" d="M193.3,37.45c-2.09,1.25-4.34,1.81-6.77,1.56c-0.97-0.39-1.95-0.78-2.87,0.11
		c-5.03,1.93-10.45,1.76-15.61,2.99c-0.85,0.27-1.92,0.9-2.34-0.37c-0.3-0.91,0.95-0.7,1.39-1.15c7.2-4.11,16.24-3.12,23.04-8.35
		C191.71,33.66,193.12,35.18,193.3,37.45z"/>
	<path class="st3" d="M145.38,72.74c-1.16,1.08-0.45,2.59-0.88,3.84c-0.23,3.98-0.54,7.95,0.17,11.91l0.04-0.04
		c0.31,0.35,0.61,0.72,0.87,1.11c0.68,0.67,1.55,1.13,2.12,1.92c0.86,0.31,1.99-0.27,2.63,0.81c-5.24,1.85-6.99,0.98-8.13-4.28
		c-0.87-3.97-0.24-8.13-1.31-12.09c-0.55-1.03-0.72-2.23-1.71-3.07c-1.35-1.14-1.03-2.53-0.22-3.88c0.96-1.63,3-1.15,4.26-2.22
		c0.93-0.05,1.87-0.09,2.8-0.14C146.24,68.71,145.69,70.71,145.38,72.74z"/>
	<path class="st4" d="M146.3,49.42c0.79,0.44,2.03-0.26,2.55,0.97c-5.71,1.6-7.05,0.97-7.96-3.72c-0.56-1.23-0.19-2.53-0.3-3.8
		c0-1.46,0-2.91,0-4.37c0.13-1.22-0.26-2.51,0.24-3.69c-0.67,0.76,0.15,2.02-0.67,2.77c-0.89-1.14-0.53-2.53-0.76-3.8
		c-0.2-2.23-3.06-3.18-2.7-5.67c0.74-2.08,2.66-2.78,4.36-3.73c1.18-0.11,2.36-0.22,3.54-0.32c0.47,0.71,0.1,1.37-0.1,2.04
		c-0.59,1.54-0.27,3.16-0.42,4.74c-0.03,0.55-0.13,1.1-0.26,1.64c-0.59,2.2-0.54,4.4,0.03,6.6c0.25,0.98-0.06,1.88-0.36,2.78
		c-1.04,1.67-1.01,3.36-0.13,5.08C144.07,48.09,145.25,48.68,146.3,49.42z"/>
	<path class="st5" d="M145.38,72.74c-1.07-2.17-1.1-4.23,0.63-6.11c1.08-1.82,2.73-2.84,4.76-3.16c3.64-0.58,5.58,1.94,4.39,5.57
		c-2.05,1.32-4.38,2.23-6.02,4.15c-0.56,0.79-0.63,1.9-1.55,2.46c-0.18,0.08-0.36,0.13-0.56,0.15c-0.31,0.25-0.63,0.26-0.97,0.06
		c-0.57-0.96,0.17-2.18-0.61-3.11L145.38,72.74z"/>
	<path class="st6" d="M216.32,79.45c3.39-3.75,5.4-4.07,9.07-1.44c1.13,2.92,0.1,5.11-2.3,6.83c-1.21,1.16-2.74,1.76-4.21,2.48
		c-0.34,0.1-0.68,0.12-1.03,0.07c-0.35-0.13-0.69-0.34-0.76-0.71c-0.13-0.76,0.5-1.38,0.47-2.13c-0.22,0.66-0.4,1.36-1.33,1.29
		c-0.79-0.21-1.17-0.82-1.48-1.5C213.83,82.24,214.34,80.61,216.32,79.45z"/>
	<path class="st3" d="M73.75,114.7c0.72,0.05,1.45,0.09,2.17,0.14c0.39,2.06,0.61,4.13,0.51,6.23c-0.12,0.33-0.27,0.64-0.45,0.93
		c-0.85,1.4-0.69,2.86-0.22,4.32c0.4,0.89,0.87,1.72,1.72,2.27c0.3,2.28-1.97,3.54-2.19,5.61c-0.9,0.68-0.66,1.87-1.22,2.71
		c-0.13,0.11-0.27,0.21-0.4,0.31c-1.35-3.15-0.56-6.6-1.38-9.83c-0.29-1.15,0.08-2.56-1.39-3.19c0.27-2.53-2.66-4.43-1.39-7.15
		C70.36,115.25,72.5,115.79,73.75,114.7z"/>
	<path class="st2" d="M192.79,87.71c-5.65,0.49-11.15-0.77-16.71-1.44c-3.1-0.88-6.26-0.22-9.39-0.41
		c-0.85,0.19-1.83,0.45-2.42-0.34c-0.66-0.87,0-1.6,0.67-2.21c0.24-0.05,0.46-0.02,0.67,0.1c8.14-0.17,16.36,1.35,24.41-0.99
		c0.61-0.18,1.18-0.33,1.79-0.1C193.2,83.94,193.78,85.68,192.79,87.71z"/>
	<path class="st1" d="M64.17,80.2c1.47,1.03,2.27,2.6,3.22,4.03c0.73,1.1,1.76,2.46,0.73,3.73c-1.08,1.34-2.65,1.76-4.28,0.65
		c-0.04-1.45-1.21-2.01-2.16-2.74c-0.49-0.43-0.93-0.91-1.45-1.31c-1.51-1.34-3.81-1.94-4.14-4.4c0.23-1.46,1.2-2.27,2.49-2.78
		c0.36-0.12,0.74-0.18,1.12-0.2C61.94,77.06,62.81,79,64.17,80.2z"/>
	<path class="st4" d="M66.96,33.8c-2.92-0.32-5.6,0.8-8.36,1.44c-1.93-1.77-2.34-3.99-1.89-6.46c3.31-0.06,6.6-0.25,9.49-2.16
		c0.27,0.21,0.49,0.47,0.63,0.79c0.38,1.31,0.21,2.7,0.66,4c0.13,0.51,0.16,1.02,0.05,1.54C67.41,33.27,67.22,33.56,66.96,33.8z"/>
	<path class="st7" d="M126.02,70.81c3.06-0.13,6.11-0.28,8.87-1.83c0.16,0.11,0.31,0.22,0.47,0.33c1.11,1.69,1.48,3.51,1.02,5.49
		c-0.16,0.35-0.37,0.67-0.61,0.97c-2.95-0.26-5.59,0.77-8.19,1.96C126.1,75.64,125.15,73.43,126.02,70.81z"/>
	<path class="st3" d="M205.2,33.79c-2.92-0.31-5.59,0.78-8.34,1.45c-1.98-1.76-2.1-4.07-1.91-6.47c3.31-0.06,6.59-0.25,9.49-2.15
		c0.28,0.21,0.48,0.47,0.62,0.79c0.37,1.3,0.21,2.69,0.66,3.99c0.13,0.51,0.16,1.02,0.05,1.54
		C205.64,33.27,205.45,33.55,205.2,33.79z"/>
	<path class="st8" d="M205.92,87.04c-2.93-0.62-5.86-1.09-8.81-0.16c-1.14-2.4-0.77-4.8,0.02-7.2c2.88,0.25,5.69,1.64,8.64,0.45
		c0.17,0.12,0.34,0.24,0.51,0.36c0.83,1.34,0.63,2.83,0.62,4.29C206.83,85.65,206.66,86.47,205.92,87.04z"/>
	<path class="st9" d="M216.32,79.45c-0.82,1.42-1.9,2.8-0.73,4.54c-0.57,0.68-1.22,1.17-2.18,1c-2.52-0.65-2.8,0.95-2.81,2.82
		c0,0.55-0.04,1.09-0.15,1.62c-1.18,2.84-2.1,0.69-3.09-0.16c-0.2-0.51-0.39-1.02-0.59-1.53c-0.07-1.12,0-2.26-0.4-3.35
		c-0.12-1.38,0.17-2.6,1.26-3.52c0.99-0.59,0.11-1-0.16-1.46C210.42,77.85,213.37,79.41,216.32,79.45z"/>
	<path class="st4" d="M66.3,123.74c-2.58,0.67-5.39,0.7-7.47,2.74c-1.7-1.94-1.7-4.62-2.92-6.77c3.33-0.39,6.64-0.85,9.63-2.55
		C67.66,119.14,67.69,121.36,66.3,123.74z"/>
	<path class="st10" d="M58.92,77.95c-1.01,0.59-1.92,1.27-2.47,2.35c-0.95,0.4-1.88,0.39-2.8-0.09c-1.01-1.51-2.02-3.01-3.04-4.52
		c1.04-2.09,2.38-3.88,4.73-4.62c0.79-0.23,1.57-0.28,2.31,0.18C59.3,73.25,60.06,75.42,58.92,77.95z"/>
	<path class="st7" d="M129.03,35.26c-1.27,1.36-3.69,0.99-4.51,3.02c-0.68,0.2-0.95-0.2-1.09-0.77c0.02-0.5,0.11-1.09,0.52-1.3
		c2.39-1.26,2.77-3.02,1.62-5.37c-0.37-0.76-0.26-1.68,0.49-2.34c2.78,0.46,5.05-0.98,7.43-2.01c0.27,0.26,0.49,0.54,0.69,0.86
		c0.63,1.75,1.2,3.51,0.72,5.4c-0.15,0.34-0.35,0.65-0.6,0.93C132.64,34.56,130.12,32.5,129.03,35.26z"/>
	<path class="st4" d="M57.46,71.3c-0.71-0.08-1.42-0.16-2.12-0.24c3.28-0.89,6.98,0.18,9.96-2.12c0.16,0.1,0.32,0.19,0.49,0.29
		c0.66,0.97,0.82,2.12,1.15,3.21c0.25,1.2,0.19,2.35-0.68,3.32c-1.33,0.26-2.66,0.53-3.99,0.79c-0.01,1.7,1.79,2.21,1.91,3.64
		c-1.66-0.51-2.54-2.65-4.65-2.24C58.74,75.77,59.62,73.06,57.46,71.3z"/>
	<path class="st4" d="M214.82,31.56c-0.21-0.01-0.4,0.04-0.57,0.16c-0.48,0.21-0.54,0.7-0.71,1.12c-0.15,1.01-0.19,2,0.09,2.99
		c0.23,0.57,0.06,1.26,0.51,1.78c-0.28,1.97,0.59,4.06-0.58,5.95c-0.82,0.14-0.25,2.35-1.89,1.29c-0.09-3.4-0.09-6.83-0.98-10.14
		c-0.33-1.25-0.43-2.7-1.74-3.5c-1.42-1.18-1.92-2.58-1-4.31c1.46-1.45,3.19-1.68,5.09-1.12c1.17,0.59,1.16,1.87,1.65,2.86
		c0.35,0.82,0.83,1.61,0.5,2.56C215.07,31.31,214.94,31.44,214.82,31.56z"/>
	<path class="st4" d="M75.89,39.09c-0.16,1.49,0.44,3.08-0.59,4.45c-0.8,0.17-0.21,2.36-1.87,1.28c-0.08-3.4-0.09-6.82-0.97-10.13
		c-0.33-1.25-0.43-2.7-1.73-3.5c-1.41-1.17-1.91-2.55-1.04-4.27c1.43-1.42,3.08-1.76,4.96-1.04c1.07,0.25,1.3,1.18,1.66,2.01
		c0.3,0.79,0.63,1.57,0.72,2.43c-0.01,0.33-0.1,0.65-0.25,0.94c-0.34,0.55-0.75,1.05-1.07,1.62c-0.67,1.07-0.58,2.19-0.2,3.32
		C75.71,37.16,75.29,38.19,75.89,39.09z"/>
	<path class="st11" d="M126.05,28.5c0.04,0.37-0.03,0.8,0.14,1.09c2.04,3.57,1.51,6.3-2.5,7.95c-0.77,0.29-1.21-0.1-1.51-0.76
		c-1-1.62-2.15-3.18-2.3-5.18C121.51,29.72,123.28,28.1,126.05,28.5z"/>
	<path class="st3" d="M75.96,83.23c-0.25,0.5-0.51,1.01-0.76,1.51c-1.06,1.01,0.65,3.48-1.94,3.68c-0.06-0.49-0.12-0.98-0.19-1.47
		c0.37-4.15-0.22-8.16-1.58-12.08c-1.45-1.9-4.5-3.38-1.73-6.42c1.46-1.26,3.04-1.1,4.66-0.4c1.31,1.47,1.46,3.27,1.43,5.12
		c-0.33,1.28-0.46,2.58-0.43,3.9c0.03,1.24-0.1,2.48,0,3.72C75.75,81.56,75.25,82.53,75.96,83.23z"/>
	<path class="st12" d="M55.92,119.71c3.28,1.26,2.25,4.38,2.92,6.77c-1.26,0.61-2.53,1.22-3.79,1.84c-1.13-1.67-2.62-3.13-3.01-5.23
		C53.1,121.71,54.17,120.32,55.92,119.71z"/>
	<path class="st13" d="M197.13,79.68c0.9,2.4,0.33,4.8-0.02,7.2c-1.44,0.28-2.88,0.56-4.32,0.83c-0.43-1.73-0.87-3.46-1.3-5.19
		c-0.15-0.28-0.09-0.54,0.13-0.76C193.2,80.38,194.86,79.23,197.13,79.68z"/>
	<path class="st11" d="M126.02,70.81c0.7,2.27,1.59,4.49,1.57,6.92c-1.22,0.58-2.44,1.17-3.66,1.75c-1.01-1.71-2.01-3.42-3.02-5.13
		C122.25,72.65,123.42,70.68,126.02,70.81z"/>
	<path class="st14" d="M85.02,112.41c1.81,1.29,1.82,2.88,0.79,4.66c-0.43,0.24-0.82,0.54-1.31,0.65c-1.06,0.18-2.21,0.14-2.97,1.14
		c-0.59,0.6-1.16,1.21-2,1.48c-2.67-0.07-1.73-2.1-1.9-3.53c0.41-2.07,1.71-3.53,3.3-4.79C82.4,111.08,83.68,112.1,85.02,112.41z"/>
	<path class="st15" d="M194.95,28.77c1.39,1.93,1.34,4.29,1.91,6.47c-1.19,0.74-2.37,1.47-3.56,2.21c-1.31-1.58-2.66-3.13-3.17-5.2
		C191.32,30.51,192.63,28.93,194.95,28.77z"/>
	<path class="st15" d="M56.72,28.78c1.19,1.99,1.37,4.27,1.89,6.46c-1.18,0.74-2.36,1.48-3.54,2.22c-1.32-1.58-2.67-3.14-3.17-5.21
		C53.08,30.5,54.38,28.92,56.72,28.78z"/>
	<path class="st16" d="M86.36,24.06c0.3,1.16,0.55,2.31-0.62,3.18c-1.41,0.53-2.75,1.2-4.09,1.89c-0.74,0.47-1.37,1.11-2.25,1.34
		c-0.58,0.07-1.1-0.05-1.52-0.49c-0.31-0.49-0.44-1.04-0.45-1.62c0.01-0.49,0.08-0.97,0.23-1.44
		C79.36,21.49,81.79,20.68,86.36,24.06z"/>
	<path class="st17" d="M96.17,40.74c-1.41,1.66-0.38,2.62,1,3.47c-0.59,1.15-2.01,1.96-1.59,3.54c0.22,0.81,0.86,1.71-0.66,1.82
		c-1.08,0.07-2.09-0.33-2.28-1.42c-0.36-2.04-0.87-4.19-0.58-6.18C92.44,39.33,94.29,39.47,96.17,40.74z"/>
	<path class="st18" d="M97.75,84.85c-0.25,1.31-1.12,2.5-0.73,3.94c0.19,0.71,1.23,1.58-0.24,2.04c-0.88,0.27-1.77,0.05-2.32-0.72
		c-1.37-1.97-1.9-4.24-2.09-6.58c-0.07-0.82,0.49-1.44,1.27-1.59c1.06-0.2,2.3-0.54,2.53,1.17c0,0-0.12,0.12-0.12,0.12
		C95.51,84.94,97.54,83.94,97.75,84.85z"/>
	<path class="st19" d="M70.01,69c-2.52,3.11,1.87,3.29,2.2,5.2c-0.45,0.49-0.07,1.38-0.81,1.73c-1.51,0.81-2.98,0.93-4.41-0.19
		c-0.82-1.3,0.01-2.83-0.56-4.17c-0.19-0.83-0.3-1.69-0.77-2.44c-0.11-0.08-0.22-0.14-0.35-0.19c0.52-0.25,1.05-0.49,1.58-0.74
		C68.05,67.94,69.41,66.98,70.01,69z"/>
	<path class="st20" d="M213.43,84.59c0.72-0.2,1.44-0.4,2.16-0.6c0.25,0.52,0.49,1.04,0.74,1.56c1,2.13,1.76,4.28,0.91,6.66
		c-0.91-0.23-1.82-0.47-2.73-0.7c-1.35-0.57-2.54-1.5-4.04-1.71c-0.3-0.18-0.53-0.43-0.69-0.74c0-0.38,0-0.77,0-1.15
		C210.88,86.69,211.37,84.77,213.43,84.59z"/>
	<path class="st18" d="M47.65,85.45c1.93-0.3,2.91-2,4.36-2.99c1.51-0.23,1.63,0.97,1.99,1.92c0.03,0.33-0.02,0.65-0.12,0.96
		c-0.34,0.65-1.07,1.01-1.33,1.73c-0.1,0.26-0.24,0.49-0.41,0.71c-1.37,0.53-2.73,1.05-4.1,1.58c-0.88,0.34-1.88,1.35-2.65,0.27
		c-0.77-1.08,0.1-2.1,0.89-2.92C46.72,86.28,47.2,85.88,47.65,85.45z"/>
	<path class="st21" d="M135.78,75.76c0.02-0.28,0.05-0.56,0.07-0.84c0.89-1.91-0.47-3.93,0.26-5.85c0.87-1.03,1.93-1.46,3.26-1.06
		c0.38,0.3,0.43,0.65,0.15,1.05c-0.33,1.49-1.3,3.01,1.19,3.81c1.95,0.63,0.4,2,0.2,3.06C139.15,77.13,137.47,76.11,135.78,75.76z"
		/>
	<path class="st22" d="M27.02,83.32c-0.54,1.29-0.53,2.39,1.04,2.92c-0.44,1.36-1.77,2.34-1.62,3.96c0.06,0.66,0.55,1.55-0.42,1.86
		c-1.08,0.35-1.81-0.33-2.32-1.25c-0.76-2.86-0.43-5.61,0.78-8.28C25.44,82.44,26.31,82.64,27.02,83.32z"/>
	<path class="st23" d="M80.43,127.49c-1.02,0.77-0.76-0.83-1.41-0.76c-0.87-0.53-1.1-1.45-1.38-2.33c-0.17-0.77-0.15-1.52,0.15-2.25
		c0.45-0.94,1.27-1.44,2.18-1.85c1.62-0.65,3.22-1.62,4.96-0.3c-0.31,1.7-1.02,3.2-2.19,4.47
		C81.77,125.33,81.15,126.45,80.43,127.49z"/>
	<path class="st24" d="M191.62,81.76c-0.04,0.25-0.08,0.51-0.13,0.76c-6.66,2.58-13.6,1.55-20.43,1.37
		c-1.77-0.05-3.86,1.99-5.43-0.47C174.25,82.31,183.1,84.57,191.62,81.76z"/>
	<path class="st25" d="M134.28,33.68c0.01-0.25,0.02-0.49,0.05-0.73c0.84-1.8-0.3-3.68,0.24-5.5c1.07-0.99,2.1-1.67,2.7,0.42
		c0.02,0.85-0.13,1.89,0.87,2.21c2.19,0.7,1.79,2.17,1.27,3.73C137.68,34.74,135.98,34.07,134.28,33.68z"/>
	<path class="st21" d="M208.25,27.06c0.06,1.39-0.52,3.04,1.5,3.61c2.17,1.25,0.77,2.49,0,3.73c-1.62,0.57-3.05-0.32-4.55-0.61
		c0.01-0.25,0.03-0.51,0.04-0.76c0.89-1.23-0.28-2.46-0.02-3.69c0.23-0.86-0.72-1.86,0.3-2.63
		C206.48,26.42,207.44,26.14,208.25,27.06z"/>
	<path class="st26" d="M69.99,116.96c0.16,1.43-0.61,2.95,1.46,4c1.92,0.97-0.14,2.17-0.55,3.25c-1.15,0.56-2.23,0.48-3.2-0.41
		c-1.26-2.29-1.22-4.68-0.54-7.13C68.15,116.39,69.13,116.04,69.99,116.96z"/>
	<path class="st21" d="M70.02,27.05c0.06,1.39-0.52,3.05,1.5,3.62c1.55,1.53,1.48,1.97-0.63,3.56c-1.42,0.89-2.61-0.36-3.93-0.43
		c0.01-0.25,0.03-0.51,0.04-0.76c0.9-1.23-0.25-2.44-0.05-3.67c-0.04-0.89-0.8-1.86,0.27-2.64C68.2,26.45,69.19,26.13,70.02,27.05z"
		/>
	<path class="st27" d="M119.49,42.13c-1.14,0.64-2.27,1.29-1.35,2.89c-1.1,0.32-2.19,0.64-3.29,0.95c-0.71,0.18-1.42,0.31-2.12,0.52
		c-0.98,0.29-1.35-0.21-1.15-1.14c0.35-1.61,5.18-5.17,7.15-5.29C119.58,40.53,119.89,41.2,119.49,42.13z"/>
	<path class="st28" d="M86.36,24.06c-0.12,0.04-0.26,0.15-0.35,0.12c-5.67-2.32-5.97-2.16-7.82,4.36c-0.75,0.33-1.59-1.8-2.29,0.08
		c-0.77-0.59-0.66-1.46-0.71-2.28c-0.26-0.17-0.34-0.33-0.24-0.48c0.09-0.14,0.19-0.21,0.28-0.21c1.68-1.17,2.85-3.01,4.85-3.76
		C82.76,20.89,85.07,21,86.36,24.06z"/>
	<path class="st29" d="M51.98,87.01c-0.2-1.17-0.2-1.17,1.42-1.58c2.78-0.09,5.57-1.05,8.34,0.05c1.28,0.65,4.24,0.18,2.09,3.13
		c-1.73-0.09-3.53,0.31-5.07-0.86C56.59,86.7,54.17,87.97,51.98,87.01z"/>
	<path class="st30" d="M224.49,26.25c-0.88,2.06-2.7,3.23-4.31,4.61c-0.97,0.52-1.75,1.4-2.9,1.6c-0.3-0.19-0.51-0.45-0.63-0.78
		c0.28-3.86,2.96-5.46,6.16-6.56C223.68,25.05,224.19,25.5,224.49,26.25z"/>
	<path class="st31" d="M164.84,88.55c-0.41,1.12,1.15,3.15-0.9,3.32c-1.82,0.15-2.58-1.66-2.67-3.42c-0.07-1.36-0.06-2.73-0.01-4.09
		c0.05-1.33,0.23-2.62,2.14-1.91c0.6,1.42-0.05,2.88,0.1,4.33C163.6,87.76,163.84,88.37,164.84,88.55z"/>
	<path class="st32" d="M164.84,88.55c-0.47,0.64-0.94,1.28-1.7,2.32c-0.75-3.15-0.89-5.8,0.26-8.43c0.52,0.3,1.04,0.59,1.56,0.89
		c-0.25,1.09-1.24,2.57,1.18,2.27c0.56,0.06,0.65,0.3,0.28,0.73C165.89,87.06,165.36,87.81,164.84,88.55z"/>
	<path class="st33" d="M24.51,40.52c0.74-0.01,1.48-0.03,2.23-0.04c-0.22,1.44,1.33,1.83,1.73,2.9c-0.24,1.34-1.31,2.61-0.39,4.07
		c-0.44,1.45-1.75,1.18-2.14,0.48C24.7,45.67,22.81,43.4,24.51,40.52z"/>
	<path class="st34" d="M28.06,138.17c0.07,1.67-0.23,1.98-1.49,1.57c-1.64-0.55-4.31-6.75-3.35-8.15c0.86-1.25,2.13-1.59,3.43-0.41
		C25.23,134.04,25.7,136.4,28.06,138.17z"/>
	<path class="st35" d="M70.9,34.23c0.69-1.1,2.22-2.05,0.63-3.55c1.42-0.87,1.38,0.25,1.43,1.1c0.27,4.42,1.13,8.8,0.76,13.25
		c0.63,0.78,0.66,1.56-0.03,2.32c-1.52-3.2-0.44-6.75-1.34-10.05C72.03,36.16,72.4,34.78,70.9,34.23z"/>
	<path class="st35" d="M209.75,34.4c-0.05-1.24,1.53-2.49,0-3.73c1.42-0.87,1.38,0.25,1.43,1.1c0.27,4.42,1.13,8.8,0.76,13.25
		c0.63,0.77,0.66,1.54-0.02,2.31c-1.5-3.24-0.43-6.83-1.35-10.16C210.31,36.24,210.54,35.18,209.75,34.4z"/>
	<path class="st33" d="M166.71,43.4c-0.89,1.29-1.77,2.57-0.42,4.09c-0.48,1.4-1.77,1.13-2.15,0.42c-1.2-2.26-3.11-4.52-1.4-7.38
		c0.75-0.02,1.49-0.04,2.24-0.07C164.75,41.92,166.29,42.32,166.71,43.4z"/>
	<path class="st23" d="M79.65,77.17c0.01,1.69,0.09,3.38,0.01,5.06c-0.09,1.65-0.78,2.2-2.15,0.87c1.08-2.63-1.64-4.79-0.91-7.38
		c0.09-0.61,0.31-1.17,0.74-1.62C80.39,73.39,78.68,76.3,79.65,77.17z"/>
	<path class="st36" d="M217.26,32.39c0.73-0.97,1.45-1.99,2.93-1.53c-0.87,2.98-1.26,6.12-2.89,9.2c-0.1-0.85-0.17-1.44-0.23-2.03
		c-1.49-1.03-0.48-2.53-0.73-3.79C216.44,33.52,216.57,32.81,217.26,32.39z"/>
	<path class="st37" d="M208.25,27.06c-1.02,0.01-2.04,0.02-3.07,0.02c-0.19,0.32-0.41,0.34-0.65,0.06c-0.03-0.17-0.06-0.34-0.1-0.51
		c2.88-1.15,5.57-3.32,8.98-1.73c0.46,0.48,0.39,0.95-0.02,1.42C211.61,26.03,209.94,26.57,208.25,27.06z"/>
	<path class="st38" d="M71.39,75.93c0.09-0.66,0.19-1.32,0.81-1.73c0.95,4.2,2.47,8.37,0.87,12.75
		C72.51,83.27,71.95,79.6,71.39,75.93z"/>
	<path class="st39" d="M118.7,40.43c-3.6,0.01-4.21,3.78-6.6,5.55c0.92,0,1.84,0,2.76,0c-1.12,0.67-2.52,2.05-3.54,0.86
		c-1.24-1.46,0.46-2.62,1.43-3.7c0.99-1.1,1.96-2.23,2.94-3.34c0.87-0.23,1.74-0.46,2.61-0.69
		C118.93,39.39,118.95,39.87,118.7,40.43z"/>
	<path class="st40" d="M28.06,138.17c-0.1,0.08-0.19,0.22-0.29,0.22c-3.71-0.08-2.13-3.38-3.02-5.15c-0.87-1.74,0.52-2.05,1.9-2.06
		c0,0,0.26-0.03,0.26-0.03c-0.34,1.46,0.57,2.23,1.61,2.93C28.31,135.44,26.42,136.6,28.06,138.17z"/>
	<path class="st37" d="M75.23,25.64c0,0.23-0.02,0.46-0.04,0.69c-1.8-0.32-3.48,0.24-5.16,0.72c-1.02,0.01-2.05,0.02-3.07,0.03
		c-0.19,0.31-0.41,0.34-0.65,0.05c-0.03-0.17-0.06-0.35-0.1-0.52C69.16,25.78,71.85,22.51,75.23,25.64z"/>
	<path class="st6" d="M143.89,25.52c0.24-0.48,0.48-0.97,0.72-1.45c3.8-3.24,6.41-3.28,9.22-0.14c-0.13,0.11-0.27,0.22-0.4,0.34
		c-0.12,0.01-0.25,0.05-0.36,0.03c-4.76-0.93-4.76-0.93-7.4,3.65c-0.34,0.13-0.68,0.13-1.02,0.02
		C143.88,27.3,143.99,26.38,143.89,25.52z"/>
	<path class="st31" d="M162.74,40.53c-0.34,2.01,0.58,3.82,0.97,5.7c0.25,1.17,0.94,2.44,2.57,1.26c0.68,2.18-0.94,1.55-1.79,1.29
		c-1.92-0.6-3.8-6.7-2.68-8.47C161.87,40.22,162.42,40.45,162.74,40.53z"/>
	<path class="st31" d="M24.51,40.52c-0.35,2.02,0.57,3.85,0.98,5.73c0.25,1.19,0.98,2.44,2.59,1.2c0.51,2.64-1.29,1.54-2.17,1.17
		c-1.53-0.64-3.35-6.5-2.61-8.1C23.53,40.02,24.1,40.06,24.51,40.52z"/>
	<path class="st41" d="M84.92,119.99c-1.85-0.48-3.34,1.32-5.2,0.81c-0.2-0.17-0.28-0.36-0.24-0.55c0.04-0.2,0.09-0.31,0.15-0.31
		c0.51-0.52,1.02-1.04,1.53-1.56c0.8-0.91,2.08-0.78,3.01-1.42c0.55,0.03,1.09,0.07,1.64,0.1C85.69,118.1,86,119.26,84.92,119.99z"
		/>
	<path class="st28" d="M78.19,30.05c0.49,0,0.97-0.01,1.46-0.01c0.22,0.25,0.31,0.54,0.27,0.87c-0.31,0.88-0.81,1.7-0.83,2.68
		c-0.06,0.65-0.11,1.3-0.53,1.84c-0.13,1.2-0.27,2.39-0.4,3.59c-0.23,0.37-0.45,0.37-0.68-0.01c-1.39-1.5-0.47-3.43-0.96-5.09
		c-0.87-1.04-0.36-2.08,0.03-3.11l0.25-0.05C77.14,30.27,77.59,30.01,78.19,30.05z"/>
	<path class="st42" d="M222.16,84.6c1.67-1.91,4.31-3.33,3.23-6.59c1.95,3.87,0.18,6.88-2.24,9.74c-0.26,0.29-0.54,0.32-0.85,0.09
		C221.78,86.78,222.87,85.65,222.16,84.6z"/>
	<path class="st43" d="M69.99,116.96c-1.01,0.02-2.02,0.04-3.03,0.07c-0.33,0.2-0.62,0.14-0.87-0.15c2.4-1.25,4.59-3.25,7.65-2.17
		c0.15,0.66,0.62,1.51-0.65,1.48C71.97,116.17,70.97,116.47,69.99,116.96z"/>
	<path class="st44" d="M143.07,42.05c0.01-1.01,0.02-2.01,0.02-3.02c-0.31-0.87-0.58-1.74,0.39-2.4c0.35-0.02,0.64,0.13,0.85,0.39
		c0.34,0.14-0.01,0.98,0.74,0.74c0.11-0.23,0.28-0.34,0.51-0.35c1.46,0.86,1.57,2.73,0.05,3.9c-0.71,0.54-1.82,0.55-2.32,1.5
		c-0.27-0.1-0.4-0.24-0.38-0.44C142.95,42.16,143,42.05,143.07,42.05z"/>
	<path class="st45" d="M211.92,47.33c0.01-0.77,0.01-1.54,0.02-2.31c0.54-0.49,1.08-0.98,1.62-1.47c-0.3,2.04,0.02,3.76,2.33,4.42
		c-0.12,0.26-0.25,0.51-0.36,0.77c-0.07,0.64,0.96,1.49-0.35,1.89c-0.85-0.06-1.75,0.21-2.54-0.31
		C211.53,49.53,212.09,48.34,211.92,47.33z"/>
	<path class="st45" d="M153.56,27.75c-0.63,1.73-2.57,1.85-3.67,3.01c-0.94,0.47-1.91,0.86-2.92,1.15
		c-1.37-0.43-0.92-1.27-0.48-2.11c0.98-1.35,2.45-1.94,3.93-2.51C151.52,27.02,152.73,26.12,153.56,27.75z"/>
	<path class="st35" d="M148.41,72.76c1.6-2.42,4.06-3.28,6.75-3.73c-0.94,2.05-3.1,2.86-4.49,4.45
		C149.71,73.91,148.98,73.57,148.41,72.76z"/>
	<path class="st45" d="M84.94,69.03c-0.64,1.86-2.66,2.37-3.71,3.82c-1.15,0.63-2.26,1.45-3.7,0.86c0.25-3.64,3.55-3.9,5.84-5.28
		C83.98,68.41,84.52,68.55,84.94,69.03z"/>
	<path class="st35" d="M73.68,47.35c0.01-0.77,0.02-1.55,0.03-2.32c0.53-0.49,1.06-0.99,1.59-1.48c-0.01,0.93-0.03,1.86-0.04,2.8
		c0.31,0.55,0.97,0.82,1.17,1.45c0.03,1.23,2.35,0.86,1.75,2.52c-1.27,0.51-2.53,0.47-3.8,0.02C73.31,49.54,73.86,48.36,73.68,47.35
		z"/>
	<path class="st46" d="M70.01,69c-0.83-1.12-2.08-0.55-3.13-0.8c2.39-1.36,4.72-3.41,7.51-0.75c0.21,0.19,0.27,0.37,0.19,0.55
		c-0.08,0.17-0.16,0.25-0.24,0.25C72.84,68.2,71.34,68.11,70.01,69z"/>
	<path class="st47" d="M217.23,92.21c-0.66-2.17-1.06-4.38-0.91-6.66c0.42-0.55,0.85-1.1,1.27-1.64c1.02,0.94-0.59,2.15,0.33,3.09
		c0.98,0.89,0.8,2.25,1.37,3.31c0.16,0.32,0.27,0.66,0.35,1.01c0,0.18,0,0.36-0.01,0.54c-0.43,0.82-1.05,0.87-1.78,0.44
		C217.64,92.28,217.44,92.25,217.23,92.21z"/>
	<path class="st25" d="M137.27,27.86c-0.73-0.99-1.49-1.07-2.28-0.08c-0.81,0.52-1.04-0.19-1.4-0.65c-0.04-0.21-0.07-0.43-0.11-0.64
		c0.25-0.1,0.5-0.2,0.75-0.31c1.28-0.45,2.68-0.55,3.83-1.38c0.93-0.63,1.93-0.77,3-0.42C140.71,26.55,138.16,26.3,137.27,27.86z"/>
	<path class="st7" d="M75.4,136.37c0.93,0.24,2.07,0.17,2.21,1.55c-0.53,0.52-1.07,1.04,0,1.57c0.13,1.26-1.22,0.85-1.65,1.47
		c-2.33-0.28-2.15-2.1-2.29-3.73c0,0,0.12-0.15,0.12-0.15C74.19,136.53,74.52,135.82,75.4,136.37z"/>
	<path class="st48" d="M144.03,37.53c-0.12-0.17-0.19-0.35-0.22-0.55c-1.36-1.37-1.12-2.98-0.71-4.62c0.05-0.53,0.09-1.06,0.14-1.58
		c0.52-0.44,1.1-0.55,1.75-0.35c1.07,0.72,1.19,1.61,0.47,2.65c0.01,0.23,0,0.46-0.03,0.68c-0.78,1.13-0.1,2.46-0.48,3.65
		C144.67,37.71,144.36,37.75,144.03,37.53z"/>
	<path class="st49" d="M79.63,119.94c0.03,0.29,0.06,0.57,0.09,0.86c-0.5,0.49-1,0.97-1.5,1.46c-0.66-0.16-1.1-0.56-1.36-1.18
		c-0.31-2.19-1.62-4.34-0.24-6.59c0.25-0.25,0.5-0.5,0.74-0.74c1.26,0.82,0.37,2.19,0.82,3.22
		C79.23,117.69,77.32,119.84,79.63,119.94z"/>
	<path class="st50" d="M76.62,114.49c0.27,2.32,0.55,4.65,0.82,6.97c-0.33,0.38-0.75,0.46-1.21,0.35c-0.12-0.09-0.24-0.18-0.37-0.26
		c0.31-2.23-1.69-4.48,0.06-6.7C76.15,114.72,76.39,114.61,76.62,114.49z"/>
	<path class="st51" d="M66.09,116.87c0.29,0.05,0.58,0.1,0.87,0.15c1.07,2.17,0.32,4.53,0.74,6.77c-0.47-0.02-0.94-0.04-1.41-0.06
		c0.02-2.22-0.01-4.44-0.75-6.57C65.68,116.98,65.86,116.88,66.09,116.87z"/>
	<path class="st52" d="M210.44,89.27c1.79-0.04,3.75-0.4,4.06,2.24c-0.91,1.05-2.11,0.88-3.29,0.79
		C210.32,91.45,210.2,90.41,210.44,89.27z"/>
	<path class="st53" d="M24.49,82.53c-0.26,2.76-0.52,5.52-0.79,8.28C22.98,87.96,21.44,85.03,24.49,82.53z"/>
	<path class="st35" d="M144.68,88.49c-1.28-3.95-0.98-7.93-0.17-11.92C144.56,80.55,144.62,84.52,144.68,88.49z"/>
	<path class="st5" d="M78.19,116.97c-1.12-0.86-0.61-2.13-0.82-3.22c0.31-0.63,0.68-1.2,1.46-1.33c0.8-0.37,1.59-0.55,2.36,0.06
		C80.18,113.97,79.19,115.47,78.19,116.97z"/>
	<path class="st54" d="M77.35,75.75c-0.4,2.46,2.12,4.86,0.16,7.35c0.01-1.03-0.1-2.03-0.83-2.84c-1.03-0.84-1.5-1.9-1.28-3.24
		c0.1-0.34,0.27-0.65,0.5-0.92C76.32,75.74,76.78,75.54,77.35,75.75z"/>
	<path class="st30" d="M217.26,32.39c-0.08,0.71-0.17,1.43-0.25,2.14c-0.65,0.62-1.31,0.59-1.97,0c-0.07-0.99-0.15-1.98-0.22-2.98
		c0,0,0.27-0.14,0.27-0.14c0.09-0.23,0.18-0.46,0.18-0.7c0-1.02-0.71-2.74,0.66-2.76c1.77-0.02,0.89,1.75,0.87,2.82
		c-0.01,0.49,0.02,0.97,0.3,1.39L217.26,32.39z"/>
	<path class="st55" d="M75.95,140.96c0.5-0.51,1.01-1.02,1.51-1.53c0.32-0.62,0.94-0.75,1.53-0.91c0.91,0.53,1.81,1.06,2.98,1.74
		C79.91,141.56,77.88,140.84,75.95,140.96z"/>
	<path class="st52" d="M74.39,50.33c1.24-0.3,2.69,0.47,3.75-0.74c0.26-0.28,0.55-0.33,0.87-0.11c0.89,0.16,1.95-0.2,2.89,1.15
		C79.16,51.16,76.77,51.77,74.39,50.33z"/>
	<path class="st52" d="M212.63,50.32c1.01-0.02,2.03-0.03,3.04-0.05c0.26-0.35,0.36-0.83,0.8-1.04c0.31-0.08,0.57,0,0.78,0.24
		c0.86,0.25,2.01-0.36,2.7,1.19C217.39,51.16,215,51.78,212.63,50.32z"/>
	<path class="st5" d="M74.34,68.26c0.02-0.27,0.03-0.53,0.05-0.8c0.27-0.23,0.54-0.47,0.8-0.7c0.69-0.24,1.03,0.19,1.31,0.7
		c0.19,2.13,1.62,4.43-0.84,6.21c-0.18-0.03-0.37-0.06-0.56-0.1C74.85,71.8,74.6,70.03,74.34,68.26z"/>
	<path class="st56" d="M79.07,91.4c0.88,0.15,1.92-0.14,2.89,1.18c-2.75,0.3-5.12,1.31-7.46-0.35c0.97-1.05,2.33-0.91,3.56-1.18
		C78.43,91.06,78.77,91.18,79.07,91.4z"/>
	<path class="st38" d="M81.19,28.59c1.44-0.71,2.66-2.19,4.55-1.35c-0.27,1.18-0.95,1.93-2.17,2.13
		C82.58,29.73,81.53,30.26,81.19,28.59z"/>
	<path class="st57" d="M75.4,121.5c0.15,0.06,0.3,0.08,0.46,0.05c0,0,0.11-0.08,0.11-0.08c1.34,1.81,1.08,4.13,1.95,6.09
		c0.04,0.43-0.12,0.78-0.47,1.03c0,0,0.04,0.02,0.04,0.02c-1.75,0.57-1.99-0.68-2.26-1.89C74.77,124.96,74.41,123.2,75.4,121.5z"/>
	<path class="st30" d="M216.36,23.25c2.14-1.99,4.39-3.07,7.02-0.81c-0.2,0.32-0.47,0.56-0.82,0.72c-0.87,0.31-1.78,0.3-2.69,0.36
		c-1.04-0.01-2.07,0.47-3.13,0.09C216.62,23.49,216.49,23.37,216.36,23.25z"/>
	<path class="st58" d="M148.41,72.76c0.75,0.24,1.51,0.48,2.26,0.72c-0.86,0.96-0.56,3.6-3.09,2.16
		C147.8,74.67,147.34,73.5,148.41,72.76z"/>
	<path class="st59" d="M76.55,30.81c-0.01,1.04-0.02,2.07-0.03,3.11c-1.18,1.61-0.16,3.48-0.63,5.18c-0.91-0.87-0.51-2.05-0.74-3.09
		c-0.48-1.23-0.48-2.46,0-3.68C75.62,31.82,76.09,31.31,76.55,30.81z"/>
	<path class="st30" d="M213.41,26.32c0.01-0.47,0.01-0.95,0.02-1.42c1.3,0.02,1.92-1.17,2.94-1.65c0,0,0.18,0.18,0.18,0.18
		c0.35,0.46,0.39,0.97,0.26,1.5c-0.75,1.53-1.77,2.9-2.63,4.36C213.13,28.5,213.54,27.34,213.41,26.32z"/>
	<path class="st60" d="M139.5,69.06c-0.02-0.27-0.03-0.53-0.05-0.8c-0.48-0.88,0.34-1.08,0.77-1.48c0.99-0.71,1.98-0.64,2.99-0.03
		c0.16,0.66,0.64,1.5-0.65,1.47C141.45,68.2,140.42,68.41,139.5,69.06z"/>
	<path class="st61" d="M79.01,49.48c-0.29,0.04-0.58,0.08-0.87,0.11c-0.63-0.68-3.11,1.17-2.21-1.62c0.59-0.45,1.17-0.41,1.74,0.04
		c0.77-0.77,1.51-0.4,2.1,0.2C79.85,48.31,79.28,49.04,79.01,49.48z"/>
	<path class="st8" d="M28.52,134.08c-2.37,0.04-3.27-0.74-1.61-2.93c0.65,0.05,1.3,0.09,1.95,0.14c-0.28,0.34-0.85,0.8-0.77,1
		c0.31,0.81,1.17,0.25,1.75,0.49C29.4,133.22,28.96,133.65,28.52,134.08z"/>
	<path class="st24" d="M166.42,86.32c-0.09-0.24-0.19-0.48-0.28-0.73c3.32,0.16,6.73-0.9,9.95,0.68
		C172.86,86.29,169.64,86.31,166.42,86.32z"/>
	<path class="st3" d="M210.44,89.27c0.54,0.93,0.86,1.93,0.77,3.03c-2.3,0.29-3.24-1.16-3.86-3.03c0.78-0.38,1.83,2.58,2.41-0.2
		C209.99,89.15,210.21,89.22,210.44,89.27z"/>
	<path class="st2" d="M143.07,42.05c0.08,0.25,0.16,0.51,0.24,0.76c-1.28,3,1.61,3.66,2.92,5.21c-1.32,1.05-2.26,0.5-3.03-0.73
		C141.97,45.57,142.14,43.82,143.07,42.05z"/>
	<path class="st48" d="M78.13,64.46c2.48-1.62,4.81-1.94,6.77,0.82c-0.12,0.1-0.24,0.21-0.37,0.31c-0.47,0.17-0.94,0.16-1.42,0.06
		c-1.07-0.3-2.18-0.3-3.29-0.35c-0.5-0.05-0.97-0.18-1.39-0.45C78.33,64.72,78.23,64.59,78.13,64.46z"/>
	<path class="st6" d="M153.56,27.75c-0.98-0.71-1.92,0.11-2.89,0.08c-0.19-2.15,1.56-2.79,2.91-3.74c0,0,0.24-0.16,0.24-0.16
		C154.86,25.28,154.63,26.54,153.56,27.75z"/>
	<path class="st59" d="M143.19,47.28c0.95,0.51,1.92,0.91,3.03,0.73c0.39-0.09,0.94-0.65,1.15-0.1c0.31,0.81-0.91,0.84-1.07,1.51
		C144.71,49.52,142.98,49.82,143.19,47.28z"/>
	<path class="st62" d="M78.19,91.51c-1.04,1.21-2.45,0.56-3.69,0.72c-0.82-0.58-0.75-1.42-0.68-2.27c0.57-0.59,1.24-0.57,1.95-0.31
		C76.58,90.26,77.53,90.71,78.19,91.51z"/>
	<path class="st3" d="M166.71,43.4c-0.72-0.9-3.69-0.45-1.73-2.94c0.75-0.56,1.41,0.12,2.12,0.13c-0.28,0.34-0.85,0.79-0.78,1.01
		c0.29,0.84,1.16,0.25,1.73,0.51C167.6,42.54,167.15,42.97,166.71,43.4z"/>
	<path class="st29" d="M217.85,92.3c0.49-0.21,0.98-0.42,1.47-0.63c0.46-0.61,1-0.65,1.62-0.26c0.66,0.16,1.72-0.14,1.86,0.67
		c0.16,0.98-0.86,0.98-1.53,0.9C220.11,92.85,218.84,93.25,217.85,92.3z"/>
	<path class="st63" d="M75.95,89.99c-0.71-0.01-1.42-0.02-2.13-0.03c-0.19-0.51-0.38-1.02-0.57-1.54c1.64-0.7,0.68-2.78,1.94-3.68
		c0.02,1.2,0.04,2.41,0.05,3.61c0.27,0.4,0.73,0.67,0.86,1.17C76.06,89.68,76.01,89.84,75.95,89.99z"/>
	<path class="st3" d="M28.46,43.39c-0.74-0.87-3.68-0.42-1.73-2.9c0.74-0.56,1.42,0.09,2.13,0.11c-0.28,0.34-0.85,0.78-0.78,1.01
		c0.28,0.84,1.15,0.26,1.72,0.51C29.36,42.53,28.91,42.96,28.46,43.39z"/>
	<path class="st64" d="M81.18,112.47c-0.79-0.02-1.57-0.04-2.36-0.06c2.07-1.56,4.13-1.92,6.2,0
		C83.75,112.8,82.45,111.62,81.18,112.47z"/>
	<path class="st65" d="M215.04,34.53c0.66,0,1.31,0,1.97,0c0.85,1.15-1.19,2.35,0.05,3.5C215.31,37.49,215.11,36.05,215.04,34.53z"
		/>
	<path class="st29" d="M81.19,28.59c0.59,0.88,1.55,0.63,2.39,0.78c-0.64,0.91-1.3,1.79-2.38,2.23c-0.66,0.01-1.19-0.24-1.54-0.82
		c0-0.25-0.01-0.5-0.01-0.75C80.16,29.55,80.68,29.07,81.19,28.59z"/>
	<path class="st55" d="M147.7,91.48c-1.2-0.08-2.24-0.49-2.99-1.48c0.77-1.09,2.09,0.08,2.94-0.72c0.56,0.08,1.54,0.05,1.59,0.25
		C149.55,90.73,147.81,90.47,147.7,91.48z"/>
	<path class="st66" d="M75.73,76.59c0.31,1.23,0.63,2.45,0.94,3.68c-1.09,0.78-0.55,1.96-0.71,2.97c-0.82-0.56-0.62-1.48-0.82-2.26
		c-0.57-1.07-0.19-2.22-0.29-3.33C74.89,77.07,74.9,76.49,75.73,76.59z"/>
	<path class="st67" d="M79.66,30.79c0.59,0.12,1.23,0.16,1.54,0.82c0,0.58-0.1,1.12-0.65,1.46c-0.24,0.22-0.52,0.39-0.83,0.5
		c-0.51,0.05-0.96-0.09-1.34-0.45C78.01,31.89,78.76,31.3,79.66,30.79z"/>
	<path class="st68" d="M78.19,91.51c-1.03-0.08-2.2,0.04-2.24-1.52c0,0-0.03-0.03-0.03-0.03c0.57-0.47,1.14-0.43,1.71,0.01
		c0.47-0.32,1-0.82,1.53-0.44c0.77,0.56-0.05,1.23-0.09,1.86C78.78,91.44,78.49,91.47,78.19,91.51z"/>
	<path class="st69" d="M145.45,33.08c-0.08-0.82,0.12-1.73-0.75-2.29c-0.75-0.99-0.92-1.99,0-2.98c0.24-0.01,0.49-0.02,0.73-0.02
		c0.78,0.56,1.18,1.38,1.49,2.26c-0.07,0.51-0.77,0.86-0.37,1.49c1.14,0.82,0.11,0.99-0.39,1.32
		C145.91,32.88,145.67,32.95,145.45,33.08z"/>
	<path class="st70" d="M77.48,73.53c1.25-0.23,2.5-0.45,3.74-0.68c-1.16,1.21-1.8,2.61-1.57,4.32c-1.26-0.54-0.01-2.88-2.04-2.86
		c-0.21-0.14-0.3-0.31-0.27-0.5C77.38,73.62,77.42,73.53,77.48,73.53z"/>
	<path class="st21" d="M207.47,79.41c0.78,0.27,2.02-0.34,2.3,0.52c0.29,0.9-0.84,0.94-1.53,1.08c-1.03,0.74-1.66,0.29-2.12-0.71
		c-0.11-0.07-0.23-0.13-0.35-0.17C206.34,79.89,206.9,79.65,207.47,79.41z"/>
	<path class="st71" d="M220.94,91.41c-0.54,0.09-1.08,0.17-1.62,0.26c0,0,0.09-0.18,0.09-0.18c0-2.03-0.08-4.13,2.96-3.75
		c0.26,0,0.52,0,0.78,0C222.66,89.12,220.85,89.69,220.94,91.41z"/>
	<path class="st47" d="M146.99,77.12c1.47,1.88-0.04,4.05,0.31,6.13c-0.32-1.02-0.63-2.04-0.95-3.06
		C146.94,79.25,146.07,78,146.99,77.12z"/>
	<path class="st50" d="M222.41,22.59c0.33-0.05,0.65-0.1,0.98-0.15c1.46,0.95,1.57,2.3,1.11,3.82c-0.45-0.24-0.9-0.47-1.35-0.71
		C222.31,24.71,221.86,23.77,222.41,22.59z"/>
	<path class="st61" d="M146.16,32.87c0.13-0.44,0.26-0.88,0.39-1.32c1.11-0.26,2.23-0.52,3.34-0.78
		C148.59,31.37,148.39,33.92,146.16,32.87z"/>
	<path class="st56" d="M51.98,87.01c2.26,0.28,4.66-0.79,6.79,0.74c-2.21,0.01-4.41,0.03-6.62,0.04
		C52.09,87.53,52.04,87.27,51.98,87.01z"/>
	<path class="st72" d="M140.23,66.78c-0.26,0.49-0.51,0.99-0.77,1.48c-1.09-0.07-2.08,0.24-3.02,0.78
		c-0.38,0.39-0.81,0.43-1.26,0.14c0,0-0.29-0.21-0.29-0.21C136.43,67.65,138.3,67.17,140.23,66.78z"/>
	<path class="st58" d="M79,138.52c-0.28,0.7-0.86,0.89-1.53,0.92c-0.58-0.2-1.7,0.49-1.65-0.65c0.03-0.84,1.08-0.78,1.79-0.86
		C78.18,137.87,78.66,138.02,79,138.52z"/>
	<path class="st73" d="M213.44,32.28c0.27-0.19,0.54-0.38,0.8-0.56c-0.04,1.96-0.07,3.92-0.11,5.88c-0.23-0.52-0.46-1.04-0.69-1.56
		C212.86,34.79,212.87,33.54,213.44,32.28z"/>
	<path class="st25" d="M206.74,84.73c0.96,0.99,1.08,2,0.03,3.01c-0.28-0.23-0.56-0.47-0.85-0.7c0.05-0.76,0.1-1.53,0.14-2.29
		C206.28,84.38,206.51,84.38,206.74,84.73z"/>
	<path class="st61" d="M217.25,49.47c-0.27,0.01-0.54,0.02-0.81,0.03c-0.5-0.82-2.43,0.54-2.18-1.44c0.54-0.03,1.08-0.06,1.62-0.08
		c0.79-0.7,1.52-0.36,2.11,0.24C218.08,48.31,217.51,49.04,217.25,49.47z"/>
	<path class="st74" d="M77.44,128.58c0-0.39,0.01-0.78,0.01-1.16c-0.17-1.15-0.28-2.27,0.88-3.03c0.72,0.63,0.6,1.52,0.7,2.34
		C78.95,127.74,79.06,128.91,77.44,128.58z"/>
	<path class="st30" d="M75.95,67.51c-0.25-0.25-0.51-0.5-0.76-0.75c0.63-1.22,1.66-1.92,2.94-2.3c0,0,0.13,0.13,0.13,0.13
		C78.28,66.18,77.83,67.42,75.95,67.51z"/>
	<path class="st75" d="M66.98,70.51c0,1.74,0,3.49,0,5.23c0,0-0.36,0.09-0.36,0.09s-0.36-0.06-0.36-0.06
		c-0.02-1.22-0.05-2.45-0.07-3.68C65.86,71.27,65.56,70.46,66.98,70.51z"/>
	<path class="st71" d="M80.43,127.49c0.24-1.41,0.46-2.83,2.29-3.03C82.59,125.95,81.64,126.82,80.43,127.49z"/>
	<path class="st76" d="M145.45,72.75c1.13,0.76,0.59,1.97,0.79,2.98c0.41,0.8,0.49,1.59-0.1,2.36
		C145.04,76.42,145.49,74.55,145.45,72.75z"/>
	<path class="st62" d="M77.48,39.01c0.23,0.03,0.45,0.03,0.68,0.01c0.31,0.78,0.98,1.48,0.57,2.41c-0.06,0.14-0.47,0.28-0.61,0.21
		C76.97,41.01,77.55,39.92,77.48,39.01z"/>
	<path class="st48" d="M84.94,69.03c-0.5-0.01-1.01-0.02-1.51-0.03c-0.25-1.49,0.73-2.5,1.38-3.64c0,0,0.09-0.09,0.09-0.09
		C85.94,66.52,86.06,67.77,84.94,69.03z"/>
	<path class="st23" d="M78.38,33.11c0.42-0.02,0.84-0.04,1.27-0.07c0.61,1.01,0.62,2.01-0.02,3.01c-0.36-0.21-0.71-0.42-1.07-0.63
		C78.5,34.65,78.44,33.88,78.38,33.11z"/>
	<path class="st7" d="M138.06,24.81c-0.86,1.64-2.34,1.52-3.83,1.38C135.36,25.3,136.58,24.69,138.06,24.81z"/>
	<path class="st48" d="M146.14,78.08c0.03-0.79,0.06-1.57,0.1-2.36c0.26,0.02,0.53,0.05,0.79,0.07c-0.01,0.44-0.03,0.89-0.04,1.33
		c-0.18,1.03,0.26,2.19-0.63,3.07C146.28,79.49,146.21,78.79,146.14,78.08z"/>
	<path class="st38" d="M140.17,37.59c0.05-0.97,0.1-1.95,0.15-2.92c0.21-0.01,0.42-0.03,0.63-0.04c0,1.22,0,2.44,0,3.66
		c-0.23,0.34-0.46,0.34-0.69-0.01C140.15,38.06,140.12,37.83,140.17,37.59z"/>
	<path class="st77" d="M140.26,38.28c0.23,0,0.46,0.01,0.69,0.01c0,1.5,0,3.01,0,4.51c-0.23,0.34-0.44,0.31-0.63-0.04
		C140.3,41.27,140.28,39.77,140.26,38.28z"/>
	<path class="st4" d="M97.75,84.85c-0.54-0.57-2.82,0.69-1.69-1.62c0.85,1.08,2.09,0.65,3.18,0.81
		C98.74,84.31,98.24,84.58,97.75,84.85z"/>
	<path class="st62" d="M147.65,89.28c-0.79,1.03-1.93,0.6-2.94,0.72c0-0.52,0-1.03,0-1.55C145.7,88.73,146.67,89.01,147.65,89.28z"
		/>
	<path class="st78" d="M75.4,136.37c-0.54,0.24-1.07,0.47-1.61,0.71c-0.19-1.32,0.12-2.37,1.5-2.87
		C75.32,134.93,75.36,135.65,75.4,136.37z"/>
	<path class="st9" d="M183.66,39.12c0.9-1.37,1.88-1.03,2.87-0.11C185.57,39.05,184.61,39.08,183.66,39.12z"/>
	<path class="st9" d="M45.42,39.12c0.91-1.39,1.88-1.02,2.88-0.11C47.34,39.04,46.38,39.08,45.42,39.12z"/>
	<path class="st4" d="M102.07,83.3c1.09-1.33,2.57-0.65,3.9-0.76C104.81,83.51,103.43,83.34,102.07,83.3z"/>
	<path class="st4" d="M77.67,48.02c-0.58-0.01-1.16-0.03-1.74-0.04c-0.22-0.54-0.45-1.09-0.67-1.63
		C76.18,46.73,77.47,46.59,77.67,48.02z"/>
	<path class="st44" d="M144.86,37.47c0.16-1.24-0.68-2.63,0.56-3.7c0.05,1.22,0.1,2.43,0.15,3.65c0,0-0.22,0.19-0.22,0.19
		l-0.32,0.18L144.86,37.47z"/>
	<path class="st79" d="M79.62,36.05c0.01-1,0.01-2.01,0.02-3.01c0.3,0.01,0.6,0.01,0.9,0.02C80.03,33.99,81.45,35.53,79.62,36.05z"
		/>
	<path class="st29" d="M77.63,89.97c-0.57,0-1.14-0.01-1.71-0.01c-0.23-0.53-0.45-1.07-0.67-1.6
		C76.16,88.72,77.48,88.49,77.63,89.97z"/>
	<path class="st1" d="M140.32,42.76c0.21,0.01,0.42,0.02,0.63,0.04c-0.02,1.29-0.04,2.59-0.06,3.88
		C140,45.47,140.25,44.1,140.32,42.76z"/>
	<path class="st80" d="M53.69,84.81c-0.56-0.78-1.12-1.56-1.68-2.34c-0.94-1.83,1.05-1.53,1.63-2.26c0.95-0.41,1.89-0.58,2.8,0.09
		c1.07,1.68,2.89,2.49,4.32,3.75C58.93,85.8,57.54,85.95,53.69,84.81z"/>
	<path class="st81" d="M118.7,40.43c-0.13-0.44-0.26-0.89-0.4-1.33c1.29-0.77,2.59-1.54,3.88-2.31c0.5,0.25,1.01,0.5,1.51,0.76
		c0.27,0.24,0.55,0.49,0.82,0.73c1.15,1.42,3.03,2.12,4.09,4.23c-3.19,0.31-6.15,0.37-9.12-0.38
		C119.23,41.56,118.97,40.99,118.7,40.43z"/>
	<path class="st41" d="M130.02,43.96c1.11-0.75,1.93-1.16,2.32-0.21c0.47,1.15-0.44,0.75-0.98,0.62
		C131.01,44.29,130.67,44.16,130.02,43.96z"/>
	<path class="st14" d="M144.71,27.81c0,0.99,0,1.99,0,2.98c-0.49-0.01-0.97-0.01-1.46-0.02c0.13-1.76-0.75-3.65,0.65-5.26
		C144.82,26.05,144.66,26.97,144.71,27.81z"/>
	<path class="st24" d="M143.1,32.36c0.24,1.54,0.47,3.08,0.71,4.62c-0.77,0.5-0.51,1.36-0.72,2.06
		C142.13,36.81,142.06,34.58,143.1,32.36z"/>
	<path class="st82" d="M222.37,87.74c-2.11,0.35-2.01,2.47-2.96,3.75c-0.3-0.25-0.6-0.49-0.9-0.74c-0.27-1.27-0.44-2.53,0.1-3.78
		c0.51-1.8,2.61-1.21,3.55-2.37C223.93,84.73,223.93,84.73,222.37,87.74z"/>
	<path class="st83" d="M218.62,86.97c-0.03,1.26-0.07,2.52-0.1,3.78c-1.06-1.11-0.46-2.49-0.59-3.75
		C218.15,86.97,218.38,86.96,218.62,86.97z"/>
	<path class="st35" d="M75.4,121.5c-0.06,1.74-0.12,3.48-0.19,5.22C74.11,124.93,73.81,123.18,75.4,121.5z"/>
	<path class="st56" d="M53.69,84.81c2.36-0.22,4.87,0.91,7.08-0.76c0.79,0.16,0.95,0.75,0.98,1.43c-2.78,0.32-5.57,1.66-8.34-0.05
		C53.45,85.2,53.55,85,53.69,84.81z"/>
	<path class="st21" d="M57.46,71.3c3.36,1.39,1.98,4.25,2.07,6.66c0,0-0.3,0.02-0.3,0.02s-0.3-0.03-0.3-0.03
		C58.43,75.73,57.94,73.52,57.46,71.3z"/>
	<path class="st84" d="M66.3,27.13c0.21-0.04,0.43-0.05,0.65-0.05c0.26,0.74,0.52,1.48,0.78,2.22c-0.74,0.62,0,1.73-0.79,2.33
		C65.89,30.25,66.31,28.66,66.3,27.13z"/>
	<path class="st85" d="M66.94,31.63c0.1-0.83-0.11-1.77,0.79-2.33c-0.16,1.26,0.51,2.68-0.72,3.74
		C66.98,32.57,66.96,32.1,66.94,31.63z"/>
	<path class="st86" d="M135.18,69.19c0.42-0.05,0.84-0.09,1.27-0.14c-0.23,1.96,0.67,4.03-0.6,5.88
		C135.62,73.01,135.4,71.1,135.18,69.19z"/>
	<path class="st87" d="M204.54,27.14c0.21-0.04,0.43-0.06,0.65-0.06c0.26,0.74,0.51,1.47,0.77,2.21c-0.75,0.61-0.01,1.73-0.79,2.34
		C204.12,30.25,204.54,28.66,204.54,27.14z"/>
	<path class="st75" d="M205.17,31.63c0.1-0.83-0.11-1.77,0.79-2.34c-0.17,1.26,0.51,2.68-0.72,3.74
		C205.21,32.56,205.19,32.09,205.17,31.63z"/>
	<path class="st26" d="M206.74,84.73c-0.22,0.01-0.45,0.01-0.67,0.01c0.02-1.48,0.04-2.96,0.06-4.44c0.71,0.24,1.41,0.47,2.12,0.71
		C207.42,82.13,206.49,83.19,206.74,84.73z"/>
	<path class="st88" d="M213.43,84.59c-1.12,1.22-1.8,2.93-3.66,3.33C209.65,83.85,210.33,83.23,213.43,84.59z"/>
	<path class="st75" d="M133.59,27.13c0.47,0.22,0.93,0.43,1.4,0.65c-0.27,1.71,0.64,3.58-0.65,5.16
		C134.08,31.01,133.83,29.07,133.59,27.13z"/>
	<path class="st89" d="M66.98,70.51c-0.62,0.35-0.72,0.96-0.79,1.58c-0.87-0.86-0.78-1.9-0.54-2.96
		C66.33,69.36,66.73,69.86,66.98,70.51z"/>
	<path class="st90" d="M222.41,22.59c0.52,0.92,0.85,1.88,0.74,2.96c-2.6,1.68-5.69,2.9-6.04,6.63c-1.32-0.96-0.18-2.58-0.99-3.71
		c-0.93,0.8,0.05,2.24-1.03,2.95c-0.3-0.71-0.6-1.42-0.9-2.13c-0.39-2.06,0.88-3.3,2.24-4.49c1.04-0.68,1.95-1.55,2.99-2.23
		C220.41,22.57,221.41,22.58,222.41,22.59z"/>
	<path class="st35" d="M213.44,32.28c0,1.25,0,2.51,0,3.76C212.32,34.79,212.32,33.54,213.44,32.28z"/>
	<path class="st16" d="M78.19,30.05c-0.29,0.57-0.8,0.72-1.38,0.71c-0.3-0.72-0.61-1.43-0.91-2.15c0.1-1.1,0.58-2,1.32-2.92
		c0.9,0.9-0.36,2.3,0.97,2.84C78.19,29.04,78.19,29.54,78.19,30.05z"/>
	<path class="st35" d="M75.15,32.32c0,1.23,0,2.46,0,3.68C74.12,34.78,74.12,33.55,75.15,32.32z"/>
	<path class="st56" d="M75.73,76.59c-0.19,0.23-0.38,0.45-0.57,0.68c-0.24,0.32-0.47,0.31-0.69-0.02c0.17-1.23-0.49-2.61,0.65-3.67
		c0,0,0.13-0.1,0.13-0.1c0.89,0.83,1.11,1.85,0.84,3L75.73,76.59z"/>
	<path class="st45" d="M74.47,77.24c0.23,0.01,0.46,0.02,0.69,0.02c-0.01,1.23-0.01,2.47-0.02,3.7
		C73.98,79.9,74.63,78.5,74.47,77.24z"/>
	<path class="st49" d="M84.17,116.97c-0.79,0.93-1.78,1.42-3.01,1.42C81.49,116.46,83.01,117.1,84.17,116.97z"/>
	<path class="st6" d="M78.32,124.39c-0.29,1.01-0.58,2.02-0.88,3.03c-2.18-1.56-1.23-3.91-1.48-5.96c0.49,0,0.98,0,1.48,0
		c0.26,0.27,0.52,0.54,0.78,0.81C78.25,122.97,78.29,123.68,78.32,124.39z"/>
	<path class="st91" d="M76.08,76.47c-0.71-0.88-0.97-1.89-0.84-3c2.17-1.76,0.12-4.02,0.71-5.97c0.77-0.98,1.54-1.95,2.31-2.93
		c0.48-0.01,0.97-0.03,1.45-0.04c0.75,1.19-0.77,2.27-0.21,3.49c2.12,0.18,3-1.32,3.92-2.77c0.46,0.03,0.92,0.07,1.38,0.1
		c0.45,1.56-0.26,2.68-1.38,3.64c-1.93,1.58-4.5,2.31-5.95,4.52c0.04,0.26,0.09,0.53,0.13,0.79c-0.09,0.48-0.18,0.96-0.27,1.44
		C76.92,75.99,76.5,76.23,76.08,76.47z"/>
	<path class="st92" d="M146.92,30.05c-1.52-0.07-1.5-1.17-1.49-2.26c1.19-5.57,3.02-6.41,8.14-3.71c-0.26,1.8-2.24,2.26-2.91,3.74
		C149.42,28.57,148.17,29.31,146.92,30.05z"/>
	<path class="st93" d="M144.86,37.47c0.17,0.02,0.34,0.06,0.5,0.14c0,0.82,0,1.64,0,2.62c-1.25-0.64-1.16-1.72-1.34-2.68
		C144.3,37.51,144.58,37.49,144.86,37.47z"/>
	<path class="st94" d="M214.26,48.06c0.73,0.48,1.45,0.96,2.18,1.44c-0.26,0.26-0.51,0.52-0.77,0.77
		C215.82,49.14,212.66,50.12,214.26,48.06z"/>
	<path class="st50" d="M219.41,22.56c-0.87,0.91-1.13,2.66-2.99,2.23c0.04-0.46,0.09-0.91,0.13-1.37
		C217.5,23.13,218.45,22.85,219.41,22.56z"/>
	<path class="st95" d="M83.43,65.26c1.19,1.68-0.08,2.49-1.27,3.05c-1.27,0.6-2.69,0.89-4.54,1.46c0.25-2.23,1.38-3.66,2.09-5.23
		C80.97,64.67,82.38,64.05,83.43,65.26z"/>
</g>
</svg>
