<?xml version="1.0" encoding="utf-8"?>
<!-- Generator: Adobe Illustrator 24.2.1, SVG Export Plug-In . SVG Version: 6.00 Build 0)  -->
<svg version="1.1" id="Calque_1" xmlns="http://www.w3.org/2000/svg" xmlns:xlink="http://www.w3.org/1999/xlink" x="0px" y="0px"
	 viewBox="0 0 189 76" style="enable-background:new 0 0 189 76;" xml:space="preserve">
<style type="text/css">
	.st0{fill:#FEFEFE;}
	.st1{fill:#FFDEC8;}
	.st2{fill:#40916C;}
	.st3{fill:#74C5A0;}
	.st4{fill:#469470;}
	.st5{fill:#FFC6A0;}
	.st6{fill:#7CC9A5;}
	.st7{fill:#FFC7A1;}
	.st8{fill:#65BF95;}
	.st9{fill:#FFC9A4;}
	.st10{fill:#FFD1B3;}
	.st11{fill:#FDFCFC;}
	.st12{fill:#FFD7BD;}
	.st13{fill:#FFCAA6;}
	.st14{fill:#FFE8D8;}
	.st15{fill:#FFDDC7;}
	.st16{fill:#FFD9BF;}
	.st17{fill:#FFC59E;}
	.st18{fill:#FFE5D4;}
	.st19{fill:#FFD2B4;}
	.st20{fill:#FFD2B5;}
	.st21{fill:#539C7B;}
	.st22{fill:#FFD8BE;}
	.st23{fill:#FFC69F;}
	.st24{fill:#FFC299;}
	.st25{fill:#79C7A3;}
	.st26{fill:#76C6A1;}
	.st27{fill:#FFC39B;}
	.st28{fill:#FFC8A3;}
	.st29{fill:#FFC49D;}
	.st30{fill:#FFC7A2;}
	.st31{fill:#FFEADB;}
	.st32{fill:#FFCFAE;}
	.st33{fill:#FFCBA8;}
	.st34{fill:#FFDCC5;}
	.st35{fill:#FFD6BB;}
	.st36{fill:#FFC9A5;}
	.st37{fill:#FFD7BC;}
	.st38{fill:#FFDDC6;}
	.st39{fill:#FFDAC1;}
	.st40{fill:#FFD9C0;}
	.st41{fill:#FFEDE0;}
	.st42{fill:#FFE6D5;}
</style>
<g>
	<path class="st0" d="M94.08,71.93c-28.08,0-56.17-0.04-84.25,0.07c-2.4,0.01-2.83-0.63-2.82-2.9C7.09,47.91,7.09,26.71,7,5.52
		C6.99,3.49,7.34,3,9.45,3c56.42,0.08,112.83,0.07,169.25,0.01c1.93,0,2.26,0.52,2.25,2.33c-0.07,21.44-0.11,42.89,0.04,64.33
		c0.02,2.49-0.97,2.3-2.67,2.3C150.24,71.92,122.16,71.93,94.08,71.93z"/>
	<path class="st1" d="M45.15,43.05c-0.61,0.68-1.44,0.43-2.19,0.55c-1.83,0.91-3.72,1.32-4.32-1.24c-0.41-1.73,0.3-3.2,2.61-2.71
		c4.72-0.09,9.23-1.42,13.78-2.42c2.1-0.46,4.27-0.8,6.24-0.31c5.96,1.48,11.5,0.1,17-1.88c3.04-1.09,6.17-1.69,9.35-2.09
		c2.34,3.11,3.46,6.76,4.52,10.42c-3.26,0.41-6.51,1.75-9.81,0.19c-1.14-0.99-2.38-0.38-3.59-0.24c-1.02-0.22-2.04-0.44-3.06-0.65
		c-1.74-0.44-3.48-0.69-5.2,0.13c-1.79,1.41-3.52,0.25-5.26-0.15c-5.3-0.71-10.63-0.11-15.94-0.31
		C47.92,42.64,46.33,41.65,45.15,43.05z"/>
	<path class="st1" d="M101.18,29.06c4.44,0.79,8.47-1.21,12.69-1.9c2.73,3.29,2.23,8.96-0.98,11.23c-0.65,0.43-1.32,0.8-2.14,0.52
		c-2.73-0.38-5.47-0.74-8.16,0.22c-0.47,0.26-0.94,0.52-1.41,0.78C99.31,36.3,99.31,32.68,101.18,29.06z"/>
	<path class="st2" d="M92.14,43.38c-2.32-3.12-3.58-6.7-4.52-10.42c3.19-2.23,6.16-4.99,10.54-4.26c2.98,3.96,2,8.2,0.84,12.44
		C96.71,41.89,94.43,42.63,92.14,43.38z"/>
	<path class="st3" d="M122.54,41.23c-3.35,0.88-6.07-0.86-8.91-2.15c0.7-0.82,1.54-1.55,1.81-2.67c0.42-1.12,0.34-2.29,0.35-3.44
		c-0.03-2.08,0.13-4.19-1.27-5.97c4.62-1.73,9.27-3.23,14.27-1.65c0.33,0.61,1.13,0.97,0.98,1.83c-0.16,0.56-0.53,0.91-1.07,1.09
		c-0.86,0.22-1.73-0.13-2.58-0.02c-3.87,0.51-5.2,3.78-2.93,7.19c0.57,1.65,0.59,3.31,0.12,4.98
		C123.16,40.8,122.9,41.06,122.54,41.23z"/>
	<path class="st4" d="M41.25,39.65c-1.46,0.26-2.21,1.21-1.93,2.6c0.45,2.24,2.46,0.78,3.64,1.35c-0.84,1.74-1.68,3.48-2.52,5.22
		c-0.28,0.98-1.07,2,0.22,2.86c0.76,0.6,1.13,1.31,0.68,2.27c-4.05,0.07-5.37-1-5.97-4.62c-0.45-2.67-0.22-5.38-0.78-8.05
		c-0.32-1.52,0.32-2.9,1.71-3.8C38.17,37.7,40.23,37.49,41.25,39.65z"/>
	<path class="st5" d="M133.07,25.66c0.33-0.29,0.66-0.58,0.99-0.87c1.04-0.78,1.7-0.18,2.3,0.64c0.32,1.45-0.1,2.85-0.34,4.26
		c-0.18,0.67-0.41,1.32-0.6,1.99c-0.08,0.34-0.18,0.67-0.28,1c-0.46,1.34-0.25,2.8-0.75,4.14c-0.59,1.16-1.09,2.43-2.73,2.34
		c-0.43-0.35-0.65-0.82-0.76-1.35c-0.22-1.31,0.33-2.86-1.18-3.77c-0.55-1.19-0.48-2.4-0.21-3.63c0.19-0.69,0.49-1.33,0.78-1.97
		C130.8,27.07,131.47,25.9,133.07,25.66z"/>
	<path class="st6" d="M36.3,37.48c-1.52,4.34-0.02,8.71,0.03,13.06c0.03,2.76,2.91,2.87,5.01,3.41c-3.14,1.22-5.73,0.08-6.55-3.33
		c-0.78-3.22-1.21-6.55-1.48-9.85C33.17,38.95,33.52,36.93,36.3,37.48z"/>
	<path class="st3" d="M99,41.14c-0.31-4.15,0.4-8.36-0.84-12.45c1.04-0.15,2.09-0.34,3.02,0.37c0,3.62,0,7.24,0,10.86
		C100.45,40.33,99.72,40.73,99,41.14z"/>
	<path class="st7" d="M147.41,46.39c1.59,2.56,2.04,4.81-1.57,6c-0.24-0.24-0.45-0.51-0.63-0.79c-0.58-1.83-1.55-3.3-3.47-3.94
		c-0.48-0.34-0.74-0.8-0.74-1.4c0.43-1.62,1.59-2.03,3.09-1.87C145.45,44.64,146.58,45.27,147.41,46.39z"/>
	<path class="st8" d="M114.51,27c3.2,1.08,1.93,3.84,2.23,6c-0.91,1.11,0.11,2.6-0.72,3.73c0.21,1.81-0.85,2.33-2.39,2.35
		c-0.25-0.23-0.5-0.46-0.74-0.69c2.08-3.59,1.99-7.36,0.98-11.22C114.07,27.06,114.28,27,114.51,27z"/>
	<path class="st9" d="M149.47,22.56c0.46,0.26,0.93,0.51,1.39,0.77c2.27,2.8,1.57,5.66,0.19,8.54c-0.12,0.14-0.24,0.28-0.36,0.42
		c-0.32,0.2-0.67,0.26-1.04,0.2c-0.65-0.4-0.95-1.02-1.11-1.74c-0.01-0.52,0.19-0.97,0.43-1.41c0.63-1.2,0.55-2.37-0.13-3.53
		c-0.53-0.88-1.3-1.65-1.08-2.81C148.19,22.27,148.7,21.88,149.47,22.56z"/>
	<path class="st10" d="M126.44,53.85c-2.59,0.69-3.47-1.12-3.65-3c-0.31-3.18-1.07-6.39-0.25-9.62c0,0,0.23-0.25,0.23-0.25
		c0.4-0.06,0.74,0.06,1.01,0.37c1.07,1.93,0.44,4.1,0.83,6.13c0.3,1.57,0.58,3.14,1.74,4.37c0.25,0.29,0.4,0.63,0.48,1
		C126.85,53.23,126.72,53.57,126.44,53.85z"/>
	<path class="st11" d="M150.38,32.25c1.8-2.89,2.09-5.86,0.49-8.93c1.09,0.31,1.7,1.05,1.66,2.17c-0.2,5.39-0.57,10.77-2.99,15.74
		c-0.25-0.26-0.44-0.56-0.57-0.9c-0.27-1.08,0.1-2.1,0.31-3.13C149.5,35.52,149.9,33.88,150.38,32.25z"/>
	<path class="st12" d="M48.84,41.99c5.45,0.39,10.97-0.84,16.38,0.67c-5.46,0.01-10.93,0.03-16.39,0.04
		c-0.24-0.16-0.32-0.32-0.24-0.47C48.68,42.07,48.76,41.99,48.84,41.99z"/>
	<path class="st13" d="M149.47,22.56c-0.59-0.01-1.1,0.14-1.39,0.72c-1.64,0.63-2.89-0.64-4.35-0.89c-0.93-0.37-1.96-0.48-2.83-1.01
		c-0.11-0.13-0.21-0.26-0.32-0.4C143.86,19.74,146.85,20.09,149.47,22.56z"/>
	<path class="st13" d="M136.14,25.52c-0.69-0.24-1.39-0.49-2.08-0.73c1.45-2.51,3.93-3.26,6.52-3.81c0,0,0.11,0.16,0.11,0.16
		C139.92,23.37,137.52,23.91,136.14,25.52z"/>
	<path class="st14" d="M149.44,40.36c0.03,0.29,0.06,0.58,0.09,0.87c-0.83,0.64-1,1.92-2.15,2.27c-0.34,0.28-0.68,0.28-1.01-0.02
		c-0.88-2.19-0.06-3.68,1.92-4.69C149.41,38.77,149.03,39.86,149.44,40.36z"/>
	<path class="st15" d="M133.07,25.66c-0.68,0.95-1.36,1.91-2.04,2.86c-0.98-0.04-1.22-0.85-1.57-1.54
		c-0.22-0.54-0.44-1.08-0.67-1.63C130.21,25.45,131.64,25.56,133.07,25.66z"/>
	<path class="st16" d="M102.58,39.14c2.68-1.56,5.41-1.19,8.16-0.22C108.02,38.99,105.3,39.06,102.58,39.14z"/>
	<path class="st17" d="M145.84,51.69c0,0.23,0,0.47,0,0.7c-2.19,0.06-4.38,0.12-6.57,0.17c-0.96,0.28-1.89,0.5-1.45-1.1
		C140.52,50.23,143.2,50.1,145.84,51.69z"/>
	<path class="st18" d="M146.66,43.5c0.24,0,0.48,0,0.73,0c0.01,0.96,0.01,1.93,0.02,2.89c-1.05-0.43-2.09-0.85-3.14-1.28
		C144.59,43.87,145.49,43.47,146.66,43.5z"/>
	<path class="st19" d="M137.67,51.77c0.53,0.26,1.06,0.53,1.59,0.79c-1.21,0.81-2.55,0.71-3.9,0.58c-0.52-0.29-1.04-0.57-0.79-1.32
		C135.59,50.82,136.63,50.77,137.67,51.77z"/>
	<path class="st20" d="M126.44,53.85c0-0.22,0.01-0.44,0.01-0.67c1.55-1.24,3.29-1.06,5.06-0.68c0.43,0.16,0.77,0.44,1.03,0.81
		C130.57,54.21,128.49,53.89,126.44,53.85z"/>
	<path class="st21" d="M40.66,51.68c-0.85-0.43-1.69-0.85-2.78-1.4c0.84-0.85,2.24-0.31,2.56-1.46
		C40.51,49.77,40.59,50.73,40.66,51.68z"/>
	<path class="st22" d="M70.49,42.81c1.7-1.34,3.44-1.17,5.2-0.13C73.95,42.72,72.22,42.77,70.49,42.81z"/>
	<path class="st12" d="M78.74,43.33c1.24-0.58,2.5-1.43,3.59,0.24C81.13,43.49,79.94,43.41,78.74,43.33z"/>
	<path class="st23" d="M132.54,53.32c-0.28-0.09-0.56-0.18-0.84-0.27c-0.21-0.4-0.13-0.72,0.26-0.96c0.96-0.41,1.87-0.48,2.68,0.33
		c0.24,0.24,0.48,0.49,0.73,0.73C134.43,53.2,133.48,53.26,132.54,53.32z"/>
	<path class="st22" d="M48.84,41.99c0,0.24,0,0.47-0.01,0.71c-1.23,0.12-2.46,0.23-3.69,0.35C45.98,41.3,47.58,42.24,48.84,41.99z"
		/>
	<path class="st15" d="M134.64,52.41c-0.99,0.04-1.97,0.08-2.96,0.12c-1.74,0.48-3.48,0.47-5.22,0c-1.46,0.03-1.97-0.63-2.35-2.13
		c-0.77-3.06-0.52-6.12-0.67-9.18c-0.72-1.36-0.17-2.82-0.35-4.22c-0.21-0.6,0.63-1.26-0.1-1.83c0,0-0.32,0.09-0.32,0.09
		c-2.01-0.71-2.83-2.21-1.86-4.04c1.17-2.22,2.93-4.01,5.74-4c0.71,0,1.42,0.35,2.13,0.54c0.92,0.44,1.81,0.89,1.59,2.17
		c-0.03,1.54-0.05,3.08-0.08,4.61c0.01,0.19,0.02,0.38,0.03,0.58c-0.93,2.78-0.33,5.69-0.76,8.52c-0.9,4.81-0.9,4.81,3.96,4.83
		c2.96,0.01,5.96,0.27,8.71-1.24c2.83,0.15,3.48,2.12,3.7,4.45c-2.72,0.03-5.44,0.05-8.16,0.08
		C136.62,51.78,135.49,51.41,134.64,52.41z"/>
	<path class="st24" d="M123.5,36.04c-0.02,1.73-0.04,3.45-0.06,5.18c-0.25,0-0.48-0.08-0.68-0.24c-0.03-1.91-0.06-3.81-0.09-5.72
		c0,0,0.09-0.03,0.09-0.03C123.42,35.13,123.82,35.26,123.5,36.04z"/>
	<path class="st25" d="M130.28,29.94c-0.53-0.72-1.06-1.45-1.59-2.17c0.26-0.26,0.51-0.52,0.77-0.79c0.52,0.51,1.05,1.03,1.57,1.54
		C130.78,28.99,130.53,29.46,130.28,29.94z"/>
	<path class="st26" d="M116.02,36.73c0.15-1.26-0.51-2.68,0.72-3.73C116.56,34.26,117.23,35.68,116.02,36.73z"/>
	<path class="st27" d="M143.6,21.78c1.72-0.2,3.03,0.86,4.48,1.49c0.5,0.75,1,1.5,1.51,2.25c0.54,1.5,0.56,2.99-0.01,4.48
		c-0.25,0.25-0.5,0.5-0.75,0.74c-0.68,1.1-1.78,1.4-2.95,1.6c-0.77,0.1-1.53,0.11-2.3,0.09c-0.58-0.01-1.15-0.07-1.72-0.15
		c-2.34-0.79-4.98,1.13-7.21-0.77c0.01-0.62,0.14-1.18,0.75-1.51c0.56-0.62,0.38-1.59,1.02-2.17c0.88-1,1.56-2.15,2.28-3.26
		C140.11,23.26,141.18,21.32,143.6,21.78z"/>
	<path class="st28" d="M134.65,31.52c2.51,0.65,5.04-1.51,7.55,0.05c0.25,0.77-0.15,1.34-0.6,1.89c-1.52,1.4-3.33,2.32-5.2,3.15
		c-0.63,0.27-1.25,0.59-1.93,0.14c-0.36-1.51-0.24-3,0.18-4.48C134.65,32.02,134.65,31.77,134.65,31.52z"/>
	<path class="st29" d="M143.6,21.78c-1.49,1-2.98,1.99-4.47,2.99c-0.9,1.15-1.83,2.29-2.23,3.74c-0.5,0.5-1,1-1.5,1.5
		c-0.02-1.54-0.14-3.1,0.74-4.49c0.21-2.82,3.03-2.92,4.55-4.38C141.71,21.13,142.82,20.7,143.6,21.78z"/>
	<path class="st30" d="M134.64,36.74c0.51-0.25,1.03-0.5,1.54-0.75c0.22,0.26,0.34,0.56,0.37,0.89c0.48,1.09-1.94,1.37-0.73,2.67
		c-0.05,1.84-0.9,3.01-2.75,3.36c-1.37-0.23-1.52-1.39-1.86-2.42c-0.07-0.57,0.03-1.09,0.45-1.5c0.75-0.75,1.51-1.5,2.26-2.25
		C134.16,36.37,134.4,36.37,134.64,36.74z"/>
	<path class="st31" d="M130.19,34.55c2.86-0.24,0.83,1.97,1.43,2.86c-0.29,0.46-0.44,1.06-1.15,1.07c-0.38-0.12-0.65-0.36-0.81-0.73
		c-0.23-1.16-0.03-2.24,0.55-3.26L130.19,34.55z"/>
	<path class="st32" d="M134.64,36.74l-0.35,0c0,0-0.35,0-0.35,0c0.22-1.5-0.62-3.16,0.73-4.47
		C134.65,33.76,134.64,35.25,134.64,36.74z"/>
	<path class="st33" d="M130.87,38.24c0.25-0.27,0.5-0.55,0.75-0.82c0.01,0.53,0.03,1.05,0.04,1.58c0,0.5,0.01,1,0.01,1.49
		c0.52,0.77,0.42,1.35-0.52,1.67c-0.36-0.15-0.61-0.4-0.79-0.74C129.96,40.27,130.07,39.2,130.87,38.24z"/>
	<path class="st11" d="M133.37,42.56c1.18-0.9,2.02-1.98,1.93-3.57c1.83,0.07,0.98-2.22,2.29-2.62c0.62-0.33,1.29-0.42,1.98-0.41
		c1.52,0.39,2.78-0.13,3.94-1.08c0.86-0.4,1.84-0.47,2.66-0.97c1.1-0.46,1.7-2.07,3.27-1.47l0.01-0.02c1.42,1.14,0.23,2.61,0.48,3.9
		c-0.3,0.91-0.39,1.92-1.24,2.57c-1.37,1.23-2.18,2.71-2.02,4.62c-0.8,0.54-1.6,1.08-2.4,1.62c-1.16-0.01-2.48-0.39-2.96,1.24
		c-0.31,0.93-0.68,1.81-1.71,2.17c-1.93,0.4-3.73-0.12-5.48-0.86c-0.47-0.33-0.67-0.8-0.71-1.35c0.04-0.94,0.3-1.89,0.08-2.85
		C133.42,43.17,133.38,42.86,133.37,42.56z"/>
	<path class="st28" d="M139.82,47.73c0.25-0.72,0.79-1.14,1.49-1.38c0.28,0.3,0.55,0.59,0.83,0.89c-0.86,1.76-2.25,2.44-4.2,2.31
		c-1.71-0.12-3.44-0.04-5.16-0.05c-5.49-0.03-5.92-0.66-4.09-6.02c0.43-0.43,0.94-0.47,1.48-0.26c1.03,0.94,1.3,2.01,0.54,3.23
		c-0.14,0.34-0.93,0.71,0.04,1.04c0.73,0.14,1.46,0.17,2.2,0.19C135.24,47,137.52,49.49,139.82,47.73z"/>
	<path class="st34" d="M149.43,32.43c-0.94,0.69-1.89,1.38-2.83,2.08c-0.97-0.77-1.62-1.62-0.74-2.87c0.99-0.29,1.98-0.59,2.97-0.88
		C149.47,31.15,149.55,31.75,149.43,32.43z"/>
	<path class="st35" d="M149.55,36.7c-0.04-1.43-0.07-2.86-0.11-4.3c0.31-0.05,0.62-0.1,0.94-0.15c1.25,1.78-0.36,3.47-0.16,5.21
		C149.59,37.57,149.16,37.5,149.55,36.7z"/>
	<path class="st13" d="M149.58,30.01c0-1.49,0.01-2.99,0.01-4.48C150.7,27.03,150.7,28.52,149.58,30.01z"/>
	<path class="st36" d="M126.46,52.53c1.74,0,3.48,0,5.22,0c-0.01,0.18,0,0.35,0.02,0.52c-1.75,0.04-3.5,0.09-5.25,0.13
		C126.45,52.97,126.45,52.75,126.46,52.53z"/>
	<path class="st37" d="M149.55,36.7c0.22,0.25,0.44,0.51,0.66,0.76c-0.26,0.96-0.51,1.93-0.77,2.89c-0.26-0.5-0.51-0.99-0.77-1.49
		C148.97,38.15,149.26,37.43,149.55,36.7z"/>
	<path class="st27" d="M130.14,43.47c-0.49,0-0.97,0.01-1.46,0.01c0.37-3.02-1.16-6.37,1.53-9c0.01,1.25,0.02,2.5,0.03,3.75
		c0.74,1.15-0.22,2.62,0.67,3.74l-0.03,0.08C131.22,42.84,130.81,43.22,130.14,43.47z"/>
	<path class="st30" d="M123.5,36.04c-0.24-0.27-0.49-0.54-0.73-0.8c0.11-0.59,0.21-1.17,0.32-1.76c0.21,0.09,0.5,0.13,0.63,0.29
		C124.37,34.58,124.27,35.35,123.5,36.04z"/>
	<path class="st38" d="M143.66,35.42c-0.77,1.86-2.15,1.97-3.78,1.31c-1.71-2.16,1.06-2.41,1.54-3.64c0.26-0.51,0.52-1.01,0.78-1.52
		c0.48,0.03,0.96,0.06,1.44,0.09C145.85,32.9,144.47,34.16,143.66,35.42z"/>
	<path class="st39" d="M143.66,35.42c-0.14-1.25,1.1-2.52-0.03-3.76c0.74-0.01,1.48-0.02,2.22-0.02c0.25,0.96,0.5,1.91,0.74,2.87
		C145.81,35.43,144.63,35.07,143.66,35.42z"/>
	<path class="st13" d="M136.9,28.51c-0.19-1.81,0.72-2.96,2.23-3.74C138.97,26.37,137.86,27.4,136.9,28.51z"/>
	<path class="st40" d="M141.41,33.08c0.83,1.78-2.53,1.79-1.54,3.64c-0.73,0.06-1.45,0.12-2.18,0.18c-0.46,0.22-0.91,0.3-1.34-0.06
		c-0.06-0.28-0.12-0.57-0.18-0.85C137.92,35.02,139.67,34.05,141.41,33.08z"/>
	<path class="st13" d="M130.14,43.47c0.25-0.47,0.5-0.94,0.75-1.41c0.6-0.36,0.77-0.93,0.79-1.58c0.94,0.38,0.46,1.93,1.69,2.07
		c0,0-0.03,0.02-0.03,0.02c0.46,1.01-0.23,2.24,0.61,3.17c0.02,0.48,0.04,0.95,0.06,1.43c-0.27,0.79-1.03,1.07-1.6,1.55
		c-0.75-0.25-1.51-0.5-2.26-0.75c-0.44-0.5-0.41-0.99,0.03-1.47C130.89,45.48,130.21,44.48,130.14,43.47z"/>
	<path class="st41" d="M136.36,36.84c0.45,0.02,0.89,0.04,1.34,0.06c-0.97,0.5-0.05,3.19-2.4,2.08
		C134.67,37.78,136.28,37.69,136.36,36.84z"/>
	<path class="st42" d="M130.92,41.98c-1.4-1.04-0.5-2.49-0.67-3.74c0.21,0.01,0.41,0.01,0.62,0
		C130.88,39.48,130.9,40.73,130.92,41.98z"/>
	<path class="st28" d="M132.41,48.72c0.31-0.75,0.86-1.25,1.6-1.55c1.95,0.05,3.81,0.96,5.81,0.56
		C137.64,50.24,134.73,47.22,132.41,48.72z"/>
	<path class="st29" d="M133.95,45.74c-3.02-0.51-0.96-2-0.61-3.17C135.14,43.32,134.61,44.52,133.95,45.74z"/>
	<path class="st12" d="M130.17,46.5c-0.01,0.49-0.02,0.98-0.03,1.47c-0.5,0.12-1.2,0.7-1.36-0.27
		C128.63,46.74,129.41,46.56,130.17,46.5z"/>
</g>
</svg>
