<?xml version="1.0" encoding="utf-8"?>
<!-- Generator: Adobe Illustrator 24.2.1, SVG Export Plug-In . SVG Version: 6.00 Build 0)  -->
<svg version="1.1" id="Calque_1" xmlns="http://www.w3.org/2000/svg" xmlns:xlink="http://www.w3.org/1999/xlink" x="0px" y="0px"
	 viewBox="0 0 242 122" style="enable-background:new 0 0 242 122;" xml:space="preserve">
<style type="text/css">
	.st0{fill:#FEFEFE;}
	.st1{fill:#FFE3D0;}
	.st2{fill:#FFE2CF;}
	.st3{fill:#7FCAA7;}
	.st4{fill:#40916C;}
	.st5{fill:#42926D;}
	.st6{fill:#489572;}
	.st7{fill:#FFE2CE;}
	.st8{fill:#81CBA8;}
	.st9{fill:#4A9773;}
	.st10{fill:#FFE0CB;}
	.st11{fill:#ECECEA;}
	.st12{fill:#84CCAA;}
	.st13{fill:#82CBA9;}
	.st14{fill:#FFD1B3;}
	.st15{fill:#EBEAE9;}
	.st16{fill:#FFDFC9;}
	.st17{fill:#D8D7D4;}
	.st18{fill:#FFD4B7;}
	.st19{fill:#FFE1CC;}
	.st20{fill:#FFD2B5;}
	.st21{fill:#FFD0B0;}
	.st22{fill:#FFCEAC;}
	.st23{fill:#F1F0F0;}
	.st24{fill:#FFD9C0;}
	.st25{fill:#FFDAC1;}
	.st26{fill:#FFD8BE;}
	.st27{fill:#FFD7BC;}
	.st28{fill:#65BF95;}
	.st29{fill:#F0F0EF;}
	.st30{fill:#F4F4F3;}
	.st31{fill:#FFD1B1;}
	.st32{fill:#EDECEB;}
	.st33{fill:#DBDAD7;}
	.st34{fill:#FFD6BA;}
	.st35{fill:#E8E8E6;}
	.st36{fill:#F2F1F0;}
	.st37{fill:#FFD6BB;}
	.st38{fill:#EFEFEE;}
	.st39{fill:#ECEBEA;}
	.st40{fill:#FFE5D3;}
	.st41{fill:#FFD3B6;}
	.st42{fill:#FFD9BF;}
	.st43{fill:#DFDEDC;}
	.st44{fill:#E4E3E2;}
	.st45{fill:#EEEDEC;}
	.st46{fill:#76C6A1;}
	.st47{fill:#F6F5F5;}
	.st48{fill:#C8C5C2;}
	.st49{fill:#EFEEED;}
	.st50{fill:#70C39C;}
	.st51{fill:#DEDDDB;}
	.st52{fill:#FFDAC2;}
	.st53{fill:#FFCDAB;}
	.st54{fill:#F3F2F1;}
	.st55{fill:#FFDEC8;}
	.st56{fill:#FFDCC5;}
	.st57{fill:#E1E0DE;}
	.st58{fill:#74C5A0;}
	.st59{fill:#5BA081;}
	.st60{fill:#85CCAB;}
	.st61{fill:#FFD5B9;}
	.st62{fill:#E8E7E5;}
	.st63{fill:#C3C1BD;}
	.st64{fill:#FFD4B8;}
	.st65{fill:#FFE6D5;}
	.st66{fill:#FFCFAE;}
	.st67{fill:#98D4B8;}
	.st68{fill:#FFDBC3;}
	.st69{fill:#D3D2CF;}
	.st70{fill:#FFC299;}
	.st71{fill:#C6C4C0;}
	.st72{fill:#FFD2B4;}
	.st73{fill:#DCDBD8;}
	.st74{fill:#FFCFAF;}
	.st75{fill:#E6E5E3;}
	.st76{fill:#FFC8A3;}
	.st77{fill:#FFCEAD;}
	.st78{fill:#FFEEE2;}
	.st79{fill:#FFDFCA;}
	.st80{fill:#C4C1BE;}
	.st81{fill:#FFDCC4;}
	.st82{fill:#D6D5D2;}
	.st83{fill:#D7D6D3;}
	.st84{fill:#599F7F;}
	.st85{fill:#FFCAA6;}
	.st86{fill:#FFDDC6;}
	.st87{fill:#C5C2BF;}
	.st88{fill:#FFE4D1;}
	.st89{fill:#D3D1CE;}
	.st90{fill:#C8C6C3;}
	.st91{fill:#E5E4E3;}
	.st92{fill:#FFE5D4;}
	.st93{fill:#C5C3BF;}
	.st94{fill:#FFCCA9;}
	.st95{fill:#DDDBD9;}
	.st96{fill:#E4E3E1;}
	.st97{fill:#D9D7D5;}
	.st98{fill:#FDFDFC;}
	.st99{fill:#FDFDFD;}
	.st100{fill:#FFD7BD;}
	.st101{fill:#8DD0B1;}
	.st102{fill:#FFE1CD;}
	.st103{fill:#FFDDC7;}
	.st104{fill:#FFCBA7;}
	.st105{fill:#F6F6F6;}
	.st106{fill:#ADDDC7;}
	.st107{fill:#F7F7F6;}
	.st108{fill:#CECCC9;}
	.st109{fill:#FAFAFA;}
	.st110{fill:#BCB9B5;}
	.st111{fill:#BBB9B4;}
	.st112{fill:#F8F8F7;}
	.st113{fill:#B1AEA9;}
	.st114{fill:#F3F3F2;}
	.st115{fill:#BAB8B3;}
	.st116{fill:#DAD8D6;}
	.st117{fill:#F5F4F4;}
	.st118{fill:#CAC8C5;}
</style>
<g>
	<path class="st0" d="M6.07,119.43C6.07,81.47,6.11,43.52,6,5.57C5.99,3,6.5,2.5,9.06,2.5c73.46,0.09,146.92,0.09,220.38,0
		c2.56,0,3.07,0.5,3.06,3.07c-0.11,36.95-0.11,73.91,0,110.86c0.01,2.57-0.5,3.07-3.06,3.07C154.98,119.41,80.53,119.43,6.07,119.43
		z"/>
	<path class="st1" d="M191.39,88c-2.79,0.87-4.57,3.16-6.81,4.81c-1.06,0.78-2.06,1.82-3.51,1.97c-1.32,0.49-2.77,0.63-3.91,1.57
		c-5.41,4.89-11.45,9.06-16.49,14.38c-3.55-0.97-4.57-3.74-4.97-6.97c0.44-2.89,2.5-4.48,4.81-5.75c4.11-2.27,8.46-4.04,12.67-6.11
		c3.41-1.04,6.48-2.81,9.56-4.56c3.74-2.06,7.36-4.34,11.28-6.04c1.02-0.47,2.09-0.87,2.94,0.23c1.02,1.31,0.49,2.48-0.48,3.56
		c-0.72,0.75-1.62,1.25-2.49,1.81C193.24,87.5,192.13,87.3,191.39,88z"/>
	<path class="st1" d="M92.84,87.17c-5.92,3.37-11.12,7.83-17.85,10c-5.24,1.69-8.52,6.98-13.47,9.56c-3.22-1.56-4.28-4.57-5.13-7.71
		c5.5-3.85,12.13-4.89,18.19-7.35c6.07-2.47,12.13-4.96,17.65-8.57c1.07-0.99,2.2-2.28,3.72-1c1.27,1.07,1.33,2.52,0.21,3.88
		C95.34,87.18,93.94,86.74,92.84,87.17z"/>
	<path class="st1" d="M56.94,45.19c5.01-4,11.4-4.75,17.1-7.12c6.19-2.57,12.33-5.17,18.17-8.46c0.79-1.14,1.68-2.3,3.24-1.44
		c1.51,0.83,1.9,2.13,0.88,3.67c-0.67,0.82-1.54,1.34-2.51,1.73c-0.57,0.2-1.31-0.17-1.74,0.52c-4.47,2.07-8.04,5.67-12.67,7.48
		c-2.05,0.74-4.45,0.55-6.07,2.38c-3.85,3.09-7.32,6.7-11.8,8.95C58.21,51.41,57.01,48.63,56.94,45.19z"/>
	<path class="st1" d="M186.94,34.88c-3.62,2.11-7.3,4.03-11.39,5.19c-4.67,1.32-7.13,5.53-10.24,8.79
		c-2.27,2.38-4.09,5.18-6.12,7.79c-0.65,0.11-1.11-0.22-1.55-0.64c-4.17-5.22-4.14-8.45,0.11-11.94c1.61-1.18,3.18-2.43,5-3.3
		c3.61-1.75,7.06-3.85,10.9-5.1c0.92-0.5,1.82-1.04,2.74-1.53c1.44-0.77,3.03-1.04,4.59-1.44c1.14-0.23,2.17,0.07,3.17,0.59
		C185.07,33.88,186.31,33.84,186.94,34.88z"/>
	<path class="st2" d="M51.52,110.47c-4.42-0.59-8.85-1.4-13.29-0.14c-2.13-3.24,0.1-6.16,0.67-9.21c0.17-0.38,0.43-0.68,0.77-0.92
		c4.28-0.63,8.45,1.01,12.71,0.6C54.12,104.21,54.08,107.46,51.52,110.47z"/>
	<path class="st2" d="M39.79,46.78c4.21,0.09,8.41,0.18,12.62,0.27c1.65,3.47,1.67,6.83-0.72,10.01c-1.76-0.44-3.52-0.89-5.28-1.33
		c-1.95-0.45-3.9-0.85-5.81,0.16c-0.66,0.63-1.45,0.72-2.3,0.6c-2.18-3.11-0.23-5.99,0.52-8.93C39.06,47.21,39.39,46.95,39.79,46.78
		z"/>
	<path class="st2" d="M158.47,44.53c-4.07,3.33-4.08,5.11-0.07,11.44c-3.26,0.39-3.6-2.22-4.25-4.33c-1.04-3.38-0.96-3.4-3.94-1.29
		c-2.04,0.97-2.52,3.51-4.51,4.52c-2.4-4.68-4.55-9.44-5-14.78c0.3-0.24,0.64-0.34,1.02-0.28c2.78,1.06,5.68,0.75,8.55,0.72
		c0.72-0.05,1.44-0.2,2.16-0.03c0.52,0.21,0.9,0.56,1.15,1.05c-0.06,3.23,1.63,3.08,3.82,1.97
		C157.99,43.61,158.33,43.97,158.47,44.53z"/>
	<path class="st1" d="M180.87,83.42c0.23-0.25,0.45-0.49,0.68-0.74c1.98-0.65,3.28,0.69,4.73,1.61c-0.34,1.79-1.83,1.96-3.19,2.33
		c-1.99,0.22-4.04-0.14-5.99,0.58c-0.61,0.16-1.22,0.25-1.85,0.27c-5.64,0.1-11.27-0.06-16.9,0.1c-0.36,0.07-0.72,0.12-1.09,0.15
		c-0.5,0.03-1.01-0.02-1.51,0.04c-1.05,0.3-1.34,1.39-2.07,2.02c-1.36,1.16-2.87,1.66-4.42,0.55c-1.66-1.19-1.54-2.98-1.2-4.76
		c0.49-1.43,1.56-2.44,2.53-3.53c0.84-0.67,1.91-0.2,2.81-0.6c0.3-0.1,0.61-0.11,0.93-0.05c1.69,1.23,4.15,0.23,5.66,1.99
		c4.79,1.31,9.66-0.07,14.49,0.43C176.57,84.02,178.83,85,180.87,83.42z"/>
	<path class="st3" d="M148.81,85.03c0.14,1.64-0.83,3.59,0.91,4.79c1.69,1.18,2.95-0.27,4.25-1.12c0.3-0.25,0.61-0.27,0.95-0.07
		c0.69,0.83,1.34,1.69,1.74,2.71c0.07,3.13-2.61,3.97-4.51,5.46c-4.01,0.77-8.1,2.4-11.65-1.22l0.02-0.09
		c-0.54-0.74-0.29-1.34,0.31-1.89c0.21-0.12,0.44-0.22,0.67-0.3c1.3-0.43,3.38-0.14,3.02-2.35c-0.36-2.27-2.08-2.45-3.97-1.81
		c-0.54,0.08-1.03-0.01-1.42-0.43c-0.08-0.43-0.15-0.85-0.23-1.28c-0.24-0.5-0.55-0.99-0.59-1.57c-0.03-1.17,0.36-2.21,0.99-3.18
		c0.34-0.45,0.77-0.78,1.32-0.91c1.72,3.53,4.59,2.9,7.51,2.08C148.67,84.06,149.08,84.35,148.81,85.03z"/>
	<path class="st1" d="M140.5,95.57c3.85,1.95,7.85,0.88,11.82,0.58c1.43,1.19,2.38,2.65,2.69,4.51c-2.27,2.95-3.84,6.39-6.41,9.13
		C144.88,105.63,141.81,101.1,140.5,95.57z"/>
	<path class="st4" d="M149.68,49.85c0.45-0.42,0.91-0.83,1.36-1.26c2.32-2.22,3.39-1.59,3.69,1.48c0.24,2.52,0.89,4.9,3.67,5.89
		c0.27,0.23,0.53,0.46,0.8,0.7c-2.84,3.39-9.67,3-12.69-0.73C146.49,53.34,148.08,51.59,149.68,49.85z"/>
	<path class="st5" d="M148.59,109.8c1.21-3.66,3.13-6.83,6.24-9.18c0.35-0.15,0.69-0.13,1.02,0.06c0.98,0.86,0.84,1.91,0.52,3
		c0.42,2.97,1.73,5.4,4.3,7.05C156.26,113.93,151.4,113.55,148.59,109.8z"/>
	<path class="st6" d="M195.82,84.98c0.61-0.84,1.68-1.5,0.9-2.81c-0.77-1.29-1.58-0.64-2.4-0.11c-1.41-0.24-2.81,0.99-4.23,0.05
		c0.82-3.19,2.97-5.85,3.59-9.14c0.19-1,0.98-1.83,2.11-0.65c0.74,0.29,0.29,4.13,2.38,0.65c1.14-1.9,2.13-0.56,2.52,1.01
		c-0.28,2.8,0.46,5.55,0.3,8.35c-0.19,1.06-0.52,2.05-1.13,2.95C198.42,86.34,196.98,87.54,195.82,84.98z"/>
	<path class="st4" d="M51.69,57.06c0.81-3.3,0.52-6.67,0.72-10.01c1.74-0.06,3.01-1.26,4.53-1.86c1.08,2.85,2.55,5.45,4.61,7.71
		C59.23,56.59,55.89,57.86,51.69,57.06z"/>
	<path class="st5" d="M51.52,110.47c1.02-3.16,0.71-6.43,0.86-9.67c1.44-0.35,2.82-0.86,4-1.8c1.71,2.57,3.42,5.14,5.13,7.71
		C59.05,110.29,55.79,111.75,51.52,110.47z"/>
	<path class="st7" d="M25.61,56.5c-0.28-0.29-0.57-0.57-0.85-0.86c-0.64-1.16-0.88-2.53-1.75-3.58c-0.36-0.59-0.89-1.06-1.19-1.7
		c-0.85-2.52-1.85-4.98-2.63-7.53c0.38-1.12,1.24-1.25,2.24-1.08c1.34,0.47,1.7,1.74,2.28,2.82c0.46,0.86,0.93,1.72,1.53,2.5
		c0.64,0.77,1.3,1.51,2.04,2.16c0.88,0.5,1.74-0.2,2.62-0.06c0.68,0.08,1.25,0.4,1.77,0.82c0.65,0.56,1.25,1.16,1.79,1.82
		c0.42,0.59,0.69,1.22,0.57,1.97c-0.31,1.79-1.29,2.85-3.18,2.92c-0.91-0.91-0.68-1.61,0.3-2.18c-1.04,0.28-1.52,1.49-2.59,1.84
		C27.59,56.68,26.63,57.27,25.61,56.5z"/>
	<path class="st8" d="M141.25,40.11c-0.18-0.02-0.37-0.03-0.55-0.03c-0.01-1.98-0.02-3.96-0.04-5.95c4.14-0.52,3.83-4.28,5.02-6.94
		c1.13-0.3,1.67,0.43,2.18,1.24c0.4,0.82,0.67,1.68,0.87,2.57c0.3,1.33-0.02,2.77,0.71,4.03c0.46,0.76,1.05,1.44,1.44,2.25
		c0.37,1.24,1.19,2.47,0.04,3.73C147.68,40.81,144.43,40.78,141.25,40.11z"/>
	<path class="st9" d="M95.47,31.96c0.8-0.91,1.15-1.82,0.21-2.88c-1.44-1.61-2.24,0.88-3.48,0.52c0.17-3.58,2.56-6.57,2.65-10.18
		c0.02-0.6,0.43-1.25,1.16-1.17c1.36,0.14,1.65,1.28,1.93,2.37c1,2.74,1.25,5.7,2.51,8.37c0.71,1.5-0.02,2.68-1.27,3.43
		C97.92,33.18,96.5,33.83,95.47,31.96z"/>
	<path class="st10" d="M147.99,84.2c-0.99,0.47-1.93,1.11-2.96,1.38c-2.92,0.74-4.18-0.78-4.36-3.54c-1.68,0.55-3.19,1.97-5.16,0.97
		c-1.12-1.64,1.25-1.09,1.26-2.03c4.3-1.33,5.22-5.27,6.7-8.77c1.31,1.23,1.13,2.93,1.39,4.49c-0.18,1.26,0.14,2.34,1.14,3.17
		c0.35,0.31,0.71,0.62,1.11,0.87c0.89,0.58,2.29,0.42,2.63,1.81C149.57,83.55,148.77,83.86,147.99,84.2z"/>
	<path class="st7" d="M24.8,109.67c-0.86-0.5-1.2-1.33-1.46-2.22c0.4-1.36-1.01-1.88-1.34-2.9c-0.45-0.88-0.81-1.79-1.01-2.76
		c-0.14-0.64-0.31-1.28-0.5-1.92c-0.08-0.34-0.12-0.68-0.12-1.02c0.05-0.54,0.23-1.02,0.64-1.38c0.49-0.24,0.99-0.25,1.49-0.02
		c0.81,0.68,0.95,1.72,1.41,2.58c0.4,0.87,1.15,1.44,1.82,2.07c0.64,0.64,1.03,1.51,1.87,1.96c1.11,0.19,2.21-0.53,3.32-0.02
		c1.06,0.45,2.02,1.03,2.56,2.11c0.22,0.59,0.27,1.2,0.18,1.82c-0.78,3.06-3.13,2.21-5.18,2.09
		C27.21,110.31,25.96,110.4,24.8,109.67z"/>
	<path class="st6" d="M95.41,85.84c0.75-0.91,1.22-1.8,0.37-2.96c-1.34-1.85-2.33,1.03-3.56,0.21c0.25-3.46,2.63-6.37,2.6-9.93
		c-0.01-0.67,0.49-1.58,1.43-1.27c1.38,0.46,1.56,1.76,1.7,3.02c0.69,2.63,1.17,5.33,2.1,7.88c0.41,1.12,0.26,1.9-0.43,2.72
		c-0.5,0.53-1.12,0.89-1.77,1.18c-0.32,0.14-0.65,0.22-1,0.27C96.12,86.91,95.51,86.7,95.41,85.84z"/>
	<path class="st11" d="M115.17,73.74c1.15-4.15,1.41-8.9,7.29-10.44c-0.79,1.95-1.43,3.54-2.07,5.13c0.42,0.36,0.52,0.82,0.46,1.35
		c-0.09,0.32-0.22,0.63-0.38,0.92c-0.47,1.74-1.52,3.34-1.3,5.25c0.1,0.33,0.1,0.66,0.01,0.99c-0.73,1.18-0.89,2.46-0.66,3.82
		c-0.42,2.6-1.8,4.52-4.12,5.76l0.04-0.06c-0.65,1-1.45,1.66-2.74,1.19c-0.54-0.28-0.73-0.76-0.73-1.34
		c0.06-0.35,0.21-0.67,0.43-0.95c0.61-0.6,1.34-1.07,2.01-1.6c0.25-0.22,0.52-0.42,0.8-0.61C116.49,80.2,115.96,76.98,115.17,73.74z
		"/>
	<path class="st12" d="M39.79,46.78c-0.04,0.25-0.08,0.5-0.12,0.75c-2.11,1.32-1.71,3.64-2.18,5.59c-0.25,1.05,0.13,2.22-0.51,3.23
		c-2.14,0.66-2.32-1.03-2.8-2.35c-0.05-0.85-0.27-1.64-0.75-2.35c-0.36-0.49-0.65-1.04-1.08-1.48c-0.78-0.77-1.94-1-2.65-1.87
		c-0.23-0.47-0.26-0.96-0.15-1.46c0.24-0.67,0.58-1.24,1.31-1.48c0.6-0.1,1.33-0.02,1.79-0.32C35.7,43,38.01,43.75,39.79,46.78z"/>
	<path class="st13" d="M39.67,100.21c-0.04,0.18-0.07,0.37-0.1,0.55c-2.14,2.6-1.78,5.95-2.66,8.93c-2.53,0.42-2.25-1.79-2.92-3.12
		c-0.43-1.38-0.94-2.68-2.68-2.83c-0.49-0.1-0.97-0.23-1.39-0.51c-0.55-0.47-0.85-1.07-1-1.77c0.07-1.58,1.14-1.98,2.45-2.12
		C34.34,97.72,37.29,96.16,39.67,100.21z"/>
	<path class="st6" d="M188.91,27.99c1.8-2.85,3.92-5.54,4.56-8.99c3.54-1.82,1.97,1.92,3.04,2.8c0.16,3.63,1.42,7.36-0.91,10.78
		c-0.71,0.56-1.51,0.68-2.36,0.42c-0.56-0.23-0.86-0.69-1.05-1.23c-0.29-1.18-0.36-2.56-2.13-2.49
		C189.37,29.12,188.77,28.88,188.91,27.99z"/>
	<path class="st14" d="M144.22,77.46c-0.25-1.75-0.5-3.5-0.75-5.25c2.85-3.86,4.82-4.48,9.03-2.87c0.94,1.38,0.5,2.38-0.86,3.12
		c-1.09,0.23-2.28-0.08-3.29,0.62c-1.16,0.89-1.04,1.83-0.12,2.8c0.41,0.34,0.79,0.7,0.99,1.21c0.2,2.98-1.61,2.43-3.39,1.96
		C145.08,78.74,144.45,78.3,144.22,77.46z"/>
	<path class="st7" d="M135.14,30.35c-2.07-0.42-3.52-1.3-2.73-3.79c1.47-0.59,2.87-1.35,4.35-1.9c1-0.37,2.08-0.48,3.1-0.77
		c1.71-0.44,3.52-0.51,5.11-1.4c1.09-0.62,2.14-1.44,3.52-0.83c0.31,0.19,0.5,0.46,0.59,0.81c0.21,3.34-2.84,2.47-4.45,3.47
		c-0.29,0.15-0.59,0.24-0.91,0.31c-1.56,0.28-2.98,0.94-4.37,1.69c-1.07,0.49-0.67,1.65-1.11,2.43
		C137.21,30.82,136.18,30.76,135.14,30.35z"/>
	<path class="st2" d="M135.14,30.35c1.07-0.21,2.34,0.32,3.15-0.84c-0.29-1.29,0.94-1.41,1.55-2c1.25-0.37,2.41-1.15,3.8-0.95
		c0.78,0.02,1.56,0.04,2.09,0.74c0.03,1.8,0.26,3.62-0.7,5.3c-1.03,1.81-2.29,2.81-4.38,1.54c0.07-1.96-0.36-3.37-2.82-3.04
		C136.9,31.23,135.87,31.2,135.14,30.35z"/>
	<path class="st15" d="M217.6,74.56c0.21,0.47,0.42,0.95,0.64,1.42c-0.33,0.38-0.31,0.9-0.55,1.32c-0.96,1.27-0.73,2.7-0.56,4.13
		c-0.05,1.46-0.95,2.55-1.63,3.73c-1.05,1.27-2.82,1.37-3.98,2.45c-0.55,0.15-1.07,0.1-1.55-0.2c-0.36-0.45-0.43-0.96-0.29-1.51
		c0.5-0.97,1.48-1.42,2.25-2.09c0.25-0.22,0.51-0.42,0.77-0.63c1.37-2.09,1.19-4.26,0.33-6.46c0.7-2.26,0.73-4.74,2.16-6.77
		c1.23-0.77,1.8-0.06,2.01,1.03C217.41,72.16,217.64,73.35,217.6,74.56z"/>
	<path class="st16" d="M21.77,89.63c1.15,0.02,2.18,0.3,2.78,1.42c0.03,1.05,0.3,1.94,1.48,2.23c1.6,0.3,1.93,1.77,2.66,2.88
		c0.46,0.96,0.14,1.75-0.56,2.44c-0.29,0.23-0.62,0.4-0.97,0.52c-1.89,0.37-3.67,0.42-4.63-1.73c-0.76-0.43-1.63-0.73-2.12-1.54
		c-0.47-0.75-0.77-1.53-0.53-2.43c0.44-0.83,1.01-1.61,1.13-2.59C21.14,90.34,21.4,89.94,21.77,89.63z"/>
	<path class="st17" d="M95.47,31.96c4.06,0.64,5.12-0.47,4.08-4.11c-0.68-2.37-1.63-4.7-1.6-7.23c1.9,2.41,1.62,5.63,3.01,8.22
		c1.74,0.9,3.75-0.26,5.48,0.74c0.63,1.05,0.6,2.07-0.07,3.09c-1.73,1.48-3.88,0.42-5.77,0.95c-2.38-0.07-4.83,1.29-7.12-0.38
		C94.15,32.81,94.81,32.39,95.47,31.96z"/>
	<path class="st18" d="M156.22,15.3c0.77,0.09,0.95,0.57,0.84,1.26c0.25,0.27,0.32,0.59,0.25,0.95c-0.27,0.66-0.79,1.1-1.31,1.55
		c-1.43,1.03-0.99,2.65-1.25,4.05c-0.28,1.32-0.9,2.37-2.21,2.89c-2.08-0.5-1.79-2.25-1.92-3.74c-0.13-1.56-0.28-3.12-0.13-4.69
		C151.53,14.62,153.73,14.59,156.22,15.3z"/>
	<path class="st19" d="M27.01,39.35c0.62-0.06,1.1,0.1,1.25,0.79c0.11,1.54,1.41,2.99,0.31,4.62c-0.3,0.23-0.63,0.39-0.99,0.5
		c-1.12,0.24-2.24,0.26-3.35-0.02c-0.34-0.15-0.67-0.32-0.99-0.51c-0.53-0.96-0.41-2.17-1.17-3.05c-0.16-0.34-0.27-0.69-0.34-1.06
		c-0.13-0.94-0.13-1.86,0.15-2.78c0.25-1.15,1.41-1.04,2.12-1.55c0.85,0.09,1.18,0.81,1.65,1.36
		C25.54,38.66,25.31,39.77,27.01,39.35z"/>
	<path class="st20" d="M156.22,15.3c-2.29,0.05-4.62,0.02-5.22,3.01c-0.79,1.21-0.83,2.87-2.24,3.7c-1.24,0.26-2.49,0.53-3.73,0.79
		c-0.21-0.19-0.3-0.39-0.26-0.6c0.04-0.22,0.09-0.33,0.15-0.33c0.28-0.69,0.56-1.38,0.85-2.07c0.13-1.65,1.45-2.52,2.4-3.64
		C150.7,14.55,153.28,13.19,156.22,15.3z"/>
	<path class="st21" d="M21.77,89.63c-0.01,0.44-0.02,0.89-0.03,1.33c-1.61,2.37-4.91,3.09-5.86,6.09c-0.12,0.33-0.26,0.64-0.43,0.95
		c-0.51,0.65-0.8,1.67-1.98,1.27C11.56,94.43,15.81,89.5,21.77,89.63z"/>
	<path class="st22" d="M19.43,43c2.42,1.93,2.22,4.93,3.04,7.51c-1.27,1.12-2.59,0.36-3.9,0.09c-0.79,0.1-1.6,0.3-2.15-0.56
		c-0.18-0.66-1.17-1.04-0.68-1.94c1.15-1.22,2.9-0.16,4.2-1.09c0.42-0.07-0.13-0.76,0.02-0.29c0.07,0.21-0.02,0.25-0.19,0.33
		c-1.25,0.57-2.12,0.01-2.87-0.93c-0.63-1.31-0.43-2.57,0.23-3.81c0.31-0.48,0.7-0.85,1.27-0.98C19.4,41.5,19.14,42.42,19.43,43z"/>
	<path class="st23" d="M210.01,85.73c0.04,0.56,0.07,1.13,0.11,1.69c0.12,0.76-0.26,1.23-0.88,1.57c-0.16,0.03-0.31,0.06-0.47,0.09
		c-0.16-0.01-0.31-0.02-0.47-0.03c-0.91-0.21-1.81-0.17-2.71,0.13c-0.31,0.08-0.63,0.1-0.95,0.11c-0.33-0.01-0.64-0.07-0.96-0.14
		c-1.07-0.35-2.3-0.22-3.17-1.12c-3.04-0.01-6.08-0.01-9.11-0.02c0.68-0.49,1.37-0.98,2.05-1.47c2.28-1.08,4.87,0.11,7.14-1.01
		c1.65-0.17,3.31-0.12,4.97-0.09c1.14,0.09,2.28-0.03,3.42-0.09C209.37,85.35,209.71,85.47,210.01,85.73z"/>
	<path class="st24" d="M99.37,104.29c0.09-3.3,0.6-6.53,1.5-9.7c0.87-1.05,0.8-2.34,0.86-3.59c0.07-0.93,0.37-1.7,1.4-1.93
		c0.36-0.01,0.69,0.09,1,0.27c0.63,0.66,0.93,1.46,0.91,2.37c-0.09,0.68-0.29,1.33-0.5,1.98c-0.69,1.54-1.15,3.15-1.45,4.81
		c-0.37,0.79-0.95,1.44-1.32,2.23c-0.49,1.98-1.69,3.77-1.65,5.9C98.33,106.34,99.28,105.18,99.37,104.29z"/>
	<path class="st25" d="M198.96,46.04c-1.13,2.11-2.56,4.12-2.44,6.69c-1.79-0.26-0.94-1.38-0.73-2.29c-0.01-3.1,0.53-6.12,1.41-9.09
		c0.1,0.06,0.22,0.11,0.3,0.2c0.06,0.07,0.07,0.19,0.1,0.29c0.13-1.6,0.74-3.14,0.56-4.77c0.18-0.52,0.36-1.04,0.54-1.56
		c0.52-0.42,1.08-0.45,1.67-0.18c0.61,0.59,0.76,1.36,0.84,2.16c0.05,0.75,0.01,1.49-0.12,2.23
		C200.51,41.87,199.4,43.84,198.96,46.04z"/>
	<path class="st26" d="M197.97,105.06c0.03-3.31,0.39-6.57,1.52-9.71c0.78-0.93,0.73-2.08,0.84-3.19c0.19-1.07,0.37-2.13,1.3-2.86
		c0.37-0.12,0.73-0.11,1.08,0.04c0.9,0.82,1.24,1.85,1.21,3.04c-0.37,2.14-1.78,3.9-2.16,6.04c-0.27,0.88-1.03,1.44-1.43,2.24
		c-0.52,2-1.04,4-1.56,6C197.31,106.74,197.74,105.85,197.97,105.06z"/>
	<path class="st27" d="M117.33,52.81c-1.48-2.32-1.25-5.3-2.91-7.55c-0.38-0.36-0.47-0.83-0.49-1.32c0.21-1.22,0.55-2.46-0.46-3.54
		c-0.19-0.29-0.34-0.59-0.45-0.92c-0.19-0.71-0.25-1.42-0.2-2.15c0.26-0.85,0.14-2.03,1.6-1.8c2.27,4.97,2.37,10.46,3.79,15.63
		C118.53,52.04,118.76,52.88,117.33,52.81z"/>
	<path class="st28" d="M195.1,32.34c1.66-3.61,0.42-7.38,0.64-11.07c-0.33-1.17-0.66-2.34,0.19-3.45c1.88,3.38,1.98,7.16,2.36,10.87
		c0.23,0.48,0.83,0.7,0.93,1.28c0.06,1.55-0.86,2.4-2.13,3C196.31,33.15,195.57,33.17,195.1,32.34z"/>
	<path class="st25" d="M156.38,27.88c6.23,2.34,12.92,1.01,19.27,2.4c0.24,0.45,0.15,0.83-0.25,1.13c-4.11,1.26-8.29,0.9-12.41,0.26
		c-2.29-0.36-4.59-0.85-6.84-1.48c-0.41-0.2-0.7-0.5-0.89-0.92C155.25,28.5,155.69,28.09,156.38,27.88z"/>
	<path class="st29" d="M111.4,85.71c0.03,0.57,0.06,1.14,0.09,1.7c0.09,0.58-0.14,1.03-0.56,1.41c-0.31,0.17-0.64,0.26-0.99,0.28
		c-1.48-0.11-2.9-0.8-4.43-0.53c-0.76,0.21-1.58,0.11-2.32,0.41c-1.05-0.12-1.01,1.65-2.21,1.28c0.1-1.8-0.8-2.31-2.51-2.34
		c-1.68-0.03-3.49,0.66-5.03-0.62c1.07-1.13,2.65,0.05,3.77-0.84l-0.01,0c2.26-0.89,4.6-1.25,7.02-1.04
		c1.03,0.01,2.06-0.03,3.09,0.03C108.67,85.57,110.08,85.05,111.4,85.71z"/>
	<path class="st30" d="M93.49,33.24c2.49,0,4.98,0,7.46,0c1.71-0.71,3.52-0.07,5.26-0.39c1.54-0.68,2.97-0.14,4.41,0.38
		c0.33,0.16,0.63,0.37,0.89,0.63c0.15,0.34,0.18,0.68,0.09,1.04c-0.57,0.97-1.51,1.44-2.5,1.85c-0.5,0.16-1.02,0.19-1.54,0.1
		c-1.02-0.23-1.76-0.96-2.64-1.45c-0.98-0.6-2.3-0.41-3.13-1.35c-3.24,0.15-6.47,1.49-9.71,0.03
		C92.33,33.44,92.89,33.31,93.49,33.24z"/>
	<path class="st31" d="M23.08,35.51c0.1,0.24,0.19,0.48,0.29,0.72c-0.79,0.56-1.55,1.17-2.45,1.57c-0.88,0.31-1.76,0.65-2.5,1.24
		c-0.72,0.57-1.34,1.25-1.88,1.99c-0.58,0.56-0.53,1.3-0.51,2.02c-0.14,0.45-0.38,0.85-0.66,1.22c-0.52,0.55-0.87,1.42-1.9,1.02
		c-0.36-5.59,0.77-7.72,5.27-9.91C20.19,35.12,21.65,34.91,23.08,35.51z"/>
	<path class="st32" d="M217.6,74.56c-0.96-0.78-1.69-1.69-1.24-3.01c0.4-1.17-0.21-1.48-1.17-1.59c0.04-1.44,0.39-2.74,1.53-3.73
		c0.77-0.84,1.37-2.37,2.79-1.57c1.08,0.61,0.7,1.9,0.34,2.96c-0.2,0.58-0.22,1.18-0.22,1.79c0,0.37-0.06,0.72-0.15,1.08
		c-0.22,1.42,0.02,2.98-1.29,4.04C217.98,74.55,217.79,74.56,217.6,74.56z"/>
	<path class="st33" d="M119.68,28.17c0.22,2.36-1.64,3.22-3.11,4.37c-0.74,0.6-1.27,0.31-1.72-0.39c-0.3-1.15,0.45-1.97,0.9-2.88
		c0.14-0.3,0.31-0.59,0.47-0.88c0.71-1.14,1-2.42,1.25-3.72c0.46-1.68,0.81-3.39,1.27-5.07c0.16-0.53,0.41-1,0.88-1.33
		c1.7,1.85,0.48,4.04,0.7,6.06C119.53,25.5,120.41,26.97,119.68,28.17z"/>
	<path class="st34" d="M114.41,89.49c1.28,5.2,2.56,10.41,3.84,15.61c0.16,0.85-0.24,1.15-1.04,1.02c-0.72-2.03-1.44-4.07-2.16-6.1
		c-0.12-0.99-0.92-1.65-1.21-2.56c-0.39-1.27-0.67-2.57-1.04-3.84c-0.28-1.04-0.3-2.08,0.08-3.1
		C113.21,89.9,113.44,89.13,114.41,89.49z"/>
	<path class="st15" d="M118.07,24.98c0.16,1.51-0.27,2.8-1.43,3.81c-1.91,0.03-1.39-1.54-1.63-2.56c-0.26-1.13,0.26-2.4-0.6-3.44
		c0.5-1.75,1-3.5,1.5-5.25c1.12-1.52,1.74-0.7,2.18,0.52c0.56,1.53,0.02,3.1,0.02,4.65C118.18,23.47,117.81,24.22,118.07,24.98z"/>
	<path class="st35" d="M115.17,73.74c0.45,0.01,0.9,0.02,1.35,0.03c-0.28,3.57,1.63,7.58-2.12,10.43c-1.41-1.58-0.89-3.45-0.8-5.26
		C114.11,77.2,114.64,75.47,115.17,73.74z"/>
	<path class="st17" d="M216.04,28.15c-0.1,2.43-1.18,3.84-3.79,3.62c-0.11-0.13-0.21-0.25-0.32-0.38c-0.16-0.49-0.11-0.97,0.09-1.44
		c0.77-1.23,1.53-2.47,1.7-3.96c0.3-1.18,0.58-2.36,0.62-3.59c0.19-1.37,0.42-2.72,1.74-3.52c1.19,0.19,1.11,0.92,0.74,1.77
		c-0.04,1.22-0.09,2.44-0.13,3.67C215.9,25.5,216.79,26.96,216.04,28.15z"/>
	<path class="st36" d="M106.85,42.3c-1.42,1.24-2.84,2.48-4.27,3.72c-2.12,0.16-1.41-1.39-1.49-2.46c0.74-1.85,1.73-3.52,3.47-4.61
		c1.73-0.45,2.88,0.5,3.95,1.65C108.89,42.09,107.34,41.67,106.85,42.3z"/>
	<path class="st37" d="M201.05,86.45c-2.53,0.02-5.07,0.05-7.6,0.07c0.79-0.52,1.58-1.03,2.37-1.55c1.26,1.28,2.46,0.73,3.65-0.11
		c0.87-0.52,0.83-1.38,0.85-2.22c-0.03-3.2-0.05-6.41-0.08-9.61c-0.34-0.36-0.28-0.62,0.19-0.8c1.31,3.37,0.65,7.01,1.41,10.45
		c0.23,0.29,0.42,0.62,0.56,0.96C202.68,84.95,202.16,85.84,201.05,86.45z"/>
	<path class="st38" d="M198.96,46.04c-1.17-2.38,0.5-4.09,1.4-5.99c0.95-1.88,2.38-1.22,3.79-0.74c0.33,0.16,0.61,0.38,0.85,0.65
		c0.83,1.71-1.26,1.86-1.58,2.96C201.38,43.18,200.52,45.12,198.96,46.04z"/>
	<path class="st39" d="M216.03,19.1c-0.29,1.26-0.58,2.51-0.88,3.77c-0.43,0.65-0.87,1.24-1.72,0.52c-0.78-1.33-0.76-2.8-0.41-4.2
		c0.26-1.02-0.35-0.79-0.82-0.9c0.16-1.62,0.44-3.19,1.52-4.5c0.84-1.13,1.61-1.07,2.12,0.22c0.51,1.27,0.35,2.67,0.57,4.01
		C216.42,18.43,216.29,18.79,216.03,19.1z"/>
	<path class="st40" d="M180.87,83.42c-0.47,1.25-1.51,1.78-2.67,1.5c-5.39-1.29-10.86-0.43-16.28-0.7c-0.76-0.04-1.49-0.1-1.93-0.85
		C166.95,83.39,173.91,83.41,180.87,83.42z"/>
	<path class="st10" d="M152.41,25.8c0.46-1.04,1.66-1.68,1.59-3c0.5-1.16,0.91-2.43,2.58-2.21c0.37,0.04,0.72,0.13,1.06,0.28
		c0.5,0.3,0.8,0.73,0.91,1.31c0.03,0.78,0.21,1.59-0.54,2.18c-0.67,0.32-1.21,0.78-1.47,1.49c-0.91,2.49-2.38,2.3-4.13,0.91
		C152.24,26.44,152.23,26.12,152.41,25.8z"/>
	<path class="st41" d="M211.5,46.02c-0.35-0.47-0.7-0.94-1.05-1.41c-0.69-1.99-1.68-3.85-2.35-5.84c-0.01-0.56,0.18-1.05,0.47-1.51
		c0.71-0.63,0.74-2.17,2.27-1.74c1,1.83,1.4,3.81,1.48,5.87c0.4,1.44,0.46,2.9,0.24,4.38C212.29,46.18,211.93,46.26,211.5,46.02z"/>
	<path class="st42" d="M213.06,89.44c1.89,3,2.35,6.32,2.11,9.78c-0.27,0.51-0.61,0.87-1.26,0.66c-0.83-0.22-1.52-0.64-1.97-1.4
		c-0.07-0.67,0.15-1.27,0.45-1.85c0.5-1.04,0.54-2.03-0.34-2.92c-0.54-0.62-1.01-1.28-1.02-2.15c0.02-0.33,0.1-0.65,0.23-0.96
		C211.73,90.01,211.9,88.95,213.06,89.44z"/>
	<path class="st17" d="M118.77,76.82c0.04-0.27,0.08-0.55,0.13-0.82c0.23-0.26,0.5-0.32,0.82-0.18c0.62,0.42,0.69,1.03,0.59,1.7
		c-0.74,1.21,0.09,2.66-0.62,3.88c-0.35,3.17-2.16,4.84-5.29,5.12c1.5-1.86,2.88-3.79,3.69-6.08
		C117.25,79.03,118.17,77.95,118.77,76.82z"/>
	<path class="st34" d="M190.08,82.11c1.41-0.05,2.81-1.06,4.23-0.05c-3.72,1.98-7.45,3.96-11.17,5.94
		c-0.68,0.35-0.93-0.09-1.11-0.62c-0.09-0.86,0.55-1.23,1.12-1.65c1.18-0.13,2.21-0.54,2.97-1.5c0.82-1.44,2.6-0.62,3.63-1.56
		C189.82,82.45,189.93,82.27,190.08,82.11z"/>
	<path class="st15" d="M212.2,18.3c0.51,0.15,1.29-1.94,1.51,0.11c0.18,1.7,0.04,3.44,0.05,5.16c0.85,0.84,0.29,1.84,0.3,2.77
		c-0.54,0.89-0.22,2.34-1.69,2.63c-1.99-1.68-0.24-4.33-1.59-6.18C211.24,21.29,211.17,19.62,212.2,18.3z"/>
	<path class="st43" d="M111.4,85.71c-1.16,0.7-2.42,0.87-3.74,0.71c-0.85-1.05-1.62-2.23-3.26-1.99c-1.12-0.03-2.24,0-3.26-0.58
		c-0.35-0.25-0.46-0.59-0.33-1c2.27-0.05,4.54-0.1,6.81-0.15c4.36-0.65,4.63-0.44,3.76,2.98L111.4,85.71z"/>
	<path class="st17" d="M217.42,76.8c0.27-0.27,0.55-0.54,0.82-0.82c1.66,3.81,0.79,7.03-2.28,9.72c-0.74,0.2-0.97-0.08-0.76-0.79
		c0.49-1.26,0.98-2.52,1.46-3.78C215.96,79.52,216.79,78.18,217.42,76.8z"/>
	<path class="st44" d="M198.68,29.63c-0.13-0.31-0.26-0.62-0.39-0.93c3.49,0.2,6.99,0.41,10.19-1.44c2.48-0.01,2.29,1.68,2.13,3.35
		c-0.33,0.97-0.96,1.67-1.87,2.12c-0.35,0.09-0.7,0.07-1.04-0.07c-0.89-0.71-0.5-2.8-2.5-2.32c-0.53,0.07-1.05,0.11-1.58,0.13
		c-1.32,0.01-2.65,0.12-3.94-0.26C199.34,30.05,199,29.85,198.68,29.63z"/>
	<path class="st45" d="M120.38,16.88c-0.24,0.23-0.48,0.46-0.72,0.69c-3.22,0.25-1.9-2.3-2.32-3.79c0.13-1.47,1.06-2.33,2.26-2.99
		c1.64-0.82,1.91,0.27,1.89,1.47c-0.02,1.07-0.56,2.08-0.49,3.18C120.97,15.99,120.76,16.47,120.38,16.88z"/>
	<path class="st38" d="M208.48,38.55c1.03,1.9,3.08,3.46,1.97,6.06c-1.19-0.57-2.38-1.13-3.57-1.7c-0.89-1.29-1.61-2.6-0.36-4.08
		C207.11,38.26,207.72,37.87,208.48,38.55z"/>
	<path class="st46" d="M36.66,109.74c0.3-3.21-0.96-6.93,2.91-8.98c-0.18,3.23-1.7,6.27-1.35,9.57c-0.5,0.07-1,0.13-1.49,0.2
		c-0.17-0.16-0.24-0.33-0.21-0.51C36.57,109.83,36.61,109.74,36.66,109.74z"/>
	<path class="st30" d="M113.58,93.32c0.31,1.47,0.61,2.94,0.92,4.41c-0.05,1.17-0.67,1.23-1.55,0.8c-0.58-1.41-1.98-1.94-3.02-2.85
		c-0.77-1.16-0.33-2.05,0.64-2.82C111.68,92.34,112.68,92.48,113.58,93.32z"/>
	<path class="st47" d="M102.24,98.94c0.06-2.01,0.56-3.87,1.78-5.5c1.14-1.54,2.43-0.58,3.69-0.24c0.37,0.18,0.67,0.45,0.91,0.78
		c0.17,0.49-0.01,0.75-0.53,0.77c-0.11,0.15-0.24,0.29-0.36,0.42c-0.77,1.16-2.07,1.68-3.07,2.56l0.06-0.07
		C104.13,98.56,103.35,99.07,102.24,98.94z"/>
	<path class="st45" d="M216.03,18.32c-1.22-0.93-0.76-2.27-0.76-3.44c0-1.28-0.48-1.52-1.56-1.08c0.13-1.47,1.05-2.34,2.26-3
		c1.6-0.59,2.12-0.1,1.52,1.52c0,0.49,0,0.98-0.01,1.47c0.36,0.91-0.1,1.75-0.2,2.62C216.8,17.01,217.65,18.48,216.03,18.32z"/>
	<path class="st48" d="M108.1,94.76c0.05-0.26,0.11-0.52,0.16-0.79c0.33-1.34-0.59-1.55-1.55-1.74c-0.31-0.12-0.58-0.31-0.8-0.56
		c-0.36-0.96-1.14-1.55-1.9-2.15l-0.28-0.14c-0.27-0.2-0.48-0.45-0.64-0.75c0.57-0.96,1.54-0.62,2.38-0.73
		c1.57,0.28,3.04,0.88,4.56,1.36c0.78,0.64,1.14,1.49,1.26,2.47c0.01,0.6-0.21,1.12-0.59,1.57c-0.44,0.72-0.87,1.45-0.74,2.35
		C109.32,95.37,108.71,95.06,108.1,94.76z"/>
	<path class="st49" d="M213.19,96.87c-0.42,0.54-0.83,1.08-1.25,1.61c-1.06-0.98-2.12-1.96-3.17-2.94c-0.64-0.31-0.8-0.86-0.79-1.51
		c0.06-0.41,0.24-0.77,0.53-1.08c1.47-0.89,2.68-0.35,3.79,0.71C213.1,94.59,213.47,95.64,213.19,96.87z"/>
	<path class="st11" d="M117.35,13.78c1.57,0.77-0.22,3.61,2.32,3.78c-0.01,0.23-0.03,0.46-0.04,0.68c-0.04,0.55-0.08,1.1-0.12,1.65
		c-1.44,0.79-0.09,3.21-2.12,3.66c0-1.74-0.02-3.48,0-5.23c0.01-1.26-0.72-1.02-1.47-0.78C116.2,16.22,116.38,14.85,117.35,13.78z"
		/>
	<path class="st50" d="M36.78,56.44c-0.04-2.2-0.35-4.4,0.49-6.57c0.47-1.23,0.85-2.32,2.4-2.34c-1.01,2.9-1.52,5.88-1.38,8.96
		c-0.31,0.05-0.63,0.11-0.94,0.16C37.06,56.86,36.87,56.78,36.78,56.44z"/>
	<path class="st51" d="M201.88,83.46c-0.01-0.26-0.03-0.51-0.04-0.77c1.22,0,2.44,0,3.65,0c4.33-0.64,4.62-0.41,3.79,3.04
		c-0.81,1.07-1.96,0.65-3.01,0.69C205.33,84.65,203.26,84.57,201.88,83.46z"/>
	<path class="st52" d="M31.38,99.36c-0.71,0.69-1.43,1.39-2.14,2.08c-1.05,0.77-2.45-1.17-3.38,0.45c-0.11,0.11-0.22,0.22-0.34,0.32
		c-1.09-0.02-1.87-0.49-2.24-1.56c0.4-2.95,3.15-1.12,4.46-2.22l-0.03,0.02c0.84-0.32,1.4-1.51,2.56-0.82
		C30.65,98.21,31.01,98.78,31.38,99.36z"/>
	<path class="st53" d="M21.66,101.46c0.3,0.99,0.6,1.97,0.9,2.96c-0.9,2.11-2.53,0.94-3.91,0.86c-0.84,0.12-1.68,0.29-2.27-0.57
		c-0.48-1.53,0.94-1.58,1.67-2.17c0.89-0.48,1.73-1.04,2.71-1.34C21.1,101.13,21.4,101.21,21.66,101.46z"/>
	<path class="st35" d="M210.79,22.79c0.76-0.24,1.48-0.48,1.47,0.78c-0.02,1.74,0,3.48,0,5.22c0.18,0.19,0.25,0.39,0.21,0.6
		c-0.04,0.21-0.09,0.32-0.15,0.32c-0.5,0.46-0.94,1.1-1.76,0.54c-0.29-1.31-0.04-2.83-1.39-3.74
		C209.72,25.28,210.26,24.04,210.79,22.79z"/>
	<path class="st24" d="M101.77,43.09c0.16,1.01-0.29,2.18,0.81,2.93c-1.98,1.81-2,4.33-2.45,6.7c-1.78-0.28-0.89-1.41-0.73-2.31
		c-0.28-2.55,0.57-4.96,0.93-7.43c0.3-0.24,0.64-0.32,1.01-0.24C101.49,42.86,101.63,42.98,101.77,43.09z"/>
	<path class="st54" d="M114.54,43.72c-0.04,0.51-0.08,1.03-0.12,1.54c-1.07-0.78-2.14-1.56-3.2-2.34c-1.62-1.31-3.09-2.62,0.2-3.66
		c0.85-0.07,1.59,0.19,2.19,0.8l0-0.02C114.47,41.13,114.88,42.33,114.54,43.72z"/>
	<path class="st55" d="M151,72.23c1.33-0.53,1.54-1.64,1.5-2.88c1.41,0.41,1.64,1.54,1.69,2.78c-1.83,0.75,0.25,2.1-0.45,3.03
		c-0.38,0.88-0.79,1.72-1.93,1.75c-1.04-0.63-1.64-1.58-2.05-2.7C149.73,73.28,149.45,72.17,151,72.23z"/>
	<path class="st24" d="M104.72,39.33c-0.98,1.25-1.97,2.51-2.95,3.76c0,0-0.19-0.18-0.19-0.18c-1.31-1.99,0.55-3.86,0.22-5.82
		c0.17-0.52,0.33-1.04,0.5-1.57c0.46-0.42,0.99-0.47,1.56-0.26c0.47,0.35,0.7,0.84,0.83,1.39
		C104.89,37.54,104.85,38.43,104.72,39.33z"/>
	<path class="st56" d="M212.3,46.02c0.01-1.55,0.02-3.09,0.02-4.64c1.39,3.09,1.73,6.42,2.28,9.71c0.19,0.76,0.65,1.67-0.8,1.62
		c-0.96-1.07-1.08-2.46-1.42-3.76C213,47.96,212.13,47.01,212.3,46.02z"/>
	<path class="st44" d="M209.28,85.73c0.49-3.21-1.67-3.09-3.79-3.04c1.07-1.11,2.48-0.53,3.74-0.74c0.79-0.35,1.4-1.22,2.45-0.8
		c0.72,0.92,1.14,1.89,0.58,3.06c-0.41,1.01-1.17,1.5-2.24,1.52c0,0-0.37,0-0.37,0L209.28,85.73z"/>
	<path class="st35" d="M213.03,76.73c0.35-0.06,0.7-0.11,1.05-0.17c0.37,2.65,1.52,5.41-1.09,7.63c-0.99-1.25-0.57-2.86-1.06-4.24
		c-0.03-0.38,0.07-0.72,0.31-1.03C212.5,78.19,212.76,77.46,213.03,76.73z"/>
	<path class="st7" d="M154.33,81.39c-0.14,0.21-0.27,0.42-0.41,0.64c-1.36,0.28-2.03-0.81-2.94-1.45c-0.26-0.2-0.51-0.42-0.75-0.64
		c-1.12-0.77-1.24-1.87-0.99-3.09c0.22-0.25,0.49-0.4,0.83-0.42c0.91,0.08,1.49,1.3,2.59,0.72c1.19,0.03,1.51,1.02,2.02,1.81
		C154.55,79.78,154.44,80.58,154.33,81.39z"/>
	<path class="st44" d="M109.82,28.74c1-0.75,1.99-1.51,2.99-2.26c2.54,0.58,1.55,2.51,1.55,4.06c-0.16,0.61-0.45,1.16-0.85,1.65
		c-0.58,0.63-1.27,0.91-2.11,0.57C110.32,31.63,110.42,30.04,109.82,28.74z"/>
	<path class="st57" d="M109.82,28.74c2.42,0.45,1.32,2.38,1.57,3.75c-0.42,0.44-0.91,0.49-1.46,0.31c-1.03-1.35-2.36-2.34-3.77-3.24
		c-1.72-0.29-3.62,0.7-5.19-0.71C103.92,28.81,106.87,28.77,109.82,28.74z"/>
	<path class="st35" d="M114.42,22.79c1.13-0.49,1.44-0.08,1.51,1.1c0.11,1.64-0.69,3.44,0.71,4.9c-0.03,0.27-0.06,0.53-0.09,0.8
		c-0.8,0.24-1.39,1.53-2.44,0.49c-0.07-1.69-0.11-3.39-0.49-5.05C113.89,24.28,114.15,23.54,114.42,22.79z"/>
	<path class="st54" d="M219.02,69.27c-0.47-0.37-0.32-0.79-0.17-1.27c0.29-0.94,1.54-2.01,0.32-2.85c-0.91-0.63-1.53,0.88-2.45,1.08
		c0.4-2.77,2.84-2.55,5.51-3.79c-1.47,2.08-1.21,3.77-1.75,5.3C219.83,68.09,220.41,69.63,219.02,69.27z"/>
	<path class="st44" d="M111.39,85.68c0.53-3.26-1.72-2.99-3.76-2.98c0.82-0.97,1.97-0.61,3-0.74c1-0.38,1.58-1.58,3.12-1.51
		c0.29,1.25,0.57,2.48-0.1,3.77C113.22,85.21,112.49,85.74,111.39,85.68z"/>
	<path class="st58" d="M100.82,82.85c0.02,0.22,0.07,0.42,0.16,0.62c0.91,2.28,0.16,3-2.12,2.27c1.29-1.57,0.35-3.08,0.07-4.71
		c-0.35-2.03-1.33-3.98-0.96-6.12C99.69,77.27,99.57,80.3,100.82,82.85z"/>
	<path class="st20" d="M152.49,26.56c1.51,0.25,3.35,1.48,3.63-1.52c0.07-0.72,1.14-0.74,1.89-0.7c-0.54,1.18-1.09,2.35-1.63,3.53
		c-0.31,0.32-0.62,0.64-0.93,0.96c-0.65,0.63-1.32,1.19-2.32,0.9c-0.68-0.38-1.05-0.96-1.18-1.72
		C151.91,27.46,152.05,26.95,152.49,26.56z"/>
	<path class="st40" d="M189.74,82.66c-0.9,1.26-2.37,1.16-3.63,1.56c-1.52-0.51-3.04-1.02-4.57-1.54c1.06-0.33,1.89-3.22,3.36-0.07
		C185.2,83.24,188.06,82.67,189.74,82.66z"/>
	<path class="st59" d="M200.43,72.24c-0.06,0.26-0.12,0.53-0.18,0.8c-0.53-0.25-1.38-0.84-1.55-0.07c-0.3,1.34-0.36,3.03-2.1,2.62
		c-1.5-0.35-0.58-2.14-0.82-3.28c0.62-0.17,0.96,2.34,1.92,0.11C198.05,71.61,199.41,70.82,200.43,72.24z"/>
	<path class="st60" d="M28.55,109.73c1.79-0.19,4.1,0.64,4.49-2.3c1.29-0.18,1.38,0.94,1.82,1.68c0.29,0.76,0.18,1.44-0.42,2.01
		c-2.03,0.37-3.98,0.04-5.91-0.6C28.08,110.25,28.08,109.99,28.55,109.73z"/>
	<path class="st54" d="M120.39,15.32c-1.42-1.31,2.78-3.59-0.78-4.53c0.84-0.88,1.76-1.56,3.45-1.22c-1.27,1.28-0.59,2.9-1.21,4.26
		C121.2,14.17,121.81,15.75,120.39,15.32z"/>
	<path class="st61" d="M213.91,99.88c0.42-0.22,0.84-0.44,1.26-0.66c0.56,1.71,1.13,3.41,1.69,5.12c0.15,0.83-0.23,1.1-1,0.98
		C214.32,103.83,214.55,101.7,213.91,99.88z"/>
	<path class="st14" d="M192.78,31.01c0.06,0.49,0.12,0.98,0.18,1.47c-0.1,0.51-0.42,0.84-0.88,1.05c-0.71,0.29-1.6-0.18-2.22,0.51
		c-0.44,0.03-0.88,0.06-1.32,0.09c-0.99,0.4-1.78,0.35-2.06-0.89c0.02-0.36,0.15-0.67,0.38-0.94c1.1-0.82,2.6-0.36,3.72-1.15
		c0.27-0.19,0.55-0.35,0.85-0.47C191.93,30.56,192.39,30.62,192.78,31.01z"/>
	<path class="st62" d="M113.64,84.21c0-0.96,0-1.92,0-2.9c-1.28-0.61-1.94,0.99-3.02,0.64c0.99-1.01,1.98-2.01,2.96-3.02
		c1.53,1.56,0.51,3.51,0.8,5.26C114.14,84.21,113.89,84.21,113.64,84.21z"/>
	<path class="st31" d="M158.55,22.17c-0.28-0.29-0.55-0.58-0.83-0.88c-1.01-1.12-1.26-2.39-0.73-3.81c0.02-0.31,0.05-0.62,0.07-0.93
		C159.65,17.87,159.61,19.89,158.55,22.17z"/>
	<path class="st63" d="M111.36,39.78c-2.89,0.92-0.39,2.08-0.14,3.14c-1.46-0.21-2.81-1.16-4.37-0.62c0.54-0.55,1.07-1.09,1.61-1.64
		c-0.18-0.17-0.26-0.36-0.24-0.57c0.02-0.21,0.05-0.32,0.09-0.32c0.41-0.58,0.95-0.93,1.66-1.02
		C110.65,38.79,111.33,38.85,111.36,39.78z"/>
	<path class="st64" d="M135.32,82.72c1.83,0.14,3.47-1.17,5.35-0.67c-0.27,0.26-0.55,0.51-0.83,0.77c-1.76,2.02-3.89,2.73-6.48,1.82
		c-0.4-0.25-0.49-0.59-0.25-1c0.18-0.12,0.38-0.19,0.6-0.21C134.18,83.05,134.67,82.7,135.32,82.72z"/>
	<path class="st13" d="M149.68,49.85c-1.06,2.03-2.11,4.05-3.17,6.08c-0.27-0.35-0.54-0.71-0.81-1.06
		C146.56,52.82,147.47,50.82,149.68,49.85z"/>
	<path class="st65" d="M215.87,105.32c0.33-0.33,0.67-0.65,1-0.98c0.74,1.75,1.58,3.49,0.19,5.63
		C216.66,108.42,216.26,106.87,215.87,105.32z"/>
	<path class="st41" d="M154.66,78.97c-0.73-0.5-1.45-1-2.18-1.5c-0.82,0.25-0.92-0.13-0.7-0.8c0.49-0.48,0.98-0.96,1.47-1.44
		c0.54-0.45,1.07-0.4,1.59,0.03C154.78,76.5,154.72,77.74,154.66,78.97z"/>
	<path class="st52" d="M144.91,21.87c0.04,0.31,0.07,0.62,0.11,0.93c-1.52,1.28-3.34,1.53-5.23,1.5c-0.26-0.17-0.35-0.34-0.26-0.51
		c0.08-0.18,0.17-0.26,0.25-0.26C141.49,22.97,143.2,22.42,144.91,21.87z"/>
	<path class="st47" d="M119.71,75.81c-0.27,0.06-0.55,0.12-0.82,0.18c-1.43-2.46,0.33-4.16,1.42-6.02c1.35,1.51-0.76,3.09,0.09,4.62
		C120.17,75,119.94,75.4,119.71,75.81z"/>
	<path class="st63" d="M207.14,39.16c-1.22,1.17-0.29,2.49-0.25,3.74c-1.16-0.83-2.32-0.97-3.47,0.02c-0.39-1.35,1.64-1.6,1.32-2.92
		c0.24-0.72,0.77-1.07,1.49-1.19C206.56,38.83,206.87,38.94,207.14,39.16z"/>
	<path class="st31" d="M28.5,44.52c0.45-1.49-1.01-2.88-0.24-4.39c0.87,1.74,1.73,3.48,2.6,5.21c-0.28,0.45-0.57,0.9-0.85,1.35
		c-0.54-0.32-0.81-0.87-1.15-1.36C28.69,45.09,28.58,44.82,28.5,44.52z"/>
	<path class="st66" d="M101.8,37.09c1.23,1.99-0.67,3.86-0.22,5.82c-0.42,0.03-0.83,0.05-1.25,0.08
		C100.23,40.87,100.82,38.93,101.8,37.09z"/>
	<path class="st67" d="M141.33,93.9c-0.63,0.34-0.74,0.95-0.81,1.58c-1.24-2.1-1.63-4.37-1.39-6.78c0.44,0,0.88-0.01,1.32-0.01
		C141.1,90.36,141.67,92.05,141.33,93.9z"/>
	<path class="st36" d="M189.86,34.04c0.53-0.88,1.47-0.55,2.23-0.76c1.47-0.75,3.05-0.17,4.57-0.37c0.56-0.07,1.12-0.26,1.7-0.08
		c0.38,0.15,0.6,0.43,0.66,0.84c-0.13,0.44-0.4,0.58-0.83,0.4C195.42,34.05,192.64,34.05,189.86,34.04z"/>
	<path class="st40" d="M117.33,52.81c0.3-0.55,0.59-1.1,0.89-1.65c0.87,1.74,1.33,3.52,0.33,5.59
		C118.14,55.44,117.73,54.13,117.33,52.81z"/>
	<path class="st27" d="M186.86,32.55c0.03,1.09,0.73,1.47,1.68,1.58c-0.35,0.63-0.95,0.75-1.6,0.76c-1.04-0.25-2.28,0.26-3.08-0.85
		C184.13,32.07,185.25,31.81,186.86,32.55z"/>
	<path class="st52" d="M175.66,31.03c0-0.25,0-0.51-0.01-0.76c2.48-0.02,4.97-0.03,7.45-0.05c0.24,0.37,0.21,0.72-0.07,1.06
		c-1.01,0.74-2.2,0.66-3.35,0.76C178.27,32,176.58,33.03,175.66,31.03z"/>
	<path class="st40" d="M117.22,106.12c0.35-0.34,0.69-0.68,1.04-1.02c0.73,1.62,1.39,3.25,0.97,5.54
		C117.68,109.19,117.95,107.42,117.22,106.12z"/>
	<path class="st68" d="M34.45,111.12c0-0.71,0-1.41,0-2.12c-0.46-0.65-0.39-1.42-0.51-2.15c0.06-0.38,0.25-0.7,0.54-0.95
		c1.25,0.98,0.3,3.22,2.18,3.84c0.02,0.26,0.05,0.52,0.07,0.79C36.1,111.22,35.29,111.26,34.45,111.12z"/>
	<path class="st31" d="M198.16,37.08c1.64,1.78-0.35,3.41-0.32,5.13c0,0.13-0.44-0.52-0.64-0.85
		C197.26,39.87,197.11,38.34,198.16,37.08z"/>
	<path class="st69" d="M198.19,34.06c0.21,0.03,0.41,0.02,0.62-0.04c1.4-1.04,2.67-0.89,3.8,0.43c0.2,0.39,0.2,0.78,0.02,1.18
		c-0.76,0.55-1.51,0.51-2.24-0.06c-0.57-0.02-1.13-0.04-1.7-0.06C198.12,35.18,198.13,34.63,198.19,34.06z"/>
	<path class="st70" d="M111.55,34.75c-0.08-0.24-0.07-0.47,0.04-0.69c0.93-0.87,1.86-0.86,2.8-0.01c0.01,0.5,0.03,0.99,0.04,1.49
		c-0.98,0.51-0.75,1.45-0.82,2.29c-0.53,0.21-0.89-0.07-1.22-0.43C111.83,36.6,111.38,35.77,111.55,34.75z"/>
	<path class="st64" d="M28.41,96.23c-0.94-0.82-1.26-2.43-2.93-2.32c-0.41-0.56-0.42-1.1,0.09-1.6c2.24,0.31,3.06,2.03,3.8,3.83
		C29.08,96.49,28.76,96.52,28.41,96.23z"/>
	<path class="st25" d="M36.78,56.44c0.2,0.05,0.39,0.12,0.57,0.21c-1.08,0.91-2.33,0.75-3.58,0.61c-0.47-0.39-0.58-0.88-0.42-1.45
		c0.38-0.8,0.38-1.78,1.15-2.39C35.51,54.24,35.04,56.18,36.78,56.44z"/>
	<path class="st71" d="M208.5,94.02c0.09,0.51,0.18,1.01,0.27,1.52c-1.05,0.31-2.1,0.63-3.16,0.94c-0.27-0.21-0.42-0.49-0.48-0.83
		c0.07-1.13-0.46-2.33,0.42-3.35C207.03,92.02,207.7,93.14,208.5,94.02z"/>
	<path class="st72" d="M154.84,75.27c-0.53-0.01-1.06-0.02-1.59-0.03c0.53-0.97-1.4-2.68,0.93-3.11
		C154.94,73.06,155.61,74.01,154.84,75.27z"/>
	<path class="st73" d="M114.39,34.05c-0.93,0-1.87,0.01-2.8,0.01c0,0-0.19,0.05-0.19,0.05l-0.19-0.04c0-1.64,2.33-0.97,2.45-2.48
		c0.55-0.26,1.06-0.26,1.49,0.22c0.31,0.57,0.84,0.71,1.43,0.73C115.84,33.04,115.11,33.54,114.39,34.05z"/>
	<path class="st60" d="M33.76,55.73c0,0.51,0.01,1.02,0.01,1.53c-1.28,0.15-2.56,0.2-3.8-0.27c-0.17-0.23-0.16-0.46,0.02-0.68
		c0.25-0.14,0.48-0.11,0.69,0.09c1.69-0.2,2.16-1.71,2.99-2.82C34.27,54.27,34.17,54.99,33.76,55.73z"/>
	<path class="st74" d="M102.43,90.96c-0.27,1.45-0.33,3-0.91,4.32c-0.26,0.59-0.42-0.42-0.65-0.69c0.07-1.21,0.13-2.42,0.2-3.64
		C101.52,90.55,101.98,90.51,102.43,90.96z"/>
	<path class="st75" d="M113.62,25.03c1.48,1.58,0.47,3.53,0.78,5.28c0.17,0.7-0.05,0.97-0.76,0.7c-0.24-1.52,0.64-3.24-0.83-4.54
		C113.08,25.99,113.35,25.51,113.62,25.03z"/>
	<path class="st19" d="M73.34,43.95c1.37-2.48,3.76-2.32,6.07-2.38C77.39,42.36,75.37,43.15,73.34,43.95z"/>
	<path class="st33" d="M215.19,84.91c0.25,0.26,0.5,0.53,0.76,0.79c-0.7,0.99-1.71,1.41-2.87,1.52c-0.54,0.44-1.07,0.4-1.59-0.04
		C212.2,85.57,214.06,85.84,215.19,84.91z"/>
	<path class="st20" d="M18.65,105.28c1.29-0.37,2.82,0.39,3.91-0.86c0.67,0.9,1.9,1.66,0.78,3.03
		C22.45,105.25,19.95,106.56,18.65,105.28z"/>
	<path class="st76" d="M210.84,35.51c-0.5,0.75-1.01,1.5-1.51,2.25c-1.03-0.76-1.56-1.73-1.35-3.04c0.1-0.4,0.31-0.72,0.63-0.99
		c0.79-0.39,1.53-0.32,2.19,0.29C210.81,34.51,210.83,35.01,210.84,35.51z"/>
	<path class="st69" d="M104.01,35.56c-0.57-0.01-1.14-0.03-1.71-0.04c-0.58-0.35-0.54-0.91-0.51-1.47c1.3,0.21,2.8-0.54,3.88,0.77
		C105.46,35.84,104.91,36.1,104.01,35.56z"/>
	<path class="st19" d="M197.97,105.06c0.27,0.54,0.53,1.07,0.8,1.61c-0.25,1.25-0.49,2.5-0.74,3.75c-0.7,0.15-1.09,0-0.78-0.82
		C197.51,108.09,196.98,106.46,197.97,105.06z"/>
	<path class="st10" d="M13.47,45.29c0.52-0.51,1.03-1.03,1.55-1.54c0.67-0.42,0.86,0.06,1.04,0.56c0,0.87-0.25,1.68-0.63,2.46
		c-0.29,0.45-0.69,0.75-1.23,0.82C13.43,46.99,12.56,46.43,13.47,45.29z"/>
	<path class="st75" d="M209.19,26.52c3.18,0.14,0.82,2.63,1.59,3.79c0.13,0.66-0.13,0.88-0.76,0.69c0.01-1.46,0.22-3-1.53-3.74
		C208.72,27.02,208.95,26.77,209.19,26.52z"/>
	<path class="st20" d="M18.58,50.6c1.3-0.03,2.6-0.06,3.9-0.09c0.65,0.3,0.77,0.87,0.79,1.51c-0.25,0.3-0.51,0.32-0.76-0.01
		C21.14,51.71,19.66,51.72,18.58,50.6z"/>
	<path class="st37" d="M27.01,39.35c-0.5,0.65-1.01,1.82-1.92,0.83c-0.72-0.77-0.45-1.87,0.57-2.54
		C26.11,38.21,26.56,38.78,27.01,39.35z"/>
	<path class="st55" d="M99.4,50.41c0.13,0.81-0.12,1.73,0.73,2.31c-0.24,1.01-0.48,2.02-0.71,3.03c-0.26,0.24-0.52,0.25-0.77-0.01
		C98.94,53.97,98.24,52.06,99.4,50.41z"/>
	<path class="st16" d="M195.79,50.45c0.12,0.8-0.13,1.72,0.73,2.29c0.01,0.73,0.17,1.51-1.02,2.15
		C195,53.28,194.79,51.87,195.79,50.45z"/>
	<path class="st53" d="M114.41,89.49c-0.64,0.31-0.76,0.9-0.83,1.52c-0.91,0.22-1.46-0.23-1.86-0.98c-0.19-0.58-0.18-1.15,0.08-1.71
		c0.75-0.87,1.59-1.01,2.54-0.33C114.37,88.49,114.39,88.99,114.41,89.49z"/>
	<path class="st36" d="M217.5,12.32c-0.03-0.98-0.55-1.49-1.52-1.52c0.75-0.89,1.7-1.36,3.2-1.43
		C219.01,10.67,218.33,11.53,217.5,12.32z"/>
	<path class="st68" d="M188.91,27.99c0.37,0.67,1.01,0.75,1.68,0.76c-0.35,2.3-2.14,1.54-3.51,1.67c-0.66-0.1-1.25-0.33-1.68-0.87
		C186.56,29.03,187.73,28.51,188.91,27.99z"/>
	<path class="st51" d="M210.79,34.02c-0.75,0.02-1.49,0.03-2.24,0.05c-0.32,0.24-0.62,0.21-0.91-0.05
		c-0.14-1.24,1.24-1.06,1.65-1.79c0.96-0.36,1.88-1.02,2.98-0.44c0,0-0.03-0.01-0.03-0.01C212.51,33.01,211.33,33.3,210.79,34.02z"
		/>
	<path class="st72" d="M18.77,102.94c-0.52,0.98-2.02,0.62-2.4,1.77c-1.12-0.5-1.74-1.47-2.29-2.49c0.43-0.46,0.97-0.58,1.57-0.56
		C16.77,101.89,17.95,101.98,18.77,102.94z"/>
	<path class="st77" d="M201.81,89.46c-0.53,0.93-0.86,1.91-0.79,3c-0.45,0.44-0.89,0.45-1.33,0c-0.31-1.37,0.7-2.46,0.8-3.74
		C201.33,88.24,201.94,88.19,201.81,89.46z"/>
	<path class="st37" d="M138.99,85.73c-0.03,0.56-0.05,1.13-0.08,1.69c-1.69-0.11-3.42,0.49-5.07-0.32c-0.25-0.38-0.19-0.7,0.17-0.97
		C135.62,85.45,137.27,85.14,138.99,85.73z"/>
	<path class="st78" d="M148.16,16.17c-0.51,1.4-1.33,2.6-2.4,3.64C144.54,17.25,146.98,17.12,148.16,16.17z"/>
	<path class="st79" d="M40.6,55.89c1.89-1.6,3.84-1.09,5.81-0.16C44.47,55.78,42.53,55.84,40.6,55.89z"/>
	<path class="st79" d="M99.37,104.29c0.16,0.81-0.1,1.75,0.74,2.35c-0.24,1.02-0.49,2.03-0.73,3.05c-0.26,0.24-0.51,0.23-0.76-0.02
		C98.91,107.88,98.25,105.96,99.37,104.29z"/>
	<path class="st80" d="M114.35,87.99c-0.87-0.04-1.75-0.11-2.26,0.83c-0.61,0.75-1.22,1.48-1.7-0.1c0.37-0.44,0.74-0.87,1.11-1.31
		c1.08-0.01,2.05-0.38,2.94-0.97C114.4,86.96,114.37,87.48,114.35,87.99z"/>
	<path class="st72" d="M112.95,98.52c0.52-0.27,1.03-0.53,1.55-0.8c0.82,0.61,2,1.13,0.56,2.3
		C114.33,99.56,113.37,99.42,112.95,98.52z"/>
	<path class="st65" d="M215.34,54.09c0.94,1.29,0.78,2.69,0.64,4.32c-1.23-0.76-1.3-1.73-1.37-2.71
		C215.04,55.25,214.67,54.43,215.34,54.09z"/>
	<path class="st81" d="M29.97,56.46c0.02,0.18,0.02,0.35,0,0.53c-1.46-0.08-3.09,1.3-4.36-0.49c1.04,0.11,1.97-0.26,2.86-0.74
		C29.31,55.26,29.65,55.84,29.97,56.46z"/>
	<path class="st82" d="M120.4,74.59c-1.78-1.51,0.53-3.09-0.09-4.62c0,0,0.09,0.05,0.09,0.05c0.7-0.19,1.04-0.02,0.79,0.77
		C120.93,72.06,120.66,73.32,120.4,74.59z"/>
	<path class="st83" d="M218.18,74.52c0.29-1.49,0.57-2.97,0.86-4.46c0.7-0.21,1.04-0.03,0.8,0.76
		C219.44,72.13,220.53,74.1,218.18,74.52z"/>
	<path class="st84" d="M195.93,17.83c-0.06,1.15-0.13,2.3-0.19,3.45c-1.21-0.31,0.24-3.28-2.27-2.27
		C193.91,17.8,194.49,16.92,195.93,17.83z"/>
	<path class="st31" d="M201.81,89.46c-0.26-0.56-0.76-0.71-1.32-0.75c-0.07-0.23-0.07-0.46,0.02-0.69c1.23,0.19,2.66-0.65,3.66,0.72
		c-0.05,1.05-0.62,1.19-1.47,0.85C202.4,89.54,202.11,89.5,201.81,89.46z"/>
	<path class="st85" d="M213.06,89.44c-0.54,0.49-1.09,0.98-1.63,1.47c-0.86-0.64-1.23-1.48-1-2.55c0.71-0.95,1.54-1.02,2.49-0.37
		C212.97,88.48,213.01,88.96,213.06,89.44z"/>
	<path class="st86" d="M136.79,25.05c-1.42,0.63-2.7,1.66-4.38,1.51c1.12-1.42,2.72-1.93,4.39-2.29c0.19,0.18,0.26,0.35,0.19,0.53
		C136.93,24.97,136.86,25.05,136.79,25.05z"/>
	<path class="st31" d="M199.69,92.45c0.44,0,0.89,0,1.33,0c-0.27,1.2-0.3,2.54-0.89,3.55c-0.38,0.65-0.42-0.39-0.64-0.65
		C199.56,94.39,199.62,93.42,199.69,92.45z"/>
	<path class="st24" d="M28.55,109.73c-0.01,0.26-0.01,0.52-0.01,0.78c-1.51,0.9-2.77,0.68-3.74-0.85
		C26.05,109.69,27.3,109.71,28.55,109.73z"/>
	<path class="st56" d="M15.77,102.21c-0.56,0-1.12,0.01-1.68,0.01c-1.06-0.54-1.09-1.36-0.62-2.31c0.94-0.48,1.46,0.39,2.18,0.66
		c0.44,0.25,0.85,0.54,1.07,1.01C16.63,102.15,16.47,102.59,15.77,102.21z"/>
	<path class="st87" d="M102.24,98.94c0.83-0.43,1.65-0.85,2.48-1.28c-0.34,1.65-1.71,2.31-2.96,3.07
		C101.92,100.14,102.08,99.54,102.24,98.94z"/>
	<path class="st57" d="M216.03,18.32c0.83-0.57,0.64-1.46,0.7-2.27c0.75-0.15,1.13,0.06,0.87,0.89c-0.17,1.25,0.23,2.63-0.79,3.7
		c-0.1-0.59-0.16-1.22-0.78-1.54C216.03,18.84,216.03,18.58,216.03,18.32z"/>
	<path class="st17" d="M97.21,86.46c-1.05,1.2-2.52,0.54-3.77,0.84c-0.2-0.06-0.4-0.1-0.61-0.13c0.86-0.45,1.72-0.89,2.58-1.33
		C96.01,86.04,96.61,86.25,97.21,86.46z"/>
	<path class="st20" d="M14.2,47.6c0.29-0.27,0.57-0.55,0.86-0.82c0.32-0.24,0.62-0.22,0.92,0.03c0.26,0.53,0.24,1.02-0.19,1.46
		c0.21,0.59,0.42,1.19,0.64,1.78C15.29,49.59,14.76,48.57,14.2,47.6z"/>
	<path class="st68" d="M136.79,25.05c0-0.26,0.01-0.52,0.01-0.79c0.84-0.84,1.92-0.74,2.98-0.75c0,0.26,0.01,0.52,0.01,0.78
		C138.86,24.81,137.88,25.16,136.79,25.05z"/>
	<path class="st88" d="M215.34,54.09c-0.24,0.54-0.48,1.07-0.73,1.61c-0.27-0.99-0.54-1.99-0.8-2.98c0.27-0.54,0.53-1.08,0.8-1.62
		C215.4,51.96,215.29,53.04,215.34,54.09z"/>
	<path class="st35" d="M212.24,78.93c0.01,0.27,0.02,0.54,0.02,0.8c0.44,0.84-0.1,1.2-0.75,1.49c-0.76,0.24-1.52,0.49-2.28,0.73
		C210.23,80.94,211.23,79.94,212.24,78.93z"/>
	<path class="st19" d="M98.64,55.75c0.26,0,0.51,0.01,0.77,0.01c0.04,0.96,0.04,1.92-0.89,2.62C97.5,57.43,98.05,56.59,98.64,55.75z
		"/>
	<path class="st7" d="M195.66,57.47c-0.16,0.18-0.44,0.77-0.78,0.81c-0.71,0.08-0.49-0.62-0.48-1.02c0.01-0.46,0.03-1.07,0.66-1.08
		C195.7,56.17,195.74,56.71,195.66,57.47z"/>
	<path class="st42" d="M135.32,82.72c-0.35,0.66-0.96,0.74-1.61,0.7c0.15-1.92,1.66-2.11,3.07-2.43
		C136.28,81.56,135.8,82.14,135.32,82.72z"/>
	<path class="st56" d="M22.51,52.01c0.25,0,0.5,0,0.76,0.01c1.14,0.94,1.53,2.2,1.5,3.63C23.44,54.79,23.21,53.25,22.51,52.01z"/>
	<path class="st89" d="M104.66,97.73c0.54-1.44,1.76-2.05,3.07-2.55C107.48,96.96,106.39,97.74,104.66,97.73z"/>
	<path class="st90" d="M205.55,95.63c0.02,0.28,0.04,0.56,0.06,0.85c-0.76,1.07-1.61,2-3.08,1.94c-0.04-0.18-0.09-0.36-0.14-0.55
		C202.97,96.46,203.55,95.04,205.55,95.63z"/>
	<path class="st55" d="M20.36,37.07c1-0.28,2-0.56,3-0.84c0.21,0,0.43,0.01,0.64,0.05c-0.51,0.51-1.01,1.02-1.52,1.53
		c-0.4,0.52-0.75,1.12-1.57,0.9C20.35,38.29,19.91,37.83,20.36,37.07z"/>
	<path class="st14" d="M25.57,92.31c-0.03,0.53-0.06,1.07-0.09,1.6c-1.83-0.46-1.19-1.72-0.93-2.87
		C24.89,91.46,25.23,91.89,25.57,92.31z"/>
	<path class="st37" d="M185.39,29.55c0.49,0,0.98,0,1.46,0c0.27,0.34,0.26,0.67-0.04,0.99c-1.17,0.68-2.38,1.13-3.72,0.47
		c0-0.26,0.01-0.52,0.01-0.78C183.73,29.57,184.56,29.57,185.39,29.55z"/>
	<path class="st25" d="M133.83,86.48c0.01,0.21,0.01,0.41,0.01,0.62c-1.94-0.8-2.49-1.89-0.73-3.47c0,0.2-0.01,0.4-0.02,0.61
		C133.66,84.88,134.4,85.46,133.83,86.48z"/>
	<path class="st61" d="M212.3,46.02c0.97,0.95,0.99,1.93,0.09,2.94c-0.3-0.98-0.6-1.96-0.9-2.94
		C211.77,46.02,212.03,46.02,212.3,46.02z"/>
	<path class="st79" d="M98.62,109.67c0.25,0.01,0.51,0.01,0.76,0.02c0.02,0.98-0.19,1.87-1.05,2.53
		C97.71,111.26,97.96,110.44,98.62,109.67z"/>
	<path class="st91" d="M217.6,16.95c-0.29-0.3-0.58-0.59-0.87-0.89c0.25-0.75,0.5-1.51,0.75-2.26
		C218.72,14.8,218.37,15.87,217.6,16.95z"/>
	<path class="st10" d="M177.17,96.35c0.93-1.46,2.35-1.7,3.91-1.57C179.97,95.77,178.62,96.2,177.17,96.35z"/>
	<path class="st87" d="M212.92,88c-0.81-0.03-1.63-0.14-2.16,0.7c-0.5,0.48-1.01,0.41-1.52,0.02c0.29-0.44,0.58-0.87,0.87-1.31
		c0.46-0.08,0.92-0.15,1.37-0.23c0.53,0.01,1.06,0.03,1.59,0.04C213.03,87.48,212.97,87.74,212.92,88z"/>
	<path class="st91" d="M120.39,15.32c0.49-0.5,0.97-0.99,1.46-1.49c-0.03,1.24,0.47,2.73-1.46,3.05
		C120.38,16.36,120.39,15.84,120.39,15.32z"/>
	<path class="st16" d="M15.06,101.44c-0.53-0.51-1.07-1.02-1.6-1.53c-0.1-0.22-0.1-0.43,0-0.65c0.52-0.51,1.04-1.03,1.56-1.54
		c0.31,0.26,0.53,0.58,0.66,0.96C15.96,99.71,15.76,100.64,15.06,101.44z"/>
	<path class="st92" d="M197.25,109.6c0.26,0.27,0.52,0.55,0.78,0.82c-0.04,0.81-0.16,2.08-1.1,1.63
		C196.1,111.65,196.62,110.39,197.25,109.6z"/>
	<path class="st44" d="M121.19,70.79c-0.26-0.26-0.53-0.51-0.79-0.77c-0.01-0.53-0.01-1.06-0.02-1.6c0.43-0.05,1.18-0.27,1.25-0.13
		C122.1,69.19,121.93,70.06,121.19,70.79z"/>
	<path class="st93" d="M200.34,100.67c0.23-0.62,0.46-1.23,0.69-1.85c0.3-1.05,0.9-0.72,1.52-0.34c0,0-0.02-0.05-0.02-0.05
		C202.28,99.64,201.56,100.4,200.34,100.67z"/>
	<path class="st94" d="M102.43,90.96c-0.45,0-0.91,0-1.36-0.01c-0.09-0.22-0.12-0.45-0.08-0.69c0.72-0.52,0.89-1.75,2.1-1.62
		c0.21,0.25,0.43,0.5,0.64,0.75C102.88,89.58,102.46,90.11,102.43,90.96z"/>
	<path class="st21" d="M28.41,96.23c0.32-0.03,0.64-0.06,0.96-0.09c0.3,0.5,0.6,0.99,0.9,1.49c-0.85,0.27-1.7,0.55-2.56,0.82
		C27.95,97.71,28.18,96.97,28.41,96.23z"/>
	<path class="st19" d="M23.08,35.51c-1.45-0.04-2.89-0.09-4.34-0.13C20.21,34.58,21.67,34.31,23.08,35.51z"/>
	<path class="st33" d="M216.04,28.15c0.1-1.3-0.53-2.72,0.64-3.84C216.69,25.63,217.03,27,216.04,28.15z"/>
	<path class="st95" d="M119.68,28.17c0.09-1.3-0.54-2.73,0.64-3.85C120.32,25.63,120.64,27.01,119.68,28.17z"/>
	<path class="st96" d="M219.83,70.82c-0.27-0.25-0.53-0.51-0.8-0.76c-0.01-0.26-0.01-0.53-0.02-0.79c0.49-0.51,0.97-1.02,1.46-1.53
		C220.48,68.81,220.76,69.94,219.83,70.82z"/>
	<path class="st97" d="M119.69,81.39c0.09-1.31-0.55-2.74,0.62-3.88C120.33,78.84,120.62,80.21,119.69,81.39z"/>
	<path class="st52" d="M156.38,103.68c-0.03-1.15-0.4-2.16-1.14-3.04c0.52-2.77,3.06-3.4,5-4.48c3.62-2.02,7.09-4.48,11.4-4.94
		c0.77,0.18,1.42,0.54,1.81,1.27c-3.45,2.39-7.44,3.68-11.14,5.57C159.8,99.34,157.28,100.67,156.38,103.68z"/>
	<path class="st24" d="M173.44,92.49c-0.68-0.06-1.29-0.23-1.58-0.95c2.78-2.42,6.18-3.59,9.57-4.78c0.39,0.03,0.71,0.21,0.96,0.51
		c0.25,0.24,0.49,0.49,0.74,0.73C180.11,89.93,177.11,91.93,173.44,92.49z"/>
	<path class="st55" d="M174.16,36.26c-3.74,1.75-7.47,3.51-11.21,5.26c-0.94-1.42,0.26-1.94,1.08-2.62
		c3.19-1.74,6.05-4.45,10.16-3.53c0.19,0.21,0.25,0.41,0.17,0.6C174.29,36.17,174.22,36.26,174.16,36.26z"/>
	<path class="st41" d="M180.86,33.29c-1.28,1.13-2.97,1-4.46,1.48c-2.53,0.02-5.07,0.07-7.59,0.37c-0.39,0.07-0.77,0.07-1.16,0.02
		c-0.6-0.12-1.13-0.39-1.58-0.8c-0.3-0.36-0.32-0.73-0.08-1.13c4.81-1.91,9.72-0.81,14.61-0.52
		C180.68,32.9,180.77,33.1,180.86,33.29z"/>
	<path class="st25" d="M164.45,39.27c-0.46,0.78-1.62,1.09-1.5,2.25c-1.49,1-2.99,2-4.48,3c-0.25-0.23-0.5-0.46-0.75-0.69
		c-0.01-3.19,2.53-3.98,4.74-5.08c0.55-0.12,1.08-0.08,1.59,0.14C164.19,39.02,164.32,39.15,164.45,39.27z"/>
	<path class="st56" d="M168.18,34.78c2.74-1.2,5.48-1.21,8.22-0.01c-0.75,0.5-1.49,0.99-2.24,1.49c0-0.24,0-0.48,0-0.73
		C172.25,34.64,169.99,36.49,168.18,34.78z"/>
	<path class="st81" d="M186.86,32.55c-1.19,0.1-2.22,0.54-2.99,1.49c-0.94-0.5-1.91-0.89-3.01-0.75c0,0,0.01,0.01,0.01,0.01
		c-0.41-0.59-0.5-1.17,0.06-1.72c1.89,0.06,3.76-0.92,5.68-0.15c0.4,0.3,0.49,0.67,0.25,1.11L186.86,32.55z"/>
	<path class="st98" d="M162.7,39.19c-2.04,1.14-3.77,2.61-4.97,4.65c-1.38,0.53-2.25,2.82-3.97,1.72c-1.31-0.84-0.85-2.64-0.62-4.09
		c1.61-2.17,2.82-4.51,3.11-7.25c2.06-1.79,4.55-1,6.89-1.18c0.41,0,0.81,0.04,1.22,0.1c0.62,0.13,1.16,0.4,1.59,0.86
		c0.18,0.08,0.37,0.11,0.56,0.09C167.12,37.21,164.93,38.22,162.7,39.19z"/>
	<path class="st12" d="M156.34,34.92c1.4,3.4-0.43,5.21-3.21,6.56c-0.22-0.23-0.44-0.46-0.66-0.69c-1.43-0.79-1.29-2.32-1.67-3.6
		c-0.25-0.73,0.09-1.29,0.55-1.81c0.87-0.67,1.71-1.37,2.33-2.31c0.47-0.49,1-0.84,1.73-0.73c0.29,0.17,0.53,0.4,0.72,0.68
		C156.48,33.61,156.65,34.24,156.34,34.92z"/>
	<path class="st46" d="M141.25,40.11c3.3-0.94,6.46,0.12,9.66,0.65c0.28,0.15,0.39,0.31,0.32,0.49c-0.07,0.19-0.15,0.29-0.24,0.29
		C147.71,41.28,144.19,42.64,141.25,40.11z"/>
	<path class="st42" d="M150.98,41.54c-0.03-0.26-0.05-0.52-0.08-0.78c-0.26-1.23-0.53-2.45-0.79-3.68c0.29-0.27,0.61-0.31,0.95-0.09
		c1.13,1.02,0.52,2.69,1.41,3.8C151.98,41.04,151.48,41.29,150.98,41.54z"/>
	<path class="st99" d="M181.72,87.24c-3.25,1.52-6.3,3.49-9.86,4.3c-5.85,2.47-11.7,4.94-16.63,9.1c0,0-0.2,0.01-0.2,0.01
		s-0.2-0.03-0.2-0.03c-1.3-1.23-2.51-2.51-2.52-4.47c0.65-2.17,4.4-1.98,3.84-5.07c-0.71-1.3-1.05-2.58,0.11-3.82
		c0.27-0.09,0.53-0.17,0.8-0.26c6.22-0.55,12.48,0.38,18.69-0.5c0.46-0.01,0.92-0.02,1.38-0.03
		C178.73,86.36,180.52,85.02,181.72,87.24z"/>
	<path class="st10" d="M175.76,86.51c-6.19,1.56-12.45,0.75-18.7,0.5C163.27,85.82,169.53,86.75,175.76,86.51z"/>
	<path class="st100" d="M151,79.73c0.98,0.76,1.95,1.53,2.93,2.29c-0.99,1.39-1.97,0.23-2.96-0.01c-0.39,0.41-0.64,1.13-1.43,0.66
		c-0.68-1.16-2.35-0.25-3.01-1.44C147.73,79.88,149.34,79.73,151,79.73z"/>
	<path class="st79" d="M156.26,87.26c-0.04,1.27-0.07,2.55-0.11,3.82c-1.47-0.13-1.45-1.24-1.48-2.3c0.08-0.82,0.27-1.6,0.78-2.27
		C155.72,86.76,155.99,87.01,156.26,87.26z"/>
	<path class="st40" d="M181.72,87.24c-1.3-1.64-3.09-0.26-4.58-0.77c1.84-1.5,4.01-0.45,6-0.75c-0.25,0.51-0.5,1.03-0.75,1.54
		C182.17,87.27,181.95,87.26,181.72,87.24z"/>
	<path class="st101" d="M149.53,82.67c0.48-0.22,0.96-0.44,1.43-0.66c-0.04,1.49-1.06,2.28-2.15,3.01
		c-0.27-0.27-0.55-0.55-0.82-0.82C148.5,83.69,149.02,83.18,149.53,82.67z"/>
	<path class="st27" d="M155.45,86.51c0.02,0.85,0.11,1.73-0.78,2.27c-0.23-0.03-0.47-0.06-0.7-0.09
		C153.99,87.65,154.47,86.91,155.45,86.51z"/>
	<path class="st102" d="M141.33,93.9c-0.72-1.66-1.82-3.26-0.88-5.21c1.06-1.96,2.4-1.25,3.71-0.36c1.37,0.94,1.93,2.32,1.49,3.9
		C144.98,94.62,143.01,93.96,141.33,93.9z"/>
	<path class="st7" d="M133.83,86.48c-0.25-0.75-0.49-1.5-0.74-2.25c2.41,0.28,4.56-0.65,6.75-1.43c-0.28,0.97-0.57,1.95-0.85,2.92
		C137.38,86.79,135.57,86.39,133.83,86.48z"/>
	<path class="st59" d="M200.32,82.65c1.14,1.29,1.03,2.09-0.85,2.22C199.58,84.06,199.5,83.18,200.32,82.65z"/>
	<path class="st41" d="M28.5,44.52c0.26,0.01,0.52,0.02,0.77,0.03c0.24,0.74-0.11,1.26-0.61,1.73c-0.94,0.59-2.08,0.47-3.07,0.9
		c-0.27,0.12-0.55,0.22-0.84,0.29c-0.51-0.72-1.01-1.44-1.52-2.17c-0.21-0.2-0.27-0.4-0.19-0.59c0.08-0.18,0.16-0.27,0.24-0.27
		c0.24,0.01,0.47,0.03,0.71,0.06c1.23,0.65,2.48,0.54,3.73,0.06C27.99,44.56,28.25,44.54,28.5,44.52z"/>
	<path class="st74" d="M19.43,43c-0.22-0.49-0.44-0.98-0.66-1.47c-0.63-0.85-0.3-1.4,0.55-1.79c1.2-0.1,2.28,0.18,3.16,1.05
		c0.02,0.24,0.02,0.49,0.02,0.74c-0.08,0.42-0.33,0.68-0.75,0.77C20.91,42.3,20.02,42.15,19.43,43z"/>
	<path class="st20" d="M24.76,47.48c-0.01-0.23-0.01-0.45-0.02-0.68c0.65-0.49,1.23,0.02,1.85,0.12c0.78,0.41,1.38,0.96,1.41,1.92
		c-0.15,0.53-0.49,0.86-1.04,0.97C26,49.24,25.22,48.51,24.76,47.48z"/>
	<path class="st68" d="M33.76,55.73c-0.03-0.72-0.06-1.44-0.09-2.16c-0.24-0.52-0.48-1.04-0.72-1.56c-0.15-0.72,0.11-1.01,0.84-0.78
		c0.76,0.56,0.71,1.38,0.72,2.19C34.41,54.24,34.63,55.16,33.76,55.73z"/>
	<path class="st27" d="M29.97,56.46c-0.5-0.23-1-0.46-1.5-0.69c0.83-0.63,1.65-1.25,2.52-1.91c0.61,1.09-0.42,1.72-0.31,2.54
		C30.45,56.45,30.21,56.48,29.97,56.46z"/>
	<path class="st19" d="M33.79,51.24c-0.28,0.26-0.56,0.52-0.84,0.78c-0.5-0.5-1-1-1.49-1.5c0.01-1.3,0.7-1.23,1.57-0.79
		C33.63,50.06,33.72,50.64,33.79,51.24z"/>
	<path class="st31" d="M21.75,42.29c0.25-0.26,0.5-0.51,0.75-0.77c1.07,0.76,0.67,1.91,0.79,2.93c-0.02,0.29-0.03,0.57-0.05,0.86
		C22.75,44.31,22.25,43.3,21.75,42.29z"/>
	<path class="st79" d="M33.03,49.73c-0.63,0.05-1.23,0.17-1.57,0.79c-0.48-0.25-0.96-0.49-1.44-0.74c-0.26-0.19-0.41-0.45-0.45-0.78
		c0.04-0.32,0.19-0.58,0.43-0.79C31.17,48.4,32.23,48.8,33.03,49.73z"/>
	<path class="st77" d="M29.97,49.02c0.02,0.25,0.03,0.5,0.05,0.76c-1.03-0.96-2.02,2.51-3.06,0.03c0.27-0.27,0.55-0.54,0.82-0.82
		c0.36-0.41,0.82-0.55,1.35-0.5C29.45,48.59,29.73,48.77,29.97,49.02z"/>
	<path class="st10" d="M145.74,27.29c-0.75-0.01-1.49-0.02-2.24-0.02c-0.41-0.5-0.42-0.99,0.01-1.48c0.27-0.01,0.55-0.02,0.82-0.03
		c0.78-0.24,1.58-0.21,2.38-0.22c1.11,0.4,2.24,0.75,3.05,1.7c0.24,0.5,0.26,1.01,0.07,1.54c-0.82,1.07-1.65,1.41-2.51,0.04
		C146.94,28.15,146.55,27.5,145.74,27.29z"/>
	<path class="st1" d="M148.77,35.51c-1.33-1.31-0.5-2.97-0.72-4.46c0.88-0.5,1.61-0.02,2.36,0.37c0.42,0.3,0.75,0.68,0.97,1.16
		c0.15,0.5,0.13,1-0.1,1.48C150.62,34.84,149.81,35.39,148.77,35.51z"/>
	<path class="st55" d="M148.77,35.51c0.41-0.99,1.17-1.48,2.23-1.48c0.53,0.35,0.74,0.85,0.69,1.47c-0.21,0.5-0.42,0.99-0.63,1.49
		c-0.32,0.03-0.63,0.06-0.95,0.09C149.66,36.56,149.22,36.04,148.77,35.51z"/>
	<path class="st86" d="M150.25,31.78c-0.73-0.24-1.47-0.49-2.2-0.73c-0.24-0.75-0.48-1.5-0.73-2.24c0.73,0.48,1.46,0.42,2.18-0.02
		c0.78,0.23,1.15,0.8,1.29,1.55C150.83,30.9,150.69,31.4,150.25,31.78z"/>
	<path class="st21" d="M151,79.73c-1.29,1.11-2.85,1.42-4.48,1.5c-0.26-0.24-0.52-0.48-0.77-0.72c-0.27-0.44-0.19-0.8,0.23-1.09
		C147.66,79.27,149.36,78.96,151,79.73L151,79.73z"/>
	<path class="st64" d="M145.77,79.7c-0.01,0.27-0.02,0.54-0.03,0.81c-0.78-0.88-2.94-1.07-1.53-3.05c0.52,0.26,1.05,0.53,1.57,0.79
		C146.21,78.74,146.21,79.22,145.77,79.7z"/>
	<path class="st103" d="M34.48,105.9c-0.01,0.26-0.02,0.53-0.02,0.79c-0.86,0.47-1.08-0.33-1.5-0.75c-0.75-0.49-1.5-0.98-2.24-1.46
		c0.65-0.31,0.86-0.84,0.74-1.52C33.62,102.75,34.17,104.2,34.48,105.9z"/>
	<path class="st21" d="M27.75,98.44c-1.21,1.3-3.52,0.37-4.46,2.22c-0.51-0.91-0.85-1.86-0.78-2.93c-0.19-0.2-0.24-0.38-0.17-0.57
		c0.07-0.18,0.14-0.27,0.21-0.27C23.8,99,25.87,98.41,27.75,98.44z"/>
	<path class="st22" d="M22.54,96.89c-0.01,0.28-0.03,0.56-0.04,0.84c-0.5-0.01-0.99-0.03-1.49-0.04c-0.79,0.23-1.3,1.19-2.3,0.89
		c-0.25-0.26-0.43-0.56-0.54-0.91c-0.12-0.55-0.09-1.09,0.09-1.62c0.24-0.54,0.64-0.9,1.21-1.05c0.58-0.04,1.1,0.09,1.53,0.49
		C21.52,95.95,22.03,96.42,22.54,96.89z"/>
	<path class="st37" d="M31.46,102.96c0.45,0.85,0.54,1.52-0.74,1.52c-1.46-1.02-2.16,2.05-3.68,0.69c0.28-1.19,0.76-2.21,2.08-2.54
		c0.35-0.05,0.65,0.05,0.9,0.3C30.5,102.94,30.98,102.95,31.46,102.96z"/>
	<path class="st18" d="M29.22,102.99c-0.73,0.73-1.46,1.45-2.19,2.18c-0.47-1-1.63-1.65-1.51-2.96c0,0-0.01,0.01-0.01,0.01
		C27.04,101.08,28.2,101.71,29.22,102.99z"/>
	<path class="st104" d="M18.77,97.7c0.02,0.27,0.04,0.55,0.06,0.82c0.7,0.31,1.64-0.14,2.16,0.71c0.02,0.24,0.03,0.47,0.03,0.71
		c-0.1,2-1.46,1.39-2.59,1.27c-0.39-0.17-0.67-0.44-0.87-0.81C17.38,99.24,16.79,97.89,18.77,97.7z"/>
	<path class="st55" d="M21,99.24c-0.78-0.07-1.63,0.09-2.16-0.71c0.76-0.21,0.78-2.31,2.18-0.84C21.01,98.2,21,98.72,21,99.24z"/>
	<path class="st66" d="M18.02,100.71c1.03-0.12,2.21,0.33,3-0.76c0.56,0.35,0.7,0.89,0.64,1.51c-0.22,0-0.44,0-0.66,0
		C19.85,101.84,18.58,102.71,18.02,100.71z"/>
	<path class="st20" d="M32.96,105.94c0.5,0.25,1,0.5,1.5,0.75c0,0.77-0.01,1.54-0.01,2.31c-0.47-0.52-0.94-1.05-1.41-1.57
		C33.02,106.94,32.99,106.44,32.96,105.94z"/>
	<path class="st17" d="M98.85,85.73c1.77,0.24,2.23-0.75,2.12-2.27c1.23,0.01,2.47,0.01,3.7,0.02c0.8,0.99,0.8,1.97,0,2.96
		c-2.49,0-4.98,0.01-7.48,0.01C97.75,86.22,98.3,85.98,98.85,85.73z"/>
	<path class="st105" d="M118.77,76.82c-0.23,1.21-0.45,2.41-0.68,3.62C116.87,78.95,117.18,77.76,118.77,76.82z"/>
	<path class="st19" d="M29.97,49.02c-0.25-0.03-0.5-0.06-0.74-0.09c-0.56-0.67-1.66-0.88-1.72-1.99c0.19-0.45,0.66-0.62,0.97-0.95
		c0.27-0.48,0.54-0.96,0.8-1.43c0.83,0.51,0.72,1.35,0.74,2.15c0,0.5-0.01,1-0.01,1.5C29.99,48.48,29.98,48.75,29.97,49.02z"/>
	<path class="st10" d="M29.22,102.99c-1.24-0.26-2.47-0.51-3.71-0.77c-0.16-0.65-1.01-1.41-0.17-1.95c1.63-1.04,2.65,0.59,3.9,1.17
		c0.61,0.31,0.7,0.9,0.77,1.49C29.75,102.95,29.49,102.97,29.22,102.99z"/>
	<path class="st19" d="M186.84,30.29c0.01-0.25,0.01-0.49,0.01-0.74c1.26-0.21,2.71,0.52,3.73-0.79c2.6-1.08,2.25,0.73,2.19,2.25
		c-0.47,0.03-0.94,0.05-1.41,0.08C189.69,31.74,187.97,32.71,186.84,30.29z"/>
	<path class="st106" d="M197.3,33.24c-1.74,0.01-3.47,0.02-5.21,0.03c0.29-0.27,0.58-0.53,0.86-0.8c0.71-0.04,1.43-0.09,2.14-0.13
		c0.73,0.05,1.45,0.1,2.18,0.14c0.1,0.12,0.2,0.25,0.3,0.37C197.48,32.99,197.39,33.12,197.3,33.24z"/>
	<path class="st66" d="M150.23,76.82c-0.23-0.02-0.45-0.04-0.68-0.04c-0.28,0.34-0.55,0.32-0.79-0.05c-0.5,0-1.01-0.01-1.51-0.01
		c-0.46-1.61-0.92-3.21,0.73-4.48c1-0.35,2.01-1.39,3.02-0.02c-0.87,0.52-0.7,1.38-0.71,2.18
		C150.76,75.22,150.96,76.03,150.23,76.82z"/>
	<path class="st100" d="M148.76,76.73c0.26,0.02,0.53,0.03,0.79,0.05c-0.39,1.42,0.69,2.11,1.44,2.96
		c-1.74-0.01-3.48-0.02-5.22-0.03c0-0.49,0.01-0.97,0.02-1.45C147.09,78.36,149.02,79.7,148.76,76.73z"/>
	<path class="st81" d="M147.98,72.25c-0.88,1.39-0.69,2.95-0.73,4.48C146.45,75.06,145.4,73.36,147.98,72.25z"/>
	<path class="st53" d="M152.49,26.56c0,0.49,0,0.98,0,1.47c-2.13,2.28-1.88-0.41-2.53-1.22c-0.29-1.05-0.26-2.19-0.82-3.18
		c-0.12-0.28-0.22-0.58-0.31-0.88c-0.03-0.25-0.06-0.5-0.08-0.75c0.27-1.52,0.75-2.92,2.24-3.7c1.06,2.38-0.36,5.24,1.41,7.49
		C152.44,26.05,152.46,26.31,152.49,26.56z"/>
	<path class="st81" d="M148.84,22.76c0.22,0.01,0.44,0.02,0.66,0.03c0.42,2.34,0.04,3.9-2.89,3.02c-0.77,0.33-1.53,0.5-2.28-0.05
		c0.02-1.06,0.73-1.72,1.58-1.38C147.7,25.08,148.01,23.54,148.84,22.76z"/>
	<path class="st26" d="M143.51,25.79c0,0.49-0.01,0.99-0.01,1.48c-1.24,0.25-2.48,0.5-3.72,0.75c-0.33-0.13-0.56-0.37-0.7-0.7
		C140.43,26.44,141.72,25.38,143.51,25.79z"/>
	<path class="st37" d="M139.08,27.31c0.23,0.24,0.47,0.47,0.7,0.71c-0.5,0.5-0.99,1-1.49,1.49c-0.39-0.18-1.12-0.37-1.12-0.55
		C137.19,27.77,138.36,27.77,139.08,27.31z"/>
	<path class="st75" d="M211.51,81.22c0.25-0.5,0.5-0.99,0.75-1.49c1.35,1.31,0.51,2.97,0.73,4.46c-0.25,0.01-0.49,0.02-0.74,0.02
		C211.74,83.28,211.39,82.31,211.51,81.22z"/>
	<path class="st107" d="M217.42,76.8c-0.25,1.45-0.51,2.9-0.76,4.34C215.49,79.44,215.6,77.97,217.42,76.8z"/>
	<path class="st24" d="M15.05,96.92c0.91-3.48,3.97-4.52,6.68-5.96c0.01,1.07,0.08,2.18-1.45,2.26c-0.61,0.53-1.07,1.23-1.72,1.72
		c-0.34,0.34-0.68,0.69-1.03,1.02C16.78,96.46,16.24,97.52,15.05,96.92z"/>
	<path class="st72" d="M17.99,94.75c0.42-1.03,1.19-1.53,2.3-1.54c0.24,0.75,0.48,1.51,0.72,2.26c-0.53-0.02-1.06-0.03-1.58-0.05
		C19.03,95.03,18.32,95.31,17.99,94.75z"/>
	<path class="st43" d="M106.16,29.55c2.13-0.14,3.95,0.09,3.74,2.94c-0.8,0.82-1.81,0.25-2.72,0.4c-0.4,0.03-0.75-0.1-1.04-0.38
		C106.15,31.53,106.15,30.54,106.16,29.55z"/>
	<path class="st43" d="M106.15,32.52c0.27,0.01,0.55,0.02,0.82,0.04c0.22,0.19,0.28,0.35,0.18,0.5c-0.09,0.13-0.18,0.2-0.27,0.2
		c-1.98,0-3.95-0.01-5.93-0.01C102.53,31.9,104.42,32.8,106.15,32.52z"/>
	<path class="st100" d="M157,21.3c-1.4-0.3-2.17,0.65-3,1.5c0.12-1.62-0.57-3.51,1.47-4.5C156.43,19.08,157.88,19.6,157,21.3z"/>
	<path class="st102" d="M157,21.3c-0.51-1-1.02-2-1.53-3c0.5-0.27,1.01-0.54,1.51-0.82c0.65,1.19,0.85,2.47,0.73,3.81
		C157.48,21.3,157.24,21.3,157,21.3z"/>
	<path class="st26" d="M22.49,40.79c-1.03-0.13-2.2,0.32-2.98-0.76c0.14-0.86,0.2-1.79,1.49-1.5c0.5-0.24,0.99-0.48,1.49-0.73
		C22.48,38.8,22.49,39.8,22.49,40.79z"/>
	<path class="st27" d="M27.73,44.58c-1.26,1.02-2.51,1.07-3.73-0.06C25.25,44.54,26.49,44.56,27.73,44.58z"/>
	<path class="st14" d="M15.05,96.92c0.75-0.5,1.51-0.99,2.26-1.49c0.46,0.43,0.62,0.97,0.57,1.59c-0.2,0.75-0.28,1.57-1.18,1.88
		c-0.61,0.12-1.15-0.02-1.62-0.44c-0.02-0.25-0.04-0.49-0.06-0.74C15.04,97.45,15.05,97.19,15.05,96.92z"/>
	<path class="st41" d="M20.99,38.53c-0.5,0.5-0.99,1-1.49,1.5c-0.59,0.33-0.71,0.89-0.73,1.5c-0.27,0.27-0.54,0.54-0.81,0.81
		c-0.72,0.26-1.23,1.23-2.19,0.63c-0.5-0.74-0.42-1.48,0.03-2.21c0.88-0.61,1.85-1.12,2.22-2.24c0.56-0.84,1.48-1.1,2.34-1.45
		C20.57,37.56,20.78,38.04,20.99,38.53z"/>
	<path class="st56" d="M15.79,48.26c0.01-0.49,0.01-0.99,0.02-1.48c0.05-0.49,0.32-0.81,0.73-1.04c0.31-0.07,0.56,0.01,0.75,0.27
		c0.94,0.51,1.94,0.89,3.36,0.8C19.1,48.66,17.36,48.14,15.79,48.26z"/>
	<path class="st103" d="M17.3,46.01l-0.35,0l-0.35,0c-0.71-0.27-1.23-0.63-0.81-1.5c-0.26-0.25-0.51-0.5-0.77-0.76
		c0.25-0.26,0.5-0.53,0.75-0.79c0.73-0.21,1.46-0.42,2.19-0.63C17.28,43.48,17.19,44.73,17.3,46.01z"/>
	<path class="st73" d="M201.88,83.46c2,0.18,4.88-0.93,4.4,2.96c-1.74,0.01-3.49,0.02-5.23,0.03
		C201.6,85.54,201.91,84.54,201.88,83.46z"/>
	<path class="st108" d="M204.97,88.77c0.19,0.04,0.37,0.03,0.55-0.03c1-0.27,2-0.14,3-0.05l-0.05,0.08
		c0.82,0.75,0.86,1.66,0.52,2.64c-0.18,0.36-0.46,0.63-0.83,0.8c-1.02,0.39-1.93-0.02-2.85-0.37
		C204.61,90.88,203.7,89.94,204.97,88.77z"/>
	<path class="st11" d="M208.53,91.76c-0.02-1-0.04-2-0.06-2.99c0.26-0.01,0.52-0.03,0.78-0.04c0.51-0.01,1.01-0.01,1.52-0.02
		c0.22,0.74,0.45,1.47,0.67,2.21c0,0,0.03-0.01,0.03-0.01C210.79,92.23,209.87,92.72,208.53,91.76z"/>
	<path class="st107" d="M204.97,88.77c-0.28,1.05,0.96,1.94,0.34,3.03c-0.09,0.48-0.29,0.88-0.78,1.07
		c-0.48,0.09-0.92,0.02-1.24-0.4c-0.2-0.96-0.39-1.92-0.59-2.88c0.59-0.1,1.19-0.2,1.47-0.84C204.43,88.75,204.7,88.76,204.97,88.77
		z"/>
	<path class="st109" d="M208.52,88.69c-0.99,0.84-1.99,0.76-3,0.05C206.5,87.65,207.5,87.67,208.52,88.69z"/>
	<path class="st110" d="M107.82,94.03c-1.27-0.17-2.45-0.92-3.8-0.59c-0.09-0.72-0.05-1.38,0.68-1.79c0.52-0.41,1.02-0.4,1.48,0.09
		l-0.05-0.04C106.85,92.37,108.25,92.54,107.82,94.03z"/>
	<path class="st105" d="M106.19,91.75c-0.49-0.03-0.99-0.06-1.48-0.09c-0.23-0.71-0.47-1.42-0.7-2.12
		C105.65,89.36,107.19,89.29,106.19,91.75z"/>
	<path class="st47" d="M200.39,35.58c0.71-0.02,1.42-0.03,2.14-0.05c0.41-0.25,0.77-0.19,1.06,0.2c0.39,0.85,0.33,1.63-0.33,2.33
		c-1.04,0.58-2.02,0.5-2.92-0.3C200.36,37.03,200.38,36.3,200.39,35.58z"/>
	<path class="st111" d="M200.34,37.76c0.98-0.02,1.95-0.04,2.93-0.06c0.28,0.15,0.5,0.36,0.68,0.61c0.32,0.54,0.55,1.11,0.37,1.76
		c-1.32,0.08-2.64-1.27-3.97-0.01C200.35,39.29,200.35,38.52,200.34,37.76z"/>
	<path class="st54" d="M203.29,92.47c0.49-0.03,0.97-0.07,1.46-0.1c0.16,0.01,0.32,0.01,0.48,0.02c0.07,1.09,1.44,2.05,0.32,3.25
		c-1.29,0.64-2.33,1.55-3,2.85c-0.51,0.11-1.01,0.23-1.52,0.34C200.67,96.3,202.52,94.58,203.29,92.47z"/>
	<path class="st14" d="M112.77,36.93c0.28,0.3,0.56,0.59,0.84,0.89c0,0.75,0,1.5,0,2.24c-0.75-0.09-1.5-0.19-2.26-0.28
		c-0.45-0.17-0.89-0.33-1.34-0.5c-0.67-0.36-1.27-0.76-0.87-1.68C110.25,36.79,111.46,36.62,112.77,36.93z"/>
	<path class="st61" d="M114.54,43.72c-0.31-1.22-0.62-2.45-0.93-3.67C115.99,40.74,115.31,42.22,114.54,43.72z"/>
	<path class="st106" d="M198.68,29.63c0.29-0.01,0.58-0.03,0.87-0.04c1.35,0.75,1.71,1.77,0.84,3.12c-1.01,0.55-2,0.26-2.99-0.08
		c0,0-0.13-0.14-0.13-0.14C197.74,31.54,198.96,30.95,198.68,29.63z"/>
	<path class="st7" d="M155.61,33.25c-0.04-0.24-0.09-0.47-0.13-0.7c-0.82-1-0.88-1.99,0.04-2.97c6.7,0.69,13.35,2.1,20.14,1.46
		c1.26,1.11,2.56,0.02,3.83,0.06c0.32,0.49,1.09,0.14,1.36,0.73c0.01,0.49,0.02,0.98,0.03,1.47c-5-0.17-10-0.51-14.93,0.71
		c-0.5,0-1-0.01-1.5-0.01c-2.23-1.05-4.5-1.43-6.86-0.42C156.88,33.74,156.18,33.86,155.61,33.25z"/>
	<path class="st67" d="M155.51,29.57c-0.01,0.99-0.02,1.98-0.04,2.97c-0.48,0.26-0.96,0.52-1.44,0.78
		c-0.97-0.71-1.17-1.75-1.24-2.85c0.06-0.36,0.22-0.67,0.49-0.93c0.72-0.24,1.45-0.47,2.17-0.71
		C155.47,29.08,155.49,29.33,155.51,29.57z"/>
	<path class="st33" d="M104.68,86.45c0-0.99,0-1.97,0-2.96c2.28-0.33,3.33,0.58,2.98,2.94C106.67,86.43,105.67,86.44,104.68,86.45z"
		/>
	<path class="st112" d="M109.93,89.34c-1.8,0.48-3.19-0.3-4.47-1.43c1.65-0.69,3.06-0.03,4.44,0.81c0.24,0.13,0.32,0.26,0.25,0.41
		C110.08,89.27,110.01,89.34,109.93,89.34z"/>
	<path class="st23" d="M109.93,89.34c-0.02-0.21-0.03-0.42-0.03-0.63c0.16,0,0.32,0,0.48,0.01c0.53,0.64,1.13,0.1,1.7,0.1
		c0.16,0.51,0.33,1.03,0.49,1.54c0.03,0.73,0.23,1.58-0.49,2.03c-0.67,0.41-1.08-0.2-1.42-0.72
		C110.42,90.9,110.18,90.12,109.93,89.34z"/>
	<path class="st57" d="M112.77,36.93c-0.96,1.14-2.29,0.83-3.53,0.92c-0.27-0.2-0.43-0.45-0.49-0.78c0.02-0.33,0.17-0.6,0.41-0.82
		c0.52-0.93,1.58-1.01,2.38-1.5C112.44,35.21,112.39,36.19,112.77,36.93z"/>
	<path class="st49" d="M106.88,33.25c0.03-0.23,0.06-0.47,0.09-0.7c0.98-0.02,1.96-0.04,2.94-0.06c0.5,0,0.99-0.01,1.49-0.01
		c0.64,0.03,1.21-0.1,1.56-0.72c0.26-0.27,0.5-0.24,0.72,0.04c0,1.66-1.83,1.31-2.47,2.27C109.76,33.8,108.32,33.53,106.88,33.25z"
		/>
	<path class="st38" d="M104.01,35.56c0.66-0.01,1.25-0.16,1.66-0.74c0.72,0.51,1.45,1.03,2.17,1.54c0.04,0.38-0.03,0.73-0.22,1.07
		c-1.37,1.32-2.59,1.37-3.61-0.41C104.01,36.53,104.01,36.05,104.01,35.56z"/>
	<path class="st113" d="M107.71,37.01c0.01-0.22,0.06-0.44,0.13-0.65c0.44-0.04,0.89-0.07,1.33-0.11c0,0.29,0,0.58,0.01,0.88
		c-0.35,0.31-0.75,0.36-1.18,0.19C107.9,37.22,107.8,37.11,107.71,37.01z"/>
	<path class="st24" d="M18.02,38.52c0.32,1.81-0.96,2.01-2.22,2.24C16.3,39.76,17.04,39.02,18.02,38.52z"/>
	<path class="st107" d="M117.39,23.56c1.27-0.89,0.24-3.12,2.12-3.66c-0.48,1.69-0.96,3.39-1.44,5.08
		C117.48,24.68,117.41,24.13,117.39,23.56z"/>
	<path class="st114" d="M113.67,31.8c-0.24-0.02-0.48-0.03-0.73-0.04c0.23-0.25,0.46-0.5,0.69-0.75c0.25-0.23,0.51-0.47,0.76-0.7
		c0.71-0.24,1.43-0.48,2.14-0.72c-0.47,0.74-0.94,1.47-1.4,2.21C114.66,31.8,114.17,31.8,113.67,31.8z"/>
	<path class="st110" d="M110.67,91.67c1.59,0.96,1.4-0.68,1.91-1.31c0.34,0.21,0.68,0.43,1.01,0.64c-0.47,0.77-0.31,1.54,0,2.31
		c-0.97,0-1.93,0-2.9,0C110.68,92.77,110.67,92.22,110.67,91.67z"/>
	<path class="st54" d="M212.28,31.79c-0.94,0.46-1.88,0.89-2.97,0.77c-0.27,0.27-0.53,0.25-0.79-0.02c0.49-0.51,0.99-1.02,1.48-1.53
		c0.25-0.23,0.51-0.46,0.76-0.69c0.49-0.26,0.99-0.52,1.48-0.78c0.23,0.17,0.31,0.35,0.24,0.54c-0.07,0.19-0.14,0.28-0.21,0.28
		C212.28,30.83,212.28,31.31,212.28,31.79z"/>
	<path class="st114" d="M212.28,30.35c-0.01-0.27-0.02-0.55-0.03-0.82c0-0.24,0.01-0.49,0.01-0.73c0.49-0.75,0.99-1.51,1.48-2.26
		c0.22-0.36,0.45-0.37,0.68-0.01C214.24,28.1,213.74,29.5,212.28,30.35z"/>
	<path class="st107" d="M214.43,26.53c-0.23,0.01-0.46,0.01-0.68,0.01c0-0.99,0.01-1.98,0.01-2.98c0.46-0.23,0.93-0.47,1.39-0.7
		C214.91,24.09,214.67,25.31,214.43,26.53z"/>
	<path class="st71" d="M104.01,37.02c1.24,0.92,2.47,0.92,3.7-0.01c0,0-0.03-0.02-0.03-0.02c0.79,0.96,0.58,2.15,0.75,3.26
		c0.01,0.14,0.01,0.28,0.03,0.41c-1.5,0.27-2.3-1.43-3.73-1.33C103.82,38.76,103.94,37.88,104.01,37.02z"/>
	<path class="st30" d="M204.32,40.06c-0.34-0.51-0.68-1.02-1.02-1.52c0.52-0.86,1.15-1.46,2.26-1.06c0.67,0.45,1.08,1,0.78,1.85
		c-0.54,0.23-1.07,0.45-1.61,0.67C204.59,40,204.45,40.01,204.32,40.06z"/>
	<path class="st57" d="M206.34,39.33c-0.28-0.49-0.56-0.99-0.84-1.48c0.02-0.48-0.22-0.93-0.18-1.42c0.12-0.3,0.3-0.56,0.55-0.78
		c0.79-0.48,1.48-1.3,2.57-0.77c0.3,0.96,0.6,1.92,0.9,2.88c-0.28,0.26-0.57,0.53-0.85,0.79c-0.45,0.21-0.9,0.41-1.35,0.61
		C206.87,39.22,206.6,39.27,206.34,39.33z"/>
	<path class="st115" d="M208.53,91.76c0.98-0.29,1.96-0.57,2.94-0.86c0.26,0.77,0.52,1.54,0.79,2.32c0.2,0.15,0.26,0.31,0.19,0.46
		c-0.07,0.15-0.13,0.23-0.2,0.23c-1.09-0.87-2.42-0.64-3.66-0.82c-0.43-0.45-0.52-0.91-0.01-1.37L208.53,91.76z"/>
	<path class="st18" d="M212.24,93.9c-0.02-0.23-0.01-0.46,0.01-0.68c2.32,0.7,1.66,2.16,0.94,3.65
		C212.88,95.88,212.56,94.89,212.24,93.9z"/>
	<path class="st116" d="M200.29,32.52c0.12-1.07-0.2-2.03-0.74-2.94c1.49-0.01,2.98-0.02,4.48-0.04c0.75,0.81,0.84,1.73,0.45,2.73
		c-0.2,0.36-0.48,0.63-0.86,0.8C202.42,33.44,201.27,33.51,200.29,32.52z"/>
	<path class="st23" d="M208.53,32.54c0.26,0.01,0.52,0.01,0.79,0.02c-0.54,0.46-1.07,0.93-1.61,1.39c-0.32,0.5-0.8,0.72-1.36,0.82
		c-0.75,0.09-1.47,0.01-2.14-0.35c-0.3-0.23-0.48-0.54-0.57-0.9c0.01-0.37,0.14-0.7,0.4-0.97l0,0c0.6-0.57,1.31-0.84,2.14-0.78
		c0.61,0.07,1.11,0.35,1.58,0.73C208.02,32.51,208.27,32.52,208.53,32.54z"/>
	<path class="st57" d="M207.76,32.49c-0.5,0-0.99,0-1.49,0.01c-0.76-0.86-1.32-1.76-0.74-2.96
		C209.29,28.23,207.19,31.38,207.76,32.49z"/>
	<path class="st43" d="M205.53,29.54c0.5,0.92,0.87,1.88,0.74,2.96c-0.74,0.01-1.49,0.03-2.23,0.04c0-1-0.01-2-0.01-2.99
		C204.53,29.55,205.03,29.54,205.53,29.54z"/>
	<path class="st75" d="M107.82,94.03c-0.56-0.77-1.12-1.55-1.68-2.32c1.19,0.45,2.83-1.34,3.62,0.54c0.39,0.93-0.6,1.48-1.5,1.73
		c0,0-0.22,0.06-0.22,0.06L107.82,94.03z"/>
	<path class="st36" d="M208.57,91.71c0,0.46,0.01,0.92,0.01,1.37c-0.03,0.31-0.05,0.62-0.08,0.93c-1.35-0.01-2.16-1.12-3.27-1.64
		c0,0-0.25,0.03-0.25,0.03s-0.24-0.04-0.24-0.04c0.19-0.19,0.37-0.38,0.56-0.57C206.39,91.77,207.48,91.74,208.57,91.71z"/>
	<path class="st81" d="M18.02,100.71c0.78,1.09,1.95,0.64,2.98,0.74c-0.74,0.5-1.48,0.99-2.22,1.49c-1.03-0.11-2.2,0.34-3.01-0.73
		c0.26-0.25,0.51-0.5,0.77-0.75c-0.63-0.57-1.61-1.12-0.13-1.85C17.25,99.52,17.61,100.15,18.02,100.71L18.02,100.71z"/>
	<path class="st21" d="M150.23,76.82c0.02-0.8,0.04-1.6,0.06-2.41c0.9,0.49,1.48,1.19,1.49,2.27c0.23,0.27,0.47,0.53,0.7,0.8
		C151.26,78.89,150.85,77.5,150.23,76.82z"/>
	<path class="st16" d="M153.28,29.54c-0.02,0.25-0.04,0.5-0.06,0.75c-0.29,0.61-0.69,1.05-1.44,0.92c-0.29-0.67-0.8-0.97-1.52-0.93
		c-0.25-0.5-0.5-1-0.75-1.5c0-0.51,0-1.02,0-1.53c-0.15-0.66,0.12-0.91,0.77-0.77c0.92,0.26,0.35,2.65,2.22,1.56
		C152.75,28.54,153.02,29.04,153.28,29.54z"/>
	<path class="st34" d="M180.84,31.83c-0.55-0.06-1.12-0.09-1.36-0.74c1.2-0.03,2.4-0.06,3.6-0.09c1.17-0.64,2.43-0.82,3.75-0.72
		c1.31,1.39,3.03,0.48,4.53,0.8c-0.02,0.24-0.04,0.48-0.05,0.71c-1.49,0.55-2.98,0.55-4.47,0
		C184.85,31.81,182.85,31.82,180.84,31.83z"/>
	<path class="st42" d="M186.85,31.8c1.49,0,2.98,0,4.47,0c-1.3,1.35-2.97,0.5-4.46,0.74C186.86,32.29,186.85,32.04,186.85,31.8z"/>
	<path class="st117" d="M108.43,40.25c-1.68-0.75-1.11-2.03-0.75-3.26c0.5,0.05,1,0.09,1.5,0.14c-0.04,0.25-0.01,0.49,0.07,0.73
		c0.26,0.48,0.52,0.95,0.78,1.43C109.49,39.61,108.96,39.93,108.43,40.25z"/>
	<path class="st43" d="M204.05,32.54c-0.01,0.24-0.01,0.47-0.02,0.71c-1.72,1.18-3.47,0.31-5.21,0.09c-0.51-0.03-1.01-0.06-1.52-0.1
		c0.02-0.21,0.05-0.42,0.1-0.62c0.96-0.03,1.93-0.07,2.89-0.1C201.54,32.53,202.8,32.53,204.05,32.54z"/>
	<path class="st30" d="M198.82,33.34c1.74-0.03,3.48-0.06,5.21-0.09c0,0.26,0.01,0.52,0.01,0.78c-0.34,0.59-0.9,0.73-1.51,0.78
		c-1.12-0.85-2.42-0.8-3.72-0.78C198.81,33.8,198.81,33.57,198.82,33.34z"/>
	<path class="st0" d="M202.53,34.81c0.33-0.61,0.89-0.75,1.51-0.78c0.75,0,1.5,0,2.25,0.01c0.56,1.01-0.19,1.59-0.72,2.24
		l-0.02,0.05c-1.05,0.77-1.64,0.18-2.13-0.72c-0.29-0.03-0.59-0.05-0.88-0.08C202.57,35.29,202.57,35.05,202.53,34.81z"/>
	<path class="st118" d="M205.56,36.28c0.24-0.75,0.48-1.5,0.72-2.24c0.47-0.03,0.95-0.06,1.42-0.09c0.28,0.04,0.57,0.08,0.85,0.12
		c-0.04,0.27-0.09,0.55-0.13,0.82C207.47,35.35,206.52,35.81,205.56,36.28z"/>
	<path class="st21" d="M15.79,44.51c0.27,0.5,0.54,1,0.8,1.5c-0.26,0.26-0.52,0.51-0.78,0.77c-0.25,0-0.5-0.01-0.75-0.01
		C15.09,45.95,14.85,45.04,15.79,44.51z"/>
	<path class="st66" d="M16.53,99.92c-0.88,0.51-0.03,1.02,0,1.53c-0.49,0-0.98-0.01-1.47-0.01c0.01-0.99,0.02-1.99,0.03-2.98
		c0.48,0,0.96-0.01,1.45-0.01C16.99,98.94,16.99,99.43,16.53,99.92z"/>
	<path class="st1" d="M168.18,34.78c1.98,0.34,4.15-0.76,5.98,0.76c-3.61,0.26-6.51,2.4-9.71,3.73c0,0-0.02,0.01-0.02,0.01
		c0.32-2.27,2.09-3.34,3.74-4.51L168.18,34.78z"/>
	<path class="st42" d="M168.17,34.77c-1.24,1.5-2.49,3.01-3.74,4.51c-0.58-0.03-1.15-0.06-1.73-0.09c1.1-1.82,3.38-2.76,3.8-5.09
		C167.06,34.32,167.61,34.54,168.17,34.77z"/>
	<path class="st24" d="M157.7,33.27c2.55-2.56,4.69-1.29,6.74,0.73c-0.25-0.01-0.51-0.02-0.76-0.03
		C161.77,33.06,159.61,34.26,157.7,33.27z"/>
	<path class="st81" d="M157.7,33.27c1.99,0.29,4.13-0.7,5.98,0.71c-2.44,0.35-5.09-0.87-7.34,0.94c-0.25-0.56-0.49-1.11-0.74-1.67
		C156.31,33.25,157,33.26,157.7,33.27z"/>
	<path class="st10" d="M151.75,31.04c0.49-0.25,0.98-0.5,1.47-0.75c0.58,0.93,0.86,1.94,0.82,3.03c-0.16,1.4-0.93,2.14-2.35,2.18
		c-0.58-0.32-0.67-0.88-0.69-1.47c0-0.5,0-1,0-1.5C150.56,31.69,151.09,31.33,151.75,31.04z"/>
	<path class="st55" d="M28.47,45.99c-0.25,0.26-0.49,0.52-0.74,0.78c-0.3,0.61-1.03,0.31-1.45,0.68c-0.52-0.22-1.03-0.43-1.55-0.65
		C25.75,45.48,27.22,46.23,28.47,45.99z"/>
	<path class="st7" d="M26.29,47.45c0.32-0.57,0.87-0.66,1.45-0.68c0.43,0.77,1.58,1.03,1.49,2.16c-0.48,0.02-0.97,0.04-1.45,0.06
		C27.28,48.48,26.78,47.96,26.29,47.45z"/>
	<path class="st94" d="M150.27,26.48c-0.26,0.26-0.51,0.52-0.77,0.77c-1.16-0.08-2.16-0.49-2.89-1.44c2.2,0.18,2.61-1.36,2.89-3.02
		C150.51,23.86,150.87,25.07,150.27,26.48z"/>
	<path class="st88" d="M151.75,31.04c-0.25,0.5-0.5,1-0.75,1.49c-0.25-0.25-0.5-0.5-0.75-0.76c0-0.5,0-1,0-1.49
		C151.07,29.9,151.79,29.72,151.75,31.04z"/>
	<path class="st66" d="M16.53,99.92c0-0.49,0-0.98,0-1.47c0.6-0.32,0.74-0.88,0.75-1.5c0.4-0.43,0.64-1.12,1.45-0.84
		c0.01,0.53,0.02,1.06,0.04,1.59c-1.09,0.79-0.64,1.97-0.76,3C17.52,100.45,17.03,100.18,16.53,99.92z"/>
	<path class="st16" d="M18.74,96.11c-0.48,0.28-0.97,0.56-1.45,0.84c0.01-0.51,0.02-1.01,0.02-1.52c0.23-0.23,0.46-0.46,0.68-0.68
		c0.58,0.02,1.15,0.05,1.43,0.68C19.2,95.66,18.97,95.89,18.74,96.11z"/>
	<path class="st90" d="M203.41,35.61c0.71,0.24,1.42,0.48,2.13,0.72c-0.1,0.51,0.89,1.05-0.05,1.53c-0.73,0.23-1.46,0.46-2.2,0.69
		c-0.01-0.28-0.02-0.56-0.02-0.85C203.32,37,203.37,36.3,203.41,35.61z"/>
</g>
</svg>
