<?xml version="1.0" encoding="utf-8"?>
<!-- Generator: Adobe Illustrator 24.2.1, SVG Export Plug-In . SVG Version: 6.00 Build 0)  -->
<svg version="1.1" id="Calque_1" xmlns="http://www.w3.org/2000/svg" xmlns:xlink="http://www.w3.org/1999/xlink" x="0px" y="0px"
	 viewBox="0 0 122.25 122.25" style="enable-background:new 0 0 122.25 122.25;" xml:space="preserve">
<style type="text/css">
	.st0{fill:#FEFEFE;}
	.st1{fill:#FFDDC7;}
	.st2{fill:#40916C;}
	.st3{fill:#FFDDC6;}
	.st4{fill:#FFC49C;}
	.st5{fill:#42926D;}
	.st6{fill:#FFC39B;}
	.st7{fill:#7BC8A4;}
	.st8{fill:#7CC9A5;}
	.st9{fill:#4D9976;}
	.st10{fill:#4B9875;}
	.st11{fill:#FFDCC5;}
	.st12{fill:#489572;}
	.st13{fill:#FFDAC1;}
	.st14{fill:#82CBA9;}
	.st15{fill:#FFC8A3;}
	.st16{fill:#6DC29A;}
	.st17{fill:#65BF95;}
	.st18{fill:#FFD2B4;}
	.st19{fill:#FFCAA6;}
	.st20{fill:#FFD8BE;}
	.st21{fill:#81CBA8;}
	.st22{fill:#FFD9C0;}
	.st23{fill:#7FCAA7;}
	.st24{fill:#FFC49D;}
	.st25{fill:#FFEADC;}
	.st26{fill:#FFE5D4;}
	.st27{fill:#FFD5B9;}
	.st28{fill:#FFCFAF;}
	.st29{fill:#FFEBDD;}
	.st30{fill:#FFCBA7;}
	.st31{fill:#8CCFB0;}
	.st32{fill:#FFD6BB;}
	.st33{fill:#FFD4B8;}
	.st34{fill:#FFD7BC;}
	.st35{fill:#579E7E;}
	.st36{fill:#FFD6BA;}
	.st37{fill:#FDFBFA;}
	.st38{fill:#FFD3B6;}
	.st39{fill:#FFC69F;}
	.st40{fill:#FFC39A;}
	.st41{fill:#FFC299;}
	.st42{fill:#FFDCC4;}
	.st43{fill:#FFC9A4;}
	.st44{fill:#FFDBC3;}
</style>
<g>
	<path class="st0" d="M61.13,122.2c-19.61,0-39.22-0.03-58.83,0.05c-1.87,0.01-2.3-0.42-2.3-2.3C0.06,80.73,0.06,41.51,0,2.3
		C0,0.42,0.42,0,2.3,0c39.22,0.06,78.44,0.06,117.66,0c1.87,0,2.3,0.42,2.3,2.3c-0.06,39.22-0.06,78.44,0,117.66
		c0,1.87-0.42,2.3-2.3,2.3C100.34,122.17,80.73,122.2,61.13,122.2z"/>
	<path class="st1" d="M104.35,30.14c-4.09,1.11-8.19,2.23-12.28,3.34c-0.48,0.42-0.98,0.24-1.49,0.08
		c-1.88-0.64-3.92-0.04-5.81-0.71c-2.4-1.39-4.9-1.31-7.45-0.51c-3.46,0.77-6.92,1.54-10.38,2.31c-2.27-1.85-1.94-4.44-1.96-6.93
		c0.21-2.23,1.54-3.16,3.66-3.2c1.27-0.05,2.54-0.01,3.8-0.03c2.16-0.01,4.22,0.67,6.35,0.87c2.27,0.36,4.67,0.26,6.64,1.76
		c7.03-0.09,14.12,0.62,21-1.56c1.24-0.54,2.44-0.6,3.22,0.7c0.75,1.24,0.38,2.34-0.73,3.21C107.44,30.04,105.74,29.03,104.35,30.14
		z"/>
	<path class="st1" d="M96.66,58.25c-0.04-0.17,0.01-0.31,0.14-0.43c0.9-0.97,1.94-1.83,3.18-0.7c1.34,1.22,1.68,2.73,0.49,4.32
		c-5.57,2.75-10.45,6.73-16.22,9.13c-1.12,0.52-2.56-0.05-3.53,1.01c-0.76,0.42-1.6,0.69-2.29,1.25c-0.89,0.56-1.72,1.33-2.91,0.77
		c-4.49,2.76-8.85,5.69-12.55,9.5c-3.44-2.02-4.42-5.16-4.1-8.91c1.81-2.23,4.43-3.03,6.99-3.92c4.05-0.93,7.76-3.06,11.98-3.39
		C84.62,65.11,91.26,63.02,96.66,58.25z"/>
	<path class="st1" d="M85.43,27.13c-2.01-0.29-4.02-0.59-6.03-0.88c-2.11-2.26-5.05-4.02-4.79-7.74c0.12-0.23,0.42-0.36,0.43-0.67
		c-0.19,0.09-0.03,0.41-0.31,0.46c-1.64,1.79-2.98,3.79-4.56,5.61c-0.46,0.59-0.96,1.13-1.76,1.24c-1.79-0.31-3.46,0.86-5.26,0.42
		c-1.48-0.63-3.23-0.97-3.29-3.11c3.58-5.54,8.16-9.96,14.23-12.74c2.67-1.23,4.25-0.36,5.26,2.2
		C81.37,16.98,83.41,22.05,85.43,27.13z"/>
	<path class="st2" d="M59.87,22.44c1.06,0.77,2.13,1.54,3.19,2.31c1.81,0.28,2.85,1.26,2.83,3.17c-0.13,2.32,0.52,4.51,1.04,6.73
		c-3.47,3.4-7.39,3.34-11.53,1.48c-1.55-3.17-1.48-6.34-0.02-9.52C56.88,25.23,58.38,23.84,59.87,22.44z"/>
	<path class="st3" d="M53.27,85.39c-4.98-0.96-8.15,2.02-11.24,5.16c-2.56-2.23-3.17-5.39-4.05-8.42c-0.03-0.37,0.08-0.7,0.32-0.97
		c4.28-2.36,8.83-4.11,13.36-5.91C53.12,78.49,53.96,81.82,53.27,85.39z"/>
	<path class="st1" d="M75.51,73.6c0.82-0.53,1.64-1.06,2.47-1.59c0.86-0.85,2.35,0.23,3.09-1.01c0.34-0.08,0.62,0.02,0.82,0.32
		c-0.86,2.16,0.94,3.45,1.71,5.06c2.2,4.6,4.4,9.22,7.91,13.02c0.85,1.15,0.58,2.22-0.59,2.77c-1.54,0.73-2.87,0.19-3.76-1.3
		c-1.36-2.09-2.82-4.1-4.75-5.69C78.72,82.14,76.63,78.16,75.51,73.6z"/>
	<path class="st4" d="M24.07,96.4c-0.85,0.77-1.67,1.61-2.99,1.16c-0.25-0.17-0.18-0.6-0.54-0.68c0.07,0.21,0.27,0.28,0.43,0.41
		c0.39,0.3-0.17-0.1,0.18,0.26c-2.56,1.31-5.32,0.93-8,0.76c-2.65-0.17-3.3-2.22-3.44-4.5c-0.64-1.04-0.52-2.05,0.15-3.03
		c0.68-1.52,1.48-2.94,3.07-3.71c0.37-0.14,0.81-0.13,1.01,0.16c2.45,3.49,5.69,3.73,9.36,2.35c1.3,0.49,2.93,0.03,3.92,1.39
		c0.25,0.91-0.03,1.78-0.22,2.66C26.53,95.07,25.64,96.09,24.07,96.4z"/>
	<path class="st1" d="M55.39,26.62c0.56,3.17,0.37,6.34,0.02,9.52c-1.06-0.05-2.16,0.1-3.01-0.77c-0.68-0.73-1.35-0.72-2.03,0
		c-2.38,1.19-5,1.48-7.53,2.12c-1.87-2.22-0.81-4.88-1.09-7.34c0.09-1.2-0.22-2.44,0.34-3.59C46.51,27.37,50.94,28.94,55.39,26.62z"
		/>
	<path class="st5" d="M53.27,85.39c-1.1-3.29-1.93-6.63-1.6-10.14c2.51-1.04,5.03-2.08,7.54-3.12c0.26,0.2,0.43,0.45,0.51,0.76
		c0.01,0.48-0.11,0.93-0.37,1.33c-0.14,3.5,1.83,6.15,3.61,8.88C60.3,86.27,56.78,85.82,53.27,85.39z"/>
	<path class="st6" d="M18.78,39.76c-0.36,0.1-0.71,0.25-1.08,0.29c-2.7,0.28-5.78,1.12-7.3-1.99c-1.54-3.17-1.05-6.31,1.82-8.76
		c0.75-0.66,1.46-0.27,1.94,0.28c2.38,2.75,5.32,2.77,8.49,1.9c1.18-0.28,2.26,0.21,3.36,0.48c0.94,2.74-1.75,2.61-2.91,3.69
		c-1.37,0.81-2.98,1.3-3.71,2.91c-0.03,0.15-0.08,0.3-0.11,0.45C19.18,39.3,19.01,39.55,18.78,39.76z"/>
	<path class="st7" d="M38.31,81.16c0,0.19,0.01,0.38,0.02,0.56c-0.25,3.5,1.9,6.17,3.14,9.16c-1.3,1.22-2.59,2.43-3.89,3.65
		c-0.9,0.67-1.63,0.3-2.32-0.35c-0.19-0.27-0.32-0.57-0.36-0.9c-0.02-0.73,0.2-1.52-0.48-2.1c-1.26-0.96-2.79-0.51-4.17-0.83
		c-0.81-0.48-1.6-0.98-0.96-2.12C31.96,81.03,32.28,80.78,38.31,81.16z"/>
	<path class="st3" d="M28.53,46.5c0.21-0.26,0.42-0.51,0.63-0.77c2.01-1.23,1.48-2.8,0.59-4.42c-0.18-0.22-0.35-0.44-0.53-0.66
		c-0.6-1.19-1.33-2.25-2.59-2.84c-0.52-0.22-0.81-0.63-0.98-1.15c-0.17-0.73-0.11-1.45,0.2-2.14c0.39-0.68,0.98-1.11,1.68-1.42
		c0.69-0.3,1.4-0.56,2.13-0.75c2.22-0.4,4.2,0.01,5.76,1.77c0.3,0.49,0.39,1.01,0.31,1.57c-0.18,1.25-2.36,1.87-1.13,3.58
		c0.78,2.04,0.65,3.97-0.63,5.78c-1.43,0.7-0.12,2.12-0.79,3.02c-0.7,0.52-1.19,1.27-1.93,1.75C29.3,49.57,28.81,48.13,28.53,46.5z"
		/>
	<path class="st8" d="M42.08,26.55c0.54,0.82,0.79,1.71,0.55,2.69c-1.44-0.11-0.57,1.15-0.97,1.66c-0.18,1.37-0.13,2.73-0.19,4.1
		c-0.07,1.66-0.76,2.82-2.44,3.25c-0.7,0.41-1.4,0.56-2.11,0.02c-1.77-1.25,0.27-3.31-1-4.66c-1.34-1.67-3.88-1.3-5.18-3.04
		c0.85-1.03,1.7-2.06,2.55-3.09C36.03,24.16,38.53,23.9,42.08,26.55z"/>
	<path class="st1" d="M24.07,96.4c0.74-0.89,1.48-1.77,2.22-2.66c0.56-0.89,1.2-1.69,2.35-1.81c0.96,0.06,1.54,0.65,2.03,1.39
		c0.59,0.9,0.77,2.05,1.62,2.79c0.49,0.27,1.15,0.2,1.52,0.72c0.42,0.74,0.83,1.48,1.25,2.22c-0.2,1.48-0.48,2.95,0.16,4.4
		c0.2,0.52,0.4,1.03,0.6,1.55c-0.8,1.52-1.36,3.33-3.66,3.07l0.05,0c-0.44-0.81-1.48-0.89-1.99-1.61c1.22-3.22,0.73-5.73-2.68-7.35
		C26.25,98.5,25.22,97.32,24.07,96.4z"/>
	<path class="st9" d="M108.59,29.26c1.94-2.78-0.11-3.24-2.16-3.7c1.14-2.33,2.54-4.55,2.67-7.28c0.04-0.77,0.21-1.9,1.33-2.01
		c1.19-0.12,1.92,0.84,2.15,1.75c0.9,3.62,1.86,7.39,1.08,11.02c-0.63,2.95-3.19,1.7-5.14,1C108.31,29.75,108.34,29.5,108.59,29.26z
		"/>
	<path class="st10" d="M87.15,90.87c1.73,0.35,4.21,2.92,4.35-1.47c1.59,0.04,2.57,1.22,3.76,2c0.81,0.93,2.03,0.36,2.97,0.79
		c1,0.03,2.14,0,2.26,1.32c0.09,0.96-0.71,1.66-1.53,1.88c-3.45,0.95-7.1,1.16-10.53,0.67C85.13,95.61,87.48,92.68,87.15,90.87z"/>
	<path class="st11" d="M22.52,32.26c-4.41,2.39-7.33-0.36-10.29-2.96c1.4-1.42,3.02-2.29,5.08-2.13c0.25,0.16,0.42,0.86,0.8,0.12
		c4.44-1.57,5.48-1.01,7.5,4.07C24.82,32.49,23.37,31.36,22.52,32.26z"/>
	<path class="st9" d="M91.39,33.05c0.22,0.14,0.45,0.29,0.67,0.43c0.29,0.61,0.76,0.95,1.45,0.91c1.12-0.06,2.59-0.24,2.75,1.13
		c0.17,1.45-1.31,1.94-2.52,2.22c-2.92,0.67-5.94,0.68-8.84,0.31c-3.42-0.44-1.54-3.17-1.59-5.02
		C86.01,33.07,88.7,32.26,91.39,33.05z"/>
	<path class="st3" d="M23.3,90.04c-5.44,2.43-6.7,2.07-10.37-2.98c1.24-1.1,2.66-1.69,4.33-1.62c0.26,0.09,0.36,1.16,0.82,0.14
		c3.1-1.01,6.02-1.81,6.86,2.86c0.26,1.43,1.89,0.61,2.84,0.98c0.17,0.44,0.04,0.75-0.39,0.93C26.02,90.24,24.63,90.62,23.3,90.04z"
		/>
	<path class="st12" d="M100.46,61.44c0.2-2.65-0.18-4.7-3.66-3.62c1.28-3.29-0.68-6.59,0.01-9.88c0.11-0.05,0.25-0.17,0.34-0.14
		c3.93,1.19,7.74,8.95,6.37,12.91C102.5,60.95,101.48,61.2,100.46,61.44z"/>
	<path class="st13" d="M59.44,72.7c-0.16-0.16-0.24-0.35-0.23-0.57c6.15-3.5,12.41-5.97,19.81-6.27c5.59-0.23,10.83-3.43,15.75-6.42
		c0.64-0.39,1.26-0.79,1.9-1.18c-0.61,2.42-2.95,2.86-4.69,3.83c-4.39,2.43-9.1,4.16-13.97,5.42c-3.39-0.57-6.2,1.25-9.23,2.19
		c-1.29,0.4-2.58,0.83-3.92,1.03C63.01,71.27,61.57,72.92,59.44,72.7z"/>
	<path class="st14" d="M103.51,60.71c-0.84-4.99-1.36-10.15-6.7-12.77c1.75-1.43,2.87,0.02,3.58,1.13c1.73,2.7,3.24,5.55,4.7,8.42
		C105.9,59.08,105.57,60.38,103.51,60.71z"/>
	<path class="st15" d="M22.52,32.26c0.8-1.1,2.06-0.62,3.09-0.9c1.83,0.51,3.49-0.07,5.14-0.79c2.25,0.26,4.4,0.79,6.1,2.43
		c-0.32,0.72-0.83,1.26-1.59,1.54c-1.83-1.12-3.78-1.81-5.97-1.49c-0.77-0.07-1.55,0.02-2.31-0.19c-0.28-0.14-0.53-0.33-0.74-0.56
		C25,32.28,23.76,32.27,22.52,32.26z"/>
	<path class="st6" d="M26.38,34.52c-0.02,0.78-0.05,1.57-0.07,2.35c-0.83,0.95-2.04,1.38-2.98,2.18c-1.47,0.52-2.97,0.89-4.55,0.71
		c0-0.25,0-0.5,0-0.74c0.17-0.4,0.76-0.05,0.89-0.51c-0.27,0.22-0.67,0.21-0.89,0.51c-0.56-3.05,2.24-2.75,3.74-3.75
		C23.8,34.98,25,34.3,26.38,34.52z"/>
	<path class="st16" d="M41.47,90.88c-2.48-2.56-4.57-5.26-3.14-9.16c1.23,2.95,2.47,5.89,3.7,8.84
		C41.89,90.74,41.7,90.85,41.47,90.88z"/>
	<path class="st17" d="M41.24,30.04c0.11-0.54,0.21-1.09,0.32-1.63c0.36,0.28,0.72,0.56,1.07,0.83c0.07,2.75,0.13,5.49,0.2,8.24
		c-0.51,0.06-1.03,0.13-1.54,0.19C40.62,35.13,40.72,32.59,41.24,30.04z"/>
	<path class="st18" d="M91.39,33.05c-2.69-0.48-5.39,1.68-8.08-0.02c-0.14-0.21-0.24-0.43-0.3-0.68c0.55-0.54,1.12-0.54,1.72-0.08
		C86.94,32.65,89.33,31.42,91.39,33.05z"/>
	<path class="st4" d="M35.26,34.54c0.03-1.02,0.59-1.51,1.58-1.54c1.65,1.73-0.46,3.52,0.08,5.27c-0.26,0.05-0.53,0.1-0.8,0.16
		c-0.97-0.6-0.88-1.55-0.8-2.49C35.3,35.47,35.28,35,35.26,34.54z"/>
	<path class="st19" d="M39.1,97.33c-0.88-0.95-2.47-0.03-3.24-1.25c0.33-0.76,0.79-1.25,1.7-0.87c1.4,0.3,2.81,0.61,4.21,0.91
		C41.7,98.34,40.51,98.07,39.1,97.33z"/>
	<path class="st20" d="M32.17,108.07c1.22-1.02,2.44-2.04,3.66-3.07c0.67,1.72-0.48,2.82-1.47,3.83
		C33.33,109.88,32.4,109.77,32.17,108.07z"/>
	<path class="st21" d="M35.32,35.93c0.91,0.62,0.63,1.63,0.8,2.49c-0.28,0.68-0.94,0.69-1.52,0.85
		C30.26,37.19,35.13,37.06,35.32,35.93z"/>
	<path class="st22" d="M28.53,46.5c1.41,0.59,1.11,2.87,2.98,3.01c0.35-0.28,0.68-0.25,0.97,0.09c-2,2.46-3.05-0.08-4.33-0.89
		C26.75,47.83,27.93,47.16,28.53,46.5z"/>
	<path class="st23" d="M41.24,30.04c0.02,2.54,0.03,5.09,0.05,7.63c-0.61,0.76-1.43,0.69-2.26,0.57c1.33-1,1.55-2.36,1.53-3.94
		C40.55,32.88,39.97,31.29,41.24,30.04z"/>
	<path class="st24" d="M37.56,95.21c-0.57,0.29-1.13,0.58-1.7,0.87c-0.43,0-0.85,0.01-1.28,0.01c-0.7-0.14-1.41-0.26-1.77-1
		c-0.05-0.82,0.36-1.37,1.06-1.74c0.57-0.16,1.08-0.05,1.54,0.31c0.72,0.29,1.44,0.58,2.17,0.87C37.6,94.76,37.59,94.98,37.56,95.21
		z"/>
	<path class="st20" d="M84.73,32.27c-0.57,0.03-1.14,0.05-1.72,0.08c-1.9,0-3.8-0.01-5.7-0.01C79.78,30.93,82.25,31.2,84.73,32.27z"
		/>
	<path class="st25" d="M23.33,39.05c0.72-1.1,1.45-2.19,2.98-2.18c0.2,0.22,0.41,0.45,0.61,0.67c0.46,0.27,0.46,0.54-0.01,0.81
		C25.72,38.58,24.52,38.82,23.33,39.05z"/>
	<path class="st26" d="M9.86,90.77c-0.05,1.01-0.1,2.02-0.15,3.03c-0.49-0.15-0.97,1.79-1.35,0.14C8.09,92.74,8.75,91.54,9.86,90.77
		z"/>
	<path class="st20" d="M108.59,29.26c-0.02,0.26-0.05,0.51-0.07,0.77c-1.39,0.03-2.78,0.07-4.16,0.1
		C105.43,28.22,107.22,29.77,108.59,29.26z"/>
	<path class="st27" d="M18.08,85.57c0.22,0.65,1.45,0.71,1.03,1.68c-0.09,0.21-0.65,0.39-0.92,0.32c-1.11-0.32-0.83-1.33-0.93-2.14
		C17.54,85.48,17.81,85.53,18.08,85.57z"/>
	<path class="st28" d="M18.11,27.29c0.38,0.44,0.75,0.89,1.13,1.33c-0.28,0.18-0.57,0.54-0.84,0.52c-1.28-0.11-1.02-1.15-1.1-1.97
		C17.57,27.21,17.84,27.25,18.11,27.29z"/>
	<path class="st22" d="M29.75,41.31c1.58,1.71,1.88,3.25-0.59,4.42C30.28,44.38,29.98,42.84,29.75,41.31z"/>
	<path class="st29" d="M39.1,97.33c1.04-0.09,2.27,0.27,2.67-1.21c1.05,0.4,0.99,1.07,0.22,1.59C40.99,98.38,39.91,98.57,39.1,97.33
		z"/>
	<path class="st30" d="M27.77,89.97c0.02-0.18,0.02-0.37,0.01-0.55c0.5-0.4,1.01-0.79,1.51-1.19c0.18,0.87,0.69,1.46,1.52,1.77
		c0.07,0.15,0.15,0.3,0.22,0.45c-0.12,0.33-0.34,0.55-0.66,0.68C29.27,91.26,28.38,90.91,27.77,89.97z"/>
	<path class="st31" d="M33.11,95.2c0.64,0.06,1.2,0.24,1.48,0.89c-0.25,0.25-0.51,0.49-0.76,0.74c-0.48,0.2-0.96,0.39-1.44,0.59
		C31.39,96.28,32.07,95.68,33.11,95.2z"/>
	<path class="st13" d="M26.91,38.35c0-0.27,0.01-0.54,0.01-0.81c1.36,0.6,2.35,1.47,2.31,3.11C28.46,39.88,27.68,39.12,26.91,38.35z
		"/>
	<path class="st32" d="M35.23,103.45c-1.13-1.43-0.97-2.9-0.16-4.4C35.57,100.5,35.33,101.98,35.23,103.45z"/>
	<path class="st33" d="M30.23,106.46c1.11-0.02,2.08,0.14,1.99,1.61C31.29,107.86,29.67,108.51,30.23,106.46z"/>
	<path class="st13" d="M81.89,71.32c-0.31-0.02-0.63-0.04-0.94-0.06c-0.26,0.28-0.5,0.25-0.72-0.05c1.17-1.24,2.65-0.57,4.01-0.65
		C83.62,71.32,82.78,71.4,81.89,71.32z"/>
	<path class="st34" d="M32.48,49.6c-0.32-0.03-0.65-0.06-0.97-0.09c0.04-0.97,0.53-1.47,1.5-1.5c0.24-0.36,0.48-0.36,0.73,0
		C33.67,48.81,33.12,49.24,32.48,49.6z"/>
	<path class="st35" d="M98.24,92.2c-1.26,0.73-2.23,0.4-2.97-0.79C96.26,91.67,97.25,91.93,98.24,92.2z"/>
	<path class="st36" d="M33.75,48.01c-0.24,0-0.49,0-0.73,0c0.69-0.86-1.68-2.72,0.96-2.95C33.9,46.04,33.82,47.02,33.75,48.01z"/>
	<path class="st20" d="M50.37,35.36c-0.68-1.22,0.49-0.86,0.82-0.8c0.44,0.08,1.66-0.69,1.21,0.8
		C51.72,35.37,51.05,35.36,50.37,35.36z"/>
	<path class="st37" d="M69.8,23.25c1.85-1.63,2.21-4.71,5.17-5.24L75,18.04c0.01,2.45,1.68,4.03,3.07,5.73
		c0.62,0.75,1.54,1.29,1.34,2.47c-2.27,0.54-4.32-0.82-6.53-0.75C69.76,24.83,69.76,24.83,69.8,23.25z"/>
	<path class="st38" d="M65.9,27.93c-0.45-1.5-1.42-2.53-2.83-3.17c1.97,0.01,3.95,0.01,5.92,0.02c0.21,0.16,0.29,0.33,0.22,0.5
		c-0.07,0.17-0.13,0.26-0.2,0.26C67.22,25.36,65.8,25.66,65.9,27.93z"/>
	<path class="st20" d="M69,25.53c-0.01-0.25-0.01-0.5-0.02-0.76c0.02-0.64,0.19-1.21,0.82-1.52c-0.16,2.37,2.31,1.13,3.07,2.24
		C71.58,25.51,70.29,25.52,69,25.53z"/>
	<path class="st34" d="M64.5,70.49c3.22-1.21,6.4-2.52,9.67-3.56c1.22-0.39,2.71-0.66,3.83,0.57c-4,1.24-8.01,2.49-12.01,3.73
		C65.63,70.72,64.85,71.04,64.5,70.49z"/>
	<path class="st33" d="M64.5,70.49c0.61,0.01,1.17,0.14,1.49,0.74c-2.44,0.48-4.43,1.99-6.64,2.99c0.03-0.51,0.06-1.01,0.09-1.52
		C61.11,71.92,62.6,70.74,64.5,70.49z"/>
	<path class="st33" d="M80.23,71.22c0.24,0.01,0.48,0.03,0.72,0.05c-0.51,2.15-2.08,0.09-2.97,0.75
		C78.5,71.1,79.4,71.28,80.23,71.22z"/>
	<path class="st18" d="M74.98,18.02c-0.35-0.82-0.6-1.64,0.28-2.33c0.84,0.89,0.51,1.65-0.26,2.36C75,18.04,74.98,18.02,74.98,18.02
		z"/>
	<path class="st39" d="M27.77,89.97c0.99,0.26,1.99,0.52,2.98,0.78c1.31,0.7,2.45,1.47,1.48,3.22c-0.8,0.42-1.53,0.32-2.17-0.32
		c-0.5-0.46-1-0.93-1.49-1.39c-0.84,0.4-1.6,0.63-1.54-0.77c-0.87-1.43-2.81-0.11-3.72-1.44C24.79,90.02,26.28,89.99,27.77,89.97z"
		/>
	<path class="st40" d="M11.86,94.52c-0.85-1.7-0.69-3.23,0.81-5.2C12.75,91.57,11.49,92.9,11.86,94.52z"/>
	<path class="st41" d="M21.15,97.54c-0.49-0.06-1.39-0.07-1.4-0.18c-0.16-1.39,1.22-1.35,2.03-2.04c0.58,1.06-0.75,1.45-0.69,2.24
		C21.09,97.56,21.15,97.54,21.15,97.54z"/>
	<path class="st30" d="M27.03,91.48c0.33,0.61,0.92,0.72,1.54,0.77c-0.76,0.5-1.51,0.99-2.27,1.49
		C26.3,92.91,26.13,92.03,27.03,91.48z"/>
	<path class="st42" d="M52.46,28.8c-2.16,0.67-3.57,0.5-5.03,0C48.8,28.8,50.17,28.8,52.46,28.8z"/>
	<path class="st43" d="M26.38,34.52c-1.17,0.85-2.4,1.37-3.85,0.75c0.92-1.39,3.09-1.22,3.72-2.98c0.26,0,0.52,0.01,0.79,0.01
		c0.44,0.4,1.23,0.62,0.75,1.48C27.31,34.03,26.85,34.28,26.38,34.52z"/>
	<path class="st6" d="M12.13,36.53c-1.21-0.81-0.88-1.81-0.54-2.95C12.45,34.47,13.19,35.26,12.13,36.53z"/>
	<path class="st30" d="M32.28,93.73c-0.51-0.99-1.02-1.99-1.52-2.98c0,0,0.07-0.07,0.07-0.07c0.63-0.43,1.3-0.64,2.05-0.34
		c1.19,0.57,2.2,1.31,2.51,2.7c-0.01,0.21,0,0.42,0.03,0.62c-0.57,0.03-1.14,0.05-1.71,0.08C33.22,94.13,32.75,94.19,32.28,93.73z"
		/>
	<path class="st44" d="M35.38,93.04c-1.07-0.48-1.8-1.31-2.36-2.31c0.75-0.51,1.5-0.52,2.25,0C36.22,91.45,36.31,92.22,35.38,93.04z
		"/>
	<path class="st20" d="M35.26,90.73c-0.75,0-1.5,0-2.25,0c-0.73-0.02-1.46-0.03-2.2-0.05c-0.01-0.23-0.02-0.46-0.01-0.68
		C32.5,89,33.92,89.64,35.26,90.73z"/>
	<path class="st15" d="M27.78,33.79c-0.25-0.49-0.5-0.99-0.75-1.48c0.84-0.01,1.72-0.15,2.26,0.75
		C28.94,33.6,28.4,33.79,27.78,33.79z"/>
	<path class="st34" d="M32.28,93.73c0.48,0,0.95,0.01,1.43,0.01c-0.2,0.49-0.4,0.97-0.6,1.46c-0.24,0.74-0.48,1.48-0.73,2.22
		c-1.91-0.56-1.52-2.53-2.32-3.78C30.8,93.67,31.54,93.7,32.28,93.73z"/>
	<path class="st6" d="M18.78,39.02c0.95-0.73,1.89-1.45,3.28-2.51C21.54,38.82,20.24,39.04,18.78,39.02
		C18.78,39.02,18.78,39.02,18.78,39.02z"/>
</g>
</svg>
