<?xml version="1.0" encoding="utf-8"?>
<!-- Generator: Adobe Illustrator 24.2.1, SVG Export Plug-In . SVG Version: 6.00 Build 0)  -->
<svg version="1.1" id="Calque_1" xmlns="http://www.w3.org/2000/svg" xmlns:xlink="http://www.w3.org/1999/xlink" x="0px" y="0px"
	 viewBox="0 0 180.75 67.5" style="enable-background:new 0 0 180.75 67.5;" xml:space="preserve">
<style type="text/css">
	.st0{fill:#FEFEFE;}
	.st1{fill:#FFDDC7;}
	.st2{fill:#FFDCC5;}
	.st3{fill:#77C7A2;}
	.st4{fill:#40916C;}
	.st5{fill:#42926D;}
	.st6{fill:#FFC8A3;}
	.st7{fill:#FFDDC6;}
	.st8{fill:#4B9875;}
	.st9{fill:#7BC8A4;}
	.st10{fill:#FFC59E;}
	.st11{fill:#FFC7A1;}
	.st12{fill:#74C5A0;}
	.st13{fill:#FFF7F2;}
	.st14{fill:#FFD2B5;}
	.st15{fill:#FFC7A2;}
	.st16{fill:#FFDAC2;}
	.st17{fill:#7EC9A6;}
	.st18{fill:#FFD9C0;}
	.st19{fill:#FFD6BA;}
	.st20{fill:#FFCEAC;}
	.st21{fill:#469470;}
	.st22{fill:#FFCBA7;}
	.st23{fill:#FFD5B9;}
	.st24{fill:#8DD0B1;}
	.st25{fill:#FFC9A5;}
	.st26{fill:#FFD9BF;}
	.st27{fill:#65BF95;}
	.st28{fill:#68C097;}
	.st29{fill:#FFC49C;}
	.st30{fill:#FFC299;}
	.st31{fill:#FFCAA6;}
	.st32{fill:#FFD4B8;}
</style>
<g>
	<path class="st0" d="M90.38,67.44c-29.23,0-58.46-0.03-87.69,0.06c-2.24,0.01-2.7-0.45-2.69-2.68C0.11,44.11,0.11,23.39,0,2.68
		C-0.01,0.45,0.45,0,2.69,0C61.15,0.08,119.6,0.08,178.06,0c2.24,0,2.7,0.45,2.69,2.68c-0.11,20.71-0.11,41.42,0,62.13
		c0.01,2.23-0.45,2.69-2.69,2.68C148.83,67.41,119.6,67.44,90.38,67.44z"/>
	<path class="st1" d="M158.13,53.06c-1.76-1.58-3.4-3.31-5.3-4.7c-3.57-2.6-6.75-5.48-8.31-9.92c-5.76,4.65-5.91,12.64-11.41,17.05
		c-0.72-0.07-1-0.61-1.26-1.18c-2.55-5.1-3.6-10.19,0.25-15.18c2.11-1.32,3.39-3.67,5.79-4.63c2.11,0.42,2.75-1.69,4.18-2.47
		c2.54-1.38,4.4-1.34,5.82,1.42c3.68,7.13,8.91,13.01,14.9,18.28c0.9,1.59,0.24,2.67-1.26,3.22
		C159.78,55.57,158.65,54.78,158.13,53.06z"/>
	<path class="st1" d="M55.58,45.39c3.91-5.01,8.36-9.48,13.43-13.31c4.99-3.77,6.33-3.4,9.55,1.94c3.37,5.6,5.86,11.78,10.66,16.46
		c1.22,1.55,1.22,3.09-0.66,3.92c-1.46,0.65-2.64-0.05-2.86-1.81c-2.88-3.18-5.76-6.36-8.66-9.53c-1.43-1.56-2.8-3.13-2.82-5.41
		c-0.65-1.48-1.56-1.81-2.82-0.64c-0.85,0.79-1.06,1.92-1.58,2.88c-3.59,3.48-4.81,8.32-7.2,12.48
		C59.24,51.07,56.24,49.41,55.58,45.39z"/>
	<path class="st1" d="M161.25,24.88c-4.86,1.88-10.09,1.07-15.07,2.04c-2.7-0.44-5.39-0.64-8.03,0.33c-0.28,0.25-0.51,0.54-0.7,0.86
		c-0.39,0.94-1.03,1.65-1.97,2.08c-0.88,0.45-1.78,0.86-2.73,1.11c-2.12,0.56-4.2,0.65-5.8-1.17c-1.68-1.92-0.57-3.64,0.56-5.32
		c0.83-0.62,0.67-2.01,1.86-2.34c0.9-0.44,1.54-1.49,2.76-1.24c3.14,0.36,6.38,0.23,9.27,1.85c5.87,0.88,11.71-0.78,17.58-0.16
		C160.16,23.04,162.01,22.46,161.25,24.88z"/>
	<path class="st2" d="M11.24,47.87c0.21-1.82,2.03-1.89,3.06-2.82c1.04,1.03,2.05,1.83,2.59-0.41c0.49-1.31,1.98-0.36,2.68-1.19
		c0.74,0.26,1.49,0.53,2.23,0.79c0.65,1.32,0.19,2.89,0.99,4.17c-0.24,1.51-3.42,0.98-2.49,2.46c1.14,1.8,2.43-0.55,3.66-1.02
		c0.71-0.27,1.44-0.37,2.16-0.54c0.7-0.21,1.28,0.05,1.82,0.45c0.73,0.73,1.68,0.66,2.61,0.73c1.04,0.22,2.08,0.43,2.84,1.28
		c0.29,0.5,0.41,1.05,0.4,1.62c-0.38,2.57-2.13,3.35-4.44,3.42c-1.29-0.62-2.56-0.62-3.8,0.14c-2,1.86-4.03,2.74-6.47,0.62
		c-0.58-0.5-1.6-0.48-2.42-0.69C16.05,53.14,12.77,51.03,11.24,47.87z"/>
	<path class="st1" d="M51.04,56.22c-4.94-0.78-9.89-1.06-14.85-0.25c-0.21-0.5-0.03-0.96,0.16-1.42c0.47-1.62,0.21-3.28,0.29-4.92
		c0.01-0.52,0.06-1.03,0.16-1.54c0.28-1.02,0.52-2.07,1.48-2.72c4.6-0.06,8.81,2.69,13.51,1.9C53.18,50.39,53.87,53.45,51.04,56.22z
		"/>
	<path class="st1" d="M132.72,39c-3.08,5.03-2.57,10.08-0.07,15.14c-2.08-0.08-2.38-1.89-3.14-3.24c-0.59-1.05-0.54-2.48-1.89-3.04
		c-2.52,0.11-4.78,2.42-7.49,0.88c-0.31-4.7,0.69-9.18,2.25-13.57C126.77,33.92,129.92,36,132.72,39z"/>
	<path class="st3" d="M132.72,39c-3.35-1.55-6.46-3.71-10.34-3.83c-0.13-0.83,0.15-1.54,0.66-2.18c1.71-2.02,2.34-4.48,2.84-6.99
		c0.02-1.09,0.65-1.37,1.62-1.19c0.32,1.75-1.9,3.79,0.6,5.3c2.07,1.25,3.98,0.58,5.92-0.36c0.53-0.26,1.17-0.27,1.76-0.4
		c1.27,0.87,1.54,2.23,1.72,3.62c0.12,0.51,0.25,1.02,0.37,1.53C136.54,36.43,135.39,38.59,132.72,39z"/>
	<path class="st4" d="M128.2,46.49c2.62,1.89,1.72,5.82,4.45,7.64c0.15,0.45,0.3,0.9,0.46,1.35c-4.85,4.06-9.79,2.91-12.53-2.93
		c-0.04-2.01,1.76-2.43,2.98-3.24C125.05,48.33,126.77,47.64,128.2,46.49z"/>
	<path class="st5" d="M55.58,45.39c1.6,3.07,4.83,4.51,7.03,6.98c-1.85,3.51-4.88,4.77-8.69,4.54c-1.17-3.39-2.59-6.78-0.15-10.22
		C54.38,46.26,54.98,45.82,55.58,45.39z"/>
	<path class="st6" d="M136.48,6.05c0.52,0.28,1.04,0.55,1.56,0.83c0.75,2.95-0.81,5.21-2.22,7.52c-0.39,0.15-0.75,0.09-1.08-0.17
		c-0.68-1.18-0.7-2.33,0.11-3.43c-1.45,1.85,0.13,4.21-0.9,6.13c-0.19,0.32-0.48,0.51-0.84,0.59c-0.95-0.72-1.17-1.74-1.18-3.71
		c-0.38,1.96,0.34,2.71,0.85,3.53c0.36,0.42,0.6,0.88,0.63,1.44c0,0.57-0.16,1.09-0.55,1.53c-1.65,0.36-2.15-1.3-3.28-1.86
		c-0.97-0.86-1.46-1.95-1.57-3.22c-0.06-1.94,0.2-3.82,0.87-5.65c0.3-1.76,1.5-2.78,2.96-3.58C133.4,5.53,134.94,5.46,136.48,6.05z"
		/>
	<path class="st7" d="M135.71,14.28c0.01-2.71,1.94-4.81,2.33-7.41c1.03,1.02,1.92,2.14,2.24,3.6c-0.15,0.18-0.33,0.33-0.54,0.43
		c0.26,0.22,0.22,0.12,0.3-0.21c0.11-0.47-0.02,0.2,0.24-0.23c0.63,2.23,2.37,4.21,1.45,6.81c-0.25,0.7-0.27,1.65-0.99,1.86
		c-5.69,1.59-0.72,2.29,0.26,3.32c0.19,0.19,0.25,0.37,0.17,0.55c-0.07,0.17-0.14,0.26-0.21,0.26c-2.85-1.41-6.13,0.01-8.98-1.37
		c0.26-0.5,0.72-0.72,1.23-0.85c0.9-0.24,1.9-0.02,2.73-0.56c0.23-0.38,0.24-0.8,0.17-1.22C135.17,17.66,134.6,16.03,135.71,14.28z"
		/>
	<path class="st8" d="M85.7,52.58c0.72,0.88,1.49,1.81,2.77,1.18c1.53-0.74,0.61-2.17,0.75-3.29c0.99-0.64,1.91-0.42,2.66,0.36
		c2.18,2.26,5.15,3.17,7.79,4.65c-0.87,1.03-2.08,1.53-3.25,2.08c-2.82,0.27-5.66,0.23-8.49,0.47c-1.55,0.13-2.73-0.28-2.69-2.17
		C85.17,54.73,84.87,53.58,85.7,52.58z"/>
	<path class="st9" d="M38.28,45.37c-0.24,0.86-0.48,1.71-0.73,2.57c-1.37,1.48-0.24,3.56-1.22,5.13c-1.11,0.76-1.59-0.27-2.26-0.79
		c-0.73-1.32-2.19-1.4-3.37-1.9c-1.24-0.52-2.53-0.84-2.88-2.38C32.73,42.43,33.67,42.19,38.28,45.37z"/>
	<path class="st8" d="M158.13,53.06c3.15,2.1,3.86,1.9,4.65-1.34c2.54-0.4,3.62,1.78,5.25,2.98c0.67,0.78,0.17,1.72,0.39,2.57
		c0,0.47-0.11,0.9-0.51,1.2c-1.97-0.02-3.94-0.04-5.92-0.04C157.67,58.42,157.07,57.59,158.13,53.06z"/>
	<path class="st10" d="M11.24,47.87c3.24,1.55,4.39,4.85,6.24,7.55c0.45,0.66-0.68,0.88-0.82,1.45c-0.74,0.05-1.49,0.09-2.24,0.14
		c-2.02,0.45-3.54-0.75-5.19-1.55c-0.21-0.12-0.29-0.29-0.25-0.53c-0.42-1.38-0.46-2.75,0.02-4.13
		C9.21,49.42,9.48,48.08,11.24,47.87z"/>
	<path class="st1" d="M140.95,23.27c0.01-0.27,0.02-0.54,0.04-0.81c10.23,0.02,20.47,0.03,30.7,0.05c0.54,1.91-1.94,1.1-2.12,2.36
		c-2.77,0.86-5.55-0.57-8.32,0.01c-0.3-2.03-1.9-1.55-3.18-1.59c-4.32-0.12-8.61,0.04-12.91,0.67
		C143.8,24.15,142.17,24.56,140.95,23.27z"/>
	<path class="st11" d="M26.28,49.41c-1.08,0.74-2.18,1.45-3.24,2.22c-0.91,0.67-1.56,2.16-3.01,0.89c-0.71-0.63-1.87-1.23-1.6-2.25
		c0.36-1.35,1.77-1.43,2.99-1.56c0.36-0.04,0.73-0.06,1.09-0.09c1.03-0.46,2.06-0.37,3.08,0.02c0.24,0.07,0.47,0.15,0.7,0.24
		c0.21,0.12,0.28,0.24,0.21,0.36C26.43,49.35,26.36,49.41,26.28,49.41z"/>
	<path class="st9" d="M85.23,55.86c0.69,0.98,1.18,1.96,2.82,1.74c2.87-0.38,5.78-0.41,8.67-0.59c1.27-0.77,2.53-1.23,3.68,0.2
		c-4.59,2.3-9.51,1.2-14.3,1.29C84.18,58.54,84.44,57.11,85.23,55.86z"/>
	<path class="st12" d="M53.77,46.69c-1.34,3.43,0.64,6.8,0.15,10.22c-1.11,0.4-2-0.13-2.88-0.69c1.39-2.89,0.51-5.97,0.75-8.95
		C52.39,46.87,53,46.5,53.77,46.69z"/>
	<path class="st13" d="M128.95,15.84c-0.14,1.14,0.51,1.81,1.41,2.32c0.76,0.94,0.95,1.74-0.52,2.12c-4.05-1.69-4.46-4.17-1.64-9.75
		C129.21,12.2,127.98,14.18,128.95,15.84z"/>
	<path class="st9" d="M128.2,46.49c-1.85,2.89-5.34,3.73-7.63,6.07c-0.96-1.18-0.48-2.53-0.44-3.83
		C122.97,48.54,125.52,47.27,128.2,46.49z"/>
	<path class="st14" d="M36.7,55.42c-0.17,0.18-0.34,0.37-0.51,0.55c-2.54,0.46-4.94,2.02-7.68,1.08c-0.19-0.2-0.25-0.38-0.17-0.57
		c0.07-0.18,0.15-0.27,0.21-0.27c2.26,0.12,4.11-0.35,4.49-3.02c1.5-0.19,2.55,0.91,3.83,1.34C37.07,54.89,37.03,55.18,36.7,55.42z"
		/>
	<path class="st15" d="M26.28,49.41c0-0.18,0.01-0.35,0.01-0.53c0.51-0.29,1.01-0.58,1.52-0.87c2.01,1.69,4.92,1.72,6.76,3.7
		c-0.52,0.42-1.05,0.46-1.59,0.03c-1.06,0.06-2.04-0.2-2.93-0.77c-0.67-0.52-1.7,0.13-2.27-0.72
		C27.29,49.96,26.78,49.69,26.28,49.41z"/>
	<path class="st8" d="M167.9,58.46c0.01-0.5,0.03-0.99,0.04-1.49c0.36-0.67,0.75-1.29,1.68-0.89c1.36-0.22,3.48-0.24,3,1.32
		C172.08,59.18,169.71,58.96,167.9,58.46z"/>
	<path class="st16" d="M69.81,39.89c-0.2-1.96-0.01-3.87,2.22-4.45c1.57-0.41,2.15,0.77,2.18,2.2
		C71.66,36.26,71.47,39.51,69.81,39.89z"/>
	<path class="st17" d="M125.88,26c0.45,2.9,0.1,5.47-2.84,6.99C123.43,30.43,124.48,28.14,125.88,26z"/>
	<path class="st1" d="M172.47,22.44c1.07,0.06,2.14,0.13,3.52,0.21c-1.33,2.13-3.14,2.25-5.06,2.09
		C170.56,23.39,172.37,23.49,172.47,22.44z"/>
	<path class="st18" d="M137.24,27.06c2.96-1.33,5.94-1.11,8.93-0.14c-2.47,0.56-5.06-0.19-7.49,0.75
		C138.25,27.34,137.59,27.56,137.24,27.06z"/>
	<path class="st19" d="M17.29,45c-0.26,0.72,1.12,1.95-0.64,2.2c-1.62,0.23-2.5-0.42-2.35-2.15c0.5-0.03,0.99-0.06,1.49-0.09
		C16.3,44.56,16.8,44.51,17.29,45z"/>
	<path class="st20" d="M137.51,32.96c-0.94-1.03-1.61-2.19-1.72-3.62c0.47-0.54,0.94-1.09,1.4-1.63c0.77,0.59,0.05,1.67,0.75,2.28
		C138.09,31.02,138.06,32.03,137.51,32.96z"/>
	<path class="st2" d="M25.6,48.64c-1.03-0.01-2.05-0.01-3.08-0.02c-0.9-1.35-0.72-2.88-0.72-4.38C22.4,46.28,23.35,48.02,25.6,48.64
		z"/>
	<path class="st11" d="M9.22,55.45c1.73,0.52,3.46,1.03,5.19,1.55C12.28,57.82,10.55,57.33,9.22,55.45z"/>
	<path class="st18" d="M129.83,20.29c0.81-0.55,0.68-1.34,0.52-2.13c1.39,0.04,1.35,1.66,2.35,2.14c0.24,0.36,0.19,0.69-0.13,0.98
		c-0.92,0.07-1.86,0.37-2.72-0.22C129.84,20.81,129.84,20.55,129.83,20.29z"/>
	<path class="st21" d="M100.4,57.21c-1.23-0.07-2.45-0.14-3.68-0.2c0.55-1.34,1.65-1.62,2.94-1.53
		C100.62,55.75,100.68,56.41,100.4,57.21z"/>
	<path class="st22" d="M128.95,15.84c-1.32-1.62-0.66-3.52-0.75-5.31c0.23-0.32,0.46-0.63,0.69-0.95
		C128.91,11.67,128.93,13.76,128.95,15.84z"/>
	<path class="st2" d="M17.29,45c-0.5-0.01-1-0.03-1.51-0.04c0.87-1.49,2.03-2.23,3.78-1.51C18.81,43.97,18.05,44.48,17.29,45z"/>
	<path class="st23" d="M172.47,22.44c0.11,1.18-1.03,1.53-1.53,2.31c-0.46,0.04-0.92,0.08-1.38,0.11c-0.33-1.72,1.87-1.16,2.12-2.36
		C171.95,22.49,172.21,22.47,172.47,22.44z"/>
	<path class="st24" d="M129.85,21.06c0.95-0.02,1.91-0.04,2.86-0.06c0.26-0.26,0.54-0.29,0.85-0.1c0.2,0.31,0.16,0.59-0.1,0.85
		c-0.5,0.05-1,0.09-1.5,0.14c-0.87,0.19-1.74,0.38-2.6,0.57C129.52,22,129.69,21.53,129.85,21.06z"/>
	<path class="st4" d="M169.62,56.08c-0.56,0.3-1.12,0.59-1.68,0.89c-0.88-0.79,0.23-1.52,0.08-2.28
		C168.87,54.8,169.44,55.22,169.62,56.08z"/>
	<path class="st14" d="M28.55,56.22c-0.01,0.28-0.03,0.56-0.04,0.83c-0.99-0.04-1.97-0.07-2.96-0.11
		C26.43,56.2,27.18,54.94,28.55,56.22z"/>
	<path class="st25" d="M136.48,6.05c-1.54-0.02-3.09-0.03-4.63-0.05C133.4,4.98,134.95,4.76,136.48,6.05z"/>
	<path class="st15" d="M137.93,29.99c-0.84-0.57-0.67-1.46-0.75-2.28c0.02-0.22,0.04-0.44,0.05-0.66c0.57-0.01,1.11,0.04,1.44,0.6
		C137.79,28.23,138.13,29.2,137.93,29.99z"/>
	<path class="st11" d="M8.99,50.8c-0.01,1.37-0.01,2.75-0.02,4.13C7.79,53.54,8.1,52.17,8.99,50.8z"/>
	<path class="st10" d="M32.99,51.73c0.53-0.01,1.06-0.02,1.59-0.03c0.48,0.53,0.96,1.06,1.44,1.59c0.5,0.04,0.84,0.3,1.03,0.76
		c0.06,0.34-0.08,0.55-0.4,0.65c-1.53,0.29-2.69-0.32-3.6-1.51C33.02,52.71,33,52.22,32.99,51.73z"/>
	<path class="st26" d="M27.79,50.24c0.83,0,1.72-0.18,2.27,0.72C29.09,51.36,28,52.19,27.79,50.24z"/>
	<path class="st27" d="M36.74,54.07c-0.24-0.26-0.48-0.52-0.72-0.78c0.29-1.85-0.83-4.1,1.53-5.36c-0.03,0.52-0.05,1.04-0.08,1.56
		C36.62,50.93,37.74,52.67,36.74,54.07z"/>
	<path class="st28" d="M36.74,54.07c0.31-1.51-0.55-3.22,0.73-4.58c-0.33,1.97,1.02,4.15-0.77,5.93c0.04-0.24,0.02-0.48-0.05-0.71
		C36.7,54.5,36.73,54.29,36.74,54.07z"/>
	<path class="st29" d="M133.47,17.28c0.2-2.26-0.56-4.67,1.51-7.78c0,2.28,0,3.54,0,4.79c0.69,1,0.57,2.19,0.2,3.14
		C134.78,18.45,133.91,18.88,133.47,17.28z"/>
	<path class="st30" d="M132.72,17.28c-3.17-1.19-2.34-2.78,0-4.93C132.72,14.28,132.72,15.78,132.72,17.28L132.72,17.28z"/>
	<path class="st31" d="M133.47,17.28c2.73,0.13,0.93-2.03,1.51-2.99c0.24,0,0.49,0,0.73-0.01c0.27,1.81,0.38,3.66,1.46,5.25
		c-0.58,0.41-1.2,0.19-1.82,0.14c-0.32-0.02-0.63-0.05-0.94-0.09c-0.66-0.07-1.24-0.29-1.69-0.8c0-0.5,0-1,0-1.5c0,0,0,0,0,0
		C132.97,17.28,133.22,17.28,133.47,17.28z"/>
	<path class="st30" d="M132.72,18.78c0.75,0,1.49,0,2.24,0c0.72,1.56,0.92,2.78-1.5,2.24c-0.25-0.01-0.5-0.01-0.75-0.02
		c0.02-0.23,0.02-0.47-0.01-0.7C132.71,19.79,132.71,19.29,132.72,18.78z"/>
	<path class="st6" d="M133.46,21.03c1.51-0.07,1.53-1.14,1.5-2.24c0.25,0,0.5,0,0.76,0c0.55,0.7,0.73,1.64,1.46,2.23
		c-1.02,1.32-2.48,0.47-3.71,0.74C133.46,21.51,133.46,21.27,133.46,21.03z"/>
	<path class="st32" d="M140.27,10.48c-0.24,0.88,0.3,1.95-1.36,3.28C139.19,12.09,138.34,10.95,140.27,10.48
		C140.28,10.48,140.27,10.48,140.27,10.48z"/>
	<path class="st10" d="M137.18,21.01c-1.52-0.07-1.46-1.17-1.46-2.23c0.49,0.25,0.97,0.5,1.46,0.75
		C137.18,20.02,137.18,20.52,137.18,21.01z"/>
</g>
</svg>
