<?xml version="1.0" encoding="utf-8"?>
<!-- Generator: Adobe Illustrator 24.2.1, SVG Export Plug-In . SVG Version: 6.00 Build 0)  -->
<svg version="1.1" id="Calque_1" xmlns="http://www.w3.org/2000/svg" xmlns:xlink="http://www.w3.org/1999/xlink" x="0px" y="0px"
	 viewBox="0 0 182.25 108.5" style="enable-background:new 0 0 182.25 108.5;" xml:space="preserve">
<style type="text/css">
	.st0{fill:#FEFEFE;}
	.st1{fill:#FFECDF;}
	.st2{fill:#8ACEAE;}
	.st3{fill:#FFEBDD;}
	.st4{fill:#469470;}
	.st5{fill:#FFEDE0;}
	.st6{fill:#489571;}
	.st7{fill:#86CCAB;}
	.st8{fill:#FFE0CB;}
	.st9{fill:#FFE0CC;}
	.st10{fill:#4C9774;}
	.st11{fill:#4D9876;}
	.st12{fill:#8BCFAF;}
	.st13{fill:#4F9977;}
	.st14{fill:#8DD0B1;}
	.st15{fill:#7BC8A4;}
	.st16{fill:#7EC9A6;}
	.st17{fill:#7CC9A5;}
	.st18{fill:#FFEADC;}
	.st19{fill:#83CBA9;}
	.st20{fill:#91D1B3;}
	.st21{fill:#FFE4D2;}
	.st22{fill:#FFDEC7;}
	.st23{fill:#4A9773;}
	.st24{fill:#FFE1CC;}
	.st25{fill:#40916C;}
	.st26{fill:#FFE8D9;}
	.st27{fill:#80CAA8;}
	.st28{fill:#98D4B8;}
	.st29{fill:#539C7B;}
	.st30{fill:#FFDFC9;}
	.st31{fill:#82CBA9;}
	.st32{fill:#FFE1CD;}
	.st33{fill:#FFDEC8;}
	.st34{fill:#FFDDC6;}
	.st35{fill:#FFE3D0;}
	.st36{fill:#9FD7BD;}
	.st37{fill:#FFFBF8;}
	.st38{fill:#90D1B3;}
	.st39{fill:#FFE9DA;}
	.st40{fill:#FFF4EC;}
	.st41{fill:#FFF7F2;}
	.st42{fill:#FFE7D7;}
	.st43{fill:#FFDDC7;}
	.st44{fill:#FFE2CF;}
	.st45{fill:#FFE5D4;}
</style>
<g>
	<path class="st0" d="M0.06,108.43C0.06,74.35,0.09,40.26,0,6.18C-0.01,3.95,0.45,3.5,2.69,3.5c58.96,0.08,117.91,0.08,176.87,0
		c2.23,0,2.69,0.45,2.69,2.68c-0.09,33.08-0.1,66.17,0.01,99.25c0.01,2.57-0.5,3.07-3.07,3.07
		C119.47,108.41,59.77,108.43,0.06,108.43z"/>
	<path class="st1" d="M85.32,46.86c-6.53,0.7-12.79,0.25-19.34-1.32c-5.11-1.22-10.95,0.63-16.46,1.11
		c-2.42-3.48-2.34-5.93,0.32-9.16c1.13-0.63,2.34-0.97,3.64-0.95c3.93,0.25,7.75,0.93,11.24,2.89c0.2-0.05,0.38-0.02,0.55,0.09
		c6.88,2.07,13.71,4.44,21.08,3.92C88.27,45.27,88.02,46.43,85.32,46.86z"/>
	<path class="st1" d="M70.68,98.79c-2.8,1.5-5.73,0.8-8.28-0.25c-4.81-1.98-9.4-1.52-14.14-0.06c-1.99,0.61-4.03,1.31-6.19,0.98
		c-3.2-3.19-2.98-6.11,0.71-9.47c0.83-0.31,1.67-0.26,2.52-0.13c9.09-0.22,17.46,3.61,26.33,4.7c2.36,0.29,4.71,0.12,7.04,0.53
		c1.04,0.4,1.53,1.16,1.2,2.23c-0.4,1.28-1.44,1.41-2.59,1.21c-1.26,0.03-2.52,0.07-3.78,0.1c-0.93-0.67-2.03-0.08-3-0.42
		c-0.01,0.11-0.03,0.22-0.04,0.33C70.88,98.3,70.42,99.21,70.68,98.79z"/>
	<path class="st1" d="M162.06,46.32c-1.19,0.86-2.54,0.75-3.89,0.63c-2.24-0.5-4.48-0.56-6.72,0.03c-2.22-0.03-4.19-0.82-6.03-1.99
		c-2.6-1.54-4.97-0.16-7.4,0.58c-2.87,1.37-5.96,1.78-9.07,2.13c-0.44-0.49-0.76-1.05-0.88-1.7c-0.14-0.98-0.15-1.97-0.05-2.95
		c0.38-3.96,2.2-5.33,6.16-5c6.17,0.51,12.22,1.53,18.08,3.57c0.42,0.06,0.82,0.17,1.22,0.31c3.46,0.91,7.13,0.13,10.58,1.29
		c1.41,0.48,2.74,0.89,1.18,2.63c-0.97,0.23-1.95-0.07-2.93,0.04c-0.5,0.05-0.81,0.19-0.32,0.1
		C161.99,45.97,162.04,46.2,162.06,46.32z"/>
	<path class="st1" d="M20.3,43.98c-3,0.31-5.96,0.09-8.84-0.75c-3.42-0.99-3.91-2.51-1.68-5.38c1.36-1.76,2.9-3.37,4.36-5.05
		c1.08-1.36,2.32-1.55,3.72-0.52c1.44,1.67-0.21,2.04-1.13,2.72c-0.11,1.35,1.07,1.76,1.79,2.49c2.09,1.35,4.22-0.68,6.32,0.06
		c2.13,0.81,3.71,2.11,3.74,4.59c0.02,1.72-0.76,2.86-2.61,2.98C23.89,45.66,22.5,42.78,20.3,43.98z"/>
	<path class="st1" d="M41.31,45.38c-2.84-1.16-5.8-0.45-8.7-0.56c-0.38-0.05-0.7-0.22-0.96-0.5c-1.4-2.26-1.2-4.6-0.36-6.98
		c0.14-0.33,0.32-0.63,0.52-0.92c0.95-1.23,2.54-1.65,3.58-2.78c3.33,1.36,6.47,3.42,10.33,2.86
		C44.22,39.45,42.03,42.05,41.31,45.38z"/>
	<path class="st1" d="M109.97,35.1c-2.48-2.71-3.99-6.2-7.01-8.53c-1.54-1.19-1.11-2.93-0.1-4.36c1.08-1.53,2.31-2.96,3.48-4.44
		c0.64,0.03,0.96-0.48,1.38-0.82c0.61-0.49,1.24-0.92,2.08-0.9c0.5,0.16,0.84,0.5,1.09,0.95c1.59,2.54,0.14,3.83-1.97,4.87
		c-0.42,0.73-0.59,1.44,0.13,2.09c0.5,0.4,1.04,0.73,1.54,1.13c0.73,0.74,1.82,1.04,2.38,1.98c0.26,0.54,0.4,1.1,0.45,1.7
		C113.38,31.48,114.04,34.59,109.97,35.1z"/>
	<path class="st1" d="M32.45,92.6c-0.73-3.91-0.96-7.85-0.78-11.81c0.25-0.27,0.56-0.37,0.93-0.32c1.61,0.58,3.27,0.94,5,0.85
		c1.94,0.62,4.24-0.17,5.9,1.52c-0.44,1.94-1.61,3.87-0.11,5.85c-0.11,0.36-0.33,0.64-0.67,0.82C39.17,90.15,36.02,92.06,32.45,92.6
		z"/>
	<path class="st2" d="M32.26,80.78c-0.2,0-0.39,0-0.59,0.01c-0.57-1.75-1.05-3.51-0.83-5.38c0.58-0.98,1.13-1.98,1.69-2.97
		c0.72-1.24-0.16-3.24,1.83-3.88c0.51,0.25,0.74,0.7,0.88,1.22c0.62,1.27-0.61,3.17,1.38,3.98c0.31,0.14,0.53,0.36,0.68,0.66
		c0.26,0.64,0.3,1.3,0.23,1.98c-0.04,0.58-0.41,1.04-0.63,1.61c0.5-0.51,0.8-1.15,1.43-1.48c1.57-0.68,2.98-1.5,3.7-3.2
		c0.34-0.81,0.96-1.38,1.97-1.19c0.87,0.37,1.04,1.24,1.46,1.94c0.45,0.67,0.72,1.42,0.99,2.18c-0.32,2.31-1.1,4.4-2.82,6.06
		c-1.83-0.51-3.73-0.17-5.57-0.49C36.01,82.12,34.18,81.2,32.26,80.78z"/>
	<path class="st1" d="M118.56,16.23c4.57,1.19,8.15,3.9,11.24,7.35c2.01,2.25,1.87,3.99-1.32,4.72c-2.09,0.48-3.52,1.48-3.91,3.68
		c-0.14-0.1-0.28-0.2-0.42-0.3c-0.77-2.11-2.35-3.25-4.5-3.66c-1.25-0.6-2.92-0.79-2.8-2.77c1.82-1.78,4.41,0.15,6.66-1.46
		c-1.81-1.77-4.34,0.2-5.9-1.34c-0.81-1.42-0.04-2.85-0.03-4.28c0.04-0.37,0.14-0.73,0.26-1.09
		C117.98,16.71,118.23,16.44,118.56,16.23z"/>
	<path class="st1" d="M121.36,45.24c-2.48-2.81-5.03-5.54-8.18-7.64c0.02-0.4,0.17-0.75,0.43-1.06c3.07-2.96,6.27-5.45,10.85-3.06
		c1.21,1.01,2.41,2.02,3.62,3.02c-0.29,0.66-0.86,1.05-1.43,1.44C123.14,39.1,122.75,42.53,121.36,45.24z"/>
	<path class="st3" d="M164.19,45.51c0.96-0.23,1.97-0.59,0.46-1.43c-1.75-0.97-3.77-0.74-5.71-0.86c-2-0.12-4.15,0.78-5.99-0.7
		c0.19-0.17,0.4-0.28,0.64-0.31c0.44-0.07,0.88-0.04,1.32-0.06c-0.33,0-0.66-0.01-0.98,0c-0.37,0.01-0.71,0.1-0.98,0.38
		c-4.12,0.51-7.35-2.79-11.52-2.55c-2.66,0.15-5.37-0.75-8.06-1.16c-2.68-0.41-3.98,1.03-4.33,3.46c-0.19,1.35-0.1,2.74-0.13,4.11
		c-3-2.53-2.6-5.67,1.14-8.89c1.32-0.4,2.66-0.04,3.99-0.12c5.31-0.96,10.31,0.79,15.36,1.88c3.26,0.71,6.43,1.82,9.64,2.75
		c1.22,0.42,2.56-0.18,3.76,0.45c0.94-0.04,1.88-0.08,2.82-0.12c1.42,0.73,1.8,1.9,1.24,3.31c-0.5,1.26-1.53,1.37-2.68,0.86
		l-0.1-0.17c-0.19-0.21-0.24-0.4-0.15-0.57C164.03,45.59,164.11,45.51,164.19,45.51z"/>
	<path class="st4" d="M32.45,92.6c3.08-2.2,6.46-3.55,10.3-3.61c0.48,0.48,0.48,0.98,0.07,1.49c-2.54,2.8-2.36,5.83-0.75,8.97
		C36.33,99.8,33.81,98.01,32.45,92.6z"/>
	<path class="st4" d="M41.31,45.38c-0.85-4.11,1.46-6.65,4.4-8.88c0.47-0.02,0.95-0.05,1.42-0.07c1.27,0.07,3.46-1.72,3.13,1.55
		c-2.79,2.67-1.15,5.72-0.75,8.67C46.57,47.6,43.9,46.71,41.31,45.38z"/>
	<path class="st5" d="M15.07,70.18c-2.61-1.57-0.78-2.46,0.56-3.3c5.24-3.27,11.3-4.79,16.69-7.74c1.45,1.32,1.46,2.92,0.9,4.64
		c-0.38,1.1-1.14,1.85-2.14,2.4c-0.94,0.46-1.88,0.95-2.98,0.65c-0.62-0.37-1.12-1.13-2-0.58c-0.53,0.43-0.24,1.09-0.45,1.61
		c-0.61,0.78-1.4,0.78-2.24,0.52c-0.91-0.58-1.82-0.74-2.77-0.05C18.97,69.54,17.04,69.92,15.07,70.18z"/>
	<path class="st3" d="M78.86,95.66c-6.97,0.02-13.8-0.54-20.47-2.99c-2.95-1.08-6.31-1.03-9.49-1.48c-1.31-0.19-2.77,0.47-3.88-0.74
		c0.39-0.46,0.9-0.63,1.48-0.61c1.28,0.39,2.63,0.16,4.52,0.31c-1.57-0.19-2.61,0.01-3.6-0.21c-0.22-0.17-0.32-0.36-0.3-0.58
		c0.02-0.23,0.06-0.34,0.12-0.34c5.81-0.33,11.35,1.06,16.83,2.7c4.79,1.43,9.59,2.67,14.64,2.53
		C79.14,94.69,79.21,95.16,78.86,95.66z"/>
	<path class="st1" d="M23.29,67.98c0.83-0.03,1.74,0.14,2.22-0.83c-0.18-0.7,0.28-0.95,0.8-1.17c0.57-0.08,1.07,0.06,1.47,0.5
		c1-0.25,1.99-0.49,2.99-0.74c1.16,0.07,2.44-0.26,3.18,1.06c-0.55,2.11-0.41,4.32-0.85,6.44c-0.48,1.01-1.25,1.72-2.27,2.17
		c-0.84-3.42-2.1-5.68-6.52-4.47c-2.43,0.67-5.38,0.7-7.93-0.63C18.76,69.72,20.52,67.35,23.29,67.98z"/>
	<path class="st6" d="M130.46,38.01c-2.52,2.42-3.71,5.08-1.55,8.36c0.01,0.44,0.03,0.88,0.04,1.31c-2.9,0.33-5.46-0.38-7.59-2.45
		c-0.5-4.19,1.36-6.8,5.34-7.99C128.06,37,129.55,36.05,130.46,38.01z"/>
	<path class="st7" d="M92.25,50.01c-1.34,0.72-2.6,0.69-3.75-0.38c-1.41-1.89,0.44-3.42,0.82-4.98c0.68-2.85,1.25-5.76,2.17-8.56
		c1.51-3.59,3.34-1.89,5.15-0.31C96.03,40.79,95.45,45.8,92.25,50.01z"/>
	<path class="st7" d="M171.74,37.73c1.18-2.76,3.15-2.16,5.2-1.21c-0.74,5.07-2.59,9.65-6.01,13.54c-1.32,0.82-2.63,1.47-3.83-0.17
		c-1.1-1.57,0.46-2.51,0.92-3.67C169.16,43.34,170.74,40.66,171.74,37.73z"/>
	<path class="st8" d="M32.98,58.18c0.45-1.95,1.79-3.21,3.4-4.2c3.78-2.33,6.54-1.08,7.93,3.52c-0.22,0.25-0.48,0.42-0.8,0.51
		c-0.91,0.12-1.88-0.24-2.73,0.37c-1.32,0.82-1.99,2.16-2.76,3.42c-0.68,0.78-0.9,2.74-2.57,1.02
		C35.27,60.93,32.08,60.64,32.98,58.18z"/>
	<path class="st7" d="M85.53,101.7c-1.79,0.51-3.54,2.18-5.39,0.14c-0.36-0.94-0.21-1.61,0.35-2.61c1.59-2.82,2.95-5.79,3.81-8.95
		c0.82-1.85,1.84-3.3,4.2-2.14c1.91,2.92,0.35,5.52-0.85,8.07C86.8,98,85.41,99.55,85.53,101.7z"/>
	<path class="st3" d="M18.73,26.63c2.29-1,4.68-1.08,5.83,1.35c1.66,3.48,5.57,2.63,7.86,4.71c-0.44,2.64-3.34,1.25-4.48,2.75
		c-1.73,0.65-3.44,0.71-5.08-0.29c-0.29-0.23-0.54-0.5-0.75-0.8c-1.15-2.07-1.47-4.46-2.56-6.56
		C19.21,27.46,18.87,27.11,18.73,26.63z"/>
	<path class="st1" d="M46.45,76.26c-0.48-0.51-0.95-1.02-1.43-1.53c-0.08-1.99-2-4.2,0.7-5.86c2.41,0.32,4.04,1.43,4.84,3.9
		c0.56,1.74,1.64,3.31,2.5,4.96c-0.47,1.04-0.2,2.39-1.35,3.14C49.2,80.19,49.43,76.39,46.45,76.26z"/>
	<path class="st9" d="M18.73,26.63c0.53,0.08,1.05,0.17,1.58,0.25c0.43,2.56,0.65,5.18,2.28,7.37l-0.01-0.01
		c0.52,1.51,2,0.96,3.02,1.4c0.42,1.42-0.85,1.74-1.57,2.42c-2.01,0.08-4.03,2.25-6.03-0.01c0.31-0.54,0.86-0.86,1.2-1.35
		c0.21-0.55,0.24-1.11,0.14-1.68c-0.19-0.92-0.58-1.69-1.43-2.17c-1.25-0.26-2.49-0.97-3.76-0.06
		C14.65,29.97,15.55,27.45,18.73,26.63z"/>
	<path class="st10" d="M91.48,36.09c0.79,4.9-1.62,9.1-2.99,13.53c-1.39-0.53-2.54-1.35-3.18-2.76c1.12-0.69,2.47-1.3,1.19-2.96
		c-1.06-0.4-0.69-1.15-0.46-1.87C87.53,39.75,90.72,39.03,91.48,36.09z"/>
	<path class="st11" d="M171.74,37.73c0.28,4.75-3.01,8.14-4.64,12.16c-1.46-0.72-2.38-1.89-2.91-3.39c3.16-0.47,2.13-2.38,1.44-4.17
		C167.15,40.1,170.61,40.46,171.74,37.73z"/>
	<path class="st12" d="M109.97,35.1c3.13-1.43,2.58-4.23,2.53-6.83c0.84-0.49,1.72-0.19,2.59-0.18c0.91,0.06,1.82,0.12,2.66,0.52
		c1.16,0.77,1.82,1.82,1.77,3.25c-1.92,1.96-4.58,3.07-6.23,5.34c-0.06,0.12-0.09,0.26-0.1,0.39
		C111.87,37.08,110.77,36.28,109.97,35.1z"/>
	<path class="st13" d="M84.29,90.28c0.72,3.86-1.57,6.69-3.47,9.58c-0.45,0.68-0.5,1.31-0.69,1.98c-1.37-0.74-2.36-1.81-2.86-3.31
		c1.09-0.65,3.05-0.81,1.59-2.87c-0.05-0.47-0.1-0.93-0.15-1.4C79.87,91.96,83.19,92.66,84.29,90.28z"/>
	<path class="st14" d="M24.02,38.06c-0.11-1.2,1.13-1.45,1.58-2.27c0.45-0.46,0.98-0.38,1.53-0.26c1.41,0.28,3.03,0.05,3.89,1.63
		c-0.05,2.57-1.05,5.28,1.13,7.51c0.14,0.07,0.3,0.12,0.45,0.15c-2.28,1.13-4.7,0.81-7.1,0.7c-0.23-0.2-0.29-0.37-0.18-0.52
		c0.1-0.14,0.19-0.21,0.28-0.21c1.69-0.19,2.21-1.28,2.17-2.81C27.71,39.56,25.81,38.86,24.02,38.06z"/>
	<path class="st3" d="M86.05,42.03c0.15,0.62,0.3,1.25,0.46,1.87c-7.2,1.24-13.84-1.28-20.55-3.18c-0.32-0.09-0.47-0.79-0.69-1.2
		c3.94-0.99,7.11,1.39,10.59,2.42c1.22,0.5,2.59-0.14,3.8,0.49C81.78,42.31,83.91,42.17,86.05,42.03z"/>
	<path class="st15" d="M92.25,50.01c0.65-4.47,3.58-8.4,3.1-13.15c-0.07-0.69,0.66-0.95,1.3-1.07c2.47,4.75-0.74,8.85-1.59,13.2
		C94.82,50.2,93.47,50.43,92.25,50.01z"/>
	<path class="st16" d="M85.53,101.7c-3.09-1.4-0.39-3.02,0.19-3.92c1.95-2.99,3.04-6.08,2.77-9.64c3.11,0.04,2.51,2.47,2.09,3.98
		C89.62,95.64,88,98.93,85.53,101.7z"/>
	<path class="st17" d="M170.93,50.06c1.35-4.51,4.83-8.21,5.02-13.17c0.01-0.13,0.65-0.24,0.99-0.37
		C178.65,41.04,175.12,49.01,170.93,50.06z"/>
	<path class="st1" d="M44.73,62c0.35,2.22-3.06,4.25-0.33,6.59c-0.13,0.12-0.26,0.23-0.4,0.35c-0.49,0.12-1,0.18-1.48,0.06
		c-2.64-0.68-3.66,0.37-3.4,3c0.07,0.73-0.19,1.48-0.74,2.06c-0.36,0.15-0.71,0.12-1.06-0.07c-1.66-3.2-1.01-6.28,0.46-9.32
		c1.23-1.18,1.71,0.21,2.44,0.71c0.75,0.33,1.06-0.19,1.34-0.73c0.99-1.35-1.16-3.34,0.92-4.46C43.89,60,44.22,61.11,44.73,62z"/>
	<path class="st18" d="M51.71,80.87c0.28-1.12-0.54-2.71,1.35-3.14c1.32,1.74,2.64,3.48,3.97,5.23c0.7,1.85-0.22,2-1.68,1.6
		C53.37,84.07,52.85,82.17,51.71,80.87z"/>
	<path class="st19" d="M113.28,37.21c0.69-3.21,3.38-4.14,5.95-5.19c0.57-0.36,1.35,0.49,1.84-0.32c1.12-0.03,2.29-0.53,3.32,0.33
		c0,0,0.18-0.04,0.18-0.04c-0.03,0.5-0.07,1-0.1,1.5C119.98,32.45,116.7,35.04,113.28,37.21z"/>
	<path class="st20" d="M27.83,34.92c0.58-2.7,3.63-0.32,4.59-2.23c0.99,0.32,1.97,0.63,2.96,0.95c0.49,2.52-2.13,1.79-3.01,2.89
		c-1.39,0.14-2.49-0.87-3.83-0.94C28.23,35.45,27.99,35.22,27.83,34.92z"/>
	<path class="st1" d="M64.71,39.44c-3.87-0.67-7.45-2.85-11.56-2.24c-0.41-0.3-0.77-0.62-0.37-1.17
		C56.93,36.57,61.31,36.3,64.71,39.44z"/>
	<path class="st3" d="M23.29,67.98c-2.36,0.59-4.17,2.83-6.9,2.33c-0.44-0.04-0.88-0.08-1.33-0.13c1.95-1.05,3.92-2.06,5.85-3.15
		C22.17,66.32,23.04,66.31,23.29,67.98z"/>
	<path class="st21" d="M32.98,58.18c0.24,2.03,3.89,1.78,3.03,4.53c-0.7,0.93-1.6,1.45-2.81,1.31c-0.35-0.11-0.65-0.3-0.92-0.55
		c1.21-1.44-0.24-2.89,0.02-4.33C32.53,58.83,32.76,58.5,32.98,58.18z"/>
	<path class="st22" d="M109.49,16.34c-0.52,0.47-1.05,0.94-1.57,1.41c-1.6,0.02-0.98-0.93-0.71-1.68c0.55-1.57,1.72-2.64,3.03-3.58
		c0.48-0.27,0.97-0.54,1.45-0.81c0.12,0.13,0.23,0.26,0.35,0.39C112.32,14.17,110.73,15.15,109.49,16.34z"/>
	<path class="st23" d="M130.46,38.01c-1.06-1.19-2.52-0.42-3.76-0.76c0.46-0.25,0.92-0.5,1.39-0.75c1.96,0.5,4.1-0.32,5.96,0.86
		C133.05,38.66,131.69,37.99,130.46,38.01z"/>
	<path class="st24" d="M111.68,11.68c2.2-0.86,4.22-0.48,6.11,0.85c-0.21,0.28-0.47,0.48-0.78,0.63c-0.97,0.31-1.94,0.58-2.97,0.62
		c-1.22-0.05-1.69-1.02-2.28-1.84L111.68,11.68z"/>
	<path class="st25" d="M52.78,36.03c0.12,0.39,0.25,0.78,0.37,1.17c-0.96,0.26-1.93,0.52-2.89,0.79c-0.27-2.06-2.05-1.1-3.13-1.55
		C48.96,35.55,50.89,36.15,52.78,36.03z"/>
	<path class="st24" d="M110.23,12.49c-0.63,1.81-3.49,2.65-2.31,5.26c-0.51,0.94-1.04,0.69-1.58,0.03
		C106.69,15.31,107.52,13.21,110.23,12.49z"/>
	<path class="st26" d="M44.73,62c-1.03-0.02-1.18-1.16-1.95-1.51c-0.39-0.79,0.2-1.46,0.24-2.2c0.1-0.29,0.27-0.54,0.5-0.75
		c0.26-0.01,0.53-0.03,0.79-0.04C45.45,58.9,44.99,60.46,44.73,62z"/>
	<path class="st3" d="M138.02,45.56c2.88-1.9,4.62-2.04,7.4-0.58C142.9,44.42,140.51,45.58,138.02,45.56z"/>
	<path class="st27" d="M37.54,81.47c2.03,0.33,4.25-0.79,6.09,0.85c0.01,0.19-0.03,0.36-0.14,0.52c-1.99-0.2-3.97-0.4-5.96-0.59
		c-0.24-0.18-0.32-0.35-0.24-0.52C37.37,81.55,37.45,81.47,37.54,81.47z"/>
	<path class="st18" d="M25.6,44.8c-0.03,0.24-0.07,0.48-0.1,0.73c-1.99,0.34-3.4-1.26-5.2-1.55C22.43,41.9,23.85,44.43,25.6,44.8z"
		/>
	<path class="st28" d="M45.72,68.86c-1.08,1.85-0.57,3.89-0.7,5.86c-0.87-0.56-0.72-1.45-0.76-2.29c-1.9-1.22-1.31-2.45,0-3.67
		c0,0,0.13-0.17,0.13-0.17C44.84,68.68,45.28,68.77,45.72,68.86z"/>
	<path class="st29" d="M47.25,89.04c-0.05,0.21-0.08,0.43-0.09,0.65c-0.14,0.34-0.37,0.58-0.71,0.73c-0.47,0.02-0.95,0.03-1.42,0.05
		c-0.74,0.01-1.48,0.02-2.21,0.02c-0.02-0.5-0.04-1-0.07-1.49c0.21-0.1,0.42-0.2,0.63-0.3C44.67,88.81,45.96,88.92,47.25,89.04z"/>
	<path class="st18" d="M151.45,46.98c2.24-1.16,4.48-1.12,6.72-0.03C155.94,47.26,153.7,47.35,151.45,46.98z"/>
	<path class="st8" d="M116.97,12.56c0.27-0.01,0.54-0.02,0.82-0.03c1.27,1.02,0.7,2.43,0.77,3.7c-0.1,0.22-0.15,0.46-0.16,0.7
		c-2.07-0.33-1.54-2.11-1.9-3.4C116.56,13.17,116.72,12.84,116.97,12.56z"/>
	<path class="st3" d="M70.68,98.79c-0.23-0.06-0.5-0.07-0.68-0.2c-0.34-0.26-0.34-0.62,0.14-0.6c1.14,0.03,2.4-0.43,3.34,0.65
		C72.55,98.68,71.62,98.73,70.68,98.79z"/>
	<path class="st1" d="M79.64,42.44c-1.28-0.06-2.64,0.49-3.8-0.49C77.14,41.91,78.46,41.64,79.64,42.44z"/>
	<path class="st1" d="M162.81,42.45c-1.27-0.05-2.6,0.46-3.76-0.45C160.34,41.87,161.64,41.61,162.81,42.45z"/>
	<path class="st3" d="M164.19,45.51c-0.03,0.27-0.06,0.54-0.1,0.82c-0.68,0-1.35,0-2.03,0c-0.23-0.06-0.53-0.05-0.68-0.2
		c-0.35-0.35-0.14-0.58,0.27-0.59C162.5,45.5,163.34,45.51,164.19,45.51z"/>
	<path class="st1" d="M55.34,84.55c0.97-0.11,1.66-0.5,1.68-1.6c0.8,0.42,1.03,1.18,0.53,1.8C56.86,85.62,56.03,85.18,55.34,84.55z"
		/>
	<path class="st30" d="M20.3,37.27c-0.55,0.9-1.48,0.7-2.31,0.78c-0.86-1.19-3.55-1.32-2.2-3.79c0.89-0.53,1.49,0.49,2.3,0.42
		C19.32,35.12,19.58,36.39,20.3,37.27z"/>
	<path class="st24" d="M18.05,35.03c-0.75-0.25-1.51-0.51-2.26-0.76c0.16-1.28,2.38,0.5,2.11-1.42c1.53-0.08,2.3,0.68,2.4,2.18
		C19.55,35.66,18.8,35.56,18.05,35.03z"/>
	<path class="st0" d="M14.91,36.68c0.53,0.69,1.08,1.07,1.07,1.44c-0.02,0.93-0.96,1.02-1.61,1.13c-0.69,0.11-0.78-0.51-0.53-1.01
		C14.09,37.73,14.48,37.3,14.91,36.68z"/>
	<path class="st1" d="M12.11,39.31c0.87,0.49,1.53,0.86,2.28,1.28C13.14,41.28,12.38,41.15,12.11,39.31z"/>
	<path class="st31" d="M32.15,44.67c-3.4-1.89-2.23-4.63-1.35-7.31c0.5-0.46,1-0.56,1.48,0.02C30.81,39.79,31.72,42.24,32.15,44.67z
		"/>
	<path class="st32" d="M32.28,37.38c-0.49-0.01-0.99-0.02-1.48-0.02c-1.28-0.51-2.57-1.01-3.85-1.52c0.35-0.63,1.22-0.27,1.61-0.83
		c1.49-0.04,2.8,0.37,3.82,1.52C32.34,36.81,32.31,37.1,32.28,37.38z"/>
	<path class="st33" d="M111.76,11.94c0.74,0.45,1.47,0.91,2.21,1.36c1.59,1.98-0.09,4.29,0.64,6.36c-0.05,0.37-0.18,0.71-0.38,1.02
		c-0.72,0.59-1.33,0.21-1.94-0.2c-0.98-0.97-0.96-2.52-2.01-3.46c-0.26-0.23-0.53-0.46-0.79-0.69
		C109.33,14.4,111.73,13.78,111.76,11.94z"/>
	<path class="st8" d="M112.48,20.04c0.48,0.25,0.96,0.49,1.44,0.74c0.65,0.97,0.43,2.14,0.75,3.19c0.07,0.69,0,1.35-0.38,1.95
		c-0.25,0.26-0.56,0.39-0.91,0.4c-0.5-0.14-0.94-0.38-1.32-0.73c-0.86-1.19-2.05-1.27-3.35-1.01c-2.09-0.97-2.14-2-0.1-3.09
		C109.91,21.04,111.34,20.92,112.48,20.04z"/>
	<path class="st32" d="M112.48,20.04c-0.39,2.87-2.24,1.87-3.86,1.44c-0.04-0.35-0.08-0.71-0.12-1.06c3.28,0.28,2.18-1.74,1.79-3.39
		C112.15,17.21,111.66,19.1,112.48,20.04z"/>
	<path class="st24" d="M108.71,24.58c1.67-1.94,2.91-1.63,3.77,0.71c-0.75,0.73-1.54,0.23-2.32,0.09
		C109.67,25.11,109.19,24.84,108.71,24.58z"/>
	<path class="st30" d="M110.16,25.37c0.74-1,1.56,0.15,2.32-0.09c0.25,0.25,0.5,0.5,0.75,0.76c0.13,0.72-0.11,1.03-0.86,0.79
		C111.29,26.87,110.27,26.81,110.16,25.37z"/>
	<path class="st34" d="M112.37,26.83c0.29-0.26,0.57-0.53,0.86-0.79c0.25,0,0.49,0,0.74,0c0.25,0.14,0.46,0.33,0.62,0.57
		c0.3,0.5,0.54,1.02,0.56,1.61c-0.04,0.29-0.18,0.53-0.43,0.71c-0.74-0.22-1.48-0.44-2.23-0.66
		C112.45,27.79,112.41,27.31,112.37,26.83z"/>
	<path class="st19" d="M37.54,81.47c0,0.26,0,0.52-0.01,0.78c-1.9,0-3.83,0.15-5.27-1.47C34.17,79.82,35.69,81.89,37.54,81.47z"/>
	<path class="st1" d="M44.27,68.77c-0.13,1.22-1.07,2.45,0,3.67c-1.33-0.04-1.38,1.02-1.7,1.91c-0.7,1.97-2.23,2.68-4.21,2.63
		c-0.14-0.13-0.28-0.26-0.43-0.38c-0.48-0.96-0.37-1.83,0.36-2.63c0-0.48,0-0.97,0-1.45C38.28,67,38.68,66.74,44.27,68.77z"/>
	<path class="st35" d="M38.27,64.24c-0.58,3.21-1.31,6.4-0.67,9.69c-0.25,0.29-0.53,0.3-0.82,0.08l-0.12,0.08
		c-1.56-0.84-1.61-2.49-2.09-3.91c-0.02-0.46-0.03-0.93-0.05-1.39c-0.16-0.19-0.23-0.39-0.2-0.59c0.03-0.21,0.07-0.31,0.11-0.31
		c1.75-0.66,1.45-2.88,2.89-3.78c0.17-0.03,0.33-0.07,0.5-0.1C37.96,64.08,38.11,64.16,38.27,64.24z"/>
	<path class="st36" d="M34.6,67.99c-0.03,0.27-0.07,0.53-0.1,0.8c-1.5,1.16,0.09,3.29-1.4,4.45c0.1-2.26-0.56-4.58,0.65-6.73
		c0.16-0.05,0.32-0.1,0.48-0.15C34.94,66.77,35.14,67.3,34.6,67.99z"/>
	<path class="st8" d="M38.35,76.97c-0.71,1.19-1.14,2.81-3.21,2.04c-0.13-1.38,1.93-1.43,1.71-2.81c0.77-0.39,1,0.35,1.43,0.69
		L38.35,76.97z"/>
	<path class="st36" d="M34.55,70.18c0.7,1.3,1.4,2.6,2.09,3.91C33.78,73.95,34.78,71.74,34.55,70.18z"/>
	<path class="st9" d="M38.28,76.89c-0.48-0.23-0.95-0.46-1.43-0.69c-0.03-0.73-0.06-1.46-0.09-2.19c0.27-0.02,0.55-0.05,0.82-0.08
		c0.23,0.01,0.47,0.02,0.7,0.02C38.29,74.94,38.29,75.91,38.28,76.89z"/>
	<path class="st37" d="M117.75,22.32c1.35-0.07,2.67-0.07,4-0.57c1.96-0.73,2.85,0.88,3.14,2.24c0.37,1.71-1.44,1.37-2.33,1.46
		c-1.83,0.19-3.69,0.03-5.53,0.02c-1.36,0.65-2.38,0.56-2.65-1.2C114.98,22.71,116.35,22.5,117.75,22.32z"/>
	<path class="st3" d="M117.75,22.32c-0.43,1.4-1.59,1.48-2.76,1.56c-0.31,0.3-0.58,0.26-0.8-0.11c-0.91-0.92-0.87-1.93-0.27-2.99
		c0.04-0.24,0.06-0.49,0.07-0.73c0.57-0.53,0.22-1.46,0.86-1.97c1.15-0.84,2.34-1.24,3.63-0.28
		C118.23,19.31,117.99,20.81,117.75,22.32z"/>
	<path class="st38" d="M124.39,32.02c-1.22,0.15-2.43,1.04-3.65,0c-1.2-0.48-1.5-1.61-1.96-2.64c-0.05-0.33-0.03-0.65,0.07-0.98
		c0.23-0.47,0.59-0.78,1.12-0.88C122.74,27.76,125.06,28.42,124.39,32.02z"/>
	<path class="st26" d="M118.48,17.8c-1.25,0.25-2.51,0.49-3.76,0.74c-0.99-3.87-0.55-4.89,2.23-5.17c0.48,1.19,0.97,2.38,1.45,3.57
		C118.42,17.22,118.45,17.51,118.48,17.8z"/>
	<path class="st39" d="M119.97,27.53c-0.24,0.28-0.49,0.55-0.73,0.83c-0.87,0.73-1.67-0.05-2.5-0.12c-1.03-0.29-1.87-0.92-2.75-1.48
		c0.01-0.24,0-0.48-0.02-0.72c0.07-0.76,0.14-1.52,0.22-2.27c0.27,0.04,0.54,0.07,0.8,0.11c-0.26,1.75,1.19,1.3,2.05,1.6
		C117.5,26.89,119.26,26.46,119.97,27.53z"/>
	<path class="st18" d="M128.65,26.01c-0.12,0.65-0.58,0.7-1.07,0.65c-0.64-0.08-1.13-0.45-1.29-1.05c-0.15-0.58,0.3-0.94,0.8-0.77
		C127.71,25.04,128.52,25.15,128.65,26.01z"/>
	<path class="st26" d="M152.95,42.51c0.86-0.98,1.87-0.88,3.1-0.43C155,42.87,153.92,42.34,152.95,42.51
		C152.95,42.51,152.95,42.51,152.95,42.51z"/>
	<path class="st1" d="M32.29,63.47c0.24,0,0.48,0,0.72,0.02c0.82,0.86,1.76,1.69,0.8,3.03c0,0-0.04,0-0.04,0
		c-1.03-0.13-2.21,0.31-2.99-0.78C31.24,64.95,32.41,64.64,32.29,63.47z"/>
	<path class="st40" d="M27.78,66.47c-0.5,0-1,0-1.5,0c-0.31-0.24-0.77-0.33-0.83-0.82c0.72-0.76,1.6-0.9,2.48-0.41
		C28.07,65.32,27.84,66.05,27.78,66.47z"/>
	<path class="st41" d="M25.45,65.65c0.28,0.27,0.55,0.55,0.83,0.82c-0.26,0.23-0.51,0.45-0.77,0.68c-0.4-0.17-1.08-0.28-1.15-0.54
		C24.16,65.79,24.93,65.8,25.45,65.65z"/>
	<path class="st42" d="M46.45,90.42c0.24-0.24,0.48-0.48,0.71-0.73c1.28,0.18,2.63-0.31,4.57,0.73
		C49.5,90.42,47.97,90.42,46.45,90.42z"/>
	<path class="st32" d="M33.81,66.51c-0.27-1.01-0.53-2.02-0.8-3.03c1-0.26,2-0.51,3-0.77c1.38,0.39,0.55-1.46,1.52-1.49
		c0.13,0.13,0.26,0.27,0.39,0.4c0.45,0.94,0.34,1.79-0.36,2.57c-0.56,0.98-0.73,2.05-0.83,3.18c-0.16,1.78-1.25,0.97-2.13,0.62
		C34.34,67.5,34.07,67,33.81,66.51z"/>
	<path class="st9" d="M37.53,61.22c0.76-1.46,1.33-3.08,3.1-3.69c0.38,0.4,0.43,0.88,0.36,1.4c-0.06,0.34-0.17,0.66-0.29,0.98
		c-0.64,1.36-1.37,2.52-3.12,1.39L37.53,61.22z"/>
	<path class="st1" d="M40.49,58.96c0.05-0.48,0.09-0.96,0.14-1.43c0.96-0.73,1.92-0.13,2.88,0c0,0.24,0,0.47,0,0.71
		C42.64,59.07,41.7,59.59,40.49,58.96z"/>
	<path class="st24" d="M22.58,34.25c-2.55-1.9-2.39-4.65-2.28-7.37C21.06,29.34,21.82,31.8,22.58,34.25z"/>
	<path class="st24" d="M28.55,35.01c-0.33,0.67-0.97,0.75-1.61,0.83c-0.45-0.02-0.9-0.03-1.34-0.05c-1.17-0.2-2.83,0.55-3.02-1.55
		c1.64,1.11,3.46,0.77,5.25,0.68C28.07,34.96,28.31,34.99,28.55,35.01z"/>
	<path class="st43" d="M18.05,35.03c0.75,0,1.5-0.01,2.25-0.01c0,0.75,0,1.5,0,2.25C19.29,36.78,18.54,36.04,18.05,35.03z"/>
	<path class="st33" d="M119.21,29.05c0.51,0.99,1.02,1.99,1.52,2.98c-0.51,0.84-1.01,0.07-1.51-0.02c-0.53-0.99-1.05-1.97-1.58-2.95
		C118.17,28.6,118.69,28.57,119.21,29.05z"/>
	<path class="st44" d="M119.21,29.05c-0.52,0-1.04,0-1.56,0.01c-0.98-0.04-1.95-0.08-2.93-0.13c0-0.22,0.01-0.44,0.02-0.65
		c0.53-0.88,1.56-0.24,2.22-0.72c0.76,0.27,1.52,0.53,2.28,0.8C119.24,28.59,119.23,28.82,119.21,29.05z"/>
	<path class="st1" d="M40.49,58.96c0.96-0.44,1.93-0.85,3.02-0.72c0.9,1.12-0.3,1.56-0.73,2.25c-0.85,0.65-0.9,1.33-0.17,2.13
		c0.96,1.05,0.14,1.71-0.59,2.37c-0.56,0.8-1.56,0.92-2.26,1.5c-0.5-0.75-1-1.5-1.5-2.24c0,0,0,0.01,0,0.01
		c-0.5-0.8-0.57-2.19,0.14-2.19c2.49-0.03,1.57-1.98,2.09-3.1L40.49,58.96z"/>
	<path class="st45" d="M39.76,66.48c0.09-1.51,1.16-1.52,2.26-1.5C42.19,66.87,41.5,67.46,39.76,66.48z"/>
	<path class="st32" d="M116.94,13.36c-3.51,0.53-1.8,3.31-2.23,5.17c-0.03,0.61-0.14,1.18-0.74,1.51c-1.21-2.25,0.12-4.5,0-6.74
		c0.93-0.51,1.9-0.87,3-0.74C116.96,12.83,116.95,13.1,116.94,13.36z"/>
	<path class="st24" d="M116.96,27.56c-0.54,0.86-1.41,0.69-2.22,0.72c-0.25-0.51-0.5-1.01-0.75-1.52
		C114.98,27.02,115.97,27.29,116.96,27.56z"/>
	<path class="st1" d="M40.5,58.96c0.29,1.66,1.59,3.82-1.84,3.64c-0.1-0.01-0.26,1.08-0.39,1.65c-0.24-0.01-0.47-0.03-0.71-0.06
		c0.01-0.97,0.02-1.93,0.02-2.89C39.51,61.71,39.59,59.82,40.5,58.96z"/>
</g>
</svg>
