<?xml version="1.0" encoding="utf-8"?>
<!-- Generator: Adobe Illustrator 24.2.1, SVG Export Plug-In . SVG Version: 6.00 Build 0)  -->
<svg version="1.1" id="Calque_1" xmlns="http://www.w3.org/2000/svg" xmlns:xlink="http://www.w3.org/1999/xlink" x="0px" y="0px"
	 viewBox="0 0 130.5 104.25" style="enable-background:new 0 0 130.5 104.25;" xml:space="preserve">
<style type="text/css">
	.st0{fill:#FEFEFE;}
	.st1{fill:#FFDDC7;}
	.st2{fill:#FFDCC5;}
	.st3{fill:#FFDDC6;}
	.st4{fill:#FFC7A2;}
	.st5{fill:#FFDCC4;}
	.st6{fill:#4F9A78;}
	.st7{fill:#74C5A0;}
	.st8{fill:#4B9875;}
	.st9{fill:#469470;}
	.st10{fill:#FFD4B8;}
	.st11{fill:#FFDFCA;}
	.st12{fill:#76C6A1;}
	.st13{fill:#FFD5B9;}
	.st14{fill:#FFC9A5;}
	.st15{fill:#FFC9A4;}
	.st16{fill:#4D9976;}
	.st17{fill:#FFCEAD;}
	.st18{fill:#FFDFC9;}
	.st19{fill:#FFD3B6;}
	.st20{fill:#FFD1B3;}
	.st21{fill:#FFD2B5;}
	.st22{fill:#FFCAA6;}
	.st23{fill:#FFD1B1;}
	.st24{fill:#FFDAC1;}
	.st25{fill:#FFD6BB;}
	.st26{fill:#FFD6BA;}
	.st27{fill:#44936F;}
	.st28{fill:#FFCCA9;}
	.st29{fill:#FFD2B4;}
	.st30{fill:#FFD4B7;}
	.st31{fill:#FFC8A3;}
	.st32{fill:#FFCDAB;}
	.st33{fill:#FFCEAC;}
	.st34{fill:#FFD9C0;}
	.st35{fill:#FFCFAE;}
	.st36{fill:#FFCCAA;}
	.st37{fill:#FFE2CE;}
	.st38{fill:#FFCBA7;}
	.st39{fill:#FFCBA8;}
	.st40{fill:#84CCAA;}
	.st41{fill:#FFDBC3;}
	.st42{fill:#ECE6E9;}
	.st43{fill:#FFD0B0;}
	.st44{fill:#FFD7BD;}
	.st45{fill:#519B79;}
	.st46{fill:#40916C;}
	.st47{fill:#FFC299;}
	.st48{fill:#65BF95;}
	.st49{fill:#FFF8F3;}
	.st50{fill:#FFC69F;}
	.st51{fill:#FFDAC2;}
	.st52{fill:#7EC9A6;}
	.st53{fill:#FFE0CB;}
	.st54{fill:#FBFAFB;}
	.st55{fill:#FFC6A0;}
	.st56{fill:#79C7A3;}
	.st57{fill:#FFC59E;}
	.st58{fill:#FFC7A1;}
	.st59{fill:#FFC49D;}
	.st60{fill:#7CC9A5;}
	.st61{fill:#FFCFAF;}
	.st62{fill:#FFF3EC;}
</style>
<g>
	<path class="st0" d="M65.25,104.19c-20.85,0-41.71-0.04-62.56,0.06c-2.24,0.01-2.69-0.45-2.69-2.69C0.09,68.6,0.09,35.64,0,2.68
		C-0.01,0.45,0.45,0,2.69,0C44.39,0.08,86.1,0.08,127.81,0c2.23,0,2.69,0.45,2.69,2.68c-0.09,32.96-0.09,65.92,0,98.88
		c0.01,2.23-0.45,2.7-2.69,2.69C106.96,104.14,86.1,104.19,65.25,104.19z"/>
	<path class="st1" d="M79.3,63.41c4.9,0.6,9.24,2.68,13.41,5.16c2.53,1.5,3.11,3.65,2.08,6.39c-1.66,4.42-3.22,8.87-4.82,13.31
		c-0.19,1.47-0.8,2.69-2.4,2.87c-1.42,0.17-2-0.71-1.93-2.07c0.92-4.47,1.13-9.11,3.26-13.29c0.77-1.51-0.07-2.31-1.44-2.79
		c-0.92-0.32-2.02-0.13-2.75-0.98c-0.87-0.88-1.96-0.15-2.93-0.4c-1.33-0.58-2.17-1.66-2.91-2.85c-0.92-1.56-0.67-3.22-0.4-4.88
		C78.68,63.6,78.95,63.44,79.3,63.41z"/>
	<path class="st1" d="M70.52,73.39c-1.92-0.23-3.77-0.64-5.31-1.93c-0.2-2.25,0.85-3.76,2.82-4.71c1.28-0.51,2.58-0.91,3.97-0.95
		c0.98-0.03,1.94,0.05,2.84,0.47c2.51,1.9,5.53,3.19,7.23,6.06c-0.03,0.94,0.21,1.91-0.29,2.81c-2.2,5.06-4.9,9.92-6.05,15.39
		c-0.37,1.06-1.02,1.95-2.01,2.41c-1.48,0.68-2.33,0.36-1.74-1.5c0.09-5.35,0.62-10.55,3.68-15.24c1.97-3.01-1.9-1.43-2.34-2.63
		C72.44,72.73,71.48,73.04,70.52,73.39z"/>
	<path class="st1" d="M18.82,71.05c-0.53,1.55-1.06,3.11-1.58,4.66c-0.72,0.71-0.69,1.62-0.69,2.53c0.19,1.98-0.33,3.91-0.38,5.87
		c0,2.09,0,4.19,0.02,6.28c-0.54,1.11-1.46,1.44-2.61,1.25c-0.76-1.07-0.1-2.37-0.56-3.49c-0.21-0.74-0.3-1.51-0.55-2.24
		c-0.02-1.33,0-2.66-0.38-3.96c-0.01-0.79-0.25-1.54-0.38-2.31c0.14-1.58-0.37-3.21,0.33-4.75c-0.43-2.23,1.77-3.74,1.62-5.9
		c0.98-1.75,0.96-3.5,0.01-5.26c-0.06-0.41-0.12-0.82-0.18-1.22c0-0.16-0.01-0.33-0.01-0.49c0.02-0.68,0.29-1.29,0.56-1.9
		c1.6-1.7,0.49-4.56,2.59-6.05c2.28-0.44,4.54-0.77,6.69,0.49c0.4,0.62,0.41,1.21-0.12,1.76c-0.64,0.22-0.71,0.75-0.71,1.31
		c-0.04,0.31-0.21,0.44-0.51,0.4c-0.67,0.85,0.02,1.69,0.01,2.54c0.12,0.33,0.09,0.64-0.09,0.94c-0.29,0.74-0.58,1.49-0.88,2.23
		c-0.59,1.24-1.01,2.53-1.33,3.86C18.66,68.56,19.6,70.02,18.82,71.05z"/>
	<path class="st1" d="M24.15,60.79c-0.03-0.51-0.06-1.03-0.08-1.54c0.11-4.37,0.11-4.37,6-5.02c2.81,0.39,2.63,2.34,2.27,4.37
		c-0.73,3.18-1.46,6.36-1.6,9.64c-0.33,0.49-0.51,1.04-0.63,1.61c-0.16,3.16-0.01,6.32-0.08,9.49c-0.99,3.46,0.45,6.78,0.61,10.17
		c-0.62,2.03-1.72,2.21-3.23,0.84c-0.69-1.55-0.06-3.27-0.6-4.83c-0.15-1.54-0.06-3.12-0.76-4.57c-0.14-1.5-0.05-3.03-0.73-4.44
		c-0.2-0.91-0.12-1.83-0.09-2.75c0.55-1.93,0.37-3.88,0.21-5.84c-0.11-0.34-0.19-0.68-0.23-1.04C24.96,64.83,25.81,62.6,24.15,60.79
		z"/>
	<path class="st2" d="M72.41,66.49c-1.45,0.3-2.91,0.61-4.36,0.91c0.03-1.1,1.81-2.7-1-2.96c-1.24-0.12-2.33-0.87-2.5-2.36
		c1.44-2.45,4.53-3.26,5.82-5.86c0.42-0.28,0.6-0.8,1.05-1.05c1.27-0.41,2.2,0.55,3.3,0.82c0.64,0.15,1.29,0.29,1.93,0.46
		c1.13,0.37,2.31,0.39,3.48,0.39c0.71,0.01,1.41,0.05,2.09,0.27c0.33,0.15,0.62,0.36,0.85,0.64c-0.49,2.4-3.36,3.21-3.77,5.67
		c-0.14,0.19-0.32,0.32-0.55,0.39c-0.25,0.46-0.5,0.92-0.99,1.17C76.08,65.82,74.08,65.58,72.41,66.49z"/>
	<path class="st1" d="M70.52,46.51c-0.36-4.07,2.64-3.64,5.16-3.85c1.21,0.64,1.43,2.17,2.57,2.87c0.27,0.15,0.53,0.32,0.8,0.46
		c0.86,0.42,1.79,0.42,2.71,0.48c0.32,0.02,0.64,0.07,0.95,0.14c0.94,0.26,1.87,0.56,2.81,0.86c1.09,0.37,2.17,0.83,3.36,0.7
		c2.21-0.54,4.34,0.05,6.49,0.47c1.12,0.39,2.32,0.71,2.07,2.32c-2.68,1.48-5.39,2.33-8.28,0.48c-0.71-0.45-1.41-0.09-2.06,0.3
		c-1.42,0.13-2.61,1.26-4.13,0.93c-1.19-0.65-2.5-0.77-3.82-0.84c-1.47-0.3-2.9-0.34-4.34,0.2c-1.19,0.44-2.41,0.59-3.33-0.62
		C70.47,49.91,71.32,48.05,70.52,46.51z"/>
	<path class="st3" d="M12.78,21.67c0.68-1.28,1.09-2.84,2.99-2.83c0.58,0.05,1.01,0.36,1.35,0.81c1.14,2.36,3.23,4.54,1.43,7.47
		c-0.48,0.75-1.09,1.39-1.63,2.1c-1.48,1.83-0.73,4-0.91,6.02c-0.01,1.42-0.05,2.83,0.24,4.24c0.05,0.36,0.05,0.72,0.02,1.08
		c-0.25,1.25-0.35,2.52-0.65,3.76c-0.37,1.08-0.41,2.27-1.1,3.25c-0.8,0.78-1.64,1.23-2.68,0.39c-0.28-1.02-0.11-2.07-0.15-3.1
		c0-1.88-0.01-3.75,0.01-5.63c0.54-3.25,0.49-6.52,0.15-9.79c-0.21-0.8-0.19-1.61-0.04-2.42C12.23,25.25,11.94,23.35,12.78,21.67z"
		/>
	<path class="st4" d="M75.71,31.54c2.67-4.78,7.02-5.37,11.37-1.54c-3.83,1.44-3.53,5.2-4.6,8.19c-1.13,0.8-0.9,2.22-1.49,3.27
		c-0.32,0.15-0.66,0.2-1.01,0.17c-1.35-0.62-2.41-1.66-3.58-2.53C74.86,36.7,75,34.15,75.71,31.54z"/>
	<path class="st2" d="M81.74,38.27c0.49-1,0.84-2.05,0.69-3.18c-0.45-3.54,1.16-5.17,4.65-5.08c0.95,0.78,1.37,1.79,1.26,3.02
		c-0.41,0.77-0.68,1.53,0.03,2.28c0.16,0.82,0.3,1.64-0.47,2.27c-0.66,0.36-0.97,0.8-0.33,1.45c-0.43,0.5-0.87,0.99-1.3,1.49
		c-1.05,0.69-0.68,1.45-0.12,2.23c0.38,0.92,0.77,1.84,0.34,2.85c-0.6,0.67-1.21,0.3-1.83,0.04c-0.58-0.32-1.14-0.68-1.63-1.12
		c-0.64-0.74-1.21-1.53-1.61-2.42c-0.06-0.33-0.04-0.64,0.07-0.96C81.96,40.21,81.2,39.18,81.74,38.27z"/>
	<path class="st5" d="M28.4,14.31c-0.27,0.49-0.55,0.98-0.82,1.47c-0.67,0.61-1.49,0.84-2.36,0.92c-1.31-0.11-1.92,0.97-2.77,1.65
		c-0.53,0.19-1.04,0.13-1.51-0.18c-0.72-1.09-0.23-2.15,0.03-3.23c0.1-0.36,0.23-0.71,0.38-1.05c0.82-1.53,1-3.19,1.05-4.89
		c0.04-1.51,0.53-2.83,1.78-3.79c0.43-0.31,0.91-0.48,1.43-0.53c0.84-0.12,1.47,0.54,2.27,0.59c0.93,0.8,1.38,1.79,1.26,3.03
		c-0.39,0.77-0.66,1.53,0.05,2.28c0.15,0.82,0.3,1.63-0.44,2.28C28.06,13.21,27.76,13.64,28.4,14.31z"/>
	<path class="st6" d="M27.72,90.05c1.31,1.23,2.13,1.08,2.31-0.83c0.3-0.29,0.37-0.8,0.86-0.91c2.64,0.91,3.78,3.76,6.43,4.84
		c1.39,0.57,0.23,1.74-0.79,1.95c-3.49,0.71-6.98-0.26-10.25-1.03c-1.52-0.36-0.46-3.23,0.17-4.93
		C27.25,88.92,27.44,89.55,27.72,90.05z"/>
	<path class="st7" d="M32.9,27.73c0.01,1,0.01,2.01,0.02,3.01c-0.22,0.44-0.39,0.91-0.71,1.3c-0.55,0.48-1.17,0.66-1.88,0.47
		c-2.46-1.35-4.93-0.45-7.4,0c-1.02-0.47-1.12-1.37-1.1-2.33c0.16-1.11,0.47-2.19,0.85-3.25c0.24-0.51,0.61-0.9,1.11-1.16
		c1.55-0.61,3.4-0.15,4.78-1.37c0.63-0.5,1.1-1.24,2-1.32c0.67,0.22,0.97,0.78,1.29,1.33c0.31,0.52,0.42,1.12,0.62,1.68
		C32.71,26.61,32.54,27.24,32.9,27.73z"/>
	<path class="st8" d="M85.65,89.08c2.27,4.16,2.95-0.21,4.33-0.81c2.11,1.28,3.16,3.89,5.76,4.58c0.46,0.12,0.89,0.51,0.76,1.12
		c-0.15,0.69-0.7,1.01-1.32,1.13c-3.51,0.7-6.97-0.36-10.27-1.06C83.65,93.78,84.19,90.64,85.65,89.08z"/>
	<path class="st8" d="M71.99,91.43c0.26,0.81,0.47,1.94,1.42,0.47c0.57-0.89,1.41-1.17,2.33-1.37c0.92,2.24,2.18,4.28,3.69,6.17
		c-0.99,1.06-2.53,1.08-3.63,1.93C70.56,97.48,69.32,95.13,71.99,91.43z"/>
	<path class="st9" d="M64.55,62.08c0.94,0.76,1.81,1.56,3.13,1.73c1.06,0.14,2.09,0.57,3.15,0.88c-0.26,1.68-2.28,1.41-2.78,2.71
		c-1.81,0.75-1.71,2.83-2.84,4.06C62.29,68.36,62.13,66.04,64.55,62.08z"/>
	<path class="st10" d="M12.07,47.99c0.71-0.25,1.43-0.51,2.14-0.76c0.52,0.35,0.77,0.86,0.94,1.44c0.32,1.68,0.95,3.33,0.57,5.09
		c-0.86,1.61-1.28,3.43-2.4,4.91c-0.39,0.42-0.86,0.69-1.43,0.79c-1.03-3.54-0.3-7.16-0.45-10.73
		C11.55,48.38,11.75,48.14,12.07,47.99z"/>
	<path class="st9" d="M17.27,91.22c0.13,1.28,0.82,2.31,1.52,3.34c-0.56,1.9,1.43,1.37,2.05,2.15c0.06,0.16,0.13,0.31,0.17,0.48
		c0.02,0.08-0.04,0.17-0.06,0.26c-2.21,1.93-4.37,1.05-6.41-0.25c-1.81-1.16-2.71-2.81-1.78-5.02l-0.05-0.22
		c0.27-0.11,0.55-0.12,0.84-0.05c0.95,0.1,1.51-0.87,2.43-0.87C16.44,90.86,16.87,90.97,17.27,91.22z"/>
	<path class="st11" d="M96.75,44.16c8.59-0.32,16.92,2.1,25.45,2.41c0.2,0.15,0.27,0.31,0.22,0.48c-0.06,0.17-0.12,0.25-0.18,0.25
		l-0.05-0.05c-3.01,1.79-6.02-0.04-9.03,0c-4.2-0.09-8.38-0.53-12.58-0.52c-1.38,0-2.71-0.29-3.74-1.34
		C96.53,45.01,96.5,44.59,96.75,44.16z"/>
	<path class="st12" d="M83.27,52.5c1.23-0.53,2.19-2.4,3.85-0.77c1.26,3.75-2.04,4.45-4.04,6.01c-0.21-0.03-0.43-0.03-0.65-0.03
		C79.99,55.54,81.12,53.94,83.27,52.5z"/>
	<path class="st13" d="M75.71,31.54c0.35,2.53-0.77,5.35,1.49,7.5c1.31,1.47,1.33,3.35,1.63,5.14c0.03,0.87-0.23,1.63-0.8,2.29
		c-1.63-0.74-2.03-2.25-2.35-3.8c1.16-1.6,0.16-3.08-0.36-4.5C74.47,35.86,74.23,33.67,75.71,31.54z"/>
	<path class="st14" d="M32.33,58.6c-1.21-0.99,0.17-3.53-2.27-3.79c-0.05-0.16-0.11-0.32-0.16-0.49c0.55-1.14,1.6-1.02,2.59-1.03
		c1.16,0.1,1.31-0.98,1.86-1.6c0.29-0.2,0.56-0.17,0.81,0.07C36.59,55.03,34.78,56.95,32.33,58.6z"/>
	<path class="st15" d="M17.97,15.94c-2.59-2.92-2.87-6.21-0.86-10.04c0.37,0.19,0.63,0.47,0.79,0.85c0.64,2.49,0.2,5.1,0.8,7.61
		C18.67,14.98,18.49,15.54,17.97,15.94z"/>
	<path class="st16" d="M12.75,92.16c0.45,4.7,3.33,6.55,8.19,5.27c-2.2,2.77-4.54,1.45-6.81,0.16
		C11.85,96.3,11.26,94.47,12.75,92.16z"/>
	<path class="st17" d="M16.55,19.52c-0.26-0.23-0.52-0.45-0.78-0.68c0.7-0.53,1.41-1.07,2.11-1.6c0.29-0.23,0.63-0.33,1-0.3
		c1.19,0.29,1.78,1.18,2.22,2.22c0.46,1.46,0.01,2.46-1.51,2.88C17.97,21.94,17.65,20.26,16.55,19.52z"/>
	<path class="st18" d="M96.75,44.16c-0.01,0.28-0.02,0.56-0.03,0.85c-3.17-0.15-6.32-0.44-9.42-1.16c-0.35-0.16-0.66-0.38-0.94-0.65
		c-0.3-0.31-0.35-0.65-0.14-1.03C89.82,42.37,93.56,41.8,96.75,44.16z"/>
	<path class="st18" d="M97.45,50.95c-0.43-0.98-1.2-1.45-2.26-1.47c-0.4-1.02-0.63-2.01,0.5-2.76c1.09-0.4,2.16-0.39,3.2,0.16
		c0.69,0.47,0.86,1.2,0.96,1.96C99.26,49.79,98.63,50.68,97.45,50.95z"/>
	<path class="st19" d="M30.06,54.81c-0.3,0.19-0.64,0.6-0.91,0.55c-3.12-0.54-4.5,1.14-5.08,3.88c-0.79-0.83-0.81-1.89-0.88-2.93
		c0.02-0.4,0.05-0.79,0.08-1.19c2.08-2.3,4.4-1.72,6.77-0.57L30.06,54.81z"/>
	<path class="st20" d="M30.03,68.96c0.23-0.24,0.47-0.48,0.7-0.72c0.02,4.31,0.5,8.65-0.6,12.91c-0.6-0.54-0.42-1.26-0.46-1.94
		C29.87,75.8,29.25,72.36,30.03,68.96z"/>
	<path class="st21" d="M12.07,29.26c1.25,3.25,1.05,6.5-0.02,9.75c-0.21,0.33-0.43,0.35-0.64,0c0.03-0.53,0.06-1.06,0.09-1.59
		c0.29-1.69,0.3-3.37,0-5.06c-0.02-0.79-0.04-1.58-0.06-2.37C11.55,29.67,11.75,29.42,12.07,29.26z"/>
	<path class="st22" d="M18.79,17.3c-0.3-0.02-0.6-0.04-0.9-0.06c0.03-0.43,0.06-0.87,0.09-1.3c0.03-0.56,0.06-1.12,0.08-1.67
		c0.56-0.82-0.28-3.06,2.08-2.05c0.62,0.45,1.06,1.07,1.5,1.69c0.06,0.13,0.12,0.27,0.18,0.41c0,0.25-0.01,0.49-0.04,0.74
		C20.82,15.85,20.18,17.08,18.79,17.3z"/>
	<path class="st23" d="M29.95,79.46c0.06,0.57,0.12,1.13,0.18,1.7c0.26,2.39,0.51,4.77,0.77,7.16c-0.29,0.3-0.57,0.61-0.86,0.91
		c-0.48-3.23-0.94-6.47-0.73-9.75C29.51,79.12,29.73,79.14,29.95,79.46z"/>
	<path class="st15" d="M27.87,5.28c-0.52,0.8-1.06,0.18-1.59,0.02c-2.02-1.1-4.44,0.05-6.45-1.14c-0.12-0.14-0.24-0.29-0.36-0.43
		C22.67,2.13,25.43,2.84,27.87,5.28z"/>
	<path class="st18" d="M113.19,46.55c3.01,0.05,5.94,1.14,9,0.7c-0.17,0.28-0.35,0.56-0.52,0.84c-2.12,0.4-4.23,0.49-6.34-0.04
		l-0.32,0l-0.31-0.09c-0.45-0.48-1.18-0.24-1.67-0.62C112.89,47.04,112.94,46.78,113.19,46.55z"/>
	<path class="st24" d="M70.52,46.51c1.29,1.25,0.35,3.22,1.46,4.52c-0.28,1.44,0.67,3.07-0.69,4.33c-0.31,0.28-0.62,0.57-0.93,0.85
		C70.42,52.98,70.47,49.75,70.52,46.51z"/>
	<path class="st25" d="M24.81,15.8c0.92-0.01,1.85-0.02,2.77-0.02c-2.07,2.7,1.07,2.05,1.87,2.91c-0.25,0.36-0.57,0.61-0.98,0.75
		c-1.07,0.3-2.1,0.22-3.08-0.32C24.28,18.17,23.82,17.11,24.81,15.8z"/>
	<path class="st24" d="M31.51,24.84c-0.27-0.5-0.53-1.01-0.8-1.51c-1.22-0.64-1.52-1.72-1.45-2.98c0.08-0.61,0.38-1.1,0.78-1.55
		c1.58-0.26,1.62,1.25,2.31,2.01c-0.01,0.18-0.03,0.35-0.04,0.53C32.12,22.53,32.66,23.88,31.51,24.84z"/>
	<path class="st26" d="M13.66,63.73c2.24,1.76,2.24,3.51-0.01,5.26C13.65,67.23,13.66,65.48,13.66,63.73z"/>
	<path class="st17" d="M25.55,73.49c0,0.99-0.01,1.98-0.01,2.98c0.42,0.76-0.02,0.81-0.6,0.72c-0.01-3.24-0.02-6.48-0.03-9.72
		c0.21-0.32,0.43-0.33,0.63,0.01l0.01-0.01C26.11,69.48,26.12,71.48,25.55,73.49z"/>
	<path class="st27" d="M75.79,98.62c0.35-2.27,2.11-1.88,3.63-1.93C79.47,99.72,77.37,98.69,75.79,98.62z"/>
	<path class="st28" d="M33.76,43.51c0.03,1.44,0.07,2.88,0.1,4.32c0.26,0.96,0.76,1.97-0.57,2.58c-1.76-1.2-1.83-2.97-1.66-4.84
		c0.18-0.78,0.52-1.48,1.09-2.05C33.06,43.25,33.41,43.25,33.76,43.51z"/>
	<path class="st4" d="M17.27,91.22c-0.48,0-0.96-0.01-1.44-0.01c-0.3-0.1-0.41-0.22-0.32-0.36c0.09-0.15,0.18-0.22,0.27-0.22
		c0.02-2.22,0.05-4.43,0.07-6.65c0.22-0.35,0.44-0.37,0.68-0.02C16.82,86.38,16.25,88.88,17.27,91.22z"/>
	<path class="st18" d="M110.37,48.1c-2.82,0.99-5.64,1.12-8.46,0.02c0.14-0.16,0.28-0.33,0.43-0.49c2.3-1,4.66-0.77,7.03-0.32
		C109.78,47.46,110.12,47.73,110.37,48.1z"/>
	<path class="st26" d="M15.84,77.26c-0.02-0.96,0.43-1.49,1.4-1.55c-0.05,2.32,0.4,4.68-0.58,6.93
		C15.5,80.98,16.79,78.94,15.84,77.26z"/>
	<path class="st28" d="M25.54,67.48c-0.21,0-0.42,0-0.63-0.01c-0.25-2.23-0.5-4.46-0.75-6.69C27.07,62.51,24.88,65.29,25.54,67.48z"
		/>
	<path class="st29" d="M12.78,21.67c-0.22,1.79,0.68,3.73-0.71,5.37c-0.31-0.15-0.51-0.39-0.59-0.73
		C11.36,24.61,11.33,22.93,12.78,21.67z"/>
	<path class="st30" d="M27.72,90.05c-0.42-0.3-0.85-0.61-1.27-0.91c-0.01-1.24-0.02-2.47-0.03-3.7c0.22-0.35,0.44-0.32,0.63,0.02
		C28.34,86.84,27.63,88.5,27.72,90.05z"/>
	<path class="st31" d="M33.76,43.51c-0.23,0-0.45-0.01-0.68-0.01c-1.73-2.21-1.23-4.61-0.57-7.01c0.24-0.45,0.61-0.6,1.1-0.45
		C34.08,38.52,33.92,41.01,33.76,43.51z"/>
	<path class="st20" d="M33.16,50.26c0.75-0.66,0.52-1.6,0.7-2.42c0.44,1.31,0.87,2.62,1.31,3.94c-0.21,0-0.42-0.01-0.63-0.02
		c-0.67,0.34-0.19,2.4-1.86,1.25C32.23,51.98,32.17,51.02,33.16,50.26z"/>
	<path class="st32" d="M15.84,77.26c1.4,1.62,0.25,3.63,0.82,5.38c-0.04,0.44-0.08,0.88-0.13,1.33c-0.23,0-0.45,0.01-0.68,0.02
		C15.85,81.74,15.84,79.5,15.84,77.26z"/>
	<path class="st33" d="M32.9,27.73c-0.21-0.46-0.43-0.92-0.64-1.38c-0.53-1.74-0.55-3.48,0.01-5.22c0,0,0.08-0.31,0.08-0.31
		C33.75,23.02,32.86,25.41,32.9,27.73z"/>
	<path class="st14" d="M12.03,74.89c0.02,1.78,0.03,3.55,0.05,5.33c0.32,0.71-0.03,0.81-0.63,0.69
		C11.52,78.89,10.56,76.77,12.03,74.89z"/>
	<path class="st32" d="M33.62,36.03c0,0-0.26,0-0.26,0l-0.26-0.01c-2.81-1.03-1.52-2.83-0.85-4.52c0.22-0.26,0.44-0.51,0.66-0.77
		C33.15,32.51,33.38,34.27,33.62,36.03z"/>
	<path class="st34" d="M81.78,75.13c-0.02-1.05-0.03-2.1-0.05-3.15c-0.23-0.18-0.31-0.35-0.22-0.52c0.08-0.17,0.16-0.25,0.24-0.25
		c1.03,0.13,2.23-0.35,2.98,0.8C82.11,71.51,82.94,74.26,81.78,75.13z"/>
	<path class="st35" d="M11.41,39.01c0.21,0,0.42,0,0.64,0c-0.01,2-0.01,4-0.02,6c-0.23,0.34-0.45,0.32-0.67-0.01
		C11,43.01,11.05,41.01,11.41,39.01z"/>
	<path class="st11" d="M115.32,48.06c2.11,0.01,4.23,0.03,6.34,0.04C119.55,49.2,117.43,49.32,115.32,48.06z"/>
	<path class="st17" d="M24.94,77.19c0.2-0.24,0.4-0.48,0.6-0.72c1.34,1.32,0.55,2.99,0.75,4.5c0.38,0.71-0.02,0.78-0.59,0.71
		C25.44,80.19,25.19,78.69,24.94,77.19z"/>
	<path class="st20" d="M19.54,67.46c-0.06-1.46,0.31-2.75,1.48-3.72c0.13,1.75-0.45,3.3-1.32,4.78
		C19.24,68.22,19.19,67.87,19.54,67.46z"/>
	<path class="st36" d="M25.7,81.69c0.2-0.24,0.39-0.48,0.59-0.71c1.35,1.31,0.53,2.99,0.77,4.49c-0.21-0.01-0.42-0.02-0.63-0.02
		C26.18,84.19,25.94,82.94,25.7,81.69z"/>
	<path class="st3" d="M11.5,32.36c0.84,1.69,0.86,3.37,0,5.06C11.5,35.73,11.5,34.05,11.5,32.36z"/>
	<path class="st37" d="M122.23,47.3c-0.04-0.24-0.05-0.49-0.04-0.73c0.56-0.92,1.44-0.75,2.3-0.71c0.34,0.18,0.78,0.25,0.84,0.74
		C124.48,47.62,123.3,47.22,122.23,47.3z"/>
	<path class="st16" d="M20.84,96.7c-1.55,0.11-2.89,0.03-2.05-2.15C19.76,95,20.41,95.74,20.84,96.7z"/>
	<path class="st24" d="M110.37,48.1c-0.29-0.05-0.58-0.1-0.87-0.15c0.92-1.9,2.37-0.99,3.7-0.7c0.6,0.02,1.16,0.14,1.49,0.72
		C113.25,48.01,111.81,48.06,110.37,48.1z"/>
	<path class="st3" d="M86.22,42.17c0.01,0.17,0.02,0.33,0.02,0.5c-0.2,0.3-0.45,0.35-0.74,0.14c-0.22-0.68-1.4-0.83-1.12-1.69
		c0.29-0.87,1.22-0.52,1.89-0.61C86.26,41.06,86.24,41.62,86.22,42.17z"/>
	<path class="st34" d="M99.85,48.85c-0.68-0.32-0.86-0.9-0.88-1.59c1.23-0.79,2.38-1.19,2.99,0.69c0,0-0.06,0.17-0.06,0.17
		C101.22,48.36,100.54,48.6,99.85,48.85z"/>
	<path class="st24" d="M70.52,73.39c0.95-1.06,2.2-0.6,3.33-0.63c0.48-0.01,0.49,0.34,0.15,0.6c-0.17,0.13-0.44,0.14-0.67,0.2
		C72.39,73.51,71.46,73.45,70.52,73.39z"/>
	<path class="st33" d="M12.76,81.75c0.03,1.49,0.05,2.98,0.08,4.47c-0.24,0.22-0.47,0.22-0.69-0.03c-0.06-0.94-0.13-1.88-0.19-2.83
		C11.73,82.58,11.3,81.7,12.76,81.75z"/>
	<path class="st38" d="M13.51,92.3c-0.27-0.12-0.54-0.24-0.81-0.36c0-1.12,0-2.24,0-3.35c-0.31-0.83,0.08-1,0.8-0.85
		c0.03,1.21,0.06,2.42,0.09,3.63C13.84,91.71,13.81,92.02,13.51,92.3z"/>
	<path class="st36" d="M11.9,59.45c0.28-0.32,0.56-0.65,0.85-0.97c0.13,0.1,0.25,0.2,0.38,0.3c0.61,1.03,0.49,2.17,0.43,3.29
		c-0.04,0.14-0.06,0.29-0.08,0.44C11.82,62.07,11.98,60.7,11.9,59.45z"/>
	<path class="st39" d="M11.47,26.31c0.2,0.24,0.39,0.49,0.59,0.73c0,0.74,0,1.48,0,2.22c-0.21,0.24-0.41,0.49-0.62,0.73
		C11.45,28.77,11.46,27.54,11.47,26.31z"/>
	<path class="st40" d="M30.04,18.8c-0.01,0.51-0.03,1.01-0.04,1.52c-0.31,0.35-0.46,0.89-1.05,0.91c-0.76-0.25-0.96-0.83-0.93-1.55
		c0.09-0.32,0.26-0.6,0.5-0.84c0.31-0.05,0.61-0.1,0.92-0.15C29.65,18.66,29.85,18.7,30.04,18.8z"/>
	<path class="st17" d="M28.4,14.31c-0.55-0.08-1.52,0.17-1.52-0.45c0-1.08,1.06-0.97,1.86-1C28.63,13.34,28.51,13.83,28.4,14.31z"/>
	<path class="st31" d="M29.19,10.58c-2.27-0.71-1.08-1.49-0.05-2.28C29.16,9.07,29.17,9.83,29.19,10.58z"/>
	<path class="st15" d="M17.11,5.9c0.35-1.2,1.11-1.95,2.36-2.17c0,0,0.13,0.17,0.13,0.17c0.05,1.54-0.67,2.31-2.24,2.2L17.11,5.9z"
		/>
	<path class="st25" d="M12.76,81.75c-0.64,0.35-0.66,1.01-0.8,1.62c-0.65-0.72-0.68-1.57-0.51-2.46c0.21-0.23,0.42-0.46,0.63-0.69
		C12.67,80.57,12.79,81.12,12.76,81.75z"/>
	<path class="st41" d="M125.34,46.61c-0.28-0.25-0.56-0.5-0.85-0.74c0.64-0.18,1.31-1.18,1.87-0.36
		C126.76,46.09,125.93,46.45,125.34,46.61z"/>
	<path class="st17" d="M87.58,39.02c-0.54-0.08-1.5,0.17-1.5-0.44c-0.01-1.07,1.04-0.97,1.83-1.01
		C87.8,38.05,87.69,38.54,87.58,39.02z"/>
	<path class="st42" d="M21.89,61.5c-0.08-0.27-0.15-0.54-0.23-0.82c-0.27-0.98-0.54-1.97,0.2-2.88c0.21-0.05,0.42-0.11,0.62-0.18
		C22.45,58.94,22.95,60.34,21.89,61.5z"/>
	<path class="st25" d="M13.5,87.74c-0.27,0.28-0.53,0.56-0.8,0.85c-0.67-0.69-0.68-1.53-0.55-2.4c0.23,0.01,0.46,0.02,0.69,0.03
		C13.43,86.57,13.54,87.12,13.5,87.74z"/>
	<path class="st43" d="M19.54,67.46c0.05,0.35,0.1,0.7,0.16,1.05c-0.06,0.93,0.19,1.96-0.87,2.54
		C18.91,69.82,18.33,68.46,19.54,67.46z"/>
	<path class="st39" d="M11.35,45.01c0.23,0,0.45,0,0.68,0c0.02,0.99,0.03,1.98,0.05,2.97c-0.21,0.24-0.42,0.49-0.63,0.73
		C11.41,47.48,11.38,46.25,11.35,45.01z"/>
	<path class="st31" d="M88.38,35.3c-2.24-0.73-1.11-1.51-0.03-2.28C88.36,33.78,88.37,34.54,88.38,35.3z"/>
	<path class="st44" d="M81.75,71.22c-0.01,0.26-0.01,0.51-0.02,0.77c-1.83-2.23-5.13-2.46-6.76-4.96c0.26-1.11,1.11-1.27,2.06-1.29
		c1.12,0.54,1.24,2.06,2.46,2.51C80.24,69.23,80.99,70.22,81.75,71.22z"/>
	<path class="st1" d="M79.48,68.24c-1.41-0.08-2.17-0.81-2.25-2.23c-0.46-0.9,0.42-1.17,0.79-1.68c0.24-0.18,0.49-0.35,0.73-0.53
		C79.98,65.12,78.24,66.92,79.48,68.24z"/>
	<path class="st45" d="M78.03,64.32c-0.26,0.56-0.53,1.12-0.79,1.68c-0.75,0.34-1.51,0.68-2.26,1.01c-0.86-0.17-1.71-0.35-2.56-0.52
		C73.5,63.75,76.05,64.78,78.03,64.32z"/>
	<path class="st46" d="M33.16,50.26c-0.02,1-0.04,2-0.07,2.99c0.18,0.27,0.11,0.45-0.19,0.55c-0.95,0.25-1.91,0.5-2.86,0.76
		c-2.26,0.19-4.51,0.38-6.77,0.57c-2.47-0.13-4.93-0.26-7.4-0.38c-0.54-0.04-0.6-0.48-0.72-0.87c-0.26-1.75-0.53-3.5-0.79-5.24
		c0.81-1.19-0.24-2.76,0.79-3.9c0.52-0.37,1.17-0.65,1.72-0.46c4.9,1.71,9.86,1.03,14.83,0.5c0.18,0.09,0.36,0.19,0.54,0.29
		C32.55,46.79,32.86,48.52,33.16,50.26z"/>
	<path class="st15" d="M15.16,53.87c0.24,0.29,0.48,0.58,0.72,0.87c1.42,2.5-0.33,4.22-1.5,6.08c-1.3-0.25-0.91-1.63-1.56-2.32
		c0,0-0.07-0.02-0.07-0.02C13.69,57.02,13.51,54.96,15.16,53.87z"/>
	<path class="st47" d="M12.81,58.5c0.52,0.77,1.04,1.54,1.56,2.32c-0.09,0.53-0.11,1.12-0.81,1.25C12.71,61,12.73,59.76,12.81,58.5z
		"/>
	<path class="st31" d="M21.87,57.8c-0.07,0.96-0.13,1.92-0.2,2.88c-1.07-1.01-0.8-2.39-0.44-3.43
		C21.48,56.56,21.64,57.58,21.87,57.8z"/>
	<path class="st43" d="M13.51,92.3c0.03-0.31,0.06-0.62,0.09-0.93c0.73-0.25,1.46-0.49,2.19-0.74c0.02,0.19,0.04,0.38,0.05,0.58
		C14.83,91.08,14.85,93.14,13.51,92.3z"/>
	<path class="st20" d="M29.95,79.46c-0.22,0.01-0.43,0.01-0.65,0.01c0.34-3.5-0.8-7.09,0.73-10.51C30,72.46,29.97,75.96,29.95,79.46
		z"/>
	<path class="st20" d="M25.55,73.49c0-2.01,0-4.01,0-6.02C26.68,69.48,26.7,71.48,25.55,73.49z"/>
	<path class="st7" d="M71.3,55.37c0.14-1.46-0.68-3.07,0.69-4.34c0.82,0.99,1.81,0.76,2.62,0.15c1.63-1.22,3.22-0.69,4.86-0.14
		c2.69,1.95,1.8,4.29,0.71,6.64c-1.28-0.07-2.66,0.45-3.78-0.62c0.73-0.57,1.45-0.71,1.9-0.32c-1.12-0.32-2.55-0.25-3.99,0.13
		C73.31,56.37,72.3,55.87,71.3,55.37z"/>
	<path class="st38" d="M80.18,57.68c-0.07-2.23,0.6-4.55-0.71-6.64c1.37,0.23,3.25-0.88,3.8,1.46c-0.81,1.65-2.21,3.21-0.84,5.21
		C81.68,57.7,80.93,57.69,80.18,57.68z"/>
	<path class="st48" d="M74.31,56.88c1.42-1.11,2.95-0.61,4.57-0.42c-0.77,0.86-1.7,0.38-2.49,0.6C75.7,57,75.01,56.94,74.31,56.88z"
		/>
	<path class="st49" d="M95.16,47.28c0.76,0.72,0.7,1.46,0.04,2.21c-2.11,0.18-4.2-1.52-6.32-0.07c-0.79-0.18-0.78-0.77-0.71-1.39
		c0.38-0.79,1.03-1.22,1.84-1.47c1.19-0.29,2.4-0.29,3.61-0.14C94.23,46.53,94.77,46.77,95.16,47.28z"/>
	<path class="st17" d="M81.74,41.26c0,0.25,0.01,0.49,0.02,0.74c0.82,1.76,1.35,3.51-0.02,5.26c-1.06-0.07-2.22,0.32-3.05-0.72
		c0.23-0.59,0.59-1.1,0.86-1.66c0.31-0.76,0.09-1.54,0.07-2.32c0.03-0.52,0.2-0.96,0.61-1.3c0.25,0,0.5-0.01,0.75-0.01
		C81.24,41,81.49,41,81.74,41.26z"/>
	<path class="st26" d="M81.74,47.26c0.01-1.75,0.01-3.51,0.02-5.26c0.97,0.44,1.47,1.19,1.47,2.26c0.92,1.29,0.62,2.27-0.75,2.99
		C82.24,47.26,81.99,47.26,81.74,47.26z"/>
	<path class="st44" d="M82.48,47.25c0.51-0.93,0.87-1.9,0.75-2.99c0.62,0.01,1.18,0.14,1.51,0.75c0.47,0.65,0.81,1.35,1.03,2.12
		c0.02,0.33-0.08,0.62-0.29,0.88C84.39,48.12,83.42,47.77,82.48,47.25z"/>
	<path class="st50" d="M80.23,45.01c-0.01,1.01-0.57,1.47-1.54,1.54c-0.22-0.02-0.44-0.04-0.66-0.08c0-0.73-0.01-1.45-0.01-2.18
		c0.57-0.48,1.08-0.14,1.61,0.09C79.89,44.53,80.09,44.74,80.23,45.01z"/>
	<path class="st51" d="M85.48,48.01c0-0.25,0-0.5,0-0.75c0.23-0.2,0.5-0.3,0.81-0.3c0.45,0.06,0.88,0.18,1.3,0.32
		c0.43,0.15,0.83,0.35,1.06,0.77c0.08,0.45,0.15,0.91,0.23,1.36C87.72,49.01,86.39,49.02,85.48,48.01z"/>
	<path class="st12" d="M16.48,28.57c0.54-0.51,1.07-1.02,1.61-1.53c0.49-0.51,0.99-1.03,1.78-1.05c0.8,0.14,1.35,0.59,1.72,1.3
		c0.16,0.36,0.25,0.74,0.3,1.13c-0.2,1.59,0.11,3.21-0.31,4.79c-0.72,1.31-1.94,1.46-3.25,1.43c-0.63-0.06-1.21-0.25-1.73-0.62
		C15.31,32.23,15.09,30.42,16.48,28.57z"/>
	<path class="st52" d="M19.57,26.19c-0.3,0.63-0.85,0.81-1.48,0.85c1.45-2.91-1.25-4.97-1.54-7.52c1.68-0.15,1.97,1.54,3,2.26
		C21.23,23.25,21.25,24.72,19.57,26.19z"/>
	<path class="st38" d="M16.48,28.57c-0.82,1.73-0.04,3.45,0.05,5.18c0,0.15,0.01,0.31,0.01,0.46c-0.08,0.47-0.28,0.89-0.63,1.22
		c-0.31,0.15-0.58,0.1-0.81-0.14C15.5,33.03,13.91,30.37,16.48,28.57z"/>
	<path class="st53" d="M15.02,44.24c0.19-1.28-0.46-2.75,0.89-3.75c0.31-0.19,0.6-0.14,0.86,0.1c0.43,0.82,0.13,1.61-0.11,2.4
		c-0.24,0.62-0.45,1.26-1.19,1.47C15.32,44.38,15.17,44.31,15.02,44.24z"/>
	<path class="st53" d="M15.14,45.08c-0.09,1.22,0.27,2.54-0.78,3.55c-0.05-0.47-0.1-0.93-0.15-1.4c0.2-1.02-0.19-2.19,0.8-2.99
		c0,0,0.03,0.02,0.03,0.02c0.26,0.15,0.35,0.33,0.3,0.52C15.29,44.98,15.22,45.08,15.14,45.08z"/>
	<path class="st54" d="M16.46,40.42c-0.18,0.03-0.37,0.05-0.55,0.06c-0.06-0.26-0.13-0.51-0.2-0.77c-0.34-0.49-0.28-1.01-0.14-1.54
		c0.37-0.81,0.58-1.81,1.86-1.46c0.53,0.62,0.56,1.32,0.39,2.07C17.58,39.5,17.2,40.12,16.46,40.42z"/>
	<path class="st55" d="M15.91,38.26c-0.07,0.48-0.13,0.97-0.2,1.45c-1.24-1.33-0.47-2.95-0.62-4.43c0.2-0.01,0.4-0.01,0.6,0
		C16.69,36.21,16.18,37.24,15.91,38.26z"/>
	<path class="st28" d="M79.48,45.01c-0.49-0.24-0.97-0.48-1.46-0.72c-0.5-1.71-0.92-3.44-0.82-5.24c1.72-0.22,2.02,1.49,3.04,2.23
		c0,0.5,0,1-0.01,1.5C79.72,43.43,80.35,44.47,79.48,45.01z"/>
	<path class="st26" d="M81.74,41.26c-0.25,0-0.5,0-0.75,0c-0.02-1.06-1.05-2.38,0.75-2.99C82.12,39.27,83.1,40.26,81.74,41.26z"/>
	<path class="st56" d="M87.03,48.01c-0.3-0.25-0.6-0.51-0.9-0.76c-0.35-0.51-0.39-1.01,0-1.52c-0.21-0.97-0.42-1.95-0.63-2.92
		c0.25-0.05,0.5-0.09,0.74-0.14c0.25,0.04,0.5,0.08,0.75,0.12C88.07,44.52,88.38,46.26,87.03,48.01z"/>
	<path class="st1" d="M86.13,45.73c0,0.51,0,1.01,0.01,1.52c-0.22,0-0.44,0.01-0.65,0.01c-0.88-0.54-0.72-1.42-0.74-2.25
		C85.2,45.25,85.66,45.49,86.13,45.73z"/>
	<path class="st2" d="M28.46,19.55c0.27,0.5,0.53,1.01,0.8,1.51c0.73,1.22,0.57,2.46,0.1,3.7c-1.32,2.27-3.43,1.45-5.36,1.38
		c-1.66-0.46-2.21-1.73-2.39-3.28c0.13-1.62-0.29-3.35,0.9-4.77c-0.12-1.65,0.56-2.5,2.29-2.3c-0.14,1.08,0.2,2.05,0.73,2.97
		c0.35,0.62-0.01,1.11-0.32,1.6c0.54-0.06,0.48-0.72,0.94-0.9C26.96,19.17,27.71,18.93,28.46,19.55z"/>
	<path class="st57" d="M17.37,6.11c0.75-0.73,1.49-1.47,2.24-2.2c2.33-0.01,4.8-0.72,6.68,1.4c-0.48,0.01-0.97,0.02-1.45,0.03
		c-0.3,0.22-0.66,0.34-0.98,0.52c-3.21,1.89-3.21,1.89-1.98,4.47c-0.16,1.06,0.18,2.45-1.59,2.47c-1.8-1.11-1.3,1.27-2.23,1.47
		C16.68,11.64,17.47,8.84,17.37,6.11z"/>
	<path class="st22" d="M21.04,9.8c-0.71-2.8-1.37,0.73-2.24-0.17c1.01-2.78,3.02-4.2,6.04-4.3c-1.16,1.34-1.77,2.83-1.6,4.66
		c0.16,1.61-0.11,3.16-1.43,4.32c0,0-0.05-0.05-0.05-0.05C20.65,12.91,22.12,11.15,21.04,9.8z"/>
	<path class="st14" d="M22.51,18.1c0,1.73,0,3.46,0,5.19c-0.65,0.77-0.21,1.81-0.67,2.63c-0.16,0.45-0.39,0.85-0.8,1.12
		c-0.49-0.28-0.98-0.57-1.47-0.85c0.51-1.47,0.48-2.95-0.01-4.42c0.47-0.68,1.57-1.15,0.75-2.25c0.53-0.37,0.17-1.19,0.76-1.53
		C21.55,18.03,22.03,18.07,22.51,18.1z"/>
	<path class="st58" d="M21.07,18c-0.04,0.62-0.15,1.2-0.76,1.53c0.1-1.16-1.05-1.46-1.52-2.23c0.67-1.19,1.47-2.19,2.99-2.25
		C21.54,16.03,21.3,17.01,21.07,18z"/>
	<path class="st5" d="M32.25,31.51c0.27,1.51-0.63,3.23,0.84,4.52c0,2.49-0.01,4.98-0.01,7.47c-0.07,0.63-0.21,1.23-0.84,1.55
		c0,0-0.04-0.01-0.04-0.01c-0.97-0.45-1.48-1.3-1.9-2.22c-0.36-0.92-0.61-1.88-0.73-2.87c-0.12-1.31-0.47-2.62-0.09-3.95
		c0.3-0.97,0.38-1.99,0.67-2.96c0.14-0.32,0.35-0.59,0.63-0.8C31.28,32,31.77,31.75,32.25,31.51z"/>
	<path class="st48" d="M30.79,32.25c-0.02,0.22-0.03,0.45-0.04,0.67c-0.23,0.3-0.53,0.49-0.89,0.57c-2.14-0.32-4.31-0.07-6.46-0.28
		c-0.21-0.19-0.29-0.39-0.26-0.61c0.04-0.22,0.09-0.33,0.15-0.33C25.79,30.11,28.29,30.13,30.79,32.25z"/>
	<path class="st50" d="M21.04,27.05c0-0.5,0-1.01,0.01-1.51c1.79-1.07,1.74,0.66,2.27,1.5c0.21,1.12-0.22,2.06-0.84,2.94
		c-1.93,0.19-0.47-1.74-1.37-2.19C21.07,27.54,21.05,27.29,21.04,27.05z"/>
	<path class="st59" d="M21.11,27.78c0.46,0.73,0.91,1.46,1.37,2.19c0.12,0.82-0.07,1.75,0.82,2.29c0,0.22,0.01,0.45,0.02,0.67
		c-0.68,0.71-1.41,0.74-2.17,0.14C21.13,31.31,21.12,29.55,21.11,27.78z"/>
	<path class="st14" d="M23.32,27.03c-0.8-0.43-1.1-1.63-2.27-1.5c0.49-0.75,0.98-1.49,1.47-2.24c-0.01,1.22,0.96,1.92,1.49,2.85
		C23.78,26.44,23.55,26.74,23.32,27.03z"/>
	<path class="st25" d="M32.27,21.13c0,1.74-0.01,3.48-0.01,5.22c-0.57-0.34-0.73-0.89-0.75-1.5C31.77,23.61,30.97,22.15,32.27,21.13
		z"/>
	<path class="st56" d="M29.36,24.77c-0.03-1.23-0.07-2.47-0.1-3.7c0.25-0.25,0.49-0.49,0.74-0.74c0.24,1,0.47,2.01,0.71,3.01
		C30.26,23.81,29.81,24.29,29.36,24.77z"/>
	<path class="st1" d="M87.03,48.01c-0.01-1.74-0.03-3.48-0.04-5.22c3.07,1.52,6.87-0.21,9.73,2.22c5.4,1.49,11.06,0.13,16.47,1.55
		c0.01,0.23,0.01,0.46,0.01,0.7c-1.24,0.19-2.65-0.49-3.7,0.71c-2.51,0-5.02,0-7.53,0c-0.81-1.02-1.96-0.6-2.99-0.69
		c-1.27,0.01-2.55,0.01-3.82,0.02c-0.49-0.03-0.98-0.07-1.46-0.1c-1.22-0.51-2.45-0.46-3.69-0.03c-0.46,0.3-0.91,0.6-1.36,0.9
		C88.11,48.04,87.57,48.03,87.03,48.01z"/>
	<path class="st2" d="M32.9,53.8c0.01-0.2,0.08-0.38,0.19-0.55c0.48-0.5,0.96-1,1.44-1.5C33.87,52.34,35.94,55.1,32.9,53.8z"/>
	<path class="st50" d="M21.04,9.8c1.34,1.31,0.53,2.97,0.72,4.46c-0.99,0.01-1.43-0.52-1.47-1.46C21.39,12.01,20.94,10.84,21.04,9.8
		z"/>
	<path class="st34" d="M28.46,19.55c-1.77-0.24-2.78,0.71-3.25,2.55c-0.8-1.46-0.05-2.36,0.33-3.33c0.99,0.02,1.99,0.04,2.98,0.07
		C28.51,19.08,28.49,19.32,28.46,19.55z"/>
	<path class="st60" d="M30.81,42.84c0.84,0.5,1.11,1.36,1.4,2.2c-4.42,1.52-8.89,2.14-13.45,0.61c-1.17-0.39-2.33-0.88-3.62-0.57
		c-0.03-0.27-0.06-0.55-0.1-0.82c0.6-0.27,0.77-0.82,0.86-1.4c0.66-0.36,1.34-0.29,2.03-0.14c2.45,0.45,4.77,1.77,7.39,1
		c0.33-0.1,0.66-0.17,0.99-0.22C27.84,43.47,29.29,42.92,30.81,42.84z"/>
	<path class="st18" d="M90.01,47.15c1.24-0.97,2.47-0.98,3.69,0.03C92.47,47.17,91.24,47.16,90.01,47.15z"/>
	<path class="st50" d="M79.48,45.01c0.03-0.82-0.13-1.71,0.75-2.24c0.2,0.75,1.21,1.49,0,2.24c0,0-0.37,0-0.37,0L79.48,45.01z"/>
	<path class="st3" d="M30.81,42.84c-1.03,1.95-2.89,1.35-4.52,1.45c-0.81-0.72-0.38-1.63-0.37-2.45c-0.07-0.32,0.4-0.55,0.17-0.92
		c0.01,0.2-0.05,0.41-0.19,0.65c0.04,0.95-0.47,1.81-0.32,2.75c-2.97,1.64-5.55-0.46-8.3-0.88c-0.89-1.34-0.21-2.62,0.14-3.92
		c0.39-1.15,0.37-2.3-0.05-3.44c-0.15-0.85,0.07-1.58,0.69-2.18c1.05-0.2,2.25,0.17,3.07-0.85c0.72-0.05,1.45-0.09,2.17-0.14
		c2.24-0.84,4.47-1.06,6.68,0.09c0.86,1.1,0.27,2.07-0.27,3.05c-0.13,1.26-0.16,2.52,0.31,3.73C30.59,40.74,30.88,41.74,30.81,42.84
		z"/>
	<path class="st61" d="M18.07,33.92c-0.02,0.7-0.03,1.41-0.05,2.11c-0.26,0.27-0.57,0.31-0.9,0.15c-0.72-0.58-1.14-1.26-0.69-2.21
		c0,0,0.1-0.23,0.1-0.23C17.04,33.8,17.56,33.86,18.07,33.92z"/>
	<path class="st62" d="M16.43,33.97c0.31,0.68,0.62,1.37,0.93,2.05c0.29,0.35,0.21,0.6-0.19,0.77c-0.42,0.49-0.83,0.98-1.25,1.47
		c-0.07-1-0.15-1.99-0.22-2.99C15.94,34.84,16.18,34.41,16.43,33.97z"/>
	<path class="st29" d="M18,39.73c-0.6,1.17-0.81,2.42-0.71,3.72c-0.46-0.2-0.93-0.4-1.39-0.59c0.19-0.81,0.37-1.62,0.56-2.43
		c0.11-0.58,0.13-1.2,0.78-1.5C17.68,39.02,17.74,39.47,18,39.73z"/>
	<path class="st28" d="M18,39.73c-0.25-0.27-0.51-0.54-0.76-0.8c-0.03-0.71-0.05-1.42-0.08-2.13c0.06-0.26,0.13-0.51,0.19-0.77
		c0.22,0,0.44,0,0.67,0C18.01,37.26,18.01,38.5,18,39.73z"/>
	<path class="st15" d="M30.03,39.8c-1.2-1.09-0.63-2.49-0.66-3.78c0.22-0.31,0.44-0.31,0.66,0C29.73,37.28,30.69,38.54,30.03,39.8z"
		/>
	<path class="st15" d="M30.03,36.02c-0.22,0-0.44,0-0.66,0c0.21-1,0.41-2,0.62-3c0.25-0.03,0.51-0.07,0.76-0.1
		C30.7,33.99,31.13,35.18,30.03,36.02z"/>
	<path class="st14" d="M26.34,41.27c-0.02,1.01-0.03,2.01-0.05,3.02c-0.23,0-0.47,0.01-0.7,0.03c-1.39-1.01,0.16-2.03-0.01-3.05
		C25.83,40.96,26.08,40.95,26.34,41.27z"/>
	<path class="st32" d="M26.34,41.27c-0.26,0-0.51,0-0.77,0c0.45-0.96,1.02-1.73,2.31-1.31C27.76,40.89,26.88,40.88,26.34,41.27z"/>
</g>
</svg>
