<?xml version="1.0" encoding="utf-8"?>
<!-- Generator: Adobe Illustrator 24.2.1, SVG Export Plug-In . SVG Version: 6.00 Build 0)  -->
<svg version="1.1" id="Calque_1" xmlns="http://www.w3.org/2000/svg" xmlns:xlink="http://www.w3.org/1999/xlink" x="0px" y="0px"
	 viewBox="0 0 129.75 126.75" style="enable-background:new 0 0 129.75 126.75;" xml:space="preserve">
<style type="text/css">
	.st0{fill:#FEFEFE;}
	.st1{fill:#FFE4D2;}
	.st2{fill:#40916C;}
	.st3{fill:#7BC8A4;}
	.st4{fill:#7CC9A5;}
	.st5{fill:#FFD4B8;}
	.st6{fill:#FFE4D1;}
	.st7{fill:#4D9976;}
	.st8{fill:#4B9875;}
	.st9{fill:#FFE2CF;}
	.st10{fill:#7EC9A6;}
	.st11{fill:#FFE3D0;}
	.st12{fill:#81CBA8;}
	.st13{fill:#73C59F;}
	.st14{fill:#71C49D;}
	.st15{fill:#44936F;}
	.st16{fill:#82CBA9;}
	.st17{fill:#969492;}
	.st18{fill:#4F9A78;}
	.st19{fill:#FFE1CD;}
	.st20{fill:#AFADAC;}
	.st21{fill:#FFD2B4;}
	.st22{fill:#FFE0CB;}
	.st23{fill:#FFCFAE;}
	.st24{fill:#949290;}
	.st25{fill:#FFD4B7;}
	.st26{fill:#B3B2B0;}
	.st27{fill:#FFD7BD;}
	.st28{fill:#74C5A0;}
	.st29{fill:#FFDDC7;}
	.st30{fill:#FFD9BF;}
	.st31{fill:#FFE1CC;}
	.st32{fill:#A19F9D;}
	.st33{fill:#DEDDDD;}
	.st34{fill:#FFDFC9;}
	.st35{fill:#FFDFCA;}
	.st36{fill:#FFD5B9;}
	.st37{fill:#FFDBC3;}
	.st38{fill:#539C7B;}
	.st39{fill:#FFD6BB;}
	.st40{fill:#A4A2A1;}
	.st41{fill:#FFDAC2;}
	.st42{fill:#FFDEC8;}
	.st43{fill:#FFCDAB;}
	.st44{fill:#B7B6B5;}
	.st45{fill:#9D9B99;}
	.st46{fill:#FFDAC1;}
	.st47{fill:#FFD7BC;}
	.st48{fill:#B0AEAD;}
	.st49{fill:#65BF95;}
	.st50{fill:#7FCAA7;}
	.st51{fill:#FFD2B5;}
	.st52{fill:#FFD0B0;}
	.st53{fill:#FFD1B3;}
	.st54{fill:#FFD1B1;}
	.st55{fill:#FFD8BE;}
	.st56{fill:#FFC299;}
	.st57{fill:#DAD9D8;}
	.st58{fill:#FFD6BA;}
</style>
<g>
	<path class="st0" d="M64.88,126.69c-20.74,0-41.47-0.04-62.21,0.06C0.45,126.76,0,126.3,0,124.06C0.08,83.6,0.08,43.14,0,2.68
		C0,0.45,0.45,0,2.67,0c41.47,0.08,82.94,0.08,124.41,0c2.22,0,2.67,0.45,2.67,2.68c-0.08,40.46-0.08,80.92,0,121.38
		c0,2.23-0.45,2.7-2.67,2.69C106.35,126.64,85.61,126.69,64.88,126.69z"/>
	<path class="st1" d="M92.43,66.89c-1.87,5.54-7.45,9.63-7.21,15.78c0.25,6.2-2.97,11.29-3.87,17.04c-1.38,1.66,0.58,4.08-1.28,5.63
		c-0.85,0.31-1.63,0.28-2.28-0.43c0.43-6.3,0.91-12.6,1.27-18.91c0.44-7.73,2.41-15.1,5.04-22.32C87.4,63.4,90.22,64.36,92.43,66.89
		z"/>
	<path class="st1" d="M56.93,104.18c0.15,0.24,0.3,0.48,0.44,0.73c-2.29,2.43-2.54,2.47-4.17,0.54c1.4-4.03,0.15-7.85-1.09-11.6
		c-1.17-3.54-2.37-7.01-2.1-10.86c0.19-2.73-1.37-4.98-2.69-7.21c-1.83-3.09-3.79-6.1-4.74-9.62c2.38-2.3,5.34-2.97,8.51-3.08
		c2.44,6.02,3.13,12.49,4.7,18.73c-0.18,2.48-0.75,4.98,0.3,7.42c0.64,0.7,0.56,1.51,0.39,2.35
		C56.47,95.77,55.58,100.01,56.93,104.18z"/>
	<path class="st1" d="M111.15,85.38c0.61,0.73,0.63,1.56,0.44,2.44c-0.36,2.5-0.07,5.01-0.16,7.51c0.25,2.45-0.56,4.98,0.54,7.37
		c0.81,0.82,0.6,1.86,0.64,2.85c-0.5,0.95-1.41,1.13-2.35,1.25c-0.81-0.13-1.41-0.47-1.39-1.42c0.39-4.51-0.23-8.84-1.87-13.08
		c-1.16-3-1.91-6.1-1.77-9.4c0.11-2.55-1.07-4.77-2.38-6.9c-1.94-3.15-4.01-6.24-5-9.88c2.54-2.14,5.38-3.18,8.71-2.42
		c2.72,5.19,2.36,11.21,4.4,16.58C110.71,81.99,110.21,83.71,111.15,85.38z"/>
	<path class="st1" d="M29.55,87.59c-1.11,3.54-2.21,7.09-3.32,10.63c-0.95,1.42-0.33,3.01-0.46,4.52c-0.1,1.19,0.18,2.5-1.49,2.81
		c-0.68,0.05-1.29-0.09-1.74-0.65c1.5-6.35,0.43-12.86,1.2-19.3c0.94-7.92,2.59-15.57,5.2-23.06c2.7,1.53,6.15,1.6,8.22,4.32
		c-1.3,3.15-3.04,6.06-4.89,8.91c-1.35,1.22-1.78,2.91-2.34,4.54l0.02-0.06C29.01,82.65,29.63,85.14,29.55,87.59z"/>
	<path class="st1" d="M47.15,47.99c0.46,1.76,0.91,3.51,1.37,5.27c-1.17,2.74-3.89,2.6-6.06,2.81c-3.9,0.38-7.88,0.26-11.03-2.76
		c1.99-4.41,1.14-9.01,0.84-13.56c0.32-0.32,0.7-0.54,1.14-0.66c3.44,0.4,6.9,0.3,10.35,0.38c1.35,0.03,2.75-0.1,3.87,0.93
		c0.13,1.37,0.38,2.76-0.52,3.99C46.22,45.61,46.42,46.8,47.15,47.99z"/>
	<path class="st1" d="M102.82,49.5c0.73,1.35,0.98,2.81,1,4.32c-4.79,3.55-13,3.33-17.09-0.46c1.95-4.68,1.35-9.48,0.68-14.28
		c0.36-0.27,0.76-0.38,1.2-0.33c3.02,0.9,6.13,0.65,9.22,0.72c1.71,0.04,3.5-0.27,5,0.95c0.01,0.28,0.02,0.57,0.03,0.85
		C102.24,44,102.3,46.75,102.82,49.5z"/>
	<path class="st2" d="M106.54,63.69c-2.9,0.81-5.81,1.61-8.71,2.42c-2.36-3.72-3.82-1.07-5.4,0.78c-2.77-1.07-5.55-2.13-8.32-3.2
		c0.61-2.55,1.22-5.11,1.83-7.66c1.04-1.44,2.44-0.81,3.69-0.54c2.52,0.54,5.06,0.68,7.62,0.77c1.29-0.06,2.57-0.23,3.82-0.54
		c0.36-0.1,0.72-0.17,1.09-0.2c1.21-0.1,2.19,0.3,2.86,1.36C105.52,59.14,106.03,61.42,106.54,63.69z"/>
	<path class="st2" d="M37.15,66.86c-2.61-1.69-6.43-1.05-8.22-4.32c0.62-2.3,1.24-4.61,1.87-6.92c0.26-0.34,0.6-0.52,1.03-0.55
		c5.47,1.45,10.94,1.52,16.42,0.06c0.44,0.01,0.75,0.22,0.91,0.63c0.64,2.43,1.28,4.87,1.92,7.3c-2.54,1.85-5.68,2.03-8.51,3.08
		C40.27,62.56,38.72,64.81,37.15,66.86z"/>
	<path class="st1" d="M61.16,15.22c0.32,3.91,2.3,7.31,3.37,11c0.81,2.8-0.08,4.16-2.63,4.44c-2.26,0.25-4.54,1.61-6.85,0.19
		c-1.8-0.57-3.6-1.15-5.07,0.68c-0.21,0.28-0.42,0.57-0.63,0.85c-2.09,0.21-2.41-1.46-3.01-2.84c-0.23-1.47-0.67-2.91-0.63-4.42
		c0.08-0.38,0.26-0.7,0.55-0.95c3.51,0.47,6.9,1.62,10.53,1.61c1.89-0.01,2.31-0.43,2.19-2.19c-0.15-2.38-1.03-4.55-1.61-6.81
		c-0.79-0.96-1.32-1.87,0.4-2.41c0.9-0.21,1.79-0.2,2.67,0.1C60.76,14.64,61.01,14.89,61.16,15.22z"/>
	<path class="st1" d="M22.2,16.54c-3.27,0.76-2.18,4.13-3.56,6.01c-0.63,4.36-0.63,4.36,3.41,3.74c1.47-0.08,2.98,0.24,4.37-0.51
		c2.15-0.58,4.3-1.02,6.52-0.38c1.23,3.53,0.77,4.97-2.21,6.85c-0.3-0.43-0.59-0.85-0.89-1.28c-2.34-1.21-4.85-0.3-7.27-0.58
		c-2.27,0.14-4.56-0.29-6.81,0.25c-1.96-0.34-2.59-1.44-2.35-3.44c0.36-3.02,1.6-5.72,2.68-8.49c0.53-1.37,0.8-2.84,1.19-4.27
		c0.18-0.31,0.43-0.53,0.76-0.66c0.72-0.19,1.35-0.01,1.92,0.36c-0.78-0.78-1.68-1.65-0.38-2.81c1.56,0.15,3.2,0.15,3.7,2.15
		c0.19,0.3,0.27,0.63,0.26,0.98C23.31,15.29,23.16,16.18,22.2,16.54z"/>
	<path class="st3" d="M30.73,32.26c1.68-1.92,2.39-4.15,2.18-6.7c0.14-0.32,0.35-0.57,0.65-0.75l0.12-0.04
		c1.26-0.14,1.37,0.9,1.5,1.67c0.7,4.24,2.98,6.61,7.41,6.59c0.75,0.7,1.08,1.61,1.34,2.57c0.17,0.84,0.12,1.65-0.28,2.42
		c-2.13,2.1-4.81,1.11-7.27,1.27c-1.17,0.08-2.4-0.55-3.48,0.39c-0.2,0.03-0.4,0.06-0.6,0.08C31.78,37.25,29.03,35.22,30.73,32.26z"
		/>
	<path class="st4" d="M87.96,39.1c-0.18-0.02-0.36-0.02-0.54-0.02c-0.95-2.1-2.22-4.11-1.75-6.59c-0.25-0.34-0.28-0.71-0.1-1.09
		c1.89-1.69,3.96-0.81,5.99-0.43c1.9,1.59,4.36,1.49,6.56,2.2c0.99,1.76,2.45,3.45,0.72,5.56C95.25,40.06,91.59,39.02,87.96,39.1z"
		/>
	<path class="st5" d="M35,11.1c0.38-1.01,1.09-1.7,2.06-2.13c1.56-0.39,3.11-0.52,4.64,0.09c2.99,1.19,3.66,4,4.62,6.62
		c0.07,1.69-0.16,3.37-0.09,5.05c0.07,1.79-1.27,3.46-0.48,5.32c0.23,0.51,0.27,1.03,0.05,1.56c-0.22,0.29-0.51,0.47-0.86,0.55
		c-3.26,0.62-2.89-1.99-3.39-3.84c-0.18-0.29-0.3-0.59-0.41-0.91c-0.25-1.01-0.22-2.01,0.12-3c0.6-1.21,1.31-2.41,0.47-3.8
		c-0.34-0.67-0.56-1.36-0.59-2.12c-0.03-0.94,0.4-2.12-0.8-2.61c-1.36-0.56-2.35,0.18-3.11,1.28c-0.57,0.94-0.43,2.05-0.73,3.05
		c-0.31,0.74-0.63,1.46-1.66,1.13C32.87,15.21,34.6,13.17,35,11.1z"/>
	<path class="st1" d="M42.46,33.05c-3.63,1.29-5.87,0.16-7.44-3.44c-0.69-1.58-0.16-3.45-1.36-4.84c0.84-0.91,1.95-0.49,2.95-0.61
		c0.87-0.21,1.12-1.09,1.69-1.63c1.91-1.25,2.86-0.28,3.47,1.51l0.06-0.02c0.28,2.33,0.84,4.6,1.44,6.86
		c0.03,0.62-0.07,1.21-0.36,1.75C42.75,32.77,42.61,32.91,42.46,33.05z"/>
	<path class="st6" d="M36.53,12.77c0.75-2.36,2.68-2.55,4.52-2.03c2.08,0.59,1.22,2.25,0.89,3.72c-0.14,0.62,0.39,1.38,0.61,2.08
		c-1.31,1.8-3.7,2.51-4.62,4.7c-0.19,0.3-0.45,0.51-0.78,0.65c-1.45-0.88-2.61-1.97-2.68-3.84c0.08-0.36,0.28-0.61,0.61-0.75
		c0.59-0.32,0.72-0.89,0.77-1.49C37.28,15.07,35.72,13.66,36.53,12.77z"/>
	<path class="st7" d="M53.2,105.44c1.68,2.1,2.71-0.91,4.17-0.54c0.84,0.46,1.22,1.13,0.94,2.1c0.26,0.83,0.32,1.64-0.02,2.47
		c-0.15,0.37-0.67,0.41-0.68,0.87c0.42-0.25,0.84-0.45,1.33-0.17c0.86,0.81,1.64,1.76,0.72,2.89c-1.21,1.5-2.99,0.82-4.54,0.81
		c-1.28-0.02-2.13-0.8-2.09-2.13C53.08,109.64,52.35,107.51,53.2,105.44z"/>
	<path class="st8" d="M22.53,104.91c0.43,0.03,0.85,0.07,1.28,0.1c0.85,0.71,1.86,0.39,2.81,0.42c0.9,2.05,0.22,4.15,0.19,6.23
		c-2.35,2.6-4.54,2.69-6.88,0.28C21.6,109.89,20.48,106.8,22.53,104.91z"/>
	<path class="st9" d="M102.13,20.33c0.26,1.19,0.52,2.37,0.78,3.56c0.01,0.17,0.02,0.34,0.04,0.51c0.14,1.39,0.05,2.77-0.28,4.13
		c-0.28,0.87-0.53,1.76-1.19,2.44c-0.53,0.3-1.09,0.33-1.67,0.16c-0.56-0.25-1.01-0.63-1.39-1.1c-1.32-2.02-1.05-4.22-0.72-6.42
		c0.35-1.11,0.53-2.26,0.79-3.39c0.53-1.49,0.39-3.04,0.41-4.57c0.04-1.22-0.04-2.46,0.77-3.5c0.72-0.41,1.1-0.03,1.37,0.6
		C101.12,15.31,100.95,17.92,102.13,20.33z"/>
	<path class="st7" d="M77.8,104.92c0.59,0.06,1.19,0.12,1.78,0.19c0.71,0.42,1.5,0.23,2.25,0.33c1.54,2,0.06,4.19,0.39,6.27
		c-2,2.68-4.36,2.43-6.87,0.83c-0.3-1.02,0.36-1.7,0.87-2.43c1.44-0.02,0.01-0.99,0.44-1.35C76.84,107.43,76.29,105.86,77.8,104.92z
		"/>
	<path class="st10" d="M44.81,27.87c0.22-0.04,0.44-0.07,0.66-0.11c1.47-0.46,0.86,1.16,1.51,1.52c0.67,1.13,0.99,2.53,2.37,3.11
		c0.69,2.51,0.75,4.86-1.56,6.65c-0.92,0.74-1.67,0.29-2.41-0.32c-1.16-1.22-1.19-2.87-1.64-4.36c-0.09-0.33-0.13-0.68-0.13-1.02
		c0.1-1.02,0.28-2.03,0.28-3.07C43.96,29.38,44,28.47,44.81,27.87z"/>
	<path class="st11" d="M87.85,23.9c0.08-0.72,0.15-1.43,0.23-2.15c0.89-0.85,0.99-2,1.17-3.12c0.38-0.96,0.01-2.15,0.89-2.96
		c0.37-0.12,0.72-0.07,1.04,0.14c0.5,0.62,0.63,1.35,0.69,2.11c0.04,1.11,0.13,2.22,0.49,3.29c0.22,0.92,0.29,1.85,0.31,2.8
		c-0.01,1.67-0.02,3.34,0.14,5.01c-0.02,0.59-0.25,1.06-0.72,1.41c-1.34,0.55-2.69,0.77-4.01-0.07c-0.26-0.22-0.41-0.51-0.46-0.85
		c0.06-1.1,0.37-2.19,0.08-3.3c-0.07-0.31-0.09-0.62-0.1-0.94C87.61,24.8,87.86,24.38,87.85,23.9z"/>
	<path class="st10" d="M105.23,32.4c0.11,2.76-0.34,5.35-2.29,7.47c-1.01-0.4-2.02-0.81-2.76-1.68c-0.56-2.28-2.91-4.47-0.33-6.89
		c1.18-0.04,2.31-0.64,3.53-0.35C104.19,31.18,104.85,31.61,105.23,32.4z"/>
	<path class="st12" d="M97.67,56.97c-4.01,0.9-7.81-0.8-11.73-0.93c-0.25-1.05,0.51-1.79,0.79-2.67c5.64,2.13,11.34,2.48,17.09,0.46
		c0.57,0.39,0.67,0.97,0.68,1.6c-0.59,0.87-1.76,0.05-2.38,0.84l-0.31,0.09l-0.32-0.04C100.31,57.06,98.84,56.15,97.67,56.97z"/>
	<path class="st13" d="M100.75,38.3c1.17-0.1,2.09,0.16,2.19,1.57c0,0.19-0.04,0.37-0.1,0.55c-4.97-0.31-10.11,1.29-14.88-1.32
		c3.63-1.82,7.49-0.33,11.22-0.83C99.71,37.83,100.24,37.83,100.75,38.3z"/>
	<path class="st14" d="M45.63,38.28c0.72,0.26,1.44,0.51,2.16,0.77c-0.05,0.46-0.1,0.91-0.15,1.36c-4.93,0.01-9.9,0.62-14.76-0.73
		c0.42-2.08,2.09-1.2,3.29-1.39c2.37-0.38,4.91,0.79,7.14-0.81C44.3,37.12,44.79,38.19,45.63,38.28z"/>
	<path class="st15" d="M110.31,106.45c0.41-1.21,1.54-0.56,2.29-0.9c1.42,0.71,0.48,2.04,0.79,3.04c0.43,1.58-0.83,1.74-1.74,2.19
		c0.83,0.33,1.75-0.59,2.61,0.05c0.23-0.02,0.4,0.08,0.51,0.29c0.66,1.65-0.54,1.9-1.62,1.98c-1.42,0.11-2.98,0.45-4.1-0.85
		C107.79,110.8,108.5,107.69,110.31,106.45z"/>
	<path class="st16" d="M31.34,55.54l-0.26,0.09c0,0-0.28-0.01-0.28-0.01c-0.25-0.9,0.07-1.64,0.64-2.31
		c5.7,1.99,11.4,3.15,17.09-0.05c0.77,0.69,0.82,1.56,0.64,2.5c-0.2-0.01-0.4-0.04-0.59-0.08C42.82,56.99,37.08,56.72,31.34,55.54z"
		/>
	<path class="st9" d="M33.55,24.81c-0.22,0.25-0.43,0.5-0.65,0.75c-2.32-0.4-4.51,0.53-6.77,0.73c-1.38,0.93-3.1-0.23-4.47,0.74
		c-4.64,0.68-4.76,0.51-3.03-4.48c-0.22,2.39-0.02,3.63,3.23,3.24C25.72,25.33,29.56,23.79,33.55,24.81z"/>
	<path class="st17" d="M93.33,7.46c0.24,0.27,0.48,0.54,0.72,0.82c1.76,1.73,0.23,2.54-0.94,3.45c-0.68,0.31-1.39,0.4-2.13,0.34
		c-0.91-0.1-1.64-0.51-2.11-1.32c-0.43-0.85-1.11-1.55-1.55-2.39c-0.1-0.52,0.17-0.74,0.63-0.82C89.73,6.94,91.53,7.09,93.33,7.46z"
		/>
	<path class="st11" d="M106.63,30.19c-0.2,0.22-0.4,0.45-0.6,0.67c-0.83,0.58-1.74,0.32-2.64,0.27c-0.33-0.04-0.63-0.16-0.9-0.35
		c-1.06-0.98-0.01-1.95,0.02-2.93c-0.03-1.55,0.47-2.7,2.17-2.97c0.87-0.04,1.68,0.09,2.23,0.88
		C107.62,27.29,107.29,28.75,106.63,30.19z"/>
	<path class="st17" d="M101.53,10.03c-0.04,0.4-0.08,0.81-0.12,1.21c-0.3,0.48-0.77,0.5-1.25,0.47c-0.32,0.05-0.63,0.15-0.92,0.29
		c-0.64,0.21-1.29,0.33-1.97,0.3c-0.94-0.24-1.48-0.87-1.71-1.8c-0.09-0.75,0-1.43,0.66-1.91c0.29-0.32,0.57-0.64,0.86-0.96
		C99.19,7.26,101.79,5.96,101.53,10.03z"/>
	<path class="st18" d="M110.31,106.45c-1.79,1.66-2.38,3.85-0.53,5.39c1.25,1.03,3.65,1.77,4.98-0.71c1.4,1.63,0.4,2.56-1.1,2.69
		c-1.81,0.15-4.48,1.12-5.09-1.34c-0.55-2.19-1.32-4.8,0.28-7.09C109.24,105.87,109.58,106.43,110.31,106.45z"/>
	<path class="st19" d="M58.16,15.04c-1.54,0-0.89,1-0.8,1.75c-0.65-0.09-1.3-0.18-1.95-0.27c-0.32-0.07-0.55-0.25-0.7-0.54
		c-0.18-0.43-0.25-0.89-0.29-1.35c-0.02-0.75-0.23-1.51,0.16-2.22c1.71-1.13,3.64-1.18,5.58-1.08c0.14,0.09,0.28,0.18,0.42,0.27
		c0.06,0.33,0.01,0.65-0.14,0.95C60,13.65,58.3,13.62,58.16,15.04z"/>
	<path class="st20" d="M23.16,14.29c0.04-0.27,0.07-0.55,0.11-0.82c4.72,0.51,5.27,1.39,3.01,4.8c-0.46-0.13-0.87-0.35-1.19-0.72
		c-0.56-0.94-1.44-1.6-2.12-2.43C22.85,14.8,22.91,14.52,23.16,14.29z"/>
	<path class="st21" d="M19.57,11.32c-0.52,1.28,0.55,2,1.11,2.95c-1.04,0.49-1.92-0.05-2.83-0.17c-0.42-0.89,0.28-2.13-0.86-2.79
		c-1.01-0.36-1.42-1.15-1.94-2.49C17.09,9.37,18.88,9.27,19.57,11.32z"/>
	<path class="st22" d="M56.93,104.18c-1.91-4.14-1.07-8.39-0.45-12.62C56.63,95.76,56.78,99.97,56.93,104.18z"/>
	<path class="st13" d="M75.35,112.54c2.46,1.15,4.75,0.85,6.87-0.83c0.76,1.56-0.44,2.21-1.45,2.22
		C78.9,113.93,76.56,115.26,75.35,112.54z"/>
	<path class="st23" d="M101.53,10.03c-0.36-2.89-2.47-2.53-4.45-2.41c1.09-1.68,2.69-0.69,4.07-0.74c0.88-0.03,1.85,0.33,2.12,1.2
		C103.7,9.48,102.21,9.45,101.53,10.03z"/>
	<path class="st24" d="M16.98,11.31c0.53,0.06,1.22-0.8,1.55,0.08c0.36,0.97,0.02,1.93-0.69,2.71c-0.24,0.03-0.43,0.14-0.58,0.33
		C13.29,13.76,15.91,12.46,16.98,11.31z"/>
	<path class="st25" d="M102.13,20.33c-2.79-2.04-1-5-1.48-7.5c0.7-0.18,1.06,0,0.81,0.8C101.68,15.85,101.91,18.09,102.13,20.33z"/>
	<path class="st26" d="M54.59,12.39c0.19,0.63,0.38,1.27,0.56,1.9c-0.7,0.71-1.54,0.83-2.46,0.58c-1.4-0.8-0.41,1.36-1.36,1.12
		C49.47,12.09,52.34,12.52,54.59,12.39z"/>
	<path class="st22" d="M26.62,105.43c-1.22,1.76-1.99,0.53-2.81-0.42c1.71-0.22,1.5-1.51,1.61-2.73c0.12-1.37-0.61-2.94,0.82-4.06
		C26.34,100.62,25.72,103.07,26.62,105.43z"/>
	<path class="st27" d="M45.52,21.06c0.01-1.83-0.29-3.71,0.8-5.38c1.01,1.96,0.64,4,0.37,6.03C46.1,21.86,45.81,21.45,45.52,21.06z"
		/>
	<path class="st7" d="M114.26,110.83c-1.88,1.18-3.42,1.02-4.65-1.51c1.44,0.13,3.14,1.44,3.77-0.74
		C114.41,109.05,114.13,110.02,114.26,110.83z"/>
	<path class="st28" d="M19.92,111.93c2.38,2.09,4.66,1.6,6.88-0.28c0.37,2.55-1.49,2.52-3.03,2.4
		C22.27,113.94,19.87,115.04,19.92,111.93z"/>
	<path class="st29" d="M81.83,105.44c-0.95,1.26-1.69,1.1-2.25-0.33c2.02-1.32-0.11-4.03,1.78-5.39
		C81.52,101.62,80.93,103.59,81.83,105.44z"/>
	<path class="st30" d="M87.85,23.9c0.88,0.48,0.27,1.08,0.13,1.64c-1.11,1.05-2.33,0.97-3.59,0.32c-0.39-0.32-0.44-0.7-0.16-1.12
		C85.26,23.69,86.68,24.36,87.85,23.9z"/>
	<path class="st31" d="M102.82,49.5c-1.12-2.75-1.18-5.5,0.04-8.24C102.85,44.01,102.84,46.75,102.82,49.5z"/>
	<path class="st5" d="M35.08,17.31c-0.2,0.25-0.41,0.5-0.61,0.75c-1.18-2.42-1.19-4.76,0.54-6.96
		C35.32,13.16,33.44,15.26,35.08,17.31z"/>
	<path class="st31" d="M22.41,30.04c2.46,0.45,5.16-1.02,7.43,0.94c-2.48-0.06-4.95-0.13-7.43-0.2c-0.24-0.17-0.32-0.33-0.24-0.5
		C22.25,30.12,22.33,30.04,22.41,30.04z"/>
	<path class="st5" d="M96.22,8.57c-0.04,0.68-0.07,1.35-0.11,2.03c-0.67,0.85-1.49,1.32-2.6,1c-0.12-0.11-0.24-0.23-0.36-0.34
		c0.7-0.87,1.49-1.72,0.9-2.98C94.77,8.38,95.5,8.47,96.22,8.57z"/>
	<path class="st32" d="M64.76,12.98c-0.06,2.6-2.23,1.78-3.6,2.25c0.04-0.13,0.02-0.26-0.07-0.37c-0.21-0.27-0.29-0.59-0.23-0.93
		c0.2-0.5,0.58-0.79,1.07-0.98C62.87,12.72,63.82,12.36,64.76,12.98z"/>
	<path class="st33" d="M64.76,12.98c-0.89,0.17-1.78,0.33-2.67,0.5c-0.88-0.59-0.83-1.36-0.43-2.21c0.75-0.57,1.52-0.67,2.32-0.12
		C64.25,11.76,64.51,12.37,64.76,12.98z"/>
	<path class="st34" d="M111.96,102.7c-1.86-2.3-0.48-5-0.89-7.48c0.23-0.34,0.45-0.34,0.68,0
		C111.82,97.71,111.89,100.2,111.96,102.7z"/>
	<path class="st35" d="M111.75,95.22c-0.23,0-0.45,0-0.68,0c0.22-2.46-0.53-5,0.52-7.4C111.64,90.28,111.69,92.75,111.75,95.22z"/>
	<path class="st22" d="M56.09,89.21c-1.55-2.41-1.09-4.91-0.3-7.42C55.89,84.26,55.99,86.73,56.09,89.21z"/>
	<path class="st31" d="M29.55,87.59c-0.52-2.49-1.12-4.97,0.39-7.35C29.81,82.69,29.68,85.14,29.55,87.59z"/>
	<path class="st19" d="M49.97,31.54c1.48-2.88,3.85-1.23,5.91-1.18c-0.05,0.09-0.07,0.23-0.14,0.26c-0.22,0.1-0.46,0.16-0.69,0.23
		C53.35,31.05,51.56,30.49,49.97,31.54z"/>
	<path class="st36" d="M45.52,21.06c0.39,0.22,0.78,0.44,1.17,0.66c-0.15,0.82-0.29,1.64-0.44,2.46c-0.03,0.19-0.05,0.39-0.06,0.58
		c-0.47,0.41-0.1,1.25-0.78,1.56C43.75,24.53,45.87,22.82,45.52,21.06z"/>
	<path class="st22" d="M22.41,30.04c0,0.25,0,0.5,0,0.75c-2.22,0.27-4.44,0.38-6.65-0.14C17.88,29.39,20.2,30.32,22.41,30.04z"/>
	<path class="st37" d="M106.6,25.54c-0.75,0-1.5-0.01-2.24-0.01c-0.46-0.5-1.71-0.06-1.54-1.31c0,0,0.1-0.33,0.1-0.33
		c1.46,0.54,3.5-0.46,4.36,1.68C107.04,25.82,106.82,25.81,106.6,25.54z"/>
	<path class="st38" d="M58.93,110.18c-0.89,0.42-1.73,1.02-3.35,0.48c2.06-0.62,2.76-1.93,2.72-3.65
		C58.51,108.06,58.72,109.12,58.93,110.18z"/>
	<path class="st39" d="M87.32,8.36c0.71,0.48,1.75,0.49,2.07,1.5c-0.48,0.52-0.22,1.15-0.23,1.74c-0.1,0.31-0.31,0.51-0.61,0.62
		C87.51,11.14,86.99,9.88,87.32,8.36z"/>
	<path class="st40" d="M63.99,11.15c-0.64,0.07-1.29,0.13-1.93,0.2c-0.49,0.39-0.99,0.42-1.5,0.02c-0.13-0.05-0.25-0.07-0.39-0.06
		C61.41,10.56,62.6,8.38,63.99,11.15z"/>
	<path class="st31" d="M29.92,80.3c-0.04-1.94,0.37-3.65,2.34-4.54C31.48,77.28,30.7,78.79,29.92,80.3z"/>
	<path class="st35" d="M111.15,85.38c-1.61-1.64-0.96-3.37-0.2-5.1C111.01,81.98,111.08,83.68,111.15,85.38z"/>
	<path class="st41" d="M88.83,18.05c-0.09-1.95-0.18-3.89-0.28-5.84c0,0,0.16-0.19,0.16-0.19c1.16-0.18,1.29,0.71,1.54,1.49
		c0.19,1.44-0.66,2.76-0.48,4.2C89.57,18.17,89.26,18.28,88.83,18.05z"/>
	<path class="st37" d="M84.23,24.74c0.01,0.27,0.01,0.53,0.02,0.8c0.6,1.28,0.15,2.52-0.11,3.78c-0.15,0.35-0.38,0.63-0.68,0.85
		C82.28,28.15,81.8,26.24,84.23,24.74z"/>
	<path class="st42" d="M103.6,30.79c0.83-0.55,1.63-0.37,2.43,0.07c-0.27,0.51-0.53,1.03-0.8,1.54c-0.63-0.12-1.28-0.2-1.62-0.87
		c-0.26-0.16-0.34-0.33-0.26-0.49C103.43,30.87,103.52,30.79,103.6,30.79z"/>
	<path class="st43" d="M93.33,7.46c-1.79,0.03-3.59,0.05-5.38,0.08C89.73,6.63,91.51,6.09,93.33,7.46z"/>
	<path class="st27" d="M88.83,18.05c0.2-0.01,0.41-0.01,0.61-0.01c0.22,0.16,0.29,0.32,0.23,0.5c-0.06,0.18-0.13,0.26-0.2,0.26
		c-0.2,1.11,0.54,2.68-1.4,2.95C88.33,20.52,88.58,19.29,88.83,18.05z"/>
	<path class="st32" d="M25.3,17.25c0.33,0.34,0.66,0.68,0.99,1.02c-1.21,1.51-2.05,0.08-3.02-0.38c-0.26-1.05,0.52-1,1.16-1.1
		C24.75,16.86,25.04,17.02,25.3,17.25z"/>
	<path class="st44" d="M24.71,17.25c-0.48,0.21-0.96,0.42-1.44,0.63c-0.72-0.15-0.89-0.75-1.06-1.34c0.3-0.76-0.02-1.79,0.96-2.25
		c0.02,0.3,0.03,0.6,0.05,0.91C23.69,15.9,25.03,15.96,24.71,17.25z"/>
	<path class="st45" d="M51.33,15.98c0.58-0.38-0.85-1.95,0.94-1.61c0.45,0.48,0.97,0.9,1.11,1.59c0.08,0.52-0.04,0.98-0.43,1.34
		C51.89,17.52,51.46,16.95,51.33,15.98z"/>
	<path class="st22" d="M47.15,47.99c-1.41-1.05-0.94-2.42-0.63-3.76c0.01-0.04,0.21-0.06,0.31-0.03c0.11,0.03,0.19,0.13,0.29,0.2
		C47.13,45.6,47.14,46.8,47.15,47.99z"/>
	<path class="st46" d="M83.45,30.17c0.02-0.3,0.04-0.59,0.06-0.89c1.31-0.44,1.88,0.49,2.48,1.36c0.1,0.35,0.04,0.67-0.18,0.97
		c-0.05,0.3-0.09,0.6-0.14,0.9C84.69,31.95,83.87,31.25,83.45,30.17z"/>
	<path class="st47" d="M106.6,25.54c0.22,0.01,0.44,0.02,0.66,0.02c0,0,0.07,0.03,0.07,0.03c0.6,1.23,0.49,2.48,0.07,3.73
		c-0.26,0.29-0.52,0.57-0.78,0.86C106.62,28.64,106.61,27.09,106.6,25.54z"/>
	<path class="st35" d="M101.46,13.62c-0.27-0.27-0.54-0.53-0.81-0.8c-0.24-0.25-0.48-0.51-0.72-0.76c-0.18-0.13-0.24-0.27-0.18-0.4
		c0.06-0.14,0.12-0.2,0.18-0.2c0.5-0.07,0.99-0.15,1.49-0.22C102.64,12.01,102.07,12.81,101.46,13.62z"/>
	<path class="st5" d="M41.71,9.06C40.16,9.03,38.61,9,37.07,8.97C38.63,7.92,40.19,7.49,41.71,9.06z"/>
	<path class="st48" d="M52.96,17.31c-0.01-0.48-0.02-0.97-0.03-1.45c0.67-0.76,1.46-0.7,2.29-0.34c0.06,0.33,0.12,0.66,0.19,0.99
		C54.75,17.28,53.93,17.51,52.96,17.31z"/>
	<path class="st49" d="M76.66,108.76c0.47,0.73,0.93,1.46,1.38,2.16c-0.5,0.38-1.11-0.45-1.82-0.8
		C76.36,109.66,76.51,109.21,76.66,108.76z"/>
	<path class="st22" d="M38.06,23.29c-0.14,0.87-0.21,1.86-1.45,0.87c0.18-0.76,0.36-1.51,0.54-2.27c0,0,0.2-0.15,0.2-0.15
		c0.33-0.19,0.64-0.14,0.93,0.11C38.52,22.38,38.47,22.86,38.06,23.29z"/>
	<path class="st11" d="M107.41,29.33c-0.02-1.24-0.05-2.49-0.07-3.73C108.55,26.82,108.32,28.06,107.41,29.33z"/>
	<path class="st50" d="M102.13,56.26c0.57-0.92,1.53-0.72,2.38-0.83c0.49,0.37,0.66,0.85,0.5,1.45
		C104.15,56.19,103.12,56.29,102.13,56.26z"/>
	<path class="st50" d="M97.67,56.97c1.11-1.2,2.53-0.58,3.82-0.66C100.34,57.23,99,57.07,97.67,56.97z"/>
	<path class="st16" d="M31.34,55.54c0.63-0.92,1.41-0.66,2.3-0.42c4.33,1.18,8.68,1.75,13.04,0.13c0.77-0.29,1.42-0.42,1.89,0.44
		C42.81,57.73,37.07,57.9,31.34,55.54z"/>
	<path class="st51" d="M61.12,14.27c0.02,0.2,0.01,0.39-0.02,0.59c-0.98,0.06-1.95,0.12-2.93,0.18c0.22-0.53-2.24-0.93-0.05-1.61
		c0.78-0.24,1.42-0.92,2.13-1.4C61.21,12.51,60.56,13.63,61.12,14.27z"/>
	<path class="st50" d="M45.42,26.31c0.26-0.52,0.52-1.04,0.78-1.56c0.37,1.49,1,2.93,0.78,4.52c-0.5-0.51-1.01-1.01-1.51-1.52
		C45.46,27.28,45.44,26.8,45.42,26.31z"/>
	<path class="st9" d="M21.67,27.03c1.31-1.35,2.98-0.5,4.47-0.74C24.83,27.64,23.16,26.79,21.67,27.03z"/>
	<path class="st52" d="M45.63,38.28c-1.4,1.56-1.56-0.49-2.31-0.8c-0.03-0.72-0.06-1.45-0.09-2.17c0.07-0.63,0.21-1.22,0.83-1.55
		C44.57,35.26,45.1,36.77,45.63,38.28z"/>
	<path class="st52" d="M44.05,33.75c-0.05,0.64-0.2,1.23-0.83,1.55c-0.78-0.57-0.59-1.48-0.76-2.26c0,0,0.11-0.03,0.11-0.03
		c0.82-0.39,1.12,0.24,1.48,0.75L44.05,33.75z"/>
	<path class="st11" d="M91.72,30.02c0.24-0.23,0.48-0.45,0.72-0.68c0.09-1.62-0.21-3.26,0.32-4.85c1.01-1.83,2.42-2.39,4.33-1.4
		c1.88,2.05,0.27,4.75,1.26,6.97c0.23,1.16,0.26,2.26-0.75,3.11c-2.46,1.2-4.41,0.56-5.92-1.66C91.25,31,91.26,30.51,91.72,30.02z"
		/>
	<path class="st53" d="M97.6,33.17c0.04-1.04,0.08-2.08,0.12-3.13c0.47-0.29,0.93-0.06,1.4,0.04c0.26,0.23,0.52,0.46,0.77,0.69
		c0.42,0.26,0.43,0.54,0.05,0.85c-1.35,2.42,0.54,4.45,0.8,6.68c-0.52-0.01-1.05-0.02-1.58-0.03C98.65,36.57,98.13,34.87,97.6,33.17
		z"/>
	<path class="st36" d="M91.72,30.02c-0.01,0.5-0.03,0.99-0.04,1.49c-1.95,0.26-3.93-0.69-5.87,0.09c-0.03-0.25-0.04-0.49-0.05-0.74
		c0.11-1.88,1.19-1.3,2.21-0.89C89.21,30.42,90.47,30.33,91.72,30.02z"/>
	<path class="st6" d="M38.05,21.79c-0.23,0-0.47-0.02-0.7-0.05c-0.26-3.74,2.83-4.1,5.19-5.2c1.29,1.57,0.79,2.77-0.77,3.75
		C41.12,22.25,39.86,22.71,38.05,21.79z"/>
	<path class="st27" d="M44.81,27.87c-0.06,0.98-0.12,1.97-0.19,2.95c-0.42,1.01-0.61,2.69-2.06,0.72c-0.89-2.44-0.87-4.98-0.74-7.52
		c0.31,0.15,0.89,0.42,0.88,0.45C41.84,26.6,43.21,27.31,44.81,27.87z"/>
	<path class="st29" d="M36.53,12.77c0.11,0.34,0.2,0.7,0.33,1.03c0.28,0.71,2.07,0.32,1.36,1.56c-0.26,0.46-1.54,0.32-2.36,0.46
		C35.92,14.77,35.51,13.61,36.53,12.77z"/>
	<path class="st34" d="M38.05,21.79c1.52,0.2,2.8-0.2,3.73-1.5c-0.01,1.25-0.01,2.5-0.02,3.75c-1-1.41-2.19-1.88-3.71-0.76
		C38.06,22.79,38.05,22.29,38.05,21.79z"/>
	<path class="st36" d="M42.57,31.55c1.05,0.81,1.47-0.19,2.06-0.72c0.33,1.08-0.17,2-0.57,2.94c-0.49-0.25-0.99-0.5-1.48-0.75
		C42.57,32.53,42.57,32.04,42.57,31.55z"/>
	<path class="st54" d="M97.65,12.03c0.35-0.6,0.9-0.59,1.48-0.48c0.75,1.39,0.2,2.9,0.37,4.34c-0.13,1.46,0.31,2.96-0.3,4.39
		c-0.15,1.04,0.23,2.22-0.75,3.06c-0.13-0.1-0.26-0.2-0.4-0.3c-0.49-0.69-0.74-1.48-0.9-2.3c-0.03-1.6,0.55-3.19,0.12-4.81
		c-0.02-1.15,0.21-2.27,0.3-3.4C97.6,12.36,97.62,12.2,97.65,12.03z"/>
	<path class="st54" d="M99.12,30.08c-0.49,0.76-0.93,0.04-1.4-0.04c-0.4-2.24,0.43-4.65-0.87-6.77c0.11-0.1,0.22-0.2,0.33-0.3
		c0.46-0.15,0.86-0.09,1.19,0.29c0,0,0.07,0.06,0.07,0.06C98.57,25.59,97.95,27.93,99.12,30.08z"/>
	<path class="st21" d="M102.82,24.22c0.51,0.44,1.03,0.87,1.54,1.31c-1.39,0.54-1.5,1.74-1.52,2.99c-0.24,0.31-0.49,0.33-0.75,0.02
		C102.44,27.11,101.43,25.47,102.82,24.22z"/>
	<path class="st25" d="M99.18,15.85c-0.01-1.43-0.03-2.87-0.04-4.3c0.26-0.03,0.53-0.06,0.79-0.09c-0.01,0.2-0.01,0.4,0,0.61
		c-0.02,1.24-0.04,2.47-0.06,3.71C99.68,16.12,99.44,16.13,99.18,15.85z"/>
	<path class="st35" d="M99.18,15.85c0.23-0.03,0.46-0.05,0.69-0.08c-0.19,1.51,0.58,3.16-0.67,4.51
		C99.19,18.8,99.18,17.32,99.18,15.85z"/>
	<path class="st51" d="M99.95,31.62c-0.02-0.28-0.03-0.56-0.05-0.85c0.49,0,0.98,0,1.47,0c0.5-0.44,1-0.4,1.51,0
		c0.25,0.01,0.49,0.02,0.74,0.02c0.01,0.25,0.01,0.49,0,0.74C102.39,31.56,101.17,31.59,99.95,31.62z"/>
	<path class="st47" d="M102.87,30.76c-0.5,0-1,0-1.5,0.01c0.08-0.8-0.14-1.7,0.73-2.23c0.25-0.01,0.5-0.01,0.75-0.02
		C102.44,29.27,102.35,30.02,102.87,30.76z"/>
	<path class="st11" d="M87.97,29.97c-0.81,0.11-1.74-0.08-2.21,0.89c-0.75-0.53-1.5-1.05-2.25-1.58c-0.08-1.31,0.02-2.58,0.74-3.73
		c1.24,0,2.49,0,3.73,0c0,0-0.01-0.02-0.01-0.02c0.1,1.26,0.22,2.53,0,3.79C87.97,29.54,87.97,29.75,87.97,29.97z"/>
	<path class="st46" d="M93.2,24.78c-0.26,1.52,0.59,3.22-0.76,4.56c-1.41-1.61-0.47-3.54-0.71-5.32c0.45-0.43,0.96-0.44,1.5-0.19
		C93.48,24.16,93.47,24.48,93.2,24.78z"/>
	<path class="st22" d="M89.46,13.55c-0.02-0.62-0.15-1.19-0.75-1.52c0.06-0.78-0.17-1.64,0.68-2.17c0.08,0.93,0.59,1.47,1.5,1.65
		c1.23,1.43,1.29,2.86,0.01,4.3c-0.23,0-0.46-0.01-0.69-0.01C89.5,15.2,90.19,14.14,89.46,13.55z"/>
	<path class="st53" d="M90.9,15.81c0-1.43-0.01-2.87-0.01-4.3c0.75-0.08,1.5-0.17,2.26-0.25c0,0,0.14,0.2,0.14,0.2
		c0.22,1.13-0.69,1.99-0.7,3.07c-0.03,0.48-0.05,0.95-0.08,1.43c-0.02,0.5-0.12,0.99-0.3,1.46c-0.27,0.46-0.59,0.84-1.2,0.57
		C90.97,17.26,90.94,16.54,90.9,15.81z"/>
	<path class="st47" d="M93.17,24.03c-0.48,0-0.96,0-1.44,0c-0.01-0.99-0.03-1.98-0.04-2.97c-0.52-0.8-0.46-1.41,0.56-1.7
		C94.17,20.59,94.8,22.09,93.17,24.03z"/>
	<path class="st30" d="M87.96,29.32c-0.79-1.26-0.88-2.53,0-3.79C89.07,26.79,89.11,28.05,87.96,29.32z"/>
	<path class="st29" d="M89.46,13.55c0.87,0.54,0.71,1.43,0.74,2.25c-0.11,1.03,0.32,2.2-0.73,3c-0.01-0.25-0.02-0.51-0.04-0.76
		C89.45,16.54,89.46,15.05,89.46,13.55z"/>
	<path class="st55" d="M92.41,19.55c-0.59,0.33-0.71,0.9-0.73,1.51c-1.05-0.84-0.66-2-0.68-3.06c0.24-0.24,0.47-0.48,0.71-0.71
		C93.36,17.59,93.03,18.52,92.41,19.55z"/>
	<path class="st11" d="M92.41,19.55c0.01-0.83,0.13-1.7-0.71-2.27c0.01-0.48,0.03-0.96,0.04-1.44c0.78-0.52,0.3-1.03-0.01-1.54
		c-0.11-1.28,0.87-1.97,1.54-2.83c0.94-0.29,1.89-0.57,2.83-0.86c0.51,0.48,1.03,0.96,1.54,1.43c0,0-0.03,0.05-0.03,0.05
		c1.21,1.21-0.54,2.47,0.05,3.69c1.62,1.76,0.14,3.49-0.05,5.23c0.04,0.83-0.03,1.63-0.59,2.3c0,0-0.18-0.04-0.18-0.04
		c-1.52-0.23-2.73,0.31-3.66,1.51c-0.01-0.25-0.02-0.5-0.03-0.75C94.1,22.34,92.67,21.04,92.41,19.55z"/>
	<path class="st56" d="M61.12,14.27c-1.91-0.12-0.37-1.59-0.87-2.25c0.07-0.23,0.18-0.45,0.32-0.65c0.5-0.01,1-0.01,1.5-0.02
		c0.01,0.71,0.02,1.42,0.03,2.13C61.77,13.74,61.44,14.01,61.12,14.27z"/>
	<path class="st57" d="M55.22,15.52c-0.76,0.11-1.53,0.23-2.29,0.34c-0.22-0.5-0.43-0.99-0.65-1.49c0.96-0.03,1.92-0.06,2.88-0.08
		C55.17,14.7,55.2,15.11,55.22,15.52z"/>
	<path class="st0" d="M24.71,17.25c-0.45-0.72-1.56-0.96-1.5-2.06c1.4-0.04,2.26,0.47,2.09,2.05c0,0-0.29,0.01-0.29,0.01
		L24.71,17.25z"/>
	<path class="st23" d="M97.04,23.32c-0.16-0.86-0.23-1.69,0.59-2.3c0.89,0.54,0.75,1.42,0.75,2.25
		C97.93,23.29,97.49,23.3,97.04,23.32z"/>
	<path class="st25" d="M97.68,15.78c-1.35-1.21,0.59-2.47-0.05-3.69C99.13,13.3,98.16,14.54,97.68,15.78z"/>
	<path class="st58" d="M91.74,14.29c0.63,0.51,2.04,0.53,1.8,1.53c-0.26,1.08-1.17,0.11-1.79,0.01
		C91.75,15.32,91.75,14.81,91.74,14.29z"/>
	<path class="st27" d="M97.3,19.91c-0.93,0.52-1.23,0.75-1.56,0.85c-0.52,0.17-0.99-0.03-1.21-0.53c-0.23-0.53,0.24-0.65,0.59-0.66
		C95.56,19.58,95.99,19.71,97.3,19.91z"/>
</g>
</svg>
