<?xml version="1.0" encoding="utf-8"?>
<!-- Generator: Adobe Illustrator 24.2.1, SVG Export Plug-In . SVG Version: 6.00 Build 0)  -->
<svg version="1.1" id="Calque_1" xmlns="http://www.w3.org/2000/svg" xmlns:xlink="http://www.w3.org/1999/xlink" x="0px" y="0px"
	 viewBox="0 0 206.71 121.1" style="enable-background:new 0 0 206.71 121.1;" xml:space="preserve">
<style type="text/css">
	.st0{fill:#FEFEFE;}
	.st1{fill:#F6CFAF;}
	.st2{fill:#F6CEAE;}
	.st3{fill:#EFAB72;}
	.st4{fill:#F6CDAB;}
	.st5{fill:#F6CCA9;}
	.st6{fill:#F6CDAC;}
	.st7{fill:#40916C;}
	.st8{fill:#7BC8A4;}
	.st9{fill:#42926D;}
	.st10{fill:#79C7A3;}
	.st11{fill:#7CC9A5;}
	.st12{fill:#F0B07B;}
	.st13{fill:#4F9A78;}
	.st14{fill:#4D9976;}
	.st15{fill:#4A9773;}
	.st16{fill:#F1B17D;}
	.st17{fill:#F5CAA7;}
	.st18{fill:#7FCAA7;}
	.st19{fill:#489572;}
	.st20{fill:#FDF5EF;}
	.st21{fill:#F0AF7A;}
	.st22{fill:#6DC29A;}
	.st23{fill:#66A789;}
	.st24{fill:#65BF95;}
	.st25{fill:#F6D0B1;}
	.st26{fill:#68C097;}
	.st27{fill:#F2B685;}
	.st28{fill:#90D1B3;}
	.st29{fill:#8DD0B1;}
	.st30{fill:#F7D1B2;}
	.st31{fill:#519B79;}
	.st32{fill:#FFC9A5;}
	.st33{fill:#F5CBA8;}
	.st34{fill:#F5C9A5;}
	.st35{fill:#FAE2CF;}
	.st36{fill:#FFC49C;}
	.st37{fill:#88CEAD;}
	.st38{fill:#559D7C;}
	.st39{fill:#F1B27E;}
	.st40{fill:#F0AB74;}
	.st41{fill:#FFC39A;}
	.st42{fill:#F0AE78;}
	.st43{fill:#85CCAB;}
	.st44{fill:#6BC299;}
	.st45{fill:#F4C198;}
	.st46{fill:#F2B888;}
	.st47{fill:#FFC299;}
	.st48{fill:#EFA96F;}
	.st49{fill:#EFA86E;}
	.st50{fill:#71C49D;}
</style>
<g>
	<path class="st0" d="M102.02,5.06c31.86,0,63.72,0.03,95.57-0.06c2.23-0.01,2.68,0.45,2.68,2.67c-0.09,33.97-0.09,67.95,0,101.92
		c0.01,2.22-0.45,2.67-2.68,2.66c-63.72-0.08-127.43-0.08-191.15,0c-2.23,0-2.68-0.45-2.68-2.66c0.09-33.97,0.09-67.95,0-101.92
		C3.77,5.45,4.22,4.99,6.45,5C38.31,5.09,70.17,5.06,102.02,5.06z"/>
	<path class="st1" d="M181.4,53.55c-5.12-0.6-10.36,0.72-15.42-0.84c-0.57-0.18-1.1-0.49-1.65-0.74c-1.96-0.7-3.92-0.71-5.87,0.01
		c-2.63,1.01-5.38,1.38-8.18,1.4c-0.27-0.25-0.67-0.5-0.72-0.83c-0.48-3.63-2.49-5.81-6.09-6.56c3.62-1.28,7.29-0.72,10.93-0.19
		c8.55,1.26,16.85,4.08,25.62,3.96c0.73-0.08,1.45-0.12,2.11,0.28c0.3,0.22,0.53,0.51,0.66,0.86
		C183.03,52.15,182.71,53.11,181.4,53.55z"/>
	<path class="st1" d="M59.85,46.04c5.39-0.8,10.51,1.01,15.64,1.98c5.47,1.03,10.88,1.92,16.44,1.85c3.09,0.38,3.44,1.03,1.93,3.54
		c-6.13-0.32-12.37,1.04-18.35-1.28c-1.42-0.94-2.88-0.9-4.35-0.12c-3.69,1.53-7.58,0.28-11.34,0.81
		C58.26,50.55,58.32,48.29,59.85,46.04z"/>
	<path class="st1" d="M154.05,98.16c-1.75,1.01-3.64,0.62-5.5,0.51c-1.34-2.66-1.62-5.28,0.3-7.82c7.95,1.23,15.89,2.59,23.93,3.16
		c2.34,0.17,4.69,0.69,6.98-0.29c1.45-0.21,2.32,0.5,2.63,1.82c0.27,1.14-0.28,1.82-1.49,1.89c-7.99,0.94-16.03,0.05-24.03,0.54
		C155.91,97.71,154.93,97.19,154.05,98.16z"/>
	<path class="st1" d="M62.14,90.92c5.28-1.32,10.26,0.85,15.25,1.72c5.35,0.93,10.63,1.79,16.05,1.85c1.2-0.2,2.28-0.06,2.66,1.29
		c0.3,1.09-0.13,1.91-1.26,2.29c-5.99-0.21-12.08,0.87-17.9-1.44c-1.19-0.68-2.38-0.73-3.56,0.02c-3.31,1.72-6.91,1.49-10.47,1.51
		C60.95,95.92,60.35,93.55,62.14,90.92z"/>
	<path class="st2" d="M135.32,20.1c-0.99,1.28-1.45,2.6-1.51,4.34c-0.16,5.37-2.84,10.11-4.28,15.17c-0.34,1.2-1.79,2.29-0.38,3.67
		c0.03,0.34-0.09,0.62-0.36,0.84c-0.93,0.8-0.65,1.67-0.2,2.59c0.66,1.34,1,2.71,0.1,4.1c-0.88,0.96-1.96,1.19-3.2,0.89
		c-2.49-1.01-3.83-2.82-3.82-5.54c0.17-1.49,0.57-2.94,0.91-4.4c0.41-1.52,2.05-1.83,2.9-2.92c0.63-0.56,1.25-1.12,1.49-1.97
		c1.36-7.3,5.09-13.76,7.39-20.73C136.66,16.98,135.44,18.67,135.32,20.1z"/>
	<path class="st1" d="M167.92,84c-6.44-1.49-12.87-3-19.31-4.48c-0.79-0.18-1.42,0.25-2.01,0.73c-0.63-0.15-1.27-0.41-1.9,0.04
		c-1.54,1.6-3.28,3-5.26,0.91c-1.86-1.95-1.94-4.11,0.43-5.93c0.33-0.18,0.68-0.31,1.04-0.41c1.61-0.31,3.16-0.98,4.86-0.69
		c5.14,2.95,11.16,3.17,16.56,5.31c3.16,1.25,5.9,3.59,9.51,3.67C170.94,85.24,169.31,84.08,167.92,84z"/>
	<path class="st2" d="M47.94,81.76c1.94-0.79,3.87-1.57,5.81-2.36c2.52-1.69,5.73-1.47,8.31-2.99l-0.03,0.02
		c1.25-0.53,2.62-0.76,3.8-1.47c1-0.46,1.99-0.91,2.99-1.37c0.35,0.19,0.82,0.25,0.93,0.75c-2.86,2.98-6.86,4.14-10.27,6.23
		c-3.34,2.05-7.17,3.3-10.78,4.9c-0.35,0.34-0.76,0.57-1.23,0.69c-0.59,0.16-1.19,0.31-1.73,0.63c-1.46,0.98-0.44,2.77-1.32,3.94
		c-2.26,2.21-4.24,1.7-6.03-0.6c-0.56-1.78-0.55-3.53,0.39-5.2c0.88-1.26,2.09-2.13,3.46-2.81c0.33-0.15,0.69-0.24,1.05-0.29
		C44.83,81.98,46.39,82.42,47.94,81.76z"/>
	<path class="st2" d="M44.18,52.1c-0.82,0.8-1.86,0.64-2.86,0.63c-1.99-2.25-0.9-4.6-0.24-6.93c0.3-0.78,0.79-1.41,1.54-1.81
		c3.88-0.46,7.49,1.34,11.32,1.38c0.98,2.84,0.61,5.52-0.89,8.09c-1.15-0.08-2.09-0.61-2.95-1.32
		C48.13,51.19,46.16,51.23,44.18,52.1z"/>
	<path class="st3" d="M123.37,41.42c-0.28,1.53-0.55,3.05-0.83,4.58c-0.28,0.24-0.6,0.42-0.95,0.55c-0.57,0.11-1.1-0.12-1.65-0.15
		c-4.26-0.18-5.67-1.2-7-5.04c-0.05-2.87-0.37-5.84,2.92-7.41c1.53-0.59,2.62-0.13,3.11,1.43C119.75,37.9,121.53,39.67,123.37,41.42
		z"/>
	<path class="st4" d="M139.05,96c-2.3-3.44-3.66-7.19-3.8-11.34c0.45-0.4,0.98-0.54,1.56-0.51c2.2,0.37,4.46,0.47,6.57,1.31
		c0.35,0.16,0.63,0.41,0.84,0.74c-0.5,2.35,0.57,3.66,2.79,4.23c-1.45,1.81-3.45,3.04-5.04,4.71
		C141.22,95.91,140.29,96.64,139.05,96z"/>
	<path class="st5" d="M30.01,53.31c-0.73,0.03-1.47,0.06-2.2,0.09c-1.92-0.7-3.96-0.45-5.93-0.71c-0.33-0.05-0.64-0.13-0.96-0.22
		c-1.27-0.61-2.48,0.12-3.71,0.19c-2.24-1.34-4.33,0.01-6.42,0.46c-1.23,0.26-2.5,0.7-3.63,0.3c-1.66-0.6-0.39-1.11,0.26-1.55
		c1.34-1.19,3.23-0.67,4.68-1.52c1.44-0.76,2.88-1.52,4.32-2.27c1.29,0.05,2.6-0.14,3.87,0.24c3.25,0.35,6.41,1.49,9.75,0.93
		c0.36-0.13,0.72-0.21,1.09-0.28c1.34-0.19,2.67-0.25,4.01,0.03c1.2,0.37,2.14,1.02,2.57,2.26c0,0.91-0.48,1.46-1.31,1.75
		C34.26,53.23,32.11,52.69,30.01,53.31z"/>
	<path class="st6" d="M50.15,89.31c1.85,1.1,3.71,2.17,5.97,2.1c1.48,2.89,1.97,5.69-0.75,8.2c-3.41,0-6.44-1.54-9.66-2.32
		c-0.18-2.75,2.02-4.41,3.04-6.6C49.11,90.13,49.49,89.58,50.15,89.31z"/>
	<path class="st7" d="M139.05,96c2.01-0.57,3.24-2.17,4.61-3.55c0.97-0.96,1.86-1.96,3.35-2.03c0.61,0.14,1.23,0.28,1.85,0.43
		c-0.1,2.61-0.2,5.21-0.3,7.82C145.12,98.71,141.27,100.25,139.05,96z"/>
	<path class="st7" d="M143.47,45.99c5.78-0.32,5.78-0.32,6.8,7.39c-2.27,0.73-4.51,1.57-6.96,1.37c-2.22-2.86-2.18-5.17,0.18-8.75
		L143.47,45.99z"/>
	<path class="st8" d="M128.49,43.84c0.22-0.19,0.45-0.37,0.67-0.56c2.5-1.21,4.42-0.84,5.48,1.96c0.18,0.3,0.25,0.63,0.24,0.99
		c-0.84,2.62-0.67,5.36-1,8.04c-1.78,0.88-3.55,0.81-5.31-0.09c-1.34-1.14-2.9-1.79-4.61-2.16l-0.04-0.01
		c0.01-1.28,0.67-1.33,1.62-0.86c1.08,0.14,2.04-0.18,2.92-0.78c0.21-0.19,0.45-0.31,0.72-0.38c0.96-0.52,0.32-1.22,0.2-1.85
		C128.98,46.73,127.87,45.46,128.49,43.84z"/>
	<path class="st9" d="M53.05,53.45c-0.22-2.75,0.1-5.45,0.89-8.09c1.97,0.23,3.93,0.45,5.9,0.68c-0.01,2.26-0.03,4.52-0.04,6.77
		C57.66,54.22,55.43,54.66,53.05,53.45z"/>
	<path class="st9" d="M55.36,99.61c1.12-2.66,0.63-5.46,0.76-8.2c1.98-0.52,3.99-0.62,6.02-0.49c0.26,2.41,0.52,4.83,0.77,7.24
		C60.54,99.42,58.07,100.13,55.36,99.61z"/>
	<path class="st4" d="M134.47,46.06c0.06-0.28,0.11-0.55,0.17-0.83c0.45,0.26,0.91,0.51,1.36,0.77c1.27,0.68,2.65,0.36,3.97,0.33
		c1.9-0.05,2.54,0.6,2.43,2.58c-0.3,5.49,0.72,4.81-4.94,4.86c-0.97,0.01-1.96,0.13-2.92-0.18
		C133.26,51.09,134.01,48.58,134.47,46.06z"/>
	<path class="st10" d="M136.67,84.68c-0.48-0.01-0.95-0.02-1.43-0.03c0.01-0.49,0.02-0.99,0.02-1.48c0.65-2.28,1.64-4.44,2.16-6.76
		l-0.03,0.03c0.96-0.4,1.32-3.1,3-0.79c-2.07,1.76-2.02,3.77-0.07,5.34c2.73,2.19,2.83-1.81,4.53-2.21c1.25,1.24,0.71,2.8,0.8,4.26
		c-0.06,0.89-0.37,1.63-1.2,2.08C141.83,85.63,139.27,84.85,136.67,84.68z"/>
	<path class="st4" d="M145.77,74.17c-1.31,1.17-3.06,1.05-4.6,1.54c-0.34-0.46-0.44-0.94-0.2-1.47c2.56-0.78,2.52-3,2.79-5.04
		c0.5-0.85,1.11-1.65,1.48-2.59c0.86-1.52,1.61-3.16,3.58-3.57c2.73,4.72,1.89,7.75-2.76,10.11
		C145.85,73.26,145.87,73.82,145.77,74.17z"/>
	<path class="st11" d="M42.63,43.98c-0.22,0.42-0.44,0.85-0.66,1.27c-2.07,2.22-0.59,5.11-1.46,7.56l0,0.09
		c-1.02,0.16-1.48-0.6-2.03-1.23c-0.95-1.36-2-2.59-3.78-2.88c-0.78-0.35-1.66-0.58-1.85-1.6c0.92-0.96,1.82-1.96,2.78-2.89
		C37.85,42.16,40.17,41.5,42.63,43.98z"/>
	<path class="st4" d="M123.37,41.42c-3.39-0.16-4.18-2.99-5.1-5.35c-0.53-1.34-0.96-2.13-2.42-2.11c3.58-2.31,5.6,1.13,8.25,2.23
		c0.54,1.16,1.39,2.11,2.19,3.09C125.91,40.8,124.17,40.47,123.37,41.42z"/>
	<path class="st1" d="M18.98,45.98c2.04-1.98,4.8-1.62,7.26-2.07c1.22-0.23,2.58,0.65,2.79,1.96c0.25,1.57,1.25,1.58,2.35,1.73
		c-0.86,2.46-3.19,1.15-4.74,1.85c-1.89-0.14-3.82-0.03-5.64-0.75C20.13,47.95,19.68,46.87,18.98,45.98z"/>
	<path class="st4" d="M41.12,72.04c2.8,2.36,3.44,5.44,3.01,8.89c-0.28,0.67-0.84,1.07-1.41,1.47l-0.2,0.1
		c-2.48-0.11-2.73-2.17-3.42-3.85c-0.33-1.25-0.37-2.51-0.11-3.77c0.3-1.04,0.75-1.98,1.64-2.66C40.79,72.16,40.96,72.1,41.12,72.04
		z"/>
	<path class="st12" d="M148.83,63.04c-1.02,1.28-2.05,2.57-3.07,3.85c-1.08-0.59-1.95-1.38-2.51-2.49c0.29-1.13,1.01-0.93,1.06-0.92
		c-2.5,0.28-3.23,2.99-4.55,5.04c-0.35,0.14-0.67,0.09-0.97-0.14c-1.02-3.16,0.76-5.02,3.18-6.42
		C144.48,60.49,146.87,60.66,148.83,63.04z"/>
	<path class="st13" d="M180.91,97.43c2.31-2.06,0.24-2.78-1.14-3.71c0.2-1.05,0.82-1.81,1.68-2.41c0.58-0.68,1.34-1.25,1.4-2.26
		c0.19-1.03-0.24-2.57,1.75-2.12c0.31,3.71,0.86,7.43-0.76,11.01C182.78,98.25,181.72,98.54,180.91,97.43z"/>
	<path class="st14" d="M93.84,53.41c1.27-2.21-0.19-2.95-1.93-3.54c0.73-1.31,1.46-2.63,2.19-3.94c-0.3-0.71,1.84,0.88,0.69-0.74
		c-0.41-0.57-0.43-1.4,0.15-2.04c0.47-0.37,0.94-0.32,1.41,0.01c0.4,3.44,1.28,6.88,0.07,10.33C95.55,54.01,94.67,54.51,93.84,53.41
		z"/>
	<path class="st3" d="M17.2,52.66c1.02-1.57,2.27-1.99,3.84-0.76c-0.33,0.31-0.18,0.66-0.07,1c0.06-0.33-0.26-0.69,0.05-1.01
		c2.25,0.57,5.02-1.22,6.78,1.5c-2.5,1.59-5.28,1.68-8.08,1.33C18.59,54.58,17.23,54.34,17.2,52.66z"/>
	<path class="st15" d="M185.07,43.04c1.97,3.49-0.17,6.96-0.07,10.43c-3.43,1.33-1.61-2.25-2.82-3l0.04,0.09
		c-1.95-1.91,0.4-3.13,0.75-4.67l-0.03,0.04C183.92,45.18,183.32,43.26,185.07,43.04z"/>
	<path class="st16" d="M138.79,68.37c0.32-0.02,0.63-0.05,0.95-0.07c1.1,0.58,1.97-0.07,2.89-0.52c0.88,0.07,1.92-0.05,1.64,1.38
		c-0.17,2.2,2.05,5.81-3.04,5.12c-1.19-0.22-0.94-1.37-1.36-2.09C139.15,71.02,138.91,69.71,138.79,68.37z"/>
	<path class="st13" d="M94.84,98.07c1.85-2.09,0.38-2.89-1.39-3.58c0.57-1.62,1.59-2.91,2.9-3.99c1.76,0.45,2.14,1.73,1.93,3.31
		c-0.21,1.53-0.36,3.07-0.49,4.62C96.72,98.92,95.68,99.31,94.84,98.07z"/>
	<path class="st12" d="M35.98,83.25c-4.91-4.11-4.67-8.18,0.69-11.38c0.34-0.18,0.66-0.15,0.95,0.1c0.25,0.62,0.15,1.15-0.29,1.68
		c-3.85,4.65-3.75,5.29,1.18,7.83c0.19,0.96-0.16,1.74-0.8,2.43C36.85,84.43,36.41,83.85,35.98,83.25z"/>
	<path class="st17" d="M134.57,53.42c1.24,0,2.49-0.13,3.7,0.03c2.93,0.38,3.94-0.77,3.77-3.71c-0.12-2.13-0.58-3.26-2.94-3.05
		c-1.06,0.09-2.25,0.33-3.11-0.69c2.5,0,4.99-0.01,7.49-0.01c-0.25,2.91-1.82,5.8-0.18,8.76c-2.91-0.77-5.88-0.33-8.82-0.53
		c-0.19-0.2-0.24-0.38-0.15-0.55C134.42,53.5,134.5,53.42,134.57,53.42z"/>
	<path class="st18" d="M38.94,89.89c1.77,1.51,3.53,2.51,5.28-0.03c0.33-0.19,0.64-0.17,0.92,0.11c0.25,0.49,0.26,0.99,0.05,1.5
		c-2.31,1.93-2.31,1.93,0.1,4.01c0.1,0.55-0.02,1.02-0.53,1.33c-3.15-0.65-5.07-2.8-6.61-5.4c-0.38-0.48-0.36-1-0.16-1.54
		C38.31,89.63,38.63,89.63,38.94,89.89z"/>
	<path class="st10" d="M50.15,89.31c-0.22,0.47-0.45,0.93-0.67,1.4c-1.25,0.11-2.02,3.15-3.71,0.61c-0.1-2.07-1.05-4.34,1.36-5.83
		c0.52,0,1.04,0,1.56,0C49.17,86.75,49.66,88.03,50.15,89.31z"/>
	<path class="st19" d="M97.78,98.42c-0.54-0.85-0.91-1.83-0.44-2.71c1.12-2.07,0.2-3.64-1-5.21c-0.02-0.26,0.06-0.47,0.25-0.64
		c0.88-0.51,0.42-2.14,1.85-2.18C99.95,91.37,99.23,94.92,97.78,98.42z"/>
	<path class="st20" d="M112.93,41.36c1.43,3.16,4.13,4.37,7.37,4.73c0.23,0.29,0.18,0.51-0.16,0.67c-0.95,0.43-2.1,2.13-2.73,1.2
		C115.92,45.77,111.69,45.33,112.93,41.36z"/>
	<path class="st21" d="M26.19,48.93c1.44-1.58,3.71,0.04,5.2-1.34c0.49-0.13,0.98-0.26,1.47-0.39c0.78,0.36,1.55,0.73,2.33,1.09
		c0.22,0.35,0.17,0.66-0.15,0.93c-1.41,0.38-2.95-0.37-4.31,0.48l0,0.04C29.16,49.74,27.34,51.19,26.19,48.93z"/>
	<path class="st22" d="M46.52,92.1c1.12-0.19,1.31-2.32,2.95-1.4c-1.26,2.2-2.52,4.39-3.77,6.59c-0.31-0.16-0.62-0.32-0.93-0.48
		c0.04-0.58,0.09-1.16,0.13-1.74c0.01-0.45,0.19-0.85,0.39-1.24C45.64,93.22,45.77,92.44,46.52,92.1z"/>
	<path class="st23" d="M96.42,53.48c-0.02-3.44-0.04-6.89-0.07-10.33c1.53,3.01,0.82,6.37,1.45,9.52
		C97.94,53.34,97.06,53.48,96.42,53.48z"/>
	<path class="st24" d="M183.85,97.95c0.66-3.64,0.83-7.32,0.76-11.01c1.59,3.47,0.52,7.06,0.46,10.6
		C185.06,97.68,184.27,97.81,183.85,97.95z"/>
	<path class="st24" d="M134.57,53.42c-0.03,0.27-0.05,0.53-0.08,0.8c0,0-0.3,0.08-0.3,0.08s-0.31-0.03-0.31-0.03
		c-1.4-2.85-0.83-5.56,0.58-8.2C134.5,48.52,134.53,50.97,134.57,53.42z"/>
	<path class="st2" d="M35.98,83.25c0.49,0.22,0.97,0.43,1.46,0.65c0.69-0.17,1,0.23,1.21,0.79c0.07,1.12-0.32,2.17-0.46,3.26
		c-0.06,0.74-0.15,1.47-0.89,1.9C36.23,87.76,36.08,85.51,35.98,83.25z"/>
	<path class="st25" d="M62.06,76.42c-2.36,2.14-5.53,2.02-8.31,2.99C56.06,77.14,59.18,77.13,62.06,76.42z"/>
	<path class="st26" d="M40.51,52.81c-0.03-1.98-0.13-3.97-0.05-5.95c0.03-0.8-0.19-2.21,1.51-1.61c-0.49,2.47-1.04,4.93-0.65,7.47
		C41.05,52.76,40.78,52.78,40.51,52.81z"/>
	<path class="st27" d="M18.98,45.98c1.33,0.13,1.95,0.94,2.09,2.2c0.15,0.7-0.06,1.04-0.83,0.82c-1.31-0.21-2.82,0.46-3.84-0.92
		c0.44-0.54,0.82-1.17,1.62-1.25c0.33,0.27,0.64,0.5,0.53-0.23C18.7,46.39,18.84,46.18,18.98,45.98z"/>
	<path class="st28" d="M125.54,51.15c-0.66,0.07-1.26,0.22-1.62,0.86c-1.19-0.67-1.94-1.66-2.21-3c-0.47-1-0.78-1.99,0.1-2.93
		c0.24-0.04,0.48-0.07,0.72-0.08C122.09,48.56,123.8,49.86,125.54,51.15z"/>
	<path class="st29" d="M137.43,76.41c0.63,2.68-0.88,4.68-2.16,6.76C135.25,80.68,135.94,78.42,137.43,76.41z"/>
	<path class="st29" d="M139.87,72.19c0.45,0.7,0.9,1.39,1.36,2.09c-0.02,0.48-0.03,0.95-0.05,1.43c-0.26-0.02-0.51-0.04-0.77-0.06
		c-1.44-1.38-1.92,0.85-3,0.79C137.63,74.68,139.81,74.05,139.87,72.19z"/>
	<path class="st30" d="M167.92,84c1.3-0.32,2.84,0.45,3.93-0.86c0.83,0.11,1.65,0.22,3.18,0.42C172.23,85.1,170.1,85.16,167.92,84z"
		/>
	<path class="st31" d="M182.97,45.9c0.2,1.63-1.71,2.92-0.75,4.67c-0.73-0.27-1.47-0.54-2.2-0.81
		C180.74,48.27,181.61,46.9,182.97,45.9z"/>
	<path class="st25" d="M135.32,20.1c-0.31-1.32,0.49-2.91-0.95-3.97c0.18-0.67-0.05-1.74,0.8-1.84c1.03-0.12,0.91,0.94,0.87,1.6
		C135.93,17.31,136.42,18.84,135.32,20.1z"/>
	<path class="st32" d="M144.25,84.68c0.62-0.35,0.72-0.96,0.82-1.57c0.81-0.5-0.56-2.43,1.42-2.16c0.28,2.19,0.1,4.19-2.26,5.25
		c-0.27-0.04-0.53-0.08-0.8-0.13C143.11,85.26,143.81,85.05,144.25,84.68z"/>
	<path class="st33" d="M158.45,51.98c1.8-1.73,3.92-0.5,5.89-0.6c0.04,0,0.13,0.18,0.12,0.27c-0.01,0.11-0.09,0.21-0.14,0.32
		C162.37,51.97,160.41,51.97,158.45,51.98z"/>
	<path class="st31" d="M182.18,50.48c1.36,0.61,0.39,3.39,2.82,3c-1.18,1.03-2.38,1.15-3.6,0.07
		C182.31,52.69,182.35,51.61,182.18,50.48z"/>
	<path class="st21" d="M146.48,80.94c-0.47,0.72-0.95,1.44-1.42,2.16c-0.06-1.44-0.13-2.89-0.19-4.33c1.1-0.12,1.5,0.58,1.73,1.48
		C146.61,80.49,146.57,80.72,146.48,80.94z"/>
	<path class="st28" d="M123.97,52.02c2.05-0.38,3.65,0.21,4.61,2.16C126.78,54,125.25,53.27,123.97,52.02z"/>
	<path class="st34" d="M30.01,53.31c2.12-1.29,4.46-0.33,6.68-0.63c0.2,0.18,0.28,0.35,0.21,0.54c-0.06,0.18-0.13,0.27-0.19,0.27
		C34.47,53.43,32.24,53.37,30.01,53.31z"/>
	<path class="st33" d="M126.29,39.28c-1.82-0.26-2.03-1.66-2.19-3.09c0.91,0.45,1.48,2.3,2.88,0.68
		C126.74,37.67,126.51,38.47,126.29,39.28z"/>
	<path class="st35" d="M42.72,82.4c0.47-0.49,0.94-0.98,1.41-1.47c1.04,1.3,2.56,0.47,3.81,0.83C46.32,82.97,44.47,82.33,42.72,82.4
		z"/>
	<path class="st33" d="M44.18,52.1c1.98-1.38,3.95-1.42,5.92,0.03C48.13,52.11,46.16,52.11,44.18,52.1z"/>
	<path class="st4" d="M12.08,50.34c-1.33,1.21-3.08,1.13-4.67,1.52C8.62,50.29,10.31,50.2,12.08,50.34z"/>
	<path class="st33" d="M71.14,52.01c1.49-1.46,2.93-1.18,4.35,0.12C74.04,52.09,72.59,52.05,71.14,52.01z"/>
	<path class="st13" d="M98.45,87.68c-0.76,0.61-0.33,2.21-1.85,2.18C96.86,88.83,96.16,86.99,98.45,87.68z"/>
	<path class="st2" d="M121.82,46.08c-0.03,0.98-0.07,1.96-0.1,2.93c-0.86-0.52-1.38-1.27-1.58-2.25c0.07-0.22,0.12-0.45,0.16-0.68
		C120.8,46.08,121.31,46.08,121.82,46.08z"/>
	<path class="st31" d="M185.07,43.04c-0.92,0.81-0.88,2.32-2.13,2.9C183.34,44.75,182.67,42.78,185.07,43.04z"/>
	<path class="st17" d="M73.38,96.65c0.96-1.69,2.41-0.55,3.65-0.62c0.03,0,0.1,0.2,0.09,0.3c-0.02,0.11-0.12,0.2-0.18,0.3
		C75.75,96.63,74.56,96.64,73.38,96.65z"/>
	<path class="st25" d="M69.73,74.34c-0.31-0.25-0.62-0.5-0.93-0.75c0.8-0.45,1.82-1.54,2.48-0.54
		C71.79,73.8,70.64,74.31,69.73,74.34z"/>
	<path class="st25" d="M65.82,74.96c-0.98,1.22-2.29,1.61-3.79,1.47C63.1,75.46,64.37,74.97,65.82,74.96z"/>
	<path class="st4" d="M37.46,72.06c-0.26-0.06-0.53-0.13-0.79-0.19c1.52-0.93,3.01-0.91,4.45,0.17c0,0-0.2,0.16-0.2,0.16
		c-0.64,0.32-1.29,0.62-2.04,0.53C38.33,72.68,37.87,72.41,37.46,72.06z"/>
	<path class="st36" d="M38.93,51.19c0.53,0.57,1.05,1.14,1.58,1.72c-0.63,0.76-1.42,0.8-2.29,0.53c-0.44-0.36-0.55-0.81-0.4-1.34
		C38.04,51.61,38.38,51.27,38.93,51.19z"/>
	<path class="st23" d="M94.95,43.14c-0.84,0.76,1.83,2.57-0.83,2.79C94.34,44.98,93.94,43.86,94.95,43.14z"/>
	<path class="st37" d="M37.3,89.84c0.05-0.73,0.11-1.46,0.16-2.2c1.78,0.24,1.02,1.3,0.73,2.22c-0.01,0.52-0.02,1.04-0.03,1.56
		C37.87,90.89,37.58,90.37,37.3,89.84z"/>
	<path class="st12" d="M18.56,46.59c0.4,0.38,0.79,0.75,1.19,1.13c-0.16,0.13-0.3,0.36-0.47,0.37c-0.94,0.1-1.14-0.55-1.25-1.28
		C18.17,46.66,18.35,46.58,18.56,46.59z"/>
	<path class="st38" d="M182.85,89.05c0.91,1.6-0.57,1.73-1.4,2.26C181.92,90.56,182.38,89.81,182.85,89.05z"/>
	<path class="st11" d="M38.18,51.93c0.01,0.5,0.03,1,0.04,1.5c-0.51,0.02-1.01,0.03-1.52,0.05c-0.01-0.27-0.01-0.54-0.02-0.81
		c0.25-0.48,0.5-0.96,0.74-1.44C38.09,51.03,38.48,51.12,38.18,51.93z"/>
	<path class="st17" d="M154.05,98.16c0.85-1.46,1.83-0.98,2.82-0.18C155.94,98.04,154.99,98.1,154.05,98.16z"/>
	<path class="st4" d="M76.15,93.08c-0.9,0.65-1.83,0.6-2.8,0.3C74.2,92.27,75.23,93.22,76.15,93.08z"/>
	<path class="st39" d="M129.23,50.5c-0.26-0.04-0.51-0.08-0.77-0.12c0.3-1.57-0.45-2.78-1.13-4.12c-0.34-0.67-1.73-2.85,1.16-2.41
		c0.53,1.44,1.06,2.87,1.59,4.3C130.28,49.1,131.08,50.27,129.23,50.5z"/>
	<path class="st40" d="M38.27,84.65c-0.28-0.25-0.55-0.5-0.83-0.75c0.25-0.74,0.5-1.48,0.75-2.21c0.45-1.05,0.22-2.45,1.54-3.07
		c0.82,1.38,1.27,3.01,2.79,3.89c-0.95,0.73-1.9,1.45-2.85,2.17C39.19,85.1,38.73,85.1,38.27,84.65z"/>
	<path class="st41" d="M46.52,92.1c-0.15,0.79,0.03,1.72-0.87,2.23c-1.04-0.79-1.57-1.7-0.75-2.96c-0.01-0.48-0.03-0.97-0.04-1.45
		c0.17-1.28-0.31-2.7,0.76-3.8c0.35-0.57,0.9-0.68,1.51-0.64C45.82,87.58,46.55,89.88,46.52,92.1z"/>
	<path class="st42" d="M45.62,86.12c-0.15,1.29,0.55,2.74-0.76,3.8c-0.21-0.04-0.43-0.06-0.64-0.06
		C44.51,88.55,42.53,86.39,45.62,86.12z"/>
	<path class="st43" d="M38.27,84.65c0.46,0.01,0.93,0.02,1.39,0.03c-0.99,1.63-0.71,3.44-0.72,5.21c-0.25-0.01-0.5-0.02-0.76-0.03
		c-0.04-0.81,0.12-1.68-0.73-2.22C37.73,86.64,38,85.65,38.27,84.65z"/>
	<path class="st42" d="M116.31,40.41c-0.6-1.12-0.6-1.87-0.17-2.69C116.85,38.42,116.58,39.17,116.31,40.41z"/>
	<path class="st44" d="M144.25,84.68c-0.27,0.46-0.55,0.92-0.82,1.39c-2.25-0.45-4.65-0.21-6.75-1.39
		C139.19,84.68,141.72,84.68,144.25,84.68z"/>
	<path class="st45" d="M20.25,48.99c0.27-0.27,0.55-0.54,0.82-0.82c1.65,0.61,3.36,0.79,5.11,0.75c1.31,1.39,3.03,0.53,4.54,0.81
		C27.09,51.45,23.73,49.48,20.25,48.99z"/>
	<path class="st12" d="M38.18,51.93c-0.25-0.23-0.5-0.47-0.75-0.7c-0.74-0.52-1.48-1.05-2.22-1.57c-0.27-0.15-0.36-0.31-0.27-0.47
		c0.09-0.16,0.17-0.24,0.26-0.24c0-0.22-0.01-0.44-0.01-0.67c1.95,0.07,2.86,1.47,3.75,2.9C38.68,51.44,38.43,51.69,38.18,51.93z"/>
	<path class="st46" d="M35.2,48.95c0,0.24,0.01,0.47,0.01,0.71c-1.5,0.01-2.99,0.02-4.49,0.04C32.03,48.35,33.7,49.19,35.2,48.95z"
		/>
	<path class="st47" d="M129.23,50.5c0.92-0.56,0.75-1.5,0.85-2.35c0.91,0.96,1.05,2.18,0.38,3.16
		C130.1,51.81,129.55,50.96,129.23,50.5z"/>
	<path class="st48" d="M144.27,69.16c-0.51-0.97-1.43-0.84-2.29-0.86c-1.43-1.52-1.29-1.87,1.49-3.72c1.49,0.06,2.17,0.9,2.29,2.31
		C145.73,67.95,145.63,68.97,144.27,69.16z"/>
	<path class="st48" d="M39.73,78.61c-0.17,1.19-0.53,2.29-1.54,3.07c-1.69-0.27-3.79,0.12-4.34-2.23c-0.61-2.63,0.37-4.78,2.55-6.25
		c0.51-0.34,1.04-0.43,1.07-1.14c0.49-0.01,0.97-0.01,1.46-0.02c0.86,0.55,1.48,1.18,0.8,2.27C39.72,75.74,39.72,77.18,39.73,78.61z
		"/>
	<path class="st12" d="M39.72,74.3c-0.27-0.76-0.53-1.51-0.8-2.27c0.67,0.06,1.33,0.11,2,0.17C40.52,72.91,40.12,73.61,39.72,74.3z"
		/>
	<path class="st49" d="M143.47,64.58c0.01,1.44-2.53,1.87-1.49,3.72c-0.1,0.56-0.12,1.57-0.3,1.59c-1.12,0.16-1.47-0.83-1.94-1.59
		c-0.27-3.76,1.99-4.91,5.64-5.24C144.51,63.74,143.99,64.16,143.47,64.58z"/>
	<path class="st49" d="M21.02,51.9c0.53,0.42,1.06,0.84,1.61,1.27c-2.25-0.12-2.25-0.12-1.59-1.27C21.05,51.9,21.02,51.9,21.02,51.9
		z"/>
	<path class="st50" d="M44.9,91.37c0.25,0.99,0.5,1.98,0.75,2.96c-0.25,0.25-0.5,0.5-0.75,0.75c-2.07,0.94-2.97-0.69-3.03-1.99
		C41.8,91.39,44.06,92.31,44.9,91.37z"/>
	<path class="st42" d="M36.28,78.83c-0.47-0.79-0.46-1.54,0.01-2.52C36.82,77.26,36.88,78.01,36.28,78.83z"/>
</g>
</svg>
