<?xml version="1.0" encoding="utf-8"?>
<!-- Generator: Adobe Illustrator 24.2.1, SVG Export Plug-In . SVG Version: 6.00 Build 0)  -->
<svg version="1.1" id="Calque_1" xmlns="http://www.w3.org/2000/svg" xmlns:xlink="http://www.w3.org/1999/xlink" x="0px" y="0px"
	 viewBox="0 0 192.25 89" style="enable-background:new 0 0 192.25 89;" xml:space="preserve">
<style type="text/css">
	.st0{fill:#FEFEFE;}
	.st1{fill:#FFDCC5;}
	.st2{fill:#40916C;}
	.st3{fill:#FFDCC4;}
	.st4{fill:#79C7A3;}
	.st5{fill:#7BC8A4;}
	.st6{fill:#FFC39A;}
	.st7{fill:#74C5A0;}
	.st8{fill:#469470;}
	.st9{fill:#489572;}
	.st10{fill:#68C097;}
	.st11{fill:#FFDAC2;}
	.st12{fill:#FFE8D8;}
	.st13{fill:#FFE3D0;}
	.st14{fill:#73C59F;}
	.st15{fill:#FFC9A4;}
	.st16{fill:#FFD9C0;}
	.st17{fill:#FFD8BE;}
	.st18{fill:#FDFAF9;}
	.st19{fill:#FFD1B1;}
	.st20{fill:#FFD9BF;}
	.st21{fill:#5DA282;}
	.st22{fill:#FFDFCA;}
	.st23{fill:#FFF6F1;}
	.st24{fill:#FFD5B9;}
	.st25{fill:#539C7B;}
	.st26{fill:#FFD0B0;}
	.st27{fill:#FFC7A2;}
	.st28{fill:#84CCAA;}
	.st29{fill:#FFCCAA;}
	.st30{fill:#FFEADB;}
	.st31{fill:#FFF2E9;}
	.st32{fill:#FFDDC6;}
	.st33{fill:#FFD4B7;}
	.st34{fill:#FFD3B6;}
	.st35{fill:#FEFCFB;}
	.st36{fill:#FFD1B3;}
	.st37{fill:#FFFAF6;}
	.st38{fill:#FFD2B5;}
	.st39{fill:#FFC299;}
	.st40{fill:#FFD6BA;}
	.st41{fill:#FFC7A1;}
	.st42{fill:#65BF95;}
	.st43{fill:#6DC29A;}
	.st44{fill:#FFD4B8;}
	.st45{fill:#FFF3EC;}
</style>
<g>
	<path class="st0" d="M95.63,85.94c-29.98,0-59.97-0.03-89.95,0.06C3.45,86.01,2.99,85.55,3,83.32C3.1,57.36,3.1,31.39,3,5.43
		C2.99,3.2,3.45,2.75,5.68,2.75c59.97,0.08,119.93,0.08,179.9,0c2.23,0,2.68,0.45,2.68,2.68c-0.1,25.96-0.1,51.92,0,77.88
		c0.01,2.23-0.45,2.69-2.68,2.68C155.59,85.91,125.61,85.94,95.63,85.94z"/>
	<path class="st1" d="M110.71,72.29c-2.05-0.83-4.12-0.44-6.2-0.19c-5.46,0.64-10.76,0.48-15.91-1.95c-3.12-1.47-6.59-0.7-9.87-0.31
		c-2.84,0.33-5.65,0.56-8.49,0.34c-3.19-2.83-3.25-5.63-0.19-9.31c0.37-0.22,0.76-0.38,1.17-0.48c6.42-0.91,12.2,1.99,18.28,3.09
		c3.29,0.65,5.89,3.48,9.52,3.04c3.44,0.93,6.94,1,10.46,0.76c1.82,0.33,2.78,1.53,2.95,3.28C112.53,71.65,112.06,72.5,110.71,72.29
		z"/>
	<path class="st1" d="M174.63,17.17c-0.78,2.72,0,5.44-0.02,8.17c-0.57,3.44,0.12,6.88-0.11,10.32c-1.98,6.48,0.9,12.36,2.15,18.46
		c0.73,3.54,2.62,6.98,1.35,10.78c-0.16,0.01-0.32,0.02-0.48,0.03c-1.26-0.1-2.49-0.57-3.79-0.36c-0.35-0.07-0.64-0.23-0.89-0.49
		c-0.96-1.29-0.6-2.8-0.76-4.23c-0.79-3.91-0.82-7.93-1.89-11.79c-0.23-4.32-0.64-8.64,0.44-12.91c0.85-3.27,0.45-6.55,0.1-9.83
		c0.43-2.96-1.27-6.62,2.7-8.44C173.9,16.76,174.29,16.86,174.63,17.17z"/>
	<path class="st1" d="M146.28,67.15c-0.23-0.21-0.45-0.42-0.68-0.64c-0.43-0.47-1.07-0.67-1.49-1.15c-0.21-0.26-0.36-0.54-0.45-0.87
		c-0.09-0.5-0.05-1,0.05-1.5c0.19-3.41-0.13-6.98,2.95-9.49c0.8-0.59,1.66-1.09,2.34-1.84c2.06-1.5,1.64-4.08,2.63-6.05
		c1.4,0.66,2.24,0.2,2.82-1.22c0.66-1.6,1.43-3.18,2.94-4.2c1.12-1.19,2.37-2.27,3.12-3.76l-0.02,0.03
		c0.81-1.01,1.84-1.88,2.24-3.18c0.68-1.45,1.36-2.9,2.04-4.35c0.51-0.16,0.75-0.74,1.3-0.85c0.87,0.26,0.98,0.94,0.96,1.7
		c-0.26,1.42-0.53,2.84-1.42,4.04c-3.2,4.02-4.91,8.86-7.33,13.32c-0.65,1.19-1.43,2.32-2.26,3.4c-0.21,0.27-0.46,0.5-0.73,0.71
		c-0.39,0.31-0.79,0.6-1.16,0.94c-1.98,1.75-2.42,4.72-4.81,6.14c-0.36,0.38-0.24,0.9-0.39,1.34c0.22-0.48,0.05-1.11,0.57-1.49
		c0.86-0.2,1.39,0.26,1.82,0.92C151.77,63.68,150.65,65.46,146.28,67.15z"/>
	<path class="st1" d="M26.99,61.83c-2.64-2.1-6.07-2.2-8.99-3.61c-0.39-0.33-0.98-0.49-1.02-1.14c0.09-0.37,0.31-0.61,0.68-0.69
		c1.04-0.06,2.1,0.07,3.11-0.31c2.67-0.54,5.05,0.32,7.3,1.73c0.48,0.08,0.15-0.65,0.07-0.16c-0.03,0.18-0.17,0.23-0.35,0.06
		c-0.61-0.58-2.14-0.43-1.54-1.96c0.53-0.16,1.03-0.17,1.49,0.2c3.48,0.52,6.96-1.52,10.45-0.03c-0.11,0.13-0.21,0.26-0.31,0.39
		c-0.72,0.46-1.56,0.48-2.36,0.64c-0.62,0.14-1.23,0.34-1.83,0.55c-0.99,0.39-2.03,0.74-1.85,2.14c3.11,3.02,6.55,3.07,10.23,1.23
		c2.21,0.35,3.61,1.6,3.81,3.86c0.2,2.3-1.17,3.64-3.15,4.47c-2.18,0.58-4.05-0.55-6.03-1.1c-2.89-0.99-4.86-3.52-7.68-4.63
		C28.3,62.98,27.59,62.47,26.99,61.83z"/>
	<path class="st1" d="M56.16,56.66c3.02,2.33,6.6,2.48,10.19,2.62c0.17,0.2,0.23,0.4,0.17,0.6c-0.06,0.2-0.11,0.3-0.17,0.3
		c-3.07,2.09-4.52,5.25-5.67,8.61c-3-1.03-6.06-0.88-9.14-0.48c-0.43,0.03-0.8-0.1-1.12-0.38c-2.16-3.16-1.29-6.15,0.51-9.09
		C52.35,57.32,54.12,56.66,56.16,56.66z"/>
	<path class="st2" d="M173.22,64.07c0.19,0.01,0.38,0.02,0.57,0.04c1.48-0.61,2.59,0.46,3.85,0.84c0,0,0.36-0.06,0.36-0.06
		c-0.59,1.27-1.17,2.54-1.76,3.81c-0.57,0.92-1.31,1.67-2.24,2.24c-2.79,2.69-6.2,2.68-9.71,2.23c-3.21-2.62-3.54-6.1-2.93-9.86
		c0.18-0.57,0.51-1.05,0.99-1.41c0.32-0.2,0.68-0.29,1.06-0.26c1.24,0.34,2.12,1.24,3.1,2c1.78,1.41,3.74,1.42,5.78,0.74
		C172.58,64.24,172.9,64.14,173.22,64.07z"/>
	<path class="st3" d="M162.1,63.01c-0.64,3.69,0.5,6.99,2.2,10.17c-4.58-0.02-9.22,0.38-13.47-1.97c0-0.18,0-0.35,0-0.53
		c1.65-3.68,4.4-6.35,7.72-8.52c0.74-0.25,1.49-0.32,2.26-0.19C161.4,62.13,161.92,62.35,162.1,63.01z"/>
	<path class="st4" d="M56.16,56.66c-1.5,0.79-3.01,1.58-4.51,2.37c-2.21,1.25-2.6,3.19-2.4,5.56c0.12,1.39,1.32,2.74,0.31,4.21
		c-0.27,0.25-0.57,0.44-0.9,0.57c-1.04,0.29-2.12,0.39-3.17,0.62c-1.18,0.07-2.21-0.21-2.86-1.31c3.74-3.05,3.51-5.13-0.81-7.43
		c-0.39-0.41-0.45-0.89-0.33-1.42c0.43-1.27,1.61-1.67,2.6-2.3C47.99,55.57,51.95,54.33,56.16,56.66z"/>
	<path class="st2" d="M60.69,68.8c-0.26-4.48,1.67-7.55,5.86-9.18c3.45-0.49,3.54-0.45,3.67,1.56c-1.78,3.01-1.87,6.01,0.01,9.01
		C66.73,71.93,63.67,70.6,60.69,68.8z"/>
	<path class="st5" d="M160.61,62.63c-0.72,0.04-1.44,0.09-2.17,0.13c-3.38,1.88-6.65,3.86-7.58,8.05c-0.01,0.14-0.02,0.27-0.03,0.41
		c-1.87-0.96-3.33-2.38-4.55-4.07c2.56-2.13,5.02-4.32,4.5-8.16c-0.35-0.76-0.34-1.69,0.57-1.66c2.52,0.08,4.96-1.24,7.51-0.42
		c1.01,0.44,1.74,1.16,2.21,2.15C161.51,60.32,161.55,61.54,160.61,62.63z"/>
	<path class="st6" d="M147.19,53.85c-3.06,2.62-2.05,6.48-2.96,9.76c-2.39-0.71-0.67-2.67-1.21-3.95c-0.83-4.19-2.22-8.37-0.3-12.62
		c0.68-0.53,1.36-1.07,2.04-1.6c1.82-0.32,3.64-2.19,5.45,0.02l-0.02-0.04c0.34,1.64-0.49,3.14-0.56,4.73
		C148.78,51.35,148.43,52.9,147.19,53.85z"/>
	<path class="st7" d="M112.76,58.05c0.25-2.01,1.51-1.94,2.97-1.46c2.16,1.49,2.99,3.68,3.26,6.17c0.12,2.04-0.19,4.11,0.31,6.13
		c0.23,1.32,0.75,2.51,1.61,3.55c-2,1.17-3.81,3.06-6.48,1.82c0.32-3.69-0.62-7.25-1.12-10.86
		C113.69,61.56,112.1,59.92,112.76,58.05z"/>
	<path class="st8" d="M174.63,17.17l-0.34-0.09l-0.35,0.03c-0.8,0.04-1.6,0.24-2.41,0.15c-1.32-0.95-2.67-0.45-4.01-0.09
		c-2.22-1.32-3.29-4.06-6.04-4.79c-0.57-0.15-0.23-1.05,0.4-1.4c4.74-1.81,9.07,0.26,13.49,1.46c0.38,0.1,0.28,0.61,0.22,0.97
		C175.66,14.76,175.76,16.12,174.63,17.17z"/>
	<path class="st9" d="M114.22,63.49c0.5,3.58,1.92,7.15,0.21,10.77c-1.45-0.25-3.02-0.27-3.72-1.97c2.79-2.14,0.07-3.03-0.96-4.31
		c-0.39-0.33-0.79-0.65-0.63-1.26c0.95-1.1,1.9-2.21,2.85-3.31C112.73,62.99,113.48,63.12,114.22,63.49z"/>
	<path class="st10" d="M120.91,72.44c-2.38,0.22-2.17-1.45-2.15-2.98c-0.96-2.17,0.28-4.58-0.74-6.75c0.39-2.48-2.03-3.9-2.29-6.13
		c2.85-1.05,3.53,1.44,4.08,3.02C121.24,63.74,122.12,68.04,120.91,72.44z"/>
	<path class="st11" d="M89.66,64.22c-6.23-1.2-12.29-3.4-18.77-3.05c0.23-2.08,2.31-1.03,3.25-1.92c3.92-0.12,7.49,1.39,11.17,2.41
		c2.02,0.56,4.02,1.17,6.02,1.75C90.96,64.07,90.06,63.64,89.66,64.22z"/>
	<path class="st1" d="M38.2,55.93c0.84,0.03,1.7-0.02,2.35,0.68c0.14,1.27,1.31,2.47,0.27,3.83c-2.31,2.69-4.77,2.43-7.31,0.36
		c-0.81-1.93,0.73-2.32,1.92-2.93c0.24-0.2,0.48-0.4,0.72-0.6c0.55-0.55,1.32-0.74,1.9-1.23L38.2,55.93z"/>
	<path class="st12" d="M142.72,47.04c-0.9,4.25,1.16,8.36,0.6,12.6c-0.12,0.35-0.31,0.42-0.59,0.15
		C140.53,55.54,139.29,51.29,142.72,47.04z"/>
	<path class="st1" d="M167.52,17.17c1.34-2.34,2.77-2.15,4.26-0.15c0.29,0.64-0.09,0.89-0.61,1.07c-1.79,0.46-0.61,1.8-0.76,2.72
		c-0.37,2.2,0.15,4.69-2.27,6.12c-0.93-0.58-0.81-1.51-0.81-2.41C168.38,22.1,168.09,19.64,167.52,17.17z"/>
	<path class="st13" d="M39.71,70.83c-2.93,0.34-5.92-0.12-8.81,0.69c-0.99-0.48-1.58-1.36-2.16-2.24c-0.24-0.73-0.22-1.43,0.26-2.07
		c2.34-0.27,4.19,1.91,6.59,1.34c1.08,0.05,2.13,0.22,3.11,0.69c0.32,0.16,0.61,0.37,0.87,0.61C39.8,70.15,39.86,70.47,39.71,70.83z
		"/>
	<path class="st14" d="M175.59,13.41c-4.48-1.31-8.93-2.84-13.71-2.43c0.24-0.26,0.48-0.52,0.73-0.77c2.57-0.39,5.13-0.53,7.68,0.08
		l-0.01-0.01c1.43,0.98,3.16-0.08,4.61,0.69C175.49,11.68,177.38,12.01,175.59,13.41z"/>
	<path class="st15" d="M149.37,50c-0.62-1.69-0.1-3.17,0.83-4.58c0.47,0.07,0.95,0.14,1.42,0.21c0.77,2.73,0.3,5.03-2.29,6.58
		C148.27,51.77,148.27,51.51,149.37,50z"/>
	<path class="st16" d="M89.66,64.22c0.36-0.67,1.01-0.74,1.66-0.81c2.91,1.24,5.85,2.35,8.96,2.98c-0.36,0.66-1.25,0.26-1.66,0.83
		C95.02,68.03,92.86,64.56,89.66,64.22z"/>
	<path class="st17" d="M98.61,67.21c0.36-0.67,1.02-0.74,1.66-0.83c2.96-0.17,5.87,0.96,8.84,0.34c0.21,0.42,0.42,0.84,0.63,1.26
		C106.02,67.96,102.28,68.18,98.61,67.21z"/>
	<path class="st18" d="M29.24,67.16c0,0.77,0,1.53,0,2.3c-2.19-0.12-2.12-1.43-1.55-2.99c-1.19-1.4,0.42-3.23-0.71-4.64
		c0.72,0.3,1.43,0.6,2.15,0.9C30.29,64.18,30.48,65.66,29.24,67.16z"/>
	<path class="st11" d="M17.25,56.76c0,0.24,0,0.48,0,0.71c-1.77,0.79-3.57,0.2-5.36,0.09c-0.79-0.08-1.58-0.16-3.02-0.31
		c3.11-1.62,5.75-1.32,8.36-1.19c0.27,0.15,0.36,0.3,0.28,0.46C17.43,56.68,17.34,56.76,17.25,56.76z"/>
	<path class="st19" d="M39.71,70.83c-0.02-0.2-0.05-0.4-0.09-0.6c0.77-0.94,1.84-0.7,2.84-0.73c1.05-0.07,1.92,0.67,2.95,0.67
		c1.71,0.03,3.76-0.99,4.68,1.51C46.61,71.62,43.11,71.89,39.71,70.83z"/>
	<path class="st20" d="M174.5,35.66c-0.71-3.45-0.95-6.89,0.11-10.32C174.73,28.78,175.85,32.23,174.5,35.66z"/>
	<path class="st11" d="M40.39,59.73c0.1-0.5,0.68-1.06-0.16-1.45c-2.2-1.01,0.02-1.15,0.32-1.66c1.18,0.31,2.36,0.61,3.53,0.92
		c-0.47,0.98-1.18,1.71-2.13,2.23C41.43,60.17,40.9,60.2,40.39,59.73z"/>
	<path class="st21" d="M74.13,59.25c-0.44,1.73-2.37,0.93-3.25,1.92c0,0-0.33,0-0.33,0s-0.33,0.01-0.33,0.01
		c-0.44-2.39-2.47-1-3.68-1.56c-0.05-0.11-0.12-0.22-0.18-0.33C68.94,59.27,71.54,59.26,74.13,59.25z"/>
	<path class="st22" d="M17.25,56.76c-0.01-0.23-0.01-0.46-0.02-0.7c3.51,0.1,6.99-2.09,10.52-0.11c-0.52,0.02-1.04,0.03-1.56,0.05
		c-1.65,0.97-3.61-0.29-5.26,0.73C19.71,56.74,18.48,56.75,17.25,56.76z"/>
	<path class="st23" d="M27.7,66.47c-0.06,1.3,0.13,2.47,1.55,2.99c1.41-0.01,1.42,1.12,1.66,2.06C28.26,70.84,25.9,69.98,27.7,66.47
		z"/>
	<path class="st24" d="M167.33,24.53c0.84,0.56,0.68,1.43,0.71,2.25c0.45,1.63,0.49,3.12-1.4,3.91c-0.43-0.26-0.47-0.56-0.1-0.91
		c-0.02-0.61-0.14-1.17-0.73-1.51c-0.41-0.96,0.39-1.56,0.69-2.3C166.78,25.48,167.06,25,167.33,24.53z"/>
	<path class="st25" d="M114.22,63.49c-0.77,0.53-1.52,0.4-2.25-0.07c0.27-1.79,0.53-3.57,0.8-5.36
		C113.25,59.86,113.73,61.68,114.22,63.49z"/>
	<path class="st26" d="M142.73,59.79c0.2-0.04,0.4-0.09,0.59-0.15c0.41,1.29-0.43,2.88,0.91,3.97c-0.02,0.45-0.03,0.9-0.05,1.35
		c0.09,1.12,0.18,2.24-0.81,3.08C141.74,65.4,143.1,62.53,142.73,59.79z"/>
	<path class="st6" d="M50.09,71.67c-1.5-1.51-3.46-0.37-5.13-0.88c-0.24-0.7,0.25-0.85,0.75-0.99c1.63-0.75,3.27-0.45,4.91-0.03
		c0.44,0.24,0.56,0.82,1.08,0.98l-0.13,0.25c0.11,0.7,0,1.16-0.87,0.8l-0.32,0.01L50.09,71.67z"/>
	<path class="st27" d="M50.69,71.79c0.29-0.27,0.58-0.54,0.87-0.8c1.21,0.83,2.86-0.29,4.3,0.96
		C53.89,73.38,52.29,72.53,50.69,71.79z"/>
	<path class="st28" d="M170.29,10.29c-2.56-0.03-5.12-0.05-7.68-0.08C165.18,9.33,167.74,9.21,170.29,10.29z"/>
	<path class="st29" d="M143.37,68.04c0.18-1.05-0.34-2.29,0.81-3.08c0,0,0.13,0.01,0.13,0.01c0.83,0.92-0.21,2.15,0.52,3.09
		c0.01,0.25-0.02,0.5-0.1,0.73c-0.09,0.82,0.12,1.7-0.52,2.4C142.38,70.55,143.91,69.02,143.37,68.04z"/>
	<path class="st15" d="M150.22,45.45c-1.81-1.33-3.63,0.29-5.45-0.02C146.59,44.38,148.41,42.97,150.22,45.45z"/>
	<path class="st22" d="M11.9,57.56c1.77-0.92,3.58,0.3,5.36-0.09c0.25,0.25,0.5,0.5,0.75,0.75C15.96,58.07,13.85,58.59,11.9,57.56z"
		/>
	<path class="st30" d="M51.69,70.74c-0.35-0.14-0.69-0.29-1.04-0.43c-0.3-1.08-2.33,0.24-2.13-1.54c0.28-0.06,0.56-0.12,0.84-0.18
		c0.41-0.39,0.68-1.06,1.45-0.71c0.24,0.15,0.48,0.3,0.72,0.44C51.6,69.12,51.65,69.93,51.69,70.74z"/>
	<path class="st1" d="M160.5,36.44c-0.11,2.03-1.49,3-3.12,3.76C158.02,38.61,159.12,37.4,160.5,36.44z"/>
	<path class="st28" d="M174.89,10.97c-1.56-0.09-3.25,0.7-4.61-0.69C171.82,10.47,173.47,9.98,174.89,10.97z"/>
	<path class="st31" d="M144.82,68.06c-0.94-0.9-0.52-2.03-0.52-3.09c0.89,0.13,1.42,0.56,1.3,1.55
		C144.97,66.84,144.94,67.47,144.82,68.06z"/>
	<path class="st1" d="M162.72,33.29c0.14,1.69-0.86,2.57-2.24,3.18C160.73,35.06,161.73,34.17,162.72,33.29z"/>
	<path class="st6" d="M144.2,71.19c-0.03-0.85-0.22-1.73,0.52-2.4C145.36,69.77,146.16,70.79,144.2,71.19z"/>
	<path class="st9" d="M174.01,70.95c0.49-1.01,1.23-1.76,2.24-2.24C176.08,70.04,175.4,70.86,174.01,70.95z"/>
	<path class="st1" d="M166.5,25.96c-0.23,0.77-0.46,1.53-0.69,2.3c-0.35,0.22-0.7,0.45-1.05,0.67
		C165.13,27.82,165.3,26.59,166.5,25.96z"/>
	<path class="st32" d="M166.54,30.52c1.19-0.97,0.55-2.68,1.5-3.75c1.4-2.71,2.04-5.51,0.99-8.52c-0.2-0.57-0.42-1.32,0.36-1.59
		c0.91-0.31,1.26,0.5,1.63,1.14c0.79,2.46,0.15,4.98,0.36,7.46c-0.02,3.17,0.45,6.33-0.04,9.49c-1.37,4.54-0.51,9.18-0.61,13.78
		c0.64,2.82,1.51,5.62,1.38,8.56c-0.06,1.31,0.39,2.38,1.15,3.37c-0.3,1.2-0.38,2.4-0.04,3.6c-0.02,0.19-0.03,0.38-0.03,0.58
		c-2.57,1.44-4.99,0.64-7.38-0.5c-0.78-0.66-1.56-1.32-2.33-1.98c-1.75-3.19-0.72-6.62-0.87-9.95c0.23-1.88,1.19-3.57,1.38-5.47
		c-0.05-2.27,0.47-4.45,0.95-6.64c0.9-2.12,0.33-4.45,0.91-6.62C166.3,32.55,165.92,31.42,166.54,30.52z"/>
	<path class="st33" d="M170.29,49.24c0.4-4.73-0.9-9.55,0.73-14.22c0.25-0.36,0.49-0.36,0.74,0c-1.37,4.43-0.48,8.99-0.74,13.48
		C171.32,49.28,170.95,49.4,170.29,49.24z"/>
	<path class="st33" d="M170.29,49.24c0.24-0.25,0.49-0.49,0.73-0.74c1.88,3.78,0.93,8.09,2.24,11.97c-2.9-2.1-0.71-5.57-2.16-8.1
		C170.58,51.47,170.54,50.29,170.29,49.24z"/>
	<path class="st33" d="M171.76,35.01c-0.25,0-0.49,0-0.74,0c0-3.25,0.01-6.49,0.01-9.74c0.24-0.35,0.49-0.33,0.73,0
		C171.96,28.52,172.7,31.77,171.76,35.01z"/>
	<path class="st34" d="M171.76,25.28l-0.36,0c0,0-0.36,0-0.36,0c0-2.49-0.01-4.98-0.01-7.48c0.25-0.26,0.5-0.52,0.75-0.78
		c0.73-0.19,1.47-0.71,2.16,0.09C170.52,19.11,172.14,22.46,171.76,25.28z"/>
	<path class="st9" d="M177.64,64.96c-1.28-0.28-2.57-0.56-3.85-0.84C175.38,62.94,176.54,63.8,177.64,64.96z"/>
	<path class="st35" d="M155.25,50.53c3.77-5.37,5.46-11.95,9.78-17.01c0.34-0.33,0.67-0.32,0.98,0.05c0.16,2.12,0.54,4.26-0.56,6.27
		c-0.26,0.72-0.39,1.48-0.72,2.18c-1.52,3.39-2.75,6.94-4.97,9.96c-1.07,1.45-1.99,3.31-4.37,2.59
		C154.12,53.27,154.45,51.91,155.25,50.53z"/>
	<path class="st36" d="M159.07,57.49c-2.81,0.25-5.72-0.04-8.29,1.5c-0.47-0.26-0.94-0.51-1.4-0.77l0,0
		c1.24-2.42,2.24-4.99,4.47-6.74c0.86,0.69,0.69,1.68,0.74,2.6c0.85,0.31-2.08,2.31,0.77,1.71
		C156.75,56.02,158.62,55.21,159.07,57.49z"/>
	<path class="st37" d="M154.65,56.74c-2.49,0.07-0.25-1.51-0.74-2.14c0.8-1.18-0.17-2.69,0.71-3.86c0.21-0.06,0.43-0.13,0.64-0.2
		c0.34,1.3-0.43,2.82,0.8,3.94C156.71,55.93,155.21,56.04,154.65,56.74z"/>
	<path class="st15" d="M149.37,50c0.24,0.74-0.83,1.45-0.05,2.21c-0.33,1.05-1.15,1.45-2.13,1.65
		C148.24,52.75,147.06,50.38,149.37,50z"/>
	<path class="st38" d="M165.6,33.64c-0.2,0.01-0.39-0.02-0.57-0.11c0.97-1.06,0.32-2.78,1.51-3.76c0,0.25,0,0.5,0,0.75
		c0,0.99-0.01,1.99-0.01,2.98C166.28,33.92,165.97,33.97,165.6,33.64z"/>
	<path class="st17" d="M149.38,58.22c0,0.97,0,1.94,0,3.38C148.28,60.09,148.47,59.13,149.38,58.22
		C149.38,58.22,149.38,58.22,149.38,58.22z"/>
	<path class="st33" d="M154.61,50.74c-0.18,1.3,0.3,2.72-0.71,3.86c-0.02-1.04-0.04-2.08-0.05-3.12
		C154.1,51.23,154.36,50.98,154.61,50.74z"/>
	<path class="st39" d="M29.24,67.16c-0.04-1.48-0.07-2.95-0.11-4.43c3.02,0.63,4.74,3.45,7.52,4.49c0.43,0.96-0.37,1.46-0.8,2.09
		C33.23,69.89,31.05,69.11,29.24,67.16z"/>
	<path class="st40" d="M40.39,59.73c0.52,0.01,1.04,0.02,1.57,0.03c-0.05,0.5-0.09,1-0.14,1.5c-3.49,2.74-8.13,2.11-11.1-1.51
		c1.29-1.01,2.21-0.49,2.96,0.73C36.1,61.96,38.42,62.42,40.39,59.73z"/>
	<path class="st41" d="M35.85,69.32c-0.86-1.13,0.48-1.41,0.8-2.09c2.06,0.18,3.82,1.62,5.97,1.46c0.99,0.26,1.98,0.52,2.96,0.78
		c0.19,0.14,0.26,0.3,0.22,0.46c-0.05,0.17-0.1,0.25-0.16,0.25c-0.23,0.2-0.46,0.4-0.69,0.61c-0.78-0.2-1.56-0.39-2.33-0.58
		c-1.2-0.66-2.43-0.48-3.67-0.12C37.92,69.83,36.89,69.57,35.85,69.32z"/>
	<path class="st11" d="M33.67,60.47c-0.92-0.5-1.88-0.88-2.96-0.73c-0.25-2.22,1.23-2.74,2.96-3.01c0.88,0.72,2.44,0.08,2.98,1.48
		C36.05,59.5,33.64,58.37,33.67,60.47z"/>
	<path class="st24" d="M20.94,56.73c1.6-1.34,3.51-0.49,5.26-0.73c0.65,1.01,2.2,1.13,2.58,2.97C26.24,57.28,23.75,56.3,20.94,56.73
		z"/>
	<path class="st38" d="M36.65,58.22c-0.77-0.94-2.89,0.84-2.98-1.48c0.5-0.23,0.99-0.45,1.49-0.68c0.41,0.58,1.94-0.05,1.51,1.42
		C36.66,57.72,36.65,57.97,36.65,58.22z"/>
	<path class="st11" d="M36.67,57.48c-0.5-0.47-1.01-0.95-1.51-1.42c0.97,0,1.94-0.01,2.91-0.01C37.84,56.77,37.33,57.2,36.67,57.48z
		"/>
	<path class="st42" d="M50.83,67.87c-0.48,0.24-0.97,0.48-1.45,0.71c-0.36-1.65-0.77-3.29-1.06-4.95c-0.41-2.35,0.67-3.79,3.34-4.61
		C50.05,61.85,49.62,64.79,50.83,67.87z"/>
	<path class="st35" d="M160.61,62.63c-0.05-1.23-0.1-2.46-0.14-3.7c-0.67-1.29-0.53-2.37,0.81-3.13c1.38,0,1.53,1.12,1.86,2.07
		c-0.05,1.41,0.24,2.84-0.19,4.23c-0.28,0.3-0.57,0.6-0.85,0.91C161.61,62.88,161.11,62.76,160.61,62.63z"/>
	<path class="st16" d="M162.96,62.1c-0.08-1.54-0.17-3.08-0.25-4.62c-0.3-1.23-0.82-2.39-1.13-3.62c-0.14-1,0.12-1.86,0.96-2.48
		c0.37-0.19,0.71-0.16,1.03,0.11c-0.03,3.56-0.05,7.12-0.08,10.67c0,0-0.26,0-0.26,0L162.96,62.1z"/>
	<path class="st9" d="M165.81,64.15c2.44,0.42,4.84,1.59,7.38,0.5C170.59,66.58,168.14,66.25,165.81,64.15z"/>
	<path class="st43" d="M150.87,70.81c-0.69-3.52,2.9-7.33,7.58-8.05C155.92,65.44,153.39,68.13,150.87,70.81z"/>
	<path class="st19" d="M45.65,70.19c-0.02-0.24-0.04-0.48-0.06-0.72c0.79-1.06,1.92-0.66,2.94-0.7c0.38,0.97,1.86,0.42,2.13,1.54
		C48.99,70.34,47.33,69.6,45.65,70.19z"/>
	<path class="st32" d="M162.81,51.5c-0.25,0.75-0.49,1.5-0.74,2.25c0.75,1.05,0.04,1.67-0.65,2.31c-0.31,0.96-0.63,1.92-0.94,2.87
		c-0.47-0.48-0.93-0.96-1.4-1.44c-1.29-1.38-2.95-0.51-4.43-0.75c0.47-0.75,0.94-1.51,1.41-2.26c3.41-1.85,4.37-5.46,6-8.55
		c0.73-1.39,1.08-3,2.24-4.16c0.79,1.54,0.18,3.18,0.35,4.76C164.1,48.21,163.72,49.95,162.81,51.5z"/>
	<path class="st42" d="M118.02,62.72c1.49,2.11,0.42,4.5,0.74,6.75C117.29,67.35,118.34,64.96,118.02,62.72z"/>
	<path class="st6" d="M38.96,70.09c1.25-0.94,2.48-0.99,3.67,0.12c-1,0.01-2,0.01-3,0.02C39.4,70.21,39.17,70.16,38.96,70.09z"/>
	<path class="st38" d="M164.29,47c0-1.74,0-3.49,0-5.23c0.03-0.61,0-1.23,0.65-1.58c0.31-0.3,0.59-0.3,0.86,0.05
		c-0.22,2.26-1.09,4.44-0.76,6.76C164.79,47.25,164.54,47.26,164.29,47z"/>
	<path class="st1" d="M165.81,40.24c-0.29-0.02-0.57-0.03-0.86-0.05c0.94-2.11,1.17-4.29,0.65-6.54c0.31-0.05,0.62-0.09,0.93-0.14
		C166.39,35.75,167.03,38.1,165.81,40.24z"/>
	<path class="st44" d="M164.29,47c0.25,0,0.5,0,0.75,0c-0.49,1.5-0.99,3-1.48,4.5c-0.25,0-0.5,0-0.75,0.01
		C162.87,49.86,163.2,48.3,164.29,47z"/>
	<path class="st45" d="M161.41,56.06c0.22-0.77,0.44-1.54,0.65-2.31c1.26,1.06,0.62,2.46,0.64,3.73
		C162.27,57.01,161.84,56.53,161.41,56.06z"/>
</g>
</svg>
