<?xml version="1.0" encoding="utf-8"?>
<!-- Generator: Adobe Illustrator 24.2.1, SVG Export Plug-In . SVG Version: 6.00 Build 0)  -->
<svg version="1.1" id="Calque_1" xmlns="http://www.w3.org/2000/svg" xmlns:xlink="http://www.w3.org/1999/xlink" x="0px" y="0px"
	 viewBox="0 0 202.5 143" style="enable-background:new 0 0 202.5 143;" xml:space="preserve">
<style type="text/css">
	.st0{fill:#FEFEFE;}
	.st1{fill:#E1C1AF;}
	.st2{fill:#E1C0AD;}
	.st3{fill:#40916C;}
	.st4{fill:#E0BFAC;}
	.st5{fill:#CE997A;}
	.st6{fill:#CE9779;}
	.st7{fill:#76C6A1;}
	.st8{fill:#469470;}
	.st9{fill:#DDB8A3;}
	.st10{fill:#7FCAA7;}
	.st11{fill:#79C7A3;}
	.st12{fill:#519B79;}
	.st13{fill:#539C7B;}
	.st14{fill:#4B9875;}
	.st15{fill:#559D7C;}
	.st16{fill:#E3C4B3;}
	.st17{fill:#CF9A7C;}
	.st18{fill:#4A9773;}
	.st19{fill:#6AC198;}
	.st20{fill:#5DA282;}
	.st21{fill:#579E7E;}
	.st22{fill:#DFBDA9;}
	.st23{fill:#65BF95;}
	.st24{fill:#DEB9A5;}
	.st25{fill:#68C097;}
	.st26{fill:#D9AE97;}
	.st27{fill:#81CBA8;}
	.st28{fill:#7EC9A6;}
	.st29{fill:#D19F83;}
	.st30{fill:#DDB7A2;}
	.st31{fill:#E3C5B4;}
	.st32{fill:#D7AC94;}
	.st33{fill:#D2A084;}
	.st34{fill:#CD9678;}
	.st35{fill:#84CCAA;}
	.st36{fill:#DCB6A1;}
	.st37{fill:#D6AA91;}
	.st38{fill:#D6A990;}
	.st39{fill:#DAB29B;}
	.st40{fill:#D5A88E;}
	.st41{fill:#DEBAA6;}
	.st42{fill:#D5A78D;}
	.st43{fill:#CB9272;}
	.st44{fill:#7CC9A5;}
	.st45{fill:#F8F1ED;}
	.st46{fill:#F6EBE6;}
	.st47{fill:#FEFDFD;}
	.st48{fill:#D7AB92;}
	.st49{fill:#F3E5DD;}
	.st50{fill:#F5E9E3;}
	.st51{fill:#F2E4DC;}
	.st52{fill:#DBB39C;}
	.st53{fill:#D3A287;}
	.st54{fill:#E0BEAA;}
	.st55{fill:#D09C7F;}
	.st56{fill:#CC9475;}
	.st57{fill:#D19E82;}
	.st58{fill:#D09D80;}
	.st59{fill:#F8F0EB;}
</style>
<g>
	<path class="st0" d="M7.06,10.23c60.46,0,120.92,0.02,181.38-0.07c2.56,0,3.07,0.5,3.06,3.05c-0.11,37.09-0.1,74.19-0.01,111.28
		c0.01,2.22-0.45,2.67-2.67,2.67c-59.71-0.08-119.43-0.08-179.14,0c-2.23,0-2.68-0.45-2.67-2.67C7.09,86.41,7.06,48.32,7.06,10.23z"
		/>
	<path class="st1" d="M97.6,83.23c5.12-1.86,10.46-1.85,15.78-1.59c3.09,0.15,3.95,2.21,3.14,4.99c-1.07,3.67-3.63,6.71-4.45,10.5
		c-0.21,0.96-0.47,1.92-0.7,2.87c-0.2,1.37-0.58,2.75-2.12,3.03c-1.36,0.25-2.82,0.14-2.21-2c1.14-4.37,1.55-8.92,3.53-13.4
		c-5.32,0-9.04,3.94-13.85,4.2C94.78,88.74,95.39,85.9,97.6,83.23z"/>
	<path class="st2" d="M42.96,47.4c0.28,1.7-0.57,3.56,0.74,5.11c0.5,3.01,0.5,6.02,0.01,9.03c-0.32,0.28-0.71,0.4-1.13,0.37
		c-0.66-0.19-0.86-0.7-0.9-1.31c0.47-1.4-0.51-2.56-0.69-3.69c-0.05,1.14,1.43,2.34,0.34,3.75c-4.66,2.5-9.15,2.29-13.47-0.81
		c-0.36-0.5-0.52-1.07-0.54-1.68c-0.01-0.97,0.39-1.87,0.4-2.84c0.08-1.14,0.01-2.28,0.17-3.42c0.06-0.39,0.18-0.75,0.36-1.11
		c2.53-2.58,6.03-2.31,9.16-3.12c0.97-0.14,1.85,0.06,2.61,0.68c0.47,0.38,0.67,0.91,0.83,1.46c0.21-0.3-0.06-0.6-0.02-0.91
		c0.05-0.34,0.16-0.65,0.32-0.94C41.65,47.46,42.17,47,42.96,47.4z"/>
	<path class="st1" d="M19.87,106.26c0.99-3.76,0.59-7.61,0.73-11.43c0.2-5.4,2.6-10.26,3.79-15.41c0.38-0.74,0.64-1.54,0.96-2.31
		c0.33-1.7,1.58-3.07,1.63-4.89c0.04-1.43,1.24-1.68,2.39-1.87c1.4-0.03,2.86-0.25,3.89,1.07c-0.92,5.18-3.71,9.67-5.61,14.48
		c-0.52,1.32-0.84,2.8-1.7,4.01c-1.11,1.1-0.57,2.39-0.4,3.63c-0.25,2.13-1.02,4.1-1.9,6.04c-1.1,1.37-0.38,2.96-0.53,4.45
		c-0.12,1.18,0.18,2.48-1.48,2.83C20.96,106.92,20.35,106.8,19.87,106.26z"/>
	<path class="st1" d="M172.95,92.09c0.89,2.8,1.77,5.6,2.66,8.39c0.48,1.34,0.35,2.65-1.19,2.92c-1.67,0.3-2.87-0.55-2.99-2.44
		c0.07-2.88-0.94-5.54-1.8-8.22c-2.32-7.2-4.69-14.38-7.05-21.57c0.96-0.92,2.2-0.82,3.38-0.9c1.38,0.15,2.8-0.46,4.16,0.16
		c1.77,1.28,0.59,3.05,0.77,4.59c0.26,1.96-0.55,4.01,0.52,5.9c0.41,2.5,0.82,5,1.23,7.5C172.35,89.69,171.95,90.95,172.95,92.09z"
		/>
	<path class="st1" d="M45.27,100.96c0.08-2.89-0.94-5.54-1.8-8.22c-2.32-7.2-4.69-14.37-7.05-21.56c0.96-0.93,2.2-0.82,3.39-0.91
		c1.38,0.15,2.8-0.46,4.16,0.16c1.78,1.28,0.59,3.05,0.77,4.59c0.26,1.96-0.55,4.01,0.52,5.9c0.41,2.5,0.81,5.01,1.22,7.51
		c-0.27,1.25-0.7,2.51,0.32,3.65c0.88,2.8,1.77,5.59,2.65,8.39c0.48,1.43,0.34,2.74-1.38,2.95
		C46.45,103.63,45.39,102.71,45.27,100.96z"/>
	<path class="st3" d="M39.77,71.19c-1.11,0-2.23,0-3.34-0.01c-1.2-1.87-2.21-1.21-3.17,0.24c-1.47-0.08-2.94-0.16-4.41-0.25
		c-0.92-0.42-2.15-0.2-2.75-1.31c-0.17-0.31-0.29-0.65-0.37-1c-0.13-0.71-0.16-1.42-0.17-2.14c0.02-1.28-0.06-2.57,0.25-3.83
		c0.11-0.38,0.29-0.71,0.53-1.03c0.4-0.45,0.9-0.76,1.48-0.92c4.72,1.47,9.54,1.01,14.35,0.7c0.14,0.1,0.3,0.13,0.47,0.08
		c1.67,1.54,1.14,3.85,1.99,5.67c0.21,0.54,0.29,1.09,0.09,1.65C43.48,70.71,41.5,70.66,39.77,71.19z"/>
	<path class="st3" d="M165.92,71.2c-1.12-0.01-2.23-0.01-3.35-0.02c-1.2-1.85-2.21-1.21-3.17,0.24c-0.99,0.72-2.09,0.81-3.25,0.56
		c-1.43-0.41-2.84-0.85-3.69-2.22c-0.19-0.31-0.34-0.64-0.45-0.98c-0.2-0.7-0.25-1.41-0.28-2.13c0-1.26-0.08-2.53,0.23-3.78
		c0.11-0.37,0.29-0.7,0.52-1.01c0.4-0.45,0.88-0.75,1.45-0.91c4.71,0.83,9.43,1.3,14.18,0.32c2.68,1.94,1.63,5.29,2.95,7.74
		c-0.07,0.38-0.24,0.7-0.51,0.97C169.03,70.43,167.49,70.84,165.92,71.2z"/>
	<path class="st1" d="M150.27,76.59c-0.18-0.45-0.49-0.9-0.51-1.36c-0.42-11.37-0.29-22.74-0.03-34.11c0.07-2.95,1.23-5.3,4.36-6.17
		c1.48,1.56,2.13,3.56,2.95,5.48c0.29,1.99,0.58,3.99-1.73,5.1c-1.44,0.13-1.52-0.74-1.54-1.58c-0.27,0.58,0.13,1.31,0.45,2.05
		c0.59,1.43,0.93,2.88,0.36,4.4c-1.6,2.38-0.87,5-0.77,7.56c0.03,1.59-0.42,3.05-1.16,4.44l0.05-0.07c-0.4,0.33-0.54,0.81-0.7,1.27
		c-0.14,1.85-0.4,3.71,0.74,5.39l-0.01-0.05C153.42,71.98,153.61,74.84,150.27,76.59z"/>
	<path class="st1" d="M24.11,76.65c-0.18-0.58-0.51-1.15-0.51-1.73c-0.04-11.17-0.06-22.33-0.02-33.5c0.01-3.06,1.09-5.54,4.38-6.48
		c1.49,1.55,2.13,3.56,2.95,5.47c0.3,1.98,0.58,3.95-1.67,5.1c-1.45,0.24-1.58-0.78-1.69-1.82c0.04,0.79,0.12,1.56,0.5,2.26
		c0.5,1.21,0.81,2.43,0.35,3.72c-1.6,2.29-0.79,4.84-0.79,7.3c0,0.37-0.02,0.74-0.05,1.11c-0.37,1.44-0.13,3.02-1.05,4.32l0.05-0.07
		c-0.44,0.35-0.55,0.87-0.72,1.36c-0.2,1.45-0.07,2.91-0.11,4.36c0.01,2.4,0.65,4.84-0.47,7.16C25.03,75.82,24.71,76.35,24.11,76.65
		z"/>
	<path class="st1" d="M158.63,73.6c-0.73,4.44-3.25,8.21-4.85,12.32c-0.51,1.31-0.83,2.8-1.69,4c-1.11,1.1-0.57,2.39-0.39,3.63
		c-0.26,2.13-1,4.11-1.91,6.04c-0.96,1.15-0.57,2.41-0.29,3.66c0.05,1.18,0.11,2.35,0.16,3.53c-1.64,2.08-2.34,0.87-2.9-0.82
		c0.24-8.98,1.25-17.85,4-26.46c0.24-1.33,0.81-2.55,1.2-3.84c0.57-1.06,1.41-1.94,1.26-3.37c-0.16-1.5,0.83-1.55,1.95-1.01
		c0.72,0.57,1.59,0.33,2.39,0.41C158.81,71.82,159.21,72.43,158.63,73.6z"/>
	<path class="st4" d="M113.02,71.29c-3.74,0-7.48-0.01-11.21-0.01c-1.18,0.66-1.41,2.41-2.99,2.62c-0.34-0.03-0.65-0.14-0.92-0.35
		c-0.79-1.2-1-3.25-3.3-2.21c-2.51,0.62-4.58,3.61-7.61,1.43c0.07-4.05-0.09-8.19,5.03-9.67c0.43-0.12,0.66-0.94,0.99-1.43
		c0.64-0.17,0.91,0.22,1.13,0.72c-0.17,2.17,1.38,3.09,2.93,4.02c4.19,1.49,8.65,0.74,12.91,1.65c1.78,0.04,3.46,0.83,5.26,0.75
		c1.25,0.09,2.44,0.33,3.41,1.21c0.29,0.36,0.59,0.78,0.28,1.2c-0.41,0.55-0.99,0.4-1.54,0.14l-0.21,0.05l-0.21-0.06
		C115.63,71.74,114.32,71.85,113.02,71.29z"/>
	<path class="st2" d="M87.6,96.58c-1.13,3.39-3.32,6.48-2.94,10.3c-0.1,0.85-0.24,1.9-1.36,1.6c-1.04-0.27-2.45-0.51-2.32-2.18
		c1.51-4.38,0.03-9.11,1.6-13.48c0.68-1.56-0.87-2.69-0.8-4.14c0.05-2.82,1.94-3.68,4.31-4.04c1.28,0.01,2.41,0.42,3.41,1.2
		c1.43,1.46,1.53,3.18,1.02,5.03c-0.5,1.08-1.62,1.42-2.49,2.04C86.89,94.02,87.17,95.29,87.6,96.58z"/>
	<path class="st5" d="M28.69,34.84c0.24-0.27,0.47-0.53,0.71-0.8c1.49-1.63,0.14-2.99-0.45-4.41c-1.73-4.15-0.35-8.24,3.19-9.74
		c2.11-0.9,3.85,0.26,5.73,0.7c0.89,0.49,1.31,1.28,1.37,2.27c0,0-2.77,4.02-2.76,4.02c-1.84,1.21-1.37,3.02-1.24,4.74
		c0,0.32-0.05,0.64-0.12,0.96c-1.01,1.1,0.36,3.38-1.88,3.87c-0.23-0.1-0.35-0.29-0.33-0.55c-0.29,0.05-0.26,0.21-0.24,0.52
		c0.05,0.6-0.06,1.2-0.24,1.77c-0.26,0.69-0.6,1.29-1.47,1.28C29.48,38.27,28.63,36.77,28.69,34.84z"/>
	<path class="st6" d="M164.01,20.58c0.9,0.49,1.31,1.28,1.38,2.27c0.39,1.57-3.3,0.06-1.84,2.44c0.03,0.73-0.21,1.34-0.8,1.78
		c-1.99,1.08-1.62,2.68-0.96,4.34c0.04,0.16,0.07,0.33,0.11,0.5c0,0.34-0.09,0.66-0.25,0.97c-1.19,1.28-0.68,3.28-1.91,4.55
		c-0.87,0.8-1.3,2.29-2.94,1.91c-1.04-1.1-1.88-2.28-1.68-3.91c1.54-1.05,2.24-2.33,0.96-4.03c-1.28-1.7-1.29-3.66-1.25-5.64
		c0.1-5.05,2.89-7.04,7.74-5.55C163.05,20.34,163.56,20.36,164.01,20.58z"/>
	<path class="st4" d="M159.26,37.04c1.69-1.07-0.94-4.26,2.27-4.58c0.53,0.21,0.95,0.65,1.54,0.75c0.42,0,0.84-0.03,1.23,0.17
		c0.15,0.33,0.25,0.93,0.45,0.97c5.36,0.94,4.97,4.71,4.31,8.62c-3.18-0.77-1.7-3.73-2.54-5.19c-0.17-0.85-0.83-0.12-0.4-0.37
		c0.54-0.32,0.79,3.16,0.23,4.13c-1.21,2.1-3.02,2.68-5.3,1.97C159.19,41.69,158.03,39.7,159.26,37.04z"/>
	<path class="st4" d="M83.91,81.57c1.37-1.71,2.5-3.52,2.49-5.81c1.72-0.22,2.85,1.2,4.37,1.55c2.27,1.13,5.08,0.52,7.16,2.23
		c-0.79,1.38-3.23,1.74-2.5,4.05c-0.27,1.29-1.39,1.08-2.28,1.28C89.54,85.24,86.53,83.96,83.91,81.57z"/>
	<path class="st7" d="M89.93,77.92c-1.18-0.72-2.36-1.45-3.53-2.17c0.2-1,0.39-1.99,0.59-2.99c3.23,1.2,5.07-2.68,8.1-2.19
		c1.63,0.8,2.25,2.39,3.01,3.86c0.15,1.09,0.98,2.26-0.36,3.19C95.19,78.98,92.53,77.53,89.93,77.92z"/>
	<path class="st8" d="M93.67,84.11c0.59-0.18,1.18-0.35,1.77-0.53c0.72-0.12,1.44-0.23,2.16-0.35c-0.61,2.84-1.22,5.67-0.9,8.61
		c-2.26,0.14-4.51,0.28-6.77,0.42c-0.35-0.27-0.4-0.6-0.17-0.97c0.6-1.77,0.28-3.42-0.69-4.98c-0.31-0.62,0.04-0.99,0.49-1.33
		C90.88,84.42,92.3,84.42,93.67,84.11z"/>
	<path class="st4" d="M33.2,36.31c1.58-0.84-0.69-3.16,1.45-3.78c1.21,0.26,2.43,0.44,3.66,0.12c0.04,0.89-0.03,1.83,0.89,2.4
		c2.2,1.81,1.83,4.1,1.21,6.44c-1.28,2.07-3.08,2.77-5.42,2.03c-0.77-0.38-1.2-1.06-1.61-1.77c-0.77-1.4-1.11-2.88-0.81-4.48
		C32.69,36.88,32.9,36.56,33.2,36.31z"/>
	<path class="st9" d="M110.07,69.04c-4.67-1.11-9.75,0.35-14.18-2.25c0.44-1.01,0.57-2.12,1.05-3.12c0.46-1.02,0.98-2.02,1.38-3.08
		c0.37-0.93,0.51-1.93,0.69-2.91c0.52-1.56-0.96-3.69,1.35-4.75c2.07-0.18,2.31,1.34,2.61,2.8c0.55,2-0.1,3.94-0.3,5.91
		c-0.23,0.24-0.46,0.48-0.69,0.72c-0.39,1.33-3.12,2.95,0.49,3.75c2.58,0.4,5.36,0.04,7.59,1.86
		C110.32,68.33,110.33,68.68,110.07,69.04z"/>
	<path class="st10" d="M160.9,42.92c5.08-0.07,5.54-0.69,4.98-7.4c1.71,2.59,1.44,5.47,3.18,7.44c0.76,1.49,0.28,2.99,0.07,4.49
		c-0.39,0.59-0.84,1.09-1.64,1.03c-1.43-0.51-2.88-0.83-4.42-0.54c-0.36-0.05-0.68-0.17-0.99-0.36c-0.88-0.93-1.64-1.93-1.83-3.24
		C160.25,43.78,160.41,43.27,160.9,42.92z"/>
	<path class="st4" d="M110.07,68.3c-2.73-0.5-5.46-1-8.19-1.5c-0.9-0.96-0.87-1.97-0.15-3.01c9.14,2.98,18.78,2.52,28.12,4.14
		c0.51,0.09,0.96,0.18,1.23,0.66c-0.49,1.67-2.41,0.06-3.08,1.33c-1.29,1.18-2.11-0.05-3.06-0.6c-3.17-1.19-6.43,0.68-9.61-0.28
		C113.55,69.04,111.78,68.9,110.07,68.3z"/>
	<path class="st11" d="M34.73,42.97c1.92,0.18,3.71-0.09,5.18-1.47c0.59-0.47,0.19-1.86,1.53-1.64c1.08,0.77,0.7,2.21,1.47,3.13
		c0.74,1.46,0.3,2.94,0.05,4.41c-0.51,0.27-1.03,0.54-1.54,0.81c-1.42,0.25-2.74-0.68-4.16-0.33c-0.54-0.09-0.98-0.36-1.38-0.73
		c-0.87-0.91-1.3-2.03-1.51-3.25C34.37,43.54,34.49,43.23,34.73,42.97z"/>
	<path class="st12" d="M147.36,106.33c0.65,0.78,1.26,1.73,2.3,0.43c1.79,5.08,0.88,7.65-2.74,7.66c-1.11,0.01-2.36,0.04-2.93-1.07
		c-0.59-1.15,0.22-2.05,1.03-2.84c0.31,0.13,0.62,0.28,0.89,0.5c-0.08-0.47-0.59-0.62-0.77-1.02c-0.08-1.33-0.27-2.69,0.87-3.73
		C146.49,105.82,146.94,105.82,147.36,106.33z"/>
	<path class="st12" d="M19.87,106.26c0.42,0.02,0.83,0.04,1.25,0.06c0.73,0.57,1.62,0.33,2.42,0.5c1.77,5.13,0.86,7.61-2.8,7.61
		c-1.11,0-2.36,0.03-2.91-1.09c-0.57-1.15,0.24-2.06,1.05-2.84c0.31,0.14,0.62,0.29,0.89,0.51c-0.07-0.47-0.59-0.61-0.77-1.01
		C18.93,108.67,18.72,107.31,19.87,106.26z"/>
	<path class="st2" d="M167.62,48.26c0.5-0.27,1.01-0.54,1.51-0.81c1.58,5.36,1.54,10.85,1.34,16.35c-1.75-0.2-1.01-2.55-2.55-2.94
		c-0.21-0.31-0.36-0.64-0.48-0.99c-0.47-2.52-1.97-4.87-1.31-7.59c0.34-1.04,0.44-2.14,0.79-3.19
		C167.07,48.75,167.3,48.47,167.62,48.26z"/>
	<path class="st13" d="M171.43,100.97c1.65,2.04,3.21,3.27,4.19-0.49c1.97,0.05,2.47,2.1,3.91,2.87c0.87,0.73,1.95,1,2.99,1.34
		c0.24,0.09,0.48,0.17,0.72,0.26c0.51,0.86,0.08,1.67-0.69,1.58c-3.51-0.38-7.08,0.05-10.56-0.66c-0.58-0.12-0.97-0.71-1.41-1.14
		C170.53,103.41,170.62,102.11,171.43,100.97z"/>
	<path class="st14" d="M107.03,101.03c0.7,2.14,1.71,2.46,2.86,0.37c0.38-0.68,0.82-1.1,1.47-1.4c1.91,2.13,4.29,3.6,6.87,4.77
		c-1.12,1.14-2.68,1.31-4.08,1.82c-2.81-0.65-5.89-0.08-8.46-1.83C105.67,103.35,105.24,101.8,107.03,101.03z"/>
	<path class="st15" d="M45.27,100.96c1.64,2,3.21,3.31,4.19-0.48c2.31,1.42,4.61,2.83,6.92,4.25c-0.36,1.02-1.03,1.69-2.13,1.87
		c-2.13-0.48-4.3-0.33-6.46-0.34c-1.36-0.01-2.67-0.05-3.42-1.46C44.35,103.44,44.61,102.15,45.27,100.96z"/>
	<path class="st5" d="M92.7,60.94c-0.68-0.29-0.75-0.87-0.7-1.51c0.26-1.38,0.75-2.72,0.56-4.16c0.14-1.83,1.16-3.12,2.56-4.17
		c2.5-1.66,4.56,0.01,6.73,0.88c0.17,1.12-0.61,1.01-1.3,0.99c-2.33,0.12-2.83,2.03-3.52,3.67c-0.47,1.11-0.42,2.44-1.44,3.32
		C94.72,60.59,93.95,61.48,92.7,60.94z"/>
	<path class="st16" d="M130.95,69.03c-4.69-2.25-9.86-1.52-14.78-2.07c-4.92-0.55-9.74-1.01-14.27-3.1
		c-0.17-0.18-0.23-0.37-0.17-0.55c0.06-0.18,0.12-0.27,0.18-0.27c9.61,3.5,19.82,3.03,29.73,4.47c1.69,0.25,1.7,0.16,0.9,1.56
		C132,69.45,131.47,69.47,130.95,69.03z"/>
	<path class="st17" d="M164.01,20.58c-0.96-0.16-1.93-0.31-2.89-0.47c-3.2-0.54-5.41,1.51-5.56,4.71c-0.19,3.86,1,7.16,3.44,10.15
		c-1.16,0.76-2.55-0.97-3.42,0.54c-0.65,0.21-0.98,0.07-0.74-0.68c1.11-1.77,0.73-3.33-0.26-5.12c-1.77-3.17-0.96-6.36,1.42-8.78
		C158.31,18.57,161.24,18.58,164.01,20.58z"/>
	<path class="st1" d="M147.36,106.33c-0.45-0.02-0.9-0.04-1.34-0.06c0.21-1.33,0.63-2.68,0.58-4c-0.27-6.86,0.72-13.5,3.07-19.96
		c0.5-1.37,0.56-2.89,0.83-4.34c0.26-0.22,0.52-0.22,0.8-0.04c0.15,0.3,0.09,0.56-0.17,0.78c0,1.48-0.06,2.92-0.59,4.37
		C147.8,90.59,147.75,98.48,147.36,106.33z"/>
	<path class="st18" d="M80.97,106.31c1.28-0.16,2.1,2.65,3.68,0.58c1.77,1.71-0.18,3.52,0.14,5.27c-0.27,1.27-1.33,1.68-2.34,2.14
		c-0.25,0.02-0.5,0.03-0.75,0.05c-0.78-0.42-1.91-0.28-2.27-1.4c0.04-0.24,0.09-0.49,0.13-0.73c0.67-0.62,1.41-1.22,0.6-2.24
		C79.89,108.63,79.56,107.28,80.97,106.31z"/>
	<path class="st17" d="M37.86,20.58c-1.73,0.45-3.22-1.01-5.03-0.48c-3.46,1-5.12,5.39-3.29,9.73c0.57,1.36,2.58,2.91-0.14,4.21
		c0.24-1.66-0.35-3.04-1.08-4.53c-1.59-3.26-0.79-6.44,1.75-8.78C32.38,18.58,35.22,18.64,37.86,20.58z"/>
	<path class="st19" d="M105.69,104.76c3.05-0.09,5.93,0.84,8.87,1.46c1.5-0.82,3-0.98,4.52-0.06c-0.57,1.48-1.95,1.53-3.09,1.36
		c-2.82-0.44-5.64-0.62-8.49-0.65C106.4,106.87,104.68,106.82,105.69,104.76z"/>
	<path class="st20" d="M170.58,104.74c3.58,1.49,7.54,0.1,11.16,1.43c0.79,0.29,1.33-0.4,1.49-1.22c1.54,0.9,1.23,2.06-0.24,2.11
		c-3.75,0.12-7.52-0.14-11.27-0.4C170.89,106.6,170.27,105.79,170.58,104.74z"/>
	<path class="st21" d="M86.16,85.39c-1.87,0.59-3.86,1.06-3.77,3.66c-0.23,0.37-0.32,0.83-0.72,1.09c-1.31-2.94-1.22-5.63,1.41-7.87
		c1.42-0.1,2.6,0.31,3.4,1.56C86.67,84.41,86.61,84.94,86.16,85.39z"/>
	<path class="st22" d="M36.1,26.59c0.11-0.57,0.4-1.18,0.29-1.71c-0.21-0.99-0.44-1.95,0.32-2.76c1.26-1.34,1.35,1.59,2.53,0.73
		c0.62,0.61,0.77,1.36,0.64,2.18c-0.94,0.7-0.69,1.62-0.47,2.54c-0.13,0.69-0.26,1.37-0.7,1.95c-0.81,0.73-1.68,0.8-2.62,0.26
		c-0.57-0.63-0.69-1.37-0.54-2.18C35.67,27.24,35.86,26.9,36.1,26.59z"/>
	<path class="st23" d="M44.38,104.79c3.34,1.57,7.11,0.01,10.47,1.41c1.01-0.75,2.02-0.71,3.03-0.01c-0.31,1.32-1.43,1.17-2.34,1.16
		c-2.8-0.05-5.6-0.14-8.39-0.33C45.78,106.93,44.06,107.06,44.38,104.79z"/>
	<path class="st24" d="M162.29,26.61c0.6-0.32,0.73-0.88,0.75-1.48c0.5-0.42,1.04-0.44,1.62-0.16c0.71,0.98,0.91,2.08,0.74,3.26
		c0.02,0.23-0.02,0.45-0.13,0.65c-0.6,0.79-1.23,1.57-1.13,2.66c-0.13,0.33-0.34,0.58-0.66,0.73c-0.73,0.25-1.37,0.09-1.94-0.41
		l-0.08-0.03C160.91,29.95,160.37,28.08,162.29,26.61z"/>
	<path class="st2" d="M44.33,67.57c-1.01-1.82-1.37-3.82-1.69-5.84c2.15-2.87,0.42-6.18,1.05-9.22c1.27,1.89,0.6,4.01,0.64,6.01
		c0.05,3.03,0.17,6.03,0.81,9C44.89,67.82,44.61,67.82,44.33,67.57z"/>
	<path class="st25" d="M89.93,77.92c2.6-1.49,5.42-0.33,8.11-0.69c0.32,0.24,0.41,0.55,0.3,0.93c-0.14,0.46-0.28,0.91-0.41,1.37
		C95.17,79.49,92.45,79.2,89.93,77.92z"/>
	<path class="st26" d="M151.12,77.97l-0.31,0c0,0-0.31,0-0.31,0c-0.08-0.46-0.15-0.92-0.23-1.38c1.76-2.25,2.11-4.94,2.44-7.65
		c0.69,1.13,1.86,1.64,2.93,2.29c-0.2,0.31-0.44,0.37-0.73,0.12c-2.08,0.78,0.16,3.79-2.29,4.38
		C151.95,76.37,151.96,77.45,151.12,77.97z"/>
	<path class="st27" d="M98.91,73.53c1.24-0.39,0.57-3.22,2.89-2.25c-0.27,2.06,1.17,4.5-1.38,6.04
		C98.19,76.74,97.85,75.41,98.91,73.53z"/>
	<path class="st4" d="M42.91,42.99c-0.97-0.75-1.3-1.83-1.54-2.96c-1.42-1.38-0.98-3.27-1.39-4.93c3.18,0.06,3.09,2.54,3.31,4.64
		C43.4,40.8,43.05,41.9,42.91,42.99z"/>
	<path class="st28" d="M86.17,83.98c-1.03-0.57-2.06-1.14-3.09-1.71c0.28-0.23,0.56-0.47,0.83-0.7c3.34,0.5,6.07,3.35,9.76,2.54
		c-1.09,0.88-2.44,0.97-3.72,1.25C88.62,85.09,87.04,85.49,86.17,83.98z"/>
	<path class="st29" d="M101.91,63.04c-0.01,0.27-0.01,0.54-0.02,0.81c0,0.98-0.01,1.96-0.01,2.95c-2.47,1.68-2.14-0.29-2.26-1.71
		c-0.15-1.72,1.08-2.23,2.35-2.72C101.91,62.59,101.89,62.82,101.91,63.04z"/>
	<path class="st30" d="M115.29,68.3c3.2,0.53,6.64-1.14,9.67,1.01c-0.7-0.07-1.41-0.15-2.11-0.22c-1.37,0.96-3.1,0.76-4.56,1.43
		c-0.94-0.5-1.91-0.86-3-0.75C114.85,69.29,114.85,68.8,115.29,68.3z"/>
	<path class="st6" d="M92.7,60.94c0.81-0.53,1.63-1.05,2.44-1.58c1.74,0.92,2.47,2.28,1.86,4.22c-2.24,2.62-2.48-0.04-3.28-1.24
		c-0.24-0.23-0.48-0.46-0.72-0.68C92.9,61.42,92.8,61.18,92.7,60.94z"/>
	<path class="st31" d="M118.29,70.53c0.79-2.77,3.02-1.02,4.56-1.43c-1.38,1.82-2.83,3.48-5.47,2.27
		C117.65,71.05,118.82,71.71,118.29,70.53z"/>
	<path class="st22" d="M164.51,25.12c-0.49,0-0.98,0-1.46,0.01c-1.03-0.92-1.01-2-0.21-2.96c1.22-1.47,1.39,1.56,2.55,0.68
		c0.48,0.41,0.61,0.93,0.47,1.54C165.5,24.79,165.09,25.11,164.51,25.12z"/>
	<path class="st26" d="M168.37,60.83c1.45,0.47,1.1,2.19,2.1,2.98c0.34,1.22-0.03,2.61,0.84,3.71c0.43,0.74,0.5,1.5,0.1,2.28
		c-0.41,0.23-0.75,0.15-1.03-0.22c-0.22-2.76-1.07-5.35-2.1-7.89C168.05,61.37,168.07,61.09,168.37,60.83z"/>
	<path class="st32" d="M102.66,61.65c-0.86-1.75-0.26-3.52-0.06-5.29c0.27-0.38,0.57-0.4,0.9-0.07
		C104.4,58.26,103.78,59.99,102.66,61.65z"/>
	<path class="st33" d="M98.91,73.53c-0.11,1.5,0.37,2.77,1.51,3.78c-0.42,0.95-1.07,1.32-2.07,0.85c-0.1-0.31-0.2-0.62-0.3-0.93
		c-0.24-0.99-0.48-1.97-0.72-2.96c0.26-0.29,0.36-0.76,0.85-0.83C98.42,73.47,98.67,73.5,98.91,73.53z"/>
	<path class="st9" d="M23.54,106.82c-1.11,1.32-1.73,0.23-2.42-0.5c1.72-0.21,1.54-1.5,1.65-2.72c0.12-1.36-0.66-2.96,0.89-4.02
		C23.61,101.99,23.58,104.4,23.54,106.82z"/>
	<path class="st26" d="M44.33,67.57c0.27-0.02,0.54-0.03,0.81-0.05c0,0,0.01,0.03,0.01,0.03c0.39,1.02,0.84,2.02,1.08,3.09
		c-0.26,1.06-0.85,2.01-1.01,3.11c-0.06,0.41-0.11,0.83-0.17,1.24c-0.22,0.33-0.44,0.35-0.66,0c-0.02-1.52,0.17-3.07-0.77-4.43
		c0.17-0.55,0.4-1.08,0.74-1.56C44.35,68.52,44.34,68.04,44.33,67.57z"/>
	<path class="st34" d="M92.9,55.64c1.54,1.7,0.14,2.71-0.9,3.8c-0.8-1.29-0.71-2.58,0.02-3.86C92.34,55.2,92.63,55.22,92.9,55.64z"
		/>
	<path class="st10" d="M28.69,34.84c0.77,1.47,1.53,2.94,2.3,4.41c0.21,0.28,0.23,0.58,0.04,0.88c-0.31,0.19-0.59,0.15-0.85-0.11
		c-1.23-1.48-2.18-3.07-2.24-5.07C28.19,34.91,28.44,34.87,28.69,34.84z"/>
	<path class="st27" d="M154.83,34.83c0.25,0.23,0.49,0.46,0.74,0.68c0.52,1.24,1.04,2.49,1.57,3.73c0.21,0.29,0.23,0.58,0.04,0.89
		c-0.31,0.18-0.6,0.16-0.85-0.11c-1.23-1.47-2.18-3.07-2.24-5.06C154.34,34.91,154.59,34.87,154.83,34.83z"/>
	<path class="st35" d="M39.98,35.1c0.46,1.64,0.92,3.29,1.39,4.93c-0.49,0.49-0.97,0.98-1.46,1.46c0.11-2.19,0.05-4.37-0.71-6.47
		C39.46,35.05,39.72,35.08,39.98,35.1z"/>
	<path class="st36" d="M38.31,32.64c-1.3,2.49-2.5,1.72-3.66-0.11c0.01-0.23,0.02-0.47,0.03-0.7c0.25-0.27,0.55-0.48,0.89-0.62
		c0.73-0.22,1.45-0.2,2.18,0.01c0.35,0.14,0.63,0.36,0.85,0.68C38.5,32.14,38.41,32.39,38.31,32.64z"/>
	<path class="st9" d="M103.5,56.29c-0.3,0.02-0.6,0.05-0.9,0.07c-0.26-1.38-0.51-2.77-2.3-2.97c-0.18-0.26-0.15-0.49,0.08-0.71
		c0.58-0.03,1.14-0.12,1.47-0.7C103.8,52.88,103.42,54.67,103.5,56.29z"/>
	<path class="st8" d="M119.08,106.17c-1.51,0.02-3.02,0.04-4.52,0.06c0.75-1.69,2.27-1.43,3.68-1.45
		C119.01,104.94,119.18,105.48,119.08,106.17z"/>
	<path class="st26" d="M170.39,69.57c0.29,0.07,0.59,0.14,0.88,0.21c0.76-0.26,0.98,0.2,1.09,0.81c-0.21,1.09-0.86,2.05-0.99,3.16
		c-0.06,0.41-0.11,0.82-0.17,1.24c-0.22,0.34-0.45,0.34-0.67,0c-0.02-1.52,0.18-3.07-0.78-4.43c0.07-0.42,0.57-0.54,0.67-0.93
		L170.39,69.57z"/>
	<path class="st37" d="M38.59,31.89c-0.31-0.02-0.63-0.05-0.94-0.07c-0.62-0.65-2-0.8-1.46-2.21c0.81-0.04,1.69,0.11,2.23-0.75
		c1.4-0.08,1.15,0.7,0.8,1.53C39.01,30.88,38.8,31.39,38.59,31.89z"/>
	<path class="st5" d="M164.51,25.12c0.45-0.24,0.9-0.49,1.35-0.73c0.31,1.33,0.86,2.7-0.46,3.83
		C164.89,27.25,164.45,26.25,164.51,25.12z"/>
	<path class="st38" d="M163.84,31.1c-2.64-2.72,1.54-1.11,1.42-2.23c0.14,1.09,0.36,2.19-0.6,3.05
		C164.18,31.86,164.1,31.39,163.84,31.1z"/>
	<path class="st33" d="M92.9,55.64c-0.29-0.02-0.59-0.04-0.88-0.06c0.24-2.04,0.83-3.84,3.1-4.47C94.38,52.62,92.96,53.8,92.9,55.64
		z"/>
	<path class="st39" d="M24.11,76.65c0.05-0.55,0.1-1.11,0.15-1.66c0.39-0.38,0.85-0.45,1.35-0.26c0.72,1.06-0.18,2.17,0.11,3.24
		c-0.44,0.48-0.89,0.97-1.33,1.45C24.29,78.5,24.2,77.57,24.11,76.65z"/>
	<path class="st12" d="M57.88,106.19c-1.01,0-2.02,0-3.03,0.01c0.02-1,0.61-1.41,1.53-1.47C57.31,104.77,57.98,105.09,57.88,106.19z
		"/>
	<path class="st36" d="M44.39,74.99c0.22,0,0.44,0,0.66,0c0.07,1.98,0.14,3.96,0.22,5.95C43.5,79.17,44.76,76.96,44.39,74.99z"/>
	<path class="st36" d="M170.54,74.99c0.22,0,0.44,0,0.67,0c0.07,1.98,0.14,3.96,0.21,5.95C169.64,79.17,170.91,76.96,170.54,74.99z"
		/>
	<path class="st1" d="M154.9,71.36c0.24-0.04,0.49-0.08,0.73-0.12c1.26,0.06,2.52,0.12,3.78,0.18c0.01,0.82-0.11,1.6-0.78,2.18
		C158.46,71.07,155.76,72.73,154.9,71.36z"/>
	<path class="st13" d="M80.17,109.97c0.76,0.4,1.86,0.87,1.64,1.73c-0.26,1.03-1.47,0.31-2.24,0.51
		C79.77,111.47,79.97,110.72,80.17,109.97z"/>
	<path class="st13" d="M82.45,114.29c0.56-0.95,1.35-1.66,2.34-2.14C85.65,114.64,84.12,114.54,82.45,114.29z"/>
	<path class="st5" d="M39.14,27.39c-0.78-0.62-0.92-1.44-0.54-2.27c0.09-0.18,0.83-0.06,1.27-0.08c0.01,0.78,0.02,1.56,0.03,2.34
		C39.66,27.7,39.41,27.72,39.14,27.39z"/>
	<path class="st32" d="M45.23,73.74c-0.25-1.16,0.08-2.2,0.65-3.2c0.25-0.37,0.51-0.39,0.81-0.05
		C47.67,72.23,45.37,72.51,45.23,73.74z"/>
	<path class="st26" d="M171.37,73.75c-0.25-1.16,0.08-2.21,0.64-3.21c0.25-0.37,0.52-0.37,0.81-0.05
		C173.84,72.24,171.52,72.52,171.37,73.75z"/>
	<path class="st4" d="M130.95,69.03c0.53,0.01,1.06,0.03,1.6,0.04c-1.29,1.48-3.07,0.33-4.53,0.85
		C128.69,68.62,129.92,69.17,130.95,69.03z"/>
	<path class="st40" d="M81.67,90.15c0.24-0.36,0.48-0.73,0.72-1.09c-0.04,1.26,1.58,2.44,0.18,3.77
		C82.27,91.93,81.97,91.04,81.67,90.15z"/>
	<path class="st33" d="M163.84,31.1c0.27,0.27,0.55,0.55,0.82,0.82c-0.12,0.48-0.24,0.97-0.36,1.45c-0.4,0.22-0.81,0.44-1.21,0.66
		c-0.91-1.09-0.09-1.65,0.69-2.22C163.81,31.59,163.83,31.35,163.84,31.1z"/>
	<path class="st41" d="M39.14,27.39c0.25-0.01,0.51-0.01,0.76-0.02c0.19,1.1,0.16,2.15-0.69,3.01c-0.08-0.61-0.18-1.2-0.8-1.53
		C38.66,28.37,38.9,27.88,39.14,27.39z"/>
	<path class="st30" d="M46.81,92.09c-1.44-1.1-1.14-2.35-0.31-3.65C46.6,89.66,46.7,90.87,46.81,92.09z"/>
	<path class="st42" d="M87.6,96.58c-0.92-1.24-1.12-2.45,0.13-3.61c-0.01,0.17-0.02,0.34-0.03,0.5
		C87.67,94.51,87.63,95.55,87.6,96.58z"/>
	<path class="st43" d="M87.7,93.48c0.02-0.17,0.03-0.34,0.02-0.5c0.35-0.95,1.33-1.16,2.03-1.69c0.06,0.32,0.11,0.65,0.17,0.97
		C89.19,92.66,88.44,93.07,87.7,93.48z"/>
	<path class="st20" d="M182.52,104.69c-1.28,0.17-2.41,0.02-2.99-1.35C180.52,103.8,181.52,104.25,182.52,104.69z"/>
	<path class="st9" d="M151.7,93.54c-0.76-1.31-1.12-2.57,0.39-3.63C151.96,91.12,151.83,92.33,151.7,93.54z"/>
	<path class="st9" d="M25.55,93.54c-0.75-1.31-1.12-2.57,0.4-3.63C25.82,91.12,25.68,92.33,25.55,93.54z"/>
	<path class="st31" d="M113.02,71.29c1.31,0.02,2.62,0.04,3.93,0.07C115.62,72.23,114.31,72.44,113.02,71.29z"/>
	<path class="st30" d="M172.95,92.09c-1.43-1.11-1.15-2.36-0.3-3.65C172.75,89.66,172.85,90.87,172.95,92.09z"/>
	<path class="st9" d="M149.5,103.24c-0.86-1.29-1.12-2.54,0.29-3.66C149.69,100.8,149.6,102.02,149.5,103.24z"/>
	<path class="st15" d="M18.99,110.01c0.74,0.32,1.49,0.64,2.33,1c-1.11,0.85-1.83,0.42-2.45-0.5
		C18.78,110.31,18.82,110.14,18.99,110.01z"/>
	<path class="st2" d="M46.68,70.49c-0.27,0.02-0.54,0.03-0.81,0.05c-0.48-0.94-0.9-1.89-0.72-2.99
		C46.08,68.32,46.38,69.41,46.68,70.49z"/>
	<path class="st13" d="M145.15,110c0.74,0.32,1.48,0.64,2.31,1.01c-1.09,0.85-1.81,0.42-2.43-0.49
		C144.93,110.32,144.97,110.14,145.15,110z"/>
	<path class="st2" d="M172.83,70.49c-0.27,0.02-0.54,0.03-0.81,0.05c-0.25-0.25-0.5-0.5-0.74-0.76c0.01-0.75,0.03-1.51,0.04-2.26
		C172.21,68.31,172.53,69.39,172.83,70.49z"/>
	<path class="st13" d="M79.44,112.94c0.76,0.47,1.51,0.93,2.27,1.4C80.45,114.67,79.29,114.87,79.44,112.94z"/>
	<path class="st11" d="M30.18,40.02c0.26,0,0.53-0.01,0.79-0.01c1.15-0.32,1.41,0.67,1.92,1.29c0.65,1.13,1.03,2.39,1.63,3.55
		c0.08,1.03,0.69,1.6,1.65,1.86c0.25,0.24,0.49,0.48,0.74,0.72c0.28,0.27,0.72,0.38,0.82,0.83c-2.88,1.44-6.33,1.03-9.1,2.81
		c-0.27,0.3-0.57,0.31-0.87,0.05c-0.25-0.53-0.24-1.01,0.22-1.43c-0.24-1.21-0.48-2.41-0.71-3.62c0.24-0.68,1.04-0.41,1.43-0.86
		C31.05,44.01,29.99,41.83,30.18,40.02z"/>
	<path class="st44" d="M42.18,61.65c-4.98,2.19-9.9,1.25-14.82-0.24c-0.69-0.91-1-1.74,0.51-2.12c4.37,2.46,8.88,2.67,13.52,0.84
		c0.28-0.44,0.52-0.42,0.71,0.07C42.13,60.67,42.15,61.16,42.18,61.65z"/>
	<path class="st45" d="M28.1,50.98c0.17,0.05,0.35,0.08,0.53,0.1c-0.01,0.31-0.02,0.61-0.03,0.92c-0.43,1.21-0.5,2.41,0.05,3.61
		c-0.24,0.76-0.47,1.51-0.71,2.27c-0.23,0.36-0.47,0.35-0.7,0c-0.07-0.27-0.14-0.55-0.21-0.82C27.33,55.01,25.48,52.61,28.1,50.98z"
		/>
	<path class="st25" d="M37.73,48.26c-0.27-0.28-0.54-0.55-0.82-0.83c1.5,0.26,3.19-0.59,4.5,0.78c-0.02,0.23-0.03,0.46-0.04,0.69
		c-0.44,0.5-0.93,0.44-1.45,0.12C39.2,48.77,38.46,48.51,37.73,48.26z"/>
	<path class="st39" d="M42.11,60.19c-0.24-0.03-0.47-0.05-0.71-0.07c-0.42-1.5-0.84-3-1.26-4.5C41.56,56.85,42.21,58.37,42.11,60.19
		z"/>
	<path class="st46" d="M27.24,57.87c0.23,0,0.47,0,0.7,0c-0.02,0.47-0.05,0.94-0.07,1.41c-0.77,0.56-0.6,1.36-0.51,2.12
		c-0.29,0.33-0.58,0.67-0.86,1C26.35,60.83,26.41,59.29,27.24,57.87z"/>
	<path class="st47" d="M28.65,55.6c-1.04-1.19-1.01-2.4-0.05-3.61C28.62,53.19,28.64,54.4,28.65,55.6z"/>
	<path class="st37" d="M39.93,49.02c0.48-0.04,0.96-0.08,1.45-0.12c0,0.72,0,1.43,0,2.92C40.68,50.47,40.3,49.75,39.93,49.02z"/>
	<path class="st48" d="M25.72,77.97c-1.36-0.99-0.36-1.99-0.01-2.99c-0.32-1.86-0.82-3.75,0.82-5.31c0.77,0.5,1.54,1,2.32,1.5
		C27.06,73.1,27.53,76.06,25.72,77.97z"/>
	<path class="st26" d="M170.43,69.63c-0.22,0.31-0.45,0.62-0.67,0.93c-1.2,0.67-2.48,0.87-3.83,0.65
		C167.43,70.68,168.93,70.15,170.43,69.63z"/>
	<path class="st32" d="M44.37,68.99c0.03,0.65-0.13,1.21-0.74,1.56c-1.21,0.66-2.49,0.89-3.86,0.64
		C41.3,70.46,42.83,69.72,44.37,68.99z"/>
	<path class="st1" d="M26.53,69.68c-0.27,1.77-0.55,3.54-0.82,5.31c-0.48,0-0.97,0-1.45,0.01c1.26-2.38,0.52-4.96,0.72-7.44
		c1.45-0.43,0.85,1.07,1.4,1.48C26.46,69.24,26.51,69.45,26.53,69.68z"/>
	<path class="st30" d="M26.38,69.03c-0.47-0.49-0.93-0.99-1.4-1.48c0.24-1.49-0.6-3.15,0.73-4.46c0.81,1.15,0.05,2.52,0.54,3.72
		C26.29,67.54,26.34,68.29,26.38,69.03z"/>
	<path class="st49" d="M26.25,66.8c-0.95-1.13-0.42-2.47-0.54-3.72c0.28-0.25,0.55-0.5,0.83-0.75
		C26.74,63.84,26.72,65.34,26.25,66.8z"/>
	<path class="st28" d="M168.37,60.83c-0.03,0.28-0.05,0.57-0.08,0.85c-4.97,2.14-9.88,1.23-14.78-0.27
		c-0.82-0.95-0.68-1.75,0.37-2.41c4.43,0.93,8.87,1.88,13.41,0.63c0.39,0.07,0.72,0.26,0.98,0.56
		C168.26,60.41,168.3,60.62,168.37,60.83z"/>
	<path class="st30" d="M152.72,69c-1.9-1.73-2.24-3.7-0.87-5.91c0.83,1.14,0.06,2.51,0.54,3.7C152.5,67.53,152.61,68.26,152.72,69z"
		/>
	<path class="st50" d="M154.04,59.28c-0.78,0.56-0.61,1.36-0.53,2.14c-0.29,0.33-0.58,0.66-0.87,1c0.16-1.57,0.32-3.13,0.48-4.7
		c0.15-0.05,0.31-0.1,0.46-0.15c0.34,0.03,0.6,0.19,0.81,0.46C154.54,58.51,154.54,58.96,154.04,59.28z"/>
	<path class="st51" d="M152.39,66.79c-0.95-1.12-0.41-2.46-0.54-3.7c0.28-0.25,0.56-0.5,0.84-0.75
		C152.91,63.84,152.88,65.33,152.39,66.79z"/>
	<path class="st11" d="M156.33,40.02c0.26,0,0.53-0.01,0.79-0.01c2.44,0.37,2.28,2.66,3.13,4.2c0.35,1.28,1.19,2.26,2.04,3.23
		c0.26,0.01,0.52,0.01,0.78,0.02c0.52,0.24,0.97,0.54,0.89,1.22c-2.54,2.07-5.86,1.73-8.71,2.85c-0.38,0.04-0.74-0.02-1.09-0.16
		c-0.2-0.21-0.27-0.41-0.19-0.62c0.07-0.2,0.14-0.3,0.21-0.3c-0.26-1.46-0.51-2.92-0.77-4.37c0.24-0.68,1.05-0.41,1.43-0.85
		C157.19,44.01,156.13,41.83,156.33,40.02z"/>
	<path class="st36" d="M154.18,50.44c0.03,0.17,0.05,0.35,0.05,0.53c0.07,2.35,0.74,4.77-0.85,6.91c0,0-0.25-0.16-0.25-0.17
		C152.82,55.19,151.11,52.47,154.18,50.44z"/>
	<path class="st52" d="M154.84,45.22c-0.48,0.28-0.95,0.57-1.43,0.85c0-1.03,0-2.07,0-3.6C154.04,43.68,154.44,44.45,154.84,45.22z"
		/>
	<path class="st9" d="M28.1,50.98c-1.8,1.77-0.42,4.1-1.07,6.07c-0.4-2.54-2.03-5.25,0.95-7.36C28.02,50.12,28.06,50.55,28.1,50.98z
		"/>
	<path class="st52" d="M28.69,45.21c-0.48,0.28-0.95,0.57-1.43,0.85c0-1.04,0-2.07,0-3.6C27.9,43.68,28.3,44.45,28.69,45.21z"/>
	<path class="st48" d="M151.12,77.97c0.01-1.07,0.5-1.82,1.5-2.23c0.09,1.28-0.15,2.4-1.48,2.97
		C151.13,78.46,151.12,78.21,151.12,77.97z"/>
	<path class="st33" d="M93.72,62.35c1.16,0.12,1.14,2.54,2.91,1.47c0.26-0.26,0.51-0.25,0.76,0.01c0.06,1.27-0.12,2.41-1.5,2.95
		C94.51,65.63,92.09,64.97,93.72,62.35z"/>
	<path class="st53" d="M98.17,73.45c-0.28,0.28-0.56,0.55-0.85,0.83c-0.53-1.36-2.17-2.06-2.23-3.7
		C98.64,68.84,97.91,71.68,98.17,73.45z"/>
	<path class="st54" d="M115.29,68.3c0,0.49,0,0.99,0,1.48c-1.74-0.25-3.48-0.49-5.22-0.74c0-0.25,0-0.49,0-0.74
		C111.81,68.3,113.55,68.3,115.29,68.3z"/>
	<path class="st21" d="M86.17,83.98c1.26,0.46,2.52,0.92,3.77,1.38c-0.29,0.31-0.58,0.62-0.87,0.93c-0.97-0.3-1.94-0.6-2.91-0.91
		C86.17,84.92,86.17,84.45,86.17,83.98z"/>
	<path class="st55" d="M32.4,41.51c-0.48-0.5-0.95-1.01-1.43-1.51c0-0.25,0.01-0.5,0.01-0.76c0.58-0.33,0.7-0.88,0.71-1.48
		c0.4-0.37,0.6-1.14,1.41-0.73c0.29,1.47,0.57,2.95,0.86,4.42c0.15,0.32,0.21,0.7-0.19,0.81C33.11,42.47,32.77,41.94,32.4,41.51z"/>
	<path class="st53" d="M35.39,31.81c-0.24,0-0.47,0-0.71,0.01c-0.14-1.91-2.08-4.31,1.42-5.24c0.02,0.24,0.04,0.47,0.05,0.71
		C35.11,28.67,36.62,30.47,35.39,31.81z"/>
	<path class="st34" d="M33.1,37.04c-0.47,0.24-0.94,0.49-1.41,0.73c0.12-0.9,0.23-1.81,1.11-2.35c0.13,0.3,0.26,0.59,0.39,0.89
		C33.2,36.55,33.17,36.8,33.1,37.04z"/>
	<path class="st55" d="M160.01,44.51c-0.96-1.5-1.93-3.01-2.89-4.51c0.01-0.25,0.01-0.51,0.02-0.76c0.71-0.73,1.42-1.47,2.13-2.2
		c-0.17,2.16,1.1,3.92,1.64,5.88c-0.05,0.52-0.1,1.03-0.15,1.55C160.52,44.85,160.28,44.86,160.01,44.51z"/>
	<path class="st53" d="M162.29,26.61c-1.05,1.62-0.58,3.47-0.84,5.22C159.72,29.76,158.95,27.86,162.29,26.61z"/>
	<path class="st36" d="M163.78,31.83c-0.23,0.74-0.46,1.48-0.69,2.22c-1.8,0.72-1.23-0.86-1.56-1.58c-0.01-0.2-0.01-0.4,0-0.61
		C162.28,31.84,163.03,31.84,163.78,31.83z"/>
	<path class="st6" d="M32.4,41.51c0.52,0.04,1.07,0.82,1.56-0.05c0.26,0.5,0.51,1.01,0.77,1.51c-0.01,0.24-0.02,0.48-0.01,0.71
		c0.34,0.79,0.68,1.57-0.74,1.5C33.46,43.96,32.93,42.74,32.4,41.51z"/>
	<path class="st56" d="M97.39,63.83c-0.25,0-0.5-0.01-0.76-0.01c0.19-1.72-0.86-3.02-1.5-4.46c1.22-1.94,0.7-4.68,2.85-6.19
		c0.73-0.51,1.29-1.79,2.39-0.49c-0.01,0.24-0.04,0.47-0.08,0.71c-1.9,1.25,1.24,3.25-0.67,4.5c-0.21,0.19-0.41,0.4-0.6,0.61
		c-0.32,0.43-0.58,0.9-0.66,1.43c0.02,0.39,0.23,0.67,0.49,0.93C98.77,62.04,98.34,63.07,97.39,63.83z"/>
	<path class="st32" d="M98.86,60.86c-0.81,0.37-1.54,0.57-1.44-0.76c0.71-0.58,0.89-1.52,1.44-2.21c0.25,0,0.51,0,0.76,0
		C99.51,58.91,99.96,60.08,98.86,60.86z"/>
	<path class="st25" d="M163.87,48.25c-0.27-0.27-0.53-0.53-0.8-0.8c1.77-1.12,3.25-0.68,4.55,0.81c-0.03,0.23-0.05,0.45-0.07,0.68
		c-0.39,0.4-0.87,0.58-1.43,0.58C165.18,49.41,164.41,49.04,163.87,48.25z"/>
	<path class="st57" d="M160.01,44.51c0.24-0.02,0.49-0.04,0.73-0.04c0.52,0.98,1.68,1.64,1.54,2.96
		C160.54,47.23,160.36,45.81,160.01,44.51z"/>
	<path class="st58" d="M33.98,45.18c0.59-0.33,0.68-0.91,0.74-1.5c0.49,1.01,0.97,2.02,1.46,3.02
		C34.43,47.65,34.08,46.6,33.98,45.18z"/>
	<path class="st39" d="M168.26,60.19c-0.24-0.03-0.47-0.05-0.71-0.07c-2.09-2.48-3.4-5.08-1.36-8.23c0.2,0.01,0.41,0.02,0.61,0.02
		C166.26,54.85,168.32,57.33,168.26,60.19z"/>
	<path class="st48" d="M166.07,49.03c0.49-0.03,0.98-0.06,1.47-0.09c-0.09,1.03,0.34,2.19-0.74,2.97c0,0,0,0,0,0
		C165.97,51.1,165.56,50.18,166.07,49.03z"/>
	<path class="st41" d="M35.39,31.81c0.28-1.5-0.54-3.18,0.76-4.51c0.01,0.77,0.03,1.54,0.04,2.31c0.49,0.74,0.98,1.48,1.47,2.21
		C36.89,31.82,36.14,31.81,35.39,31.81z"/>
	<path class="st2" d="M166.07,49.03c0.55,0.89,0.83,1.84,0.73,2.89c-2.11,2.95,0.53,5.47,0.74,8.21c-4.63,1.81-9.14,1.65-13.51-0.85
		c0.02-0.47,0.04-0.94,0.06-1.41c-0.35-0.87,0.15-1.74,0.01-2.61c0.03-1.08-0.07-2.17,0.14-3.25c0.14-0.34,0.32-0.66,0.54-0.96
		c2.78-1.74,6.21-1.38,9.08-2.81C164.6,48.51,165.34,48.77,166.07,49.03z"/>
	<path class="st59" d="M154.79,51.06c-0.01,0.31-0.02,0.62-0.03,0.93c-0.45,1.21-0.52,2.42,0.05,3.62
		c-0.24,0.75-0.47,1.51-0.71,2.26c-0.24,0-0.48,0.01-0.72,0.01c0.27-2.3-0.84-4.78,0.85-6.91C154.41,51.03,154.6,51.06,154.79,51.06
		z"/>
	<path class="st39" d="M98.87,57.89c0.01,1.05,0.06,2.13-1.44,2.21C97.4,59.03,97.87,58.29,98.87,57.89z"/>
	<path class="st47" d="M154.81,55.6c-1.06-1.19-1.03-2.4-0.05-3.62C154.78,53.19,154.79,54.4,154.81,55.6z"/>
</g>
</svg>
