<?xml version="1.0" encoding="utf-8"?>
<!-- Generator: Adobe Illustrator 24.2.1, SVG Export Plug-In . SVG Version: 6.00 Build 0)  -->
<svg version="1.1" id="Calque_1" xmlns="http://www.w3.org/2000/svg" xmlns:xlink="http://www.w3.org/1999/xlink" x="0px" y="0px"
	 viewBox="0 0 194 102" style="enable-background:new 0 0 194 102;" xml:space="preserve">
<style type="text/css">
	.st0{fill:#FEFEFE;}
	.st1{fill:#FFDDC6;}
	.st2{fill:#FFDCC5;}
	.st3{fill:#42926D;}
	.st4{fill:#40916C;}
	.st5{fill:#FFDCC4;}
	.st6{fill:#559D7C;}
	.st7{fill:#FFC6A0;}
	.st8{fill:#7CC9A5;}
	.st9{fill:#469470;}
	.st10{fill:#7EC9A6;}
	.st11{fill:#4D9976;}
	.st12{fill:#FFDBC3;}
	.st13{fill:#7BC8A4;}
	.st14{fill:#FFD4B7;}
	.st15{fill:#FFC7A1;}
	.st16{fill:#519B79;}
	.st17{fill:#FFC69F;}
	.st18{fill:#FFDDC7;}
	.st19{fill:#87CDAC;}
	.st20{fill:#FFEBDE;}
	.st21{fill:#FFD4B8;}
	.st22{fill:#FFD9BF;}
	.st23{fill:#FFDFC9;}
	.st24{fill:#70C39C;}
	.st25{fill:#FFD9C0;}
	.st26{fill:#82CBA9;}
	.st27{fill:#FFDAC1;}
	.st28{fill:#FFE0CB;}
	.st29{fill:#FFD6BB;}
	.st30{fill:#FFF2E9;}
	.st31{fill:#FFD7BD;}
	.st32{fill:#FFD6BA;}
	.st33{fill:#FFD5B9;}
	.st34{fill:#FFD8BE;}
	.st35{fill:#FCF8F5;}
	.st36{fill:#FFC299;}
	.st37{fill:#FFCAA6;}
	.st38{fill:#FFC49C;}
	.st39{fill:#FFC9A4;}
	.st40{fill:#FFDEC8;}
	.st41{fill:#6DC29A;}
	.st42{fill:#FFF6F1;}
	.st43{fill:#77C7A2;}
	.st44{fill:#65BF95;}
	.st45{fill:#FFCFAF;}
	.st46{fill:#FFC39B;}
	.st47{fill:#FFC8A3;}
	.st48{fill:#FFC49D;}
	.st49{fill:#FCF9F6;}
	.st50{fill:#FFF5EF;}
	.st51{fill:#FFF1E8;}
</style>
<g>
	<path class="st0" d="M4.06,0.07c60.96,0,121.91,0.02,182.87-0.07c2.57,0,3.08,0.5,3.07,3.07c-0.11,32.08-0.1,64.17-0.01,96.25
		c0.01,2.23-0.45,2.69-2.69,2.68c-60.21-0.08-120.41-0.08-180.62,0c-2.24,0-2.69-0.45-2.69-2.68C4.09,66.24,4.06,33.15,4.06,0.07z"
		/>
	<path class="st1" d="M48.37,65.17c-0.78-6.38,1.37-12.52,1.54-18.79c0.16-5.67,2.19-11.15,1.38-16.87c-0.6-1.08,0.1-1.65,0.93-1.96
		c1.13-0.42,1.86,0.25,2.4,1.18c0.14,0.38,0.2,0.78,0.19,1.18c-0.37,1.4-0.03,2.75,0.33,4.09c0.35,5.8,0.12,11.61,0.15,17.41
		c0.01,3.11,0.5,6.12,1.32,9.1c0.45,0.98,0.78,2,0.86,3.09c0.03,1.08-0.01,2.14-0.51,3.13C53.84,69.04,51.4,68.59,48.37,65.17z"/>
	<path class="st1" d="M109.23,66.12c1.08-10.19,3.97-19.99,6.24-29.93c0.43-1.89,0.24-3.93,0.34-5.9c0.94-2.13,2.09-2.05,3.41-0.33
		c-0.41,5.54,0.23,11.16-1.09,16.65c-0.05,0.43-0.15,0.85-0.27,1.27c-0.57,5.51-0.62,11.01,0.05,16.51c0.2,1.63,0.41,3.18-0.77,4.53
		C113.59,70.25,111.49,69.51,109.23,66.12z"/>
	<path class="st2" d="M152.32,71.98c-3.98-2.77-6.78-6.38-8.02-11.12c1.33-0.35,1.56,0.85,2.07,1.55c1.08,1.45,1.71,0.83,2.28-0.38
		c0.3-0.58,0.68-1.12,1.03-1.66c0.8-1.16,0.29-2.15-0.4-3.12c-0.13-0.29-0.21-0.59-0.24-0.91c0.18-1-0.56-1.62-0.99-2.37
		c0.78-0.9,2.02-0.92,2.75-0.53c3.27,1.73,4.38-0.19,5.6-2.73c1.11-2.31,2.7-4.39,4.08-6.58c1.16-0.32,1.34,0.52,1.57,1.31
		c-0.38,5.73-3.65,10.35-5.9,15.35c-1.19-0.77-1.19-0.77-2.01,1.87c-0.23,0.82-0.56,1.62-0.46,2.51
		C154.02,67.6,154.89,70.13,152.32,71.98z"/>
	<path class="st1" d="M96.91,74.16c-4.03,0.4-6.58-1.64-8.28-5.06c-0.55-0.76-1.14-1.51-1.05-2.53c0.6-2.92-0.27-5.83-0.15-8.74
		c-0.55-2.47-1.06-4.95-0.95-7.5c-0.6-1.21-0.31-2.46-0.21-3.7c0.32-0.37,0.68-0.42,1.09-0.14c1.22,3.24,2.44,6.48,3.66,9.72
		c0.33,2.41,0.68,4.81,1.27,7.17c0.31,1.16,0.68,2.28,1.78,2.98C98.81,69.42,99.35,70.91,96.91,74.16z"/>
	<path class="st1" d="M174.26,52.5c1.73,5.19,3.3,10.4,2.85,15.97c-1.38,0.7-2.7,0.39-4.02-0.2c-1.25-1.56-0.7-3.57-1.31-5.29
		c-0.18-2.24-0.09-4.48-0.13-6.72c0.01-1.48,0.01-2.95,0-4.43c0.07-2.57-0.1-5.14,0.17-7.71c0.05-0.44,0.14-0.87,0.25-1.29
		c0.71-3.14,0.07-6.34,0.41-9.49c0.19-1.7,0.35-3.66,3.01-2.54c-0.34,5.49,1.59,11.15-1.24,16.46
		C173.56,49.01,173.55,50.75,174.26,52.5z"/>
	<path class="st1" d="M120.28,45.17c-2.14,6.13,0.35,11.98,1.12,17.92c0.29,2.21,0.71,4.4-0.06,6.59c-1.2,0.04-2.09-0.58-2.9-1.38
		c-1.41-3.07-1.69-6.34-1.56-9.66c0.16-3.8-0.43-7.62,0.36-11.39l-0.01,0.01c1.43-3.94,1.1-8.04,1.16-12.11
		c0.02-1.4-0.53-3.12,1.5-3.75C121.32,35.95,120.53,40.57,120.28,45.17z"/>
	<path class="st1" d="M56.53,63.74c-0.03-0.83,0.13-1.71-0.76-2.25c-1.77-9.26-0.91-18.62-1.12-27.93
		c-0.17-1.09-0.58-2.19,0.08-3.26c0.97-0.77,1.2-0.08,1.38,0.7c0.21,0.92-0.36,1.98,0.52,2.77c0.82,4,2.14,8.01-0.1,11.99
		c-0.6,1.26-0.63,2.52,0.04,3.77c1.4,4.63,2.83,9.26,4.18,13.91c0.38,1.31,0.54,2.69-0.08,4.01c-1.01,0.31-1.45-0.62-2.16-0.96
		C57.27,65.98,57.06,64.74,56.53,63.74z"/>
	<path class="st3" d="M119.44,68.12c0.63,0.52,1.26,1.05,1.9,1.57c-2.28,5.25-6.07,6.99-11.63,5.34c-2.81-3.61-3-5.53-0.83-8.42
		c0.13-0.15,0.25-0.31,0.35-0.49c2.23,1.45,4.27,3.36,7.27,2.83C117.42,68.48,118.2,67.47,119.44,68.12z"/>
	<path class="st3" d="M173.4,68.12c1.31-0.67,2.46,0.34,3.71,0.35c-1.12,5.59-4.68,7.81-11.14,6.93c-2.04-1.59-2.66-3.74-2.46-6.22
		c0.18-2.32,1.18-3.46,3.62-2.53C169.06,67.77,171.19,68.11,173.4,68.12z"/>
	<path class="st4" d="M58.76,65.96c0.82,0.26,1.59,0.58,1.89,1.49c-1.37,5.56-5.68,6.44-10.46,6.59c-3.59-3.26-4.19-5.94-1.96-8.68
		c0,0,0.14-0.18,0.14-0.18c2.64,0.93,4.99,3.38,8.14,1.51C57.11,65.95,57.7,65.22,58.76,65.96z"/>
	<path class="st1" d="M95.45,38.31c3.17,7.98,4.95,16.33,6.78,24.67c-1.09,1.07-2.38,1.3-3.82,0.89c-1-1.17-0.93-2.51-0.64-3.89
		c-0.82-4.87-1.65-9.73-2.46-14.6c-0.22-1.34-0.41-2.68-0.62-4.02C94.51,40.24,93.48,38.91,95.45,38.31z"/>
	<path class="st1" d="M18.34,69.93c-3.5,0.41-6.79,1.62-10.13,2.8c1.39-2.04,3.12-3.39,5.46-3.81c1.28-0.53,2.74-0.63,3.85-1.58
		c1.75-1.31,3.45,0.31,5.19,0.09c2.89-0.14,5.74,0.9,8.65,0.26c0.74,0.1,1.4,0.41,2.04,0.77c1.09,0.87,2.61,1.4,2.56,3.19
		c-0.21,1.02-1.15,1.26-1.88,1.74c-2.11,0.39-4.03-0.62-6.06-0.8c-1.88,0.09-3.38-0.64-4.57-2.06l0.1,0.04
		c-0.8-0.93-1.86-0.24-2.77-0.42C19.97,69.89,19.27,68.63,18.34,69.93z"/>
	<path class="st5" d="M48.23,65.35c-1.28,3.33,0.24,6.03,1.96,8.68c-1.84-0.65-3.93-0.09-5.68-1.14c-1.34-1.1-2.93-0.3-4.38-0.57
		c-3.58-1.61-2.29-3.92-0.92-6.26c1.02-1.15,2.26-1.93,3.82-2.13C44.76,64.41,46.5,64.88,48.23,65.35z"/>
	<path class="st5" d="M167.43,67.59c-2.43-1.28-3.21-0.5-3.16,2.16c0.03,2.12,1.01,3.81,1.7,5.65c-2.95-0.72-6.09,0.21-8.97-1.1
		c-0.59-0.58-0.87-1.28-0.87-2.1c0.1-1.55,0.51-2.99,1.53-4.2c0.53-0.5,1.16-0.83,1.83-1.08c0.62-0.24,1.26-0.44,1.88-0.71
		c0.76-0.34,1.53-0.69,2.35-0.87c0.52-0.11,1.04-0.14,1.56-0.1c0.36,0.03,0.71,0.12,1.05,0.24
		C167.11,65.96,167.91,66.44,167.43,67.59z"/>
	<path class="st5" d="M108.88,66.6c-1.2,2.95,0.01,5.67,0.83,8.42c-2.51-0.3-5.03-0.59-7.54-0.89c-0.79-0.48-1.71-0.83-2.04-1.83
		c-0.37-1.47-0.5-2.91,0.56-4.19c0.64-0.63,2.02-0.17,2.19-1.49c0.53-0.92,1.3-1.4,2.38-1.32C106.47,65.73,107.67,66.17,108.88,66.6
		z"/>
	<path class="st6" d="M54.3,29.22c-1.17-1.7-2.16-1.42-3,0.29c-2.02-0.44-2.46-2.95-4.64-3.38c-1.09-0.21-0.8-1.29,0.16-1.89
		c1.08-0.67,9.75-0.68,10.56,0.3c1.42,1.72,0.45,3.39-0.7,4.9C55.85,29.73,55.03,29.88,54.3,29.22z"/>
	<path class="st7" d="M148.06,53.96c1.45,0.18,3.02,0.3,1.47,2.35c-1.16,1.94-0.49,3.92-0.13,5.89c-0.65,0.84-0.26,2.55-1.58,2.65
		c-1.17,0.09-1.73-1.22-2.29-2.19c-0.36-0.63-0.81-1.21-1.22-1.81C143.79,57.6,144.72,55.12,148.06,53.96z"/>
	<path class="st8" d="M156.88,71.99c0.04,0.77,0.08,1.54,0.12,2.31c-1.91-0.07-3.3-1.18-4.67-2.32c1.29-2.44,1.1-4.91,0.18-7.4
		c0.77-0.73,1.72-0.99,2.76-1.04c1.41,0.01,2.81,0.06,3.9,1.13c0.26,0.29,0.41,0.64,0.47,1.02c0.05,1.1-0.8,1.53-1.55,2.02
		C157.03,68.95,156.15,70.25,156.88,71.99z"/>
	<path class="st9" d="M176.71,27.77c-0.16,0.93-0.12,1.95-1.1,2.53c-1.12,0.15-2.23,0.22-3.29-0.3c-0.61-0.35-1.14-0.08-1.66,0.25
		c-0.3,0.12-0.6,0.11-0.89-0.02c-1.5-1.45-2.65-3.29-4.66-4.17c0.03-0.38,0.09-0.81,0.4-1C168.19,23.47,174.85,25.1,176.71,27.77z"
		/>
	<path class="st10" d="M43.02,63.94c-0.64,1.18-1.91,1.46-2.97,2.04c-2.31,1.07-1.71,3.26-1.98,5.12c-0.23,0.26-0.51,0.4-0.85,0.41
		c-1.52-0.76-2.13-2.42-3.37-3.44c-0.33-0.36-0.61-0.76-0.8-1.22c-0.17-0.93,0.27-1.55,1.03-2.01
		C36.84,62.33,39.83,62.07,43.02,63.94z"/>
	<path class="st11" d="M118.71,30.07c-1.09-1.5-2-0.66-2.91,0.22c-1.53-1.58-3.06-3.16-4.6-4.74c4.28-1.58,7.94-0.15,11.4,2.31
		c0.1,1.15-0.29,2.11-1.1,2.92c-0.24,0.19-0.51,0.26-0.82,0.21C119.99,30.78,119.25,30.64,118.71,30.07z"/>
	<path class="st12" d="M34.08,64.83c-0.28,0.62-0.57,1.23-0.85,1.85c-0.54,0.7-1.31,0.73-2.09,0.72c-2.63-0.23-6.1,1.48-6.87-3.01
		C28.96,61.32,30.13,61.37,34.08,64.83z"/>
	<path class="st13" d="M100.82,72.72c0.45,0.47,0.9,0.94,1.35,1.41c-1.75,0.01-3.51,0.02-5.26,0.02c2.04-4.02-0.86-5.62-3.59-7.29
		c0.21-0.35,0.51-0.6,0.89-0.76c2.12-0.32,4.24-0.83,6.41-0.38c0.32,0.26,0.5,0.6,0.54,1C100.48,68.69,99.74,70.65,100.82,72.72z"/>
	<path class="st14" d="M91.7,63.76c-0.66-2.48-2.37-4.87-0.68-7.56c2.94-0.22,4.82,1.24,6,3.8c-0.08,0.15-0.15,0.29-0.23,0.44
		c-1.04,0.81-3.68-1.32-3.43,1.87C91.72,61.54,92.43,63.47,91.7,63.76z"/>
	<path class="st15" d="M24.27,64.39c1.35,3.42,4.51,1.58,6.78,2.32c0.45,0.44,1.18,0.75,0.74,1.6c-3.15,0.97-6.2,0.91-9.09-0.88
		C22.76,66.18,23.01,65.03,24.27,64.39z"/>
	<path class="st16" d="M122.61,27.86c-3.79-0.84-7.3-3-11.4-2.31c2.24-1.62,10.22-0.96,11.79,1.03
		C123.16,26.78,122.75,27.42,122.61,27.86z"/>
	<path class="st17" d="M87.42,57.83c1.46,2.93,2.13,5.91,0.61,9.04c-2.88-0.89-2.43-3.21-2.32-5.39
		C86.12,60.19,86.42,58.85,87.42,57.83z"/>
	<path class="st18" d="M161.49,45.88c-0.06-0.74-0.27-1.41-1.02-1.76c1-1.97,1.99-3.95,2.99-5.92c0.96-0.76,1.9-1.46,2.21,0.52
		c0.13,0.85,0.23,1.7,0.12,2.57C164.89,43.31,163.83,45.2,161.49,45.88z"/>
	<path class="st8" d="M176.71,27.77c-3.74-1.38-7.25-4.4-11.59-1.71c-0.86-1.82,0.67-1.74,1.61-1.87c3.08-0.43,6.08,0.3,9.06,0.9
		C177.27,25.38,177.84,26.38,176.71,27.77z"/>
	<path class="st19" d="M105.27,65.3c-0.74,0.48-1.49,0.97-2.23,1.45c-0.16,0-0.33,0-0.49,0c-0.89-0.06-1.31-0.94-2.11-1.17
		c-0.93-0.35-2.03-0.16-2.8-0.97c-0.13-0.33-0.13-0.66,0.03-0.98c0.32-0.2,0.62-0.19,0.92,0.03c1.13-0.66,2.38-0.65,3.63-0.67
		C103.33,63.64,104.62,64.05,105.27,65.3z"/>
	<path class="st20" d="M85.71,61.48c0.66,1.84,0.81,3.9,2.32,5.38c0.2,0.74,0.4,1.49,0.59,2.23C85.03,67.73,84.24,65.65,85.71,61.48
		z"/>
	<path class="st21" d="M171.97,29.19c1.22,0.37,2.43,0.74,3.65,1.11c0.06,0.2,0.02,0.37-0.13,0.51c-2.37-0.15-1.91,1.57-2.07,3
		c-0.36,3.23,0.92,6.58-0.73,9.71C170.59,38.83,171.63,33.99,171.97,29.19z"/>
	<path class="st22" d="M121,30.69c0.18-0.04,0.35-0.02,0.51,0.08c-0.96,3.36-0.29,6.8-0.5,10.19c-0.09,1.42,0.4,2.96-0.73,4.2
		c-0.51-4.53,0.83-9.17-0.79-13.64C119.36,30.11,120.18,30.41,121,30.69z"/>
	<path class="st2" d="M165.23,41.39c-1.17-0.74,1.29-3.49-1.77-3.18c2.44-5.54,2.45,1.45,3.96,0.76c0.59,0.45,0.65,1.06,0.53,1.72
		c-0.31,0.96-1.14,0.87-1.89,0.95C165.75,41.66,165.48,41.58,165.23,41.39z"/>
	<path class="st23" d="M86.5,46.51c-0.01,1.27-0.02,2.54-0.03,3.81c-0.73-3.52-1.46-7.03-2.18-10.55c1.3-0.2,1.55,0.9,2.06,1.67
		C86.71,43.12,87.23,44.8,86.5,46.51z"/>
	<path class="st24" d="M37.79,71.21c-0.01-4.3-0.01-4.3,2.27-5.23c-1.01,2-2.49,4,0.02,5.99c0.21,0.17,0.3,0.35,0.25,0.54
		c-0.05,0.2-0.11,0.3-0.17,0.3l-0.36,0.09l-0.37-0.05C37.99,73.19,37.91,72.17,37.79,71.21z"/>
	<path class="st25" d="M86.5,46.51c-0.25-1.75-0.5-3.5-0.75-5.24c-0.52-0.87,0.22-1.09,0.74-1.43c0.25,0.01,0.49,0.03,0.74,0.04
		c0.66,1.49,0.51,3.01,0.11,4.53c0.01,0.69,0.02,1.38,0.03,2.07C87.07,46.49,86.79,46.5,86.5,46.51z"/>
	<path class="st26" d="M37.79,71.21c0.54,0.54,1.09,1.09,1.63,1.63c-1.7,0.98-3.52,0.74-5.34,0.55c0.52-0.49,1.03-0.98,1.55-1.48
		c0.39-0.44,0.86-0.72,1.47-0.71C37.33,71.21,37.56,71.21,37.79,71.21z"/>
	<path class="st27" d="M167.43,41.26c0-0.76-0.01-1.52-0.01-2.29c0.29-0.73,0.59-1.47,0.89-2.2c0.47-0.91,1.11-1.42,2.18-0.9
		c0.54,1.09,0.08,2.06-0.34,3.04c-0.59,0.81-1.12,1.66-1.79,2.42C168.04,41.48,167.73,41.45,167.43,41.26z"/>
	<path class="st28" d="M170.44,36.01c-0.71,0.25-1.42,0.51-2.13,0.76c1.39-1.98,1.74-4.19,1.47-6.55c0.18-0.18,0.4-0.28,0.66-0.31
		C171.93,31.95,171.92,33.98,170.44,36.01z"/>
	<path class="st29" d="M23.44,70.53c1.53,0.69,3.05,1.37,4.57,2.06C25.44,74.24,24.35,72.58,23.44,70.53z"/>
	<path class="st25" d="M86.49,39.84c-0.25,0.48-0.49,0.95-0.74,1.43c-0.49-0.5-0.98-1-1.46-1.5c0-0.82,0-1.64,0-2.48
		C86.25,37.28,85.34,39.37,86.49,39.84z"/>
	<path class="st22" d="M54.3,29.22c0.79,0.08,1.58,0.15,2.37,0.23c-0.02,1.44-0.03,2.88-0.05,4.32c-1.58-0.79-0.16-2.86-1.58-3.72
		c-0.27,0.26-0.53,0.25-0.78-0.02C54.27,29.76,54.29,29.49,54.3,29.22z"/>
	<path class="st30" d="M98.6,63.66c-0.28,0.13-0.56,0.26-0.84,0.39c-1.97-0.93-1.09-2.6-1.05-4.05c0,0,0.31,0,0.31,0
		c0.25,0,0.5-0.01,0.75-0.01C98.87,61.03,98.46,62.4,98.6,63.66z"/>
	<path class="st25" d="M18.34,69.93c0.64-1.23,1.38-1.17,2.21-0.19c0.44,0.52,0.44,1.05,0.03,1.59c-0.76,0.75-1.28,0.58-1.22-0.46
		C19.41,69.98,18.98,69.92,18.34,69.93z"/>
	<path class="st22" d="M174.26,52.5c-1.29-1.74-1.29-3.49,0-5.23C174.25,49.01,174.25,50.75,174.26,52.5z"/>
	<path class="st28" d="M95.45,38.31c-1.1,0.81-0.53,2.03-0.75,3.05C94.27,40.18,92.79,38.74,95.45,38.31z"/>
	<path class="st23" d="M17.52,67.34c-0.9,1.45-2.3,1.7-3.84,1.58C14.79,68,16.09,67.53,17.52,67.34z"/>
	<path class="st5" d="M87.33,44.41c-0.04-1.51-0.07-3.02-0.11-4.53C88.44,41.36,88.34,42.88,87.33,44.41z"/>
	<path class="st31" d="M40.15,72.8c-0.03-0.28-0.05-0.56-0.08-0.83c1.48,0.32,3.24-0.73,4.44,0.93
		C43.06,72.86,41.6,72.83,40.15,72.8z"/>
	<path class="st32" d="M20.58,71.33c-0.01-0.53-0.02-1.06-0.03-1.59c1.04,0.1,2.25-0.38,2.99,0.83
		C22.55,70.82,21.57,71.08,20.58,71.33z"/>
	<path class="st22" d="M56.56,49.53c-1.16-1.25-1.15-2.5-0.04-3.77C56.53,47.01,56.55,48.27,56.56,49.53z"/>
	<path class="st33" d="M55.02,33.03c0.06,9.49-0.28,18.99,0.75,28.46c-1.07-2.91-1.46-5.94-1.48-9.01
		c-0.04-6.48-0.01-12.96-0.02-19.45C54.52,32.77,54.77,32.77,55.02,33.03z"/>
	<path class="st34" d="M55.02,33.03c-0.25,0-0.5,0-0.75,0c-1.06-1-1.04-2-0.01-3c0.26,0.01,0.52,0.01,0.78,0.02
		C55.03,31.04,55.03,32.04,55.02,33.03z"/>
	<path class="st14" d="M58.76,65.96c-0.75,0.24-1.5,0.48-2.24,0.72c0-0.98,0.01-1.96,0.01-2.94C57.27,64.48,58.02,65.22,58.76,65.96
		z"/>
	<path class="st33" d="M119.44,68.12c-0.98,0.28-1.96,0.55-2.95,0.83c0.85-1.49,0.53-2.98,0.39-4.61
		c-0.48-5.69-1.13-11.42,0.35-17.08c0.32,6.02-0.66,12.08,0.66,18.09C118.16,66.55,118.64,67.35,119.44,68.12z"/>
	<path class="st21" d="M121,30.69c-0.51,0.28-1.01,0.56-1.52,0.84c-1.4,2.68-0.61,5.56-0.72,8.35c-0.1,2.57-0.14,5.11-1.54,7.39
		c1.34-5.66,0.02-11.55,1.49-17.2C119.47,30.29,120.37,29.99,121,30.69z"/>
	<path class="st35" d="M165.23,41.39c0.28-0.11,0.56-0.21,0.83-0.32c0.47,0.63,0.71,1.37,0.47,2.09c-1.86,5.6-3.76,11.19-6.35,16.49
		c-0.69,1.42-1.96,2.52-3.55,3.1c-0.6,0.14-1.18,0.09-1.73-0.2c-0.79-0.91-0.19-1.37,0.57-1.78c1.73-5.07,4.84-9.59,6.02-14.89
		C162.74,44.39,163.99,42.89,165.23,41.39z"/>
	<path class="st36" d="M149.39,62.21c-2-2.01-2.38-3.99,0.13-5.89c0,0.2-0.01,0.39-0.02,0.59c0.78,1.2,1.61,2.39,0.74,3.9
		C149.96,61.27,149.67,61.74,149.39,62.21z"/>
	<path class="st37" d="M154.92,62.12c0.43,0.11,0.85,0.21,1.28,0.32c0.42,0.3,0.44,0.71,0.32,1.16c-0.23,0.41-0.67,0.54-1.03,0.77
		c-0.99,0.07-1.99,0.13-2.98,0.2c0.24-0.77,0.49-1.53,0.73-2.3C153.76,61.83,154.32,61.77,154.92,62.12z"/>
	<path class="st7" d="M150.25,60.81c-0.25-1.3-0.5-2.6-0.74-3.9C151.09,57.95,152.34,59.06,150.25,60.81z"/>
	<path class="st33" d="M154.92,62.12c-0.56,0.05-1.13,0.11-1.69,0.16c0.32-0.67,0.55-1.39,0.97-1.99c0.27-0.37,0.18-1.43,1.06-0.92
		c0.25,0.14,0.15,0.91,0.21,1.4C155.29,61.22,155.11,61.67,154.92,62.12z"/>
	<path class="st38" d="M91.7,63.76c0.17-0.82-0.41-2.42,1.5-1.46c0.95,0.74,1.16,1.91,1.74,2.87c0.16,0.82-0.47,1.16-0.96,1.59
		c-0.22,0.02-0.45,0.06-0.67,0.1C91.94,66.27,91.7,65.08,91.7,63.76z"/>
	<path class="st1" d="M170.44,36.01c0-2.03,0-4.06-0.01-6.09c0.32-0.65,0.61-1.36,1.54-0.73c1.51,4.71,0.37,9.56,0.72,14.33
		c0,0,0.01-0.01,0.01-0.01c-0.84,2.57-0.16,5.21-0.4,7.8c-0.47,1.76-0.51,3.53-0.01,5.29c0.27,2.37-0.46,4.8,0.41,7.14
		c1.31,1.29,0.01,2.99,0.71,4.37c-2.17,1.82-4.08,0.76-5.97-0.52c-0.22-0.79-0.74-1.3-1.48-1.62c-2.03-3.27-0.72-6.57-0.11-9.87
		c0.78-2.38,1.37-4.81,1.56-7.32c0.05-0.37,0.14-0.74,0.24-1.1c0.51-1.44,0.29-2.94,0.37-4.41c0.24-1.54,0.66-3.01,1.68-4.25
		C169.57,37.93,169.94,36.95,170.44,36.01z"/>
	<path class="st22" d="M171.93,56.25c-1.13-1.5-1.13-3,0.01-4.49c0.25-0.35,0.49-0.37,0.74,0c0,1.5,0,3,0,4.5
		C172.43,56.61,172.18,56.61,171.93,56.25z"/>
	<path class="st21" d="M172.69,51.75c-0.25,0-0.5,0-0.74,0c0.39-2.74-0.85-5.62,0.75-8.24C172.69,46.26,172.69,49,172.69,51.75z"/>
	<path class="st33" d="M171.93,56.25c0.25,0,0.5,0,0.75,0c0,2.5,0,4.99,0,7.49C171.16,61.37,172.28,58.74,171.93,56.25z"/>
	<path class="st37" d="M37.1,71.21c-0.33,0.58-0.86,0.73-1.47,0.71c-0.11-1.54-1.91-1.67-2.41-2.88c0-0.67,0.22-1.22,0.83-1.57
		C35.78,68.13,36.24,69.83,37.1,71.21z"/>
	<path class="st39" d="M34.05,67.47c-0.02,0.66-0.17,1.24-0.83,1.56c-0.48-0.24-0.95-0.48-1.42-0.72c-0.25-0.53-0.49-1.07-0.74-1.6
		c0.73-0.01,1.45-0.02,2.18-0.03C33.5,66.94,33.77,67.21,34.05,67.47z"/>
	<path class="st26" d="M163.84,65.93c-0.79,0.26-1.57,0.52-2.36,0.78c-1.2-0.17-1.44-1.39-2.22-2.02c-0.42-0.43-0.5-0.93-0.3-1.49
		c0.8-1.09,1.91-1.09,3.08-0.88c1.01,0.3,1.63,1,2.01,1.95C164.23,64.86,164.19,65.42,163.84,65.93z"/>
	<path class="st40" d="M166.71,55.51c-0.54,3.47-1,6.94-0.77,10.46c-0.28-0.02-0.55-0.05-0.83-0.07c-1.12-1.64-0.89-3.5-0.91-5.33
		c0.05-1.59,0.37-3.12,1.09-4.55c0.21-0.34,0.5-0.58,0.88-0.72C166.35,55.37,166.53,55.44,166.71,55.51z"/>
	<path class="st41" d="M156.88,71.99c-0.46,0.05-1.43,0.72-1.14-0.38c0.39-1.45,0.56-3.12,1.96-4.14c0.77-0.32,0.87,0.04,0.71,0.68
		C157.9,69.44,157.39,70.71,156.88,71.99z"/>
	<path class="st42" d="M165.1,60.01c0.01,1.96,0.01,3.92,0.02,5.89c-0.42,0.01-0.85,0.02-1.27,0.03c-0.09-0.45-0.18-0.91-0.27-1.36
		C164.12,63.07,162.45,60.81,165.1,60.01z"/>
	<path class="st15" d="M159.89,64.56c0.53,0.72,1.06,1.43,1.59,2.15c-0.35,0.59-0.91,0.71-1.54,0.67c-0.61-0.31-0.36-1.03-0.71-1.45
		c0-0.23,0-0.47-0.01-0.7C159.35,64.9,159.57,64.68,159.89,64.56z"/>
	<path class="st43" d="M159.24,65.92c0.56,0.33,0.7,0.86,0.71,1.46c-0.51,0.26-1.02,0.52-1.54,0.78c-0.24-0.23-0.47-0.46-0.71-0.68
		C158.22,66.96,158.73,66.44,159.24,65.92z"/>
	<path class="st44" d="M100.82,72.72c-1.55-1.94-0.95-3.91-0.09-5.88c0.62-0.49,0.87-0.05,1.1,0.44c0.03,0.36-0.09,0.66-0.34,0.92
		C100.24,69.55,101.01,71.21,100.82,72.72z"/>
	<path class="st45" d="M101.49,68.2c-0.01-0.24,0-0.48,0.02-0.72c0.34-0.53,0.64-1.16,1.47-0.77c0,0,0.06,0.05,0.06,0.05
		c0.3,0.63,0.59,1.27,0.89,1.9C103.11,68.5,102.3,68.35,101.49,68.2z"/>
	<path class="st46" d="M159.89,64.56c-0.22,0.22-0.44,0.44-0.66,0.66c-1.13-0.8-2.46-0.73-3.75-0.84c0.29-0.27,0.59-0.54,0.88-0.81
		c0.99-1.42,1.92-1.36,2.77,0.13C159.39,63.99,159.64,64.28,159.89,64.56z"/>
	<path class="st47" d="M93.99,66.76c0.25-0.52,0.51-1.05,0.76-1.57c0.59-1.98,1.83-1.28,3.03-0.72c1.07-0.04,2.04,0.25,2.93,0.82
		c0.24,0.17,0.32,0.34,0.24,0.51c-0.08,0.17-0.15,0.26-0.23,0.26C98.51,66.61,96.28,66.95,93.99,66.76z"/>
	<path class="st48" d="M100.72,66.06c0-0.26-0.01-0.52-0.01-0.77c0.75,0.47,1.51,0.94,2.26,1.41c-0.49,0.26-0.98,0.52-1.47,0.77
		c-0.26-0.21-0.52-0.43-0.78-0.64C100.73,66.58,100.73,66.32,100.72,66.06z"/>
	<path class="st5" d="M97.78,64.47c-1.03,0.16-2.21-0.32-3.03,0.72c-1.99-0.18-1.32-1.78-1.54-2.9c-0.14-0.59-0.25-1.2-0.42-1.78
		c-0.32-1.07,0.35-1.74,1.08-2.11c1.03-0.51,1.13,0.66,1.42,1.19c0.4,0.73,0.79,0.85,1.43,0.39c1.01,1.18,0.55,2.74,1.04,4.05
		C97.77,64.19,97.78,64.33,97.78,64.47z"/>
	<path class="st40" d="M159.14,63.7c-0.9-0.53-1.82-0.77-2.77-0.13c-0.06-0.38-0.11-0.75-0.17-1.13c2.47-1.63,4.05-3.83,4.79-6.74
		c1.28-5.01,4.35-9.41,5.08-14.63c0.54-0.53,0.91,0.16,1.37,0.19c0.25,0.01,0.49,0.01,0.74,0.02c0.73,0.58,0.03,1.66,0.77,2.24
		c-0.26,1.49,0.65,3.18-0.79,4.47c-0.48-0.3-0.2-0.9-0.51-1.27c0.14,0.44-0.03,1,0.52,1.27c0.12,2.63-0.06,5.19-1.45,7.53
		c0,0-0.15-0.14-0.15-0.14c-0.89-1.08-0.58-2.22-0.18-3.37c-0.51,0.76-0.36,1.67-0.6,2.5c-1.23,2.79-0.94,6.23-3.59,8.42
		C161.13,63.02,159.97,62.68,159.14,63.7z"/>
	<path class="st21" d="M168.94,43.52c-0.88-0.53-0.72-1.42-0.77-2.24c0.01-1.08-0.01-2.18,1.51-2.25
		C169.44,40.52,168.68,41.93,168.94,43.52z"/>
	<path class="st49" d="M162.2,62.93c1.02-2.96,2.05-5.92,3.07-8.88c1.39-0.04,1.11,0.71,0.71,1.51c-0.29,1.48-0.59,2.97-0.88,4.45
		c-1.45,1.21,0.21,3.45-1.53,4.56C163.11,64.02,162.65,63.47,162.2,62.93z"/>
	<path class="st50" d="M165.98,55.56c-0.24-0.5-0.48-1.01-0.71-1.51c0.25-1.44,0.49-2.88,1.87-4.6c-0.23,2.39-0.4,4.16-0.57,5.92
		C166.36,55.43,166.17,55.49,165.98,55.56z"/>
	<path class="st51" d="M168.17,47.98c-2.55-0.71-0.15-1.98-0.47-2.95C168.58,45.93,168.02,47,168.17,47.98
		C168.16,47.98,168.17,47.98,168.17,47.98z"/>
</g>
</svg>
