<?xml version="1.0" encoding="utf-8"?>
<!-- Generator: Adobe Illustrator 24.2.1, SVG Export Plug-In . SVG Version: 6.00 Build 0)  -->
<svg version="1.1" id="Calque_1" xmlns="http://www.w3.org/2000/svg" xmlns:xlink="http://www.w3.org/1999/xlink" x="0px" y="0px"
	 viewBox="0 0 163.5 153.29" style="enable-background:new 0 0 163.5 153.29;" xml:space="preserve">
<style type="text/css">
	.st0{fill:#FEFEFE;}
	.st1{fill:#FFDDC6;}
	.st2{fill:#FFDDC7;}
	.st3{fill:#FAFAFA;}
	.st4{fill:#40916C;}
	.st5{fill:#44936F;}
	.st6{fill:#FFDBC3;}
	.st7{fill:#FFDCC4;}
	.st8{fill:#E8E8E7;}
	.st9{fill:#4D9976;}
	.st10{fill:#EEEEEE;}
	.st11{fill:#F0F0F0;}
	.st12{fill:#559D7C;}
	.st13{fill:#76C6A1;}
	.st14{fill:#FFD9BF;}
	.st15{fill:#7BC8A4;}
	.st16{fill:#77C7A2;}
	.st17{fill:#FFEDE0;}
	.st18{fill:#FFCEAD;}
	.st19{fill:#FFDAC2;}
	.st20{fill:#FFD7BC;}
	.st21{fill:#FFD6BB;}
	.st22{fill:#FFDAC1;}
	.st23{fill:#DFDFDF;}
	.st24{fill:#FFCCAA;}
	.st25{fill:#74AF94;}
	.st26{fill:#FFD4B7;}
	.st27{fill:#DFDFDE;}
	.st28{fill:#FFD1B3;}
	.st29{fill:#FFCBA8;}
	.st30{fill:#599F7F;}
	.st31{fill:#FFCCA9;}
	.st32{fill:#FFC9A5;}
	.st33{fill:#FFD7BD;}
	.st34{fill:#C2C2C2;}
	.st35{fill:#C8C8C7;}
	.st36{fill:#FFD8BE;}
	.st37{fill:#F9F9F8;}
	.st38{fill:#FFC49D;}
	.st39{fill:#FFD5B9;}
	.st40{fill:#FFC9A4;}
	.st41{fill:#FFCFAF;}
	.st42{fill:#FFD4B8;}
	.st43{fill:#FFD3B6;}
	.st44{fill:#C3C3C2;}
	.st45{fill:#FFD2B5;}
	.st46{fill:#FFD1B1;}
	.st47{fill:#FFC69F;}
	.st48{fill:#F7F7F7;}
	.st49{fill:#FFC6A0;}
	.st50{fill:#FFD9C0;}
	.st51{fill:#FFD2B4;}
	.st52{fill:#FFC7A2;}
	.st53{fill:#FFC39B;}
	.st54{fill:#EBEBEB;}
	.st55{fill:#FFCEAC;}
	.st56{fill:#F5F5F5;}
	.st57{fill:#EFEFEF;}
	.st58{fill:#FFC299;}
	.st59{fill:#E5E5E5;}
	.st60{fill:#FFF8F4;}
	.st61{fill:#FFCAA6;}
	.st62{fill:#FFC49C;}
	.st63{fill:#C6C6C6;}
	.st64{fill:#CCCCCB;}
	.st65{fill:#E3E3E3;}
	.st66{fill:#E0E0E0;}
	.st67{fill:#FFCDAB;}
	.st68{fill:#FFE5D4;}
	.st69{fill:#FFE1CC;}
	.st70{fill:#FFC8A3;}
	.st71{fill:#FFD0B0;}
	.st72{fill:#CACACA;}
	.st73{fill:#E2E2E1;}
	.st74{fill:#FFC39A;}
	.st75{fill:#D7D7D7;}
	.st76{fill:#C9C9C8;}
	.st77{fill:#7CC9A5;}
	.st78{fill:#FFE2CE;}
	.st79{fill:#FFEBDE;}
	.st80{fill:#FFCBA7;}
	.st81{fill:#FFC7A1;}
	.st82{fill:#FFEBDD;}
	.st83{fill:#FFDFC9;}
	.st84{fill:#E7E7E6;}
	.st85{fill:#C0C0BF;}
	.st86{fill:#DBDBDB;}
	.st87{fill:#F2F2F2;}
	.st88{fill:#F3F3F3;}
	.st89{fill:#65BF95;}
	.st90{fill:#FFD6BA;}
	.st91{fill:#D2D2D1;}
	.st92{fill:#E4E4E4;}
	.st93{fill:#E6E6E6;}
	.st94{fill:#FFC59E;}
	.st95{fill:#67C096;}
	.st96{fill:#FFDEC8;}
	.st97{fill:#FFFBF8;}
	.st98{fill:#FFDCC5;}
	.st99{fill:#B0B0AF;}
	.st100{fill:#AEAEAD;}
	.st101{fill:#6EC39B;}
	.st102{fill:#81CBA8;}
	.st103{fill:#F4F4F4;}
</style>
<g>
	<path class="st0" d="M0,140.9C0,99.7,0,58.5,0,17.3c53.48,0,106.96,0.02,160.44-0.07c2.56,0,3.06,0.5,3.06,3.05
		c-0.1,39.22-0.1,78.43,0,117.65c0.01,2.55-0.5,3.05-3.06,3.05C106.96,140.88,53.48,140.9,0,140.9z"/>
	<path class="st1" d="M75.51,59.72c0.96,0.45,0.66,1.37,0.78,2.13c-0.58,1.99,1.62,3.61,0.74,5.63c-0.93,0.85-1.85,1.42-2.71-0.07
		c-0.04-1.68-0.12-3.34-1.23-4.74c-0.52-0.94-1.05-1.87-1.57-2.81c-0.13-1.94-0.17-3.9-1.3-5.62c-1.37-0.11-2.76-0.41-3.97,0.58
		c-1.31,0-2.56,0.3-3.77,0.77c-1.17,0.02-2.34,0.18-3.5-0.13c-1.11-1.89,0.16-3.13,1.2-4.45c0.5-0.46,1.06-0.77,1.74-0.87
		c3.33-0.04,6.69-0.46,9.95,0.61c0.43,0.04,0.87,0.08,1.3,0.12c1.71,1.35,0.52,3.66,1.72,5.18C75.34,57.23,74.41,58.65,75.51,59.72z
		"/>
	<path class="st1" d="M98.47,111.88c-0.41,0.01-0.81,0.02-1.22,0.03c-1.49,0.56-3.19,0.12-4.63,0.92c-0.98,0.13-2.01,0.46-2.69-0.66
		c-0.3-0.84-0.09-1.61,0.36-2.34c0.62-0.81,0.94-1.9,2.05-2.28c3.86-0.29,7.73-0.16,11.59-0.08c2.34,0.15,1.04,3.01,2.73,3.65
		c0.24,1.24,0.48,2.48,0.72,3.72c-0.43,1.26-0.62,2.52,0.14,3.73l-0.03-0.09c0.69,1.45,0.59,3.16,1.5,4.53l0.21-0.14
		c0.43,1.75-0.49,2.21-2.01,2.09c-0.4-0.12-0.68-0.38-0.84-0.76c-0.01-1.15-0.5-2.19-0.75-3.28c-0.98-2.26-2.19-4.43-2.87-6.81
		c-0.24-0.8,0.06-1.67-0.31-2.46C101.06,110.85,99.73,110.77,98.47,111.88z"/>
	<path class="st2" d="M140.26,61.24c0.06,0.45,0.12,0.91,0.19,1.36c-0.65,1.85,1.72,3.17,0.9,5.05c-1.3,1.31-2.35,1.01-3.23-0.48
		c-0.02-0.49-0.04-0.98-0.06-1.46c0-2.53-1.67-4.45-2.48-6.68c-0.8-1.12,0.18-2.87-1.32-3.74c-1.78,0.54-3.63,0.9-5.09,2.18
		c-1.61,0.32-3.08,2.14-4.87,0.45c-0.26-0.56-0.3-1.14-0.19-1.74c0.51-2.84,3.37-2.8,5.1-4.14c1.32-0.13,2.54-0.65,3.82-0.94
		c1.29-0.39,2.58-0.44,3.87,0.01c1.03,0.6,1.15,1.86,1.89,2.66c0.05,0.46,0.1,0.92,0.15,1.39c-0.15,0.87-0.11,1.7,0.6,2.35
		c0.04,0.46,0.08,0.93,0.13,1.39C139.52,59.77,139.56,60.59,140.26,61.24z"/>
	<path class="st3" d="M115.69,57.5c-1.01-0.45-0.59-2.31-2.17-2.2c-0.75-1.31-2.27-2.13-2.44-3.81c-0.18-1.36-0.11-2.73-0.14-4.1
		c-0.02-0.4-0.01-0.79,0.01-1.19c0.07-1.22,0.19-2.42,1.24-3.28c1.38-0.72,2.62-2,4.41-1.17c0.85,0.95,1.14,2.13,1.4,3.32
		c0.51,3.32-0.07,6.5-1.26,9.61C116.67,55.72,116.51,56.74,115.69,57.5z"/>
	<path class="st4" d="M60.44,51.54c-0.53,1.24-1.06,2.48-1.6,3.72c-1.11,1.84-2.77,1.03-4.3,0.89c-2.53-1.52-4.6-3.24-2.87-6.61
		c1.8-2.1,4.11,0.23,6.05-0.7c0.36-0.07,0.72-0.08,1.09-0.05c0.35,0.1,0.67,0.26,0.96,0.49l-0.05-0.02
		C60.41,49.88,61.31,50.43,60.44,51.54z"/>
	<path class="st5" d="M115.69,57.5c0.04-0.95,0.07-1.91,0.11-2.86c1.5-1.71,3.7-0.71,5.46-1.42c0.38-0.1,0.77-0.15,1.17-0.17
		c0.61-0.01,1.16,0.22,1.73,0.41c1.24,0.6,0.92,1.56,0.59,2.53c-0.06,0.48-0.13,0.95-0.19,1.43c-0.34,0.83,0.14,1.87-0.64,2.59
		C120.48,61.39,117.69,60.71,115.69,57.5z"/>
	<path class="st4" d="M90.99,110.36c-0.25,0.5-0.5,1-0.76,1.5c-0.62,2.84-2.78,1.68-4.49,1.71c-0.66-0.33-1.32-0.66-1.98-0.99
		c-1.74-1.22-2.08-2.87-1.52-4.81c1.42-2.85,4.12-0.81,6.08-1.59c0.36-0.07,0.73-0.09,1.1-0.05c0.36,0.1,0.68,0.27,0.97,0.5
		c0.15,0.02,0.3,0.06,0.45,0.1C91.86,107.9,91.53,109.12,90.99,110.36z"/>
	<path class="st6" d="M58.94,49.21c-0.26,0.06-0.53,0.12-0.79,0.18c-4.75,0.44-5.32-0.22-5.38-6.2c0.09-1.05,0.38-2.03,1.2-2.76
		c0.68-0.51,1.45-0.4,2.22-0.32c1.25,0.17,2.54,0.03,3.75,0.47c0.33,0.17,0.55,0.44,0.62,0.81c-0.13,0.93,0.29,1.97-0.57,2.75
		C58.2,45.53,60.01,47.67,58.94,49.21z"/>
	<path class="st7" d="M122.42,53.73c-0.23,0.11-0.47,0.15-0.73,0.14c-4.53,0.54-4.77,0.36-4.11-2.93c0.71-1.7-0.1-3.62,0.75-5.3
		c0.28-0.33,0.61-0.56,1.01-0.72c0.61-0.22,1.24-0.29,1.88-0.31c1.29,0.01,2.61-0.08,3.55,1.07c-0.08,0.74-0.17,1.47-0.25,2.21
		C122.6,49.4,124.58,52.31,122.42,53.73z"/>
	<path class="st8" d="M111.15,54.55c-2.95,0.36-6.15-1.02-8.81,1.29c-0.37,0.58-0.93,0.72-1.57,0.66c-0.42-0.1-0.72-0.34-0.89-0.74
		c-0.99-1.01-2.13-1.91-2.93-3.05c-0.74-1.06-1.3-2.38,0.27-3.39c0.33-0.19,0.61-0.13,0.85,0.15c0.71,1.09,1.06,2.44,2.53,2.96
		c1.23,0.44,0.52-0.69,0.88-0.91c2.45-0.53,4.9,1.02,7.35-0.01c0.74,0.31,1.03,1.1,1.67,1.52
		C110.92,53.46,111.63,53.76,111.15,54.55z"/>
	<path class="st9" d="M138.11,67.18c0.98,0.32,1.95,1.5,2.93,0.02c0.51-0.36,0.19-1.16,0.79-1.46c2.46,1.02,3.56,3.97,7.6,4.22
		c-4.19,1.88-7.39,0.98-10.42,0.71C137.47,70.54,137.93,68.51,138.11,67.18z"/>
	<path class="st10" d="M67.22,113.41c-0.13-2.52-2.89-3.77-2.99-6.34c-0.1-2.6,0.96-0.44,1.5-0.42c0.3-0.23,0.6-0.23,0.91-0.03
		c1,2.32,2.62,3.72,5.3,3.56c0.87,0.01,1.74-0.01,2.61-0.01c0.92,0.01,1.83,0.01,2.73,0.19c0.37,0.09,0.71,0.25,1.01,0.48
		c0.29,0.31,0.33,0.64,0.11,1.01c-1.65-0.27-2.38,0.84-3.04,2.03c-0.05,0.13-0.1,0.27-0.15,0.4c-0.28,0.09-0.56,0.11-0.85,0.06
		c-0.57-0.13-1.15-0.22-1.73-0.29c-0.47-0.06-0.92-0.18-1.36-0.35c-1.03-0.46-2.05-0.88-3.14-0.17
		C67.82,113.65,67.51,113.61,67.22,113.41z"/>
	<path class="st11" d="M45.57,54.51c-1.63-0.1-1.35,1.6-2.16,2.28c-0.68,0.07-1.36,0.18-2.05,0.13c-0.71,0-1.42-0.01-2.12-0.09
		c-1.43-0.31-2.91-0.49-4.11-1.47c-1.21-1.38-3.47-2.07-3.05-4.55c-0.41-0.53-0.49-1.15,0.13-1.45c0.73-0.35,1.28,0.3,1.82,0.71
		c1.36,1.79,2.87,3.31,5.42,2.93c1.28,0.33,2.56,0.3,3.84,0.04c0.53,0.01,1.05,0.01,1.55,0.21C45.35,53.52,45.72,53.86,45.57,54.51z
		"/>
	<path class="st12" d="M106.75,124.41c1.27,0.23,2.25-0.02,2.45-1.52c2.37,1.27,5.26,1.81,6.52,4.63c-2.8,0.91-5.59,0.11-8.35-0.17
		C105.33,127.15,105.24,126.32,106.75,124.41z"/>
	<path class="st13" d="M124.77,45.68c-1.29-0.03-2.59-0.07-3.88-0.1c-0.9-1.07-0.22-2.08,0.11-3.1c0.87-1.23,0.53-3.43,2.81-3.53
		c0.76,0.71,1.53,1.41,2.29,2.12c0.87,1.56,0.26,2.87-0.69,4.13C125.2,45.36,124.99,45.52,124.77,45.68z"/>
	<path class="st9" d="M74.55,67.29c0.86,1.26,1.54,0.13,2.28-0.17c0.6-0.3,0.16-1.25,0.91-1.45c1.98,1.24,3.95,2.49,5.93,3.73
		c-3.19,2.27-6.39,1.18-9.58,0.01c-0.02-0.75-0.03-1.49-0.05-2.24C74.29,66.89,74.46,66.93,74.55,67.29z"/>
	<path class="st14" d="M115.84,29.22c2.49-5.66,5.23-6.82,8.72-3.7c-0.34,0.55-0.08,1.25-0.47,1.79c-0.48,0.69-1.06,1.26-1.84,1.6
		c-0.49,0.16-0.99,0.17-1.49,0.03c-0.47-0.2-0.81-0.53-0.97-1c-0.16-0.23,0.19-0.81-0.35-0.75c-0.22,0.03-0.28,0.63-0.42,0.97
		c-0.35,0.81-0.91,1.37-1.79,1.55C116.68,29.77,116.21,29.63,115.84,29.22z"/>
	<path class="st15" d="M89.53,92.49c1.93,1.32,4.45,2.45,1.74,5.29c-0.35,0.2-0.69,0.39-1.04,0.59c-1.42,0.34-2.79,0.41-3.88-0.81
		c-0.18-0.36-0.26-0.74-0.26-1.14c0.28-1.53,0.67-3.01,1.85-4.14C88.51,92.02,89.04,92.1,89.53,92.49z"/>
	<path class="st16" d="M59.1,35.11c3.96,2.34,4.15,3.16,1.47,6.28c-0.06-0.13-0.13-0.26-0.21-0.39c-1.2-0.64-2.59,0.09-3.79-0.54
		c-0.69-1.15-0.17-2.24,0.14-3.34C57.27,36.19,57.42,34.74,59.1,35.11z"/>
	<path class="st17" d="M83,107.27c-0.61,1.89-0.11,3.63,0.77,5.31c-0.68,0.18-1.35,0.35-2.03,0.53c0.11-0.31,0.22-0.61,0.34-0.92
		c-0.15-0.31-0.34-0.59-0.58-0.83c-1.14-1.09-2.34-2.15-2.11-3.96c0.34-1.38,0.8-2.72,1.52-3.96c0.84-0.83,1.15-2.47,2.9-1.94
		c0.51,0.62,0.63,1.36,0.65,2.14C84.63,105.11,83.66,106.12,83,107.27z"/>
	<path class="st18" d="M41.78,56.17c0.68-0.16,1.27-0.09,1.63,0.62c1.09,3.39,1.78,6.86,2.19,10.39c-0.29,0.63-0.67,1.02-1.41,0.61
		c-0.21-2.02-0.6-3.99-1.73-5.73c-0.78-0.91-1.44-1.87-1.51-3.13C40.86,57.9,41.01,56.94,41.78,56.17z"/>
	<path class="st19" d="M89.53,92.49c-0.5,0-1.01-0.01-1.51-0.01c-0.96,0.5-1.7,0.02-2.41-0.55c-0.54-0.7-0.77-1.54-1.08-2.35
		c-0.31-0.98-0.66-1.95-0.72-2.99c0-0.7,0.18-1.37,0.34-2.05c0.26-0.82,0.41-1.73,1.5-1.9c1,0.52,1.1,1.63,1.62,2.46
		c0.29,0.7,1.18,1.2,0.77,2.16C86.98,89.44,88.99,90.76,89.53,92.49z"/>
	<path class="st14" d="M50.61,25.43c0.38-1.59,1.15-2.96,2.3-4.11c1.68-1.68,3.43-2.27,5.29-0.24c0.22,0.31,0.19,0.61-0.05,0.9
		c-0.46,0.28-0.96,0.35-1.49,0.35c-0.96-0.05-1.92,0.15-2.59,0.8c-0.99,0.97,0.52,0.45,0.59,0.84c0.74,1.32,0.44,2.62-0.06,3.91
		c-0.52,0.53-1.14,0.84-1.89,0.87C50.87,28.37,50.81,26.86,50.61,25.43z"/>
	<path class="st20" d="M67.22,113.41c0.18-0.06,0.36-0.13,0.54-0.2c0.68-0.23,1.06,0.16,1.38,0.67c0.32,0.71,0.36,1.45,0.27,2.2
		c-0.13,0.89-0.44,1.74-0.65,2.61c-0.15,0.52-0.46,0.95-0.8,1.36c-0.62,1.21-1.66,2.24-1.67,3.72c-0.3,0.47-0.49,1.15-1.29,0.71
		C64.8,120.61,66.97,117.2,67.22,113.41z"/>
	<path class="st21" d="M32.74,66.32c0.52-3.51,1.13-6.99,2.41-10.33c1.1-0.12,1.21,0.71,1.4,1.46c0.06,0.82-0.22,1.52-0.73,2.14
		c-0.23,0.77-0.46,1.53-0.69,2.3c0.42,0.52,0.36,1.02-0.06,1.5c-0.8,1.38-1.39,2.84-1.62,4.42C31.99,67.89,32.57,67.01,32.74,66.32z
		"/>
	<path class="st1" d="M125.41,33.13c-0.24,1.55-3.42,1.95-1.66,4.27c-0.59,0.59-1.26,0.64-1.99,0.32c-0.44-0.33-0.6-0.79-0.63-1.31
		c-0.05-0.66,0.32-1.45-0.59-1.85c-0.42-0.16-0.84-0.32-1.23-0.54c-0.41-0.27-0.72-0.62-0.91-1.08c-0.09-0.71,0.24-1.24,0.76-1.68
		c0.27-0.16,0.56-0.28,0.85-0.38c0.89-0.19,1.38-1.33,2.48-1.03c0.73,0.89,1.16,2.04,2.34,2.5
		C125.13,32.54,125.32,32.8,125.41,33.13z"/>
	<path class="st22" d="M79.27,83.6c0.02-1.66,0.83-3.05,1.73-4.31c2.11-2.95,4.4-2.94,7.05-0.12c0.19,0.14,0.28,0.3,0.26,0.49
		c-0.02,0.19-0.05,0.29-0.1,0.29c-0.62,0.28-1.17,0.01-1.72-0.23c-0.56-0.22-1.15-0.21-1.74-0.18c-1.51,0.09-2.36,1.01-2.93,2.28
		C81.16,82.7,81.1,84.41,79.27,83.6z"/>
	<path class="st1" d="M60.45,29.1c-0.42,0.07-0.83,0.13-1.25,0.2c-0.58,0.27-1.17,0.38-1.78,0.11c-0.8-0.79-0.86-1.82-0.91-2.85
		c-0.02-0.79,0.02-1.58,0.21-2.36c0.2-0.76,0.57-1.4,1.29-1.79c1.46-0.44,1.63,1.14,2.51,1.61c0.1,0.23,0.1,0.45-0.01,0.67
		C60.15,26.16,61.14,27.64,60.45,29.1z"/>
	<path class="st23" d="M39.52,53.74c-2.64,0.37-4.49-0.83-5.88-2.93c-0.56-0.87-0.69-1.92-1.12-2.85c-0.03-0.79,0.29-1.36,1.05-1.64
		c1.67,2.02,1.44,5.7,5.19,5.9c0.33-0.23,0.66-0.22,0.98,0.03C40,52.79,39.99,53.3,39.52,53.74z"/>
	<path class="st24" d="M100.69,56.06c0.55-0.07,1.1-0.14,1.65-0.22c1.05,0.43,1.89-0.22,2.82-0.49c1.79-0.53,2.56,0.28,2.37,2.08
		c-0.26,0.92,0.21,2.31-1.51,2.28c-0.47-3.25-2.46-0.61-3.69-0.94c-0.37-0.02-0.73-0.12-1.06-0.29
		C100.51,57.82,100,57.08,100.69,56.06z"/>
	<path class="st25" d="M106.75,124.41c-1.27,1.44-0.74,2.21,0.97,2.35c2.67,0.22,5.28,1.09,8,0.76c-2.86,1.86-6.01,0.63-8.92,0.45
		c-1.99-0.13-1.7-2.51-0.96-4.2c0.34-0.42,0.61-0.38,0.8,0.13C106.67,124.08,106.71,124.24,106.75,124.41z"/>
	<path class="st26" d="M100.69,56.06c0.24,0.67,0.47,1.35,0.71,2.02c0.05,1.55-1.76,2.31-1.66,3.89c-0.08,0.31-0.21,0.6-0.4,0.86
		c-0.2,0.26-0.41,0.53-0.61,0.79c-1.42,0.06-1.48-0.68-1.01-1.72c0.42-2.15-0.03-4.61,2.16-6.14
		C100.15,55.86,100.42,55.96,100.69,56.06z"/>
	<path class="st27" d="M101.49,51.53c0.65,0.46,1.29,0.93,2.01,1.45c-3.47,1.05-5.36-0.22-5.72-3.7c-0.28-0.77,0.08-0.88,0.73-0.71
		C99.5,49.56,99.69,51.35,101.49,51.53z"/>
	<path class="st28" d="M90.99,110.36c-0.04-1.21-0.09-2.42-0.14-3.63c4.77-0.02,9.58-0.86,14.27,0.7c-0.36,0.25-0.77,0.36-1.21,0.33
		c-4,0.29-8.05-0.57-12.03,0.45C91.76,109,91.89,109.89,90.99,110.36z"/>
	<path class="st29" d="M45.57,54.51c-0.21-0.26-0.42-0.53-0.63-0.79c-0.88-0.63-0.63-1.4-0.28-2.18c0.51-1.02,1.02-2.05,1.53-3.07
		c0.43-0.01,0.83,0.07,1.22,0.26c0.25,0.14,0.45,0.33,0.6,0.56c0.11,0.26,0.23,0.5,0.38,0.74c0.12,0.46-0.11,0.68-0.52,0.8
		c-0.76,0.84,0.23,1.85-0.26,2.72c-0.12,0.3-0.31,0.56-0.57,0.77C46.55,54.38,46.06,54.44,45.57,54.51z"/>
	<path class="st23" d="M71.61,111.08c-2.82-0.19-5.06-1.08-5.21-4.41c-0.26-0.79,0.1-0.96,0.8-0.78c1.19,0.81,1.09,2.87,2.95,3.04
		C70.79,109.53,72.77,109.24,71.61,111.08z"/>
	<path class="st30" d="M74.1,69.41c3.19,0.13,6.39,1.74,9.58-0.01c0.72,0.33,0.96,1.13,0.26,1.31c-3.24,0.85-6.5,0.48-9.72-0.26
		C74.1,70.43,74.13,69.77,74.1,69.41z"/>
	<path class="st31" d="M53.7,42.6c0.14,3.14-1.01,7.13,4.45,6.79c-2.12,1.63-4.33-0.66-6.47,0.15c0.19-0.56,0.39-1.12,0.58-1.68
		c0.88-1.57-0.63-2.93-0.4-4.45c0.02-0.36,0.15-0.69,0.37-0.97C52.76,42.17,53.25,42.18,53.7,42.6z"/>
	<path class="st32" d="M109.71,53.61c-1-0.4-0.65-1.36-0.87-2.08c0.01-1.92,0.02-3.83,0.03-5.75c-0.38-1.27-0.54-2.54,0.09-3.79
		c0.29-0.29,0.57-0.57,0.86-0.86c0.63-0.1,0.9,0.28,1.06,0.8c0.04,0.33,0.03,0.66-0.02,0.99c-0.41,1.6-0.32,3.21,0.01,4.82
		c0.04,0.34,0.03,0.67,0,1.01c-0.32,1.32-0.18,2.71-0.55,4.03C110.17,53.09,109.96,53.36,109.71,53.61z"/>
	<path class="st33" d="M50.84,46.36c-0.82,1-1.63,1.99-2.45,2.99c-0.22,0.18-0.43,0.17-0.64-0.04l-0.01,0c-0.99-0.99-0.35-2-0.02-3
		c0.22-1.03,0.73-1.93,1.23-2.84c0.23-0.26,0.53-0.38,0.88-0.37c0.8,0.33,1.34,0.95,1.81,1.64C51.91,45.55,51.28,45.91,50.84,46.36z
		"/>
	<path class="st34" d="M102.16,58.26c1.51-0.21,3.98-2.95,3.78,1.41c0,0-0.02,0.29-0.02,0.29c-0.09,0.18-0.23,0.32-0.4,0.42
		c0,0-0.28,0.08-0.28,0.08c-1.01,0.05-2.02,0.11-3.04,0.16C101.55,59.86,101.62,59.06,102.16,58.26z"/>
	<path class="st35" d="M41.78,56.17c0,0.94-0.01,1.88-0.01,2.82c-0.4,0.45-0.84,0.83-1.5,0.8c-0.66,0.05-1.26-0.02-1.47-0.8
		c-0.72-0.48-1.39-0.99-1.08-2.02c0.35-0.77,1.18-0.44,1.73-0.75C40.24,56.2,41.01,56.19,41.78,56.17z"/>
	<path class="st36" d="M119.4,31.45c-0.25,0.5-0.49,1-0.74,1.5c-0.1,0.47-0.37,0.77-0.85,0.87c-0.96-0.22-1.8-0.6-2.2-1.6
		c0.22-0.78-0.39-1.55-0.05-2.34c0.02-0.25,0.12-0.47,0.28-0.66c0.44,0,0.88,0,1.33,0C118.25,29.62,119.5,29.86,119.4,31.45z"/>
	<path class="st14" d="M76.95,118.42c0.98,2.26,1.45,4.6,1.38,7.48c-2.01-1.74-2.07-3.79-2.34-5.76
		C76.13,119.47,76.2,118.76,76.95,118.42z"/>
	<path class="st37" d="M33.57,46.32c-0.23,0.48-0.45,0.97-0.68,1.45c-0.08,1.32-0.6,1.07-1.05,0.23c-0.38-0.72,0.17-1.69-0.5-2.4
		c-0.78-1.3-1.1-2.8-0.61-4.14c0.56-1.55,1.1-0.69,1.38,0.31c0.25,1.61,0.75,3.15,1.5,4.6L33.57,46.32z"/>
	<path class="st38" d="M80.46,97.66c0.36-2.45,0.71-4.91,1.07-7.36c1.25,0.04,1.56,0.97,1.83,1.93c-0.32,2.03,0.36,4.37-1.83,5.81
		C81.11,98.07,80.76,97.95,80.46,97.66z"/>
	<path class="st14" d="M121.64,37.4c0.71,0,1.41,0,2.12,0c0.02,0.52,0.04,1.03,0.07,1.55c-1.38,0.85-1.01,2.71-2.14,3.7
		c-0.64,0.27-0.96-0.11-1.23-0.61c-0.25-1.56,0.05-3.08,0.29-4.62C121.03,37.17,121.33,37.16,121.64,37.4z"/>
	<path class="st39" d="M103.02,114.08c1.11,2.18,2.36,4.31,2.92,6.73c-0.26,0.36-0.53,0.36-0.81,0.02
		c-1.41-1.79-2.16-3.88-2.72-6.05C102.5,114.44,102.7,114.21,103.02,114.08z"/>
	<path class="st28" d="M88.06,79.86c0.03-0.23,0.02-0.46-0.01-0.69c1.46,1.99,3.11,3.95,1.47,6.63c-0.33,0.22-0.65,0.21-0.96-0.04
		C87.63,83.85,86.01,82.01,88.06,79.86z"/>
	<path class="st40" d="M109.71,53.61c0-0.19,0-0.37,0-0.56c1.05-1.13-0.53-3.02,1.16-3.96c1.16,0.51,0.41,1.67,0.82,2.44
		c0.46,1.33,2.55,1.88,1.82,3.78c-0.79-0.25-1.58-0.5-2.37-0.75C110.67,54.24,110.19,53.92,109.71,53.61z"/>
	<path class="st41" d="M60.44,51.54c-0.24-0.76-0.48-1.53-0.72-2.29c3.51,0.39,7.12-0.56,10.57,0.74c-2.96,1.16-6.14-0.28-9.1,0.8
		C60.94,51.05,60.69,51.29,60.44,51.54z"/>
	<path class="st42" d="M108.31,67.86c-0.31-1.43-0.62-2.86-0.93-4.29c0.04-0.91-0.05-1.88,0.89-2.47c1.02,2.17,1.3,4.5,1.52,6.84
		C109.27,68.38,108.78,68.35,108.31,67.86z"/>
	<path class="st40" d="M52.04,32.87c0.29-0.93,0.58-1.85,0.88-2.78c-0.23-0.31-0.26-0.65-0.09-1c0.49-0.3,1.01-0.41,1.57-0.25
		c1.07,0.53,1.6,1.46,1.88,2.58c0.01,0.37-0.09,0.71-0.31,1.01c-0.9,0.67-1.91,0.99-3.03,0.97C52.58,33.33,52.28,33.15,52.04,32.87z
		"/>
	<path class="st43" d="M76.95,118.42c-0.13,0.68-0.23,1.37-0.96,1.72c-0.66-0.32-0.66-0.98-0.79-1.56c-0.1-0.29-0.18-0.58-0.25-0.88
		c-0.14-0.28-0.23-0.57-0.28-0.88c-0.07-0.63-0.05-1.25,0.14-1.86c0.14-0.28,0.33-0.53,0.58-0.73c0,0-0.02-0.34-0.02-0.34
		C77.16,114.96,76.86,116.76,76.95,118.42z"/>
	<path class="st44" d="M68.63,116.37c0.04-0.74,0.07-1.48,0.11-2.22c0.69-0.52,1.41-0.12,2.12-0.08c0.45,0.06,0.9,0.17,1.32,0.35
		c0.28,0.16,0.49,0.39,0.64,0.67c0.12,0.3,0.19,0.6,0.23,0.92c0.03,0.67-0.12,1.27-0.66,1.72c-0.49,0.05-0.99,0.1-1.48,0.15
		c-0.29-0.11-0.56-0.24-0.82-0.41C69.54,117.19,69.06,116.82,68.63,116.37z"/>
	<path class="st24" d="M123.89,26.94c0.01-0.57,0.12-1.1,0.66-1.42c1.97,2.35,2.23,4.88,0.85,7.61c0,0-0.04-0.25-0.04-0.25
		C123.99,31.12,123.62,29.11,123.89,26.94z"/>
	<path class="st45" d="M108.27,61.1c-0.12,0.89,0.06,1.88-0.89,2.47c0,0,0.01-0.03,0.01-0.03c-0.41-1.01-1.29-1.76-1.58-2.83
		c-0.14-0.31-0.09-0.59,0.11-0.86c0,0,0.02-0.16,0.02-0.17c0.53-0.75,1.06-1.49,1.59-2.24C108.44,58.52,108.27,59.83,108.27,61.1z"
		/>
	<path class="st46" d="M135.85,58.95c1.34,2.06,3.02,4.01,2.19,6.77c-0.96-2-1.92-4-2.87-6C135.31,59.39,135.53,59.13,135.85,58.95z
		"/>
	<path class="st47" d="M52.04,32.87c0.33,0.03,0.66,0.05,0.99,0.08c0.91,2.12,0.43,3.95-1.17,5.54c-0.63,0.19-1.21,0.11-1.72-0.34
		C50.9,36.44,50.77,34.4,52.04,32.87z"/>
	<path class="st48" d="M102.16,58.26c0.02,0.79,0.03,1.58,0.05,2.37c0.03,0.21,0.03,0.42,0,0.63c-1.11-0.21-1.83,1.14-2.99,0.76
		c-1.38-2.47,1.51-2.59,2.17-3.94C101.65,58.15,101.91,58.2,102.16,58.26z"/>
	<path class="st49" d="M117.81,33.81c0.28-0.29,0.57-0.58,0.85-0.87c0.25,0.25,0.5,0.5,0.74,0.76c1.33,1.2,1.16,2.28-0.24,3.27
		c-0.55,0.39-1.13,0.71-1.84,0.68c-0.69-0.28-1.07-0.75-0.89-1.53C117.13,35.49,118.1,35.02,117.81,33.81z"/>
	<path class="st50" d="M97.72,61.9c0.08,0.73,0.28,1.38,1.01,1.72c-0.49,1.35-0.98,2.7-1.47,4.04C96.2,65.59,96.8,63.73,97.72,61.9z
		"/>
	<path class="st33" d="M55.97,32.19c0.01-0.24,0.02-0.49,0.03-0.73c0.15-0.52,0.3-1.04,0.48-1.54c0.23-0.38,0.54-0.63,0.99-0.7
		c0.58,0.03,1.15,0.06,1.73,0.09c-1.13,1.28-0.98,2.8-0.83,4.33c-0.46,0.53-1.05,0.63-1.71,0.51
		C55.77,33.72,55.32,33.14,55.97,32.19z"/>
	<path class="st51" d="M61.19,50.8c2.92-1.6,6.09-0.3,9.1-0.8c0.71-0.13,1.23,0.1,1.55,0.76C68.29,50.77,64.74,50.79,61.19,50.8z"/>
	<path class="st52" d="M78.34,111.22c-0.26-0.03-0.51-0.06-0.77-0.09c-0.79-0.57-1.54-1.16-0.76-2.26c0.5-1.25,1.01-2.51,1.51-3.76
		c0.54,0.1,0.91,0.41,1.16,0.89c0.19,0.49,0.14,0.99-0.01,1.48c-0.04,0.33-0.1,0.66-0.19,0.98
		C79.17,109.45,79.28,110.51,78.34,111.22z"/>
	<path class="st42" d="M53.01,29.23c-0.03,0.29-0.06,0.57-0.09,0.86c-2.27-0.81-3.83-1.97-2.3-4.66c1.23,0.67,0.78,2.64,2.36,3.04
		c0.19,0.16,0.26,0.33,0.21,0.5C53.13,29.15,53.07,29.23,53.01,29.23z"/>
	<path class="st28" d="M124.73,55.99c-0.19-0.82,0.01-1.78-0.84-2.37c-0.19-0.2-0.24-0.38-0.14-0.53c0.09-0.15,0.18-0.22,0.26-0.22
		c1.52,0.59,2.73-0.76,4.17-0.66c0.35-0.22,0.66-0.19,0.95,0.1C128.23,54.22,125.37,53.8,124.73,55.99z"/>
	<path class="st53" d="M79.04,105.89c-0.24-0.26-0.48-0.52-0.72-0.78c0.08-1.61,0.5-3.11,1.39-4.46c0.33-0.28,0.68-0.29,1.03-0.04
		c0.51,0.66,0.56,1.4,0.36,2.17C80.44,103.83,80.61,105.44,79.04,105.89z"/>
	<path class="st54" d="M76.81,108.87c0.25,0.75,0.51,1.5,0.76,2.26c-0.99-0.01-1.99-0.02-2.98-0.04c-0.44-1.03-2.58-0.37-2.21-2.2
		C73.86,108.88,75.34,108.88,76.81,108.87z"/>
	<path class="st32" d="M84.3,86.58c0.56,0.89,0.9,1.84,0.74,2.91c-0.23,0.22-0.51,0.31-0.82,0.3c-0.76-0.15-1.49-0.34-1.98-1.01
		c-0.19-0.58-0.1-1.31-0.85-1.6c-0.25-0.39-0.18-0.72,0.2-0.99C82.59,85.72,83.5,85.75,84.3,86.58z"/>
	<path class="st51" d="M70.86,53.82c1.03,1.93,1.39,3.92,0.65,6.04c-1.22-1.53-0.73-3.56-1.51-5.22
		C70.09,54.17,70.59,54.11,70.86,53.82z"/>
	<path class="st20" d="M56.72,33.68c0.55-0.02,1.1-0.04,1.64-0.05c0.66,0.29,0.61,0.93,0.73,1.49c-0.95,0.48-1.16,1.48-1.64,2.29
		c-0.53,0.45-1.05,0.36-1.56-0.03C55.12,35.91,55.71,34.75,56.72,33.68z"/>
	<path class="st55" d="M135.85,58.95c-0.23,0.26-0.45,0.51-0.68,0.77c-0.31-1.47-0.62-2.95-0.93-4.42c0.71-0.69,1.33-0.65,1.48,0.39
		C135.87,56.76,135.82,57.86,135.85,58.95z"/>
	<path class="st26" d="M137.28,51.58c-1.49-0.01-2.97-0.01-4.46-0.02c-0.42-0.28-0.44-0.59-0.06-0.93c1.52-0.79,3.05-0.87,4.61-0.11
		C137.64,50.9,137.61,51.25,137.28,51.58z"/>
	<path class="st56" d="M31.35,45.6c1.3,0.17-0.06,2.22,1.55,2.17c0.99,0.83,0.58,2,0.74,3.04c-0.52,0.53-1.05-2.5-1.55,0.01
		C30.67,49.24,31.62,47.33,31.35,45.6z"/>
	<path class="st32" d="M54.55,56.15c1.5,0.03,3.02,0.17,4.3-0.89c1.28,0.07,2.57,0.14,3.85,0.21l-0.01,0.26
		C59.98,55.95,57.35,57.74,54.55,56.15z"/>
	<path class="st57" d="M44.66,51.54c0.09,0.73,0.18,1.46,0.28,2.18c-0.56,0.02-1.11,0.04-1.67,0.06c-1.05-0.98-2.75-0.31-3.72-1.48
		c-0.26-0.03-0.52-0.06-0.78-0.08C40.56,50.48,42.79,52.52,44.66,51.54z"/>
	<path class="st21" d="M77.75,65.68c-0.2,0.55-0.13,1.26-0.91,1.45c0.07-1.79-2.15-3.33-0.55-5.28
		C76.77,63.12,77.26,64.4,77.75,65.68z"/>
	<path class="st58" d="M116.43,36.12c0.24,0.41,0.47,0.83,0.71,1.24c-0.6,1.83-1.84,2.65-3.77,2.4c-0.4-0.5-0.35-0.99,0.06-1.46
		C114.55,37.73,115.02,36.28,116.43,36.12z"/>
	<path class="st51" d="M98.47,111.88c1.14-2.4,2.77-1.81,4.48-0.73c-0.28,0.24-0.33,0.71-0.78,0.79
		C100.94,111.92,99.71,111.9,98.47,111.88z"/>
	<path class="st58" d="M113.43,38.3c0,0.44,0,0.88,0,1.32c0.27,1.65-1.14,1.89-2.1,2.52c-0.37,0.07-0.66-0.05-0.89-0.34
		c-0.21-0.22-0.41-0.45-0.62-0.67C110.66,39.72,112.04,39,113.43,38.3z"/>
	<path class="st59" d="M72.39,108.89c0.49,0.98,2.37,0.57,2.21,2.2c-1-0.01-1.99-0.01-2.99-0.02c0.15-1.15-1.01-1.41-1.46-2.16
		C70.9,108.91,71.64,108.9,72.39,108.89z"/>
	<path class="st60" d="M50.84,46.36c0.22-0.51,0.43-1.01,0.65-1.52c-0.51-0.87-0.49-1.48,0.73-1.49c1.34,1.49,1.06,3,0.03,4.5
		C52.2,46.97,51.83,46.37,50.84,46.36z"/>
	<path class="st26" d="M123.89,60.01c0.04-0.91-0.08-1.85,0.64-2.59c1.52,1.81,3.08-0.46,4.61,0.05
		C127.86,59.28,125.64,59.15,123.89,60.01z"/>
	<path class="st61" d="M85.75,113.57c1.72,0.01,3.43,0.01,4.49-1.71c0.56,0.85,1.47,0.72,2.3,0.8c0.18,0.14,0.24,0.28,0.17,0.41
		c-0.06,0.13-0.12,0.2-0.18,0.2C90.27,113.43,88.08,115.09,85.75,113.57z"/>
	<path class="st28" d="M74.61,56.02c-1.19-1.51-0.68-3.51-1.46-5.14c3.03,0.76,0.8,3.7,2.16,5.15
		C75.06,56.38,74.83,56.38,74.61,56.02z"/>
	<path class="st62" d="M48.4,46.29c-0.22,1.01-0.43,2.02-0.65,3.02c-0.66-0.03-1.23-0.21-1.55-0.85c0.28-1.33,0.63-2.63,1.54-3.69
		C48.34,45.11,47.97,45.88,48.4,46.29z"/>
	<path class="st40" d="M124,52.87c-0.04,0.25-0.07,0.5-0.11,0.75c-0.49,0.04-0.98,0.07-1.47,0.11c1.47-1.67-0.36-4.53,2.1-5.84
		C124.35,49.55,124.17,51.21,124,52.87z"/>
	<path class="st63" d="M38.03,56.78c0.26,0.73,0.52,1.47,0.77,2.2c-1,0.2-2,0.41-2.99,0.61c0.06-0.72,0.11-1.45,0.17-2.17
		C36.45,56.52,37.02,55.96,38.03,56.78z"/>
	<path class="st51" d="M79.27,83.6c1.52,0,1.1-1.76,2.07-2.27c0.57,0.31,0.85,0.84,1.06,1.42c0.06,0.3,0.04,0.61-0.04,0.91
		c-0.34,0.7-0.89,1.23-1.47,1.75c-0.51,0.36-1.02,0.7-1.68,0.34C79.22,85.03,79.25,84.31,79.27,83.6z"/>
	<path class="st34" d="M38.03,56.78c-0.68,0.22-1.37,0.43-2.05,0.65c-0.28-0.48-0.56-0.95-0.84-1.43c-0.05-0.21-0.05-0.42-0.02-0.64
		c1.59-0.44,2.9,0.52,4.33,0.86C38.99,56.41,38.51,56.59,38.03,56.78z"/>
	<path class="st29" d="M60.45,29.1c0.35-1.46-1.92-2.96,0.05-4.4C61.3,26.17,62.1,27.65,60.45,29.1z"/>
	<path class="st64" d="M40.27,59.79c0.3-0.64,0.87-0.78,1.5-0.8c0.23,1.02,0.46,2.05,0.69,3.07C41.14,61.87,40.05,61.46,40.27,59.79
		z"/>
	<path class="st43" d="M141.83,65.74c-0.26,0.49-0.53,0.98-0.79,1.46c0.32-1.6-2.31-2.81-0.6-4.59
		C140.9,63.65,141.37,64.69,141.83,65.74z"/>
	<path class="st38" d="M49.98,43.33c-0.23,0.02-0.47,0.03-0.7,0.04c-0.32,0.26-0.62,0.23-0.91-0.05c0.11-1.44,0.53-2.75,1.58-3.81
		c0.67,0.35,0.95,0.95,1.12,1.64C51.09,42.07,50.81,42.84,49.98,43.33z"/>
	<path class="st65" d="M67.2,105.88c-0.27,0.26-0.53,0.52-0.8,0.78c0,0-0.34-0.02-0.34-0.02s-0.34,0.01-0.34,0.01
		c-0.23-1.26-0.45-2.52-0.68-3.78c0.22-0.29,0.26-0.73,0.72-0.81C66.24,103.33,66.72,104.61,67.2,105.88z"/>
	<path class="st66" d="M98.5,48.57c-0.24,0.24-0.48,0.47-0.73,0.71c-0.19,0-0.37,0.02-0.56,0.05c-0.15-1.38-0.31-2.76-0.46-4.14
		c0.2-0.06,0.41-0.11,0.61-0.17C97.75,46.2,98.13,47.39,98.5,48.57z"/>
	<path class="st36" d="M78.34,111.22c0.16-1.06-0.34-2.27,0.76-3.1c0.56,1.39,1.49,2.43,2.9,3.01c0.02,0.35,0.05,0.7,0.07,1.05
		c-1.22-0.11-2.44-0.22-3.66-0.33C78.4,111.64,78.37,111.43,78.34,111.22z"/>
	<path class="st26" d="M132.77,50.63c0.02,0.31,0.04,0.62,0.06,0.93c-1.15,0.68-2.41,0.83-3.71,0.75c-0.32-0.03-0.63-0.07-0.95-0.1
		C129.55,51.25,131.11,50.81,132.77,50.63z"/>
	<path class="st45" d="M74.55,67.29c-0.17-0.03-0.34-0.06-0.51-0.11c-0.32-1.5-0.64-3-0.97-4.5C75.19,63.7,74.56,65.59,74.55,67.29z
		"/>
	<path class="st32" d="M62.68,55.73c0,0,0.01-0.26,0.01-0.26c0.96-1.53,2.5-0.73,3.79-0.92c0.31-0.37,0.59-0.35,0.84,0.06
		C65.97,55.75,64.28,55.58,62.68,55.73z"/>
	<path class="st67" d="M92.52,113.27c0-0.21,0.01-0.41,0.01-0.62c1.38-1.44,3.13-0.57,4.72-0.75
		C95.86,113.01,94.19,113.12,92.52,113.27z"/>
	<path class="st68" d="M108.31,67.86c0.49,0.03,0.98,0.05,1.48,0.08c0.9,0.9,0.81,1.96,0.46,3.42
		C109.52,70.03,108.92,68.94,108.31,67.86z"/>
	<path class="st69" d="M32.74,66.32c0.23,0.5,0.47,1,0.7,1.5c-0.37,0.96-0.24,2.14-1.73,3.24C32.27,69.18,31.58,67.63,32.74,66.32z"
		/>
	<path class="st70" d="M90.4,106.63c-0.26-0.03-0.53-0.05-0.79-0.08c-1.4-2.12-1.85-4.17,0.47-6c0.52,0.23,0.64,0.59,0.35,1.08
		C90.42,103.29,90.41,104.96,90.4,106.63z"/>
	<path class="st71" d="M58.94,49.21c0.1-1.74-1.19-3.77,1.06-5.06c-0.07,1.71-0.15,3.42-0.23,5.13
		C59.49,49.25,59.22,49.23,58.94,49.21z"/>
	<path class="st62" d="M47.04,54.32c0.02-0.18,0.03-0.35,0.03-0.53c0.6-0.4-0.01-1.98,1.48-1.52c0.25,0.24,0.49,0.48,0.74,0.72
		c0.53,0.93,0.4,1.62-0.72,1.94C48.06,54.72,47.55,54.52,47.04,54.32z"/>
	<path class="st36" d="M60.51,24.02c-1.18,0.11-1.53-1.02-2.29-1.52c-0.2-0.16-0.26-0.33-0.2-0.49c0.06-0.17,0.13-0.25,0.19-0.25
		c0-0.22,0-0.45,0-0.67C60.04,21.24,60.39,22.54,60.51,24.02z"/>
	<path class="st53" d="M82.24,88.79c0.76,0.02,1.57-0.12,2.07,0.67c-0.1,1.05-0.6,1.83-1.57,2.29c-0.4-0.49-0.81-0.97-1.21-1.46
		C81.76,89.79,82,89.29,82.24,88.79z"/>
	<path class="st72" d="M70.81,116.96c0.03,0.31,0.07,0.62,0.1,0.93c-0.68,1.13-1.54,2.02-2.95,2.17c-0.02-0.47-0.03-0.94-0.05-1.4
		C68.71,117.8,69.44,116.83,70.81,116.96z"/>
	<path class="st73" d="M33.61,46.36c-1.27-1.28-2.07-2.72-1.5-4.6C33.19,43.1,33.56,44.68,33.61,46.36z"/>
	<path class="st55" d="M109,123.03c-1.55-1.16-1.63-2.81-1.5-4.53C108.88,119.71,109.09,121.32,109,123.03z"/>
	<path class="st72" d="M105.92,60.45c1.03,0.77,1.48,1.82,1.48,3.08c-0.98-0.83-2.51-1.29-2.15-3.06c0,0-0.07,0.04-0.07,0.04
		C105.4,60.26,105.65,60.24,105.92,60.45z"/>
	<path class="st71" d="M104.47,107.47c0.22-0.02,0.44-0.03,0.66-0.05c1.62,0.78,0.56,2.66,1.54,3.7c-2.04-0.03-0.95-2.35-2.19-2.98
		c-0.24-0.15-0.33-0.3-0.25-0.45C104.31,107.54,104.39,107.47,104.47,107.47z"/>
	<path class="st74" d="M80.38,100.69c-0.22-0.01-0.44-0.02-0.66-0.04c0.09-1.04,0.01-2.11,0.74-2.99c0.29,0.02,0.58,0.03,0.88,0.05
		C82.21,99.08,82.06,100.13,80.38,100.69z"/>
	<path class="st51" d="M139.52,57.52c-1.72-0.4-1.87-1.19-0.6-2.35C139.54,55.85,139.63,56.66,139.52,57.52z"/>
	<path class="st62" d="M50.64,41.12c-0.23-0.54-0.46-1.08-0.69-1.61c0.07-0.45,0.13-0.9,0.2-1.35c0.46,0,0.92-0.01,1.38-0.01
		C52.34,39.46,51.77,40.37,50.64,41.12z"/>
	<path class="st51" d="M140.26,61.24c-1.7-0.39-1.88-1.17-0.61-2.33C140.26,59.58,140.36,60.38,140.26,61.24z"/>
	<path class="st32" d="M67.32,54.6c-0.28-0.02-0.56-0.04-0.84-0.06c1.27-1.37,2.91-0.55,4.38-0.72c-0.29,0.27-0.57,0.55-0.86,0.82
		C69.11,54.63,68.21,54.61,67.32,54.6z"/>
	<path class="st28" d="M90.43,101.62c-0.05-0.29-0.1-0.57-0.15-0.86c-0.63-0.57-1.1-1.21-0.98-2.12c0.21-0.48,0.71-0.64,1.1-0.92
		c0.29,0.02,0.58,0.04,0.87,0.06C90.9,99.05,91.53,100.52,90.43,101.62z"/>
	<path class="st22" d="M79.2,85.74c0.46-0.23,0.93-0.45,1.39-0.68c0.68,0.29,1.18,0.68,0.8,1.53c0,0.2,0,0.39,0,0.59
		C80.2,87.4,79.43,86.99,79.2,85.74z"/>
	<path class="st42" d="M88.82,85.79c0.23,0,0.46,0.01,0.69,0.01c0.16,1.13-0.35,1.6-1.47,1.47c-0.49-0.48-0.98-0.96-1.47-1.44
		C87.31,85.15,88.06,85.22,88.82,85.79z"/>
	<path class="st75" d="M99.22,62.02c0.95-0.44,1.65-1.84,2.99-0.76c-0.72,0.94-1.68,1.48-2.87,1.57
		C99.3,62.56,99.26,62.29,99.22,62.02z"/>
	<path class="st45" d="M48.57,54.93c0.24-0.65,0.48-1.29,0.72-1.94c0.94,0.75,1.13,1.68,0.3,2.53
		C49.19,55.93,48.73,55.46,48.57,54.93z"/>
	<path class="st76" d="M35.07,63.4c0.02-0.5,0.04-1,0.06-1.5c0.8,0,1.37-1.21,2.38-0.42C36.97,62.49,36.05,62.98,35.07,63.4z"/>
	<path class="st62" d="M48.37,43.32c0.3,0.02,0.6,0.03,0.91,0.05c-0.29,0.98-0.58,1.95-0.88,2.93c-0.22-0.51-0.45-1.01-0.67-1.52
		C47.79,44.22,47.73,43.61,48.37,43.32z"/>
	<path class="st28" d="M105.14,120.83c0.27-0.01,0.54-0.01,0.81-0.02c0.56,0.96,0.92,1.96,0.69,3.1c-0.27-0.04-0.53-0.09-0.8-0.13
		C105.61,122.79,105.37,121.81,105.14,120.83z"/>
	<path class="st77" d="M125.42,45.19c0.47-1.33,0.88-2.68,0.69-4.12C127.66,42.74,127.28,44.09,125.42,45.19z"/>
	<path class="st78" d="M115.56,29.88c0.27,0.77,1.35,1.53,0.05,2.34C114.65,31.45,114.8,30.67,115.56,29.88z"/>
	<path class="st78" d="M44.2,67.79c0.47-0.2,0.94-0.41,1.41-0.61c0.44,0.42,0.82,0.94,0.09,1.33C45.01,68.86,44.37,68.69,44.2,67.79
		z"/>
	<path class="st18" d="M108.96,41.99c-0.03,1.26-0.06,2.53-0.09,3.79C108.37,44.5,107.72,43.22,108.96,41.99z"/>
	<path class="st79" d="M65.63,126.73c0.01,0.72-0.07,1.42-0.82,1.76c-0.11,0.05-0.46-0.12-0.5-0.25c-0.21-0.62,0.02-1.13,0.56-1.49
		C65.11,126.4,65.37,126.4,65.63,126.73z"/>
	<path class="st70" d="M107.53,118.58c-1.14-1.2-1.19-2.45-0.14-3.73C107.43,116.09,107.48,117.34,107.53,118.58z"/>
	<path class="st27" d="M65.76,102.06c-0.24,0.27-0.48,0.54-0.72,0.81c-0.14-0.82-0.28-1.65-0.47-2.76
		C65.87,100.45,65.65,101.36,65.76,102.06z"/>
	<path class="st80" d="M74.61,56.02c0.23,0,0.46,0.01,0.69,0.01c0.07,1.23,0.14,2.46,0.21,3.69C74.08,58.76,74.81,57.28,74.61,56.02
		z"/>
	<path class="st24" d="M137.28,51.58c0.03-0.35,0.06-0.7,0.09-1.05c0.96,0.87,1.39,1.97,1.39,3.25
		C137.78,53.38,137.35,52.6,137.28,51.58z"/>
	<path class="st61" d="M102.18,111.93c0.26-0.26,0.52-0.52,0.78-0.79c0.02,0.98,0.04,1.96,0.07,2.93c-0.2,0.23-0.4,0.46-0.61,0.69
		C102.34,113.83,102.26,112.88,102.18,111.93z"/>
	<path class="st81" d="M48.55,52.27c-0.49,0.51-0.99,1.01-1.48,1.52c0.05-1.05-0.46-2.24,0.8-2.96
		C48.1,51.31,48.32,51.79,48.55,52.27z"/>
	<path class="st82" d="M96,69.75c0.6-0.15,0.85,0.12,0.78,0.53c-0.06,0.31-0.28,0.7-0.55,0.85c-0.53,0.3-0.63-0.21-0.6-0.53
		C95.66,70.28,95.89,69.99,96,69.75z"/>
	<path class="st83" d="M65.63,126.73c-0.25,0.01-0.51,0.01-0.76,0.02c0.05-0.75,0.09-1.51,0.14-2.27c0.43-0.24,0.86-0.47,1.29-0.71
		C66.07,124.76,65.85,125.75,65.63,126.73z"/>
	<path class="st84" d="M64.71,97.88c-0.29,0.32-0.48,0.73-0.7,0.75c-0.71,0.06-0.6-0.58-0.6-0.99c0-0.27,0.24-0.54,0.38-0.82
		C64.08,97.15,64.37,97.48,64.71,97.88z"/>
	<path class="st85" d="M72.39,117.73c0-0.71,0.01-1.42,0.01-2.13c0.28-0.26,0.57-0.3,0.9-0.09c0.21,0.28,0.34,0.6,0.4,0.94
		c0.03,0.55-0.17,1.01-0.54,1.41C72.91,117.82,72.65,117.78,72.39,117.73z"/>
	<path class="st86" d="M73.17,117.86c-0.01-0.51-0.02-1.01-0.03-1.52c0.37-0.42,0.82-0.47,1.32-0.32c0.28,0.19,0.43,0.46,0.46,0.8
		c-0.16,0.49-0.69,0.66-0.95,1.06C73.7,117.87,73.43,117.87,73.17,117.86z"/>
	<path class="st87" d="M73.96,117.88c0.22-0.26,0.44-0.52,0.66-0.78c0.4-0.41,0.62-0.33,0.66,0.24c-0.05,0.16-0.1,0.33-0.14,0.49
		c-0.18,0.23-0.38,0.27-0.61,0.07C74.34,117.9,74.15,117.89,73.96,117.88z"/>
	<path class="st81" d="M47.76,49.32c0.21,0.01,0.42,0.02,0.64,0.04c0.1,0.23,0.1,0.46,0,0.68C48.18,49.79,47.97,49.55,47.76,49.32z"
		/>
	<path class="st88" d="M74.53,117.9c0.2-0.04,0.41-0.07,0.61-0.07c0.02,0.25,0.04,0.5,0.06,0.75
		C74.97,118.35,74.75,118.13,74.53,117.9z"/>
	<path class="st43" d="M104.47,107.47c0,0.23,0.01,0.45,0.01,0.68c-4.2,0.02-8.39,0.04-12.59,0.06
		C95.99,106.42,100.28,107.8,104.47,107.47z"/>
	<path class="st19" d="M111.15,41.8c0.76-0.73,1.52-1.45,2.28-2.18c1.24-0.75,2.48-1.51,3.72-2.26c0.5-0.23,1-0.46,1.5-0.69
		c1.07-0.7,1.76-0.28,2.24,0.76c1.26,1.47,0.23,2.95,0.01,4.43c-0.22,0.25-0.48,0.42-0.8,0.51c-0.68,0.07-1.25-0.13-1.66-0.69
		c-0.27-0.37-0.6-0.47-1-0.17c-0.34,0.28-0.69,0.52-1.14,0.55c-1.5-0.34-2.19,1.47-3.6,1.37C112.3,42.78,110.59,43.37,111.15,41.8z"
		/>
	<path class="st15" d="M116.3,42.06c0.27-0.32,0.54-0.64,0.81-0.96c0.53-0.43,1.05-0.39,1.56,0.02c0.29,0.59,0.82,0.75,1.41,0.79
		c1.22,1.5,0.17,2.56-0.7,3.65c-0.24,0.02-0.48,0.04-0.72,0.06c-0.19,0.23-0.43,0.31-0.72,0.23c-0.35-0.26-0.46-0.69-0.72-1.01
		C116.91,43.93,116.61,43,116.3,42.06z"/>
	<path class="st45" d="M117.22,44.86c0.23,0.25,0.45,0.5,0.68,0.75c0.59,1.74,0.55,3.48,0.02,5.23c-1.15,3.99,2.03,2.61,3.77,3.03
		c-1.82,1.39-3.97,0.24-5.9,0.78C116.83,51.46,117.73,48.27,117.22,44.86z"/>
	<path class="st19" d="M111.15,41.8c0.52,0.54,1.04,1.09,1.56,1.63c-0.97,0.77-0.61,1.92-0.84,2.9c-2-0.23-2.09-0.47-1.44-3.76
		c0-0.26,0.01-0.52,0.01-0.78C110.67,41.82,110.91,41.82,111.15,41.8z"/>
	<path class="st14" d="M110.42,42.58c0.36,1.3-0.89,3.21,1.44,3.76c0,0.26-0.01,0.51-0.01,0.77c-0.35,0.48-0.57,1.2-1.42,0.75
		C109.29,46.1,109.3,44.34,110.42,42.58z"/>
	<path class="st41" d="M110.44,47.85c0.47-0.25,0.94-0.5,1.42-0.75c-0.05,1.47-0.1,2.95-0.15,4.42c-0.71-0.56-0.52-1.37-0.58-2.1
		c-0.24-0.27-0.63-0.43-0.68-0.86C110.44,48.32,110.44,48.09,110.44,47.85z"/>
	<path class="st7" d="M89.54,98.63c0.25,0.71,0.5,1.43,0.74,2.14c-1.47,1.78-0.45,3.86-0.67,5.78c-0.28,0.06-0.56,0.12-0.85,0.18
		c-1.38,0.5-2.58-0.12-3.81-0.61c-1.08-1.29-0.33-2.92-0.81-4.32c-0.13-0.35-0.27-0.69-0.44-1.02c-0.27-1.58,0.07-2.93,1.43-3.91
		c0.36-0.1,0.68-0.03,0.94,0.25C86.63,98.97,88.73,97.34,89.54,98.63z"/>
	<path class="st67" d="M85.04,105.8c1.24,0.31,2.48,0.62,3.72,0.93c-1.78,1.65-3.94-0.63-5.76,0.54c0.3-1.15,0.59-2.31,0.89-3.46
		C85.38,103.84,84.18,105.41,85.04,105.8z"/>
	<path class="st38" d="M53.7,42.6c-0.47,0-0.94,0-1.41,0c-1.37-2.08-0.15-3.08,1.63-3.83c0.4,0.05,0.69,0.25,0.86,0.61
		c0.08,0.38,0.01,0.72-0.22,1.03C54.27,41.14,53.98,41.87,53.7,42.6z"/>
	<path class="st33" d="M54.56,40.41c-0.01-0.27-0.03-0.54-0.04-0.81c0.17-0.19,0.31-0.4,0.43-0.62c0.1-0.23,0.21-0.46,0.32-0.69
		c0.1-0.24,0.23-0.46,0.38-0.67c0.1-0.08,0.21-0.15,0.32-0.22c0.5,0,0.99,0,1.49,0c-0.24,0.99-0.48,1.98-0.73,2.98
		c-0.09,0.42-0.53,0.48-0.77,0.75C55.49,40.89,55.02,40.65,54.56,40.41z"/>
	<path class="st89" d="M55.96,41.13c0.26-0.25,0.51-0.5,0.77-0.75c1.22,0.18,2.58-0.48,3.63,0.63
		C58.89,41.05,57.43,41.09,55.96,41.13z"/>
	<path class="st90" d="M119.38,45.57c0.24-1.22,0.47-2.44,0.7-3.66c0.27-0.02,0.54-0.04,0.81-0.05c0.26,0.26,0.52,0.52,0.78,0.78
		c-0.26,0.98-0.52,1.96-0.78,2.94C120.39,45.58,119.89,45.58,119.38,45.57z"/>
	<path class="st51" d="M117.92,50.84c-0.01-1.74-0.01-3.48-0.02-5.23c0.26,0.01,0.51,0.02,0.77,0.03
		C118.36,47.36,119.32,49.27,117.92,50.84z"/>
	<path class="st91" d="M70.68,114.84c-0.65-0.23-1.29-0.46-1.94-0.68c-0.32-0.31-0.65-0.63-0.98-0.94c1.37-2.91,2.65-0.25,3.97,0.06
		c0,0.42-0.16,0.77-0.43,1.08C71.12,114.55,70.91,114.71,70.68,114.84z"/>
	<path class="st72" d="M70.91,114.12c0.28-0.28,0.55-0.57,0.83-0.85c0.46,0.03,0.92,0.06,1.39,0.09c0.25,0.21,0.39,0.47,0.44,0.79
		c-0.03,0.32-0.14,0.61-0.35,0.86c-0.32,0.14-0.6,0.08-0.83-0.18l-0.1-0.03C71.96,114.32,71.25,114.57,70.91,114.12z"/>
	<path class="st92" d="M73.25,114.18c-0.04-0.28-0.09-0.55-0.13-0.83c0.65,0.01,1.21,0.2,1.52,0.83c0.1,0.13,0.2,0.26,0.29,0.39
		c-0.08,0.14-0.15,0.29-0.23,0.43c-0.31,0.12-0.63,0.12-0.94,0C73.55,114.76,73.38,114.48,73.25,114.18z"/>
	<path class="st49" d="M74.63,114.84c0-0.22,0.01-0.44,0.02-0.66c0.25,0.01,0.49,0.02,0.74,0.04c-0.02,0.2-0.04,0.39-0.05,0.59
		C75.11,115.08,74.87,115.09,74.63,114.84z"/>
	<path class="st93" d="M39.54,52.3c1.43,0,2.98-0.26,3.72,1.48c-1.25,0.35-2.5,0.37-3.74-0.04C39.53,53.26,39.54,52.78,39.54,52.3z"
		/>
	<path class="st6" d="M123.89,26.94c1.06,1.84,1.47,3.84,1.48,5.94c-2.41,0.44-3.27-0.69-3.01-2.96c-0.45-0.49-0.42-0.97,0-1.46
		C122.88,27.96,123.38,27.45,123.89,26.94z"/>
	<path class="st90" d="M119.4,31.45c-0.74-0.74-1.49-1.49-2.23-2.23c0.49-0.47,0.98-0.94,1.47-1.41c0.47-0.53,0.98-0.53,1.51-0.09
		c0.25,0.25,0.5,0.5,0.75,0.75c0.06,1.07,0.99,2.36-0.75,2.98l-0.37,0C119.77,31.44,119.4,31.45,119.4,31.45z"/>
	<path class="st28" d="M120.14,31.45c0.64-0.9-0.18-2.16,0.75-2.98c0.49,0,0.99,0,1.48,0.01c0,0.49,0,0.97,0,1.46
		C121.24,29.87,122.21,32.87,120.14,31.45z"/>
	<path class="st94" d="M120.14,27.71c-0.5,0.03-1.01,0.06-1.51,0.09c-0.4-1.9,1.01-1.95,2.27-2.37
		C121.48,26.61,120.25,26.97,120.14,27.71z"/>
	<path class="st22" d="M85.84,91.76c0.73,0.24,1.46,0.48,2.18,0.72c-0.35,1.31-0.36,2.75-1.46,3.77c-0.81-0.6-1.06-1.51-1.31-2.42
		C85.14,93.06,85.18,92.32,85.84,91.76z"/>
	<path class="st51" d="M85.82,93.97c0.87,0.56,0.72,1.45,0.74,2.28c0.01,0.28,0.02,0.56,0.04,0.84c-0.26,0.25-0.5,0.23-0.72-0.06
		l-0.08-0.09c-0.5-0.24-1.04-0.42-1.4-0.88C83.86,94.69,83.45,93.39,85.82,93.97z"/>
	<path class="st95" d="M85.88,97.04c0.24-0.01,0.48,0.01,0.72,0.06c1.12,1.09,2.53,0.43,3.79,0.64c-0.28,0.3-0.57,0.6-0.85,0.9
		C88.32,98.1,86.29,99.43,85.88,97.04z"/>
	<path class="st20" d="M79.04,105.89c0.49-1,0.99-1.99,1.48-2.99c0.29-0.26,0.6-0.29,0.93-0.09c0.22,0.33,0.19,0.64-0.09,0.92
		c-0.37,1.27-0.52,2.62-1.42,3.68c-0.29,0.39-0.57,0.39-0.85-0.01C79.08,106.9,79.06,106.4,79.04,105.89z"/>
	<path class="st49" d="M79.09,107.41c0.28,0,0.57,0,0.85,0.01c-0.44,1.86,1.8,2.24,2.05,3.71c-2.36,0.33-3.19-0.8-2.9-3.01
		C79.1,107.88,79.1,107.65,79.09,107.41z"/>
	<path class="st42" d="M85.04,105.8c-0.97-0.33-0.49-1.49-1.15-1.99c-0.05-0.8-0.1-1.6-0.15-2.4c0.2-0.28,0.4-0.27,0.58,0.02
		C85.66,102.71,84.86,104.34,85.04,105.8z"/>
	<path class="st14" d="M84.33,101.43l-0.29,0c0,0-0.29-0.02-0.29-0.02c-1.17,0.39-1.07,2.07-2.37,2.32
		c-0.01-0.27-0.02-0.54-0.03-0.81c-0.17-1.3-0.17-2.54,1.18-3.3c0.89-0.2,1.36,0.36,1.77,1C84.3,100.89,84.31,101.16,84.33,101.43z"
		/>
	<path class="st50" d="M82.83,99.95c-0.5,0.99-0.99,1.98-1.49,2.97c-0.27-0.01-0.55-0.01-0.82-0.02c-0.05-0.74-0.09-1.48-0.14-2.22
		c0.73-0.86,1.08-1.85,0.95-2.98c1.23-1.81,0.6-4.05,1.4-5.95c0.13-1.03,0.61-1.83,1.57-2.29c0.24,0.03,0.49,0.05,0.73,0.04
		c0.89,0.53,0.75,1.43,0.79,2.26c0,0.74-0.01,1.48-0.02,2.21c-1.96,0.19-1.18,1.28-0.75,2.26C84.06,97.31,83.85,98.88,82.83,99.95z"
		/>
	<path class="st6" d="M88.82,85.79c-0.75,0.01-1.49,0.02-2.24,0.03c-0.52-0.93-0.87-1.91-0.77-3c-0.42-0.39-0.59-0.89-0.58-1.45
		c0.09-0.96,0.59-1.68,1.33-2.26c0.5,0.25,0.99,0.51,1.49,0.76C87.15,81.98,89.18,83.73,88.82,85.79z"/>
	<path class="st42" d="M85.82,81.32c0,0.5-0.01,0.99-0.01,1.49c-0.86,0.54-0.71,1.42-0.74,2.23c-1.59,0.72-2.7,0.45-2.98-1.47
		c0-0.25,0-0.5,0-0.76c-0.3-1.29,0.54-1.76,1.53-2.12C84.45,80.56,85.2,80.7,85.82,81.32z"/>
	<path class="st19" d="M82.08,83.58c0.77,0.95,1.8,1.37,2.98,1.47c-0.25,0.51-0.51,1.02-0.76,1.53c-0.97,0-1.94,0.01-2.91,0.01
		c-0.26-0.51-0.53-1.02-0.8-1.53C80.87,84.35,81.36,83.85,82.08,83.58z"/>
	<path class="st70" d="M54.48,24.01c-0.62,0.32-1.6,1.06-1.8,0.9c-0.87-0.74-0.16-1.56,0.43-2.05c1-0.82,1.87-2.39,3.56-1.11
		c-0.06,0.69-0.48,1.16-0.94,1.62C55.38,23.7,54.98,23.95,54.48,24.01z"/>
	<path class="st96" d="M53.01,29.23c-0.01-0.25-0.02-0.51-0.03-0.76c0.32-0.6,0.88-0.73,1.5-0.75c0.18-0.25,0.41-0.34,0.71-0.25
		c0.2,0.11,0.36,0.26,0.48,0.46c0.18-0.2,0.04-0.48,0.18-0.69c0.4-0.55,0.61-1.42,1.61-1c0,0.99,0.01,1.99,0.01,2.98
		c-0.25,0.25-0.49,0.49-0.74,0.74c-0.86,0.09-1.59-0.25-2.28-0.71C53.97,29.24,53.49,29.23,53.01,29.23z"/>
	<path class="st7" d="M55.25,23.27c0.48-0.51,0.96-1.01,1.43-1.52c0.51,0,1.02,0.01,1.53,0.01c0,0.25,0.01,0.49,0.01,0.74
		c-0.25,0.5-0.51,1-0.76,1.5c-0.79,0.76-1.44,0.37-2.05-0.27C55.35,23.58,55.3,23.42,55.25,23.27z"/>
	<path class="st19" d="M55.2,27.73c-0.24,0-0.48-0.01-0.73-0.01c-0.82-1.24,0.24-2.47,0.01-3.71c0.26-0.25,0.51-0.49,0.77-0.74
		c0,0,0,0.01,0,0.01c0.33,0.51,0.58,1.05,0.74,1.64C56.13,25.97,55.95,26.93,55.2,27.73z"/>
	<path class="st97" d="M70.81,116.96c-0.91,0.66-1.6,1.69-2.9,1.69c0.24-0.76,0.48-1.52,0.72-2.28
		C69.41,116.36,70.28,116.03,70.81,116.96z"/>
	<path class="st29" d="M120.89,37.43c-0.75-0.25-1.49-0.51-2.24-0.76c1.05-0.79,1.1-1.83,0.75-2.97c0.48,0,0.97,0,1.45,0
		c0.76,0.57,0.78,1.39,0.75,2.23c0.01,0.49,0.02,0.98,0.03,1.47C121.39,37.41,121.14,37.42,120.89,37.43z"/>
	<path class="st14" d="M121.6,35.93c-0.85-0.54-0.66-1.43-0.75-2.23C122.5,33.98,122.88,34.67,121.6,35.93z"/>
	<path class="st81" d="M83.55,81.33c-0.49,0.5-0.97,0.99-1.46,1.49c-0.63-0.31-0.73-0.89-0.75-1.5c0.5-1.94,1.48-3.12,3.7-2.25
		C85.02,80.15,84.2,80.69,83.55,81.33z"/>
	<path class="st83" d="M83.55,81.33c0.07-1.03,0.52-1.81,1.49-2.26c0.51-0.02,1.03-0.8,1.53,0.02c-0.25,0.74-0.5,1.48-0.75,2.22
		C85.06,81.33,84.3,81.33,83.55,81.33z"/>
	<path class="st14" d="M55.24,24.8c0-0.5,0-1.01,0.01-1.51c0.74,0.24,1.47,0.47,2.21,0.71c0,0.75,0,1.49-0.01,2.24
		c-0.49,0.5-0.97,1-1.46,1.5C55.14,26.9,56.07,25.63,55.24,24.8z"/>
	<path class="st98" d="M54.46,38.88c-1.46,0.81-2.45,1.89-2.18,3.72c-0.02,0.25-0.04,0.5-0.06,0.75c-0.25,0.5-0.49,0.99-0.73,1.49
		c-1-0.01-1.47-0.55-1.51-1.51c0.22-0.74,0.44-1.47,0.66-2.21c0.29-0.99,0.58-1.99,0.88-2.98c1.23-1.52,0.64-3.57,1.51-5.2
		c0.98-0.25,1.96-0.5,2.94-0.76c0.02,0.61,0.15,1.17,0.75,1.49c-0.25,1.24-0.5,2.48-0.75,3.72c0,0-0.02,0-0.02,0
		c-0.18,0.21-0.39,0.37-0.63,0.48c-0.26,0.01-0.44,0.14-0.52,0.4c0.01,0-0.1,0.34-0.1,0.34C54.72,38.63,54.46,38.88,54.46,38.88z"/>
	<path class="st71" d="M110.44,48.56c0.23,0.29,0.45,0.57,0.68,0.86c-1.35,0.87-0.02,2.78-1.41,3.63
		C109.93,51.55,109.09,49.88,110.44,48.56z"/>
	<path class="st0" d="M105.92,60.45c-0.25,0.03-0.49,0.06-0.74,0.06c0.25-0.22,0.5-0.44,0.75-0.67
		C105.86,60.04,105.86,60.24,105.92,60.45z"/>
	<path class="st26" d="M54.45,29.24c0.84-0.01,1.72-0.16,2.28,0.71c0.35,0.79,0.57,1.52-0.73,1.51
		C55.48,30.72,54.96,29.98,54.45,29.24z"/>
	<path class="st18" d="M74.63,114.84c0.23-0.01,0.47-0.02,0.7-0.03c-0.02,0.84-0.03,1.68-0.05,2.52c-0.22-0.08-0.44-0.16-0.67-0.24
		c-0.03-0.35-0.05-0.71-0.08-1.06c-0.23-0.14-0.33-0.35-0.31-0.62C74.24,115.15,74.37,114.96,74.63,114.84L74.63,114.84z"/>
	<path class="st34" d="M74.62,114.85c-0.07,0.31-0.14,0.63-0.22,0.94c-0.44,0.15-0.87,0.24-1.23-0.18c-0.26,0-0.52-0.01-0.78-0.01
		c0-0.26,0-0.51-0.01-0.77c0.26,0,0.52-0.01,0.78-0.01c0.2-0.27,0.42-0.27,0.66-0.05C74.1,114.8,74.36,114.82,74.62,114.85z"/>
	<path class="st99" d="M70.91,114.12c0.57,0,1.16-0.01,1.38,0.69c-0.54,0.01-1.07,0.02-1.61,0.03
		C70.75,114.6,70.83,114.36,70.91,114.12z"/>
	<path class="st100" d="M73.18,115.61c0.41,0.06,0.82,0.12,1.23,0.18c0,0,0.13,0.25,0.13,0.25c-0.47,0.1-0.94,0.2-1.4,0.3
		C73.12,116.09,73.14,115.85,73.18,115.61z"/>
	<path class="st31" d="M118.67,41.13c-0.52-0.01-1.04-0.01-1.56-0.02c0.15-0.9,0.53-1.66,1.58-1.28
		C119.49,40.12,119.17,40.7,118.67,41.13z"/>
	<path class="st52" d="M82.83,99.95c0.15-1.6,0.13-3.3,2.25-3.72c0.24,0.24,0.48,0.48,0.73,0.72c-1.09,0.98-1.5,2.25-1.51,3.67
		C83.8,100.4,83.31,100.17,82.83,99.95z"/>
	<path class="st101" d="M55.16,39.55c-0.21,0.05-0.43,0.07-0.65,0.05c-0.02-0.24-0.04-0.48-0.05-0.72c0,0,0.05,0,0.05,0
		C55.11,38.74,55.43,38.86,55.16,39.55z"/>
	<path class="st102" d="M55.16,39.55c-0.22-0.23-0.43-0.45-0.65-0.68c-0.02-0.22-0.02-0.44,0-0.66c0.14-0.29,0.37-0.42,0.69-0.42
		c0.31,0.01,0.56,0.11,0.77,0.34C55.94,38.75,55.83,39.31,55.16,39.55z"/>
	<path class="st6" d="M55.96,38.14c-0.24,0-0.47,0-0.71-0.01c-0.27-0.16-0.36-0.32-0.27-0.48c0.08-0.17,0.17-0.25,0.26-0.25
		c0.24,0,0.48,0,0.71,0.01C55.96,37.65,55.97,37.9,55.96,38.14z"/>
	<path class="st103" d="M73.83,114.77l-0.33,0.06c0,0-0.33-0.01-0.33-0.01c-0.04-0.22-0.02-0.44,0.08-0.64
		C73.44,114.38,73.64,114.58,73.83,114.77z"/>
	<path class="st61" d="M55.24,24.8c1.13,0.75,0.59,1.93,0.74,2.93c-0.26,0.49-0.53,0.47-0.79,0C55.21,26.75,55.23,25.78,55.24,24.8z
		"/>
	<path class="st61" d="M55.24,37.4c-0.01,0.25-0.01,0.49,0.01,0.74c-0.25,0.03-0.5,0.05-0.75,0.08
		C53.74,37.04,54.9,37.58,55.24,37.4z"/>
</g>
</svg>
