<?xml version="1.0" encoding="utf-8"?>
<!-- Generator: Adobe Illustrator 24.2.1, SVG Export Plug-In . SVG Version: 6.00 Build 0)  -->
<svg version="1.1" id="Calque_1" xmlns="http://www.w3.org/2000/svg" xmlns:xlink="http://www.w3.org/1999/xlink" x="0px" y="0px"
	 viewBox="0 0 197.25 129.75" style="enable-background:new 0 0 197.25 129.75;" xml:space="preserve">
<style type="text/css">
	.st0{fill:#FEFEFE;}
	.st1{fill:#FFE5D3;}
	.st2{fill:#FFE5D4;}
	.st3{fill:#FFE4D2;}
	.st4{fill:#40916C;}
	.st5{fill:#76C6A1;}
	.st6{fill:#77C7A2;}
	.st7{fill:#519B79;}
	.st8{fill:#44936F;}
	.st9{fill:#489572;}
	.st10{fill:#4D9976;}
	.st11{fill:#4A9773;}
	.st12{fill:#FFD4B7;}
	.st13{fill:#FFE4D1;}
	.st14{fill:#FFD7BC;}
	.st15{fill:#79C7A3;}
	.st16{fill:#FFDFCA;}
	.st17{fill:#FFD5B9;}
	.st18{fill:#539C7B;}
	.st19{fill:#FFE3D0;}
	.st20{fill:#FFE0CB;}
	.st21{fill:#65BF95;}
	.st22{fill:#6EC39B;}
	.st23{fill:#BDB9B7;}
	.st24{fill:#FFDBC3;}
	.st25{fill:#B0ACA9;}
	.st26{fill:#FFD3B6;}
	.st27{fill:#FFE1CC;}
	.st28{fill:#C5C2C0;}
	.st29{fill:#FFDCC5;}
	.st30{fill:#FFE2CF;}
	.st31{fill:#FFDFC9;}
	.st32{fill:#FFD6BA;}
	.st33{fill:#DBDAD8;}
	.st34{fill:#B2AEAB;}
	.st35{fill:#FFDCC4;}
	.st36{fill:#FFE2CE;}
	.st37{fill:#D5D3D1;}
	.st38{fill:#B7B3B1;}
	.st39{fill:#71C49D;}
	.st40{fill:#81CBA8;}
	.st41{fill:#FFE1CD;}
	.st42{fill:#93D2B5;}
	.st43{fill:#CAC7C5;}
	.st44{fill:#B1ADAB;}
	.st45{fill:#FFDAC1;}
	.st46{fill:#FFDAC2;}
	.st47{fill:#FFF1E8;}
	.st48{fill:#98D4B8;}
	.st49{fill:#C1BEBB;}
	.st50{fill:#FFDDC7;}
	.st51{fill:#C5C3C1;}
	.st52{fill:#C6C4C1;}
	.st53{fill:#AFABA8;}
	.st54{fill:#FFD6BB;}
	.st55{fill:#F7F7F6;}
	.st56{fill:#C8C5C3;}
	.st57{fill:#EAE9E8;}
	.st58{fill:#70C39C;}
	.st59{fill:#B4B0AD;}
	.st60{fill:#C4C1BF;}
	.st61{fill:#B0ADAA;}
	.st62{fill:#FFDDC6;}
	.st63{fill:#82CBA9;}
	.st64{fill:#8FD0B2;}
	.st65{fill:#BAB7B4;}
	.st66{fill:#CCC9C8;}
	.st67{fill:#7FCAA7;}
	.st68{fill:#FFE8D9;}
	.st69{fill:#FFD2B4;}
	.st70{fill:#FFF5EE;}
	.st71{fill:#FFFAF7;}
	.st72{fill:#DAD8D7;}
	.st73{fill:#FFCCAA;}
	.st74{fill:#FFCFAE;}
	.st75{fill:#AEAAA7;}
	.st76{fill:#FFC49D;}
	.st77{fill:#FFD7BD;}
	.st78{fill:#FFCAA6;}
	.st79{fill:#FDFDFD;}
	.st80{fill:#7BC8A4;}
	.st81{fill:#85CCAB;}
	.st82{fill:#8ACEAE;}
	.st83{fill:#FAFAFA;}
	.st84{fill:#7EC9A6;}
	.st85{fill:#FFC299;}
	.st86{fill:#FFDEC8;}
	.st87{fill:#F9F9F9;}
	.st88{fill:#FFD9BF;}
	.st89{fill:#FFFBF9;}
	.st90{fill:#FFD2B5;}
	.st91{fill:#84CCAA;}
	.st92{fill:#FFD4B8;}
	.st93{fill:#FFFAF6;}
	.st94{fill:#FFC39B;}
	.st95{fill:#FFCCA9;}
	.st96{fill:#BBB8B5;}
	.st97{fill:#F0F0EF;}
	.st98{fill:#F4F3F3;}
	.st99{fill:#FFC7A1;}
	.st100{fill:#E8E6E5;}
</style>
<g>
	<path class="st0" d="M14.32,3.57c56.45,0,112.9,0.02,169.36-0.07c2.57,0,3.08,0.5,3.07,3.07c-0.1,39.95-0.1,79.91,0,119.86
		c0.01,2.57-0.5,3.07-3.07,3.07c-55.45-0.09-110.91-0.09-166.36,0c-2.57,0-3.08-0.5-3.07-3.07C14.35,85.48,14.32,44.53,14.32,3.57z"
		/>
	<path class="st1" d="M174.69,52.33c0.03,0.39,0.05,0.79,0.08,1.18c0.81,3.03-0.26,6.19,0.6,9.22c0.5,2.73,1,5.45,1.5,8.18
		c-4.07,2.91-9.83,2.62-13.83-0.7c2.6-4.54,1.91-8.98-0.43-13.36c0.1-0.5,0.34-0.92,0.73-1.25c0.93-0.64,1.84-1.33,2.97-1.61
		c1.09-0.09,1.35-1.35,2.3-1.64C170.64,52.11,172.66,50.87,174.69,52.33z"/>
	<path class="st2" d="M170.2,86.65c-0.84,0.13-1.21,0.64-1.44,1.46c-1.21,4.32-2.48,8.63-3.73,12.94c-1.08,1.1-0.17,2.46-0.47,3.67
		c0.19,2.24-0.39,4.52,0.35,6.72c0.03,0.69,0.06,1.38,0.1,2.07c-0.41,1.1-1.06,1.99-2.35,1.95c-1.19-0.03-1.11-1.08-1.27-1.89
		c-0.41-7.23-1.49-14.36,1.09-21.6c1.61-4.51-0.94-9.52-0.34-14.36c2.03-0.79,3.74,0.2,5.5,0.96c2.11,0.82,2.83,2.62,3.24,4.63
		C171.08,84.44,171.22,85.66,170.2,86.65z"/>
	<path class="st2" d="M119.16,109.17c0.45,1.45,0.9,2.9,1.35,4.34c-1.08,1.45-2.09,3.07-4.25,1.54c0.3-3.02-0.51-5.94-1-8.86
		c-0.6-3.5-0.84-6.93,0.29-10.3c1.67-4.98,0.01-9.84-0.32-14.76c-0.07-1.11-0.2-2.21-0.3-3.31c1.63-0.7,3.03,0.02,4.45,0.7
		c1.92,0.73,3.99,1.32,3.82,4.03c-0.11,1.27-0.59,2.46-0.87,3.69c0.08,0.15,0.07,0.3-0.03,0.44c-0.91,0.92-0.06,2.22-0.7,3.2
		c-0.95,1.14-0.12,2.63-0.78,3.83c-0.47,1.67-0.94,3.34-1.41,5.01c-1.09,1.4-0.31,3.02-0.55,4.52
		C119.02,105.22,118.49,107.23,119.16,109.17z"/>
	<path class="st1" d="M75.75,106.84c0-2.7,0-5.41,0.01-8.11c-0.35-1-0.53-2.05-0.77-3.09c-0.25-1.56-0.21-3.11,0.1-4.65
		c-0.2-4.54-0.46-9.07-0.34-13.61c-0.02-0.63-0.03-1.26,0.11-1.87c0.6-2.46,1.09-5.02,4.37-5.25c1.07,0.12,2.01,0.53,2.78,1.31
		c0.36,0.51,0.54,1.09,0.6,1.71c0.04,2.04-0.61,3.82-2.03,5.31c-1.6,2.48-0.63,5.19-0.66,7.8c0.01,0.18,0.01,0.37,0.01,0.55
		c-0.04,0.37-0.14,0.72-0.3,1.06c-1.21,1.99-0.17,4.41-1.23,6.43c-0.05,1.47-0.01,2.95-0.02,4.41c0.03,0.61,0.23,1.17,0.55,1.77
		c0-0.66-0.49-1.1-0.52-1.69c0.01-1.49-0.07-2.98,0.05-4.47c1.56-1.53,2.77-0.23,4.05,0.49c0.98,0.85,1.91,1.74,2.6,2.85
		c0.24,0.5,0.36,1.02,0.38,1.57c0.01,0.35-0.04,0.7-0.1,1.05c-0.69,2.34-2.44,3.99-3.84,5.87c-0.56,0.53-1.18,1-1.54,1.71
		c-0.26,0.59-0.4,1.21-0.61,1.82c-1.38,2.12-2.28,0.49-3.29-0.41C75.65,108.6,75.25,107.78,75.75,106.84z"/>
	<path class="st1" d="M37.4,91.24c-0.99-1.62-0.39-3.44-0.66-5.15c-0.29-0.46-0.33-1.1-0.78-1.41c-0.11-0.07-0.3,0.55-0.53,0.8
		c-0.1,0.88-0.21,1.77-0.31,2.65c-1.47-0.18-2.07-1.45-2.96-2.36c-0.06-0.34,0-0.65,0.18-0.93c1.43-1.14,1.23-2.91,1.72-4.43
		c0.4-0.85,1.12-1.39,1.86-1.9c2.41-1.02,4.88-1.82,7.5-2.09c0.58,0.16,1.01,0.49,1.18,1.09c0.25,1.3-1.37,1.04-1.62,1.93
		c-0.44,1.67,0.37,3.56-0.88,5.09c-0.94,2.16-0.37,4.39-0.27,6.59c-0.11,0.28-0.23,0.57-0.34,0.85c-0.79,1.17-0.99,2.36-0.11,3.58
		c0.85,1.83,0.91,3.66,0.01,5.49c-0.73,2.46-0.87,4.92,0.08,7.37c0.23,0.53,0.45,1.06,0.68,1.59c0.67,1.19,0.49,2.25-0.87,2.58
		c-1.65,0.41-2.41-0.76-2.85-2.15c-0.41-3.88-0.8-7.76-1.26-11.64c-0.16-1.33-0.64-2.64,0.32-3.86
		C38.16,93.71,38.28,92.46,37.4,91.24z"/>
	<path class="st1" d="M91.49,90.47c1.84,1.69,3.71,3.31,2.56,6.28c-0.63,1.62,1.24,1.06,1.77,1.7c-0.09,0.77-0.77,0.84-1.29,1.11
		c-0.56,0.24-1.03,0.62-1.56,0.92c-0.94,0.51-1.92,0.98-2.16,2.19c-1.98,1.67-2.45,4.07-3.07,6.4c-0.75,2.1-1.7,3.84-4.41,2.58
		c-0.24-0.29-0.32-0.62-0.26-0.99c1.62-1.32,1.11-3.05,0.88-4.72c0.06-1.82,0.57-3.49,1.65-4.98c0.22-0.27,0.47-0.51,0.73-0.75
		c0.65-1.38,3.41-2.56,0.38-4.26c-0.67-0.13-1.35-0.24-2.01-0.42c-0.87-0.24-1.74-0.49-2.59-0.81c-4.05-2.17-4.51-3.44-2.62-7.22
		l0.04-0.04C83.85,87.18,87.9,87.92,91.49,90.47z"/>
	<path class="st1" d="M170.2,86.65c-0.01-1.23-0.02-2.46-0.03-3.69c-1.42-3.62,1.05-4.39,3.68-5.04c1.21-0.4,2.27-1.4,3.69-0.9
		c-0.5,3.05-0.25,6.28-2.16,8.99c-0.61,1.95-0.38,3.92-0.16,5.89c-0.13,0.28-0.25,0.56-0.38,0.84c-1.22,2.11-0.22,4.4-0.55,6.58
		c-0.02,1.22,0.06,2.45-0.06,3.67c-1.01,2.04-1.08,4.11-0.16,6.2c0.6,0.4,1.19,0.8,1.79,1.2c-1.73,3.1-2.48,3.24-4.9,0.95
		C170.01,103.12,170.93,94.86,170.2,86.65z"/>
	<path class="st1" d="M130.31,76.82c0.16,1.1,0.38,2.21-0.42,3.19c-0.98,1.15-0.57,2.42-0.3,3.68c0.13,0.61,0.02,1.15-0.5,1.55
		c-0.98,2.19-0.46,4.44-0.27,6.68c-0.06,3.81,0.84,7.66-0.48,11.41c-0.94,0.74-0.35,1.76-0.46,2.64c-0.06,0.48,0.27,0.76,0.15,0.28
		c-0.01-0.04,0.2-0.13,0.3-0.19c0.84,1.21,0.54,2.65,0.81,3.98c0.51,0.68,0.53,1.41,0.2,2.17c-1.8,1.83-3.01,0.94-4.02-0.87
		c-0.05-2.63-0.1-5.27-0.15-7.9c-0.65-3.39-0.1-6.82-0.32-10.22c-0.08-1.16,0.52-2.44-0.53-3.46c-0.94-1.57-0.43-3.32-0.66-4.98
		c-0.53-0.69-0.67-1.48-0.66-2.32c-0.4-2.41,0.74-3.85,2.9-4.67C127.28,77.08,128.61,76.07,130.31,76.82z"/>
	<path class="st1" d="M29.07,87.56c-0.88-1.2-0.16-3.23-2.04-3.92c-1.33-1.11-1.78-2.5-1.35-4.18c0.16-0.35,0.39-0.67,0.66-0.94
		c-0.03-2.94-0.06-5.89-0.09-8.83c-0.66-3.37-0.1-6.78-0.32-10.16c-0.08-1.17,0.46-2.44-0.47-3.5c-1.16-3.43-0.6-6.83,0.2-10.21
		c0.25-1.03,0.89-1.76,2.03-1.9c1.36,0.11,2.4,0.7,2.98,1.99c0.57,1.88,0.43,3.78,0.11,5.68c-0.89,2.69-0.11,5.52-0.72,8.23
		c-0.94,3.98-0.26,8.01-0.46,12.01c-0.05,2.16,0.45,4.23,1.02,6.29c0.15,0.54,0.23,1.09,0.27,1.65c0.04,0.71-0.03,1.41-0.2,2.09
		c-0.38,0.91,0.04,1.37,0.91,1.58c0.58,0.4,0.94,0.9,0.8,1.65l-0.13,0.19c-0.79,0.81-1.41,1.79-2.31,2.5
		C29.63,87.87,29.33,87.8,29.07,87.56z"/>
	<path class="st1" d="M41.22,64.98c0.23,1.26,0.46,2.53,0.7,3.79c-3.05,4.19-8.81,4.24-12.16,0.1c0.66-2.42,0.88-4.81,0.26-7.32
		c-0.31-1.27-0.14-2.72,0.56-3.98c1.63-1.46,3.89-0.89,5.69-1.79c1.6-0.41,3.23-0.92,4.38,0.88l-0.05,0.06
		C41.45,59.42,40.38,62.27,41.22,64.98z"/>
	<path class="st2" d="M157.64,32.08c1.3-3.92-0.25-8.18,1.42-12.06c0.32-1.5,0.71-3-0.26-4.43c-0.45-0.29-0.89-0.58-1.34-0.87
		c-1.19-1.16-2-2.34-0.17-3.64c0.3-0.26,0.59-0.52,0.89-0.78c2.21,0.12,1.34,2.33,2.26,3.33c0.58,0.81,1.2,1.58,1.49,2.56
		c0.21,3.74,1.22,7.42,0.79,11.2c-0.97,4.18-1.78,8.36-0.76,12.66c0.59,2.94,2.25,5.71,1.54,8.87c-0.56,1.96-2.04,2.82-3.89,3.23
		c-3.28-5.68-3.78-11.71-2.29-18c0.55,0.28,0.49,0.78,0.48,1.27c-0.42-0.28-0.38,0.68-0.38,0.67
		C158.03,34.47,157.91,33.28,157.64,32.08z"/>
	<path class="st3" d="M128.32,65.65c0.43,1.74,0.86,3.48,1.29,5.22c-5.21,2.88-10.51,2.62-13.92-0.67c0.69-1.98,1.38-3.96,2.07-5.93
		c1.51-1.08,3.74-1.43,3.89-3.87c0.5-1.34,0.56-2.88,1.76-3.91c0.61-0.49,1.29-0.84,2.05-1.04c0.8-0.15,1.57-0.09,2.21,0.48
		c0.32,0.53,0.2,1.11,0.18,1.68C128.1,60.28,127.28,63.02,128.32,65.65z"/>
	<path class="st1" d="M30.06,87.48c-0.14-1.63,0.52-2.44,2.23-2.21c1.21,0.7,2.41,1.4,2.84,2.87c-0.37,3.93-1.93,7.56-2.88,11.35
		c-0.42,3.99-0.72,7.98,0.14,11.95c0.65,0.51,0.73,1.23,0.75,1.98c-1.87,3.16-2.51,3.34-3.9,1.06c-0.04-4.31-1.58-8.44-1.47-12.78
		c0.07-2.83,0.26-5.61,1.3-8.27C30.66,91.66,28.94,89.33,30.06,87.48z"/>
	<path class="st4" d="M177.55,77.01c-0.96,0.48-1.92,0.96-2.88,1.44c-2.5,0.09-4.84,1.88-7.46,0.7c-1.69-0.51-3.38-1.02-5.07-1.53
		c-0.43-2.55,0.37-4.96,0.9-7.4c4.54,1.74,9.13,2.24,13.83,0.7C177.06,72.95,177.85,74.92,177.55,77.01z"/>
	<path class="st4" d="M115.68,70.2c4.52,2.64,9.23,1.45,13.92,0.67c0.23,1.98,0.47,3.97,0.7,5.95c-1.2,0.54-2.4,1.08-3.6,1.62
		c-2.71,0.52-5.33,2.01-8.19,0.68c-1.2-0.43-2.4-0.86-3.6-1.29C114.6,75.22,114.94,72.69,115.68,70.2z"/>
	<path class="st4" d="M30.01,78.52c-1.48-1.72-0.96-3.9-1.38-5.87c0.37-1.51,0.33-3.35,2.89-2.08c3.45,1.72,6.98,0.43,10.46-0.16
		c1.33,1.41,0.41,3.53,1.58,4.99c0.43,0.48,0.4,0.93-0.1,1.34c-2.19,1.66-5.01,1.45-7.4,2.52C33.91,80.17,31.81,80.59,30.01,78.52z"
		/>
	<path class="st1" d="M173.26,31.48c-0.2,3.92-2.28,7.32-3.12,11.06c-0.8,0.35-1.35-0.1-1.89-0.59c-0.47-0.58-0.74-1.22-0.59-1.98
		c0.64-1.82,1-3.68,0.81-5.62c-0.02-1.08-0.3-2.14-0.16-3.22c1.21-5.42-0.39-10.5-1.93-15.58c-0.25-0.82-0.8-1.54-0.92-2.42
		c0.4-1.69,1.19-2.72,3.11-1.87c0.27,0.22,0.51,0.48,0.7,0.77c0.68,0.81,0.42,1.93,0.93,2.8c1.02,3.2,2.48,6.26,3,9.62
		C173.77,26.78,173.71,29.13,173.26,31.48z"/>
	<path class="st1" d="M127.48,57.52c0-0.43,0-0.86,0-1.29c1.03-2.18,1.09-4.55,1.29-6.89c1.46-0.69,1.84,0.66,2.7,1.4
		c0.71-1.84,0.08-3.48-0.68-5.12c-0.17-0.53-0.19-1.06,0.04-1.58c0.26-0.85,0.27-1.86,1.35-2.21c1.45-0.06,2.92-0.19,4.14,0.85
		c1.09-0.05,2.31-0.35,2.54,1.29c-0.73,1.1-2.29,0.72-3.08,1.72c-0.71,1.65-0.6,3.33-0.19,5.03c0.21,1.82,0.38,3.63-0.65,5.3
		c-0.61,1.27-1.02,2.62-1.4,3.97c-1.31,1.28-2.12,0.19-3.1-0.56c-0.8-0.61-0.85-2.1-2.29-1.93
		C127.94,57.85,127.71,57.85,127.48,57.52z"/>
	<path class="st5" d="M40.65,56.65c-1.3-0.64-2.6-0.68-3.91-0.02c-1.5-0.61-3.21,0.81-4.64-0.49c-0.65-0.89-0.66-1.88-0.5-2.91
		c0.53-1.4,0.28-3.11,1.63-4.2c1.75-0.66,4.84,1.12,4.87-2.67c0.25-0.27,0.55-0.43,0.92-0.47c1.94,0.29,1.44,2.24,2.24,3.3
		C44.07,51.93,42.44,54.3,40.65,56.65z"/>
	<path class="st1" d="M114.02,53.03c-3.02-4.3-0.71-7.79,1.7-11.27c0.25-0.17,0.51-0.2,0.78-0.08c0.37,0.24,0.63,0.56,0.77,0.98
		c0.03,0.28,0.02,0.56-0.02,0.83c-0.1,0.54-0.19,1.07-0.13,1.62c0.1,0.77,0.65,1.25,1.13,1.79c0.46,0.52,0.78,1.11,0.96,1.78
		c0.09,0.36,0.15,0.72,0.18,1.09c0.06,1.15,0.09,2.29,0.09,3.44c-0.06,1.78,0.13,3.58-0.32,5.34c-0.42,1.16-0.87,2.3-2.22,2.71
		c-0.45-1.02-0.89-2.04-1.34-3.06C115.51,56.36,114.68,54.72,114.02,53.03z"/>
	<path class="st6" d="M174.69,52.33c-2.22,0.25-4.44,0.49-6.66,0.74c-0.85-0.21-1.26-0.83-1.54-1.59c-0.24-1.62-0.99-3.19-0.49-4.88
		c0.73-1.47,2.87-0.48,3.55-2.05c0.18-0.27,0.42-0.47,0.69-0.63c0.56,0.46,1.06,1.18,1.69,1.34
		C176.3,46.32,175.85,49.17,174.69,52.33z"/>
	<path class="st1" d="M91.49,90.47c-3.98-1.01-7.97-2.01-11.95-3.02c-0.03-0.26-0.06-0.52-0.09-0.79c0.14-0.1,0.29-0.2,0.43-0.3
		c1.1-0.32,2.17,0.05,3.23,0.24c3.11,0.55,3.4-0.83,2.28-3.23c-0.13-0.32-0.17-0.66-0.12-1c0.44-0.91,1.43-1.41,1.75-2.41
		c0.11-0.34,0.23-0.66,0.36-1c0.55-2.38-0.53-4.97,1-7.21c2.72,0.3,0.4,2.75,1.58,3.71c-0.02,1.28-0.03,2.55-0.05,3.83
		c-0.27,1.23-0.72,2.46,0.17,3.63C90.89,85.37,91.7,87.83,91.49,90.47z"/>
	<path class="st7" d="M83.39,110.84c2.61,2.26,2.71-1.67,4.36-1.77c1,2.4,3.13,3.36,5.34,4.26c0.65,0.27,1.52,0.59,1.24,1.56
		c-0.23,0.82-1.02,1.07-1.79,1.02c-3.08-0.22-6.18-0.3-9.21-0.83c-2.3-0.4-1.25-2.21-0.9-3.58
		C82.4,110.76,82.63,110.42,83.39,110.84z"/>
	<path class="st8" d="M66.07,94.57c-2.53-3.77-2.37-5.91,0.67-9.47c2.39-0.08,3.81,2.59,6.3,2.21c0.76,0.07,1.5,0.2,2.13,0.68
		c0.61,0.76,1.27,1.5,0.69,2.58c-1.4,1.2-3.26,0.62-4.81,1.24C69.13,92.23,68.18,94.46,66.07,94.57z"/>
	<path class="st3" d="M66.07,94.57c1.57-1.04,2.36-3.11,4.53-3.34c4.65-0.75,4.65-0.75,4.79,3.48c0.02,0.61-0.04,1.24,0.38,1.76
		c1.19,0.76,0.21,1.51-0.01,2.26C72.48,97.45,68.7,97.35,66.07,94.57z"/>
	<path class="st9" d="M38.44,110.46c1.36,0.87,2.99,4.06,3.72-0.43c2.75,0.77,4.47,3.42,7.32,4.04c0.47,0.1,0.71,0.66,0.57,1.22
		c-0.15,0.61-0.7,0.68-1.17,0.68c-3.1-0.06-6.27,0.22-9.28-0.35C36.08,114.95,38.48,112.28,38.44,110.46z"/>
	<path class="st10" d="M161.39,113.58c1.26,3.11,2.41,0.12,3.62-0.06c2.57,1.43,3.2,4.54,5.49,6.32c1.01,0.79-0.24,1.77-1.3,1.93
		c-1.54,0.23-2.92-0.37-4.2-1.18c-1.38-1.51-3.58-2.06-4.61-3.97C160.39,115.49,160.62,114.44,161.39,113.58z"/>
	<path class="st3" d="M75.01,88.29c-0.72-0.04-1.43-0.07-2.15-0.11c-1.99-0.77-3.97-1.56-4.7-3.87c2.22-2.36,3.79-5.14,5.24-8
		c1.56,1.06,1.56,2.82,1.98,4.39C75.18,83.23,75.83,85.8,75.01,88.29z"/>
	<path class="st10" d="M116.25,115.06c1.92,0.87,2.61-1.67,4.25-1.54c1.49,1.6,2.14,3.87,4.11,5.1c0.82,0.51,1.83,1.1,1.08,2.29
		c-0.58,0.92-1.64,1.1-2.62,0.87c-1.05-0.25-2.05-0.73-3.07-1.1c-0.85-0.98-1.93-1.6-3.09-2.13c-0.64-0.44-1.55-0.61-1.56-1.65
		C115.46,116.18,115.41,115.4,116.25,115.06z"/>
	<path class="st11" d="M79.41,121.17c-0.79,0.2-1.49,0.01-2.11-0.49c-0.84-0.98-1.93-1.6-3.07-2.15c-0.7-0.43-1.34-0.91-1.55-1.77
		c0.15-0.91,0.05-1.91,0.97-2.52c1.51,0.29,2.7-2.04,4.37-0.54c1.56,1.79,1.82,4.62,4.54,5.5c0.57,0.19,0.91,1.01,0.47,1.56
		c-0.95,1.2-2.15,1.57-3.48,0.49c0.03-0.38,0.54-0.51,0.49-0.93C79.82,120.59,79.6,120.87,79.41,121.17z"/>
	<path class="st12" d="M114.61,39.8c-2.57-4.86-0.97-9.02,4.46-11.59c1.52-0.7,2.74,0,3.94,0.81c0.18,0.32,0.21,0.65,0.09,1
		c-0.26,0.46-0.62,0.81-1.04,1.11c-1.02,0.75-2.21,1.29-2.99,2.35c-0.72,1-0.3,2.56-1.62,3.25c-0.44,0.08-0.86-0.07-1.28-0.13
		C115.01,37.36,116.01,39.17,114.61,39.8z"/>
	<path class="st7" d="M29.24,114.48c2.24,3.1,2.33-1.69,3.9-1.06c1.85,2.04,3.16,4.56,5.46,6.2c-0.17,1.57-1.28,2.25-2.55,1.84
		c-2.93-0.95-6.14-1.62-7.71-4.8C28.47,115.87,28.18,114.9,29.24,114.48z"/>
	<path class="st13" d="M39.11,30.52c1.44,2.94,0.82,5.72-0.68,8.42c-1.17,0.44-2.21,1.77-3.61,0.81c-1.29-0.88-0.55-2.17-0.42-3.31
		c1.28-2.05,0.4-4.73,1.95-6.7C37.6,28.77,38.29,29.86,39.11,30.52z"/>
	<path class="st10" d="M170.97,111.33c2.02,1.68,3.49,0.5,4.91-0.94c1.51,2.5,3.99,3.91,6.28,5.52c-3.57,0.61-10.39-0.62-12.03-2.18
		C170.28,112.89,169.98,111.88,170.97,111.33z"/>
	<path class="st14" d="M80.95,60.31c0.51-2.1,1.58-3.71,3.77-4.36c0.08,0.15,0.16,0.3,0.24,0.45c-1.31,2.22-1.32,4.68-1.32,7.15
		c0,1.46,0.72,2.59,1.59,3.67c0.22,0.25,0.39,0.54,0.52,0.85c0.07,0.74-0.29,1.25-0.87,1.65c-1.07-0.13-1.96,1.28-3.14,0.39
		c-1.67-1.28-0.93-3.23-1.37-4.85C80.94,63.64,80.32,61.9,80.95,60.31z"/>
	<path class="st15" d="M159.6,52.16c0.2-1.88,2.77-1.19,3.14-2.89c1.23-1.79,2-0.62,2.81,0.42c0.41,1.11,1.21,2.09,1.15,3.36
		c-0.71,1.36-2.63,1.48-3.15,3.05c-0.31,0.25-0.62,0.5-0.93,0.75C161.61,55.29,160.6,53.73,159.6,52.16z"/>
	<path class="st16" d="M41.99,70.42c-3.45,1.79-7.15,2.2-10.65,0.68c-2.21-0.96-2.1,0.55-2.7,1.56c0.24-4.3-0.9-8.67,0.68-12.9
		c0.28-0.25,0.58-0.26,0.88-0.04c0.17,0.67-0.16,1.31-0.13,1.98c0.03,1.28,0.15,2.56,0.47,3.81c0.4,1.16-0.3,2.16-0.46,3.24
		c4.47,3,7.39,3,11.84,0.03C41.94,69.32,41.96,69.87,41.99,70.42z"/>
	<path class="st17" d="M28.4,40.36c-0.7-0.26-0.76-0.8-0.65-1.43c-0.49-2.1-0.49-4.2,0-6.3c-0.04-0.57,0-1.11,0.57-1.44
		c0.49-0.32,1.02-0.43,1.59-0.22c1.34,1.17,1.26,2.95,1.91,4.42c0.1,0.54-0.02,1.05-0.29,1.52c-0.47,0.73-0.65,1.58-0.99,2.37
		C30.04,40.07,29.51,40.79,28.4,40.36z"/>
	<path class="st9" d="M125.32,111.32c1.17,0.39,2.12,1.7,3.58,0.84c0.78-0.38,0.33-2.57,2.14-1.45c0.32,0.48,0.64,0.96,0.95,1.43
		c0.81,0.92,1.99,1.1,3.06,1.49l-0.05-0.02c0.33,0.61,1.6,0.34,1.42,1.33c-0.14,0.78-0.98,0.68-1.53,0.56
		c-2.2-0.49-4.42-0.21-6.62-0.32c-1.5-0.08-3.06-0.13-3.07-2.25C125.24,112.39,125.28,111.86,125.32,111.32z"/>
	<path class="st18" d="M125.2,112.92c0.63,1.34,1.79,1.5,3.1,1.52c2.21,0.03,4.38,0.12,6.6,0.48c2.13,0.34-0.32-0.85,0.09-1.31
		c1.02,0.04,2.19,0.1,2.18,1.43c-0.01,1.23-1.21,1.05-2.01,1.05c-2.6-0.02-5.22-0.03-7.81-0.24
		C125.73,115.7,123.83,115.42,125.2,112.92z"/>
	<path class="st13" d="M92.3,63.55c0.36,1.6-0.35,2.98-0.88,4.4c-0.61,0.55-1.33,0.81-2.15,0.79c-0.6-0.06-1.14-0.26-1.57-0.69
		c-0.9-2.09,0.49-3.64,1.24-5.35C90.49,61.26,91.58,61.65,92.3,63.55z"/>
	<path class="st19" d="M125.89,34.32c-0.04,2.08,0.85,4.37-1.28,6.01c-0.72,0.52-1.46,0.63-2.25,0.18c-1.37-1.45-0.5-2.98-0.17-4.49
		c0.21-0.55,0.54-1.02,1.02-1.37C124.07,34.2,124.93,33.84,125.89,34.32z"/>
	<path class="st20" d="M122.24,40.28c0.79,0.02,1.59,0.03,2.38,0.05c-0.13,2.53,2.35,2.37,3.59,3.49c-0.04,0.66,0.49,1.18,0.43,1.85
		c-0.06,0.33-0.23,0.59-0.49,0.8c-0.69,0.14-1.27-0.17-1.87-0.43c-0.9-0.42-1.95-0.47-2.78-1.08c-1.02-1.24-2.21-2.42-1.61-4.27
		C121.99,40.55,122.11,40.41,122.24,40.28z"/>
	<path class="st21" d="M170.12,113.73c3.97,0.94,7.92,2.01,12.03,2.18c-0.52,1.54-1.82,0.96-2.79,0.9c-2.55-0.16-5.11-0.44-7.64-0.8
		C170.52,115.84,169.07,115.59,170.12,113.73z"/>
	<path class="st22" d="M28.33,116.66c2.1,1.43,3.95,3.22,6.48,4.04c1.62,0.52,2.86,0.47,3.78-1.08c1.11,1.92-0.5,2.31-1.62,2.27
		c-3.44-0.12-6.41-1.57-8.91-3.91C27.89,117.82,28.23,117.12,28.33,116.66z"/>
	<path class="st23" d="M75.75,106.84c0.25,0.78,0.51,1.56,0.76,2.34c1.25,1.86,1.54,3.43-1.22,4.08c-0.38,0.07-0.73,0.01-1.06-0.18
		c-2.18-1.67,1.19-1.94,0.8-3.16c-0.64-0.59-3-0.58-0.75-2.16C74.77,107.45,75.26,107.15,75.75,106.84z"/>
	<path class="st24" d="M92.3,63.55c-0.8-1.04-1.82-1.18-2.99-0.75c-1.81-2.15-2.07-4.13,0.63-5.79c0.67-0.14,1.24,0.09,1.79,0.44
		c0.74,0.63,0.61,1.49,0.64,2.31c-1.88,1.14,0.9,0.83,0.47,1.51C92.66,62.03,92.48,62.79,92.3,63.55z"/>
	<path class="st25" d="M26.26,79.38c0.26,1.42,0.51,2.84,0.77,4.26c-1.54-0.33-3.77,1.47-4.48-1.45c0.63-0.5,1.17-1.06,1.18-1.95
		C24.12,78.63,24.99,78.42,26.26,79.38z"/>
	<path class="st26" d="M114.61,39.8c0.04-1.35-0.1-2.75,0.17-4.05c0.36-1.73,0.98-0.71,1.45,0.04c0.23,1.47,0.95,2.79,1.4,4.19
		c-0.13,0.83,0.11,1.95-1.35,1.77L116,41.72c0,0-0.29,0.04-0.29,0.04C115.1,41.25,114.57,40.69,114.61,39.8z"/>
	<path class="st27" d="M116.95,61.28c0.51-0.76,1.02-1.52,1.54-2.27c0.11,0.12,0.23,0.23,0.35,0.35c0.22,2.5,1.33,2.49,2.93,1.02
		c0.16,0.04,0.31,0.09,0.47,0.14c0.11,3.16-1.62,4.13-4.48,3.75C117.49,63.27,117.22,62.28,116.95,61.28z"/>
	<path class="st16" d="M125.89,34.32c-0.71,0.24-1.43,0.48-2.14,0.73c-1.89-1.51-1.98-3.28-0.76-5.25l0.03,0.01
		c0.86-0.5,1.15,0.5,1.75,0.67C125.48,31.66,126.07,32.88,125.89,34.32z"/>
	<path class="st23" d="M160.44,9.8c1.78-0.61,3-4.02,5.48-1.08c0.49,1.06,0.1,1.85-0.76,2.5c-1.53,0.43-2.98,0.07-4.41-0.48
		C160.39,10.52,160.29,10.21,160.44,9.8z"/>
	<path class="st28" d="M152.86,10.28c1.07-0.42,2.13-0.85,3.24-0.09c-0.32,1.52,0.24,3.06-0.14,4.58c-1.36-0.05-3.01,0.68-3.65-1.34
		C153.44,12.55,152.23,11.25,152.86,10.28z"/>
	<path class="st29" d="M164.99,11.03c0.31-0.77,0.62-1.54,0.94-2.31c1.22,0.2,2.5,0.13,3.58,0.87c0.39,1.02-0.01,1.74-0.85,2.31
		c-1.38-1.11-2.05,0.32-2.99,0.83c-0.12-0.1-0.24-0.21-0.37-0.31C165.03,11.99,164.92,11.53,164.99,11.03z"/>
	<path class="st30" d="M25.47,56.02c1.82,4.46,0.45,9.11,0.79,13.66C24.87,65.2,26.08,60.56,25.47,56.02z"/>
	<path class="st27" d="M35.27,36.47c-1.76,4.42,1.85,1.97,3.16,2.47c-0.06,0.56-0.14,1.12-0.76,1.38c-1.04,0.59-1.43,1.86-2.53,2.39
		c-1.36-0.28-1.53-1.49-1.96-2.5c-0.12-0.39-0.19-0.78-0.21-1.19C33.17,37.66,32.9,35.87,35.27,36.47z"/>
	<path class="st30" d="M124.32,89.74c1.93,2.79,0.52,5.93,0.87,8.88c0.19,1.57-0.01,3.19-0.03,4.79
		C123.56,98.94,125,94.28,124.32,89.74z"/>
	<path class="st31" d="M41.27,49.2c-0.73-0.98-1.46-1.96-2.19-2.93c-0.88-1.04-1.73-2.08-0.75-3.51
		C41.92,43.71,40.98,46.73,41.27,49.2z"/>
	<path class="st32" d="M39.11,30.52c-1.04,0.66-1.3-1.18-2.28-0.7c-1.61-0.14-3.13-0.69-4.71-0.98c-0.3-0.15-0.53-0.37-0.68-0.67
		C35.68,26.63,37.46,27.17,39.11,30.52z"/>
	<path class="st31" d="M35.3,42.53c-0.16-1.76,0.68-2.44,2.37-2.21c-0.03,0.72-0.06,1.45-0.09,2.17c0.28,0.33,0.33,0.69,0.17,1.09
		c-0.19,1.03-0.05,2.81-1.38,2.52C34.77,45.74,34.44,44.1,35.3,42.53z"/>
	<path class="st33" d="M42.99,79.46c0.43-0.58,0.86-1.15,1.29-1.73c0.55-1.17,1.46-1.55,2.69-1.19c1.1,0.6,0.76,1.79,1.09,2.7
		C46.44,80.94,44.67,79.22,42.99,79.46z"/>
	<path class="st34" d="M138.56,43.77c-0.74-0.36-1.48-0.72-2.22-1.09c1.1-1.19,2.51-1.12,3.52-0.23c1.11,0.97,0.52,2.44,0.18,3.71
		c-0.84,0.27-1.37-0.12-1.73-0.84C138.15,44.77,138.32,44.26,138.56,43.77z"/>
	<path class="st35" d="M74.97,112.9c2-0.63,1.91-2.12,1.54-3.72c0.75-0.33,1.58,2.63,2.28-0.05c0.98-0.39,1.7,0.04,2.35,0.72
		c0.1,0.37-0.01,0.67-0.31,0.89c-1.19,0.42-2.62,0.53-2.87,2.19C76.96,113.44,75.96,113.6,74.97,112.9z"/>
	<path class="st16" d="M79.5,70.98c-3.18-0.08-3.5,2.2-3.77,4.54c-0.82,0.27-1.25-0.13-1.48-0.87c0.59-2.18,1.52-4.12,3.72-5.14
		C78.81,69.67,79.81,69.65,79.5,70.98z"/>
	<path class="st36" d="M32.38,111.44c-1.4-3.97-1.19-7.96-0.14-11.95C32.29,103.47,32.33,107.46,32.38,111.44z"/>
	<path class="st6" d="M68.16,84.31c1.57,1.29,3.13,2.58,4.7,3.87c-2.72,0.32-4.25-1.71-6.11-3.09
		C66.96,84.37,67.6,84.42,68.16,84.31z"/>
	<path class="st37" d="M168.66,11.9c0.28-0.77,0.56-1.54,0.85-2.31c0.21-0.05,0.42-0.08,0.63-0.09c0.71,0.08,1.42,0.06,2.12,0.17
		c1.43,0.34,1.31,1.46,1.27,2.53c-0.09,0.33-0.31,0.54-0.64,0.63c-0.68-0.02-1.39-0.6-2.05,0.08c-0.29,0.12-0.59,0.18-0.9,0.19
		c-0.46-0.11-0.92-0.22-1.21-0.65C168.7,12.27,168.68,12.08,168.66,11.9z"/>
	<path class="st38" d="M155.96,14.77c-0.76-1.55-1.44-3.1,0.14-4.58c0.4,0.3,0.8,0.6,1.2,0.89c-0.98,1.26-0.05,2.44,0.17,3.64
		C156.96,14.74,156.46,14.76,155.96,14.77z"/>
	<path class="st3" d="M80.98,65.83c-0.23,1.75,0.53,3.14,1.61,4.41c0.18,0.31,0.17,0.62-0.04,0.91c-0.32,0.15-0.63,0.16-0.96,0.02
		c-0.8-0.7-2.31-0.79-2.08-2.39c1.61-1.35-0.63-3.21,0.61-4.6C80.87,64.48,80.49,65.38,80.98,65.83z"/>
	<path class="st39" d="M160.38,116.61c1.83,0.98,3.63,2,4.61,3.97C163.24,119.5,160.21,119.9,160.38,116.61z"/>
	<path class="st23" d="M93.86,98.73c0.66-0.09,1.31-0.18,1.97-0.27c1.93,0.76,2.01,2.28,1.64,3.99c-1.09,0.61-2.03,0.63-2.65-0.66
		C94.98,100.62,93.28,100.03,93.86,98.73z"/>
	<path class="st40" d="M74.25,74.66c0.49,0.29,0.99,0.58,1.48,0.87c0.01,0.48,0.02,0.96,0.03,1.43c-0.85,0.86,0.08,2.17-0.77,3.03
		c-1.17-0.95-1.53-2.25-1.6-3.68C73.68,75.76,73.97,75.21,74.25,74.66z"/>
	<path class="st27" d="M127.48,57.52c0.22,0,0.45-0.01,0.67-0.02c0.05,2.72,0.11,5.43,0.16,8.15
		C126.48,63.1,127.95,60.21,127.48,57.52z"/>
	<path class="st36" d="M175.37,62.73c-1.44-2.99-0.38-6.15-0.6-9.22C176.23,56.5,175.23,59.65,175.37,62.73z"/>
	<path class="st27" d="M74.97,112.9c1,0.01,1.99,0.02,2.99,0.04c0.02,0.25,0.03,0.5,0.05,0.75c-0.8,0.09-1.63-0.01-2.12,0.95
		c-1.13,2.26-1.61,0.39-2.25-0.4c0.2-0.38,0.39-0.77,0.59-1.15C74.48,113.03,74.73,112.96,74.97,112.9z"/>
	<path class="st14" d="M91.73,57.45c-0.58,0.02-1.15,0.04-1.73,0.06c-1.67-0.71-3.7-0.07-5.19-1.42c0,0-0.1-0.15-0.1-0.15
		C87.43,54.71,89.88,54.66,91.73,57.45z"/>
	<path class="st41" d="M41.22,64.98c-1.43-2.66-0.36-5.51-0.62-8.26C41.98,59.38,41.05,62.22,41.22,64.98z"/>
	<path class="st19" d="M160.44,9.8c0.02,0.17,0.01,0.33-0.02,0.5c0.29,0.8,1.94,0.06,1.7,1.48c-0.37,0.64-1.14,0.88-1.54,1.49
		c-0.16,0.24-0.35,0.45-0.56,0.66c-0.13,0.07-0.26,0.13-0.38,0.2c-1.34-0.95-0.05-2.9-1.46-3.83C158.82,9.58,159.6,9.55,160.44,9.8z
		"/>
	<path class="st16" d="M41.48,108.43c-1.73-2.34-0.78-4.94-0.69-7.45c0-0.03,0.2-0.09,0.29-0.08c0.11,0.02,0.21,0.11,0.32,0.17
		C41.43,103.52,41.45,105.98,41.48,108.43z"/>
	<path class="st13" d="M92.84,61.28c-0.6-0.1-1.27-0.08-1.78-0.34c-0.82-0.43-1.46-1.35-0.69-2.08c0.99-0.94,1.19,0.86,2,0.91
		C92.89,60.16,92.94,60.7,92.84,61.28z"/>
	<path class="st42" d="M79.51,68.77c0.75,0.74,1.5,1.48,2.26,2.22c0.19,0.17,0.26,0.34,0.19,0.51c-0.06,0.17-0.13,0.26-0.19,0.26
		c-0.75-0.26-1.51-0.51-2.26-0.77c-0.51-0.49-1.02-0.98-1.52-1.47C78.32,68.93,78.89,68.79,79.51,68.77z"/>
	<path class="st43" d="M95.25,100.96c0.01,1.58,1.12,1.52,2.21,1.49c-1.47,1.53-2.96,0.92-4.45,0.05c-0.48-0.55-0.45-1.12-0.07-1.71
		C93.75,100.35,94.53,100.27,95.25,100.96z"/>
	<path class="st27" d="M41.84,91.14c-0.99-2.17-0.52-4.41-0.34-6.64c0-0.05,0.19-0.12,0.29-0.11c0.11,0.01,0.21,0.1,0.32,0.16
		C42.02,86.75,41.93,88.94,41.84,91.14z"/>
	<path class="st44" d="M48.06,79.25c-1.98-0.04-0.59-1.53-0.96-2.26c-0.17-0.3-0.23-0.63-0.19-0.97c0.22-0.5,0.5-0.88,1.13-0.52
		C48.59,76.74,49.17,77.99,48.06,79.25z"/>
	<path class="st16" d="M164.91,111.44c-1.43-2.38-0.39-4.99-0.69-7.47c0.2-0.34,0.41-0.36,0.64-0.02
		C164.87,106.45,164.89,108.95,164.91,111.44z"/>
	<path class="st45" d="M124.77,30.48c-0.59-0.22-1.17-0.45-1.76-0.67c-1.01-1.29-2.47-1.45-3.94-1.6
		C121.7,27.14,123.64,27.8,124.77,30.48z"/>
	<path class="st46" d="M93.11,100.97c-0.03,0.51-0.07,1.02-0.1,1.52c-0.73,0.06-1.46,0.12-2.19,0.17c-0.39-1.8,0.16-2.78,2.17-2.49
		c0.19,0.15,0.27,0.32,0.24,0.5C93.21,100.88,93.17,100.97,93.11,100.97z"/>
	<path class="st47" d="M87.77,68.01c0.48,0.04,0.97,0.07,1.45,0.11c1.14,0.24,1,1.39,1.49,2.09c0.05,0.63-0.11,1.18-0.66,1.56
		c-0.6-0.23-1.09-0.64-1.62-0.97c-0.37-0.31-0.68-0.67-0.92-1.08c-0.13-0.29-0.19-0.6-0.2-0.92c0.04-0.15,0.09-0.3,0.13-0.45
		C87.55,68.24,87.66,68.12,87.77,68.01z"/>
	<path class="st41" d="M173.26,31.48c-0.01-2.34-0.03-4.69-0.04-7.03C174.43,26.78,174.46,29.12,173.26,31.48z"/>
	<path class="st48" d="M114.02,53.03c1.29,1.5,2.18,3.12,1.6,5.19C114.61,56.64,113.92,54.96,114.02,53.03z"/>
	<path class="st49" d="M48.04,75.49c-0.28,0.28-0.56,0.57-0.84,0.85c-1.14,0.11-2.59,1.19-3.02-0.95
		C45.49,74.69,46.8,73.72,48.04,75.49z"/>
	<path class="st50" d="M135.6,50.72c-1.17-2.01-0.55-4.13-0.36-6.22c0.49,0.12,0.95,0.29,1.27,0.7c0.15,0.31,0.16,0.62,0,0.94
		C135.16,47.45,136.06,49.22,135.6,50.72z"/>
	<path class="st51" d="M128.16,45.4c-0.2-0.53-0.72-1.08,0.04-1.59c0.75,0.07,1.49,0.14,2.24,0.21c0.26-0.37,0.52-0.35,0.76,0.01
		c0.05,0.51,0.1,1.03,0.15,1.54C130.25,46.46,129.18,46.33,128.16,45.4z"/>
	<path class="st20" d="M128.82,91.91c-0.82-2.26-1.22-4.51,0.27-6.68C128.99,87.46,128.91,89.69,128.82,91.91z"/>
	<path class="st52" d="M136.51,46.14c0.01-0.13,0.01-0.27-0.02-0.4c0.63-0.88,1.36-0.79,2.14-0.23c0.47,0.22,0.94,0.44,1.41,0.66
		C138.85,47.91,137.68,47,136.51,46.14z"/>
	<path class="st53" d="M131.21,44.03c-0.25,0-0.51-0.01-0.76-0.01c0-0.48,0-0.96,0-1.44c-0.34-0.61-1.79-0.34-1.4-1.33
		c0.4-1.02,1.41-0.63,2.22-0.26c0.31,0.28,0.62,0.56,0.93,0.84C131.86,42.57,131.54,43.3,131.21,44.03z"/>
	<path class="st20" d="M173.94,99.46c0.38-2.23-0.9-4.69,0.91-6.73c-0.08,2.24-0.16,4.48-0.24,6.72
		C174.39,99.8,174.17,99.8,173.94,99.46z"/>
	<path class="st54" d="M28.4,40.36c0.77-0.3,1.35-0.8,1.66-1.57c1.05-0.25,1.1,0.5,1.21,1.2c-0.19,1.19-0.32,2.39-0.69,3.55
		c-0.17,0.32-0.42,0.55-0.75,0.69c-0.91-0.26-1.05-0.8-0.57-1.56C29.46,41.72,28.91,41.05,28.4,40.36z"/>
	<path class="st55" d="M24.82,80.72c0.12,1.84-1.25,1.39-2.27,1.47c0.21-0.73-0.88-1.52,0.09-2.22
		C23.57,79.63,24.13,80.37,24.82,80.72z"/>
	<path class="st54" d="M30.06,31.29c-0.58-0.03-1.15-0.06-1.73-0.09c0.61-1.45,1.49-2.62,3.11-3.03c0,0,0.19,0.19,0.19,0.19
		C31.88,29.75,31.09,30.58,30.06,31.29z"/>
	<path class="st56" d="M24.82,80.72c-0.73-0.25-1.45-0.5-2.18-0.75c0.63-2.02,2.37-1.23,3.71-1.45c-0.03,0.29-0.06,0.57-0.08,0.86
		C25.31,79.32,24.22,79.12,24.82,80.72z"/>
	<path class="st27" d="M123.73,82.23c-0.02,0.84-0.04,1.68-0.07,2.53c-0.45,0.5-0.9,0.99-1.35,1.49c-0.02-1.34-0.05-2.67-0.07-4.01
		C122.74,81.79,123.23,81.79,123.73,82.23z"/>
	<path class="st24" d="M88.57,70.32c0.5,0.48,0.99,0.97,1.49,1.45c-0.04,1.23-0.08,2.46-0.12,3.69c-1.29-0.93-0.1-2.73-1.3-3.69
		C88.13,71.31,88.14,70.82,88.57,70.32z"/>
	<path class="st43" d="M131.26,40.99c-1.2,0.05-2,0.31-0.82,1.58c-0.9-0.16-2.48,0.09-2.12-1.25
		C128.77,39.64,130.16,40.27,131.26,40.99z"/>
	<path class="st27" d="M119.16,109.17c-1.36-1.86-0.37-3.99-0.67-5.96c0.21-0.33,0.43-0.34,0.66-0.01
		C119.15,105.19,119.16,107.18,119.16,109.17z"/>
	<path class="st27" d="M175.23,91.89c-0.8-1.99-1.01-3.96,0.16-5.89C175.62,87.97,175.66,89.94,175.23,91.89z"/>
	<path class="st30" d="M30.06,87.48c-0.43,1.97,0.98,4.24-0.99,5.95c0.36-1.96,0.29-3.92,0-5.87C29.4,87.53,29.73,87.51,30.06,87.48
		z"/>
	<path class="st57" d="M152.86,10.28c-0.62,0.97,4.07,2.89-0.56,3.15C152.39,12.36,151.65,11.15,152.86,10.28z"/>
	<path class="st20" d="M174.08,109.19c-1.44-1.93-1.17-3.92-0.19-5.93c0.24,0.15,0.33,0.32,0.28,0.5c-0.05,0.19-0.12,0.29-0.19,0.29
		C174.01,105.76,174.05,107.47,174.08,109.19z"/>
	<path class="st54" d="M27.75,32.64c0,2.1,0,4.2,0,6.3C26.31,36.84,26.75,34.74,27.75,32.64z"/>
	<path class="st58" d="M74.27,118.19c1.5,0.23,2.46,1.12,3.02,2.49c-1.43-0.2-2.62-0.95-3.77-1.75
		C73.35,118.25,73.56,117.96,74.27,118.19z"/>
	<path class="st39" d="M116.98,118.19c1.5,0.23,2.46,1.11,3.02,2.47c-1.43-0.2-2.61-0.95-3.76-1.75
		C116.08,118.26,116.2,117.89,116.98,118.19z"/>
	<path class="st59" d="M80.84,110.75c0.04-0.25,0.08-0.5,0.13-0.75c0.28-1.04,0.83-1.76,2.02-1.72c1.05,0.7,0.94,1.58,0.4,2.53
		c0,0,0.01,0.02,0.01,0.02c-0.32,0.22-0.64,0.44-0.95,0.66C81.9,111.25,81.37,111,80.84,110.75z"/>
	<path class="st27" d="M41.39,95.58c-0.18,0.32-0.62,1.07-0.65,0.73c-0.13-1.45-0.9-3.15,0.76-4.32
		C41.46,93.19,41.42,94.38,41.39,95.58z"/>
	<path class="st54" d="M80.98,65.83c-0.29-0.55-0.58-1.11-0.86-1.66c0.09-1.33-0.14-2.72,0.83-3.86
		C80.96,62.15,80.97,63.99,80.98,65.83z"/>
	<path class="st41" d="M128.33,106.05c-0.2,0.3-0.49,1.21-0.64,0.72c-0.32-1.1-0.04-2.38,0.01-3.58c0-0.03,0.22-0.09,0.32-0.07
		c0.11,0.03,0.21,0.13,0.31,0.2C128.33,104.23,128.33,105.14,128.33,106.05z"/>
	<path class="st30" d="M44.18,75.39c0.71,1.25,2.01,0.63,3.02,0.95c0.05,0.23,0.01,0.45-0.11,0.65c-1.04-0.13-1.93,0.29-2.81,0.74
		c-0.27-0.33-0.54-0.66-0.81-0.99c0.03-0.45,0.07-0.89,0.1-1.34C43.77,75.37,43.98,75.36,44.18,75.39z"/>
	<path class="st60" d="M171.84,10.2c-0.7,0.1-1.31-0.04-1.7-0.7c1.24-0.99,2.45-0.98,3.63,0.12
		C173.25,10.27,172.37,9.65,171.84,10.2z"/>
	<path class="st61" d="M171.84,10.2c0.48-0.74,1.26-0.45,1.92-0.57c0.03,1.22,0.06,2.44,0.09,3.66c-0.73,0.18-0.93-0.12-0.72-0.8
		C173.31,11.37,173.23,10.42,171.84,10.2z"/>
	<path class="st62" d="M168.71,12.45c0.46,0.04,0.92,0.09,1.38,0.13c0.48,0.81,2.18-0.54,2.14,1.2c-0.75,0.19-1.73-0.04-2.02,1.04
		C169.34,14.27,169.1,13.32,168.71,12.45z"/>
	<path class="st63" d="M170.24,43.91c-0.03,0.31-0.07,0.61-0.1,0.92c-2.02-0.06-2.46-1.33-2.35-3.04c0.3-0.35,0.61-0.36,0.92-0.02
		c0.48,0.26,0.95,0.51,1.43,0.77C170.17,43,170.21,43.45,170.24,43.91z"/>
	<path class="st64" d="M29.26,42.67c0.25,0.47,0.51,0.93,0.76,1.4c0.41,0.51,0.42,0.99-0.08,1.44c-0.74-0.53-1.49-1.06-2.23-1.6
		C28.22,43.49,28.74,43.08,29.26,42.67z"/>
	<path class="st65" d="M172.23,13.78c-0.71-0.4-1.43-0.8-2.14-1.2c0.31-0.05,0.62-0.11,0.93-0.16c0.45-0.33,0.89-0.3,1.33,0.03
		c0.26,0.01,0.52,0.02,0.78,0.03c0.24,0.27,0.48,0.53,0.72,0.8C173.57,14.29,172.9,14.01,172.23,13.78z"/>
	<path class="st16" d="M90.07,82.91c-1.53-1.14-0.88-2.38-0.17-3.63C89.95,80.49,90.01,81.7,90.07,82.91z"/>
	<path class="st66" d="M74.28,107.76c-1.02,1.16,0.55,1.42,0.75,2.16c-0.8-0.23-2.09,0.39-2.19-1.06
		C72.78,108.03,73.47,107.71,74.28,107.76z"/>
	<path class="st2" d="M35.43,85.49c0.02-0.66-0.44-1.89,0.4-1.82c1.3,0.11,0.89,1.48,0.91,2.43C36.3,85.9,35.87,85.69,35.43,85.49z"
		/>
	<path class="st67" d="M37.47,43.32c0.04-0.28,0.07-0.56,0.11-0.84c0.25,0.09,0.5,0.18,0.75,0.26c0.25,1.17,0.5,2.34,0.75,3.51
		c-0.22,0.01-0.45,0.02-0.67,0.03C37.4,45.52,36.98,44.57,37.47,43.32z"/>
	<path class="st20" d="M119.15,103.2c-0.22,0-0.44,0.01-0.66,0.01c0.29-1.5-0.74-3.26,0.9-4.48
		C119.31,100.22,119.23,101.71,119.15,103.2z"/>
	<path class="st35" d="M157.64,32.08c1.01,1.19,0.43,2.48,0.02,3.79c-0.12-0.57-0.24-1.13-0.35-1.7
		C157.42,33.47,157.53,32.78,157.64,32.08z"/>
	<path class="st39" d="M74.27,118.19c-0.25,0.25-0.5,0.49-0.75,0.74c-1.05-0.43-1.91-0.92-0.85-2.17
		C73.21,117.23,73.74,117.71,74.27,118.19z"/>
	<path class="st36" d="M133.54,59.99c-0.18-1.55,0.18-2.91,1.4-3.97C135.02,57.53,134.51,58.84,133.54,59.99z"/>
	<path class="st19" d="M158.81,15.59c1.43,1.4,1.15,2.9,0.26,4.43C158.98,18.55,158.89,17.07,158.81,15.59z"/>
	<path class="st27" d="M173.98,104.05c-0.03-0.26-0.06-0.53-0.09-0.79c0.02-1.26,0.04-2.53,0.06-3.79c0.22,0,0.45,0,0.67-0.01
		C174.69,101.03,175.02,102.63,173.98,104.05z"/>
	<path class="st36" d="M120.81,93.72c0.08-1.35-0.58-2.82,0.65-3.99c0.22,0.17,0.31,0.35,0.25,0.55c-0.05,0.2-0.11,0.3-0.18,0.3
		C121.52,91.68,121.74,92.83,120.81,93.72z"/>
	<path class="st68" d="M90.72,70.21c-0.5-0.7-1-1.39-1.49-2.09c0.73-0.06,1.46-0.11,2.19-0.17C91.18,68.7,90.95,69.45,90.72,70.21z"
		/>
	<path class="st30" d="M37.4,91.24c1.35,1.21,1.25,2.45,0.09,3.72C37.47,93.72,37.43,92.48,37.4,91.24z"/>
	<path class="st41" d="M129.59,83.68c-0.85-1.3-1.12-2.56,0.3-3.68C129.79,81.23,129.69,82.46,129.59,83.68z"/>
	<path class="st39" d="M116.98,118.19c-0.25,0.24-0.49,0.48-0.74,0.72c-0.96-0.39-1.8-0.83-0.89-2.03
		C115.9,117.32,116.44,117.76,116.98,118.19z"/>
	<path class="st27" d="M164.85,103.95c-0.21,0-0.42,0.01-0.64,0.02c0.45-0.92-1.09-2.4,0.81-2.92
		C164.97,102.02,164.91,102.99,164.85,103.95z"/>
	<path class="st36" d="M121.52,90.58c-0.02-0.28-0.05-0.57-0.07-0.85c0.14-1.05-0.32-2.26,0.83-3.04
		C122.23,88.03,122.52,89.43,121.52,90.58z"/>
	<path class="st18" d="M135.05,113.63c-1.37,0.22-2.49-0.07-3.06-1.49C133.26,112.12,134.13,112.92,135.05,113.63z"/>
	<path class="st18" d="M131.03,110.71c-1.09-0.07-1.27,1.19-2.14,1.45c0.08-0.71,0.16-1.42,0.24-2.13
		C129.83,110.07,130.66,109.76,131.03,110.71z"/>
	<path class="st69" d="M166.41,53.02c-0.31-1.09-1.57-1.72-1.47-3.01c1.85-1.11,1.6,0.9,2.29,1.53c0.27,0.51,0.53,1.02,0.8,1.53
		c-0.11,0.96,0.2,2.39-1.61,1.42C165.98,54,166.03,53.51,166.41,53.02z"/>
	<path class="st22" d="M166.41,53.02c0,0.49,0.01,0.98,0.01,1.47c-0.96,0.54-1.92,1.08-2.88,1.62
		C162.68,53.4,165.55,54.14,166.41,53.02z"/>
	<path class="st24" d="M167.21,79.15c2.49-0.23,4.97-0.47,7.46-0.7c-1.8,1.2-5.4,0.6-4.5,4.5
		C169.48,81.45,168.85,79.91,167.21,79.15z"/>
	<path class="st31" d="M123.73,82.23c-0.5,0-0.99,0-1.49,0c0.59-3.21-2.97-1.5-3.72-3.12c2.79,0.49,5.42-0.93,8.19-0.68
		C125.39,79.44,123,79.61,123.73,82.23z"/>
	<path class="st15" d="M79.59,77.75c2.19-0.84,1.88-2.85,2.15-4.59c1.62-0.08,1.61,1.38,2.18,2.3c0.16,0.36,0.28,0.74,0.37,1.13
		c0.77,2.39,1.05,4.78-0.02,7.16c-0.69,0.64-1.51,0.71-2.38,0.59c-1.05-0.27-2.1-0.53-2.67-1.59
		C79.31,81.08,78.72,79.36,79.59,77.75z"/>
	<path class="st70" d="M86.27,101.03c-0.53,1.73-1.05,3.47-1.58,5.2c-0.62,0.56-1.35,0.8-2.18,0.71c-0.61-0.11-1.13-0.34-1.42-0.93
		c1.23-1.92,2.46-3.84,3.69-5.75C85.64,99.83,86.01,100.33,86.27,101.03z"/>
	<path class="st71" d="M84.73,94.87c0.7,0.06,1.39,0.12,2.09,0.17c2.13,1.05,1.86,2.48,0.64,4.07c-0.87,0.59-1.72,1.33-2.67,0.13
		c-0.03-0.43-0.05-0.85-0.08-1.28c-0.36-0.77-1.13-1.31-1.36-2.1C82.96,94.49,83.76,94.49,84.73,94.87z"/>
	<path class="st16" d="M79.5,87.5c-1.22,3.24-0.28,5.51,3.01,6.73c0.46,0.5,0.43,0.99,0,1.49c-1.25-0.5-2.49-1-3.74-1.5
		c-0.25,0.36-0.49,0.36-0.75,0C78.68,92.02,76.55,89.2,79.5,87.5z"/>
	<path class="st29" d="M75,79.99c0.16-1.03-0.24-2.21,0.77-3.03c0.25,4.23-0.55,8.51,0.66,12.71c0.13,0.45-0.38,1.08-0.59,1.63
		c-0.24-0.17-0.33-0.35-0.28-0.55c0.06-0.2,0.12-0.31,0.19-0.31c-0.25-0.71-0.5-1.43-0.75-2.14C75,85.52,75,82.76,75,79.99z"/>
	<path class="st24" d="M75.76,90.43c0.03,0.29,0.05,0.57,0.08,0.86c-0.02,1.72-0.05,3.45-0.07,5.17c-0.23-0.41-0.71-0.87-0.66-1.23
		c0.59-3.74-1.47-4.41-4.52-4.01C72.12,89.7,74.07,90.92,75.76,90.43z"/>
	<path class="st1" d="M78.77,99.46c1.55,0.22,1.73,1.2,1.2,2.39c-0.16,0.36-0.87,0.84-1.14,0.74c-1.65-0.62-0.48-2.08-0.81-3.12
		C78.27,99.1,78.52,99.1,78.77,99.46z"/>
	<path class="st72" d="M82.53,108.45c-0.52,0.52-1.04,1.03-1.57,1.55c-0.72-0.29-1.44-0.58-2.17-0.87
		c-0.01-0.58,0.09-1.11,0.69-1.39c0.86-0.79,1.8-0.9,2.84-0.37C82.69,107.68,82.76,108.04,82.53,108.45z"/>
	<path class="st45" d="M79.59,77.75c-0.01,1.73-0.03,3.46-0.04,5.19c0.69,0.82,0.92,1.75,0.62,2.79c-0.17,0.36-0.38,0.7-0.64,1.01
		c0,0-0.08-0.06-0.08-0.06C78.46,83.68,78.2,80.7,79.59,77.75z"/>
	<path class="st1" d="M82.51,95.72c0-0.5,0-1,0-1.49c0.8,0.02,1.65-0.15,2.22,0.64c-2.55,1.01,0.94,2.06-0.02,3.09
		C83.73,97.44,82.99,96.71,82.51,95.72z"/>
	<path class="st20" d="M83.27,75.5c-0.51-0.78-1.02-1.56-1.53-2.34c0.01-0.47,0.02-0.94,0.03-1.4c0-0.25,0-0.51,0-0.76
		c0.23,0,0.46,0,0.69,0c0.65,0.12,1.09,0.5,1.36,1.09C84.19,73.31,84.28,74.49,83.27,75.5z"/>
	<path class="st73" d="M82.39,107.85c-0.97-0.03-1.94-0.07-2.91-0.1c0.07-1.01,0.67-1.53,1.61-1.74c0.47,0.07,0.95,0.15,1.42,0.22
		C82.97,106.81,82.91,107.34,82.39,107.85z"/>
	<path class="st29" d="M78.77,99.46l-0.37,0.01c0,0-0.37,0-0.37,0c0-1.74,0-3.49,0-5.23c0.25,0,0.5,0,0.75,0
		C78.77,95.96,78.77,97.71,78.77,99.46z"/>
	<path class="st74" d="M84.79,99.23c0.75-0.12,1.51-0.23,2.26-0.35c0.47,0.72,0.53,1.41-0.15,2.05c-0.22-0.02-0.43,0.01-0.63,0.09
		c-0.49-0.26-0.99-0.52-1.48-0.78C84.79,99.92,84.79,99.57,84.79,99.23z"/>
	<path class="st75" d="M32.42,85.08c-0.32-0.42-0.64-0.85-0.96-1.27c-0.04-0.7-0.06-1.4,0.16-2.08c0.31-0.96,0.9-1.55,1.98-1.51
		c0.37,0.08,0.67,0.27,0.92,0.55C34.74,82.66,35.34,84.72,32.42,85.08z"/>
	<path class="st12" d="M34.51,80.77c-0.22-0.03-0.45-0.05-0.67-0.08c-1.11-0.85-2.62,0.61-3.66-0.64c-0.05-0.51-0.11-1.02-0.16-1.52
		c1.96,0.73,4.03,0.55,6.06,0.74C35.55,79.76,35.03,80.27,34.51,80.77z"/>
	<path class="st76" d="M82.39,107.85c0.04-0.54,0.08-1.08,0.12-1.62c0.73,0,1.45,0,2.18,0c0.24,1.72,1.97,3.87-1.31,4.59
		c-0.18-0.83,0.04-1.8-0.85-2.37C82.47,108.25,82.43,108.05,82.39,107.85z"/>
	<path class="st1" d="M86.9,100.94c0.05-0.68,0.1-1.37,0.15-2.05c1.23-1.36,0.85-2.63-0.23-3.85C89.94,96.3,89.95,97,86.9,100.94z"
		/>
	<path class="st77" d="M93.11,100.97c-0.04-0.26-0.08-0.53-0.12-0.79c0.04-0.63,0.1-1.25,0.86-1.46c-0.25,1.19,3.08,0.14,1.39,2.23
		C94.54,100.96,93.82,100.97,93.11,100.97z"/>
	<path class="st17" d="M29.93,45.5c0.03-0.48,0.06-0.96,0.08-1.44c0,0,0.08-0.07,0.08-0.07c0.45-0.42,0.96-0.42,1.49-0.18
		c0.27,0.26,0.47,0.57,0.61,0.92c0.18,0.55,0.26,1.12,0.3,1.7c-0.1,2.18,0.1,4.39-0.72,6.5c-0.5,0.5-1.08,0.54-1.7,0.29
		c-0.46-0.56-0.49-1.13-0.03-1.71C30.02,49.51,29.97,47.51,29.93,45.5z"/>
	<path class="st45" d="M30.06,51.51c0,0.5,0,1,0.01,1.5c1.89,1.36,0.83,3.01,0.47,4.6c-0.23,0.69,0.09,1.51-0.49,2.13
		c-0.24,0-0.49,0.01-0.73,0.01C29.67,57.02,28.48,54.14,30.06,51.51z"/>
	<path class="st78" d="M30.17,80.05c1.25,0.03,2.6-0.49,3.66,0.64c-0.96,0.06-1.49,0.55-1.55,1.52c-0.74,0.62-1.49,0.68-2.24,0
		C30.09,81.49,30.13,80.77,30.17,80.05z"/>
	<path class="st12" d="M30.05,82.21c0.75,0,1.49,0,2.24,0c0,0.68-0.14,1.28-0.83,1.6c-0.67-0.17-1.47,0.69-1.98-0.1
		C29.14,83.18,29.42,82.55,30.05,82.21z"/>
	<path class="st1" d="M30.05,59.74c0.01-0.73,0.02-1.46,0.03-2.19c0.13-0.1,0.26-0.2,0.39-0.3c0.11,0.12,0.22,0.24,0.33,0.36
		c0.03,2.06,0.03,4.08,0.61,6.12c0.51,1.77,0.25,3.64-1.33,5c-0.81-0.97,0.34-1.93,0-2.9c-0.95-1.39,0.17-3.12-0.74-4.52
		C29.58,60.79,29.81,60.27,30.05,59.74z"/>
	<path class="st22" d="M32.18,55.97c1.51,0.3,3.19-0.5,4.57,0.67c-1.89,0.87-3.91,1.02-5.95,0.98c0,0,0.02-0.12,0.02-0.12
		c-0.45-0.72,0.04-1.15,0.48-1.6C31.6,55.75,31.89,55.78,32.18,55.97z"/>
	<path class="st79" d="M165.67,12.72c3.07,3.43,3.24,7.83,3.72,12.02c0.24,2.08,1.95,4.55-0.62,6.44c-0.67-0.25-1.08-0.8-1.53-1.3
		c-1.27-1.89-3.88-0.81-5.3-2.37c-0.26-3.98-0.52-7.96-0.78-11.95c-0.29-0.92,0.44-1.15,1.01-1.48c1.26-0.23,1.93-1.83,3.43-1.49
		L165.67,12.72z"/>
	<path class="st12" d="M161.93,27.51c2.29,0.05,4.95-0.87,6.08,2.28c-0.42,0.4-1.34-0.49-1.5,0.59c-0.67,0.92-0.62,1.76,0.26,2.51
		c0.36,0.36,0.63,0.77,0.62,1.31c-0.14,0.31-0.33,0.58-0.57,0.83c-1.3,1.04-1.65,2.44-1.51,4.03c-1.73,3.46-1.89,3.51-4.14,1.24
		C159.75,35.93,160.37,31.7,161.93,27.51z"/>
	<path class="st77" d="M161.17,40.29c2.23,1.99,2.84-0.15,3.76-1.48c0.29-0.21,0.6-0.22,0.91-0.04c0.63,1.99-1.33,4.06,0.19,6.03
		c0.2,0.45,0.34,0.91,0.33,1.41c0.29,1.78,0.58,3.55,0.87,5.33c-0.8-0.45-1.11-1.64-2.29-1.53c-0.45-1.08-1.13-1.49-2.2-0.74
		C163.28,46.09,161.47,43.32,161.17,40.29z"/>
	<path class="st19" d="M162.55,14.62c-0.47,0.32-0.93,0.63-1.4,0.95c-0.5-0.48-1-0.96-1.5-1.44c0,0,0.08-0.09,0.08-0.09
		C160.83,13.43,161.97,12.63,162.55,14.62z"/>
	<path class="st80" d="M129.05,48.99c0.65,2.66,1.59,5.39-1.57,7.23c-0.75-0.06-1.5-0.11-2.25-0.17c-0.63-0.27-1.07-0.75-1.52-1.24
		c-0.34-0.4-0.56-0.87-0.68-1.38c-0.19-1.3-0.02-2.49,0.94-3.47c0.26-0.22,0.56-0.39,0.88-0.52c1.29-0.21,2.5-0.7,3.74-1.11
		C128.96,48.4,129.11,48.63,129.05,48.99z"/>
	<path class="st27" d="M123.74,56.83c-0.99,1.03-0.31,2.74-1.51,3.68c0,0,0,0,0,0c-1.1-1.42-1.17-2.76,0.31-3.97
		C122.99,56.43,123.39,56.53,123.74,56.83z"/>
	<path class="st81" d="M123.74,56.83c-0.25-0.02-0.5-0.05-0.76-0.07c-0.25-0.22-0.32-0.48-0.21-0.79c0.39-0.68,1.14-0.95,1.71-1.42
		c0.61,0.32,0.73,0.89,0.75,1.5C124.74,56.31,124.24,56.57,123.74,56.83z"/>
	<path class="st27" d="M165.69,45.51c-2.27-2.23-0.96-4.48-0.02-6.72c-0.33-1.58-0.12-3.07,0.8-4.43c0.24-0.03,0.48-0.05,0.71-0.08
		c0.76-0.64,1.52-0.59,2.27,0.01c-0.11,2.1,0.47,4.37-1.52,6c-1.72,0.33-0.07,1.31-0.37,1.91
		C167.25,43.48,166.01,44.24,165.69,45.51z"/>
	<path class="st20" d="M169.45,34.29c-0.76,0-1.51,0-2.27-0.01c-0.24-0.26-0.47-0.53-0.71-0.79c-0.98-1.23-0.93-2.47-0.05-3.72
		c0.54-0.83,1.05-0.03,1.58,0.02c0.25,0.46,0.51,0.92,0.76,1.38C168.99,32.21,169.22,33.25,169.45,34.29z"/>
	<path class="st82" d="M167.19,41.84c-0.52-0.33-0.87-0.85-0.65-1.42c0.31-0.82,0.91-0.21,1.4-0.13c0.26,0.5,0.52,0.99,0.77,1.49
		c-0.27,0.01-0.54,0.01-0.81,0.02C167.68,42.15,167.44,42.15,167.19,41.84z"/>
	<path class="st83" d="M129.05,48.99c-0.03-0.16-0.11-0.29-0.25-0.38c-0.72-0.69-1.18-1.45-0.7-2.47c0.07-0.24,0.09-0.49,0.05-0.74
		c1.07,0.06,2.13,0.11,3.2,0.17c2.52,2.19,1.5,4.55,0.43,7.17C130.78,51.35,129.92,50.17,129.05,48.99z"/>
	<path class="st0" d="M138.63,45.51c-0.71,0.08-1.42,0.15-2.14,0.23c-0.42-0.41-0.84-0.82-1.25-1.24c1.11-0.24,2.21-0.48,3.32-0.72
		C138.58,44.35,138.61,44.93,138.63,45.51z"/>
	<path class="st3" d="M37.47,43.32c0.31,0.99,0.62,1.98,0.94,2.97c0.34,1.11,1.3,2.44,0.14,3.31c-1.5,1.11-3.2,0.4-4.73-0.39
		c-0.75-0.28-1.23-0.8-1.4-1.59c-0.12-0.91-0.09-1.83-0.06-2.75c0.02-0.37,0.07-0.73,0.14-1.09c0.47-1.16,0.22-2.59,1.34-3.5
		c0.49,0.75,0.97,1.49,1.46,2.24c0.3,1.01,0.59,2.02,0.97,3.31C36.75,44.83,37.11,44.08,37.47,43.32z"/>
	<path class="st77" d="M33.01,44.77c0,1.02,0.01,2.04,0.01,3.05c-0.6,1.69-0.01,3.53-0.65,5.22c-0.06,0.97-0.13,1.95-0.2,2.92
		c-0.21,0.01-0.41,0.03-0.62,0.06c-0.78-1-0.56-2.01,0-3.01c0-2.5,0-5,0-7.5C31.97,45.13,32.18,44.34,33.01,44.77z"/>
	<path class="st63" d="M32.37,53.04c0.19-1.74-0.71-3.62,0.65-5.22c0.26,0.46,0.52,0.93,0.79,1.39
		C32.42,50.15,33.69,52.08,32.37,53.04z"/>
	<path class="st12" d="M116.99,39.53c-1.26-1.05-1.48-2.3-0.75-3.75c0.25,0.25,0.5,0.5,0.75,0.75c1.04,0.46,1.76,1.34,2.63,2.02
		c0.75,0.74,1.29,1.6,1.46,2.65c-0.01,0.97-0.35,1.78-1.11,2.41c-0.9,0.48-1.8,0.51-2.71,0.03c-0.13-0.14-0.26-0.28-0.38-0.42
		c0.03-0.23,0.05-0.45,0.06-0.68C117.51,41.55,117.76,40.55,116.99,39.53z"/>
	<path class="st84" d="M118.52,52.97c0.02-1.22,0.04-2.44,0.06-3.67c3.31-0.21,2.55,2.45,3.01,4.25c-0.1,1.08-0.45,2.02-1.44,2.6
		C117.83,55.99,119.53,53.78,118.52,52.97z"/>
	<path class="st85" d="M118.58,48.46c-0.3-0.44-0.6-0.89-0.91-1.33c0.01-0.46,0.21-0.85,0.45-1.23c0.31-0.52,0.6-1.07,1-1.54
		c0.51-0.44,1.08-0.72,1.76-0.77c0.35,0.07,0.64,0.23,0.89,0.48c0.28,0.48,0.35,1,0.3,1.54c-0.16,0.92-0.52,1.74-1.1,2.47
		C120.25,48.68,119.53,49.31,118.58,48.46z"/>
	<path class="st69" d="M118.58,48.46c0.72-0.23,1.44-0.46,2.15-0.69c2.77,1.77,2.8,3.5,0.1,5.93c-0.43-1.63-0.09-3.67-2.27-4.4
		C118.57,49.02,118.58,48.74,118.58,48.46z"/>
	<path class="st86" d="M118.52,52.97c1.12,0.69,0.26,2.35,1.46,2.99c0.35,1.43,0.47,2.75-1.49,3.05c0,0,0,0,0,0
		C118.5,56.99,118.51,54.98,118.52,52.97z"/>
	<path class="st87" d="M118.6,46.32c-0.31,0.27-0.61,0.54-0.92,0.81c-1.31-0.15-1.63-0.92-1.33-2.1
		C118.06,43.76,118.95,43.95,118.6,46.32z"/>
	<path class="st88" d="M118.6,46.32c-0.2-1.39-1.17-1.44-2.26-1.29c-0.09-0.68-0.08-1.33,0.53-1.8c0,0,0.22,0.15,0.22,0.15
		c0.57,0.75,2.35-0.45,2.25,1.39C119.09,45.28,118.84,45.8,118.6,46.32z"/>
	<path class="st14" d="M116.99,39.53c1.08,1.02,1.92,2.04-0.05,3.01c-0.21-0.27-0.43-0.53-0.64-0.8
		C117.13,41.2,116.95,40.33,116.99,39.53z"/>
	<path class="st36" d="M167.19,41.84c0.24-0.02,0.48-0.04,0.71-0.05c0.65,1.08,0.97,2.41,2.24,3.04c0.05,4.03-2.64,0.59-3.77,1.38
		c-0.22-0.23-0.45-0.47-0.67-0.7C165.09,43.84,166.74,43.08,167.19,41.84z"/>
	<path class="st89" d="M79.53,86.74c-0.02-0.23-0.01-0.46,0.03-0.69c0.61-0.89,0.85-2.15,2.25-2.26c0.73-0.06,1.46-0.13,2.18-0.19
		c0.74,0.38,1.07-0.45,1.65-0.55c2.42,0.83,1.57,2.95,1.23,4.3c-0.48,1.91-2.01,0.29-3.05,0.19C82.38,87.42,80.96,87.02,79.53,86.74
		z"/>
	<path class="st90" d="M85.64,83.05c-0.1,1-0.37,2.08-1.57,1.93c-0.88-0.11,0.23-0.91-0.08-1.38c0.3-2.49-0.07-4.92-0.63-7.33
		c0.86-0.69,1.41-0.21,1.91,0.49c0.53,1.45,1.13,2.89,0.86,4.49c-0.14,0.36-0.34,0.69-0.59,0.99
		C85.58,82.51,85.61,82.78,85.64,83.05z"/>
	<path class="st91" d="M88.57,70.32c0.02,0.48,0.05,0.96,0.07,1.44c-0.57,2.74,0.68,5.65-0.83,8.3c-1.24-1.05-1.01-2.62-1.41-3.97
		c0.42-2.17-0.21-4.57,1.38-6.49C88.05,69.84,88.31,70.08,88.57,70.32z"/>
	<path class="st6" d="M87.06,76.25c1.21,1.08,0.48,2.54,0.76,3.8c-0.01,0.22-0.03,0.45-0.06,0.67c-1.65,0.29-1.25-1.33-1.87-2.01
		c-0.17-0.52-0.18-1.03-0.02-1.55C86.1,76.65,86.49,76.33,87.06,76.25z"/>
	<path class="st82" d="M86.34,78.46c0.47,0.75,0.94,1.51,1.41,2.26c-0.38,1.03-1.15,1.47-2.2,1.51c-0.01-0.24-0.01-0.49-0.02-0.73
		C86.41,80.66,85.31,79.28,86.34,78.46z"/>
	<path class="st9" d="M79.41,121.17c-0.47-2.54,1.38-1.11,2.4-1.12c-0.75,0.4-1.51,0.79-2.26,1.19
		C79.55,121.24,79.41,121.17,79.41,121.17z"/>
	<path class="st90" d="M120.7,41.02c-0.49-0.75-0.98-1.49-1.47-2.24c-2.07-1.77-1.09-3.92-0.75-5.99c1-0.75,2-1.5,3-2.25
		c1.03,1.31,0.8,2.87,0.84,4.37C121.8,36.96,121.84,39.14,120.7,41.02z"/>
	<path class="st54" d="M121.51,35.06c-0.01-1.51-0.02-3.02-0.03-4.52c0.5-0.25,1.01-0.5,1.51-0.74c-0.3,1.83,0.35,3.52,0.76,5.25
		c-0.26,0.24-0.53,0.48-0.79,0.72C122.13,36.26,121.91,35.46,121.51,35.06z"/>
	<path class="st77" d="M118.48,32.79c0.12,2.01-0.4,4.11,0.75,5.99c-1.47-0.03-1.71-1.29-2.25-2.25
		C118.42,35.66,117.06,33.67,118.48,32.79z"/>
	<path class="st12" d="M30.06,31.29c-0.08-1.3,1.02-1.97,1.57-2.93c1.91-0.13,3.81-0.25,5.2,1.46c-1.12,2.08,0.1,4.71-1.55,6.66
		c-1.91,0.34-1.31,1.88-1.46,3.06c-0.29,0.26-0.62,0.36-1.01,0.34c-1.19-0.48-1.61-1.4-1.52-2.62c0.96-1.14,0.61-2.42,0.6-3.24
		c0.14,0.31,0.2,1.05-0.33,1.77C30.09,34.61,30,32.97,30.06,31.29z"/>
	<path class="st92" d="M84.82,56.09c1.83,0.12,3.96-0.88,5.19,1.42c-2.2,1.5-0.67,3.5-0.7,5.29c0.14,1.93-1.4,3.36-1.54,5.21
		c0,0-0.07-0.04-0.07-0.04c-0.72,0.64-1.44,0.66-2.18,0.04c-0.25,0-0.5,0-0.75-0.01c-0.27-0.69-0.05-1.47-0.41-2.14
		c-0.03-0.81-0.43-1.39-1.15-1.74c-0.24-0.19-0.47-0.39-0.68-0.61C83.23,61.02,81.89,57.89,84.82,56.09z"/>
	<path class="st88" d="M85.52,68.01c0.73-0.01,1.46-0.02,2.18-0.04c-0.02,0.26-0.04,0.52-0.06,0.79c-0.51,1.76-0.06,3.68-0.86,5.4
		c-0.9,0.77,0.07,2.88-2,2.82c-0.3-0.57-0.82-0.72-1.41-0.71c-0.03-0.26-0.06-0.51-0.09-0.77c-0.02-1.24-0.04-2.48-0.06-3.73
		c0.97-0.45,0.81-1.68,1.56-2.28C85.02,69,85.27,68.5,85.52,68.01z"/>
	<path class="st90" d="M84.77,69.49c-0.46,0.8,1.22,3.06-1.56,2.28c-0.25-0.26-0.5-0.52-0.75-0.78c0.04-0.25,0.09-0.5,0.13-0.75
		C83.22,69.71,83.68,68.69,84.77,69.49z"/>
	<path class="st26" d="M84.76,65.75c0.47,0.75,0.46,1.5,0,2.25c-1.25-1.25-1.93-2.78-2.24-4.49c0.25,0,0.49,0,0.74,0
		C84.05,64.06,84.8,64.65,84.76,65.75z"/>
	<path class="st93" d="M29.35,61.32c1.38,1.32,0.64,2.99,0.74,4.52C28.63,64.53,29.56,62.83,29.35,61.32z"/>
	<path class="st12" d="M31.56,37.29c0.5,0.75,1.01,1.5,1.51,2.24c0.22,1.21,0,2.17-1.41,2.45c-0.71-0.36-1.2-0.82-0.85-1.7
		c-0.02-0.61-0.14-1.17-0.75-1.49c0.02-0.83-0.14-1.71,0.75-2.26C31.09,36.76,31.5,36.85,31.56,37.29z"/>
	<path class="st14" d="M31.56,37.29c-0.25-0.25-0.5-0.5-0.75-0.76c0.25-0.25,0.5-0.5,0.75-0.75c0-0.71,0-1.43,0-2.14
		C32.33,34.91,32.69,36.15,31.56,37.29z"/>
	<path class="st24" d="M121.51,35.06c0.48,0.23,0.97,0.47,1.45,0.7c-0.24,1.51-0.48,3.01-0.72,4.52c0,0,0,0,0,0
		c-1.06,1.11,0.49,2.76-0.8,3.83c-0.22-0.06-0.44-0.1-0.66-0.11c-0.3-0.2-0.73-0.25-0.79-0.72c0.24-0.75,0.48-1.5,0.72-2.25
		C120.6,38.99,120.82,36.99,121.51,35.06z"/>
	<path class="st94" d="M128.11,46.14c0.49,0.75,0.8,1.55,0.7,2.47c-0.88,1.22-1.95,1.9-3.51,1.33c-0.44-0.31-0.61-0.75-0.64-1.27
		c0.18-0.96,0.07-1.95,0.32-2.9c0.5-0.62,1.08-0.77,1.75-0.27C127.2,45.71,127.65,45.93,128.11,46.14z"/>
	<path class="st36" d="M121.44,44.11c0.25-1.28-0.48-2.76,0.8-3.83c-0.43,1.87,1.51,2.92,1.6,4.62c0.34,0.42,0.35,0.86,0.13,1.33
		c-0.24,0.23-0.53,0.34-0.86,0.35c-0.69-0.09-1.15-0.52-1.55-1.05C121.51,45.06,121.47,44.58,121.44,44.11z"/>
	<path class="st95" d="M123.71,46.19c0.04-0.43,0.08-0.86,0.11-1.3c1.03-0.09,2.1-0.38,2.91,0.6c-0.66,0.08-1.28,0.24-1.6,0.92
		C124.6,46.72,124.13,46.66,123.71,46.19z"/>
	<path class="st1" d="M121.54,45.53c0.65,0.02,1.19,0.23,1.48,0.87c0.33,0.33,0.57,0.72,0.68,1.18c0.15,0.87,0.46,1.7,0.8,2.51
		c-0.74,1.11-0.84,2.36-0.8,3.64c-0.51,0.67,0.12,1.66-0.65,2.26c-0.03,0.26-0.05,0.52-0.08,0.77c-1.26,1.05-0.57,2.48-0.76,3.75
		c-1.33,0.44-0.8,3.36-2.98,2.46c-1.97-0.81-0.52-2.62-0.76-3.96c0.5-1.02,1-2.03,1.49-3.05c0.29-0.75,0.57-1.51,0.86-2.26
		c0.79-1.99,2.05-3.99-0.1-5.93C121,47.02,121.27,46.28,121.54,45.53z"/>
	<path class="st96" d="M162.55,14.62c-0.81-0.82-1.89-0.34-2.82-0.58c0-0.24,0-0.49,0.01-0.73c0.54-0.66,1.5-0.76,1.96-1.51
		c0.22-1.04-2-0.01-1.27-1.49c1.56-0.01,3.13-0.09,4.56,0.73c0.2,0.52,0.4,1.04,0.6,1.57C164.45,13.08,164.39,15.19,162.55,14.62z"
		/>
	<path class="st88" d="M31.57,41.79c0.5-0.75,1-1.5,1.5-2.26c0.25,0,0.5,0,0.75,0c0.01,0.25,0.01,0.5,0.02,0.75
		c-0.26,1.26,0.42,2.7-0.75,3.78c-0.49-0.49-1.03,0.41-1.53-0.05l0,0.01C30.97,43.28,30.9,42.53,31.57,41.79z"/>
	<path class="st97" d="M172.35,12.45c-0.44-0.01-0.89-0.02-1.33-0.03c-0.21-0.48-0.93-1.12,0.14-1.33
		C172.11,10.9,172.44,11.57,172.35,12.45z"/>
	<path class="st98" d="M161.69,11.79c0.35,1.81-1.04,1.35-1.96,1.51C159.57,11.74,160.64,11.78,161.69,11.79z"/>
	<path class="st36" d="M86.25,74.01c0.46-1.75,0.93-3.5,1.39-5.25c0.05,0.28,0.1,0.56,0.15,0.84c0.08,2.25-0.1,4.48-0.73,6.66
		c-0.24,0.25-0.48,0.5-0.73,0.75C85.64,76.02,85.77,75.02,86.25,74.01z"/>
	<path class="st90" d="M31.57,41.79c0,0.74,0,1.49-0.01,2.23c-0.49-0.01-0.98-0.02-1.46-0.03c0.12-1.26-0.52-2.67,0.71-3.72
		C31.06,40.78,31.31,41.29,31.57,41.79z"/>
	<path class="st19" d="M81.81,83.79c-0.75,0.75-1.5,1.5-2.25,2.26c-0.01-1.03-0.01-2.07-0.02-3.1
		C80.37,83.05,81.28,82.91,81.81,83.79z"/>
	<path class="st12" d="M31.56,53.02c0,1,0,2.01,0,3.01c-0.25,0.49-0.5,0.98-0.75,1.47c-0.25,0.01-0.49,0.03-0.74,0.05
		c-0.38-1.51,0.78-3.03-0.01-4.54C30.56,53.02,31.06,53.02,31.56,53.02z"/>
	<path class="st92" d="M31.56,44.02c0.5,0.3,1.1-2.38,1.53,0.05c-0.01,0.24-0.03,0.47-0.08,0.7c-0.48,0.25-0.97,0.5-1.45,0.74
		C31.56,45.02,31.56,44.52,31.56,44.02z"/>
	<path class="st50" d="M166.47,34.36c-0.28,1.47,0.59,3.15-0.8,4.43c-0.25,0-0.5,0-0.74,0.02
		C163.44,36.64,164.99,35.51,166.47,34.36z"/>
	<path class="st46" d="M166.43,29.78c0.02,1.24,0.03,2.48,0.05,3.72C164.01,32.29,164.16,31.05,166.43,29.78z"/>
	<path class="st74" d="M124.51,50.09c-1.35-0.1-1.61-0.94-1.43-2.09c0.9-0.8,1.5-0.15,2.1,0.45c0.04,0.5,0.08,1,0.12,1.49
		C125.04,49.99,124.77,50.04,124.51,50.09z"/>
	<path class="st69" d="M123.06,55.98c-0.04-0.83-0.15-1.67,0.65-2.26c0.26,0.27,0.51,0.55,0.77,0.82
		C124.46,55.47,124.01,55.97,123.06,55.98z"/>
	<path class="st99" d="M119.99,43.27c0.26,0.24,0.52,0.48,0.79,0.72c-0.48,0.26-0.96,0.52-1.44,0.77c-0.75-0.46-1.5-0.93-2.25-1.39
		C118.05,43.34,119.02,43.31,119.99,43.27z"/>
	<path class="st32" d="M86.25,74.01c0.03,1,0.05,2,0.08,2.99c0,0.49,0.01,0.97,0.01,1.46c-0.23,1.03,0.23,2.23-0.81,3.04
		c-0.25-1.51-0.5-3.02-0.76-4.53C85.98,76.34,85.04,74.64,86.25,74.01z"/>
	<path class="st14" d="M84.76,65.75c-0.5-0.75-1-1.5-1.5-2.25C84.38,63.84,86.1,63.78,84.76,65.75z"/>
	<path class="st100" d="M125.18,48.45c-0.7-0.15-1.4-0.3-2.1-0.45c-0.02-0.53-0.04-1.07-0.05-1.6c0.23-0.05,0.46-0.12,0.69-0.21
		c0.47,0.07,0.95,0.15,1.42,0.22C125.76,47.08,125.72,47.76,125.18,48.45z"/>
</g>
</svg>
