<?xml version="1.0" encoding="utf-8"?>
<!-- Generator: Adobe Illustrator 24.2.1, SVG Export Plug-In . SVG Version: 6.00 Build 0)  -->
<svg version="1.1" id="Calque_1" xmlns="http://www.w3.org/2000/svg" xmlns:xlink="http://www.w3.org/1999/xlink" x="0px" y="0px"
	 viewBox="0 0 199.74 126.19" style="enable-background:new 0 0 199.74 126.19;" xml:space="preserve">
<style type="text/css">
	.st0{fill:#FEFEFE;}
	.st1{fill:#FFDDC7;}
	.st2{fill:#FFDDC6;}
	.st3{fill:#FFDCC4;}
	.st4{fill:#40916C;}
	.st5{fill:#4D9976;}
	.st6{fill:#FFDCC5;}
	.st7{fill:#7EC9A6;}
	.st8{fill:#539C7B;}
	.st9{fill:#4B9875;}
	.st10{fill:#489572;}
	.st11{fill:#FFCBA7;}
	.st12{fill:#FFC7A2;}
	.st13{fill:#FFDAC1;}
	.st14{fill:#519B79;}
	.st15{fill:#FFCCA9;}
	.st16{fill:#99D5B9;}
	.st17{fill:#FFD7BC;}
	.st18{fill:#FFDAC2;}
	.st19{fill:#FFCFAF;}
	.st20{fill:#60A485;}
	.st21{fill:#FFD4B7;}
	.st22{fill:#FFD6BB;}
	.st23{fill:#FCF9F7;}
	.st24{fill:#4F9A78;}
	.st25{fill:#FFD9C0;}
	.st26{fill:#FFD4B8;}
	.st27{fill:#FFC8A3;}
	.st28{fill:#FFD0B0;}
	.st29{fill:#65BF95;}
	.st30{fill:#FFD6BA;}
	.st31{fill:#FFD1B3;}
	.st32{fill:#7CC9A5;}
	.st33{fill:#FFD1B1;}
	.st34{fill:#FFD9BF;}
	.st35{fill:#FFC9A4;}
	.st36{fill:#FFC299;}
	.st37{fill:#73C59F;}
	.st38{fill:#FFF3EB;}
	.st39{fill:#FFD2B5;}
	.st40{fill:#FFD2B4;}
	.st41{fill:#FFD8BE;}
	.st42{fill:#FFCFAE;}
	.st43{fill:#FFD7BD;}
	.st44{fill:#FFEBDE;}
	.st45{fill:#FFD3B6;}
	.st46{fill:#93D2B5;}
	.st47{fill:#FFECDF;}
	.st48{fill:#FFCBA8;}
	.st49{fill:#96D3B7;}
	.st50{fill:#42926D;}
	.st51{fill:#FFF2EA;}
	.st52{fill:#FFC7A1;}
	.st53{fill:#559D7C;}
	.st54{fill:#FFCCAA;}
	.st55{fill:#6BC299;}
	.st56{fill:#FFF8F3;}
	.st57{fill:#FFF5EF;}
	.st58{fill:#85CCAB;}
	.st59{fill:#FFCEAC;}
	.st60{fill:#7FCAA7;}
	.st61{fill:#FFF6F0;}
	.st62{fill:#FFD5B9;}
	.st63{fill:#FFC6A0;}
	.st64{fill:#FFC69F;}
	.st65{fill:#FFC59E;}
	.st66{fill:#90D1B3;}
	.st67{fill:#FFC49D;}
	.st68{fill:#8CCFB0;}
	.st69{fill:#87CDAC;}
	.st70{fill:#FFF2E9;}
	.st71{fill:#FFDBC3;}
	.st72{fill:#84CCAA;}
	.st73{fill:#FFCDAB;}
</style>
<g>
	<path class="st0" d="M104.39,8.58c27.98,0,55.96,0.03,83.94-0.06c2.21-0.01,2.7,0.4,2.7,2.65c-0.09,35.47-0.09,70.94,0,106.41
		c0.01,2.19-0.41,2.68-2.67,2.68c-55.96-0.08-111.92-0.08-167.87,0c-2.2,0-2.7-0.4-2.7-2.65c0.09-35.47,0.09-70.94,0-106.41
		c-0.01-2.19,0.41-2.69,2.67-2.68C48.43,8.62,76.41,8.58,104.39,8.58z"/>
	<path class="st1" d="M104.82,59.94c2.7,6.4,3.66,13.24,5.1,19.95c1.02,4.73,2.46,9.27,4.49,13.65c0.26,1.26-0.02,2.4-1.46,2.39
		c-1.68-0.01-2.69-1.08-2.82-2.82c-4.29-10.07-6.58-20.97-12.68-30.3C99.53,59.77,101.4,59.04,104.82,59.94z"/>
	<path class="st1" d="M44.73,94.06c0.43-4.17,0.83-8.35,1.88-12.42c1-3.9,0.7-4.36-3.22-4.48c-1.49-0.05-2.99-0.01-4.48-0.01
		c-0.14-0.1-0.29-0.19-0.43-0.29c-0.83-1.51-1.7-2.97-3.24-3.95c-1.25-0.79-1.89-1.93-1.45-3.47c0.15-0.33,0.39-0.57,0.72-0.72
		c6.27-0.1,11.92,2.07,17.16,5.15c2.35,1.38,1.55,3.9,0.81,6.07c-1.51,4.44-3.99,8.55-4.5,13.32c0.64,1.5,0.38,2.69-1.4,2.89
		C45.2,96.32,44.16,95.78,44.73,94.06z"/>
	<path class="st2" d="M53,50.78c0.29-0.92,0.57-1.83,0.86-2.75c2.8-1.47,4.69-0.54,5.89,2.21c0.1,2.2,1.14,4.17,1.59,6.27
		c0.61,2.87-0.74,4.22-3.57,3.38c-1.94-0.58-3.69-1.79-5.52-2.72c-0.85-1.66,0.16-2.35,1.52-2.85c1.28-0.36,2.57,0.39,3.83-0.02
		c0.43-0.66,0.11-1.06-0.47-1.36c-1.08-0.16-1.66,0.69-2.43,1.15c-2.1-0.16-2.74,1.68-3.89,2.81c-2,2.59-3.37,5.99-7.53,5.8
		c-1.13-0.29-1.46-1.6-2.53-1.97l-0.23,0.07c-2.89-1.48-4.86-4.54-8.66-4.55c-1.27,0-1.63-1.68-1.73-2.97
		c0.16-0.87,0.38-1.7,1.13-2.29c3.38-3.74,5.42-3.39,8.67,1.48c0.82,1.2,1.89,2.19,2.94,3.18c0.55,0.47,1.14,0.84,1.93,0.66
		c0.7-0.21,1.36-0.52,2.05-0.75c0.56-0.2,1.09-0.45,1.57-0.82c0.96-0.8,1.78-1.75,2.7-2.58C51.68,51.62,52.62,51.58,53,50.78z"/>
	<path class="st1" d="M26.91,95.16c1.48-5.26,1.64-10.93,5.13-15.57c1.26-1.67-0.34-1.68-1.45-1.78c-2.72-0.23-5.39-0.61-7.64-2.33
		c-1.1-3.02,0.63-4.59,3.03-5.81c1.37-0.35,2.76-0.33,4.15-0.15c0.37,0.06,0.73,0.19,1.07,0.35c2.46,2.42,6.48,3.21,7.56,7.08
		c0,0,0.14,0.19,0.14,0.19C36.27,82.94,31.98,88,31.1,94.57c-0.9,0.82-1.81,1.71-2.98,2.02C27.09,96.85,26.08,96.65,26.91,95.16z"/>
	<path class="st1" d="M76.4,90.94c1.21-1.3,1.87-2.84,2.24-4.59c0.87-4.14,2.45-7.92,5.15-11.35c2.8-3.56,2.07-8.26,3.05-12.42
		c0.19-0.82,0.3-1.67,0.44-2.51c2.61,0.44,5.67-0.23,7.19,2.88c-1.72,5.12-3.63,10.05-7.29,14.29c-3.74,4.34-5.5,9.8-6.98,15.28
		c-0.86,1.11-2,1.53-3.25,0.88C75.97,92.88,75.62,91.97,76.4,90.94z"/>
	<path class="st3" d="M104.06,44.35c-1.34,3.03-2.24,6.11-0.84,9.39c-4.61,3.79-10.58,3.53-13.63-0.57
		c1.28-3.45,3.53-6.59,3.36-10.49c3.72-0.75,7.3,0.73,10.98,0.62C104.27,43.62,104.31,43.97,104.06,44.35z"/>
	<path class="st2" d="M178.25,91.32c-0.01,0.69-0.01,1.39-0.02,2.08c-0.92,1.3-0.02,2.74-0.31,4.09c-0.96,1.38-1.94,2.53-3.15,0.21
		c0.89-4.48,0.08-9.07,0.84-13.56c0.08-1.84,1.45-4.41-2.33-4.1c-1.13,0.31-2.22,0.76-3.37,0.99c-0.75,0.21-1.55-0.07-3.06,0.37
		c1.47-0.35,2.17-0.26,2.87-0.2c0.1,0.14,0.21,0.27,0.31,0.41c-1.88,0.86-3.89,0.73-5.88,0.73c-1.86-1.82-0.73-3.74-0.21-5.65
		c0.46-1.13,1.1-2.11,2.32-2.57c0.23-0.06,0.46-0.08,0.69-0.06c0.93-0.01,1.78,0.33,2.66,0.58c2.05,0.33,4.12,0.03,6.18,0.21
		c0.97,0.18,1.87,0.56,2.8,0.88c0.88,0.62,1.25,1.54,1.48,2.53c-0.13,1.59,0.36,3.23-0.32,4.78l0.04-0.08
		c-1.09,1.37,0.11,3.14-0.79,4.55l0.04-0.08C177.99,88.58,179.09,90.15,178.25,91.32z"/>
	<path class="st2" d="M104.06,44.35c-0.02-0.28-0.04-0.57-0.06-0.85c-0.23-0.23-0.47-0.46-0.72-0.67c-0.87-0.77-1.84-1.37-2.93-1.79
		c-1.43-0.95-2.91-1.58-4.73-1.29c-1.31,0.21-2.37-0.29-2.74-1.72c-0.08-1.36-0.56-2.68-0.49-4.06c0.32-1.93,1.38-3.25,3.25-3.9
		c1.01,0.08,1.76,0.71,2.59,1.19c0.92,0.67,1.72,1.46,2.39,2.38c0.36,0.53,0.65,1.11,0.96,1.66c0.53,0.99,1.24,1.8,2.23,2.36
		c1.69,1.18,2.4-0.65,3.55-1.14c0.62-0.18,1.28-0.12,1.91-0.21c0.8-0.3,1.38-0.81,1.73-1.58c0.11-0.29,0.29-0.54,0.53-0.75
		c1.68-0.73,1.76-2.44,2.37-3.83c0.3-0.22,0.61-0.25,0.94-0.09c1.97,0.84,2.71,2.07,1.24,3.97c-0.29,0.41-0.63,0.76-1.02,1.07
		c-0.37,0.3-0.75,0.59-1.11,0.91c-0.95,0.8-1.72,1.82-2.79,2.49c-0.56,0.33-0.81,0.9-1.1,1.44
		C108.83,42.45,106.88,43.99,104.06,44.35z"/>
	<path class="st4" d="M89.59,53.17c4.4,3.57,9.02,1.85,13.63,0.57c0.53,2.07,1.07,4.13,1.6,6.2c-2.72,0.3-5.16,1.3-7.37,2.88
		c-1.04-1.16-2.02-0.83-2.98,0.12c-2.04-1.84-5.25-0.8-7.19-2.88C87.88,57.71,88.37,55.32,89.59,53.17z"/>
	<path class="st2" d="M149.71,94.06c-0.01-0.24,0.04-0.47,0.13-0.68c1.19-2.03,0.96-4.28,1.08-6.48c0.51-1.18,0.18-2.7,1.5-3.53
		c0.76-0.26,1.48-0.1,2.17,0.25c4.27,0.58,3.33,3.47,2.77,6.19c-0.74,2.97-2.25,5.56-3.92,8.08c-1.59,1.43-3.35,1.74-5.29,0.78
		c-2.38,0.75-3.11-2.21-5.14-2.26c-1.47-1.67-3.76-2.1-5.4-3.51c-0.05-0.17-0.09-0.33-0.14-0.5c0.05-0.36,0.23-0.64,0.54-0.84
		c2.53-0.41,4.71,1.3,7.2,1.16c0.26,0.24,0.52,0.49,0.77,0.73C147.25,93.46,148.18,95.49,149.71,94.06z"/>
	<path class="st4" d="M154.27,84.41c-0.5-0.23-1-0.47-1.5-0.7c-0.65-0.27-1.11-0.75-1.42-1.37c0.03-2.48,0.98-4.69,2.01-6.89
		c0.49-0.32,1.02-0.54,1.62-0.55c2.99,0.68,5.96,0.53,8.9-0.33c0.73,0.41,1.29,0.91,0.91,1.86c-0.05,2-1.16,3.88-0.65,5.93
		c-1.77,0.77-4.04,0.37-5.3,2.29C157.3,84.9,155.76,85.17,154.27,84.41z"/>
	<path class="st2" d="M22.57,65.2c2.5-2.45,4.88-5,6.43-8.18c2.76,3.4,7.14,2.94,10.69,4.47c-0.77,1.53-2.43,2.02-3.63,3.06
		c-1.31,1.14-2.08,2.41-1.56,4.19c0,0-0.23,0.18-0.23,0.18c-0.28,0.21-0.6,0.31-0.96,0.29c-0.53-0.04-1.06-0.11-1.59-0.13
		C28.19,68.9,24.24,69.7,22.57,65.2z"/>
	<path class="st3" d="M165.5,69.63c-0.02,0.49-0.05,0.98-0.07,1.48c-1.18,0.72-0.93,2.06-1.37,3.11c-0.33,0.18-0.66,0.34-1.01,0.49
		c-2.64,1.1-5.26,1.67-7.77-0.3c-0.41-0.95-0.24-1.89,0.05-2.82c0.53-1.58,0.5-3.18,0.25-4.8c-0.16-1.31,0.75-1.41,1.68-1.5
		c0.35,0.02,0.69,0.1,1.02,0.2c1.94,1.03,3.05-0.37,4.27-1.46c0.34-0.15,0.7-0.22,1.07-0.24c0.59,0.05,1.1,0.24,1.4,0.8
		C165.34,66.25,164.66,68.01,165.5,69.63z"/>
	<path class="st5" d="M44.73,94.06c0.17,1.14,0.76,1.89,2,1.65c1.35-0.26,0.89-1.58,1.25-2.43c3.28,0.18,4.32,3.73,7.26,4.74
		c1.35,0.46-0.35,1.97-1.32,2.01c-3.1,0.13-6.52,0.73-9.25-0.31C42.19,98.76,42.99,95.97,44.73,94.06z"/>
	<path class="st6" d="M151.21,53.86c0-0.21,0.03-0.42,0.08-0.62c1.03-0.76,2.16-0.86,3.37-0.52c0.93,0.44,1.31,1.3,1.67,2.17
		c0.3,0.81,0.55,1.63,0.92,2.41c0.59,1.24,1.11,2.51,1.93,3.61c0.8,0.72,1.47,0.14,2.15-0.23c0.87-0.49,1.65-1.22,2.77-1.14
		c0.55,0.15,0.89,0.5,1.02,1.06c-0.01,2.11-2,2.68-3.1,3.94c-0.96,1.61-2.41,1.73-4.04,1.33l0.01,0.01
		c-0.36-0.33-0.84-0.49-1.16-0.86c-0.19-0.27-0.35-0.55-0.49-0.84c-1.38-2.43-3.88-4.09-4.87-6.8
		C151.05,56.23,150.5,55.09,151.21,53.86z"/>
	<path class="st7" d="M39.69,61.48c-2.79-0.36-5.81,0.7-8.35-1.24c-1.09-0.84-2.12-1.75-2.34-3.23c0.38-1.24,0.75-2.47,1.13-3.71
		c1,1.5,1.69,2.67,4.23,2.5c2.88-0.19,4.51,2.79,6.15,5.01C40.24,61.04,39.97,61.26,39.69,61.48z"/>
	<path class="st5" d="M110.13,93.12c1.32,1.21,2.46,4.21,4.28,0.42c1.65,2.23,3.31,4.45,4.94,6.7c0.46,0.64,0.68,1.41,0.13,2.05
		c-0.66,0.76-1.58,0.63-2.41,0.27c-3.17-1.38-5-4.5-8.08-6.15C107.62,95.69,109.16,94.08,110.13,93.12z"/>
	<path class="st8" d="M137.76,94c-0.46,0.57-0.92,1.13-1.38,1.7c-0.26,0.23-0.59,0.27-0.92,0.32c0.32,0.04,0.64,0.08,0.88,0.33
		c0.35,0.61,1.16,1.56,0.99,1.79c-0.87,1.15-2.24,0.49-3.41,0.57c-1.25,0.08-2.33-0.51-2.48-1.75c-0.25-2.06-0.78-4.17-0.76-6.14
		c0.02-2.5,2.3-2.32,4.24-1.69c0.22,0.42,0.43,0.84,0.64,1.26c0.37,1.1,1.54,1.48,2.15,2.35l-0.07,0.01
		C138.23,93.11,138.16,93.54,137.76,94z"/>
	<path class="st9" d="M76.4,90.94c-0.07,3.72,2.39,1.39,3.81,1.58c0.65,2.58,1.35,5.14,1.94,7.73c0.2,0.88-0.06,1.8-1.08,2.05
		c-0.96,0.24-1.91,0.19-2.79-0.53C76.23,100.08,75.08,93.67,76.4,90.94z"/>
	<path class="st2" d="M110.06,39.94c-0.03-0.67,0.08-1.27,0.74-1.62c1.25-0.72,2.21-1.73,2.96-2.95c0.28-0.24,0.56-0.48,0.84-0.72
		c0.51,0.33,1.23,1.03,1.52,0.9c0.78-0.36-0.01-1.31,0.34-1.94c0.73-0.6,0.19-2.4,1.94-2.03c1.47,1.48,1.33,3.55,1.96,5.34
		c-0.57,1.48,0.13,2.93,0.11,4.4c-2.4,1.63-4.09-0.5-6.01-1.2C112.97,39.57,111.6,38.43,110.06,39.94z"/>
	<path class="st7" d="M103.99,42.89c-0.01,0.2,0,0.41,0.01,0.61c-3.81,1.4-7.42,0.11-11.05-0.83c-0.08-1.15-0.16-2.3-0.24-3.45
		c-0.26-0.77-0.69-1.63,0.77-1.58c0.14,1.02,0.89,1.78,1.74,1.35c2.52-1.25,4.1,0.26,5.81,1.59
		C102.05,41.31,103.02,42.1,103.99,42.89z"/>
	<path class="st10" d="M32.83,68.15c0.56-0.07,0.84,0.28,1.05,0.72c-0.27,1.44-0.99,2.22-2.57,1.72c-0.24-0.1-0.48-0.2-0.72-0.29
		c-1.51-0.48-3.01-0.6-4.49,0.08c-2.03,1.11-2.76,3-3.14,5.11c-3.29-2.83-3.62-4.92-1.4-8.9c0.56-0.38,1.19-0.44,1.68,0
		C26.11,69.14,29.45,68.71,32.83,68.15z"/>
	<path class="st11" d="M103.22,16.03c0.52,0.27,1.04,0.55,1.56,0.82c0.18,0.17,0.25,0.35,0.21,0.54c-0.04,0.19-0.08,0.29-0.13,0.29
		c-0.87,0.66-1.96,1.02-2.67,1.91c-0.39,0.33-0.84,0.51-1.35,0.54c-3.29-0.21-3.76,2.36-4.55,4.59c0,0,0.21,0.11,0.32,0.12
		c0.11,0.01,0.24-0.04,0.37-0.06c1.01,0.49,1.03,1.41,1.08,2.33c-0.01,0.31-0.06,0.62-0.15,0.92c-0.11,0.29-0.27,0.54-0.49,0.76
		c-0.57,0.31-1.16,0-1.74,0.07c-0.2-0.31-0.4-0.63-0.6-0.94c-1.12-0.81,0.03-2.14-0.7-3.03c-0.6-4.21,0.95-7.24,4.96-8.93
		C100.63,15.56,101.93,15.42,103.22,16.03z"/>
	<path class="st3" d="M48.59,55.44c-0.33,0.61-0.89,0.75-1.52,0.77c-0.36-1.48-1.96-1.7-2.79-2.7c-0.69-2.01-0.35-3.96,0.34-5.9
		c0.13-0.35,0.32-0.67,0.56-0.96c0.28-0.28,0.62-0.4,1.02-0.37c0.36,0.13,0.64,0.36,0.87,0.67c0.06,0.17,0.13,0.35,0.19,0.52
		c2.04,0.9,2.67,4.19,5.75,3.32c-0.13,0.86-0.66,1.38-1.43,1.71C50.2,53.1,49.4,54.27,48.59,55.44z"/>
	<path class="st9" d="M26.91,95.16c0.18,0.88,0.59,1.46,1.33,0.5c0.77-1.01,1.67-1.33,2.86-1.09c0.36,1.27,0.72,2.54,1.08,3.81
		c0.2,0.57,0.44,1.13-0.05,1.69c-0.31,0.36-0.67,0.32-1.06,0.18c0.14,0.66,0.58,0.21,0.81,0.16c1.15-0.25,1.87,0.25,2.4,1.19
		c-0.06,0.25-0.13,0.49-0.19,0.74c-5.5,0.9-8.38-1.26-8.05-6.02C26.04,95.71,26.29,95.3,26.91,95.16z"/>
	<path class="st12" d="M38.82,36.11c0.55-1.15,1.51-1.59,2.74-1.57c1.12-0.31,2.24-0.56,3.32,0.12c0.41,0.93,0.05,1.84-0.62,2.3
		c-1.67,1.15-1.92,2.89-2.34,4.61c-0.53,0.72-0.87,1.57-1.6,2.14c-0.87,0.15-1.43-0.29-1.85-0.98
		C37.71,40.48,37.89,38.28,38.82,36.11z"/>
	<path class="st13" d="M48.77,37.59c0.55,0.37,0.61,0.91,0.5,1.49c-2.26,1.1-0.67,2.05,0.13,3.03c0,1.26,0.48,2.63-0.85,3.58
		c-1.24-0.37-2.63-0.4-3.44-1.65c-0.45-0.9-0.49-1.87-0.52-2.85c0.14-1.94-0.45-4.14,1.91-5.29C47.76,35.78,47.9,37.17,48.77,37.59z
		"/>
	<path class="st14" d="M175.2,97.94c1.39,1.39,1.64-0.19,2.25-0.85c0.3-0.39,0.68-0.36,1.09-0.24c0.43,0.49,0.87,0.99,1.3,1.48
		c0.59,1.13,1.96,1.58,2.47,2.78c0.15,0.59,0.04,1.09-0.5,1.45c-2.09-0.09-4.05-0.89-6.19-0.86c-1.51,0.03-2.67-0.69-2.02-2.57
		c-0.03-0.88,0.09-1.7,0.81-2.32C174.82,97.09,174.91,97.58,175.2,97.94z"/>
	<path class="st15" d="M154.21,39.77c1.17-2.15,3.13-2.37,5.28-2.15c1.24,2.07-1.39,3.05-1.36,4.78c-0.15,0.56-0.38,1.08-0.74,1.53
		c-0.81,0.77-1.7,1.07-2.72,0.41C153.3,42.94,153.53,41.37,154.21,39.77z"/>
	<path class="st16" d="M39.52,53.22c-3.27-4.69-4.15-4.93-8.26-2.2c0.81-3.62,4.73-3.21,6.81-5.19c0.34-0.28,0.67-0.27,1,0.02
		c0.48,0.62,0.6,1.36,0.66,2.11c0.03,1.09,0.16,2.17,0.44,3.24C40.24,51.96,40.2,52.69,39.52,53.22z"/>
	<path class="st17" d="M164.76,60.72c-0.27-0.27-0.54-0.54-0.81-0.81c-0.41-0.37-0.47-0.83-0.37-1.34c0.16-0.47,0.43-0.87,0.74-1.24
		c0.65-0.67,1.06-1.57,1.95-2.01c0.65,0.09,1.25,0.06,1.6-0.6c1-0.56,1.16-2.23,2.74-2.04c0.74,0.07,1.31,0.43,1.74,1.03
		c0.14,0.32,0.17,0.65,0.09,0.99c-0.56,0.85-1.5,1.31-2.17,2.05c-1.14,0.94-1.76,2.35-2.92,3.28c-0.55,0.35-1.06,0.76-1.71,0.94
		C165.32,61.02,165.02,60.94,164.76,60.72z"/>
	<path class="st18" d="M109.27,37.6c-0.5-0.25-1-0.5-1.51-0.75c-0.24-0.21-0.46-0.45-0.65-0.7c-0.5-1.34-2.29-1.21-2.87-2.46
		c-0.36-1-0.96-2-0.07-3.03c1.43-0.59,2.56,0.12,3.69,0.84c1.22,0.83,2.43,1.67,3.65,2.5c0,0.21,0,0.42,0,0.63
		C110.97,35.77,109.85,36.48,109.27,37.6z"/>
	<path class="st19" d="M175.2,97.94c-0.26-0.37-0.52-0.75-0.79-1.12c0.3-5.09,0.07-10.22,0.99-15.27c1.19,0.1,1.01,0.74,0.58,1.47
		C175.82,87.99,176.43,93.01,175.2,97.94z"/>
	<path class="st20" d="M173.6,99.13c0.21,1.4,0.98,1.94,2.44,2.07c2.01,0.17,3.99,0.69,5.98,1.06c0.63-0.63,1.48-0.66,2.28-0.81
		c1.57,1.71,0.16,2.12-1.11,2.03c-3.05-0.23-6.05-0.93-9.11-1.23C172.06,102.06,172.96,100.33,173.6,99.13z"/>
	<path class="st21" d="M134.79,90.45c0.04-0.44,0.08-0.88,0.11-1.32c3.44,1.19,6.87,2.38,10.3,3.57c-2.65,1.28-4.92-0.98-7.46-0.77
		C136.49,91.98,135.58,91.33,134.79,90.45z"/>
	<path class="st22" d="M164.85,46.58c-0.57,1.72-1.13,3.44-1.7,5.15c-0.46,0.46-1,0.47-1.57,0.25c-0.87-0.57-1.25-1.38-1.12-2.41
		c1.54-1.01,0.33-4.19,3.29-4.08C164.32,45.65,164.69,46.01,164.85,46.58z"/>
	<path class="st17" d="M154.18,51.62c0.71-2.22-1.02-3.86-1.39-5.83c0.27-0.26,0.59-0.37,0.96-0.35c1.81,0.96,2.3,3.09,3.84,4.3
		c0.23,1.58-0.29,2.72-1.92,3.19C154.96,52.74,153.86,52.97,154.18,51.62z"/>
	<path class="st23" d="M107.78,27.96c0,0.21,0.01,0.43,0.01,0.64c-0.26,2.27-1.86,2.13-3.5,1.92c-0.4,0.06-0.77-0.01-1.12-0.21
		c-0.99-1.47-0.21-2.5,0.88-3.45c0.71-0.58,1.39-1.21,2.34-1.4C107.99,25.68,107.21,27.19,107.78,27.96z"/>
	<path class="st24" d="M26.05,96.31c1.02,4.87,2.54,6.01,8.05,6.02c-2.58,1.66-4.8,0.93-6.99-0.87
		C25.28,99.97,24.96,98.32,26.05,96.31z"/>
	<path class="st25" d="M59.75,50.24c-1.66-1.54-3.5-2.58-5.89-2.21c0.61-2.22,2.26-1.88,3.88-1.53
		C59.86,46.96,59.95,48.53,59.75,50.24z"/>
	<path class="st26" d="M169.23,74.81c-0.83-0.02-1.72,0.13-2.28-0.73c4.28-0.19,8.58-0.62,12.58,1.48c-0.33,0.43-0.88,0.43-1.3,0.7
		c-0.75-0.24-1.5-0.48-2.26-0.71C173.81,74.54,171.39,75.78,169.23,74.81z"/>
	<path class="st18" d="M175.2,57.7c0.12,0.19,0.14,0.4,0.07,0.62c0.22,1.61,0.33,3.22-0.1,4.82c-1.92,0.77-2.99-0.1-3.62-1.84
		c-0.08-0.39-0.08-0.78-0.04-1.17c0.06-0.39,0.2-0.75,0.4-1.09C172.85,58.2,173.51,56.71,175.2,57.7z"/>
	<path class="st27" d="M152,57.62c1.43,2.51,4.49,3.79,5.25,6.8c-1.76,0.58-2.36-1.41-3.74-1.67c-1.1-0.89-1.67-2.03-1.58-3.46
		C151.59,58.72,151.55,58.16,152,57.62z"/>
	<path class="st15" d="M38.79,45.82l-0.36-0.01c0,0-0.36,0.01-0.36,0.01c-0.28-0.72-0.56-1.44-0.84-2.15
		c0.02-0.15,0.04-0.31,0.06-0.46c0.08-1.23,0.06-2.47,0.03-3.7c-0.01-0.15-0.02-0.31-0.03-0.46c0.03-1.23,0.56-2.2,1.54-2.94
		c0,2.23,0,4.47,0,6.7c0.54,0.92,1.25,1.78,0.9,2.96C39.43,46.03,39.11,46.06,38.79,45.82z"/>
	<path class="st28" d="M172.21,60.69c0.14,1.9,1.37,2.32,3,2.19c0.21,0.19,0.29,0.38,0.24,0.59c-0.05,0.21-0.1,0.32-0.17,0.32
		c-3.28,1.24-4.82-1.53-6.93-2.98c0.08-0.13,0.17-0.26,0.25-0.4C169.86,59.86,171.04,60.14,172.21,60.69z"/>
	<path class="st29" d="M32.83,68.15c-4.14,2.2-7.68,0.08-11.28-1.57c0.34-0.46,0.68-0.92,1.02-1.38
		C25.33,68.46,29.07,68.34,32.83,68.15z"/>
	<path class="st30" d="M175.2,57.7c-1,0.5-2,1-3,1.5c-0.56-0.47-0.62-1.09-0.57-1.76c0.25-0.88,0.08-1.85,0.58-2.68
		c0-0.27,0.01-0.54,0.01-0.81c1.08-0.76,1.68-0.11,2.22,0.74C174.7,55.7,174.95,56.7,175.2,57.7z"/>
	<path class="st31" d="M154.27,84.41c1.52,0.08,3.05,0.16,4.57,0.24c0.03,1.87-0.51,3.57-1.48,5.15c-0.22-0.28-0.68-0.71-0.61-0.82
		C158.51,86.05,156.43,85.21,154.27,84.41z"/>
	<path class="st32" d="M165.49,60.64c0.31-0.59,0.88-0.69,1.47-0.73c0.74-0.22,0.94,0.09,0.76,0.77c-0.74,1.26-1.48,2.53-2.22,3.79
		c-0.25,0.27-0.52,0.31-0.81,0.07c-0.47-0.06-0.93-0.12-1.4-0.19C163.01,62.52,165.02,62.04,165.49,60.64z"/>
	<path class="st33" d="M164.85,46.58c-0.29-0.27-0.58-0.53-0.88-0.8c-0.24-0.2-0.35-0.45-0.34-0.76c0.08-0.7,0.14-1.4-0.1-2.09
		c-0.2-0.68-0.38-1.37-0.56-2.06c-0.06-0.29-0.04-0.58,0.04-0.86c0.12-0.09,0.23-0.18,0.35-0.27
		C166.91,41.37,165.44,44.07,164.85,46.58z"/>
	<path class="st34" d="M118.41,31.58c-0.59,0.79-1.18,1.59-1.76,2.38c-0.43,0.37-0.88,0.39-1.34,0.07c1.64-1.66,0.2-2.72-0.77-3.86
		c1.44-0.77,2.71-0.68,3.71,0.73C118.3,31.13,118.35,31.35,118.41,31.58z"/>
	<path class="st35" d="M48.77,37.59c-0.82-0.17-1.35-0.68-1.7-1.41c-0.61-0.65-1.73,0.09-2.25-0.82c-0.87-1.12-2.16-0.59-3.26-0.82
		C45.83,33.33,47.27,33.94,48.77,37.59z"/>
	<path class="st36" d="M174.44,54.7c-0.74-0.25-1.48-0.5-2.22-0.74c-0.48-0.26-0.95-0.51-1.43-0.77c-0.45-0.29-1.07-0.43-1.03-1.16
		c1.65-1.28,3.1-0.7,4.49,0.49C174.32,53.24,174.38,53.97,174.44,54.7z"/>
	<path class="st37" d="M153.52,62.76c0.07-0.67,0.26-1.23,1.04-0.62c0.93,0.72,1.8,1.52,2.69,2.29c0.03,0.24,0.04,0.48,0.04,0.72
		c-0.97,0.53-1.94,0.62-2.92,0.02C153.95,64.41,153.34,63.72,153.52,62.76z"/>
	<path class="st19" d="M151.25,86.71c-0.7,2.17,1.51,4.95-1.41,6.66c-0.43-2.3,0.83-4.39,0.8-6.64
		C150.84,86.5,151.04,86.49,151.25,86.71z"/>
	<path class="st28" d="M175.98,83.01c-0.19-0.49-0.39-0.98-0.58-1.47c-0.49-1.13-1.52-0.84-2.42-0.9c-0.47-0.44-0.43-0.89,0-1.33
		C175.62,79.23,177.83,79.5,175.98,83.01z"/>
	<path class="st38" d="M107.78,27.96c-0.48-0.75-0.97-1.5-1.45-2.25c-0.27-0.21-0.43-0.48-0.49-0.82c0-0.34,0.09-0.65,0.25-0.95
		c0.47-0.48,0.94-0.98,1.7-0.51C109.23,24.96,108.4,26.46,107.78,27.96z"/>
	<path class="st39" d="M157.23,42.1c-0.15-1.94,2.35-2.57,2.26-4.48c1.04-0.04,2.13-0.29,2.89,0.74c-0.53,0.78-1.25,1.38-1.92,2.04
		C159.47,41.11,158.85,42.56,157.23,42.1z"/>
	<path class="st40" d="M137.76,94c-0.04-0.42-0.09-0.83-0.13-1.25c1.92,1.03,4.47,1.14,5.38,3.64
		C140.89,96.4,139.78,94.22,137.76,94z"/>
	<path class="st41" d="M45.58,44.31c1.24-0.08,2.37,0.1,2.97,1.39c-0.43,0.59-0.86,1.18-1.28,1.76c0,0-0.22-0.21-0.22-0.21
		c-0.23-0.24-0.48-0.48-0.72-0.71c-0.23,0-0.47-0.01-0.7-0.01c-0.72-0.17-1.02-0.65-1.04-1.35C44.74,44.7,45.07,44.41,45.58,44.31z"
		/>
	<path class="st11" d="M97.98,31.69c-1.12-0.05-1.8-0.73-2.34-1.61c0-0.23,0.05-0.45,0.14-0.66c0.45-0.35,1.17-0.17,1.51-0.74l0,0
		c1.61-0.89,2.05,0.28,2.53,1.41C99.71,31.19,99.3,31.95,97.98,31.69z"/>
	<path class="st42" d="M167.72,60.68c-0.25-0.26-0.5-0.51-0.76-0.77c0.75-1.46,1.4-3.01,3.06-3.74c0.13,0.1,0.26,0.2,0.4,0.29
		c0.52,0.67,0.84,1.4,0.62,2.27c-0.56,1.01-1.97,0.93-2.55,1.93c0,0-0.13,0.15-0.13,0.15C168.13,60.81,167.92,60.76,167.72,60.68z"
		/>
	<path class="st31" d="M163.97,74.03c-0.87-1.64-1.23-3.03,1.45-2.93c0.04,0.94,0.09,1.88,0.13,2.82
		C165.06,74.51,164.53,74.49,163.97,74.03z"/>
	<path class="st42" d="M148.15,98.65c1.82,0.14,3.57-0.26,5.29-0.78C152.08,100.87,150.19,100.26,148.15,98.65z"/>
	<path class="st43" d="M166.27,55.32c-0.03,1.09-0.47,1.92-1.51,2.38c-1.17-0.97-1.47-2.25-1.36-3.69c0.1-0.39,0.31-0.71,0.64-0.96
		C165.02,53.58,165.77,54.33,166.27,55.32z"/>
	<path class="st31" d="M155.75,71.11c0,1,0,2,0,3c-0.23,0.22-0.5,0.29-0.81,0.2c-0.41-0.24-0.67-0.58-0.71-1.07
		c0.67-1.91,0.98-3.87,0.9-5.89c0.43-0.22,0.73-0.1,0.92,0.33C156,68.83,156.41,70.02,155.75,71.11z"/>
	<path class="st3" d="M107.8,23.45c-0.49,0.3-0.98,0.59-1.47,0.89c-1.08-0.68-1.42-1.66-1.21-2.88c0.36-0.74,0.88-1.19,1.77-0.92
		C107.54,21.4,107.8,22.38,107.8,23.45z"/>
	<path class="st24" d="M34.29,101.59c-1.26-0.36-2.52-0.72-3.83-1.1c0.77-0.56,1.79-0.92,1.72-2.12
		C33.02,99.36,34.25,100.09,34.29,101.59z"/>
	<path class="st44" d="M103.91,30.28c1.53-0.01,2.98-0.22,3.88-1.67c0,0-0.03,0.08-0.03,0.08c0.47,0.49,0.43,0.99,0.02,1.49
		c0.03,0.44,0.06,0.87,0.09,1.31c-1.39,0.61-2.46-0.61-3.75-0.62c-0.2-0.08-0.29-0.19-0.29-0.34
		C103.84,30.36,103.86,30.28,103.91,30.28z"/>
	<path class="st21" d="M151.25,86.71c-0.2,0.01-0.4,0.02-0.6,0.02c0.24-1.47,0.47-2.93,0.71-4.4c0.47,0.46,0.95,0.91,1.42,1.37
		C151.54,84.35,152.43,86.05,151.25,86.71z"/>
	<path class="st17" d="M154.21,39.77c0.25,1.51,0.51,3.02,0.76,4.54c-0.31,0.71-0.77,1.12-1.6,0.8c-0.52-0.93,0-2.02-0.44-2.96
		C153.08,41.2,153.44,40.37,154.21,39.77z"/>
	<path class="st45" d="M40.75,60.75c1.46-0.12,2.37,0.44,2.53,1.97C40.75,64.2,41.43,61.61,40.75,60.75z"/>
	<path class="st41" d="M54.77,54.65c-1.6,0.09-2.42,0.95-2.52,2.52c-0.48-0.09-0.95-0.18-1.43-0.27c0.58-1.82,1.13-3.67,3.74-2.94
		C54.8,54.14,54.86,54.37,54.77,54.65z"/>
	<path class="st46" d="M93.48,37.64c-0.26,0.53-0.51,1.05-0.77,1.58c-0.98-1.69-0.67-3.47-0.33-5.25
		C92.74,35.2,93.11,36.42,93.48,37.64z"/>
	<path class="st33" d="M152,57.62c-0.02,0.56-0.04,1.12-0.07,1.68c-1.31-1.67-2.37-3.37-0.73-5.44
		C151.47,55.11,151.74,56.37,152,57.62z"/>
	<path class="st35" d="M174.26,52.52c-1.43-0.14-2.85-1.65-4.29-0.03c-0.63,0.17-1,0.06-0.74-0.7
		C171.14,50.45,172.84,50.49,174.26,52.52z"/>
	<path class="st21" d="M175.29,63.78c-0.03-0.3-0.05-0.6-0.08-0.9c-0.57-1.53-0.45-3.05,0.06-4.56
		C176.29,60.14,176.61,61.96,175.29,63.78z"/>
	<path class="st21" d="M154.18,51.62c0.3,0.67,0.88,0.84,1.54,0.86c0.18,0.67-0.05,0.93-0.74,0.74c-1.23,0-2.46,0.01-3.7,0.01
		C151.65,51.65,153.08,51.92,154.18,51.62z"/>
	<path class="st47" d="M94.36,24.87c0.8,0.88,0.84,1.94,0.7,3.03C91.51,27.66,93.89,26.05,94.36,24.87z"/>
	<path class="st48" d="M179.74,83.06c-0.01-1.76-0.03-3.51-0.04-5.27c-0.38-0.75,0.02-0.81,0.62-0.7
		C180.42,79.11,181.25,81.2,179.74,83.06z"/>
	<path class="st21" d="M172.98,79.31c0,0.44,0,0.89,0,1.33c-0.88,0.64-1.89,0.92-2.96,0.99c0,0-0.13-0.25-0.13-0.25
		c-0.2-0.17-0.25-0.32-0.16-0.45c0.08-0.12,0.17-0.18,0.25-0.18C170.98,80.27,171.98,79.79,172.98,79.31z"/>
	<path class="st49" d="M164.04,53.06c-0.03,0.32-0.07,0.64-0.1,0.95c-0.31,0.35-0.44,0.89-1.04,0.92c-1.11-0.37-1.46-1.26-1.58-2.31
		c0.05-0.34,0.19-0.62,0.44-0.86c0.47-0.01,0.93-0.02,1.4-0.02C163.45,52.18,163.74,52.62,164.04,53.06z"/>
	<path class="st41" d="M106.89,20.54c-0.46,0.24-0.91,0.47-1.37,0.71c-0.88-0.73-0.93-1.8-1.12-2.8c0-0.35,0.11-0.67,0.34-0.94
		c0.02-0.22,0.03-0.44,0.04-0.66C106.42,17.55,106.48,19.14,106.89,20.54z"/>
	<path class="st43" d="M118.24,30.9c-1.14-0.71-2.41-0.82-3.71-0.73c-0.21-0.01-0.42-0.01-0.63-0.01
		C115.64,28.72,117.21,28.22,118.24,30.9z"/>
	<path class="st34" d="M120.48,41.32c-1.12-1.44-1.03-2.91-0.11-4.4C120.5,38.38,121.56,39.82,120.48,41.32z"/>
	<path class="st17" d="M149.71,94.06c-0.91,1.62-0.91,1.62-3.73-0.64C147.36,92.82,148.39,94.3,149.71,94.06z"/>
	<path class="st26" d="M169.23,51.78c0.25,0.23,0.49,0.47,0.74,0.7c0.28,0.23,0.55,0.47,0.83,0.7c-0.97,0.51-1.95,1.02-2.92,1.53
		C168.24,53.7,168.22,52.51,169.23,51.78z"/>
	<path class="st15" d="M164.69,64.54c0.27-0.02,0.54-0.05,0.81-0.07c0,1.72,0,3.44,0,5.16C164.03,68.12,165.06,66.22,164.69,64.54z"
		/>
	<path class="st48" d="M49.39,42.11c-1.69-0.94-2.95-1.9-0.13-3.03C49.31,40.09,49.35,41.1,49.39,42.11z"/>
	<path class="st11" d="M160.21,39.82c0.43-0.93,1.14-1.43,2.18-1.46c0.32,0.47,0.64,0.93,0.97,1.4c0,0-0.15,0.07-0.15,0.07
		c-0.54,0.64-1.16,1.12-2.08,1.02C160.63,40.67,160.32,40.33,160.21,39.82z"/>
	<path class="st42" d="M155.72,67.36c-0.2,0-0.4,0-0.6,0c-0.25-0.73-0.5-1.46-0.76-2.19c0.97-0.01,1.95-0.01,2.92-0.02
		c0.23,0.25,0.47,0.49,0.7,0.74c-0.83,0.01-1.71-0.16-2.24,0.73c0.21,0.17,0.27,0.34,0.2,0.5C155.87,67.28,155.8,67.36,155.72,67.36
		z"/>
	<path class="st15" d="M37.23,43.67c-0.94-1.55-0.86-3.09,0.06-4.62c0,0,0.16,0.26,0.16,0.26c0.37,1.36,0.4,2.72-0.02,4.08
		L37.23,43.67z"/>
	<path class="st50" d="M163.97,74.03c0.53-0.03,1.05-0.07,1.58-0.1c0.23,0.07,0.46,0.14,0.7,0.21c-0.49,0.76-0.97,1.52-1.46,2.29
		c-0.29-0.58-0.59-1.16-0.88-1.74c-0.01-0.16-0.01-0.33-0.02-0.49L163.97,74.03z"/>
	<path class="st51" d="M107.78,30.18c-0.01-0.5-0.01-0.99-0.02-1.49c0.6-0.37,1.2-0.74,2.07-1.28
		C109.76,29.02,108.78,29.6,107.78,30.18z"/>
	<path class="st24" d="M136.33,96.36c-0.94-0.15-2.11,1.14-2.99-0.81c1.12,0.06,2.08,0.11,3.04,0.16
		C136.44,95.93,136.43,96.15,136.33,96.36z"/>
	<path class="st48" d="M179,87.53c0.18-1.53-0.65-3.23,0.79-4.55C179.43,84.48,180.63,86.25,179,87.53z"/>
	<path class="st52" d="M178.54,96.85c-0.36,0.08-0.73,0.16-1.09,0.24c0.21-1.24-0.49-2.66,0.78-3.68
		C178.33,94.55,178.43,95.7,178.54,96.85z"/>
	<path class="st20" d="M181.98,100.9c-1.02-0.6-1.96-1.27-2.14-2.57c1,0.82,1.99,1.64,2.99,2.46
		C182.58,101.08,182.29,101.1,181.98,100.9z"/>
	<path class="st53" d="M181.98,100.9c0.28-0.03,0.57-0.07,0.85-0.1c0.49,0.22,0.98,0.44,1.47,0.66c-0.51,0.96-1.39,0.89-2.28,0.81
		C182.01,101.81,181.99,101.35,181.98,100.9z"/>
	<path class="st15" d="M103.22,16.03c-1.3-0.03-2.6-0.05-3.9-0.08C100.63,15.24,101.94,14.91,103.22,16.03z"/>
	<path class="st54" d="M152.93,42.14c0.85,0.84,0.45,1.91,0.56,2.89c0.22,0.17,0.29,0.33,0.21,0.5c-0.08,0.16-0.15,0.24-0.23,0.24
		c-0.23,0.01-0.46,0.01-0.69,0.02C152.47,44.56,152.57,43.35,152.93,42.14z"/>
	<path class="st39" d="M180.32,77.09c-0.21,0.23-0.41,0.46-0.62,0.7c-0.49-0.51-0.98-1.01-1.47-1.52c0.43-0.23,0.87-0.47,1.3-0.7
		C179.79,76.08,180.06,76.58,180.32,77.09z"/>
	<path class="st55" d="M154.23,73.25c0.29,0.27,0.57,0.53,0.86,0.8c-0.11,0.51,0.44,1.09-0.17,1.54c-0.52-0.04-1.04-0.09-1.56-0.13
		C153.41,74.62,153.56,73.84,154.23,73.25z"/>
	<path class="st27" d="M97.28,28.67c0.03,0.41,0.07,0.83,0.1,1.24c-0.54-0.17-1.07-0.33-1.61-0.5c-0.16-0.17-0.19-0.35-0.1-0.56
		C96.11,27.94,96.72,28.51,97.28,28.67z"/>
	<path class="st11" d="M178.25,91.32c0.12-1.32-0.53-2.8,0.79-3.87C178.91,88.77,179.7,90.27,178.25,91.32z"/>
	<path class="st41" d="M31.31,70.58c1.16-0.13,2.07-0.62,2.57-1.72c0.13-0.01,0.27,0.01,0.39,0.04c-0.24,1.81,0.62,3,2.14,3.85
		c1.63,0.91,2.56,2.25,2.35,4.19C37.23,73.73,33.29,73.29,31.31,70.58z"/>
	<path class="st54" d="M38.79,45.82c0.26-0.01,0.52-0.02,0.78-0.03c0.64,0.09,1.38,0.42,1.41,0.95c0.14,2.29,1.13-0.13,1.56,0.32
		c0.5,0.17,0.87,0.49,1.11,0.95c0.17,0.47,0.17,0.94,0.01,1.41c-0.48,0.75-0.97,1.5-0.44,2.44c0.32,0.76,0.66,1.51,0.7,2.34
		c-0.04,0.96-0.38,1.73-1.35,2.09c-1.27-0.78-2.27-1.82-3.06-3.08c0-0.72-0.01-1.44-0.01-2.17c0.21-1.09,0.26-2.15-0.66-2.99
		C38.83,47.31,38.81,46.57,38.79,45.82z"/>
	<path class="st56" d="M54.77,54.65c-0.07-0.23-0.14-0.46-0.21-0.68c0.11-1.8,1.23-2.29,2.83-2.17c0.9,1.08,1.97,2.13,0.67,3.61
		C56.65,56.49,55.98,54.39,54.77,54.65z"/>
	<path class="st57" d="M44.85,53.91c0.79-0.38,1.55-0.8,2.38,0c0.91,0.87,0.22,1.56-0.17,2.29c-0.7,0.23-1.4,0.45-2.1,0.68
		c-0.56-0.33-0.75-0.85-0.81-1.45C44.17,54.83,44.35,54.3,44.85,53.91z"/>
	<path class="st58" d="M44.66,55.41c0.1,0.49,0.2,0.98,0.3,1.47c-1.2,1.42-1.76,0.31-2.38-0.59c0.26-0.76,0.53-1.53,0.79-2.29
		C44.79,53.58,44.19,54.97,44.66,55.41z"/>
	<path class="st41" d="M48.59,55.44c0.37-1.6,0.97-2.98,2.99-2.95C50.85,53.74,49.87,54.74,48.59,55.44z"/>
	<path class="st1" d="M58.06,55.4c0.62-1.36-0.27-2.44-0.67-3.61C59.22,52.7,59.8,53.84,58.06,55.4z"/>
	<path class="st29" d="M26.09,70.37c1.48-1.27,2.97-1.26,4.49-0.08C29.09,70.32,27.59,70.34,26.09,70.37z"/>
	<path class="st39" d="M169.23,74.81c2.24,0.33,4.63-0.73,6.75,0.74C173.73,75.24,171.34,76.27,169.23,74.81z"/>
	<path class="st59" d="M169.97,80.75c0,0.21-0.03,0.42-0.09,0.63c-0.95,0-1.91,0-3.19,0C167.92,80.41,169,80.93,169.97,80.75z"/>
	<path class="st54" d="M104.84,33.89c1.02,0.65,3.5-0.52,2.85,2.24c-1.04,0.76-2.21,1.01-3.48,0.89c-1.31-0.06-2.3-0.75-3.19-1.62
		c-0.57-0.33-0.74-0.88-0.78-1.48c0.12-0.52,0.44-0.86,0.94-1.04c0.83-0.11,1.63,0.1,2.43,0.27
		C104.1,33.25,104.48,33.55,104.84,33.89z"/>
	<path class="st60" d="M104.11,36.17c1.19-0.02,2.39-0.03,3.58-0.05c0.04,0.24,0.07,0.48,0.08,0.73c-1.22,1.26-1.96,3.94-4.44,1.48
		C102.83,37.35,103.38,36.73,104.11,36.17z"/>
	<path class="st54" d="M101.06,33.09c-0.27,0.27-0.55,0.54-0.82,0.82c-0.75-0.74-1.51-1.47-2.26-2.21c0.73-0.3,1.26-0.79,1.55-1.53
		c-0.51-0.93-0.7-1.91-0.5-2.95c0.32-0.57,0.66-1.1,1.43-0.57C101.4,28.72,102.24,30.81,101.06,33.09z"/>
	<path class="st61" d="M115.3,34.03c0.45-0.02,0.9-0.05,1.34-0.07c0.62,0.92,1.37,1.8,0.56,3.19c-1.18-0.53-2.55-0.76-2.6-2.5
		C114.84,34.45,115.07,34.24,115.3,34.03z"/>
	<path class="st62" d="M104.11,36.17c-0.26,0.72-0.52,1.44-0.78,2.16c-1.26-0.6-2.22-1.45-2.31-2.95
		C102.05,35.65,103.08,35.91,104.11,36.17z"/>
	<path class="st43" d="M113.76,35.37c-0.2,1.76-1.18,2.75-2.96,2.95C111.5,37.05,112.5,36.08,113.76,35.37z"/>
	<path class="st25" d="M109.27,37.6c0.06-1.51,1.05-2.32,2.25-2.97C111.92,36.47,110.2,36.74,109.27,37.6z"/>
	<path class="st3" d="M103.99,42.89c-1.42-0.23-2.3-1.13-2.96-2.31C102.56,40.66,103.42,41.59,103.99,42.89z"/>
	<path class="st3" d="M134.79,90.45c1.17,0.12,2.21,0.51,2.96,1.48c-0.02,0.27-0.04,0.54-0.06,0.81
		C136.39,92.39,134.61,92.65,134.79,90.45z"/>
	<path class="st37" d="M154.92,75.58c-0.03-0.52-0.77-1.12,0.17-1.54c0.22,0.02,0.44,0.05,0.66,0.07c2.7,1.46,5.43,0.5,8.15,0.08
		c0.01,0.16,0.02,0.33,0.02,0.49C161.13,77.09,158.08,76.87,154.92,75.58z"/>
	<path class="st31" d="M157.98,65.88c1.25-0.52,2.75-0.41,3.77-1.48c0.26-0.33,0.51-0.31,0.75,0.02
		C161.64,66.88,160.36,68.07,157.98,65.88z"/>
	<path class="st52" d="M162.5,64.41c-0.25-0.01-0.5-0.02-0.75-0.02c1-1.22,2.01-2.45,3.01-3.67c0.25-0.02,0.49-0.05,0.73-0.07
		c0.06,1.7-1.71,2.33-2.21,3.71C163.03,64.37,162.76,64.39,162.5,64.41z"/>
	<path class="st45" d="M155.72,67.36c0.01-0.25,0.01-0.49,0.02-0.74c1.13,1.5,1.11,3,0,4.5C155.74,69.86,155.73,68.61,155.72,67.36z
		"/>
	<path class="st3" d="M154.98,53.23c0.25-0.25,0.49-0.49,0.74-0.74c0.98-0.75,1.39-1.78,1.53-2.96c0.28-0.21,0.59-0.27,0.92-0.18
		c0.46,0.25,0.79,0.61,0.98,1.1c0.13,0.51,0.09,1-0.09,1.49c-0.49,0.89-0.9,1.81-1.21,2.78c-0.49,0.84-1.05,1.51-2.11,0.75
		C155.49,54.72,155.23,53.97,154.98,53.23z"/>
	<path class="st22" d="M155.74,55.47c0.99-0.03,1.48-0.55,1.51-1.51c0.3-0.23,0.61-0.25,0.94-0.06c0.76,0.8,1.18,1.71,0.91,2.84
		c-0.15,0.31-0.38,0.57-0.67,0.77c-0.62,0.34-1.25,0.54-1.94,0.2C156.24,56.96,155.99,56.21,155.74,55.47z"/>
	<path class="st48" d="M156.49,57.7c0.53-0.23,1.06-0.46,1.59-0.7c1.49,0.8,1.61,2.1,1.31,3.55c-0.13,0.38-0.36,0.69-0.69,0.93
		C157.95,60.23,157.22,58.96,156.49,57.7z"/>
	<path class="st12" d="M158.69,61.49c0.02-0.28,0.04-0.55,0.05-0.83c1.03-0.41,2.07-0.63,3.13-0.08c0.18,0.31,0.13,0.58-0.14,0.81
		C160.71,61.27,159.8,64.44,158.69,61.49z"/>
	<path class="st27" d="M161.73,61.39c0-0.25,0-0.5-0.01-0.75c-0.43-0.66,0.01-1.13,0.34-1.63c0.3-0.35,0.66-0.63,1.1-0.8
		c0.31-0.04,0.59,0.04,0.82,0.27c-0.01,0.48-0.02,0.95-0.03,1.43C163.21,60.4,162.47,60.89,161.73,61.39z"/>
	<path class="st63" d="M100.32,26.49c-0.27,0.23-0.53,0.47-0.8,0.7c-0.58,0.75-1.14,1.56-2.24,0.74c-0.11-1.03,0.34-2.19-0.75-2.97
		c0.02-2.99,1.42-4.81,4.5-5.21c0.25-0.25,0.5-0.5,0.75-0.75c1.45-0.31,1.46,1.07,2.1,1.73c0.38,0.67,0.34,1.27-0.34,1.75
		c-1.64,0.71-2.1,2.31-2.84,3.7C100.57,26.28,100.45,26.38,100.32,26.49z"/>
	<path class="st64" d="M101.03,19.74c-2.04,1.28-3.56,2.99-4.5,5.21c-0.02,0.12,0,0.27-0.06,0.35c-0.12,0.15-0.3,0.25-0.46,0.37
		c-0.61-1.86-0.3-3.68,0.99-5.03C97.98,19.62,99.27,18.15,101.03,19.74z"/>
	<path class="st15" d="M103.28,21.23c-0.5-0.74-1.01-1.48-1.51-2.23c0.56-1.34,1.69-1.56,2.96-1.49c0.01,0.24,0.02,0.48,0.02,0.73
		C104.8,19.49,104.27,20.47,103.28,21.23z"/>
	<path class="st27" d="M97.28,27.93c0.75-0.25,1.5-0.49,2.24-0.74c0,0.99,0,1.98,0,2.98c-0.78-0.45-1.08-1.61-2.25-1.49
		C97.28,28.42,97.28,28.18,97.28,27.93z"/>
	<path class="st65" d="M43.29,48c-0.24-0.24-0.48-0.48-0.72-0.72c-0.72-0.6-1.13-1.41-1.55-2.22c-0.47-1.25-0.54-2.5,0.04-3.74
		c0.57-2.41,1.63-4.52,3.76-5.96c0.83,0.04,1.74-0.13,2.25,0.82c-2.39,1.16-1.12,3.39-1.51,5.13c-1.15,1.07-0.61,2.47-0.75,3.73
		c0.27,0.5,0.54,0.99,0.81,1.49c-0.04,0.25-0.07,0.49-0.11,0.74c-0.26,0.33-0.59,0.55-1,0.66C44.11,48.04,43.7,48.04,43.29,48z"/>
	<path class="st66" d="M44.11,47.35c0.47-0.03,0.93-0.05,1.4-0.08c-0.59,2.18-0.85,4.39-0.66,6.64c-0.06,0.5-0.12,1-0.19,1.5
		c-0.43-0.47-0.86-0.94-1.29-1.41c-0.24-0.74-0.49-1.47-0.73-2.21c0-0.5,0.14-0.96,0.4-1.38C44.14,49.64,43.28,48.21,44.11,47.35z"
		/>
	<path class="st18" d="M46.32,46.54c0.24,0.24,0.48,0.47,0.72,0.71C46.8,47.01,46.56,46.78,46.32,46.54z"/>
	<path class="st63" d="M41.83,45.04c0.87,0.54,0.71,1.42,0.74,2.24c-2.28,2.05-1.96-1.06-3-1.49c-0.51-0.93-0.87-1.89-0.75-2.98
		c0.5,0.25,0.99,0.5,1.49,0.75C40.95,43.92,40.74,45.14,41.83,45.04z"/>
	<path class="st15" d="M41.83,45.04c-0.13,0.29-0.27,0.58-0.4,0.88c-0.86-0.56-0.99-1.46-1.12-2.36c0.04-0.81-0.12-1.69,0.75-2.23
		C40.99,42.63,41.11,43.9,41.83,45.04z"/>
	<path class="st28" d="M44.8,45.05c-0.99-1.49-1.58-2.9,0.75-3.73c0.01,1,0.01,2,0.02,2.99C45.32,44.55,45.06,44.8,44.8,45.05z"/>
	<path class="st27" d="M158.74,50.29c-0.26-0.26-0.52-0.51-0.79-0.77c-1.89-1.78-2.08-3.77-0.74-5.95c0.01-0.49,0.01-0.99,0.02-1.48
		c0.99-0.76,1.98-1.52,2.97-2.28c0.27,0.27,0.53,0.54,0.8,0.81c0.67,0.55,0.91,1.32,1.08,2.12c0.03,0.33-0.01,0.65-0.11,0.97
		c-0.23,0.43-0.55,0.79-0.92,1.11c-0.84,0.56-1.32,1.21-0.58,2.19c0.3,0.58,0.43,1.18,0.21,1.81c-0.07,0.31-0.17,0.61-0.31,0.9
		C159.95,50.25,159.49,50.68,158.74,50.29z"/>
	<path class="st45" d="M157.21,43.58c-0.18,2.03,0.23,4,0.74,5.94c0,0-0.35-0.01-0.35-0.01s-0.35,0.01-0.35,0.01
		c-2.93,0.41-2.1-2.91-3.77-3.75c0-0.25,0.01-0.49,0.01-0.74c0.49-0.25,0.98-0.49,1.48-0.73C155.72,44.06,156.47,43.82,157.21,43.58
		z"/>
	<path class="st67" d="M38.85,48.06c1.86,0.94,2.09,1.95,0.66,2.99C38.47,50.23,38.88,49.1,38.85,48.06z"/>
	<path class="st68" d="M163.98,58.48c-0.25-0.01-0.49-0.02-0.74-0.02c-1.08-1.23-1.11-2.47-0.04-3.73c0.24-0.24,0.49-0.48,0.73-0.72
		c0.27,1.23,0.55,2.46,0.82,3.69C164.5,57.96,164.24,58.22,163.98,58.48z"/>
	<path class="st63" d="M172.21,54.76c0.22,0.71,1.18,1.38,0.12,2.17c-0.89,0.14-1.7-0.02-2.34-0.71c0,0,0.02-0.06,0.02-0.06
		C170.45,55.24,171.16,54.73,172.21,54.76z"/>
	<path class="st69" d="M104.84,33.89c-0.51-0.03-1.02-0.05-1.53-0.08c-0.8-0.73-0.91-1.64-0.7-2.64c0.11-0.38,0.32-0.69,0.63-0.95
		c0.22,0.01,0.45,0.03,0.67,0.06c0.05,0.21,0.12,0.4,0.21,0.59C104.36,31.87,104.6,32.88,104.84,33.89z"/>
	<path class="st3" d="M160.96,44.28c0.25-0.25,0.5-0.5,0.75-0.75c0.69-0.45,1.27-0.1,1.87,0.22c0.41,0.33,0.72,0.69,0.42,1.25
		c-0.01,0.26-0.02,0.52-0.04,0.77c-2.13,0.35-1.68,2.74-2.99,3.73c-0.25,0.26-0.5,0.25-0.75-0.01c-0.01-0.73-0.02-1.47-0.03-2.2
		C159.61,46.09,160.22,45.17,160.96,44.28z"/>
	<path class="st11" d="M160.22,49.51c0.25,0,0.5,0,0.75,0.01c0.26,0.75,0.52,1.5,0.77,2.24c-0.01,0.23-0.02,0.46-0.03,0.68
		c-2.25-0.11-2.3-1.31-1.49-2.94L160.22,49.51z"/>
	<path class="st3" d="M103.24,30.22c-0.01,0.21-0.04,0.42-0.1,0.62c-2.13-2.38-1.87-3.24,1.2-4c0.17,0.14,0.34,0.28,0.51,0.42
		C103.85,27.99,102.78,28.69,103.24,30.22z"/>
	<path class="st3" d="M106.22,24.96c0.04,0.25,0.08,0.5,0.11,0.75c-0.49,0.51-0.98,1.03-1.47,1.54c0,0-0.15-0.12-0.15-0.12
		C103.19,25.03,104.53,24.88,106.22,24.96z"/>
	<path class="st41" d="M168.48,60.66c-0.62-2.12,1.24-1.77,2.27-2.25c1.28-0.41,0.85,0.96,1.39,1.32c0.02,0.32,0.04,0.65,0.07,0.97
		C170.96,61.51,169.73,60.43,168.48,60.66z"/>
	<path class="st70" d="M172.14,59.72c-0.46-0.44-0.93-0.88-1.39-1.32c-0.25-0.73-0.51-1.45-0.76-2.18c0.86-0.02,1.72-0.06,2.34,0.71
		c-0.04,0.76-0.09,1.51-0.13,2.27C172.15,59.37,172.13,59.54,172.14,59.72z"/>
	<path class="st65" d="M37.43,43.38c0.01-1.36,0.01-2.72,0.02-4.08C38.43,40.67,38.45,42.03,37.43,43.38z"/>
	<path class="st71" d="M161.72,42.83c-0.89-0.53-0.7-1.4-0.71-2.21c0.73-0.27,1.46-0.53,2.19-0.8c0.02,0.26,0.05,0.52,0.07,0.78
		C163.81,42.08,163.42,42.9,161.72,42.83z"/>
	<path class="st19" d="M161.72,42.83c1.01-0.4,1.49-1.17,1.56-2.23c0.84,0.53,0.67,1.39,0.7,2.18c-0.01,0.59-0.21,1.09-0.7,1.45
		c-0.52-0.23-1.04-0.47-1.56-0.7C161.73,43.3,161.73,43.07,161.72,42.83z"/>
	<path class="st52" d="M163.28,44.23c-0.02-0.6,0.14-1.12,0.7-1.45c0.89,0.73,0.95,1.47,0.03,2.23
		C163.76,44.75,163.52,44.49,163.28,44.23z"/>
	<path class="st3" d="M106.22,24.96c-0.78,0.54-2.3,0.57-1.51,2.17c-2.96,0.22-2.51,1.86-1.56,3.7c0.06,0.99,0.11,1.98,0.17,2.97
		c-0.75-0.24-1.51-0.48-2.26-0.72c-0.24-2.2-1.15-4.33-0.74-6.6c0,0,0-0.01,0-0.01c1.12-1.41,1.14-3.53,2.95-4.5
		c0.51-0.24,0.5-0.5,0.01-0.76c0.08-1.19,0.51-2.22,1.47-2.99c1.12,0.79,0.66,1.97,0.77,3.01c0.27,1.03,0.54,2.06,0.81,3.09
		C106.34,24.55,106.31,24.76,106.22,24.96z"/>
	<path class="st3" d="M160.23,49.5c-0.1,1.28,0.11,2.4,1.49,2.94c0.5,0.76,0.99,1.53,1.49,2.29c0.01,1.24,0.02,2.48,0.04,3.73
		c-0.24,0.24-0.49,0.47-0.73,0.71c-2.06,0.6-2.97-0.72-3.78-2.22c-0.24-0.98-0.48-1.95-0.72-2.93c0-0.85,0.17-1.64,0.73-2.31
		c0-0.47,0-0.94,0-1.41C159.24,50.03,159.74,49.77,160.23,49.5z"/>
	<path class="st63" d="M43.36,51.02c-0.24,0.26-0.48,0.51-0.72,0.77c-1.25-1.17-1.05-1.93,0.65-2.26
		C43.76,50,43.73,50.51,43.36,51.02z"/>
	<path class="st41" d="M43.36,51.02c-0.02-0.5-0.05-1-0.07-1.5c0-0.51,0-1.01,0-1.52c0.27-0.22,0.55-0.44,0.82-0.65
		C43.88,48.58,44.51,49.98,43.36,51.02z"/>
	<path class="st15" d="M158.74,51.71c0.01,0.85,0.1,1.72-0.73,2.31c-0.25-0.02-0.51-0.05-0.76-0.07
		C157.24,52.87,157.74,52.13,158.74,51.71z"/>
	<path class="st72" d="M158.74,56.95c1.26,0.74,2.52,1.48,3.78,2.22c-0.26,0.49-0.53,0.98-0.79,1.47c-0.99,0.09-1.98,0.81-2.98,0.02
		c0.05-1.27-0.07-2.5-0.67-3.65C158.29,56.98,158.52,56.97,158.74,56.95z"/>
	<path class="st73" d="M103.27,21.98c-1.24,1.33-0.68,3.83-2.95,4.5C100.43,24.42,100.65,22.43,103.27,21.98z"/>
	<path class="st21" d="M160.96,44.28c0.15,1.11-0.23,2.09-0.77,3.03c-0.79-0.12-1.48-0.38-1.33-1.36
		C159.04,44.79,159.9,44.39,160.96,44.28z"/>
</g>
</svg>
